<svg xmlns="http://www.w3.org/2000/svg" width="25" height="12" viewBox="0 0 25 12">
    <path fill="#A4A3A3" fill-rule="nonzero" d="M24.322 8.368c.226.225.396.453.509.683.113.23.169.444.169.64 0 .392-.282.875-.847 1.449-.565.573-1.398.86-2.498.86l-19.469-.072a.7.7 0 0 1-.675-.523C.515 7.593.014 5.66.008 5.603a.654.654 0 0 1 .051-.39.995.995 0 0 1 .17-.242.936.936 0 0 1 .258-.17c.113-.053.258-.08.434-.08h.089c.52.049.86.127 1.017.235.157.108.265.191.324.25l.044.044.059.059c.177.176.447.45.81.823a105.13 105.13 0 0 0 1.128 1.14l.14.14 3.772-.06-.788-1.712-.9-1.956c-.289-.633-.542-1.189-.758-1.67a17.53 17.53 0 0 0-.368-.793c-.099-.216-.123-.397-.074-.545a.805.805 0 0 1 .162-.308.766.766 0 0 1 .354-.28A1.3 1.3 0 0 1 6.418 0l.781.03c.52.019.943.044 1.267.073.266.03.474.09.627.184.152.093.267.179.346.257l.044.044.03.03a370.117 370.117 0 0 1 2.402 2.706c.628.715 1.272 1.45 1.93 2.205.658.755 1.194 1.358 1.606 1.81l6.204.014c.609 0 1.137.1 1.584.301.447.201.808.44 1.083.714z"/>
</svg>
