<svg xmlns="http://www.w3.org/2000/svg" xmlns:xlink="http://www.w3.org/1999/xlink" width="171" height="141" viewBox="0 0 171 141">
    <defs>
        <path id="a" d="M49.587.933C22.315.933 0 22.68 0 49.258v29.32c0 26.578 22.315 48.324 49.587 48.324 4.73 0 9.304-.668 13.645-1.887 11.35 9.304 25.992 14.919 41.986 14.919 36.05 0 65.274-28.48 65.274-63.612 0-35.132-29.224-63.611-65.274-63.611a66.73 66.73 0 0 0-19.99 3.051A50.067 50.067 0 0 0 49.587.933z"/>
        <path id="c" d="M.269 64.322c0 34.858 28.038 63.166 62.791 63.606 35.661-.44 64.432-28.748 64.432-63.606 0-34.857-28.771-63.166-64.432-63.606C28.307 1.156.269 29.465.269 64.322"/>
        <linearGradient id="d" x1="0%" y1="50%" y2="50%">
            <stop offset="0%" stop-color="#9AF200"/>
            <stop offset="100%" stop-color="#17FF59"/>
        </linearGradient>
        <path id="f" d="M49.587.933C22.315.933 0 22.68 0 49.258v29.32c0 26.578 22.315 48.324 49.587 48.324 4.73 0 9.304-.668 13.645-1.887 11.35 9.304 25.992 14.919 41.986 14.919 36.05 0 65.274-28.48 65.274-63.612 0-35.132-29.224-63.611-65.274-63.611a66.73 66.73 0 0 0-19.99 3.051"/>
        <path id="h" d="M49.587.933C22.315.933 0 22.68 0 49.258v29.32c0 26.578 22.315 48.324 49.587 48.324 4.73 0 9.304-.668 13.645-1.887 11.35 9.304 25.992 14.919 41.986 14.919 36.05 0 65.274-28.48 65.274-63.612 0-35.132-29.224-63.611-65.274-63.611a66.73 66.73 0 0 0-19.99 3.051A50.067 50.067 0 0 0 49.587.933z"/>
        <path id="j" d="M49.587.933C22.315.933 0 22.68 0 49.258v29.32c0 26.578 22.315 48.324 49.587 48.324 4.73 0 9.304-.668 13.645-1.887 11.35 9.304 25.992 14.919 41.986 14.919 36.05 0 65.274-28.48 65.274-63.612 0-35.132-29.224-63.611-65.274-63.611a66.73 66.73 0 0 0-19.99 3.051"/>
        <path id="l" d="M49.587.933C22.315.933 0 22.68 0 49.258v29.32c0 26.578 22.315 48.324 49.587 48.324 4.73 0 9.304-.668 13.645-1.887 11.35 9.304 25.992 14.919 41.986 14.919 36.05 0 65.274-28.48 65.274-63.612 0-35.132-29.224-63.611-65.274-63.611a66.73 66.73 0 0 0-19.99 3.051"/>
        <path id="n" d="M49.587.933C22.315.933 0 22.68 0 49.258v29.32c0 26.578 22.315 48.324 49.587 48.324 4.73 0 9.304-.668 13.645-1.887 11.35 9.304 25.992 14.919 41.986 14.919 36.05 0 65.274-28.48 65.274-63.612 0-35.132-29.224-63.611-65.274-63.611a66.73 66.73 0 0 0-19.99 3.051"/>
        <path id="p" d="M49.587.933C22.315.933 0 22.68 0 49.258v29.32c0 26.578 22.315 48.324 49.587 48.324 4.73 0 9.304-.668 13.645-1.887 11.35 9.304 25.992 14.919 41.986 14.919 36.05 0 65.274-28.48 65.274-63.612 0-35.132-29.224-63.611-65.274-63.611a66.73 66.73 0 0 0-19.99 3.051"/>
        <path id="r" d="M49.587.933C22.315.933 0 22.68 0 49.258v29.32c0 26.578 22.315 48.324 49.587 48.324 4.73 0 9.304-.668 13.645-1.887 11.35 9.304 25.992 14.919 41.986 14.919 36.05 0 65.274-28.48 65.274-63.612 0-35.132-29.224-63.611-65.274-63.611a66.73 66.73 0 0 0-19.99 3.051"/>
        <path id="t" d="M49.587.933C22.315.933 0 22.68 0 49.258v29.32c0 26.578 22.315 48.324 49.587 48.324 4.73 0 9.304-.668 13.645-1.887 11.35 9.304 25.992 14.919 41.986 14.919 36.05 0 65.274-28.48 65.274-63.612 0-35.132-29.224-63.611-65.274-63.611a66.73 66.73 0 0 0-19.99 3.051"/>
        <path id="v" d="M49.587.933C22.315.933 0 22.68 0 49.258v29.32c0 26.578 22.315 48.324 49.587 48.324 4.73 0 9.304-.668 13.645-1.887 11.35 9.304 25.992 14.919 41.986 14.919 36.05 0 65.274-28.48 65.274-63.612 0-35.132-29.224-63.611-65.274-63.611a66.73 66.73 0 0 0-19.99 3.051"/>
        <path id="x" d="M49.587.933C22.315.933 0 22.68 0 49.258v29.32c0 26.578 22.315 48.324 49.587 48.324 4.73 0 9.304-.668 13.645-1.887 11.35 9.304 25.992 14.919 41.986 14.919 36.05 0 65.274-28.48 65.274-63.612 0-35.132-29.224-63.611-65.274-63.611a66.73 66.73 0 0 0-19.99 3.051A50.067 50.067 0 0 0 49.587.933z"/>
    </defs>
    <g fill="none" fill-rule="evenodd">
        <g transform="translate(0 .067)">
            <mask id="b" fill="#fff">
                <use xlink:href="#a"/>
            </mask>
            <path fill="#FADA00" d="M39.217 6.398l-.986 2.216c-.984 2.21-2.463 4.028-4.262 5.237l-1.802 1.212 1.802 1.211c1.799 1.21 3.278 3.027 4.262 5.238l.986 2.215.986-2.215c.983-2.21 2.462-4.028 4.26-5.238l1.804-1.21-1.803-1.213c-1.8-1.209-3.278-3.027-4.261-5.237l-.986-2.216z" mask="url(#b)"/>
        </g>
        <g transform="translate(43 12.067)">
            <mask id="e" fill="#fff">
                <use xlink:href="#c"/>
            </mask>
            <path fill="url(#d)" d="M.269 64.322c0 34.858 28.038 63.166 62.791 63.606 35.661-.44 64.432-28.748 64.432-63.606 0-34.857-28.771-63.166-64.432-63.606C28.307 1.156.269 29.465.269 64.322" mask="url(#e)"/>
        </g>
        <g transform="translate(0 .067)">
            <mask id="g" fill="#fff">
                <use xlink:href="#f"/>
            </mask>
            <path fill="#FF8C66" d="M168.767 125.972c-2.547-.396-4.818-1.878-7.116-2.999-2.322-1.133-4.633-2.288-6.95-3.428a3962.66 3962.66 0 0 1-14.468-7.15c-4.51-2.242-9.087-4.338-13.658-6.452-1.708-.47-3.396-1.08-5.029-1.583a240.347 240.347 0 0 1-10.66-3.559c-3.253-1.17-6.518-2.352-9.693-3.72-3.197-1.377-6.858-2.73-9.306-5.274-1.575-1.635-.86-5.138 1.83-5.016 3.298.15 6.31 1.556 9.367 2.718 3.383 1.285 6.743 2.631 10.148 3.855 1.218.437 2.441.858 3.666 1.273-1.122-.732-2.223-1.467-3.298-2.165-.39-.253-.774-.516-1.158-.778-4.084-1.966-8.187-3.892-12.273-5.853a246.197 246.197 0 0 1-12.535-6.456c-2.55-1.409-6.242-2.71-5.753-5.909-.628-1.762 1.133-4.066 3.175-3.544 5.742 1.468 10.887 4.137 16.314 6.447.993.423 1.997.82 3 1.22a472.33 472.33 0 0 1-2.694-1.499c-4.318-2.424-8.538-4.948-12.62-7.753-2.852-1.959-7.354-4.275-7.208-8.26.322-8.788 22.288 5.342 25.05 7.06a159.193 159.193 0 0 0 14.878 8.18c.07-.078.136-.16.198-.253.428-.643.203-1.289-.285-1.897-.732-.435-1.467-.863-2.194-1.306a289.677 289.677 0 0 1-12.144-7.826c-3.739-2.538-7.479-5.118-11.09-7.839-1.813-1.367-3.77-3.416-1.53-5.463 2.186-1.997 6.238-.96 8.691-.216 3.78 1.146 7.167 3.16 10.383 5.416 4.186 2.938 8.1 6.223 12.618 8.666 3.122 1.687 8.18 4.618 12.27 4.753.362-2.576-2.114-6.262-2.916-8.42-1.147-3.089-2.9-7.06-2.697-10.429.126-2.07 1.42-3.687 3.596-3.742 2.826-.072 4.963 2.433 6.35 4.607 1.976 3.097 3.421 6.373 5.67 9.322 2.3 3.013 4.884 5.814 6.971 8.988 1.874 2.851 3.411 5.99 3.966 9.384.286 1.748.12 8.252.12 8.252l10.328 5.885s4.234 1.521 6.421 2.858c1.651 1.01 2.79 1.526 2.961 3.343 1.952 1.247 2.896 4.015 2.536 6.65-.69 5.058-3.668 12.338-7.757 15.572-.696.55-1.707 1-2.826 1.292.593 1.557-.79 3.336-2.649 3.048" mask="url(#g)"/>
            <mask id="i" fill="#fff">
                <use xlink:href="#h"/>
            </mask>
            <path fill="#E86235" d="M145.624 96.267a1.333 1.333 0 0 1-1.55-.46c-.054-.052-.128-.12-.218-.203-1.138-1.043-4.6-4.221-6.423-10.296-2.176-7.25.157-13.643.257-13.912a1.333 1.333 0 0 1 2.494.933c-.022.057-2.122 5.812-.201 12.213 1.614 5.374 4.563 8.083 5.673 9.102.39.358.604.555.738.905a1.333 1.333 0 0 1-.77 1.718z" mask="url(#i)"/>
            <mask id="k" fill="#fff">
                <use xlink:href="#j"/>
            </mask>
            <path fill="#874ED1" d="M204.512 178c-2.766-2.77-5.564-5.504-8.55-8.036-4.733-4.015-10-6.94-15.34-10.034-5.762-3.34-11.173-7.212-14.353-13.234-2.84-5.378-3.909-11.282-4.236-17.264-2.269-1.6-4.714-3.164-6.697-5.03-1.46-1.373-1.89-2.434-1.306-4.431 1.605-5.484 4.342-10.885 6.982-15.931 2.602-4.975 5.428-10.526 9.098-14.811 1.081-1.261 2.003-1.646 3.673-1.288 2.508.539 5.271 2.213 7.537 3.617 3.1-1.968 6.71-3.353 10.36-2.621 2.22.447 3.963 1.802 5.981 2.709 3.313 1.488 6.825.65 10.29.447 10.09-.592 17.7 5.943 24.561 12.503 3.881 3.709 7.838 7.593 12.75 9.915 5.104 2.413 10.683 1.988 16.081 3.138a31.503 31.503 0 0 1 5.664 1.812C243.254 135.67 225.12 158.188 204.512 178" mask="url(#k)"/>
            <mask id="m" fill="#fff">
                <use xlink:href="#l"/>
            </mask>
            <path fill="#3C343F" d="M181.363 94.141a.666.666 0 0 0-1.255-.279l-17.386 33.39a.664.664 0 0 0 .283.897.664.664 0 0 0 .897-.283l17.386-33.39a.657.657 0 0 0 .075-.335" mask="url(#m)"/>
            <mask id="o" fill="#fff">
                <use xlink:href="#n"/>
            </mask>
            <path fill="#3C343F" d="M179.627 96.382a.667.667 0 0 0-.35-.56l-8.609-4.627a.666.666 0 0 0-.63 1.174l8.61 4.626a.664.664 0 0 0 .98-.614" mask="url(#o)"/>
            <mask id="q" fill="#fff">
                <use xlink:href="#p"/>
            </mask>
            <path fill="#3C343F" d="M177.385 100.391a.667.667 0 0 0-.356-.562l-8.52-4.463a.665.665 0 1 0-.617 1.178l8.519 4.465a.667.667 0 0 0 .974-.618" mask="url(#q)"/>
            <g>
                <mask id="s" fill="#fff">
                    <use xlink:href="#r"/>
                </mask>
                <path fill="#3C343F" d="M172.171 110.858a.665.665 0 0 0-.344-.556l-9.126-5.02a.665.665 0 1 0-.64 1.166l9.125 5.02a.664.664 0 0 0 .985-.61" mask="url(#s)"/>
            </g>
            <g>
                <mask id="u" fill="#fff">
                    <use xlink:href="#t"/>
                </mask>
                <path fill="#3C343F" d="M167.003 121.72a.664.664 0 0 0-.365-.567l-8.796-4.433a.666.666 0 0 0-.599 1.188l8.796 4.433a.666.666 0 0 0 .964-.622" mask="url(#u)"/>
            </g>
            <g>
                <mask id="w" fill="#fff">
                    <use xlink:href="#v"/>
                </mask>
                <path fill="#3C343F" d="M164.825 123.998a.666.666 0 0 0-.358-.563l-8.177-4.24a.665.665 0 1 0-.612 1.183l8.176 4.238a.665.665 0 0 0 .97-.618" mask="url(#w)"/>
            </g>
            <mask id="y" fill="#fff">
                <use xlink:href="#x"/>
            </mask>
            <path fill="#874ED1" d="M11.213 100.865h124.218V33.747H11.213z" mask="url(#y)"/>
            <path fill="#FADA00" d="M95.87 109.262l-.77 1.616c-.768 1.613-1.922 2.938-3.326 3.82l-1.406.883 1.406.884c1.404.882 2.558 2.208 3.326 3.82l.77 1.617.77-1.617c.766-1.612 1.92-2.938 3.324-3.82l1.407-.884-1.407-.883c-1.404-.882-2.558-2.207-3.325-3.82l-.77-1.616z" mask="url(#y)"/>
            <path fill="#7441C4" d="M135.742 33.511S74.93 87.808 10.86 100.84h124.883V33.511z" mask="url(#y)"/>
            <text fill="#FFF" font-family="DFNYuan-W9-WIN-BF, DFNYuanXBold-B5" font-size="37.499" font-weight="bold" mask="url(#y)">
                <tspan x="24.405" y="77.863">$500</tspan>
            </text>
            <text fill="#FFF" font-family="DFNYuan-W9-WIN-BF, DFNYuanXBold-B5" font-size="24.104" font-weight="bold" mask="url(#y)">
                <tspan x="98.811" y="80.258">元</tspan>
            </text>
            <path stroke="#EC80F9" d="M17.224 95.355h113.699v-56.6H17.224z" mask="url(#y)"/>
            <path fill="#FF8C66" d="M138.708 69.413c5.117 2.25 11.078 2.196 16.743.972-2.05-3.046-4.531-5.768-6.755-8.683-2.25-2.948-3.694-6.225-5.67-9.321-1.387-2.174-3.524-4.68-6.35-4.608-2.176.056-3.47 1.672-3.595 3.743-.204 3.368 1.549 7.338 2.696 10.427.708 1.905 2.716 4.999 2.93 7.47" mask="url(#y)"/>
        </g>
    </g>
</svg>
