<?xml version="1.0" encoding="utf-8"?>
<!-- Generator: Adobe Illustrator 16.0.0, SVG Export Plug-In . SVG Version: 6.00 Build 0)  -->
<!DOCTYPE svg PUBLIC "-//W3C//DTD SVG 1.1//EN" "http://www.w3.org/Graphics/SVG/1.1/DTD/svg11.dtd">
<svg version="1.1" id="Layer_1" xmlns="http://www.w3.org/2000/svg" xmlns:xlink="http://www.w3.org/1999/xlink" x="0px" y="0px"
	 width="1920px" height="610px" viewBox="0 0 1920 610" enable-background="new 0 0 1920 610" xml:space="preserve">
<g>
	<defs>
		<filter id="Adobe_OpacityMaskFilter" filterUnits="userSpaceOnUse" x="-12.001" y="-0.468" width="1929.843" height="783.468">
			<feColorMatrix  type="matrix" values="1 0 0 0 0  0 1 0 0 0  0 0 1 0 0  0 0 0 1 0"/>
		</filter>
	</defs>
	<mask maskUnits="userSpaceOnUse" x="-12.001" y="-0.468" width="1929.843" height="783.468" id="c">
		<g filter="url(#Adobe_OpacityMaskFilter)">
			<path id="a" fill="#FFFFFF" d="M0,610h1920V0H0V610z"/>
		</g>
	</mask>
	<g opacity="0.055" mask="url(#c)">
		<path fill="#FFFFFF" d="M965.509,688.806l952.332,14.805V783L965.509,688.806L965.509,688.806z M-12.001,683.473l977.51,5.333
			l-977.51,73.64V683.473z M-12.001,470.557l977.51,218.25l-977.51-131.692V470.557z M1917.841,242.329v112.245L965.51,688.806
			L1917.841,242.329L1917.841,242.329z M1917.841,498.296v86.23L965.51,688.805L1917.841,498.296L1917.841,498.296z
			 M965.508,688.804v0.002L-12.001,316.813V197.818L965.508,688.804L965.508,688.804z M1439.639-0.466l-474.13,689.27L1279.02-0.466
			H1439.639z M267.325-0.466l698.18,689.27L51.323-0.467L267.325-0.466L267.325-0.466z M1722.092-0.466h195.75v23.205
			L965.507,688.804L1722.092-0.468V-0.466z M965.507,688.803L965.507,688.803l-426.8-689.27h153.23L965.507,688.803L913.483-0.467
			h142.16L965.507,688.803L965.507,688.803L965.507,688.803z"/>
	</g>
</g>
</svg>
