<svg xmlns="http://www.w3.org/2000/svg" xmlns:xlink="http://www.w3.org/1999/xlink" width="260" height="187" viewBox="0 0 260 187">
    <defs>
        <path id="a" d="M0 .507h239.404v147.234H0z"/>
        <path id="c" d="M.429.107h254.597V184.51H.43z"/>
        <path id="e" d="M0 185.07h259.717V.67H0z"/>
        <path id="f" d="M0 .494h158.93v89.8H0z"/>
        <path id="h" d="M0 .279h129.78v89.48H0z"/>
        <path id="j" d="M.453.668h48.232v34.83H.453z"/>
        <path id="l" d="M0 .733h27.117v19.535H0z"/>
    </defs>
    <g fill="none" fill-rule="evenodd">
        <path fill="#FAFAFA" d="M-236-285h1440v878H-236z"/>
        <g transform="translate(0 38.484)">
            <mask id="b" fill="#fff">
                <use xlink:href="#a"/>
            </mask>
            <path fill="#9DE0B3" fill-opacity=".4" d="M200.346 147.741c-2.07-3.072-3.814-6.31-4.864-9.754-8.016-26.303 53.57-72.378 42.61-108.342C230.144 3.566 160.572-13.82 97.164 16.7a167.738 167.738 0 0 0-8.212 4.237C46.397 44.4 14.82 78.598 4.905 111.767 1.09 124.53-.625 136.733.205 147.74h200.14z" mask="url(#b)"/>
        </g>
        <g transform="translate(4.69 1.716)">
            <mask id="d" fill="#fff">
                <use xlink:href="#c"/>
            </mask>
            <path fill="#A9EAC3" fill-opacity=".2" d="M231.513 184.509c11.674-15.568 19.412-30.078 21.574-41.01 3.833-19.388 1.826-40.172-4.608-60.611-11.822-37.56-46.3-67.376-91.763-79.115a114.526 114.526 0 0 0-8.76-1.899C80.413-10.036 8.566 40.85 1.427 76.952c-8.854 44.786 43.934 75.36 49.384 107.557h180.702z" mask="url(#d)"/>
        </g>
        <path fill="#9DE0B3" fill-opacity=".4" d="M24.742 38.992c0-4.656 3.793-8.434 8.47-8.434 4.678 0 8.468 3.778 8.468 8.434 0 4.655-3.79 8.432-8.469 8.432-4.676 0-8.47-3.777-8.47-8.432z"/>
        <path fill="#9DE0B3" d="M60.288 58.836a3.549 3.549 0 0 1-3.556-3.54 3.549 3.549 0 0 1 3.556-3.541 3.548 3.548 0 0 1 3.556 3.54c0 1.955-1.591 3.54-3.556 3.54"/>
        <path fill="#9DE0B3" fill-opacity=".5" d="M23.423 84.08a2.51 2.51 0 0 1 0-5.019 2.508 2.508 0 0 1 2.507 2.51 2.508 2.508 0 0 1-2.507 2.51M215.516 41.501a2.51 2.51 0 0 1 0-5.02 2.508 2.508 0 0 1 2.507 2.51 2.508 2.508 0 0 1-2.507 2.51"/>
        <path fill="#9DE0B3" fill-opacity=".3" d="M246.588 121.448c-2.337 0-4.234-1.889-4.234-4.216 0-2.328 1.897-4.217 4.234-4.217 2.34 0 4.234 1.889 4.234 4.217 0 2.327-1.895 4.216-4.234 4.216"/>
        <g>
            <g transform="translate(65.867 94.695)">
                <mask id="g" fill="#fff">
                    <use xlink:href="#f"/>
                </mask>
                <path fill="#9DE0B3" d="M2.182 90.294c-1.2 0-2.182-.98-2.182-2.18V2.674c0-1.2.982-2.18 2.182-2.18H156.75c1.2 0 2.182.98 2.182 2.18v85.44c0 1.2-.982 2.18-2.182 2.18H2.182z" mask="url(#g)"/>
            </g>
            <g transform="translate(65.867 95.23)">
                <mask id="i" fill="#fff">
                    <use xlink:href="#h"/>
                </mask>
                <path fill="#77C689" d="M71.569 57.155a535.552 535.552 0 0 1-37.093-26.062c-11.41-8.755-17.87-18.066-28.443-27.727l1.759 1.618C6.405 3.727 4.994 2.516 3.514 1.4A32.624 32.624 0 0 1 1.063.279 2.177 2.177 0 0 0 0 2.139V87.58c0 1.199.982 2.18 2.182 2.18H129.78c-19.989-9.796-39.49-20.61-58.211-32.605" mask="url(#i)"/>
            </g>
            <path fill="#EDBB1D" d="M203.223 112.688c0 5.942-4.822 10.76-10.77 10.76-5.949 0-10.771-4.818-10.771-10.76s4.822-10.759 10.77-10.759c5.949 0 10.771 4.817 10.771 10.759"/>
            <path fill="#FFF" d="M216.025 112.688c0 5.942-4.823 10.76-10.771 10.76-5.949 0-10.77-4.818-10.77-10.76s4.821-10.759 10.77-10.759c5.948 0 10.77 4.817 10.77 10.759"/>
            <path fill="#E4F9E8" d="M80.54 121.407h31.383v-17.438H80.54z"/>
            <path fill="#FFF" d="M75.726 175.362h141.89v-4.941H75.726z"/>
            <path fill="#88B48D" d="M75.726 166.643h141.89v-2.47H75.726z"/>
        </g>
        <g>
            <g transform="translate(68.178 38.093)">
                <mask id="k" fill="#fff">
                    <use xlink:href="#j"/>
                </mask>
                <path fill="#FDD833" d="M.453 34.79s2.857-4.356 3.865-5.529C7.973 25.498 1.091 7.264 5.531 4.346c4.44-2.917 36.51-6.564 40.012 0 3.502 6.565 5.28 26.863-1.234 29.698-6.512 2.835-32.161.811-35.004-.11-4.773-1.548-8.852.856-8.852.856" mask="url(#k)"/>
            </g>
            <path fill="#F39F85" d="M49.689 66.216l-1.16 5.352-5.773-1.553 3.777-7.682z"/>
            <path fill="#F7B58E" d="M50.798 67.913c.66.176 1.297.264 1.696.12 2.76-1.973 2.973-9.416 2.973-9.416l-2.608-2.055-4.59 1.074-1.8 4.5c-.48 1.2-.251 2.556.618 3.65a8.357 8.357 0 0 0 3.711 2.127"/>
            <path fill="#202A53" d="M47.969 59.813c.473-.712.973-2.53 1.77-2.15.582.278 2.658.988 3.366 1.2 1.687.504 4.906.785 5.725-1.62.41-1.202-.481-2.61-1.165-3.154-.672-.534-1.55-.781-2.43-.758-2.065.052-4.987.658-5.906.179-1.547-.806-3.506-.391-3.93.931-.455 1.413-.393 3.76-.113 5.324.162.904.495 1.772.98 2.568l1.703-2.52z"/>
            <path fill="#F7B58E" d="M46.685 60.098c.51-.223 1.235.08 1.617.676.383.598.28 1.263-.231 1.486-.51.224-1.235-.08-1.617-.677-.384-.597-.28-1.261.23-1.485"/>
            <path fill="#FEE575" d="M44.908 69.285c-10.305-.58-11.178 8.635-12.044 18.65-.993 11.49-.225 24.034-.225 24.034h23.983s-.005-10.678-.256-21.354c-.243-10.36-.559-20.718-11.458-21.33"/>
            <path fill="#F39F85" d="M55.467 106.481s2.222-1.801 3.048-1.371c.825.43.176 2.242.176 2.242l-3.224-.87z"/>
            <g transform="translate(28.889 86.574)">
                <mask id="m" fill="#fff">
                    <use xlink:href="#l"/>
                </mask>
                <path fill="#F7B58E" d="M9.87 2.014l-1.12 7.4 18.367 8.917-2.003 1.937s-20.622-3.616-23.537-6.27C-1.338 11.344.68.733.68.733l9.19 1.28z" mask="url(#m)"/>
            </g>
            <path fill="#F39F85" d="M58.782 100.336c4.29-1.494 1.671-16.046 1.671-16.046l-2.535-.025s-3.426 17.565.864 16.07"/>
            <path fill="#F7B58E" d="M53.156 106.886l4.36 2.548c1.756.733 3.31-.412 4.575-2.03.785-1.004-.016-2.38-1.37-2.36-1.568.02-3.47.31-4.416.371l-3.15 1.471z"/>
            <path fill="#FDD833" d="M61.244 84.883l-2.801 1.691s-11.82-19.218-5.976-14.157c6.096 5.28 8.777 12.466 8.777 12.466"/>
            <path fill="#383838" d="M46.562 177.594s.012 2.944 5.604 4.712c1.148.362.774.72.99 1.231H46.72l-2.52-2.996-.784.713-1.816-1.888s.848-2.732 2.232-2.755l2.73.983"/>
            <path fill="#F7B58E" d="M47.378 175.289l-.96 2.38c-.875.27-1.814-.038-2.401-.784l-.106-.133.776-2.45 2.69.987z"/>
            <path fill="#FDD833" d="M30.044 87.617s3.851-17.605 12.953-17.196c9.103.408-3.956 18.462-3.956 18.462l-8.997-1.266z"/>
            <path fill="#F7B58E" d="M59.533 100.156c6.032-4.591-5.817-28.588-5.817-28.588l-2.872.273s.221 31.819 8.689 28.315"/>
            <path fill="#FFF" d="M49.689 69.26l-.368-1.514-4.967-.795-1.598 1.598z"/>
            <path fill="#F7B58E" d="M53.962 72.432l.35-4.884S52 63.81 49.813 64.813c-.403 1.023.296 3.087.296 3.087l1.112 4.822 2.74-.29z"/>
            <path fill="#815252" d="M57.384 111.97s3.379 20.627 2.584 30.169c-.794 9.542-11.535 34.472-11.535 34.472l-4.676-1.324s-.354-16.677 4.236-27.626c1.008-2.402.963-5.095.002-7.516-3.77-9.503-5.24-15.82-5.24-15.82l.359-12.356h14.27z"/>
            <path fill="#F39F85" d="M53.524 72.288l.074-.009.3-4.506c-.28-.459-2.075-3.265-3.736-2.561-.22.78.14 2.25.308 2.79l.012.055a2.321 2.321 0 0 0-.444-.083c-.143-.5-.556-2.109-.222-3.024l.032-.084.075-.038c2.122-1.039 4.261 2.602 4.35 2.759l.038.064-.336 5.044-.247.027a3.236 3.236 0 0 0-.204-.434"/>
            <path fill="#383838" d="M37.627 178.92s1.988 1.867 6.522 3.036c.998.258 2.073-.086 2.073 1.581h-5.5l-4.576-.8v.8h-2.47s-.69-4.092.754-4.617h3.197z"/>
            <path fill="#F7B58E" d="M37.606 176.611l.527 2.956a3.196 3.196 0 0 1-3.282.104l-.184-.104.266-2.956h2.673z"/>
            <path fill="#A88A8A" d="M49.689 110.815L38.798 176.61H34.44s-3.753-17.725-.854-32.037c.503-2.484.567-5.042.193-7.548-2.76-18.48-.656-26.211-.656-26.211H49.69z"/>
            <path fill="#FFF" d="M78.578 57.14a2.887 2.887 0 0 0 2.888 2.885 2.887 2.887 0 0 0 2.89-2.886 2.887 2.887 0 0 0-2.89-2.886 2.887 2.887 0 0 0-2.888 2.886M91.289 57.14a2.887 2.887 0 0 0 2.89 2.885 2.887 2.887 0 1 0 0-5.772 2.887 2.887 0 0 0-2.89 2.886M105.156 57.138a2.887 2.887 0 0 0 2.888 2.887 2.887 2.887 0 0 0 2.89-2.887 2.887 2.887 0 0 0-2.89-2.885 2.887 2.887 0 0 0-2.888 2.885"/>
        </g>
    </g>
</svg>
