<?xml version="1.0" encoding="utf-8"?>
<!-- Generator: Adobe Illustrator 16.0.0, SVG Export Plug-In . SVG Version: 6.00 Build 0)  -->
<!DOCTYPE svg PUBLIC "-//W3C//DTD SVG 1.1//EN" "http://www.w3.org/Graphics/SVG/1.1/DTD/svg11.dtd">
<svg version="1.1" id="Capa_1" xmlns="http://www.w3.org/2000/svg" xmlns:xlink="http://www.w3.org/1999/xlink" x="0px" y="0px"
	 width="24px" height="24px" viewBox="244 244 24 24" enable-background="new 244 244 24 24" xml:space="preserve">
<g>
	<g>
		<path fill="#FFFFFF" d="M266.251,257.216c-0.364-3.672-3.669-6.358-7.358-6.358h-5.465v-3.214c0-0.247-0.142-0.472-0.363-0.58
			c-0.224-0.106-0.487-0.078-0.681,0.077l-6.428,5.143c-0.152,0.123-0.241,0.307-0.241,0.502s0.089,0.379,0.24,0.502l6.429,5.142
			c0.116,0.093,0.259,0.141,0.401,0.141c0.096,0,0.191-0.021,0.28-0.063c0.222-0.108,0.363-0.333,0.363-0.58v-3.214h5.602
			c1.682,0,3.214,1.208,3.382,2.881c0.194,1.923-1.313,3.547-3.197,3.547h-5.143c-0.355,0-0.643,0.288-0.643,0.644v2.571
			c0,0.354,0.288,0.643,0.643,0.643h5.143C263.345,265,266.666,261.429,266.251,257.216z"/>
	</g>
</g>
</svg>
