<?xml version="1.0" encoding="UTF-8" standalone="no"?>
<!-- Generator: Adobe Illustrator 16.0.0, SVG Export Plug-In . SVG Version: 6.00 Build 0)  -->
<!DOCTYPE svg  PUBLIC '-//W3C//DTD SVG 1.1//EN'  'http://www.w3.org/Graphics/SVG/1.1/DTD/svg11.dtd'>
<svg id="Layer_1" xmlns="http://www.w3.org/2000/svg" xml:space="preserve" height="145px" viewBox="0 0 612 145" width="612px" version="1.1" y="0px" x="0px" xmlns:xlink="http://www.w3.org/1999/xlink" enable-background="new 0 0 612 145">
		<path d="m4.266 52.161c-0.194 0-0.39-0.038-0.58-0.117l-2.766-1.161c-0.764-0.321-1.123-1.2-0.803-1.964 0.321-0.764 1.2-1.123 1.964-0.803l2.766 1.161c0.764 0.321 1.123 1.2 0.803 1.964-0.242 0.574-0.798 0.92-1.384 0.92z" fill="#10803F"/>
		<path d="m217.13 141.49c-0.194 0-0.391-0.037-0.58-0.117l-5.602-2.352c-0.764-0.32-1.123-1.199-0.803-1.964 0.321-0.763 1.203-1.122 1.964-0.802l5.602 2.352c0.764 0.32 1.123 1.199 0.803 1.964-0.24 0.57-0.79 0.92-1.38 0.92zm-11.2-4.7c-0.194 0-0.39-0.037-0.58-0.117l-5.602-2.351c-0.764-0.32-1.123-1.199-0.803-1.963 0.321-0.764 1.201-1.125 1.964-0.803l5.602 2.351c0.764 0.32 1.123 1.199 0.803 1.963-0.24 0.57-0.8 0.92-1.38 0.92zm-11.21-4.7c-0.194 0-0.39-0.037-0.58-0.117l-5.602-2.351c-0.764-0.32-1.123-1.199-0.803-1.963 0.321-0.764 1.2-1.124 1.964-0.803l5.602 2.351c0.764 0.32 1.123 1.199 0.803 1.963-0.23 0.57-0.79 0.92-1.38 0.92zm-11.2-4.71c-0.194 0-0.391-0.037-0.58-0.117l-5.602-2.352c-0.764-0.32-1.123-1.199-0.803-1.964 0.321-0.763 1.202-1.123 1.964-0.802l5.602 2.352c0.764 0.32 1.123 1.199 0.803 1.964-0.24 0.58-0.79 0.92-1.38 0.92zm-11.2-4.7c-0.194 0-0.39-0.037-0.58-0.117l-5.602-2.351c-0.764-0.32-1.123-1.199-0.803-1.963 0.321-0.765 1.2-1.125 1.964-0.803l5.602 2.351c0.764 0.32 1.123 1.199 0.803 1.963-0.24 0.58-0.8 0.92-1.38 0.92zm-11.21-4.7c-0.194 0-0.39-0.037-0.58-0.117l-5.602-2.351c-0.764-0.32-1.123-1.199-0.803-1.963 0.321-0.764 1.201-1.124 1.964-0.803l5.602 2.351c0.764 0.32 1.123 1.199 0.803 1.963-0.23 0.58-0.79 0.92-1.38 0.92zm-11.2-4.7c-0.194 0-0.39-0.037-0.58-0.117l-5.602-2.351c-0.764-0.32-1.123-1.199-0.803-1.963 0.321-0.764 1.201-1.125 1.964-0.803l5.602 2.351c0.764 0.32 1.123 1.199 0.803 1.963-0.24 0.58-0.79 0.92-1.38 0.92zm-11.2-4.7c-0.194 0-0.39-0.037-0.58-0.117l-5.602-2.351c-0.764-0.32-1.123-1.199-0.803-1.963 0.321-0.764 1.201-1.123 1.964-0.803l5.602 2.351c0.764 0.32 1.123 1.199 0.803 1.963-0.24 0.57-0.8 0.92-1.38 0.92zm-11.21-4.7c-0.194 0-0.39-0.037-0.58-0.117l-5.602-2.351c-0.764-0.32-1.123-1.199-0.803-1.963 0.321-0.765 1.2-1.124 1.964-0.803l5.602 2.351c0.764 0.32 1.123 1.199 0.803 1.963-0.23 0.57-0.79 0.92-1.38 0.92zm-11.2-4.704c-0.194 0-0.39-0.037-0.58-0.117l-5.602-2.351c-0.764-0.32-1.123-1.199-0.803-1.963 0.321-0.764 1.2-1.124 1.964-0.803l5.602 2.351c0.764 0.32 1.123 1.199 0.803 1.963-0.24 0.574-0.79 0.92-1.38 0.92zm-11.2-4.701c-0.194 0-0.391-0.037-0.58-0.117l-5.602-2.352c-0.764-0.32-1.123-1.199-0.803-1.964 0.321-0.763 1.202-1.123 1.964-0.802l5.602 2.352c0.764 0.32 1.123 1.199 0.803 1.964-0.24 0.574-0.8 0.919-1.38 0.919zm-11.206-4.703c-0.194 0-0.39-0.037-0.58-0.117l-5.602-2.351c-0.764-0.32-1.123-1.199-0.803-1.963 0.321-0.765 1.199-1.125 1.964-0.803l5.602 2.351c0.764 0.32 1.123 1.199 0.803 1.963-0.242 0.575-0.799 0.92-1.384 0.92zm-11.204-4.701c-0.194 0-0.39-0.037-0.58-0.117l-5.602-2.351c-0.764-0.32-1.123-1.199-0.803-1.963 0.321-0.764 1.201-1.124 1.964-0.803l5.602 2.351c0.764 0.32 1.123 1.199 0.803 1.963-0.241 0.575-0.798 0.92-1.384 0.92zm-11.203-4.701c-0.194 0-0.391-0.037-0.58-0.117l-5.602-2.352c-0.764-0.32-1.123-1.199-0.803-1.964 0.322-0.763 1.203-1.123 1.964-0.802l5.602 2.352c0.764 0.32 1.123 1.199 0.803 1.964-0.242 0.573-0.798 0.919-1.384 0.919zm-11.204-4.702c-0.194 0-0.39-0.037-0.58-0.117l-5.601-2.351c-0.764-0.32-1.123-1.199-0.803-1.963 0.321-0.764 1.2-1.123 1.964-0.803l5.602 2.351c0.764 0.32 1.123 1.199 0.803 1.963-0.242 0.574-0.799 0.92-1.385 0.92zm-11.203-4.701c-0.194 0-0.39-0.038-0.58-0.117l-5.602-2.35c-0.764-0.321-1.123-1.2-0.803-1.964 0.321-0.764 1.2-1.122 1.964-0.803l5.602 2.351c0.764 0.321 1.123 1.2 0.803 1.964-0.242 0.574-0.798 0.919-1.384 0.919zm-11.204-4.701c-0.194 0-0.39-0.038-0.58-0.117l-5.602-2.351c-0.764-0.321-1.123-1.2-0.803-1.964 0.321-0.764 1.2-1.123 1.964-0.803l5.602 2.351c0.764 0.321 1.123 1.2 0.803 1.964-0.241 0.574-0.798 0.92-1.384 0.92zm-11.203-4.702c-0.194 0-0.39-0.038-0.58-0.117l-5.602-2.351c-0.764-0.321-1.123-1.2-0.803-1.964 0.321-0.764 1.199-1.122 1.964-0.803l5.602 2.351c0.764 0.321 1.123 1.2 0.803 1.964-0.242 0.575-0.798 0.92-1.384 0.92zm-11.204-4.701c-0.194 0-0.39-0.038-0.58-0.117l-5.602-2.351c-0.764-0.321-1.123-1.2-0.803-1.964 0.321-0.764 1.201-1.123 1.964-0.803l5.602 2.351c0.764 0.321 1.123 1.2 0.803 1.964-0.241 0.574-0.798 0.92-1.384 0.92z" fill="#10803F"/>
		<path d="m225.5 145c-0.196 0-0.394-0.038-0.581-0.117l-2.766-1.161c-0.764-0.32-1.123-1.199-0.803-1.964 0.321-0.763 1.203-1.123 1.964-0.802l1.924 0.808 1.602-1.338c0.635-0.53 1.581-0.445 2.113 0.189 0.531 0.636 0.446 1.582-0.19 2.113l-2.302 1.923c-0.26 0.23-0.61 0.35-0.95 0.35z" fill="#10803F"/>
		<path d="m232.53 139.13c-0.429 0-0.855-0.184-1.152-0.538-0.531-0.636-0.446-1.582 0.19-2.113l4.726-3.947c0.635-0.531 1.582-0.444 2.113 0.189 0.531 0.636 0.446 1.582-0.19 2.113l-4.726 3.947c-0.28 0.24-0.62 0.35-0.96 0.35zm9.45-7.89c-0.429 0-0.855-0.184-1.152-0.538-0.531-0.636-0.446-1.582 0.19-2.113l4.726-3.947c0.635-0.531 1.582-0.444 2.113 0.189 0.531 0.636 0.446 1.582-0.19 2.113l-4.726 3.947c-0.28 0.23-0.62 0.35-0.96 0.35zm9.45-7.9c-0.429 0-0.855-0.184-1.152-0.538-0.531-0.636-0.446-1.582 0.19-2.113l4.726-3.947c0.636-0.531 1.582-0.445 2.113 0.189 0.531 0.636 0.446 1.582-0.19 2.113l-4.726 3.947c-0.28 0.24-0.62 0.35-0.96 0.35zm9.45-7.89c-0.429 0-0.855-0.184-1.152-0.538-0.531-0.636-0.446-1.582 0.19-2.113l4.726-3.947c0.635-0.53 1.582-0.445 2.113 0.189 0.531 0.636 0.446 1.582-0.19 2.113l-4.726 3.947c-0.28 0.23-0.62 0.35-0.96 0.35zm9.45-7.9c-0.429 0-0.855-0.184-1.152-0.538-0.531-0.636-0.446-1.582 0.19-2.113l4.726-3.947c0.635-0.531 1.582-0.445 2.113 0.189 0.531 0.636 0.446 1.582-0.19 2.113l-4.726 3.947c-0.28 0.24-0.62 0.35-0.96 0.35zm9.45-7.893c-0.429 0-0.855-0.184-1.152-0.538-0.531-0.636-0.446-1.582 0.19-2.113l4.726-3.947c0.635-0.531 1.582-0.444 2.113 0.189 0.531 0.636 0.446 1.582-0.19 2.113l-4.726 3.947c-0.28 0.235-0.62 0.349-0.96 0.349zm9.46-7.894c-0.429 0-0.855-0.184-1.152-0.538-0.531-0.636-0.446-1.582 0.19-2.113l4.726-3.947c0.636-0.531 1.582-0.445 2.113 0.189 0.531 0.636 0.446 1.582-0.19 2.113l-4.726 3.947c-0.28 0.234-0.62 0.349-0.96 0.349zm9.45-7.895c-0.429 0-0.855-0.184-1.152-0.538-0.531-0.636-0.446-1.582 0.19-2.113l4.726-3.947c0.636-0.531 1.581-0.445 2.113 0.189 0.531 0.636 0.446 1.582-0.19 2.113l-4.726 3.947c-0.28 0.235-0.62 0.349-0.96 0.349zm9.45-7.894c-0.43 0-0.855-0.184-1.152-0.538-0.531-0.636-0.446-1.582 0.189-2.113l4.726-3.947c0.638-0.531 1.583-0.446 2.113 0.19 0.531 0.636 0.446 1.582-0.189 2.113l-4.726 3.947c-0.28 0.233-0.62 0.348-0.96 0.348zm9.45-7.894c-0.43 0-0.855-0.183-1.152-0.539-0.531-0.636-0.446-1.582 0.189-2.113l4.726-3.947c0.638-0.531 1.583-0.446 2.113 0.19 0.531 0.636 0.446 1.582-0.189 2.113l-4.726 3.947c-0.28 0.234-0.62 0.349-0.96 0.349zm9.45-7.895c-0.43 0-0.855-0.183-1.152-0.539-0.531-0.636-0.446-1.582 0.189-2.113l4.726-3.947c0.639-0.532 1.582-0.445 2.113 0.19 0.531 0.636 0.446 1.582-0.189 2.113l-4.726 3.947c-0.28 0.235-0.62 0.349-0.96 0.349zm9.45-7.894c-0.43 0-0.855-0.183-1.152-0.539-0.531-0.636-0.446-1.582 0.189-2.113l4.726-3.947c0.638-0.532 1.582-0.446 2.113 0.19s0.446 1.582-0.189 2.113l-4.726 3.947c-0.28 0.234-0.62 0.349-0.96 0.349zm9.45-7.895c-0.43 0-0.855-0.183-1.152-0.539-0.531-0.636-0.446-1.582 0.189-2.113l4.726-3.947c0.638-0.531 1.582-0.446 2.113 0.19s0.446 1.582-0.189 2.113l-4.726 3.947c-0.28 0.235-0.62 0.349-0.96 0.349zm9.45-7.895c-0.43 0-0.855-0.183-1.152-0.539-0.531-0.636-0.446-1.582 0.189-2.113l4.726-3.947c0.638-0.532 1.582-0.445 2.113 0.19 0.531 0.636 0.446 1.582-0.189 2.113l-4.726 3.947c-0.28 0.235-0.62 0.349-0.96 0.349zm9.45-7.894c-0.43 0-0.855-0.183-1.152-0.539-0.531-0.636-0.446-1.582 0.189-2.113l4.726-3.947c0.638-0.532 1.583-0.446 2.113 0.19 0.531 0.636 0.446 1.582-0.189 2.113l-4.726 3.947c-0.28 0.235-0.62 0.349-0.96 0.349zm9.46-7.895c-0.43 0-0.855-0.183-1.152-0.539-0.531-0.636-0.446-1.582 0.189-2.113l4.726-3.947c0.638-0.532 1.583-0.445 2.113 0.19 0.531 0.636 0.446 1.582-0.189 2.113l-4.726 3.947c-0.28 0.235-0.62 0.349-0.96 0.349zm9.45-7.894c-0.43 0-0.855-0.183-1.152-0.539-0.531-0.636-0.446-1.582 0.189-2.113l4.726-3.947c0.638-0.532 1.582-0.446 2.113 0.19s0.446 1.582-0.189 2.113l-4.726 3.947c-0.28 0.235-0.62 0.349-0.96 0.349z" fill="#10803F"/>
		<path d="m393.2 4.923c-0.43 0-0.855-0.183-1.152-0.539-0.531-0.636-0.446-1.582 0.189-2.113l2.303-1.923c0.456-0.381 1.094-0.458 1.625-0.194l2.69 1.327c0.743 0.366 1.049 1.266 0.683 2.009s-1.268 1.049-2.009 0.682l-1.815-0.895-1.553 1.297c-0.27 0.235-0.61 0.349-0.95 0.349z" fill="#10803F"/>
		<path d="m602.43 105.02c-0.223 0-0.449-0.05-0.662-0.154l-5.375-2.649c-0.743-0.366-1.049-1.266-0.683-2.009 0.367-0.744 1.267-1.047 2.009-0.683l5.375 2.649c0.743 0.366 1.049 1.266 0.683 2.009-0.26 0.53-0.79 0.83-1.35 0.83zm-10.75-5.296c-0.223 0-0.449-0.05-0.662-0.154l-5.375-2.649c-0.743-0.366-1.049-1.266-0.683-2.009 0.367-0.744 1.267-1.047 2.009-0.683l5.375 2.649c0.743 0.366 1.049 1.266 0.683 2.009-0.25 0.53-0.78 0.837-1.34 0.837zm-10.75-5.3c-0.223 0-0.449-0.05-0.662-0.154l-5.374-2.65c-0.743-0.367-1.049-1.267-0.683-2.009 0.367-0.744 1.268-1.047 2.009-0.683l5.374 2.65c0.743 0.367 1.049 1.267 0.683 2.009-0.26 0.53-0.79 0.837-1.35 0.837zm-10.75-5.3c-0.223 0-0.449-0.05-0.662-0.154l-5.375-2.65c-0.743-0.367-1.049-1.266-0.683-2.009 0.367-0.743 1.268-1.047 2.009-0.683l5.375 2.65c0.743 0.367 1.049 1.266 0.683 2.009-0.25 0.53-0.78 0.837-1.34 0.837zm-10.74-5.3c-0.223 0-0.449-0.05-0.662-0.154l-5.375-2.65c-0.743-0.367-1.049-1.266-0.683-2.009 0.367-0.744 1.268-1.047 2.009-0.683l5.375 2.65c0.743 0.367 1.049 1.266 0.683 2.009-0.26 0.531-0.79 0.837-1.34 0.837zm-10.76-5.3c-0.223 0-0.449-0.05-0.662-0.154l-5.374-2.65c-0.743-0.367-1.049-1.267-0.683-2.009 0.367-0.744 1.268-1.046 2.009-0.683l5.374 2.65c0.743 0.367 1.049 1.267 0.683 2.009-0.26 0.531-0.79 0.837-1.35 0.837zm-10.74-5.299c-0.223 0-0.449-0.05-0.662-0.154l-5.375-2.65c-0.743-0.366-1.049-1.266-0.683-2.008 0.367-0.743 1.268-1.048 2.009-0.682l5.375 2.65c0.743 0.366 1.049 1.266 0.683 2.008-0.26 0.529-0.79 0.836-1.34 0.836zm-10.75-5.3c-0.223 0-0.449-0.05-0.662-0.155l-5.375-2.65c-0.743-0.366-1.049-1.266-0.683-2.008 0.367-0.743 1.268-1.049 2.009-0.682l5.375 2.65c0.743 0.366 1.049 1.266 0.683 2.008-0.27 0.53-0.8 0.837-1.35 0.837zm-10.75-5.3c-0.223 0-0.449-0.05-0.662-0.155l-5.374-2.65c-0.743-0.366-1.049-1.266-0.683-2.009 0.367-0.743 1.267-1.049 2.009-0.682l5.374 2.65c0.743 0.366 1.049 1.266 0.683 2.009-0.27 0.53-0.8 0.837-1.35 0.837zm-10.75-5.299c-0.223 0-0.449-0.05-0.662-0.155l-5.375-2.65c-0.743-0.366-1.049-1.266-0.683-2.008 0.367-0.743 1.267-1.05 2.009-0.682l5.375 2.65c0.743 0.366 1.049 1.266 0.683 2.008-0.27 0.529-0.8 0.837-1.35 0.837zm-10.75-5.301c-0.223 0-0.449-0.05-0.662-0.155l-5.375-2.65c-0.743-0.366-1.049-1.266-0.683-2.008 0.367-0.743 1.267-1.05 2.009-0.682l5.375 2.65c0.743 0.366 1.049 1.266 0.683 2.008-0.26 0.53-0.79 0.837-1.34 0.837zm-10.75-5.299c-0.223 0-0.449-0.05-0.662-0.155l-5.374-2.65c-0.743-0.366-1.049-1.266-0.683-2.009 0.367-0.743 1.268-1.05 2.009-0.682l5.374 2.65c0.743 0.366 1.049 1.266 0.683 2.009-0.27 0.529-0.8 0.837-1.35 0.837zm-10.75-5.3c-0.223 0-0.449-0.05-0.662-0.155l-5.375-2.65c-0.743-0.366-1.049-1.266-0.683-2.008 0.367-0.743 1.268-1.049 2.009-0.682l5.375 2.65c0.743 0.366 1.049 1.266 0.683 2.008-0.26 0.529-0.79 0.837-1.34 0.837zm-10.75-5.3c-0.223 0-0.449-0.05-0.662-0.155l-5.375-2.65c-0.743-0.366-1.049-1.266-0.683-2.008 0.367-0.743 1.268-1.049 2.009-0.682l5.375 2.65c0.743 0.366 1.049 1.266 0.683 2.008-0.27 0.529-0.8 0.837-1.35 0.837zm-10.75-5.3c-0.223 0-0.449-0.05-0.662-0.155l-5.374-2.65c-0.743-0.366-1.049-1.266-0.683-2.009 0.367-0.743 1.269-1.049 2.009-0.682l5.374 2.65c0.743 0.366 1.049 1.266 0.683 2.009-0.27 0.53-0.8 0.837-1.35 0.837zm-10.75-5.3c-0.223 0-0.449-0.05-0.662-0.155l-5.375-2.65c-0.743-0.366-1.049-1.266-0.683-2.008 0.367-0.743 1.268-1.05 2.009-0.682l5.375 2.65c0.743 0.366 1.049 1.266 0.683 2.008-0.27 0.53-0.8 0.837-1.35 0.837zm-10.75-5.299c-0.223 0-0.449-0.05-0.662-0.155l-5.375-2.65c-0.743-0.366-1.049-1.266-0.683-2.008 0.367-0.743 1.268-1.049 2.009-0.682l5.375 2.65c0.743 0.366 1.049 1.266 0.683 2.008-0.26 0.529-0.79 0.837-1.34 0.837zm-10.75-5.3c-0.223 0-0.449-0.05-0.662-0.155l-5.374-2.65c-0.743-0.366-1.049-1.266-0.683-2.009 0.367-0.742 1.267-1.049 2.009-0.682l5.374 2.65c0.743 0.366 1.049 1.266 0.683 2.009-0.27 0.529-0.8 0.837-1.35 0.837zm-10.75-5.3c-0.223 0-0.449-0.05-0.662-0.155l-5.375-2.65c-0.743-0.366-1.049-1.266-0.683-2.008 0.367-0.743 1.267-1.049 2.009-0.682l5.375 2.65c0.743 0.366 1.049 1.266 0.683 2.008-0.26 0.529-0.79 0.837-1.34 0.837z" fill="#10803F"/>
		<path d="m610.5 109c-0.223 0-0.449-0.05-0.662-0.154l-2.69-1.326c-0.743-0.366-1.049-1.266-0.683-2.009 0.367-0.744 1.267-1.046 2.009-0.683l2.69 1.326c0.743 0.366 1.049 1.266 0.683 2.009-0.27 0.52-0.8 0.83-1.35 0.83z" fill="#10803F"/>
</svg>
