<?xml version="1.0" encoding="UTF-8" standalone="no"?>
<!-- Generator: Adobe Illustrator 16.0.0, SVG Export Plug-In . SVG Version: 6.00 Build 0)  -->
<!DOCTYPE svg  PUBLIC '-//W3C//DTD SVG 1.1//EN'  'http://www.w3.org/Graphics/SVG/1.1/DTD/svg11.dtd'>
<svg id="圖層_1" xmlns="http://www.w3.org/2000/svg" xml:space="preserve" height="36px" viewBox="0 0 36 36" width="36px" version="1.1" y="0px" x="0px" xmlns:xlink="http://www.w3.org/1999/xlink" enable-background="new 0 0 36 36">
		<path d="m35.64 19.766c-0.923-2.714-3.468-4.537-6.332-4.537-0.431 0-0.856 0.055-1.277 0.137l-2.504-7.364c-0.125-0.366-0.469-0.612-0.855-0.612h-1.687c-0.499 0-0.904 0.404-0.904 0.903 0 0.498 0.405 0.903 0.904 0.903h1.04l0.909 2.673h-9.899v-1.604l1.586-0.206c0.244-0.031 0.447-0.225 0.48-0.48 0.04-0.305-0.175-0.584-0.48-0.624l-5.029-0.652c-0.1-0.012-0.208-0.014-0.313 0-0.665 0.087-1.134 0.696-1.048 1.361s0.696 1.135 1.361 1.048l1.637-0.212v1.897l-3.01 3.852c-1.025-0.64-2.232-1.017-3.528-1.017-3.69 0-6.691 3.001-6.691 6.689 0 3.689 3.001 6.69 6.69 6.69 3.275 0 6.002-2.366 6.575-5.479h2.452v0.923h-0.431c-0.333 0-0.603 0.269-0.603 0.602s0.27 0.603 0.603 0.603h2.668c0.333 0 0.603-0.27 0.603-0.603s-0.27-0.602-0.603-0.602h-0.431v-0.923h0.405c0.278 0 0.541-0.129 0.712-0.348l6.971-8.921 0.713 2.097c-1.303 0.648-2.367 1.675-3.021 3.004-0.79 1.603-0.908 3.417-0.332 5.109 0.923 2.715 3.469 4.537 6.333 4.537 0.731 0 1.456-0.119 2.154-0.357 1.692-0.575 3.059-1.774 3.849-3.378s0.909-3.417 0.333-5.109zm-25.173-0.901c0.562 0.692 0.932 1.532 1.047 2.462h-2.971l1.924-2.462zm-3.777 7.94c-2.693 0-4.884-2.19-4.884-4.884 0-2.692 2.191-4.883 4.884-4.883 0.876 0 1.687 0.25 2.398 0.655l-3.109 3.979c-0.213 0.272-0.252 0.642-0.101 0.952 0.152 0.311 0.467 0.508 0.813 0.508h4.713c-0.543 2.107-2.441 3.673-4.714 3.673zm10.798-5.478h-4.137c-0.134-1.509-0.772-2.87-1.742-3.925l1.619-2.072v2.369c0 0.499 0.404 0.903 0.903 0.903s0.903-0.404 0.903-0.903v-4.022h8.431l-5.977 7.65zm10.496-0.487l0.467 1.37c0.127 0.376 0.479 0.612 0.854 0.612 0.097 0 0.194-0.015 0.291-0.048 0.473-0.161 0.725-0.674 0.564-1.146l-0.463-1.359c0.564 0.134 1.038 0.533 1.229 1.101 0.148 0.433 0.118 0.897-0.084 1.309-0.202 0.41-0.552 0.717-0.985 0.864-0.881 0.298-1.877-0.198-2.174-1.07-0.196-0.58-0.059-1.19 0.301-1.633zm5.704 3.238c-0.577 1.17-1.575 2.046-2.811 2.467-0.51 0.173-1.039 0.261-1.571 0.261-2.092 0-3.949-1.331-4.624-3.313-0.42-1.234-0.334-2.56 0.242-3.729 0.441-0.895 1.131-1.613 1.982-2.092l0.655 1.928c-0.979 0.737-1.434 2.038-1.019 3.261 0.403 1.185 1.513 1.979 2.762 1.979 0.32 0 0.636-0.053 0.94-0.156 0.737-0.251 1.334-0.774 1.678-1.473 0.345-0.7 0.396-1.491 0.146-2.229-0.405-1.189-1.574-1.954-2.794-1.957l-0.656-1.932c0.228-0.032 0.458-0.057 0.688-0.057 2.092 0 3.949 1.331 4.623 3.313 0.42 1.234 0.335 2.559-0.241 3.729z" fill="#fff"/>
</svg>
