<?xml version="1.0" encoding="utf-8"?>
<!-- Generator: Adobe Illustrator 16.0.0, SVG Export Plug-In . SVG Version: 6.00 Build 0)  -->
<!DOCTYPE svg PUBLIC "-//W3C//DTD SVG 1.1//EN" "http://www.w3.org/Graphics/SVG/1.1/DTD/svg11.dtd">
<svg version="1.1" id="Layer_1" xmlns="http://www.w3.org/2000/svg" xmlns:xlink="http://www.w3.org/1999/xlink" x="0px" y="0px"
	 width="176px" height="70px" viewBox="0 0 176 70" enable-background="new 0 0 176 70" xml:space="preserve">
<g>
	<path fill="#FFFFFF" d="M15.317,9.605c-0.704,0.201-1.49,0.37-2.358,0.509c-0.289,6.628-1.37,11.765-3.244,15.412
		c1.886,1.521,3.666,3.119,5.339,4.791l-1.585,1.548c-1.357-1.509-2.942-3.019-4.754-4.528c-1.547,2.328-3.918,4.823-7.111,7.489
		l-1.51-1.452c3.308-2.604,5.628-5.011,6.961-7.225c-1.308-1.095-3.213-2.396-5.716-3.904c0.956-3.937,1.691-7.497,2.208-10.678
		c-1.66,0.139-2.761,0.207-3.302,0.207V9.831C1.628,9.794,2.83,9.693,3.849,9.53c0.377-2.377,0.723-5.145,1.037-8.301h2.057
		c-0.14,1.975-0.46,4.667-0.963,8.073C7.25,9.19,8.923,8.92,10.998,8.493c0.037-1.22,0.037-2.422,0-3.604h2.037
		c0.063,1.358,0.075,2.414,0.038,3.169c0.565-0.075,1.313-0.257,2.244-0.547V9.605z M10.923,10.567
		c-1.585,0.327-3.314,0.573-5.188,0.736c-0.691,4.012-1.384,7.318-2.075,9.922c1.585,0.98,3.05,2,4.396,3.057
		C9.79,20.622,10.746,16.051,10.923,10.567z M33.824,18.886h-8.377v12.621c0,1.396-0.368,2.308-1.104,2.735
		c-0.735,0.427-2.135,0.641-4.197,0.641c-0.905,0-1.792-0.031-2.66-0.094l-0.697-2.113c1.258,0.139,2.572,0.208,3.942,0.208
		c1.057,0,1.745-0.073,2.065-0.218c0.321-0.144,0.481-0.398,0.481-0.763V18.886h-9.225v-2.018h9.225v-4.527
		c2.666-2.729,4.917-5.509,6.753-8.338H14.789v-2h17.638v2.189c-1.534,2.552-3.86,5.539-6.979,8.959v3.717h8.377V18.886z"/>
	<path fill="#FFFFFF" d="M49.272,3.89c0,0.364-0.987,3.452-2.961,9.262c1.635,2.83,2.451,5.439,2.451,7.829
		c0,1.849-0.394,3.2-1.179,4.056c-0.786,0.855-2.153,1.227-4.103,1.113l-0.661-1.98c0.541,0.05,1.007,0.075,1.396,0.075
		c1.006,0,1.694-0.183,2.066-0.547c0.369-0.364,0.555-1.265,0.555-2.698c0-2.427-0.848-4.986-2.546-7.677
		c0.943-2.629,1.948-5.772,3.019-9.433h-5.489v31.013h-1.925V1.909h9.376V3.89z M59.629,30.582l-1.472,1.509
		c-1.145-1.308-2.472-2.477-3.98-3.508c-1.71,2.779-3.408,4.929-5.092,6.45l-1.473-1.244c2.741-2.528,4.961-5.771,6.659-9.734
		l1.735,0.774c-0.226,0.565-0.522,1.22-0.887,1.961C56.806,27.998,58.308,29.262,59.629,30.582z M72.607,10.341l-1.113,1.66
		C66.59,9.397,62.93,6.77,60.516,4.115c-2.893,2.906-6.37,5.509-10.432,7.811l-1.266-1.434c5.422-3.095,9.414-6.313,11.979-9.659
		l1.623,0.963c-0.076,0.164-0.309,0.503-0.698,1.019C64.301,5.443,67.929,7.952,72.607,10.341z M65.815,11.417H54.988V9.492h10.827
		V11.417z M72.343,33.714l-1.472,1.357c-1.509-1.911-3.451-3.835-5.828-5.772c-1.497,2.479-3.057,4.346-4.679,5.604l-1.622-1.113
		c2.665-2.037,4.841-5.244,6.527-9.62l1.697,0.66c-0.201,0.767-0.535,1.641-1,2.621C68.872,29.891,70.997,31.979,72.343,33.714z
		 M70.381,23.319h-8.357v-9.225h8.357V23.319z M68.476,21.358v-5.302h-4.509v5.302H68.476z"/>
	<path fill="#FFFFFF" d="M59.944,23.329h-8.357v-9.225h8.357V23.329z M58.039,21.368v-5.302H53.53v5.302H58.039z"/>
	<path fill="#FFFFFF" d="M104.498,12.219H88.615c-0.783,1.336-1.571,2.537-2.365,3.603h15.773v16.713
		c0,0.939-0.297,1.585-0.893,1.935s-2,0.524-4.213,0.524c-0.846,0-1.676-0.031-2.49-0.094l-0.799-1.66
		c0.971,0.083,2.01,0.125,3.117,0.125c1.754,0,2.795-0.075,3.125-0.227c0.328-0.151,0.492-0.426,0.492-0.822v-4.183H84.574
		c-0.564,2.83-1.749,5.164-3.556,7.002l-1.598-0.94c2.652-2.359,3.979-6.505,3.979-12.437c0-0.627-0.016-1.42-0.047-2.381
		c-2.078,2.057-4.01,3.681-5.796,4.871l-1.284-1.269c4.469-2.997,7.92-6.584,10.354-10.761h-10.04v-1.661h11.012
		c0.615-1.106,1.238-2.37,1.863-3.79l1.725,0.485c-0.617,1.368-1.16,2.47-1.631,3.305h14.943V12.219z M100.363,26.566v-3.854H84.997
		c0,1.65-0.053,2.935-0.157,3.854H100.363z M100.363,21.053v-3.665H85.091v3.665H100.363z"/>
	<path fill="#FFFFFF" d="M136.674,28.368c-0.273,1.326-0.678,2.67-1.215,4.033c-0.537,1.362-1.029,2.164-1.473,2.404
		s-0.9,0.36-1.371,0.36c-0.824,0-1.738-0.624-2.74-1.872s-1.838-2.712-2.506-4.394c-1.775,1.493-4.021,2.819-6.736,3.979
		l-1.158-1.41c3.09-1.211,5.518-2.621,7.283-4.229c-0.773-3.206-1.223-6.532-1.348-9.979h-7.627v5.64
		c1.555-0.198,3.596-0.7,6.123-1.504v1.77c-2.047,0.575-4.088,1.065-6.123,1.473v8.208c0,0.554-0.205,1.031-0.611,1.433
		c-0.408,0.402-0.998,0.608-1.77,0.619h-4.23l-0.484-1.723c1.336,0.063,2.855,0.094,4.557,0.094c0.574,0,0.861-0.267,0.861-0.799
		v-7.44c-2.756,0.532-5.074,0.924-6.953,1.175l-0.424-1.691c1.514-0.104,3.973-0.491,7.377-1.159v-6.094h-7.564v-1.66h7.564v-5.013
		c-3.342,0.533-5.465,0.831-6.375,0.894l-0.609-1.598c5.607-0.554,10.229-1.462,13.861-2.726l0.502,1.504
		c-1.723,0.574-3.625,1.086-5.701,1.534v5.404h7.564c-0.021-0.929-0.031-1.968-0.031-3.117c0-2.099,0.031-3.994,0.094-5.686h1.676
		c-0.082,1.493-0.125,3.232-0.125,5.216c0,1.284,0.021,2.48,0.063,3.587h27.629v1.66h-27.535c0.063,2.903,0.402,5.729,1.02,8.475
		c1.482-1.514,2.949-3.738,4.4-6.673l1.441,0.893c-1.838,3.395-3.592,5.952-5.264,7.676c0.512,1.556,1.205,2.921,2.076,4.096
		s1.506,1.762,1.902,1.762c0.23,0,0.43-0.13,0.596-0.392c0.168-0.261,0.467-0.963,0.9-2.106s0.76-2.331,0.98-3.563L136.674,28.368z
		 M135.012,13.252l-1.377,0.987c-1.119-1.922-2.502-3.64-4.152-5.153l1.285-1.034C132.49,9.649,133.906,11.383,135.012,13.252z"/>
	<path fill="#FFFFFF" d="M56.804,53.988c0,0.429-0.488,1.551-1.464,3.368c-0.977,1.816-2.271,3.451-3.885,4.902
		c-1.613,1.452-3.434,2.736-5.46,3.854l-1.064-1.504c5.064-2.694,8.349-6.104,9.853-10.229H25.797v-1.707h31.007V53.988z
		 M73.392,64.702l-1.159,1.379c-5.231-3.404-9.037-7.54-11.418-12.406v12.798c0,0.574-0.17,1.067-0.51,1.48
		c-0.34,0.412-0.703,0.679-1.089,0.799c-0.386,0.119-1.515,0.18-3.384,0.18c-0.74,0-1.445-0.021-2.113-0.063l-0.736-1.817
		c1.074,0.053,2.166,0.078,3.273,0.078c1.169,0,1.926-0.031,2.271-0.094c0.344-0.063,0.517-0.37,0.517-0.924V48.757h-9.179v-1.691
		h10.949v1.989c0.657,2.359,1.534,4.281,2.631,5.764c3.707-2.631,6.4-5.122,8.082-7.472l1.316,1.19
		c-1.786,2.434-4.611,4.997-8.475,7.691C66.5,59.413,69.508,62.238,73.392,64.702z M65.168,44.198L64.4,45.844
		c-2.548-1.254-6.244-2.465-11.09-3.635l0.799-1.503C58.318,41.625,62.004,42.789,65.168,44.198z"/>
	<path fill="#FFFFFF" d="M105.174,66.817l-0.377,1.707c-5.973,0-10.275-0.037-12.906-0.109c-2.631-0.073-4.726-0.441-6.281-1.104
		c-1.557-0.663-2.788-1.49-3.697-2.482c-1.002,1.44-2.229,2.887-3.681,4.339l-1.222-1.034c3.311-3.175,5.362-6.636,6.156-10.385
		h-5.201v-1.613c2.298-2.872,3.896-5.075,4.794-6.61h-5.436v-1.566h7.425v1.566c-1.19,1.817-2.752,4-4.684,6.547h4.777v1.677
		c-0.501,2.016-1.206,3.905-2.114,5.67c0.741,0.939,1.707,1.666,2.897,2.178s2.463,0.864,3.814,1.057
		c1.352,0.193,3.371,0.29,6.055,0.29C97.645,66.942,100.871,66.9,105.174,66.817z M83.745,45.687l-1.19,1.206
		c-0.877-1.315-2.36-2.819-4.448-4.511l1.081-1.128C81.066,42.664,82.586,44.142,83.745,45.687z M103.311,56.558h-7.176
		c-1.168,1.128-2.484,2.151-3.947,3.069v4.011c0.92-0.126,2.424-0.518,4.512-1.175l0.234,1.566
		c-2.045,0.637-4.166,1.206-6.359,1.707l-0.5-1.488c0.334-0.303,0.5-0.601,0.5-0.893v-2.788c-1.691,0.898-3.006,1.509-3.947,1.833
		l-0.955-1.379c3.592-1.347,6.297-2.835,8.115-4.464h-5.875v-5.937h15.398V56.558z M104.75,48.632H86.157v-1.598h8.554v-2.35H87.27
		v-1.598h7.441v-2.115h1.645l-0.031,2.115h7.439v1.598h-7.439v2.35h8.426V48.632z M101.586,54.881v-2.662H89.525v2.662H101.586z
		 M104.406,64.357l-1.16,1.144c-2.266-2.286-4.672-4.187-7.221-5.701l1.035-1.19c0.646,0.334,1.451,0.846,2.412,1.535
		c1.074-0.658,2.15-1.546,3.227-2.663l1.221,1.128c-1.012,0.981-2.047,1.817-3.102,2.506
		C102.74,62.775,103.936,63.856,104.406,64.357z"/>
	<path fill="#FFFFFF" d="M136.516,56.651c0,2.067-0.111,4.083-0.336,6.046c-0.225,1.964-0.445,3.232-0.666,3.807
		c-0.219,0.574-0.535,1.058-0.947,1.449s-0.975,0.681-1.684,0.869c-0.711,0.188-1.838,0.281-3.383,0.281l-0.643-1.832
		c0.48,0.042,1.473,0.063,2.977,0.063c0.521,0,0.971-0.117,1.346-0.353c0.377-0.234,0.643-0.563,0.799-0.986s0.33-1.313,0.518-2.671
		s0.309-3.039,0.359-5.044H115.15c-1.502,1.796-3.18,3.457-5.027,4.981l-0.971-1.566c4.971-3.947,8.234-8.771,9.789-14.474h-8.537
		v-1.676h8.914c0.48-2.12,0.793-3.723,0.939-4.809l1.629,0.36c-0.156,1.18-0.434,2.662-0.83,4.448h11.811
		c-0.314,1.807-0.689,3.671-1.129,5.592h3.18c-0.197,1.723-0.521,3.562-0.971,5.514H136.516z M117.047,44.104l-1.473,0.908
		c-0.721-1.086-1.619-2.188-2.693-3.305l1.439-0.908C115.365,41.854,116.273,42.956,117.047,44.104z M117.877,60.786
		c-0.898,2.987-2.041,5.566-3.43,7.738l-1.535-0.83c1.326-1.953,2.479-4.391,3.461-7.315L117.877,60.786z M132.93,52.767h-14.285
		c-0.543,1.149-1.301,2.443-2.271,3.885h15.852C132.518,55.21,132.752,53.916,132.93,52.767z M130.877,47.222h-10.213
		c-0.322,1.222-0.762,2.527-1.314,3.916H130C130.283,50.021,130.574,48.715,130.877,47.222z M122.529,68.07l-1.77,0.329
		c0.082-2.131-0.193-4.688-0.832-7.676l1.582-0.345C122.012,62.635,122.352,65.198,122.529,68.07z M127.635,66.379l-1.645,0.595
		c-0.365-2.203-0.949-4.308-1.754-6.313l1.535-0.517C126.471,61.972,127.092,64.05,127.635,66.379z M132.225,64.608l-1.52,0.705
		c-0.449-1.493-1.154-3.128-2.115-4.903l1.441-0.704C130.846,61.115,131.576,62.75,132.225,64.608z"/>
	<path fill="#FFFFFF" d="M152.016,34.16c-0.424,1.055-1.023,2.411-1.801,4.073l-1.166,2.411v28.388h-2.094V44.777
		c-1.465,2.49-3.006,4.731-4.629,6.721l-1.125-2.194c3.123-3.769,6.063-9.088,8.816-15.954L152.016,34.16z M175.58,38.568
		c-0.514,3.005-1.529,6.425-3.045,10.261l-1.938-0.851c1.027-2.28,1.84-4.698,2.432-7.254h-14.906
		c-1.648,3.347-3.617,6.358-5.91,9.034l-1.344-1.819c3.529-4.229,6.154-9.028,7.867-14.393l2.174,0.534
		c-0.395,1.174-0.988,2.67-1.779,4.487H175.58z M159.705,50.529c-2.018,5.944-4.244,10.53-6.682,13.76l-1.74-1.227
		c2.504-3.544,4.627-7.954,6.365-13.226L159.705,50.529z M165.082,65.415c0,1.267-0.318,2.191-0.959,2.778
		c-0.639,0.586-1.967,0.879-3.984,0.879c-0.711,0-1.424-0.031-2.133-0.099l-0.852-2.214c1.396,0.118,2.648,0.178,3.756,0.178
		c1.41,0,2.117-0.494,2.117-1.482V43.966h2.055V65.415z"/>
	<path fill="#FFFFFF" d="M175.906,64.425l-2.076,0.939c-1.732-4.553-3.861-9.081-6.391-13.58l1.896-0.938
		C171.879,55.345,174.068,59.872,175.906,64.425z"/>
</g>
</svg>
