<?xml version="1.0" encoding="utf-8"?>
<!-- Generator: Adobe Illustrator 16.0.0, SVG Export Plug-In . SVG Version: 6.00 Build 0)  -->
<!DOCTYPE svg PUBLIC "-//W3C//DTD SVG 1.1//EN" "http://www.w3.org/Graphics/SVG/1.1/DTD/svg11.dtd">
<svg version="1.1" id="圖層_1" xmlns="http://www.w3.org/2000/svg" xmlns:xlink="http://www.w3.org/1999/xlink" x="0px" y="0px"
	 width="215px" height="215px" viewBox="0 0 215 215" enable-background="new 0 0 215 215" xml:space="preserve">
<g>
	<g opacity="0.5">
		<g>
			<defs>
				<rect id="SVGID_1_" x="4.331" y="4.335" width="206.338" height="206.34"/>
			</defs>
			<clipPath id="SVGID_2_">
				<use xlink:href="#SVGID_1_"  overflow="visible"/>
			</clipPath>
			<g clip-path="url(#SVGID_2_)">
				<path fill="#FFFFFF" d="M107.5,210.671c-56.888,0-103.169-46.283-103.169-103.17C4.331,50.613,50.612,4.332,107.5,4.332
					s103.169,46.281,103.169,103.169C210.669,164.388,164.388,210.671,107.5,210.671z M107.5,11.563
					c-52.9,0-95.938,43.038-95.938,95.938S54.6,203.44,107.5,203.44s95.938-43.039,95.938-95.939S160.4,11.563,107.5,11.563z"/>
			</g>
		</g>
	</g>
	<g opacity="0.8">
		<g>
			<defs>
				<rect id="SVGID_3_" x="0.986" y="0.985" width="213.027" height="213.029"/>
			</defs>
			<clipPath id="SVGID_4_">
				<use xlink:href="#SVGID_3_"  overflow="visible"/>
			</clipPath>
			<g clip-path="url(#SVGID_4_)">
				<path fill="#FFFFFF" d="M107.499,214.015c-58.73,0-106.512-47.781-106.512-106.514C0.987,48.77,48.769,0.988,107.499,0.988
					c58.732,0,106.515,47.781,106.515,106.513C214.014,166.233,166.231,214.015,107.499,214.015z M107.499,3.947
					c-57.1,0-103.553,46.454-103.553,103.554s46.453,103.555,103.553,103.555c57.101,0,103.556-46.455,103.556-103.555
					S164.6,3.947,107.499,3.947z"/>
			</g>
		</g>
	</g>
	<g>
		<g>
			<path fill-rule="evenodd" clip-rule="evenodd" fill="#FFFFFF" d="M154.808,101.159c-0.663-1.328-2.66-1.99-5.094-1.77
				c-0.442,0-1.104,0.219-1.771,0.441c-2.88,0.885-17.703,5.979-17.925,5.979l-0.219,0.223c1.768,1.545,2.652,3.094,2.211,4.199
				c-0.443,1.77-2.876,2.883-6.863,3.324c-3.538,0.223-7.969,0-13.279-1.113h1.769h10.185c4.2-0.441,6.197-1.326,6.641-3.094
				c0-0.887-0.662-1.771-1.998-2.656c-1.769-0.66-5.086-1.104-8.189-1.768c-2.211-0.221-4.424-0.443-5.75-0.893
				c-5.092-1.326-10.402-2.873-16.598-2.211c-0.89,0-1.994,0.221-2.879,0.221c-4.648,0.885-9.295,1.99-14.168,3.324l-0.662,0.223
				l7.305,10.18c1.104-0.223,2.436-0.443,3.763-0.664c1.769,0,3.321,0,4.868,0.221c1.994,0.221,6.862,1.326,11.511,2.211
				c4.868,1.105,9.736,1.992,11.504,2.213c0.886,0.219,1.999,0.219,2.882,0c2.434,0,4.865-1.326,7.307-2.654
				c0.662-0.443,1.326-0.664,1.989-1.105l21.243-11.508C155.028,103.147,155.028,101.821,154.808,101.159"/>
		</g>
		<g>
			<path fill-rule="evenodd" clip-rule="evenodd" fill="#FFFFFF" d="M67.16,105.146h9.515c0.443,0,1.111,0.223,1.331,0.664
				l9.074,13.053c0.222,0.443,0.222,0.666-0.221,0.666h-9.517c-0.446,0-1.108-0.223-1.329-0.666L66.94,105.81
				C66.72,105.368,66.94,105.146,67.16,105.146"/>
		</g>
		<g>
			<path fill="#FFFFFF" d="M116.976,54.053c3.408,0,6.17-2.764,6.17-6.172s-2.762-6.171-6.17-6.171s-6.172,2.763-6.172,6.171
				S113.567,54.053,116.976,54.053"/>
		</g>
		<g>
			<path fill="#FFFFFF" d="M122.157,65.269l-7.518-1.67l0.498-1.2c1.225-2.956-0.18-6.344-3.135-7.569
				c-1.402-0.581-1.859-0.997-4.064-0.557l-9.205,1.81c-0.848,0.123-1.541,0.645-1.928,1.344c-0.009,0.015-0.021,0.029-0.029,0.045
				l-4.701,8.144c-0.727,1.259-0.291,2.884,0.969,3.611s2.885,0.291,3.612-0.968l4.117-7.131l2.501-0.367L98.916,71.28
				c-0.09,0.215-0.161,0.434-0.224,0.652c-0.146,0.33-0.23,0.692-0.23,1.073v10.979l-3.299,10.451
				c-0.438,1.387,0.338,2.881,1.726,3.318c1.387,0.438,2.88-0.34,3.317-1.727l3.318-10.51c0.08-0.25,0.117-0.508,0.121-0.76
				c0.066-0.232,0.106-0.479,0.106-0.732v-4.758c0.476,0.043,0.951,0.02,1.416-0.055c0.106,0.293,0.263,0.572,0.478,0.82
				l4.718,5.479v10.416c0,1.455,1.19,2.645,2.645,2.645c1.455,0,2.646-1.189,2.646-2.645v-11.02c0-0.49-0.137-0.947-0.373-1.342
				c-0.094-0.395-0.278-0.773-0.561-1.102l-5.066-5.884c-0.096-0.109-0.2-0.208-0.31-0.301c0.101-0.181,0.193-0.37,0.274-0.565
				l2.967-7.154l8.424,1.872c1.42,0.316,2.84-0.589,3.155-2.009C124.479,67.006,123.576,65.585,122.157,65.269"/>
		</g>
		<g>
			<path fill="#FFFFFF" d="M120.87,65.942v27.582v3.947c0,0.553,0.862,0.555,0.862,0V69.889v-3.946
				C121.732,65.389,120.87,65.389,120.87,65.942"/>
		</g>
		<g>
			<path fill="#FFFFFF" d="M121.302,98.462L121.302,98.462c-0.573,0-1.006-0.426-1.006-0.99V65.942c0-0.564,0.433-0.991,1.006-0.991
				c0.571,0,1.004,0.427,1.004,0.991v31.529c0,0.297-0.118,0.563-0.334,0.746C121.789,98.374,121.552,98.462,121.302,98.462"/>
		</g>
		<g>
			<path fill="#FFFFFF" d="M129.444,65.833c-0.177-2.277-1.903-4.192-4.283-4.181c-2.382,0.011-4.107,1.889-4.285,4.181
				c-0.043,0.552,0.818,0.55,0.861,0c0.332-4.269,6.514-4.287,6.847,0C128.626,66.381,129.489,66.385,129.444,65.833"/>
		</g>
		<g>
			<path fill="#FFFFFF" d="M121.274,66.82c-0.283,0-0.549-0.112-0.73-0.308c-0.176-0.19-0.262-0.449-0.24-0.724
				c0.211-2.719,2.254-4.699,4.855-4.712c2.57,0,4.65,2.026,4.859,4.71c0.021,0.277-0.065,0.535-0.241,0.728
				c-0.181,0.193-0.446,0.306-0.729,0.306c-0.549,0-0.995-0.406-1.036-0.943c-0.144-1.849-1.534-2.679-2.847-2.679
				c-1.318,0-2.711,0.83-2.854,2.679C122.269,66.414,121.822,66.82,121.274,66.82"/>
		</g>
	</g>
	<g>
		<path fill="#FFFFFF" d="M102.664,158.729v2.16h3.563v1.943h-3.563v4.787c0,1.188-0.216,1.729-1.116,2.088
			c-0.828,0.324-2.16,0.324-4.067,0.324c-0.108-0.648-0.433-1.439-0.72-2.016c1.332,0.035,2.52,0.035,2.916,0
			c0.359,0,0.467-0.109,0.467-0.469v-4.715H89.669v-1.943h10.475v-2.16h-25.52v-2.053h32.863v2.053H102.664z M103.132,151.71
			c0.288-0.863,0.576-2.051,0.9-3.24H75.38v-1.979h29.443l0.469-0.072l1.764,0.359c-0.541,1.908-1.188,4.031-1.729,5.4
			L103.132,151.71z M89.634,141.128H75.919v-1.873h13.715v-2.123h2.627v2.123H106.3v1.873H92.261v1.908h11.303v1.799H78.511v-1.799
			h11.123V141.128z M88.266,167.944h-8.351v1.332h-2.376v-8.818h10.727V167.944z M89.669,153.474v-1.836h-9.07v-1.584h20.59v1.584
			h-8.963v1.836h12.021v1.656H77.791v-1.656H89.669z M79.915,162.329v3.744h5.939v-3.744H79.915z M92.765,163.157
			c1.26,1.008,2.7,2.482,3.348,3.49l-1.836,1.404c-0.611-1.043-2.016-2.592-3.275-3.672L92.765,163.157z"/>
		<path fill="#FFFFFF" d="M121.565,139.507c-1.008,2.916-2.23,6.48-3.383,9.359c2.447,2.951,3.023,5.543,3.023,7.74
			c0,1.943-0.396,3.49-1.332,4.211c-0.468,0.359-1.115,0.576-1.8,0.684c-0.684,0.072-1.548,0.072-2.268,0.035
			c-0.036-0.684-0.252-1.691-0.685-2.375c0.828,0.072,1.44,0.072,2.017,0.037c0.396,0,0.792-0.109,1.044-0.324
			c0.504-0.396,0.72-1.369,0.72-2.484c0-1.943-0.612-4.428-2.987-7.271c0.972-2.555,1.979-5.688,2.627-8.098h-4.283v28.904h-2.304
			v-31.316h7.56l0.396-0.145L121.565,139.507z M128.045,159.954c-0.288,0.898-0.647,1.834-1.044,2.662
			c1.512,0.936,3.204,2.232,4.031,3.133l-1.403,1.799c-0.756-0.9-2.268-2.088-3.636-3.131c-1.439,2.34-3.312,4.283-5.398,5.723
			c-0.36-0.467-1.26-1.332-1.836-1.764c3.311-1.943,5.723-5.039,6.875-8.926L128.045,159.954z M126.317,145.304
			c-1.224,0.936-2.52,1.764-3.852,2.52c-0.396-0.504-1.224-1.369-1.8-1.764c4.319-2.268,8.207-5.832,10.223-9.18l2.592,0.828
			c-0.252,0.396-0.504,0.791-0.792,1.188c2.699,2.52,7.199,4.967,10.871,6.264c-0.469,0.648-1.008,1.729-1.225,2.412
			c-3.671-1.584-8.026-4.248-10.979-6.912c-1.439,1.656-3.096,3.203-4.932,4.572h10.619v2.16h-10.727V145.304z M122.573,149.983
			h8.063v8.639h-8.063V149.983z M124.626,156.677h3.852v-4.715h-3.852V156.677z M138.052,159.772c-0.216,1.08-0.504,2.16-0.9,3.133
			c2.269,1.439,4.859,3.383,6.191,4.787l-1.584,1.799c-1.223-1.26-3.455-3.096-5.578-4.57c-1.08,2.088-2.557,3.814-4.355,5.111
			c-0.36-0.469-1.225-1.332-1.801-1.764c2.916-1.908,4.824-4.969,5.615-8.855L138.052,159.772z M132.868,149.983h8.207v8.639h-8.207
			V149.983z M134.921,156.677h3.995v-4.715h-3.995V156.677z"/>
	</g>
</g>
</svg>
