<?xml version="1.0" encoding="utf-8"?>
<!-- Generator: Adobe Illustrator 16.0.0, SVG Export Plug-In . SVG Version: 6.00 Build 0)  -->
<!DOCTYPE svg PUBLIC "-//W3C//DTD SVG 1.1//EN" "http://www.w3.org/Graphics/SVG/1.1/DTD/svg11.dtd">
<svg version="1.1" id="圖層_1" xmlns="http://www.w3.org/2000/svg" xmlns:xlink="http://www.w3.org/1999/xlink" x="0px" y="0px"
	 width="48px" height="50px" viewBox="0 0 48 50" enable-background="new 0 0 48 50" xml:space="preserve">
<g>
	<g>
		<g>
			<path fill-rule="evenodd" clip-rule="evenodd" fill="#12954B" d="M9.636,18.121l11.344-1.944
				c0.145-0.024,0.287,0.016,0.385,0.109c0.116,0.065,0.203,0.198,0.226,0.325l0.307,1.794c0.021,0.125-0.016,0.284-0.104,0.383
				c-0.061,0.121-0.187,0.184-0.331,0.208l-11.344,1.944c-0.153,0.027-0.28,0.005-0.399-0.084c-0.103-0.068-0.19-0.205-0.211-0.33
				L9.2,18.732c-0.021-0.127,0.016-0.282,0.09-0.379C9.373,18.229,9.481,18.146,9.636,18.121L9.636,18.121z M12.533,35.035
				l10.594-1.814c0.147-0.026,0.281,0.02,0.408,0.108c0.096,0.064,0.181,0.181,0.206,0.329l0.303,1.771
				c0.025,0.146-0.013,0.301-0.08,0.4c-0.091,0.121-0.205,0.186-0.354,0.209l-10.594,1.816c-0.153,0.027-0.28,0.004-0.399-0.08
				c-0.103-0.072-0.189-0.205-0.215-0.352l-0.304-1.771c-0.025-0.148,0.016-0.285,0.09-0.379
				C12.271,35.148,12.38,35.062,12.533,35.035L12.533,35.035z M11.569,29.408l9.281-1.59c0.146-0.026,0.279,0.018,0.38,0.08
				c0.121,0.092,0.208,0.202,0.232,0.352l0.304,1.773c0.024,0.143-0.02,0.28-0.104,0.402c-0.072,0.099-0.185,0.18-0.33,0.205
				l-9.281,1.59c-0.154,0.025-0.284-0.014-0.399-0.079c-0.106-0.091-0.19-0.208-0.214-0.349l-0.305-1.773
				c-0.025-0.148,0.016-0.281,0.085-0.406C11.307,29.517,11.415,29.434,11.569,29.408L11.569,29.408z M10.604,23.77l9.281-1.589
				c0.146-0.024,0.28,0.018,0.382,0.089c0.12,0.088,0.206,0.199,0.23,0.346l0.305,1.775c0.024,0.142-0.019,0.285-0.107,0.382
				c-0.068,0.115-0.181,0.201-0.326,0.227l-9.281,1.59c-0.154,0.025-0.285-0.018-0.403-0.102c-0.102-0.064-0.187-0.185-0.211-0.328
				l-0.304-1.775c-0.025-0.147,0.016-0.28,0.086-0.399C10.341,23.882,10.45,23.797,10.604,23.77L10.604,23.77z M22.908,20.914
				L22.908,20.914c-0.286,0.72-0.483,1.444-0.552,2.181c-0.497,4.425,2.021,8.785,6.41,10.367c0.721,0.294,1.433,0.443,2.177,0.57
				c0.862,0.071,1.69,0.083,2.507-0.057l7.532,13.93c0.534,0.946,1.477,1.514,2.48,1.655c0.651,0.104,1.3-0.005,1.92-0.386
				l0.523-0.248c0.954-0.516,1.526-1.445,1.66-2.463c0.05-0.635-0.011-1.354-0.37-1.921L39.643,30.56
				c0.737-0.854,1.291-1.829,1.675-2.938c0.285-0.734,0.476-1.437,0.566-2.177c0.5-4.428-2.033-8.786-6.411-10.39
				c-0.74-0.285-1.438-0.48-2.175-0.551C28.862,13.949,24.513,16.52,22.908,20.914L22.908,20.914z M24.433,23.379L24.433,23.379
				c0.428-4.117,4.181-7.138,8.306-6.643c4.116,0.409,7.133,4.155,6.642,8.288c-0.412,4.115-4.16,7.131-8.282,6.66
				C26.979,31.246,23.958,27.503,24.433,23.379L24.433,23.379z M14.223,8.963L14.223,8.963c-0.604,0.104-1.048,0.496-0.969,0.957
				c0.075,0.438,0.254,1.479,0.254,1.479L29.13,8.723c0,0-0.178-1.042-0.253-1.479c-0.079-0.459-0.629-0.684-1.238-0.578
				l-3.313,0.567l-1.065-6.22c-3.861-1.85-6.774,1.098-6.774,1.098l1.076,6.281L14.223,8.963z M40.939,2.431L40.939,2.431
				l4.859,28.368l0.168,0.98l1.323,8.109c0.068,0.395,0.027,0.79-0.09,1.109l-5.5-10.182c0.699-0.914,1.257-1.934,1.648-3.029
				c0.317-0.783,0.506-1.679,0.594-2.551l0.035-0.053c0.511-4.423-1.665-8.521-5.261-10.876l-1.312-8.185
				c-0.05-0.292-0.188-0.477-0.389-0.615c-0.265-0.192-0.489-0.218-0.781-0.169L28.878,6.6c-0.329-0.261-0.857-0.345-1.296-0.271
				l-2.984,0.512L23.989,3.29l14.563-2.494c0.606-0.104,1.075-0.011,1.535,0.299C40.53,1.426,40.847,1.889,40.939,2.431
				L40.939,2.431z M36.905,43.767l1.053-0.179L9.212,48.513c-0.604,0.103-1.098-0.021-1.539-0.358
				c-0.464-0.304-0.759-0.771-0.855-1.332l-1.512-9.086L0.446,9.368C0.353,8.825,0.501,8.284,0.805,7.825
				C1.136,7.38,1.54,7.137,2.148,7.032l14.416-2.47l0.608,3.551l-3.008,0.515c-0.375,0.064-0.841,0.319-1.063,0.674l-7.321,1.255
				c-0.209,0.035-0.49,0.147-0.619,0.407c-0.137,0.197-0.207,0.418-0.157,0.71l4.347,25.369l0.168,0.98l0.815,5.125
				c0.046,0.27,0.213,0.477,0.412,0.661c0.237,0.126,0.488,0.198,0.758,0.153l23.31-3.994L36.905,43.767z"/>
		</g>
	</g>
</g>
</svg>
