<?xml version="1.0" encoding="utf-8"?>
<!-- Generator: Adobe Illustrator 16.0.0, SVG Export Plug-In . SVG Version: 6.00 Build 0)  -->
<!DOCTYPE svg PUBLIC "-//W3C//DTD SVG 1.1//EN" "http://www.w3.org/Graphics/SVG/1.1/DTD/svg11.dtd">
<svg version="1.1" id="section5" xmlns="http://www.w3.org/2000/svg" xmlns:xlink="http://www.w3.org/1999/xlink" x="0px" y="0px"
	 width="345px" height="62px" viewBox="0 0 345 62" enable-background="new 0 0 345 62" xml:space="preserve">
<g>
	<g>
		<defs>
			<path id="SVGID_1_" d="M313.824,61.761H31.174c-8.218,0-15.942-3.197-21.75-9.004C3.616,46.942,0.418,39.216,0.418,31
				c0-8.218,3.198-15.942,9.005-21.749c5.804-5.812,13.528-9.013,21.75-9.013h282.65c8.223,0,15.947,3.201,21.751,9.013
				c5.809,5.807,9.007,13.531,9.007,21.749c0,8.215-3.198,15.942-9.007,21.756C329.767,58.563,322.042,61.761,313.824,61.761z"/>
		</defs>
		<use xlink:href="#SVGID_1_"  overflow="visible" fill="#FFFFFF"/>
		<clipPath id="SVGID_2_">
			<use xlink:href="#SVGID_1_"  overflow="visible"/>
		</clipPath>
		<g clip-path="url(#SVGID_2_)">
			<defs>
				<path id="SVGID_3_" d="M1392.118,1373.718H-367.866v-4671.453h1759.984V1373.718z M-366.866,1372.718h1757.984v-4669.453
					H-366.866V1372.718z"/>
			</defs>
			<use xlink:href="#SVGID_3_"  overflow="visible" fill="#8C8C8C"/>
			<clipPath id="SVGID_4_">
				<use xlink:href="#SVGID_3_"  overflow="visible"/>
			</clipPath>
		</g>
	</g>
	<g>
		<line fill="none" stroke="#727272" stroke-miterlimit="10" x1="86.5" y1="0.739" x2="86.5" y2="61.261"/>
		<g>
			<g>
				<defs>
					<path id="SVGID_5_" d="M313.824,61.761H31.174c-8.218,0-15.942-3.197-21.75-9.004C3.616,46.942,0.418,39.216,0.418,31
						c0-8.218,3.198-15.942,9.005-21.749c5.804-5.812,13.528-9.013,21.75-9.013h282.65c8.223,0,15.947,3.201,21.751,9.013
						c5.809,5.807,9.007,13.531,9.007,21.749c0,8.215-3.198,15.942-9.007,21.756C329.767,58.563,322.042,61.761,313.824,61.761z
						 M31.174,1.239c-7.955,0-15.428,3.097-21.043,8.72C4.512,15.577,1.418,23.049,1.418,31c0,7.95,3.094,15.424,8.713,21.049
						c5.619,5.617,13.092,8.711,21.043,8.711h282.65c7.951,0,15.425-3.094,21.044-8.711c5.619-5.625,8.714-13.1,8.714-21.049
						c0-7.951-3.095-15.424-8.714-21.042c-5.615-5.623-13.089-8.72-21.044-8.72H31.174z"/>
				</defs>
				<use xlink:href="#SVGID_5_"  overflow="visible" fill="#8C8C8C"/>
				<clipPath id="SVGID_6_">
					<use xlink:href="#SVGID_5_"  overflow="visible"/>
				</clipPath>
				<g clip-path="url(#SVGID_6_)">
					<defs>
						<path id="SVGID_7_" d="M1392.118,1373.718H-367.866v-4671.453h1759.984V1373.718z M-366.866,1372.718h1757.984v-4669.453
							H-366.866V1372.718z"/>
					</defs>
					<use xlink:href="#SVGID_7_"  overflow="visible" fill="#8C8C8C"/>
					<clipPath id="SVGID_8_">
						<use xlink:href="#SVGID_7_"  overflow="visible"/>
					</clipPath>
				</g>
			</g>
			<g>
				<path fill="#333333" d="M289.409,20.674L289.409,20.674c-3.146,0-4.721,3.803-2.496,6.026l3.974,3.975
					c0.326,0.324,0.326,0.854,0,1.181l-3.974,3.973c-2.225,2.225-0.65,6.027,2.496,6.027c0.937,0,1.834-0.371,2.496-1.035
					l8.968-8.965c0.325-0.327,0.325-0.856,0-1.181l-8.968-8.969C291.243,21.045,290.346,20.674,289.409,20.674"/>
			</g>
			<g>
				<path fill="#333333" d="M306.961,20.674L306.961,20.674c-3.146,0-4.721,3.803-2.497,6.026l3.975,3.975
					c0.326,0.324,0.326,0.854,0,1.181l-3.975,3.973c-2.224,2.225-0.649,6.027,2.497,6.027c0.937,0,1.834-0.371,2.496-1.035
					l8.967-8.965c0.326-0.327,0.326-0.856,0-1.181l-8.967-8.969C308.795,21.045,307.897,20.674,306.961,20.674"/>
			</g>
			<g>
				<path fill="#6F6F6E" d="M60.499,11.263H43.435c-0.988,0-1.933,0.393-2.63,1.093L30.662,22.547
					c-0.693,0.694-1.081,1.637-1.081,2.616v21.634c0,2.049,1.662,3.709,3.711,3.709h27.207c2.049,0,3.709-1.66,3.709-3.709V14.973
					C64.208,12.924,62.548,11.263,60.499,11.263 M61.592,46.798c0,0.604-0.49,1.094-1.094,1.094H33.292
					c-0.604,0-1.095-0.49-1.095-1.094V25.902h10.435c0.96,0,1.742-0.782,1.742-1.743V13.879h16.125c0.603,0,1.093,0.489,1.093,1.094
					V46.798z"/>
			</g>
			<g>
				<path fill="#6F6F6E" d="M54.231,31.481H39.561c-1.083,0-1.963,0.879-1.963,1.963s0.88,1.963,1.963,1.963h14.671
					c1.083,0,1.962-0.879,1.962-1.963S55.314,31.481,54.231,31.481"/>
			</g>
			<g>
				<path fill="#6F6F6E" d="M54.231,24.942h-5.514c-1.084,0-1.963,0.877-1.963,1.961s0.879,1.963,1.963,1.963h5.514
					c1.083,0,1.962-0.879,1.962-1.963S55.314,24.942,54.231,24.942"/>
			</g>
			<g>
				<path fill="#6F6F6E" d="M54.231,38.868H39.561c-1.083,0-1.963,0.879-1.963,1.963s0.88,1.963,1.963,1.963h14.671
					c1.083,0,1.962-0.879,1.962-1.963S55.314,38.868,54.231,38.868"/>
			</g>
			<g>
				<path fill="#333333" d="M141.63,39.95v5.34h-1.71v-5.34h-5.13v-1.801h5.13v-2.52h-4.17V25.311h4.14V23h-4.71v-1.739h4.71v-3.33
					h1.74v3.33h4.68V23h-4.68v2.311h4.29V35.63h-4.29v2.52h4.919v1.801H141.63z M137.28,29.72h2.76v-2.85h-2.76V29.72z
					 M137.28,34.101h2.76v-2.91h-2.76V34.101z M144.33,26.871h-2.82v2.85h2.82V26.871z M144.33,31.191h-2.82v2.91h2.82V31.191z
					 M162.209,42.739v1.74h-16.35v-1.74h7.35v-6.09H147.6v-1.738h13.649v1.738h-6.09v6.09H162.209z M149.879,33.86
					c-0.6-1.59-1.86-3.93-3.3-6.06c1.14-1.83,2.34-4.109,2.94-5.55l1.71,0.45c-0.72,1.56-1.83,3.51-2.76,5.07
					c1.2,1.829,2.46,3.989,3.06,5.4L149.879,33.86z M161.849,21.17H147.06v-1.739h14.789V21.17z M156.149,22.701
					c-0.78,1.56-1.92,3.51-2.88,5.07c1.29,1.77,2.64,3.959,3.27,5.339l-1.62,0.689c-0.63-1.559-2.04-3.899-3.54-6
					c1.14-1.83,2.4-4.109,3.03-5.55L156.149,22.701z M160.079,33.86c-0.69-1.59-2.16-3.93-3.78-6.06c1.23-1.83,2.52-4.109,3.21-5.55
					l1.71,0.45c-0.78,1.59-1.98,3.51-3,5.07c1.35,1.77,2.79,3.959,3.48,5.369L160.079,33.86z"/>
				<path fill="#333333" d="M172.319,36.261c0.96,0.75,3.42,2.939,3.99,3.57l-1.17,1.318c-0.51-0.66-1.771-2.039-2.82-3.148v7.168
					h-1.8v-7.408c-1.32,2.1-3,4.08-4.5,5.25c-0.3-0.42-0.84-1.021-1.23-1.32c1.89-1.26,4.08-3.779,5.46-6.18h-4.74v-1.59h5.01V31.43
					h1.8v2.491h4.351v1.59h-4.351V36.261z M177.869,31.34c-0.21-0.33-0.54-0.72-0.93-1.14c-8.61,0.63-9.629,0.72-10.229,0.93
					c-0.09-0.33-0.3-1.08-0.48-1.41c0.36-0.06,0.66-0.21,0.99-0.479c0.27-0.18,0.99-0.811,1.65-1.561h-3.63v-1.319h2.61v-7.62h11.01
					v1.32h-9.18v1.29h8.43v1.17h-8.43v1.319h8.43v1.17h-8.43v1.351h10.02v1.319h-3.45c1.11,0.87,2.37,2.011,2.971,2.851
					L177.869,31.34z M175.829,29.121c-0.39-0.36-0.779-0.69-1.17-0.96l0.931-0.48h-4.771c-0.63,0.69-1.29,1.32-1.979,1.83
					L175.829,29.121z M182.399,32.091c-1.08,2.549-2.97,5.01-4.89,6.6c-0.271-0.33-0.931-0.93-1.351-1.201
					c1.86-1.408,3.601-3.6,4.561-5.819L182.399,32.091z M186.839,38.569c1.41,1.891,3.18,4.41,4.05,5.881l-1.62,0.75
					c-0.27-0.51-0.659-1.201-1.14-1.891c-8.579,0.811-9.63,0.961-10.289,1.23c-0.091-0.359-0.391-1.23-0.601-1.68
					c0.48-0.09,0.99-0.57,1.62-1.26c0.6-0.721,2.729-3.451,4.02-6.09l1.71,0.809c-1.29,2.221-2.819,4.352-4.38,6.061l6.96-0.57
					c-0.63-0.93-1.229-1.83-1.83-2.639L186.839,38.569z M191.759,26.271c-2.25,2.279-6.449,3.779-10.739,4.619
					c-0.24-0.42-0.63-1.02-1.05-1.409c4.05-0.631,8.1-1.95,10.14-3.84L191.759,26.271z M189.779,18.771c-2.19,1.59-5.64,3-8.46,3.78
					c-0.3-0.391-0.78-0.87-1.2-1.23c2.7-0.689,6.15-1.92,8.07-3.33L189.779,18.771z M190.829,22.46c-2.19,1.8-5.91,3.21-9.18,4.021
					c-0.271-0.391-0.75-0.96-1.17-1.29c3.149-0.69,6.81-1.92,8.76-3.39L190.829,22.46z M186.809,31.281
					c1.08,2.46,3.36,4.83,5.431,6.06c-0.36,0.33-0.96,0.99-1.29,1.439c-1.95-1.35-4.021-3.51-5.28-5.879h-2.819v-1.621H186.809z"/>
				<path fill="#333333" d="M221.219,24.59c-0.78,0.99-1.71,1.95-2.52,2.7c1.14,1.11,2.43,2.04,3.779,2.64
					c-0.42,0.33-0.989,1.021-1.26,1.5c-0.72-0.39-1.41-0.84-2.1-1.38v7.05h-5.49v6.029c0,0.961-0.149,1.5-0.899,1.801
					c-0.721,0.299-1.891,0.33-3.811,0.33c-0.06-0.512-0.359-1.291-0.63-1.771c1.41,0.031,2.641,0.031,3,0.031
					c0.391-0.031,0.48-0.09,0.48-0.42v-6h-5.4v-6.93c-0.6,0.48-1.229,0.93-1.92,1.32c-0.21-0.33-0.63-0.931-0.989-1.32v10.02h-5.851
					V42.8h-1.739V19.701h7.59V29.81c1.199-0.659,2.279-1.439,3.21-2.369c-0.57-0.87-1.5-1.92-2.341-2.7l1.23-0.87
					c0.84,0.66,1.649,1.53,2.25,2.34c0.75-0.96,1.41-2.01,1.95-3.149h-5.49v-1.65h6.21c0.39-1.109,0.72-2.279,0.96-3.54l1.859,0.301
					c-0.239,1.14-0.54,2.22-0.899,3.239h9.42v1.65h-6.271c0.601,1.14,1.32,2.22,2.19,3.21c0.72-0.811,1.529-1.83,2.01-2.521
					L221.219,24.59z M197.609,21.471v4.409h4.05v-4.409H197.609z M197.609,32.06h4.05v-4.439h-4.05V32.06z M201.659,38.39V33.8
					h-4.05v4.59H201.659z M208.59,38.87c-1.08,2.039-2.91,4.17-4.561,5.52c-0.33-0.33-1.08-0.93-1.529-1.23
					c1.68-1.199,3.3-2.969,4.26-4.799L208.59,38.87z M217.259,29.481h-9.09v2.31h9.09V29.481z M217.259,33.229h-9.09v2.371h9.09
					V33.229z M211.77,23.061c-0.811,1.859-1.83,3.51-3.061,4.92h8.22c-1.319-1.44-2.399-3.15-3.18-4.92H211.77z M217.529,38.271
					c1.739,1.5,3.6,3.6,4.5,5.01l-1.53,1.02c-0.9-1.439-2.73-3.629-4.41-5.16L217.529,38.271z"/>
				<path fill="#333333" d="M237.539,42.979c0,1.02-0.239,1.59-0.989,1.891c-0.721,0.299-1.92,0.33-4.05,0.33
					c-0.061-0.48-0.391-1.26-0.63-1.711c1.59,0.031,2.97,0.031,3.39,0c0.42,0,0.569-0.09,0.569-0.51V37.37h-7.409
					c-0.271,2.789-0.9,5.73-2.31,7.92c-0.271-0.301-1.051-0.75-1.44-0.93c2.04-3.15,2.25-7.59,2.25-10.98v-5.759
					c-0.271,0.36-0.54,0.69-0.81,1.02c-0.271-0.3-1.08-0.93-1.5-1.199c2.13-2.311,3.81-5.85,4.739-9.54l1.83,0.42
					c-0.21,0.75-0.45,1.5-0.69,2.22h3.69l0.27-0.09l1.2,0.78c-0.479,1.38-1.229,2.939-1.95,4.229h3.84V42.979z M229.89,22.161
					c-0.479,1.17-1.02,2.28-1.59,3.3h3.6c0.51-0.96,1.05-2.189,1.47-3.3H229.89z M228.6,33.411c0,0.75-0.03,1.529-0.06,2.369h2.939
					v-3.689h-2.88V33.411z M228.6,30.56h2.88v-3.51h-2.88V30.56z M232.949,30.56h2.88v-3.51h-2.88V30.56z M235.829,35.78v-3.689
					h-2.88v3.689H235.829z M244.56,21.141c-0.66,3.569-2.13,6.479-5.82,8.189c-0.24-0.42-0.78-1.05-1.14-1.38
					c3.27-1.38,4.529-3.9,5.1-6.81h-4.2v-1.71h12.93c0,0-0.03,0.54-0.06,0.779c-0.24,5.011-0.48,6.9-1.11,7.59
					c-0.42,0.48-0.84,0.66-1.59,0.721c-0.63,0.06-1.89,0.029-3.149-0.03c-0.03-0.54-0.21-1.23-0.45-1.68
					c1.229,0.119,2.37,0.119,2.819,0.119c0.391,0.03,0.66-0.029,0.84-0.27c0.36-0.42,0.631-1.86,0.811-5.52H244.56z M252.239,39.351
					h-5.82v5.729h-1.92v-5.729h-6.42v-1.74h6.42v-3.869h-3.45c-0.479,1.17-1.05,2.189-1.649,3.029c-0.3-0.24-1.11-0.631-1.56-0.811
					c1.35-1.74,2.249-4.23,2.789-6.78l1.71,0.33c-0.18,0.84-0.39,1.681-0.659,2.491h2.819V28.88h1.92v3.121h5.31v1.74h-5.31v3.869
					h5.82V39.351z"/>
			</g>
			<path fill="#FFFFFF" d="M313.824,61.761H31.174c-8.218,0-15.942-3.197-21.75-9.004C3.616,46.942,0.418,39.216,0.418,31
				c0-8.218,3.198-15.942,9.005-21.749c5.804-5.812,13.528-9.013,21.75-9.013h282.65c8.223,0,15.947,3.201,21.751,9.013
				c5.809,5.807,9.007,13.531,9.007,21.749c0,8.215-3.198,15.942-9.007,21.756C329.767,58.563,322.042,61.761,313.824,61.761z"/>
			<line fill="none" stroke="#727272" stroke-miterlimit="10" x1="86.5" y1="0.739" x2="86.5" y2="61.261"/>
			<g>
				<path fill="#8C8C8C" d="M313.824,61.761H31.174c-8.218,0-15.942-3.197-21.75-9.004C3.616,46.942,0.418,39.216,0.418,31
					c0-8.218,3.198-15.942,9.005-21.749c5.804-5.812,13.528-9.013,21.75-9.013h282.65c8.223,0,15.947,3.201,21.751,9.013
					c5.809,5.807,9.007,13.531,9.007,21.749c0,8.215-3.198,15.942-9.007,21.756C329.767,58.563,322.042,61.761,313.824,61.761z
					 M31.174,1.239c-7.955,0-15.428,3.097-21.043,8.72C4.512,15.577,1.418,23.049,1.418,31c0,7.95,3.094,15.424,8.713,21.049
					c5.619,5.617,13.092,8.711,21.043,8.711h282.65c7.951,0,15.425-3.094,21.044-8.711c5.619-5.625,8.714-13.1,8.714-21.049
					c0-7.951-3.095-15.424-8.714-21.042c-5.615-5.623-13.089-8.72-21.044-8.72H31.174z"/>
			</g>
			<g>
				<path fill="#333333" d="M289.409,20.674L289.409,20.674c-3.146,0-4.721,3.803-2.496,6.026l3.974,3.975
					c0.326,0.324,0.326,0.854,0,1.181l-3.974,3.973c-2.225,2.225-0.65,6.027,2.496,6.027c0.937,0,1.834-0.371,2.496-1.035
					l8.968-8.965c0.325-0.327,0.325-0.856,0-1.181l-8.968-8.969C291.243,21.045,290.346,20.674,289.409,20.674"/>
			</g>
			<g>
				<path fill="#333333" d="M306.961,20.674L306.961,20.674c-3.146,0-4.721,3.803-2.497,6.026l3.975,3.975
					c0.326,0.324,0.326,0.854,0,1.181l-3.975,3.973c-2.224,2.225-0.649,6.027,2.497,6.027c0.937,0,1.834-0.371,2.496-1.035
					l8.967-8.965c0.326-0.327,0.326-0.856,0-1.181l-8.967-8.969C308.795,21.045,307.897,20.674,306.961,20.674"/>
			</g>
			<g>
				<path fill="#6F6F6E" d="M60.499,11.263H43.435c-0.988,0-1.933,0.393-2.63,1.093L30.662,22.547
					c-0.693,0.694-1.081,1.637-1.081,2.616v21.634c0,2.049,1.662,3.709,3.711,3.709h27.207c2.049,0,3.709-1.66,3.709-3.709V14.973
					C64.208,12.924,62.548,11.263,60.499,11.263 M61.592,46.798c0,0.604-0.49,1.094-1.094,1.094H33.292
					c-0.604,0-1.095-0.49-1.095-1.094V25.902h10.435c0.96,0,1.742-0.782,1.742-1.743V13.879h16.125c0.603,0,1.093,0.489,1.093,1.094
					V46.798z"/>
			</g>
			<g>
				<path fill="#6F6F6E" d="M54.231,31.481H39.561c-1.083,0-1.963,0.879-1.963,1.963s0.88,1.963,1.963,1.963h14.671
					c1.083,0,1.962-0.879,1.962-1.963S55.314,31.481,54.231,31.481"/>
			</g>
			<g>
				<path fill="#6F6F6E" d="M54.231,24.942h-5.514c-1.084,0-1.963,0.877-1.963,1.961s0.879,1.963,1.963,1.963h5.514
					c1.083,0,1.962-0.879,1.962-1.963S55.314,24.942,54.231,24.942"/>
			</g>
			<g>
				<path fill="#6F6F6E" d="M54.231,38.868H39.561c-1.083,0-1.963,0.879-1.963,1.963s0.88,1.963,1.963,1.963h14.671
					c1.083,0,1.962-0.879,1.962-1.963S55.314,38.868,54.231,38.868"/>
			</g>
			<g>
				<path fill="#333333" d="M141.63,39.95v5.34h-1.71v-5.34h-5.13v-1.801h5.13v-2.52h-4.17V25.311h4.14V23h-4.71v-1.739h4.71v-3.33
					h1.74v3.33h4.68V23h-4.68v2.311h4.29V35.63h-4.29v2.52h4.919v1.801H141.63z M137.28,29.72h2.76v-2.85h-2.76V29.72z
					 M137.28,34.101h2.76v-2.91h-2.76V34.101z M144.33,26.871h-2.82v2.85h2.82V26.871z M144.33,31.191h-2.82v2.91h2.82V31.191z
					 M162.209,42.739v1.74h-16.35v-1.74h7.35v-6.09H147.6v-1.738h13.649v1.738h-6.09v6.09H162.209z M149.879,33.86
					c-0.6-1.59-1.86-3.93-3.3-6.06c1.14-1.83,2.34-4.109,2.94-5.55l1.71,0.45c-0.72,1.56-1.83,3.51-2.76,5.07
					c1.2,1.829,2.46,3.989,3.06,5.4L149.879,33.86z M161.849,21.17H147.06v-1.739h14.789V21.17z M156.149,22.701
					c-0.78,1.56-1.92,3.51-2.88,5.07c1.29,1.77,2.64,3.959,3.27,5.339l-1.62,0.689c-0.63-1.559-2.04-3.899-3.54-6
					c1.14-1.83,2.4-4.109,3.03-5.55L156.149,22.701z M160.079,33.86c-0.69-1.59-2.16-3.93-3.78-6.06c1.23-1.83,2.52-4.109,3.21-5.55
					l1.71,0.45c-0.78,1.59-1.98,3.51-3,5.07c1.35,1.77,2.79,3.959,3.48,5.369L160.079,33.86z"/>
				<path fill="#333333" d="M172.319,36.261c0.96,0.75,3.42,2.939,3.99,3.57l-1.17,1.318c-0.51-0.66-1.771-2.039-2.82-3.148v7.168
					h-1.8v-7.408c-1.32,2.1-3,4.08-4.5,5.25c-0.3-0.42-0.84-1.021-1.23-1.32c1.89-1.26,4.08-3.779,5.46-6.18h-4.74v-1.59h5.01V31.43
					h1.8v2.491h4.351v1.59h-4.351V36.261z M177.869,31.34c-0.21-0.33-0.54-0.72-0.93-1.14c-8.61,0.63-9.629,0.72-10.229,0.93
					c-0.09-0.33-0.3-1.08-0.48-1.41c0.36-0.06,0.66-0.21,0.99-0.479c0.27-0.18,0.99-0.811,1.65-1.561h-3.63v-1.319h2.61v-7.62h11.01
					v1.32h-9.18v1.29h8.43v1.17h-8.43v1.319h8.43v1.17h-8.43v1.351h10.02v1.319h-3.45c1.11,0.87,2.37,2.011,2.971,2.851
					L177.869,31.34z M175.829,29.121c-0.39-0.36-0.779-0.69-1.17-0.96l0.931-0.48h-4.771c-0.63,0.69-1.29,1.32-1.979,1.83
					L175.829,29.121z M182.399,32.091c-1.08,2.549-2.97,5.01-4.89,6.6c-0.271-0.33-0.931-0.93-1.351-1.201
					c1.86-1.408,3.601-3.6,4.561-5.819L182.399,32.091z M186.839,38.569c1.41,1.891,3.18,4.41,4.05,5.881l-1.62,0.75
					c-0.27-0.51-0.659-1.201-1.14-1.891c-8.579,0.811-9.63,0.961-10.289,1.23c-0.091-0.359-0.391-1.23-0.601-1.68
					c0.48-0.09,0.99-0.57,1.62-1.26c0.6-0.721,2.729-3.451,4.02-6.09l1.71,0.809c-1.29,2.221-2.819,4.352-4.38,6.061l6.96-0.57
					c-0.63-0.93-1.229-1.83-1.83-2.639L186.839,38.569z M191.759,26.271c-2.25,2.279-6.449,3.779-10.739,4.619
					c-0.24-0.42-0.63-1.02-1.05-1.409c4.05-0.631,8.1-1.95,10.14-3.84L191.759,26.271z M189.779,18.771c-2.19,1.59-5.64,3-8.46,3.78
					c-0.3-0.391-0.78-0.87-1.2-1.23c2.7-0.689,6.15-1.92,8.07-3.33L189.779,18.771z M190.829,22.46c-2.19,1.8-5.91,3.21-9.18,4.021
					c-0.271-0.391-0.75-0.96-1.17-1.29c3.149-0.69,6.81-1.92,8.76-3.39L190.829,22.46z M186.809,31.281
					c1.08,2.46,3.36,4.83,5.431,6.06c-0.36,0.33-0.96,0.99-1.29,1.439c-1.95-1.35-4.021-3.51-5.28-5.879h-2.819v-1.621H186.809z"/>
				<path fill="#333333" d="M221.219,24.59c-0.78,0.99-1.71,1.95-2.52,2.7c1.14,1.11,2.43,2.04,3.779,2.64
					c-0.42,0.33-0.989,1.021-1.26,1.5c-0.72-0.39-1.41-0.84-2.1-1.38v7.05h-5.49v6.029c0,0.961-0.149,1.5-0.899,1.801
					c-0.721,0.299-1.891,0.33-3.811,0.33c-0.06-0.512-0.359-1.291-0.63-1.771c1.41,0.031,2.641,0.031,3,0.031
					c0.391-0.031,0.48-0.09,0.48-0.42v-6h-5.4v-6.93c-0.6,0.48-1.229,0.93-1.92,1.32c-0.21-0.33-0.63-0.931-0.989-1.32v10.02h-5.851
					V42.8h-1.739V19.701h7.59V29.81c1.199-0.659,2.279-1.439,3.21-2.369c-0.57-0.87-1.5-1.92-2.341-2.7l1.23-0.87
					c0.84,0.66,1.649,1.53,2.25,2.34c0.75-0.96,1.41-2.01,1.95-3.149h-5.49v-1.65h6.21c0.39-1.109,0.72-2.279,0.96-3.54l1.859,0.301
					c-0.239,1.14-0.54,2.22-0.899,3.239h9.42v1.65h-6.271c0.601,1.14,1.32,2.22,2.19,3.21c0.72-0.811,1.529-1.83,2.01-2.521
					L221.219,24.59z M197.609,21.471v4.409h4.05v-4.409H197.609z M197.609,32.06h4.05v-4.439h-4.05V32.06z M201.659,38.39V33.8
					h-4.05v4.59H201.659z M208.59,38.87c-1.08,2.039-2.91,4.17-4.561,5.52c-0.33-0.33-1.08-0.93-1.529-1.23
					c1.68-1.199,3.3-2.969,4.26-4.799L208.59,38.87z M217.259,29.481h-9.09v2.31h9.09V29.481z M217.259,33.229h-9.09v2.371h9.09
					V33.229z M211.77,23.061c-0.811,1.859-1.83,3.51-3.061,4.92h8.22c-1.319-1.44-2.399-3.15-3.18-4.92H211.77z M217.529,38.271
					c1.739,1.5,3.6,3.6,4.5,5.01l-1.53,1.02c-0.9-1.439-2.73-3.629-4.41-5.16L217.529,38.271z"/>
				<path fill="#333333" d="M237.539,42.979c0,1.02-0.239,1.59-0.989,1.891c-0.721,0.299-1.92,0.33-4.05,0.33
					c-0.061-0.48-0.391-1.26-0.63-1.711c1.59,0.031,2.97,0.031,3.39,0c0.42,0,0.569-0.09,0.569-0.51V37.37h-7.409
					c-0.271,2.789-0.9,5.73-2.31,7.92c-0.271-0.301-1.051-0.75-1.44-0.93c2.04-3.15,2.25-7.59,2.25-10.98v-5.759
					c-0.271,0.36-0.54,0.69-0.81,1.02c-0.271-0.3-1.08-0.93-1.5-1.199c2.13-2.311,3.81-5.85,4.739-9.54l1.83,0.42
					c-0.21,0.75-0.45,1.5-0.69,2.22h3.69l0.27-0.09l1.2,0.78c-0.479,1.38-1.229,2.939-1.95,4.229h3.84V42.979z M229.89,22.161
					c-0.479,1.17-1.02,2.28-1.59,3.3h3.6c0.51-0.96,1.05-2.189,1.47-3.3H229.89z M228.6,33.411c0,0.75-0.03,1.529-0.06,2.369h2.939
					v-3.689h-2.88V33.411z M228.6,30.56h2.88v-3.51h-2.88V30.56z M232.949,30.56h2.88v-3.51h-2.88V30.56z M235.829,35.78v-3.689
					h-2.88v3.689H235.829z M244.56,21.141c-0.66,3.569-2.13,6.479-5.82,8.189c-0.24-0.42-0.78-1.05-1.14-1.38
					c3.27-1.38,4.529-3.9,5.1-6.81h-4.2v-1.71h12.93c0,0-0.03,0.54-0.06,0.779c-0.24,5.011-0.48,6.9-1.11,7.59
					c-0.42,0.48-0.84,0.66-1.59,0.721c-0.63,0.06-1.89,0.029-3.149-0.03c-0.03-0.54-0.21-1.23-0.45-1.68
					c1.229,0.119,2.37,0.119,2.819,0.119c0.391,0.03,0.66-0.029,0.84-0.27c0.36-0.42,0.631-1.86,0.811-5.52H244.56z M252.239,39.351
					h-5.82v5.729h-1.92v-5.729h-6.42v-1.74h6.42v-3.869h-3.45c-0.479,1.17-1.05,2.189-1.649,3.029c-0.3-0.24-1.11-0.631-1.56-0.811
					c1.35-1.74,2.249-4.23,2.789-6.78l1.71,0.33c-0.18,0.84-0.39,1.681-0.659,2.491h2.819V28.88h1.92v3.121h5.31v1.74h-5.31v3.869
					h5.82V39.351z"/>
			</g>
		</g>
	</g>
</g>
</svg>
