<?xml version="1.0" encoding="utf-8"?>
<!-- Generator: Adobe Illustrator 16.0.0, SVG Export Plug-In . SVG Version: 6.00 Build 0)  -->
<!DOCTYPE svg PUBLIC "-//W3C//DTD SVG 1.1//EN" "http://www.w3.org/Graphics/SVG/1.1/DTD/svg11.dtd">
<svg version="1.1" id="圖層_1" xmlns="http://www.w3.org/2000/svg" xmlns:xlink="http://www.w3.org/1999/xlink" x="0px" y="0px"
	 width="215px" height="215px" viewBox="0 0 215 215" enable-background="new 0 0 215 215" xml:space="preserve">
<g>
	<g opacity="0.5">
		<g>
			<defs>
				<rect id="SVGID_1_" x="4.331" y="4.335" width="206.338" height="206.34"/>
			</defs>
			<clipPath id="SVGID_2_">
				<use xlink:href="#SVGID_1_"  overflow="visible"/>
			</clipPath>
			<g clip-path="url(#SVGID_2_)">
				<path fill="#FFFFFF" d="M107.5,210.671c-56.888,0-103.17-46.283-103.17-103.17C4.331,50.613,50.613,4.332,107.5,4.332
					c56.887,0,103.168,46.281,103.168,103.169C210.669,164.388,164.388,210.671,107.5,210.671z M107.5,11.563
					c-52.901,0-95.939,43.038-95.939,95.938S54.599,203.44,107.5,203.44c52.901,0,95.938-43.039,95.938-95.939
					S160.401,11.563,107.5,11.563z"/>
			</g>
		</g>
	</g>
	<g opacity="0.8">
		<g>
			<defs>
				<rect id="SVGID_3_" x="0.987" y="0.985" width="213.026" height="213.029"/>
			</defs>
			<clipPath id="SVGID_4_">
				<use xlink:href="#SVGID_3_"  overflow="visible"/>
			</clipPath>
			<g clip-path="url(#SVGID_4_)">
				<path fill="#FFFFFF" d="M107.5,214.015c-58.731,0-106.513-47.781-106.513-106.514C0.988,48.77,48.769,0.988,107.5,0.988
					c58.731,0,106.512,47.781,106.512,106.513C214.013,166.233,166.231,214.015,107.5,214.015z M107.5,3.947
					c-57.1,0-103.554,46.454-103.554,103.554S50.401,211.056,107.5,211.056c57.1,0,103.553-46.455,103.553-103.555
					S164.601,3.947,107.5,3.947z"/>
			</g>
		</g>
	</g>
	<g>
		<g>
			<path fill-rule="evenodd" clip-rule="evenodd" fill="#FFFFFF" d="M91.827,54.873h5.755c0.852,0,1.278-0.213,1.278-1.276v-1.491
				c0-1.493-0.427-2.131-1.916-1.918H86.923c-1.276-0.213-1.915,0.212-1.702,1.706v1.703c-0.213,1.063,0.426,1.276,1.277,1.276
				H91.827z M90.338,83.853v-5.328h-5.33v-3.62h5.33v-5.115h3.406v5.115h5.328v3.62h-5.328v5.328H90.338z M91.827,97.915H68.604
				c-3.621,0-5.115-1.496-5.115-4.9v-14.49c0-1.491,0.424-1.916,1.708-1.702h10.013c1.277-0.214,1.703,0.211,1.916,1.487
				c0.852,7.67,7.244,13.426,14.914,13.426c7.671,0,14.063-5.756,14.704-13.426c0.211-1.063,0.425-1.701,1.702-1.487h10.651
				c1.064,0,1.496,0.211,1.496,1.276c-0.219,5.115,0,10.438-0.219,15.553c0,2.768-1.703,4.264-4.471,4.264H91.827z M110.36,54.873
				h5.969c2.342,0,4.045,1.702,4.045,4.052c0.219,4.044,0,8.097,0.219,11.929c0,1.063-0.432,1.277-1.496,1.277h-11.715
				c-0.851,0-1.278-0.214-1.491-1.064c-2.773-5.967-7.457-9.162-13.851-9.162c-6.605,0-11.295,3.195-13.85,9.162
				c-0.426,0.851-0.852,1.064-1.703,1.064H64.763c-1.064,0-1.274-0.426-1.274-1.491V59.352c0-2.776,1.708-4.479,4.475-4.479h11.291
				c1.49,0,1.922-0.425,1.709-1.915v-3.409c0.213-2.346,1.704-4.049,4.045-4.049H98.86c2.555,0.214,4.044,1.703,4.044,4.261
				c0.213,1.707-0.638,3.836,0.64,4.899c1.063,0.64,3.2,0.213,4.902,0.213H110.36z"/>
		</g>
		<g>
			<path fill="#FFFFFF" d="M127.634,106.515l-0.066-0.15l2.938-1.299c0.453-0.199,0.656-0.729,0.457-1.18l-0.135-0.309
				c-0.199-0.451-0.729-0.656-1.182-0.457l-2.938,1.297l-0.066-0.15c-0.201-0.453-0.727-0.66-1.18-0.459l-18.913,8.352
				c-0.453,0.199-0.657,0.729-0.457,1.182l0.993,2.25c0.2,0.453,0.728,0.656,1.18,0.457l18.914-8.354
				C127.63,107.497,127.835,106.968,127.634,106.515"/>
		</g>
		<g>
			<path fill="#FFFFFF" d="M153.276,98.925c-0.055-1.551-0.387-3.111-1.051-4.613c-2.791-6.32-10.201-9.189-16.52-6.398
				c-4.59,2.025-7.348,6.49-7.451,11.201c-0.039,1.777,0.287,3.588,1.051,5.32c2.791,6.318,10.201,9.188,16.521,6.396
				C150.644,108.704,153.448,103.89,153.276,98.925 M131.761,103.351c-0.611-1.387-0.865-2.836-0.822-4.258
				c0.111-3.672,2.27-7.145,5.852-8.725c4.965-2.193,10.791,0.063,12.982,5.027c0.512,1.156,0.77,2.357,0.818,3.549
				c0.168,3.932-2.037,7.75-5.848,9.432C139.778,110.569,133.952,108.315,131.761,103.351"/>
		</g>
	</g>
	<g>
		<path fill="#FFFFFF" d="M56.726,167.8c1.8-1.584,3.384-4.176,4.247-6.264l2.232,1.008c-1.008,2.16-2.484,4.824-4.32,6.516
			L56.726,167.8z M87.862,145.556v2.195h-30.74v-2.195h8.315c-0.288-0.938-0.756-2.125-1.296-3.061l2.268-0.504h-7.667v-2.195
			h12.851c-0.36-0.828-0.828-1.656-1.26-2.375l2.592-0.541c0.611,0.828,1.188,1.98,1.619,2.916h11.482v2.195h-7.162l2.087,0.469
			c-0.575,1.115-1.151,2.158-1.691,3.096H87.862z M83.686,159.954h-12.49c1.872,1.008,4.031,2.482,5.147,3.527l-1.655,1.654
			c-1.152-1.188-3.6-2.879-5.58-4.031l1.225-1.15h-9.035V149.55h22.389V159.954z M81.059,151.386H63.853v2.484h17.206V151.386z
			 M81.059,155.634H63.853v2.484h17.206V155.634z M76.272,167.476c1.547,0,1.764-0.432,1.943-3.635
			c0.576,0.396,1.619,0.756,2.304,0.936c-0.288,3.959-1.116,4.932-3.995,4.932h-6.768c-3.636,0-4.607-0.684-4.607-3.24v-4.643h2.627
			v4.643c0,0.828,0.324,1.008,2.196,1.008H76.272z M66.625,141.991c0.647,1.08,1.296,2.52,1.584,3.564h8.315
			c0.611-1.117,1.26-2.52,1.655-3.564H66.625z M83.147,161.214c1.8,1.799,3.815,4.391,4.715,6.154l-2.268,1.152
			c-0.792-1.801-2.771-4.428-4.571-6.371L83.147,161.214z"/>
		<path fill="#FFFFFF" d="M107.448,142.495l1.836,0.611c-1.873,14.111-7.416,22.57-15.046,26.781
			c-0.432-0.684-1.512-1.729-2.195-2.195c4.175-2.16,7.667-5.508,10.223-10.26c-1.368-1.764-3.708-4.104-5.832-6.047
			c-0.72,1.26-1.476,2.34-2.268,3.348c-0.432-0.467-1.619-1.332-2.195-1.691c3.275-3.707,5.543-9.646,6.839-15.91l2.628,0.504
			c-0.396,1.729-0.792,3.385-1.296,5.004h6.767L107.448,142.495z M99.277,145.159c-0.504,1.439-1.08,2.807-1.728,4.104
			c2.016,1.691,4.355,3.814,5.939,5.58c1.151-2.809,2.052-6.012,2.663-9.684H99.277z M116.087,147.966
			c3.096,2.449,6.982,5.867,8.891,8.137l-2.123,1.834c-1.621-2.051-4.896-5.074-7.74-7.486v19.545h-2.734v-32.826h2.734v11.59
			L116.087,147.966z"/>
		<path fill="#FFFFFF" d="M138.913,139.507c-1.008,2.916-2.232,6.48-3.385,9.359c2.449,2.951,3.023,5.543,3.023,7.74
			c0,1.943-0.395,3.49-1.33,4.211c-0.469,0.359-1.117,0.576-1.801,0.684c-0.684,0.072-1.547,0.072-2.268,0.035
			c-0.035-0.684-0.252-1.691-0.684-2.375c0.828,0.072,1.439,0.072,2.016,0.037c0.396,0,0.791-0.109,1.043-0.324
			c0.504-0.396,0.721-1.369,0.721-2.484c0-1.943-0.611-4.428-2.988-7.271c0.973-2.555,1.98-5.688,2.629-8.098h-4.283v28.904h-2.305
			v-31.316h7.559l0.396-0.145L138.913,139.507z M145.392,159.954c-0.287,0.898-0.648,1.834-1.043,2.662
			c1.512,0.936,3.203,2.232,4.031,3.133l-1.404,1.799c-0.756-0.9-2.268-2.088-3.635-3.131c-1.441,2.34-3.313,4.283-5.4,5.723
			c-0.359-0.467-1.26-1.332-1.836-1.764c3.313-1.943,5.725-5.039,6.875-8.926L145.392,159.954z M143.663,145.304
			c-1.223,0.936-2.52,1.764-3.85,2.52c-0.396-0.504-1.225-1.369-1.801-1.764c4.32-2.268,8.207-5.832,10.223-9.18l2.592,0.828
			c-0.252,0.396-0.504,0.791-0.791,1.188c2.699,2.52,7.197,4.967,10.869,6.264c-0.467,0.648-1.008,1.729-1.223,2.412
			c-3.672-1.584-8.027-4.248-10.979-6.912c-1.441,1.656-3.096,3.203-4.932,4.572h10.619v2.16h-10.729V145.304z M139.921,149.983
			h8.063v8.639h-8.063V149.983z M141.972,156.677h3.852v-4.715h-3.852V156.677z M155.399,159.772c-0.217,1.08-0.504,2.16-0.9,3.133
			c2.268,1.439,4.859,3.383,6.191,4.787l-1.584,1.799c-1.225-1.26-3.455-3.096-5.58-4.57c-1.08,2.088-2.555,3.814-4.355,5.111
			c-0.359-0.469-1.223-1.332-1.799-1.764c2.916-1.908,4.822-4.969,5.615-8.855L155.399,159.772z M150.216,149.983h8.207v8.639
			h-8.207V149.983z M152.267,156.677h3.996v-4.715h-3.996V156.677z"/>
	</g>
</g>
</svg>
