<?xml version="1.0" encoding="utf-8"?>
<!-- Generator: Adobe Illustrator 16.0.0, SVG Export Plug-In . SVG Version: 6.00 Build 0)  -->
<!DOCTYPE svg PUBLIC "-//W3C//DTD SVG 1.1//EN" "http://www.w3.org/Graphics/SVG/1.1/DTD/svg11.dtd">
<svg version="1.1" id="圖層_1" xmlns="http://www.w3.org/2000/svg" xmlns:xlink="http://www.w3.org/1999/xlink" x="0px" y="0px"
	 width="100px" height="100px" viewBox="0 0 100 100" enable-background="new 0 0 100 100" xml:space="preserve">
<g>
	<g>
		<g>
			<g>
				<path fill="#FFFFFF" d="M46.346,2.149c-0.767,1.716-1.51,3.415-2.428,5.058c-1.438,2.571,2.453,4.849,3.948,2.308
					c1.049-1.781,2.008-3.635,2.727-5.576C51.497,1.496,47.421-0.26,46.346,2.149z"/>
			</g>
			<g>
				<path fill="#FFFFFF" d="M55.561,2.283c-1.133,1.499-2.239,2.987-3.504,4.382c-1.979,2.182,1.303,5.278,3.33,3.138
					c1.42-1.501,2.772-3.091,3.91-4.82C60.727,2.805,57.149,0.177,55.561,2.283z"/>
			</g>
			<g>
				<path fill="#FFFFFF" d="M66.155,4.749c-1.44,1.207-2.853,2.407-4.399,3.481c-2.42,1.681,0.082,5.435,2.537,3.807
					c1.724-1.142,3.397-2.389,4.895-3.818C71.073,6.42,68.176,3.055,66.155,4.749z"/>
			</g>
			<g>
				<path fill="#FFFFFF" d="M75.925,9.534c-1.678,0.853-3.323,1.705-5.071,2.404c-2.736,1.093-1.146,5.313,1.616,4.28
					c1.936-0.725,3.848-1.563,5.627-2.621C80.338,12.27,78.275,8.34,75.925,9.534z"/>
			</g>
			<g>
				<path fill="#FFFFFF" d="M84.364,16.396c-1.824,0.454-3.62,0.914-5.48,1.202c-2.911,0.45-2.311,4.919,0.612,4.534
					c2.048-0.271,4.101-0.657,6.071-1.286C88.051,20.054,86.925,15.761,84.364,16.396z"/>
			</g>
			<g>
				<path fill="#FFFFFF" d="M91.046,24.979c-1.881,0.033-3.732,0.077-5.61-0.061c-2.938-0.216-3.357,4.273-0.423,4.555
					c2.056,0.196,4.144,0.282,6.205,0.114C93.814,29.374,93.683,24.937,91.046,24.979z"/>
			</g>
			<g>
				<path fill="#FFFFFF" d="M95.624,34.848c-1.839-0.392-3.654-0.765-5.452-1.324c-2.814-0.871-4.232,3.409-1.437,4.345
					c1.959,0.653,3.975,1.206,6.021,1.505C97.334,39.75,98.204,35.398,95.624,34.848z"/>
			</g>
			<g>
				<path fill="#FFFFFF" d="M97.866,45.493c-1.702-0.797-3.389-1.568-5.016-2.519c-2.546-1.481-4.892,2.372-2.376,3.91
					c1.762,1.079,3.6,2.07,5.527,2.822C98.43,50.654,100.256,46.609,97.866,45.493z"/>
			</g>
			<g>
				<path fill="#FFFFFF" d="M97.656,56.368c-1.479-1.159-2.949-2.29-4.32-3.578c-2.148-2.019-5.3,1.207-3.195,3.272
					c1.475,1.448,3.043,2.826,4.752,3.993C97.044,61.525,99.733,57.993,97.656,56.368z"/>
			</g>
			<g>
				<path fill="#FFFFFF" d="M95.005,66.918c-1.181-1.461-2.357-2.896-3.403-4.459c-1.639-2.449-5.437-0.015-3.851,2.47
					c1.11,1.742,2.328,3.439,3.73,4.961C93.249,71.805,96.663,68.969,95.005,66.918z"/>
			</g>
			<g>
				<path fill="#FFFFFF" d="M90.05,76.601c-0.823-1.689-1.646-3.351-2.315-5.111c-1.045-2.755-5.292-1.235-4.307,1.542
					c0.691,1.947,1.495,3.874,2.521,5.673C87.237,80.968,91.202,78.973,90.05,76.601z"/>
			</g>
			<g>
				<path fill="#FFFFFF" d="M83.041,84.922c-0.421-1.832-0.85-3.636-1.105-5.502c-0.398-2.919-4.878-2.395-4.543,0.533
					c0.234,2.052,0.585,4.111,1.179,6.094C79.32,88.545,83.632,87.491,83.041,84.922z"/>
			</g>
			<g>
				<path fill="#FFFFFF" d="M74.342,91.451c0.002-1.882-0.012-3.733,0.16-5.609c0.269-2.933-4.215-3.432-4.547-0.502
					c-0.232,2.054-0.354,4.138-0.222,6.203C69.9,94.144,74.34,94.088,74.342,91.451z"/>
			</g>
			<g>
				<path fill="#FFFFFF" d="M64.396,95.858c0.425-1.831,0.831-3.642,1.419-5.43c0.921-2.798-3.335-4.293-4.316-1.514
					c-0.689,1.949-1.276,3.953-1.611,5.997C59.465,97.481,63.802,98.427,64.396,95.858z"/>
			</g>
			<g>
				<path fill="#FFFFFF" d="M53.714,97.913c0.825-1.688,1.628-3.36,2.604-4.972c1.526-2.519-2.284-4.931-3.866-2.444
					c-1.109,1.744-2.133,3.564-2.918,5.479C48.544,98.387,52.558,100.282,53.714,97.913z"/>
			</g>
			<g>
				<path fill="#FFFFFF" d="M42.844,97.514c1.185-1.459,2.341-2.909,3.654-4.258c2.056-2.112-1.116-5.318-3.217-3.252
					c-1.473,1.449-2.879,2.992-4.076,4.682C37.699,96.812,41.183,99.563,42.844,97.514z"/>
			</g>
			<g>
				<path fill="#FFFFFF" d="M32.343,94.68c1.481-1.157,2.935-2.308,4.519-3.327c2.476-1.597,0.108-5.435-2.404-3.894
					c-1.761,1.082-3.479,2.269-5.024,3.645C27.486,92.837,30.263,96.3,32.343,94.68z"/>
			</g>
			<g>
				<path fill="#FFFFFF" d="M22.747,89.553c1.705-0.792,3.379-1.586,5.15-2.224c2.772-0.996,1.33-5.271-1.466-4.333
					c-1.959,0.657-3.9,1.428-5.715,2.421C18.43,86.667,20.355,90.667,22.747,89.553z"/>
			</g>
			<g>
				<path fill="#FFFFFF" d="M14.551,82.401c1.839-0.389,3.649-0.785,5.519-1.008c2.926-0.349,2.48-4.836-0.453-4.552
					c-2.058,0.199-4.122,0.514-6.114,1.073C10.995,78.618,11.97,82.949,14.551,82.401z"/>
			</g>
			<g>
				<path fill="#FFFFFF" d="M8.173,73.591c1.879,0.034,3.734,0.054,5.605,0.259c2.929,0.317,3.505-4.155,0.582-4.539
					c-2.049-0.268-4.131-0.426-6.198-0.33C5.56,69.104,5.537,73.541,8.173,73.591z"/>
			</g>
			<g>
				<path fill="#FFFFFF" d="M3.942,63.568c1.822,0.456,3.625,0.894,5.402,1.515c2.782,0.968,4.349-3.261,1.588-4.291
					c-1.935-0.723-3.929-1.346-5.965-1.717C2.403,58.609,1.383,62.929,3.942,63.568z"/>
			</g>
			<g>
				<path fill="#FFFFFF" d="M2.072,52.854c1.674,0.854,3.332,1.685,4.924,2.688c2.493,1.571,4.971-2.198,2.512-3.823
					c-1.724-1.14-3.526-2.194-5.426-3.014C1.69,47.675-0.277,51.653,2.072,52.854z"/>
			</g>
			<g>
				<path fill="#FFFFFF" d="M2.662,41.991c1.438,1.21,2.866,2.392,4.193,3.729c2.074,2.09,5.337-1.023,3.307-3.161
					c-1.423-1.498-2.942-2.932-4.609-4.158C3.454,36.86,0.643,40.294,2.662,41.991z"/>
			</g>
			<g>
				<path fill="#FFFFFF" d="M5.679,31.541c1.13,1.501,2.255,2.975,3.247,4.576c1.552,2.504,5.432,0.205,3.935-2.336
					c-1.05-1.779-2.208-3.518-3.557-5.086C7.605,26.717,4.094,29.433,5.679,31.541z"/>
			</g>
			<g>
				<path fill="#FFFFFF" d="M10.97,22.035c0.763,1.718,1.529,3.408,2.136,5.189c0.949,2.79,5.245,1.421,4.357-1.391
					c-0.622-1.969-1.359-3.924-2.321-5.755C13.932,17.771,9.899,19.626,10.97,22.035z"/>
			</g>
			<g>
				<path fill="#FFFFFF" d="M18.264,13.965c0.357,1.846,0.724,3.664,0.913,5.537c0.298,2.931,4.792,2.563,4.56-0.375
					c-0.163-2.06-0.441-4.129-0.966-6.131C22.109,10.477,17.763,11.377,18.264,13.965z"/>
			</g>
			<g>
				<path fill="#FFFFFF" d="M27.186,7.743c-0.067,1.878-0.119,3.732-0.356,5.6c-0.369,2.923,4.092,3.576,4.528,0.661
					c0.304-2.044,0.498-4.123,0.437-6.191C31.718,5.208,27.281,5.106,27.186,7.743z"/>
			</g>
			<g>
				<path fill="#FFFFFF" d="M37.28,3.687c-0.489,1.816-0.958,3.609-1.607,5.376c-1.018,2.766,3.183,4.406,4.263,1.662
					c0.755-1.923,1.413-3.905,1.819-5.934C42.266,2.236,37.964,1.139,37.28,3.687z"/>
			</g>
		</g>
	</g>
	<g>
		<path fill="#FFFFFF" d="M49.157,44.798v1.134H31.538v-1.134h8.075v-1.134h-6.452v-1.017h6.452v-1.075h-5.885v-4.869h13.434v4.869
			h-6.159v1.075h6.569v1.017h-6.569v1.134H49.157z M49.06,35.823H31.655v-1.115H49.06V35.823z M46.576,33.906H34.081v-4.732h12.495
			V33.906z M35.078,38.697h4.535v-1.096h-4.535V38.697z M39.613,40.672v-1.115h-4.535v1.115H39.613z M45.148,30.054h-9.68v1.056
			h9.68V30.054z M45.148,31.951h-9.68v1.076h9.68V31.951z M45.734,37.602h-4.731v1.096h4.731V37.602z M45.734,39.558h-4.731v1.115
			h4.731V39.558z"/>
		<path fill="#FFFFFF" d="M68.458,35.764c-0.938,1.311-2.014,2.522-3.226,3.618v4.947c0,1.017-0.234,1.505-0.939,1.74
			c-0.724,0.254-1.994,0.293-3.989,0.293c-0.059-0.43-0.294-1.114-0.528-1.525c1.525,0.059,3.012,0.04,3.441,0.04
			c0.412-0.04,0.548-0.157,0.548-0.567v-3.716c-3.324,2.562-7.352,4.4-11.654,5.632c-0.214-0.333-0.684-0.978-0.978-1.31
			c4.048-1.037,7.802-2.64,10.873-4.811c-3.716,0.333-7.373,0.626-10.052,0.841l-0.156-1.33c0.743-0.04,1.563-0.098,2.483-0.176
			v-8.975h3.95c0.332-0.646,0.665-1.408,0.86-1.956l1.721,0.274c-0.293,0.567-0.626,1.173-0.958,1.682h5.378v6.883
			c0.684-0.704,1.31-1.466,1.857-2.268L68.458,35.764z M55.729,31.756v1.818h8.036v-1.818H55.729z M55.729,36.39h8.036v-1.702
			h-8.036V36.39z M55.729,39.342c2.463-0.176,5.299-0.391,8.036-0.606v-1.231h-8.036V39.342z"/>
		<path fill="#FFFFFF" d="M38.147,66.317c-0.469-0.783-1.661-2.366-2.522-3.5c-0.449,2.17-1.407,4.281-3.246,5.925
			c-0.195-0.294-0.665-0.763-1.018-1.017c2.387-1.937,3.071-4.889,3.267-7.51h-3.148v-1.33h3.207c0.02-0.43,0.02-0.859,0.02-1.251
			v-1.936H31.89v-1.31h2.816v-3.032h1.368v3.032h2.719v1.31h-2.719v1.936c0,0.392,0,0.821-0.019,1.251h3.109v1.33h-3.168
			c-0.04,0.353-0.078,0.724-0.117,1.096c0.762,0.82,2.815,3.305,3.265,3.93L38.147,66.317z M47.671,67.373
			c0.353,0,0.45-0.196,0.488-1.564c0.255,0.215,0.821,0.431,1.213,0.528c-0.137,1.838-0.528,2.327-1.565,2.327h-1.622
			c-1.329,0-1.643-0.392-1.643-1.761v-4.185h-1.407c-0.372,2.953-1.389,5.084-4.674,6.277c-0.157-0.332-0.528-0.86-0.822-1.095
			c2.954-0.979,3.795-2.777,4.107-5.183h-1.857V51.905h8.33v10.813h-2.328v4.185c0,0.411,0.06,0.47,0.47,0.47H47.671z
			 M41.237,55.132h5.573v-1.897h-5.573V55.132z M41.237,58.28h5.573v-1.937h-5.573V58.28z M41.237,61.409h5.573v-1.936h-5.573
			V61.409z"/>
		<path fill="#FFFFFF" d="M50.977,67.354c2.718-0.117,7.059-0.313,11.204-0.509l-0.039,1.115c-4.027,0.215-8.291,0.449-11.048,0.567
			L50.977,67.354z M61.008,54.291h1.212v0.998h-1.212v1.975h-3.832v0.88h4.105v0.919h-4.105v0.9h4.927v1.016H51.113v-1.016h4.732
			v-0.9h-3.813v-0.919h3.813v-0.88h-3.677v-0.92h3.677v-1.055h-4.85v-0.998h4.85v-0.959h-3.599v-0.918h3.599v-1.252h1.33v1.252
			h3.832V54.291z M60.989,61.819v4.303h-8.703v-4.303H60.989z M53.479,63.56h2.521v-0.938h-2.521V63.56z M53.479,65.3h2.521v-0.938
			h-2.521V65.3z M57.176,54.291h2.562v-0.959h-2.562V54.291z M59.737,55.289h-2.562v1.055h2.562V55.289z M59.756,62.621h-2.503
			v0.938h2.503V62.621z M59.756,64.361h-2.503V65.3h2.503V64.361z M64.273,64.245h-1.33V53.49h1.33V64.245z M68.009,51.533v15.644
			c0,0.9-0.216,1.312-0.783,1.565c-0.547,0.215-1.467,0.254-3.03,0.254c-0.039-0.371-0.255-1.017-0.449-1.408
			c1.134,0.039,2.15,0.039,2.425,0.02c0.332-0.02,0.469-0.116,0.469-0.431V51.533H68.009z"/>
	</g>
</g>
</svg>
