<?xml version="1.0" encoding="utf-8"?>
<!-- Generator: Adobe Illustrator 16.0.0, SVG Export Plug-In . SVG Version: 6.00 Build 0)  -->
<!DOCTYPE svg PUBLIC "-//W3C//DTD SVG 1.1//EN" "http://www.w3.org/Graphics/SVG/1.1/DTD/svg11.dtd">
<svg version="1.1" id="圖層_1" xmlns="http://www.w3.org/2000/svg" xmlns:xlink="http://www.w3.org/1999/xlink" x="0px" y="0px"
	 width="215px" height="215px" viewBox="0 0 215 215" enable-background="new 0 0 215 215" xml:space="preserve">
<g>
	<g>
		<path fill="#FFFFFF" d="M160.076,89.39c3.927,0.355,7.691-1.861,9.652-5.178c0.581-0.986-0.954-1.883-1.536-0.898
			c-1.665,2.824-4.797,4.6-8.116,4.299C158.937,87.509,158.944,89.288,160.076,89.39"/>
	</g>
	<g>
		<g opacity="0.5">
			<g>
				<defs>
					<rect id="SVGID_1_" x="4.329" y="4.335" width="206.34" height="206.339"/>
				</defs>
				<clipPath id="SVGID_2_">
					<use xlink:href="#SVGID_1_"  overflow="visible"/>
				</clipPath>
				<g clip-path="url(#SVGID_2_)">
					<path fill="#FFFFFF" d="M107.499,210.671c-56.887,0-103.168-46.281-103.168-103.17c0-56.887,46.281-103.168,103.168-103.168
						c56.888,0,103.17,46.281,103.17,103.168C210.669,164.39,164.387,210.671,107.499,210.671z M107.499,11.563
						c-52.9,0-95.938,43.038-95.938,95.938c0,52.903,43.037,95.94,95.938,95.94c52.901,0,95.939-43.037,95.939-95.94
						C203.438,54.601,160.4,11.563,107.499,11.563z"/>
				</g>
			</g>
		</g>
		<g opacity="0.8">
			<g>
				<defs>
					<rect id="SVGID_3_" x="0.987" y="0.986" width="213.025" height="213.029"/>
				</defs>
				<clipPath id="SVGID_4_">
					<use xlink:href="#SVGID_3_"  overflow="visible"/>
				</clipPath>
				<g clip-path="url(#SVGID_4_)">
					<path fill="#FFFFFF" d="M107.499,214.017c-58.731,0-106.513-47.783-106.513-106.516c0-58.73,47.781-106.512,106.513-106.512
						S214.013,48.77,214.013,107.5C214.013,166.233,166.23,214.017,107.499,214.017z M107.499,3.948
						C50.399,3.948,3.945,50.401,3.945,107.5c0,57.102,46.454,103.557,103.554,103.557c57.101,0,103.555-46.455,103.555-103.557
						C211.054,50.401,164.6,3.948,107.499,3.948z"/>
				</g>
			</g>
		</g>
		<g>
			<g>
				<path fill="#FFFFFF" d="M148.603,57.938c-3.291-3.049-15.572-7.613-23.473-7.623c-10.178-0.013-15.797,1.614-15.797,1.614
					l-5.332-2.564l-11.211-5.39l0.938,12.402l0.234,3.111c-4.39,3.48-7.724,7.762-9.595,12.537h-6.119
					c-1.578,0-2.857,1.279-2.857,2.857v12.168c0,1.578,1.279,2.857,2.857,2.857h6.119c2.16,5.514,6.268,10.367,11.701,14.088v9.322
					c0,1.578,1.278,2.855,2.858,2.855h8.815c1.576,0,2.855-1.277,2.855-2.855v-2.98c3.711,0.887,7.651,1.367,11.737,1.367
					c4.087,0,8.026-0.48,11.737-1.367v2.98c0,1.578,1.277,2.855,2.855,2.855h8.816c1.579,0,2.857-1.277,2.857-2.855v-9.322
					c8.223-5.631,13.412-13.859,13.412-23.029S156.825,63.57,148.603,57.938 M94.951,73.144c-1.542,0-2.794-1.251-2.794-2.794
					c0-1.544,1.252-2.795,2.794-2.795c1.543,0,2.795,1.251,2.795,2.795C97.746,71.893,96.494,73.144,94.951,73.144"/>
			</g>
			<g>
				<path fill="#FFFFFF" d="M75.388,100.589c-0.049-0.809-1.011-1.443-2.941-1.926c0.065-0.143,0.103-0.289,0.103-0.443v-3.314
					h-0.007c-0.172-2.762-11.488-2.846-12.785-2.846c-1.302,0-12.618,0.084-12.789,2.846H46.96v3.314
					c0.002,0.9,1.164,1.605,2.893,2.131c-0.022,0.078-0.037,0.158-0.041,0.238h-0.008v3.313c-1.862,0.48-2.793,1.105-2.838,1.9
					H46.96v3.318c0.002,0.627,0.566,1.158,1.493,1.602c-0.034,0.096-0.059,0.195-0.065,0.293H48.38v3.32
					c0.006,1.574,3.555,2.553,7.498,3.01c0.027,0.006,0.055,0.018,0.085,0.018c0.011,0,0.017-0.006,0.026-0.006
					c0.76,0.086,1.533,0.152,2.297,0.199c0.016,0.004,0.03,0.01,0.047,0.01c0,0,0.016-0.004,0.025-0.004
					c0.969,0.057,1.925,0.088,2.818,0.088c0.893,0,1.849-0.031,2.818-0.088c0.008,0,0.016,0.004,0.024,0.004
					c0.017,0,0.03-0.01,0.048-0.01c0.762-0.047,1.535-0.113,2.297-0.199c0,0,0.016,0.004,0.025,0.004
					c0.029,0,0.059-0.012,0.085-0.016c3.942-0.459,7.492-1.438,7.497-3.014v-3.316h-0.009c-0.033-0.58-0.528-1.064-1.507-1.471
					c0.06-0.137,0.093-0.277,0.093-0.426v-3.098c1.7-0.523,2.841-1.223,2.843-2.115v-3.316H75.388z M71.549,109.274l-0.159,0.141
					c-0.25,0.219-0.664,0.439-1.211,0.652v-2.258c0.564-0.197,1.044-0.414,1.424-0.652v1.961
					C71.603,109.167,71.584,109.218,71.549,109.274 M60.952,111.474c-0.069,0.002-0.139,0.002-0.208,0.004
					c-0.169,0.006-0.343,0.006-0.515,0.008v-2.367c0.13-0.002,0.26-0.006,0.391-0.008l0.076-0.002
					c0.477-0.006,0.955-0.021,1.429-0.043v2.363c-0.103,0.008-0.204,0.012-0.306,0.018
					C61.532,111.458,61.246,111.466,60.952,111.474 M58.884,111.479c-0.218-0.004-0.436-0.008-0.648-0.016l-0.081-0.002
					c-0.257-0.008-0.514-0.018-0.767-0.033v-2.363c0.473,0.023,0.949,0.037,1.426,0.045h0.077c0.129,0.002,0.259,0.006,0.391,0.008
					v2.367c-0.092,0-0.186,0-0.276-0.002C58.965,111.483,58.923,111.479,58.884,111.479 M50.322,110.399
					c-0.015-0.004-0.03-0.008-0.044-0.014v-2.288c0.442,0.119,0.919,0.229,1.421,0.329v2.311c-0.435-0.092-0.836-0.189-1.201-0.289
					C50.44,110.433,50.38,110.417,50.322,110.399 M60.312,114.323c0.132,0.002,0.261,0.006,0.391,0.008v2.367
					c-0.654-0.004-1.287-0.023-1.896-0.053v-2.367c0.475,0.023,0.95,0.037,1.431,0.045H60.312z M62.116,114.323
					c0.479-0.008,0.955-0.025,1.43-0.045v2.363c-0.609,0.031-1.24,0.053-1.895,0.057v-2.369c0.129,0,0.259-0.004,0.39-0.006H62.116z
					 M65.915,114.11v2.352c-0.456,0.049-0.93,0.092-1.42,0.125v-2.363C64.974,114.19,65.447,114.153,65.915,114.11 M66.863,114.007
					c0.489-0.061,0.963-0.127,1.421-0.201v2.328c-0.446,0.078-0.921,0.15-1.421,0.217V114.007z M69.233,113.638
					c0.502-0.1,0.979-0.209,1.42-0.326v2.287c-0.421,0.123-0.897,0.242-1.42,0.352V113.638z M53.12,113.638v2.313
					c-0.523-0.109-1-0.229-1.421-0.352v-2.287C52.142,113.429,52.618,113.54,53.12,113.638 M54.069,113.806
					c0.457,0.078,0.931,0.143,1.42,0.201v2.344c-0.5-0.066-0.975-0.139-1.42-0.217V113.806z M56.437,114.11
					c0.469,0.043,0.943,0.08,1.422,0.115v2.361c-0.491-0.033-0.965-0.076-1.422-0.125V114.11z M55.263,111.274
					c-0.049-0.004-0.098-0.01-0.145-0.014c-0.034-0.004-0.068-0.008-0.101-0.012v-2.354c0.465,0.047,0.938,0.084,1.419,0.115v2.363
					C56.04,111.345,55.647,111.312,55.263,111.274 M54.069,108.794v2.344c-0.502-0.066-0.975-0.139-1.422-0.217v-2.328
					C53.105,108.669,53.579,108.735,54.069,108.794 M63.388,111.351c-0.104,0.008-0.21,0.016-0.316,0.023v-2.363
					c0.482-0.031,0.955-0.068,1.424-0.115v2.354c-0.295,0.029-0.593,0.061-0.9,0.086C63.524,111.339,63.455,111.349,63.388,111.351
					 M65.44,111.138v-2.344c0.488-0.059,0.963-0.125,1.423-0.201v2.328C66.417,110.999,65.942,111.073,65.44,111.138 M67.81,108.425
					c0.505-0.098,0.979-0.209,1.424-0.327v2.288c-0.424,0.123-0.898,0.24-1.424,0.352V108.425z M61.331,106.261
					c-0.356-0.01-0.705-0.023-1.048-0.039c-0.019-0.002-0.037-0.002-0.056-0.002v-2.367c0.477,0.021,0.953,0.037,1.43,0.045
					c0.025,0,0.051,0,0.074,0.004c0.132,0.002,0.262,0.002,0.391,0.004v2.367c-0.229-0.002-0.462-0.006-0.688-0.01
					C61.4,106.261,61.366,106.261,61.331,106.261 M50.278,99.489V97.2c0.442,0.117,0.919,0.227,1.421,0.326v2.313
					c-0.059-0.014-0.118-0.023-0.176-0.035c-0.253-0.057-0.498-0.113-0.733-0.178C50.611,99.583,50.44,99.534,50.278,99.489
					 M58.891,98.214c0.129,0.002,0.259,0.004,0.391,0.004v2.367c-0.638-0.008-1.272-0.023-1.894-0.053v-2.365
					c0.473,0.021,0.949,0.037,1.426,0.047H58.891z M60.696,98.212c0.477-0.01,0.952-0.023,1.429-0.045v2.363
					c-0.081,0.004-0.159,0.008-0.241,0.014c-0.004,0-0.011,0-0.019,0.002c-0.319,0.014-0.642,0.023-0.972,0.029
					c-0.051,0.002-0.102,0.002-0.152,0.006c-0.169,0.002-0.342,0.004-0.514,0.004v-2.367c0.132,0,0.262-0.002,0.392-0.004
					L60.696,98.212z M71.494,98.45l-0.015-0.004l-0.173,0.135c-0.251,0.193-0.634,0.391-1.128,0.584v-2.256
					c0.564-0.195,1.044-0.412,1.424-0.65v1.959C71.603,98.29,71.563,98.368,71.494,98.45 M65.44,100.235v-2.342
					c0.488-0.057,0.963-0.123,1.423-0.199v2.324C66.412,100.097,65.94,100.171,65.44,100.235 M67.81,99.835v-2.309
					c0.505-0.1,0.979-0.209,1.424-0.326v2.283C68.808,99.606,68.328,99.724,67.81,99.835 M64.495,97.999v2.35
					c-0.459,0.047-0.934,0.09-1.424,0.125v-2.359C63.554,98.081,64.026,98.042,64.495,97.999 M55.018,100.349v-2.35
					c0.465,0.043,0.938,0.082,1.419,0.115v2.357C55.956,100.438,55.479,100.397,55.018,100.349 M54.069,97.894v2.342
					c-0.096-0.012-0.193-0.021-0.285-0.035c-0.061-0.006-0.119-0.016-0.178-0.025c-0.273-0.039-0.542-0.08-0.804-0.123
					c-0.054-0.01-0.104-0.02-0.155-0.029v-2.328C53.105,97.771,53.579,97.837,54.069,97.894 M59.163,106.153
					c-0.064-0.006-0.127-0.012-0.191-0.016c-0.303-0.021-0.6-0.047-0.89-0.078c-0.062-0.004-0.124-0.012-0.185-0.018
					c-0.015,0-0.025-0.004-0.039-0.006v-2.354c0.468,0.047,0.941,0.084,1.423,0.115v2.363
					C59.242,106.159,59.203,106.157,59.163,106.153 M56.032,105.8c-0.187-0.029-0.363-0.063-0.543-0.094v-2.324
					c0.46,0.074,0.935,0.143,1.423,0.199v2.344c-0.291-0.037-0.574-0.078-0.847-0.119C56.054,105.802,56.044,105.8,56.032,105.8
					 M54.542,103.214v2.309c-0.524-0.113-0.999-0.234-1.422-0.355v-2.283C53.563,103.005,54.038,103.114,54.542,103.214
					 M52.173,102.597v2.25c-0.745-0.287-1.227-0.58-1.381-0.842l-0.033-0.055c-0.002-0.014-0.006-0.029-0.009-0.045v-1.961
					C51.13,102.183,51.609,102.397,52.173,102.597 M63.539,103.897c0.477-0.008,0.953-0.023,1.427-0.045v2.363
					c-0.621,0.031-1.254,0.047-1.895,0.055v-2.365c0.132-0.002,0.262-0.002,0.391-0.004L63.539,103.897z M69.661,105.718
					c-0.209,0.033-0.417,0.07-0.632,0.104c-0.126,0.018-0.251,0.037-0.378,0.055c-0.119,0.018-0.244,0.031-0.367,0.047v-2.342
					c0.488-0.057,0.963-0.125,1.422-0.199v2.326C69.69,105.71,69.677,105.714,69.661,105.718 M66.454,106.122
					c-0.178,0.014-0.361,0.023-0.539,0.037v-2.361c0.48-0.031,0.956-0.068,1.421-0.115v2.352c-0.275,0.029-0.548,0.057-0.833,0.084
					C66.486,106.118,66.471,106.12,66.454,106.122 M71.868,105.233c-0.235,0.066-0.486,0.127-0.74,0.188
					c-0.118,0.027-0.238,0.055-0.361,0.08c-0.037,0.008-0.075,0.018-0.113,0.023v-2.311c0.504-0.1,0.979-0.209,1.424-0.33v2.293
					C72.007,105.194,71.938,105.212,71.868,105.233 M74.439,100.622c-0.044,0.32-0.772,0.75-2.073,1.152
					c-1.678,0.516-4.302,0.99-7.627,1.139c-0.169,0.006-0.34,0.014-0.511,0.02c-0.144,0.006-0.285,0.008-0.431,0.012
					c-0.391,0.01-0.789,0.014-1.2,0.014c-0.41,0-0.808-0.004-1.201-0.014c-0.144-0.004-0.285-0.008-0.429-0.014
					c-0.174-0.004-0.342-0.012-0.514-0.018c-3.322-0.148-5.946-0.623-7.624-1.141c-1.291-0.398-2.018-0.824-2.073-1.143
					c0.002-0.01,0.002-0.018,0.01-0.027c0.032,0.006,0.067,0.012,0.1,0.021c0.185,0.045,0.377,0.086,0.569,0.129
					c0.942,0.201,1.985,0.367,3.096,0.494c0.005,0,0.007,0.002,0.007,0.002h0.007c0.757,0.086,1.544,0.152,2.349,0.201l0.019,0.004
					c0.003,0,0.005,0,0.005,0c0.585,0.031,1.172,0.057,1.768,0.072c0.363,0.008,0.722,0.012,1.072,0.012
					c0.246,0,0.501-0.002,0.76-0.008c3.443-0.053,6.635-0.463,8.853-1.096c0.104-0.029,0.204-0.061,0.301-0.09
					c0.062-0.02,0.123-0.035,0.181-0.053c0.172-0.057,0.335-0.115,0.496-0.172c0.027-0.01,0.053-0.021,0.08-0.029
					c0.135-0.053,0.265-0.105,0.387-0.158c0.035-0.018,0.071-0.033,0.105-0.047c0.133-0.061,0.26-0.119,0.377-0.182
					c0.052-0.029,0.099-0.059,0.149-0.086c0.056-0.033,0.113-0.066,0.166-0.1c0.03-0.02,0.065-0.037,0.093-0.057
					C73.826,99.921,74.386,100.425,74.439,100.622 M59.757,93.011c7.813,0,11.764,1.229,11.839,1.934
					c-0.059,0.322-0.787,0.744-2.073,1.143c-1.678,0.52-4.302,0.992-7.624,1.139c-0.172,0.006-0.341,0.014-0.515,0.02
					c-0.143,0.006-0.284,0.01-0.428,0.014c-0.393,0.008-0.791,0.016-1.199,0.016c-0.412,0-0.811-0.008-1.202-0.016
					c-0.146-0.004-0.287-0.008-0.43-0.014c-0.174-0.006-0.343-0.014-0.512-0.02c-3.325-0.146-5.95-0.619-7.628-1.139
					c-1.285-0.398-2.014-0.82-2.07-1.143C47.989,94.239,51.942,93.011,59.757,93.011 M47.909,98.22v-1.961
					c0.377,0.238,0.855,0.455,1.42,0.65v2.27C48.409,98.833,47.909,98.485,47.909,98.22 M50.204,104.778
					c0.007,0.006,0.018,0.014,0.025,0.02c0.648,0.654,1.99,1.172,3.663,1.555c0.04,0.008,0.079,0.018,0.118,0.025
					c0.121,0.027,0.247,0.057,0.374,0.082c1.535,0.326,3.37,0.563,5.366,0.68h0.003h0.003c0.643,0.037,1.297,0.062,1.969,0.074
					c0.295,0.008,0.587,0.012,0.872,0.012c0.327,0,0.664-0.004,1.004-0.014c0.62-0.012,1.23-0.037,1.833-0.072h0.006
					c0.005,0,0.007-0.002,0.007-0.002c2.009-0.117,3.888-0.355,5.478-0.699c-0.346,0.178-0.816,0.367-1.402,0.547
					c-1.77,0.548-4.598,1.044-8.189,1.16c-0.105,0.004-0.213,0.008-0.321,0.01c-0.116,0.002-0.233,0.006-0.352,0.008
					c-0.298,0.004-0.597,0.01-0.903,0.01c-0.412,0-0.811-0.006-1.202-0.016c-0.146-0.004-0.287-0.008-0.43-0.014
					c-0.174-0.004-0.343-0.012-0.512-0.018c-3.325-0.148-5.95-0.623-7.628-1.14c-1.302-0.402-2.029-0.832-2.072-1.152
					C47.966,105.655,48.445,105.208,50.204,104.778 M47.909,109.118v-1.961c0.377,0.238,0.855,0.455,1.42,0.652v2.258l-0.27-0.104
					l-0.005,0.004C48.31,109.659,47.909,109.356,47.909,109.118 M49.329,114.331v-1.963c0.381,0.238,0.859,0.457,1.421,0.652v2.268
					C49.83,114.944,49.329,114.597,49.329,114.331 M71.603,115.288v-2.268c0.563-0.195,1.041-0.414,1.42-0.652v1.961
					C73.022,114.597,72.523,114.944,71.603,115.288 M73.017,111.052c-0.051,0.32-0.781,0.746-2.074,1.146
					c-1.674,0.518-4.299,0.992-7.623,1.141c-0.172,0.008-0.341,0.014-0.514,0.018c-0.142,0.006-0.285,0.01-0.428,0.016
					c-0.395,0.006-0.791,0.014-1.201,0.014s-0.81-0.008-1.201-0.016c-0.144-0.004-0.285-0.008-0.426-0.014
					c-0.174-0.006-0.345-0.012-0.516-0.02c-3.325-0.146-5.949-0.621-7.625-1.139c-1.253-0.387-1.978-0.799-2.067-1.115
					c0.141,0.049,0.286,0.098,0.437,0.143c0.016,0.006,0.031,0.01,0.047,0.014c0.127,0.039,0.259,0.076,0.394,0.113
					c0.051,0.014,0.102,0.031,0.151,0.043c0.078,0.021,0.154,0.041,0.231,0.061c1.728,0.441,3.93,0.756,6.308,0.896h0.003
					c0.736,0.043,1.485,0.07,2.245,0.08c0.201,0.004,0.402,0.004,0.6,0.004c0.258,0,0.526-0.002,0.797-0.008
					c0.692-0.01,1.375-0.037,2.041-0.076h0.004h0.006c0.812-0.051,1.599-0.119,2.355-0.205h0.009c0.009,0,0.019-0.006,0.028-0.006
					c0.842-0.096,1.641-0.217,2.38-0.355c0.153-0.027,0.304-0.057,0.452-0.086c0.034-0.006,0.066-0.014,0.099-0.021
					c1.4-0.285,2.61-0.658,3.442-1.119c0.045-0.025,0.088-0.051,0.131-0.076c0.053-0.029,0.104-0.063,0.152-0.096
					c0.046-0.029,0.098-0.057,0.139-0.088C72.729,110.634,72.985,110.933,73.017,111.052 M73.022,104.862v-2.266
					c0.564-0.199,1.045-0.414,1.421-0.652v1.961C74.443,104.171,73.944,104.519,73.022,104.862"/>
			</g>
		</g>
		<g>
			<path fill="#FFFFFF" d="M63.446,138.032c-0.719,2.557-1.655,5.148-2.699,7.596v24.369h-2.304V150.38
				c-0.899,1.584-1.8,3.023-2.735,4.283c-0.217-0.611-0.936-2.053-1.404-2.699c2.844-3.637,5.291-9.107,6.84-14.578L63.446,138.032z
				 M73.021,145.808h-9.898v-2.16h9.898V145.808z M63.807,158.298h8.892v10.764h-2.232v-1.549h-4.5v2.125h-2.159V158.298z
				 M72.338,150.56h-8.099v-2.16h8.099V150.56z M64.239,153.224h8.099v2.158h-8.099V153.224z M68.126,142.892
				c-0.432-1.15-1.476-2.879-2.483-4.104l1.655-1.043c1.008,1.225,2.16,2.844,2.557,3.924L68.126,142.892z M65.966,160.458v4.932
				h4.5v-4.932H65.966z M81.589,150.595c-0.9,1.26-1.872,2.484-2.88,3.6h7.919v15.514h-2.412v-1.295h-5.65v1.584h-2.34v-13.355
				c-0.864,0.758-1.764,1.441-2.7,2.125c-0.323-0.504-1.151-1.477-1.655-1.943c2.592-1.656,4.822-3.779,6.803-6.229H73.13v-2.268
				h4.283v-4.715h-3.6v-2.232h3.6v-4.031h2.304v4.031h3.275v2.232h-3.275v4.715H80.4c1.979-2.951,3.563-6.299,4.788-9.934
				l2.268,0.504c-1.152,3.418-2.628,6.623-4.355,9.43h4.751v2.268H81.589z M84.216,156.462h-5.65v3.672h5.65V156.462z
				 M84.216,166.146v-3.816h-5.65v3.816H84.216z"/>
			<path fill="#FFFFFF" d="M98.979,141.597h-7.596v-2.123h7.596v-2.305h2.591v2.305h4.607v2.123h-4.607v2.375h-2.591V141.597z
				 M107.474,142.64c0.648,0.9,1.332,2.088,1.691,2.953h13.751v2.195H106.79c-1.764,1.08-3.564,1.943-5.328,2.699l7.848-0.396
				c1.08-0.504,2.16-1.008,3.168-1.512l2.592,1.152c-4.428,2.195-8.819,3.852-13.031,5.146l13.787-0.574
				c-1.008-0.793-1.98-1.549-2.952-2.197l1.907-1.08c2.664,1.693,5.58,4.141,6.984,5.797l-1.98,1.26
				c-0.468-0.613-1.224-1.369-2.016-2.125c-20.266,0.973-22.209,1.045-23.577,1.477c-0.108-0.469-0.396-1.477-0.685-2.088
				c1.117-0.072,2.629-0.432,4.572-0.973c1.188-0.322,3.743-1.188,6.695-2.34c-6.912,0.361-7.991,0.506-8.639,0.758
				c-0.108-0.434-0.469-1.441-0.756-1.945c0.684-0.072,1.439-0.252,2.375-0.611c0.792-0.287,3.096-1.225,5.219-2.447H91.995v-2.195
				h14.219c-0.359-0.756-0.828-1.656-1.26-2.377L107.474,142.64z M94.839,158.298h25.27v11.662h-2.699v-1.008H97.467v1.008h-2.628
				V158.298z M97.467,160.206v2.447h8.64v-2.447H97.467z M106.106,167.081v-2.736h-8.64v2.736H106.106z M123.06,139.474v2.086
				h-6.982v2.412h-2.628v-2.412h-5.184v-2.086h5.184v-2.305h2.628v2.305H123.06z M117.409,160.206h-8.855v2.447h8.855V160.206z
				 M117.409,167.081v-2.736h-8.855v2.736H117.409z"/>
			<path fill="#FFFFFF" d="M137.858,139.509c-1.008,2.916-2.231,6.479-3.383,9.359c2.447,2.951,3.023,5.543,3.023,7.738
				c0,1.943-0.396,3.492-1.332,4.211c-0.469,0.361-1.116,0.576-1.801,0.684c-0.684,0.072-1.547,0.072-2.268,0.037
				c-0.035-0.684-0.252-1.691-0.684-2.375c0.828,0.07,1.439,0.07,2.016,0.035c0.396,0,0.793-0.107,1.045-0.324
				c0.504-0.396,0.719-1.367,0.719-2.484c0-1.943-0.611-4.426-2.987-7.27c0.972-2.557,1.979-5.688,2.628-8.1h-4.283v28.904h-2.305
				v-31.316h7.56l0.396-0.145L137.858,139.509z M144.338,159.954c-0.288,0.9-0.647,1.836-1.044,2.664
				c1.512,0.936,3.203,2.23,4.031,3.131l-1.404,1.801c-0.756-0.9-2.268-2.088-3.635-3.133c-1.439,2.34-3.313,4.283-5.399,5.725
				c-0.36-0.469-1.26-1.332-1.836-1.764c3.312-1.945,5.724-5.041,6.875-8.928L144.338,159.954z M142.61,145.304
				c-1.225,0.936-2.52,1.764-3.852,2.52c-0.396-0.504-1.225-1.367-1.801-1.764c4.32-2.268,8.207-5.83,10.223-9.178l2.592,0.826
				c-0.252,0.396-0.504,0.793-0.791,1.189c2.699,2.52,7.199,4.967,10.87,6.262c-0.468,0.648-1.008,1.729-1.224,2.412
				c-3.672-1.584-8.027-4.246-10.979-6.91c-1.439,1.654-3.096,3.203-4.932,4.57h10.619v2.16H142.61V145.304z M138.866,149.983h8.063
				v8.639h-8.063V149.983z M140.918,156.679h3.852v-4.715h-3.852V156.679z M154.345,159.774c-0.217,1.08-0.504,2.16-0.9,3.131
				c2.268,1.439,4.859,3.385,6.191,4.787l-1.584,1.801c-1.224-1.26-3.455-3.096-5.579-4.572c-1.08,2.088-2.556,3.816-4.355,5.111
				c-0.36-0.467-1.224-1.332-1.8-1.764c2.916-1.906,4.823-4.967,5.615-8.854L154.345,159.774z M149.161,149.983h8.207v8.639h-8.207
				V149.983z M151.213,156.679h3.995v-4.715h-3.995V156.679z"/>
		</g>
	</g>
</g>
</svg>
