<?xml version="1.0" encoding="utf-8"?>
<!-- Generator: Adobe Illustrator 16.0.0, SVG Export Plug-In . SVG Version: 6.00 Build 0)  -->
<!DOCTYPE svg PUBLIC "-//W3C//DTD SVG 1.1//EN" "http://www.w3.org/Graphics/SVG/1.1/DTD/svg11.dtd">
<svg version="1.1" id="圖層_1" xmlns="http://www.w3.org/2000/svg" xmlns:xlink="http://www.w3.org/1999/xlink" x="0px" y="0px"
	 width="100px" height="100px" viewBox="0 0 100 100" enable-background="new 0 0 100 100" xml:space="preserve">
<g>
	<g>
		<g>
			<path fill="#FFFFFF" d="M46.345,2.149c-0.766,1.717-1.509,3.416-2.427,5.059c-1.438,2.571,2.453,4.848,3.948,2.308
				c1.049-1.781,2.007-3.635,2.727-5.576C51.497,1.497,47.42-0.259,46.345,2.149z"/>
		</g>
		<g>
			<path fill="#FFFFFF" d="M55.562,2.283c-1.133,1.499-2.238,2.987-3.503,4.382c-1.981,2.182,1.301,5.277,3.328,3.139
				c1.421-1.501,2.773-3.092,3.91-4.821C60.728,2.806,57.15,0.178,55.562,2.283z"/>
		</g>
		<g>
			<path fill="#FFFFFF" d="M66.156,4.749c-1.441,1.207-2.854,2.408-4.399,3.483c-2.42,1.68,0.08,5.434,2.538,3.806
				c1.722-1.142,3.396-2.389,4.893-3.82C71.072,6.42,68.177,3.056,66.156,4.749z"/>
		</g>
		<g>
			<path fill="#FFFFFF" d="M75.924,9.535c-1.676,0.854-3.321,1.706-5.069,2.404c-2.736,1.093-1.146,5.313,1.615,4.279
				c1.936-0.725,3.849-1.563,5.627-2.62C80.339,12.27,78.274,8.34,75.924,9.535z"/>
		</g>
		<g>
			<path fill="#FFFFFF" d="M84.364,16.397c-1.824,0.452-3.619,0.912-5.48,1.201c-2.911,0.449-2.31,4.919,0.613,4.533
				c2.048-0.271,4.101-0.657,6.071-1.286C88.051,20.055,86.924,15.761,84.364,16.397z"/>
		</g>
		<g>
			<path fill="#FFFFFF" d="M91.045,24.979c-1.879,0.033-3.731,0.077-5.61-0.061c-2.938-0.217-3.357,4.273-0.422,4.554
				c2.057,0.197,4.144,0.283,6.205,0.114C93.815,29.375,93.683,24.938,91.045,24.979z"/>
		</g>
		<g>
			<path fill="#FFFFFF" d="M95.625,34.848c-1.838-0.392-3.654-0.764-5.453-1.323c-2.813-0.872-4.231,3.409-1.437,4.344
				c1.96,0.654,3.974,1.206,6.021,1.506C97.335,39.75,98.205,35.399,95.625,34.848z"/>
		</g>
		<g>
			<path fill="#FFFFFF" d="M97.866,45.493c-1.701-0.796-3.388-1.568-5.016-2.517c-2.545-1.482-4.891,2.37-2.376,3.908
				c1.763,1.079,3.601,2.07,5.528,2.822C98.43,50.654,100.256,46.609,97.866,45.493z"/>
		</g>
		<g>
			<path fill="#FFFFFF" d="M97.656,56.368c-1.479-1.159-2.948-2.291-4.32-3.579c-2.148-2.018-5.299,1.208-3.194,3.273
				c1.474,1.447,3.041,2.826,4.75,3.992C97.045,61.524,99.733,57.993,97.656,56.368z"/>
		</g>
		<g>
			<path fill="#FFFFFF" d="M95.005,66.918c-1.181-1.463-2.356-2.895-3.404-4.461c-1.638-2.448-5.436-0.014-3.85,2.472
				c1.111,1.742,2.328,3.438,3.731,4.96C93.249,71.804,96.663,68.967,95.005,66.918z"/>
		</g>
		<g>
			<path fill="#FFFFFF" d="M90.05,76.601c-0.822-1.689-1.647-3.351-2.314-5.112c-1.046-2.753-5.293-1.235-4.307,1.543
				c0.69,1.947,1.494,3.874,2.519,5.672C87.238,80.967,91.203,78.972,90.05,76.601z"/>
		</g>
		<g>
			<path fill="#FFFFFF" d="M83.042,84.92c-0.422-1.831-0.851-3.635-1.105-5.5c-0.399-2.92-4.878-2.396-4.543,0.531
				c0.235,2.053,0.585,4.112,1.179,6.096C79.321,88.543,83.633,87.491,83.042,84.92z"/>
		</g>
		<g>
			<path fill="#FFFFFF" d="M74.342,91.45c0.002-1.88-0.011-3.732,0.161-5.608c0.268-2.935-4.215-3.433-4.546-0.503
				c-0.232,2.055-0.355,4.138-0.223,6.203C69.901,94.143,74.341,94.088,74.342,91.45z"/>
		</g>
		<g>
			<path fill="#FFFFFF" d="M64.397,95.857c0.423-1.832,0.829-3.641,1.417-5.43c0.921-2.798-3.334-4.292-4.316-1.513
				c-0.689,1.949-1.276,3.953-1.611,5.995C59.465,97.48,63.801,98.426,64.397,95.857z"/>
		</g>
		<g>
			<path fill="#FFFFFF" d="M53.715,97.912c0.825-1.688,1.628-3.359,2.604-4.971c1.525-2.52-2.284-4.931-3.866-2.445
				c-1.109,1.744-2.134,3.565-2.919,5.479C48.543,98.386,52.557,100.282,53.715,97.912z"/>
		</g>
		<g>
			<path fill="#FFFFFF" d="M42.844,97.514c1.183-1.46,2.341-2.91,3.654-4.258c2.055-2.112-1.116-5.319-3.218-3.253
				c-1.473,1.449-2.879,2.993-4.075,4.683C37.699,96.811,41.183,99.561,42.844,97.514z"/>
		</g>
		<g>
			<path fill="#FFFFFF" d="M32.342,94.678c1.481-1.156,2.936-2.307,4.519-3.326c2.477-1.596,0.108-5.436-2.403-3.893
				c-1.761,1.081-3.479,2.268-5.025,3.645C27.488,92.837,30.262,96.299,32.342,94.678z"/>
		</g>
		<g>
			<path fill="#FFFFFF" d="M22.748,89.553c1.704-0.792,3.379-1.587,5.15-2.224c2.772-0.998,1.329-5.271-1.466-4.334
				c-1.959,0.656-3.9,1.429-5.716,2.421C18.431,86.667,20.355,90.665,22.748,89.553z"/>
		</g>
		<g>
			<path fill="#FFFFFF" d="M14.55,82.401c1.839-0.389,3.65-0.785,5.52-1.009c2.926-0.348,2.48-4.835-0.454-4.552
				c-2.057,0.199-4.121,0.514-6.114,1.073C10.994,78.617,11.97,82.947,14.55,82.401z"/>
		</g>
		<g>
			<path fill="#FFFFFF" d="M8.173,73.59c1.879,0.035,3.732,0.055,5.604,0.259c2.929,0.317,3.504-4.155,0.582-4.538
				c-2.048-0.269-4.131-0.426-6.197-0.33C5.559,69.104,5.536,73.541,8.173,73.59z"/>
		</g>
		<g>
			<path fill="#FFFFFF" d="M3.942,63.568c1.823,0.456,3.625,0.894,5.403,1.515c2.781,0.968,4.349-3.261,1.587-4.292
				c-1.936-0.722-3.93-1.346-5.964-1.716C2.404,58.609,1.384,62.929,3.942,63.568z"/>
		</g>
		<g>
			<path fill="#FFFFFF" d="M2.072,52.854c1.674,0.854,3.332,1.684,4.925,2.689c2.492,1.57,4.971-2.199,2.511-3.824
				c-1.723-1.139-3.526-2.194-5.426-3.014C1.69,47.675-0.276,51.652,2.072,52.854z"/>
		</g>
		<g>
			<path fill="#FFFFFF" d="M2.662,41.991c1.439,1.21,2.867,2.392,4.194,3.729c2.075,2.091,5.337-1.023,3.307-3.16
				c-1.423-1.499-2.942-2.932-4.61-4.157C3.453,36.86,0.643,40.294,2.662,41.991z"/>
		</g>
		<g>
			<path fill="#FFFFFF" d="M5.68,31.54c1.13,1.502,2.255,2.976,3.247,4.577c1.552,2.505,5.432,0.205,3.935-2.336
				c-1.051-1.778-2.208-3.518-3.557-5.087C7.605,26.717,4.094,29.435,5.68,31.54z"/>
		</g>
		<g>
			<path fill="#FFFFFF" d="M10.97,22.036c0.764,1.718,1.529,3.408,2.135,5.19c0.949,2.789,5.246,1.421,4.358-1.39
				c-0.621-1.97-1.36-3.924-2.32-5.756C13.933,17.772,9.9,19.626,10.97,22.036z"/>
		</g>
		<g>
			<path fill="#FFFFFF" d="M18.265,13.966c0.356,1.845,0.723,3.663,0.913,5.536c0.297,2.931,4.792,2.563,4.559-0.375
				c-0.163-2.06-0.441-4.129-0.966-6.13C22.11,10.477,17.763,11.377,18.265,13.966z"/>
		</g>
		<g>
			<path fill="#FFFFFF" d="M27.186,7.743c-0.066,1.879-0.118,3.732-0.355,5.6c-0.371,2.923,4.092,3.578,4.526,0.662
				c0.305-2.045,0.498-4.123,0.438-6.192C31.717,5.208,27.281,5.107,27.186,7.743z"/>
		</g>
		<g>
			<path fill="#FFFFFF" d="M37.281,3.687c-0.489,1.816-0.957,3.61-1.607,5.376c-1.018,2.765,3.183,4.406,4.262,1.662
				c0.756-1.923,1.413-3.905,1.819-5.934C42.266,2.237,37.965,1.14,37.281,3.687z"/>
		</g>
	</g>
	<g>
		<path fill="#FFFFFF" d="M33.417,41.24c-0.196,1.701-0.567,3.5-0.959,4.712c-0.234-0.137-0.801-0.313-1.075-0.391
			c0.431-1.212,0.724-2.933,0.919-4.498L33.417,41.24z M37.288,35.979c0.509,1.232,1.075,2.796,1.311,3.735l-1.095,0.43
			c-0.059-0.273-0.156-0.606-0.234-0.939c-4.361,0.685-4.948,0.822-5.319,1.017c-0.039-0.293-0.255-0.919-0.411-1.271
			c0.392-0.078,0.821-0.567,1.389-1.31c0.313-0.372,0.919-1.212,1.604-2.288c-2.033,0.234-2.444,0.332-2.698,0.469
			c-0.078-0.273-0.274-0.919-0.411-1.251c0.313-0.078,0.646-0.489,1.036-1.075c0.411-0.587,1.74-2.816,2.503-4.928l1.232,0.528
			c-0.821,1.838-1.877,3.755-2.952,5.241l2.053-0.195c0.488-0.841,1.017-1.779,1.428-2.699l1.134,0.685
			c-1.232,2.307-2.738,4.634-4.282,6.492l3.363-0.47c-0.215-0.625-0.47-1.251-0.685-1.818L37.288,35.979z M35.333,40.985
			c0.274,1.291,0.489,2.973,0.547,4.106l-1.095,0.274c-0.039-1.154-0.254-2.855-0.469-4.185L35.333,40.985z M37.385,40.477
			c0.45,1.212,0.959,2.757,1.154,3.754l-1.017,0.372c-0.196-1.037-0.665-2.601-1.095-3.793L37.385,40.477z M48.805,44.779
			c0,0.802-0.156,1.154-0.665,1.388c-0.469,0.235-1.271,0.254-2.463,0.254c-0.04-0.352-0.216-0.938-0.372-1.291
			c0.821,0.039,1.604,0.02,1.838,0.02c0.254-0.02,0.332-0.098,0.332-0.372V30.778h-7.313v15.663h-1.311V29.487h9.953V44.779z
			 M45.657,41.552c0.313,0,0.861-0.019,1.154-0.098c0.039,0.333,0.078,0.782,0.117,1.076c-0.254,0.078-0.763,0.098-1.251,0.098
			h-2.503c-1.291,0-1.584-0.469-1.584-1.76v-1.897h-0.725v-1.153h2.66c-0.176-0.528-0.489-1.212-0.763-1.721l0.899-0.352h-2.991
			v-1.153h3.715c0.352-0.919,0.743-2.288,0.919-3.227l1.057,0.313c-0.294,0.958-0.646,2.072-0.959,2.914h1.662v1.153H43.78
			c0.333,0.567,0.685,1.33,0.86,1.76l-0.703,0.313h2.894v1.153h-4.028v1.917c0,0.508,0.059,0.665,0.47,0.665H45.657z M42.235,31.325
			c0.489,0.861,0.939,2.014,1.056,2.777l-0.938,0.332c-0.138-0.763-0.548-1.936-1.018-2.796L42.235,31.325z"/>
		<path fill="#FFFFFF" d="M67.462,30.896c-0.626,2.034-1.643,3.754-2.855,5.201c1.213,1.173,2.699,2.21,4.459,2.875
			c-0.294,0.273-0.704,0.841-0.899,1.193c-0.196-0.098-0.411-0.176-0.626-0.274v6.434h-1.389v-0.646h-4.889v0.704h-1.349v-6.511
			c-0.392,0.195-0.782,0.371-1.174,0.547c-0.137-0.293-0.43-0.684-0.704-0.978h-2.053v3.5c0.841-0.196,1.701-0.391,2.562-0.606
			l0.137,1.31c-2.659,0.646-5.436,1.311-7.489,1.819l-0.274-1.408l0.998-0.215v-6.668h1.232v6.414l1.506-0.352v-7.9h-2.738V29.37
			h6.316v5.182c1.544-1.466,2.815-3.656,3.539-6.003l1.389,0.333c-0.196,0.567-0.411,1.134-0.626,1.662h3.773l0.255-0.059
			L67.462,30.896z M53.207,34.063h3.676v-3.422h-3.676V34.063z M58.408,39.088c1.564-0.665,3.108-1.701,4.419-3.05
			c-0.724-0.88-1.311-1.799-1.799-2.679c-0.547,0.86-1.153,1.603-1.779,2.249c-0.215-0.215-0.665-0.625-1.017-0.86v0.586h-2.249
			v2.816h2.425V39.088z M66.621,39.362c-1.096-0.646-2.054-1.466-2.895-2.307c-0.899,0.899-1.896,1.682-2.933,2.307H66.621z
			 M66.151,44.388v-3.754h-4.889v3.754H66.151z M61.928,31.814l-0.195,0.372c0.489,0.958,1.134,1.975,1.936,2.933
			c0.821-0.998,1.506-2.092,1.995-3.305H61.928z"/>
		<path fill="#FFFFFF" d="M35.607,61.662v5.495c0,0.822-0.216,1.213-0.725,1.428c-0.488,0.234-1.31,0.273-2.64,0.273
			c-0.059-0.371-0.273-0.958-0.449-1.349c0.938,0.039,1.779,0.02,2.014,0.02c0.274,0,0.372-0.098,0.372-0.372v-5.045l-2.464,0.724
			l-0.431-1.408c0.802-0.195,1.799-0.469,2.895-0.782v-4.204H31.52v-1.368h2.659v-3.911h1.428v3.911h2.424v1.368h-2.424v3.813
			l1.818-0.528l0.194,1.33L35.607,61.662z M47.867,60.099c-0.782,2.347-2.132,4.185-3.813,5.593
			c1.468,0.919,3.228,1.604,5.183,2.014c-0.333,0.313-0.724,0.919-0.919,1.33c-2.093-0.509-3.95-1.33-5.476-2.445
			c-1.701,1.154-3.676,1.937-5.729,2.465c-0.137-0.411-0.449-1.018-0.724-1.33c1.878-0.41,3.696-1.095,5.28-2.073
			c-1.33-1.231-2.405-2.737-3.188-4.478l0.195-0.078h-0.763v-1.369h8.741l0.273-0.059L47.867,60.099z M41.179,54.037
			c0,1.74-0.528,3.832-2.933,5.221c-0.177-0.293-0.685-0.841-0.939-1.076c2.151-1.192,2.503-2.796,2.503-4.185v-2.15h6.16v4.517
			c0,0.548,0.059,0.743,0.371,0.743h1.506c0.293,0,0.724-0.039,0.978-0.098c0.02,0.371,0.059,0.919,0.118,1.252
			c-0.255,0.078-0.665,0.098-1.057,0.098h-1.643c-1.35,0-1.662-0.567-1.662-2.015v-3.129h-3.402V54.037z M39.888,61.096
			c0.685,1.428,1.722,2.679,2.973,3.734c1.271-1.017,2.347-2.248,3.051-3.734H39.888z"/>
		<path fill="#FFFFFF" d="M56.922,51.612c-0.567,1.427-1.271,2.854-2.053,4.165v13.18H53.48V57.889
			c-0.646,0.899-1.35,1.721-2.034,2.425c-0.156-0.313-0.567-1.075-0.821-1.408c1.936-1.857,3.813-4.752,4.928-7.703L56.922,51.612z
			 M60.422,63.267c-0.919,1.642-2.209,3.539-3.305,4.791c-0.254-0.235-0.821-0.646-1.134-0.841c1.114-1.135,2.327-2.855,3.148-4.361
			L60.422,63.267z M63.238,61.897v7.117h-1.447v-7.117H56.14v-1.33h5.651V58.24h-4.224v-6.179h10.07v6.179h-4.399v2.327h5.533v1.33
			H63.238z M58.936,56.95h7.255v-3.578h-7.255V56.95z M65.447,62.836c1.252,1.388,2.679,3.207,3.384,4.381l-1.174,0.723
			c-0.665-1.192-2.092-3.109-3.324-4.497L65.447,62.836z"/>
	</g>
</g>
</svg>
