<?xml version="1.0" encoding="utf-8"?>
<!-- Generator: Adobe Illustrator 16.0.0, SVG Export Plug-In . SVG Version: 6.00 Build 0)  -->
<!DOCTYPE svg PUBLIC "-//W3C//DTD SVG 1.1//EN" "http://www.w3.org/Graphics/SVG/1.1/DTD/svg11.dtd">
<svg version="1.1" id="圖層_1" xmlns="http://www.w3.org/2000/svg" xmlns:xlink="http://www.w3.org/1999/xlink" x="0px" y="0px"
	 width="215px" height="215px" viewBox="0 0 215 215" enable-background="new 0 0 215 215" xml:space="preserve">
<g>
	<g opacity="0.8">
		<g>
			<defs>
				<rect id="SVGID_1_" x="0.985" y="0.985" width="213.03" height="213.029"/>
			</defs>
			<clipPath id="SVGID_2_">
				<use xlink:href="#SVGID_1_"  overflow="visible"/>
			</clipPath>
			<g clip-path="url(#SVGID_2_)">
				<path fill="#FFFFFF" d="M107.5,214.015c-58.731,0-106.513-47.781-106.513-106.514C0.988,48.77,48.769,0.988,107.5,0.988
					c58.731,0,106.514,47.781,106.514,106.513C214.015,166.233,166.231,214.015,107.5,214.015z M107.5,3.947
					c-57.1,0-103.554,46.454-103.554,103.554c0,57.1,46.454,103.555,103.554,103.555c57.1,0,103.555-46.455,103.555-103.555
					C211.056,50.401,164.601,3.947,107.5,3.947z"/>
			</g>
		</g>
	</g>
	<g opacity="0.5">
		<g>
			<defs>
				<rect id="SVGID_3_" x="4.334" y="4.335" width="206.34" height="206.34"/>
			</defs>
			<clipPath id="SVGID_4_">
				<use xlink:href="#SVGID_3_"  overflow="visible"/>
			</clipPath>
			<g clip-path="url(#SVGID_4_)">
				<path fill="#FFFFFF" d="M107.5,210.671c-56.888,0-103.169-46.283-103.169-103.17C4.332,50.613,50.613,4.332,107.5,4.332
					c56.887,0,103.17,46.281,103.17,103.169C210.671,164.388,164.388,210.671,107.5,210.671z M107.5,11.563
					c-52.9,0-95.938,43.038-95.938,95.938c0,52.9,43.038,95.939,95.938,95.939c52.901,0,95.94-43.039,95.94-95.939
					C203.44,54.6,160.401,11.563,107.5,11.563z"/>
			</g>
		</g>
	</g>
	<g>
		<g>
			<path fill="#FFFFFF" d="M126.149,59.166c0,4.131-3.35,7.481-7.48,7.481c-4.133,0-7.48-3.35-7.48-7.481
				c0-4.132,3.348-7.48,7.48-7.48C122.8,51.686,126.149,55.034,126.149,59.166"/>
		</g>
		<g>
			<path fill="#FFFFFF" d="M137.341,77.415c-6.684-0.689-13.166-7.923-14.797-8.924c-1-0.723-2.184-1.196-3.316-1.373
				c0,0-0.805-0.167-1.637-0.074c-0.795,0.087-2.006,0.129-3.777,1.45c-0.129,0.08-1.035,0.869-1.32,1.212
				c-2.205,2.286-8.318,9.047-11.36,16.694c-0.431,1.088-0.157,2.268,0.591,3.064l-3.571,6.367L93.12,93
				c-0.603-0.338-1.363-0.125-1.701,0.475l-9.526,16.836c-0.338,0.6-0.124,1.365,0.478,1.701l3.811,2.143
				c-0.608,1.08-0.46,2.477,0.455,3.404c1.105,1.129,2.921,1.141,4.047,0.033c1.047-1.031,1.133-2.672,0.245-3.801l5.203-9.127
				l3.644-6.494l4.517-7.83c0.978-0.154,1.853-0.807,2.245-1.793c1.288-3.244,3.282-6.367,5.208-8.955l0.908,10.428
				c0.104,1.227,0.615,2.254,1.371,3.064c-2.34,4.242-8.635,15.844-10.909,19.788c-1.018,1.768-0.413,4.027,1.354,5.047
				c0.663,0.381,1.399,0.537,2.109,0.486c1.184-0.086,2.302-0.74,2.941-1.842c2.115-3.672,7.639-14.815,10.063-19.002
				c1.941,3.227,5.252,9.166,9.449,18.653c0.611,1.381,1.965,2.199,3.383,2.199c0.502,0,1.008-0.1,1.496-0.316
				c1.865-0.824,2.709-3.006,1.883-4.873c-4.951-11.194-8.596-17.409-10.617-20.68c0.801-1.002,1.279-2.246,1.154-3.709
				l-0.859-9.877c2.488,1.984,5.736,3.658,11.279,4.232c0.102,0.012,0.201,0.016,0.303,0.016c1.469,0,2.73-1.111,2.885-2.604
				C140.097,79.004,138.938,77.579,137.341,77.415 M88.618,116.687c-0.576,0-1.043-0.467-1.043-1.039
				c0-0.578,0.467-1.043,1.043-1.043c0.574,0,1.041,0.465,1.041,1.043C89.659,116.22,89.192,116.687,88.618,116.687"/>
		</g>
		<g>
			<path fill="#FFFFFF" d="M98.504,47.297c0.832-1.112,1.328-2.268,1.331-3.095c-0.001-0.265-0.056-0.475-0.156-0.63
				c-0.01-0.019-0.04-0.068-0.091-0.117c-0.052-0.051-0.097-0.078-0.108-0.083c-0.163-0.109-0.373-0.161-0.643-0.161
				c-0.82,0.002-1.976,0.497-3.089,1.33c-0.9,0.672-1.8,1.621-3.043,2.934c-0.214,0.223-0.435,0.457-0.671,0.701l-2.411-0.722
				l0.007-0.007c0.1-0.102,0.157-0.242,0.153-0.379c0.004-0.143-0.055-0.283-0.155-0.382l-0.435-0.438
				c-0.103-0.103-0.241-0.159-0.385-0.159c-0.145,0-0.282,0.056-0.383,0.159L87.775,46.9l-0.344-0.103
				c0.074-0.095,0.114-0.213,0.114-0.331c0-0.145-0.056-0.281-0.158-0.383l-0.438-0.439c-0.1-0.099-0.238-0.157-0.383-0.157
				s-0.28,0.056-0.38,0.159l-0.598,0.598l-2.452-0.735c-0.057-0.017-0.114-0.024-0.176-0.024c-0.175,0.001-0.337,0.067-0.454,0.184
				l-0.862,0.862c-0.1,0.099-0.152,0.229-0.152,0.355c-0.002,0.186,0.1,0.356,0.263,0.444l5.159,2.881
				c0.023,0.013,0.099,0.068,0.124,0.095l1.472,1.47c-1.376,1.448-2.602,2.853-3.556,4.074c-0.09,0.113-0.173,0.223-0.258,0.332
				l-3.989-0.362c-0.018-0.003-0.04-0.005-0.069-0.005c-0.183,0.005-0.361,0.076-0.495,0.204l-0.401,0.402
				c-0.1,0.098-0.155,0.229-0.153,0.356c-0.003,0.195,0.114,0.374,0.291,0.45l2.807,1.334c0.023,0.013,0.086,0.058,0.107,0.078
				l0.232,0.231c-0.073,0.204-0.11,0.384-0.112,0.538c0,0.21,0.067,0.388,0.196,0.519l0.01,0.009l0.003,0.002
				c0.132,0.126,0.304,0.193,0.516,0.193c0.153-0.002,0.327-0.039,0.535-0.111l0.235,0.234c0.02,0.02,0.063,0.083,0.075,0.106
				l1.33,2.801c0.081,0.179,0.257,0.294,0.447,0.294h0.003c0.132,0,0.259-0.053,0.354-0.149l0.411-0.413
				c0.123-0.129,0.195-0.308,0.197-0.494c0-0.023,0-0.041-0.002-0.05l-0.363-4.005c0.109-0.081,0.22-0.166,0.334-0.254
				c1.223-0.957,2.627-2.184,4.071-3.555l1.473,1.471c0.024,0.024,0.08,0.097,0.095,0.127l2.876,5.148
				c0.088,0.165,0.257,0.269,0.443,0.269c0.134,0,0.262-0.053,0.358-0.152l0.87-0.867c0.112-0.118,0.176-0.277,0.177-0.453
				c0-0.058-0.008-0.116-0.023-0.169l-0.734-2.454l0.598-0.597c0.102-0.1,0.159-0.239,0.159-0.382c0-0.143-0.057-0.279-0.158-0.381
				l-0.438-0.44c-0.101-0.099-0.24-0.156-0.382-0.156c-0.122,0-0.24,0.041-0.333,0.114l-0.101-0.345l0.65-0.651
				c0.1-0.102,0.158-0.24,0.158-0.384c0-0.143-0.057-0.278-0.158-0.38l-0.436-0.437c-0.102-0.102-0.24-0.159-0.385-0.159
				c-0.143,0-0.283,0.058-0.38,0.159l-0.006,0.004l-0.724-2.412c0.25-0.237,0.486-0.464,0.714-0.679
				C96.888,49.089,97.834,48.194,98.504,47.297"/>
		</g>
		<g>
			<path fill="#FFFFFF" d="M83.74,91.655c-0.067,0-0.136-0.01-0.202-0.031c-0.436-0.145-0.867-0.293-1.297-0.451
				c-0.335-0.125-0.506-0.498-0.383-0.834c0.124-0.334,0.496-0.508,0.833-0.383c0.413,0.152,0.831,0.299,1.251,0.436
				c0.34,0.111,0.526,0.479,0.412,0.82C84.266,91.481,84.012,91.655,83.74,91.655 M80.323,90.331c-0.09,0-0.182-0.018-0.269-0.059
				c-0.425-0.193-0.843-0.4-1.243-0.609c-0.316-0.168-0.438-0.559-0.271-0.877c0.167-0.316,0.56-0.438,0.876-0.271
				c0.378,0.201,0.775,0.395,1.178,0.58c0.325,0.148,0.47,0.533,0.32,0.857C80.804,90.19,80.57,90.331,80.323,90.331 M77.126,88.549
				c-0.126,0-0.252-0.037-0.364-0.111c-0.39-0.268-0.769-0.547-1.126-0.832c-0.278-0.225-0.322-0.633-0.098-0.912
				c0.224-0.279,0.631-0.324,0.91-0.1c0.33,0.266,0.682,0.525,1.043,0.77c0.295,0.203,0.372,0.605,0.171,0.902
				C77.538,88.45,77.334,88.549,77.126,88.549 M74.356,86.167c-0.176,0-0.352-0.07-0.479-0.213c-0.32-0.35-0.62-0.719-0.896-1.094
				c-0.211-0.287-0.149-0.693,0.138-0.906c0.289-0.211,0.694-0.148,0.906,0.139c0.25,0.338,0.522,0.672,0.812,0.99
				c0.24,0.266,0.22,0.676-0.044,0.916C74.668,86.112,74.512,86.167,74.356,86.167 M72.31,83.147c-0.241,0-0.473-0.135-0.583-0.367
				c-0.205-0.422-0.389-0.859-0.548-1.305c-0.122-0.338,0.054-0.707,0.391-0.828c0.338-0.121,0.708,0.055,0.829,0.391
				c0.144,0.402,0.311,0.799,0.495,1.178c0.155,0.324,0.021,0.711-0.303,0.867C72.5,83.125,72.406,83.147,72.31,83.147
				 M71.196,79.67c-0.309,0-0.581-0.221-0.638-0.533c-0.08-0.451-0.144-0.92-0.187-1.389c-0.032-0.357,0.23-0.672,0.586-0.706
				c0.354-0.029,0.673,0.229,0.705,0.586c0.039,0.434,0.098,0.863,0.172,1.279c0.063,0.352-0.172,0.689-0.524,0.752
				C71.271,79.668,71.233,79.67,71.196,79.67 M70.965,76.024c-0.013,0-0.024,0-0.036-0.001c-0.357-0.02-0.631-0.325-0.611-0.683
				c0.026-0.475,0.078-0.947,0.155-1.41c0.058-0.352,0.395-0.589,0.747-0.531c0.353,0.06,0.591,0.393,0.531,0.748
				c-0.069,0.413-0.116,0.838-0.142,1.266C71.592,75.758,71.307,76.024,70.965,76.024 M71.718,72.459
				c-0.077,0-0.154-0.015-0.23-0.043c-0.335-0.129-0.502-0.503-0.373-0.837c0.166-0.438,0.363-0.875,0.582-1.297
				c0.167-0.316,0.557-0.439,0.875-0.273c0.318,0.164,0.441,0.557,0.276,0.874c-0.197,0.378-0.374,0.768-0.522,1.159
				C72.226,72.301,71.98,72.459,71.718,72.459 M73.527,69.289c-0.139,0-0.279-0.044-0.398-0.138c-0.282-0.221-0.331-0.629-0.11-0.91
				c0.284-0.363,0.594-0.723,0.92-1.067c0.245-0.26,0.656-0.27,0.916-0.023s0.271,0.656,0.024,0.916
				c-0.298,0.314-0.581,0.642-0.841,0.974C73.911,69.205,73.719,69.289,73.527,69.289 M76.123,66.711
				c-0.192,0-0.382-0.085-0.51-0.248c-0.222-0.282-0.173-0.691,0.108-0.911c0.36-0.285,0.742-0.56,1.131-0.823
				c0.298-0.199,0.701-0.119,0.9,0.177c0.199,0.299,0.119,0.7-0.177,0.901c-0.362,0.244-0.719,0.5-1.053,0.764
				C76.405,66.665,76.263,66.711,76.123,66.711 M79.216,64.745c-0.237,0-0.466-0.13-0.579-0.356c-0.162-0.32-0.031-0.708,0.288-0.87
				c0.775-0.391,1.284-0.576,1.306-0.584c0.337-0.123,0.707,0.051,0.83,0.388c0.122,0.335-0.052,0.708-0.387,0.832
				c-0.004,0-0.467,0.17-1.167,0.523C79.414,64.724,79.314,64.745,79.216,64.745"/>
		</g>
	</g>
	<g>
		<path fill="#FFFFFF" d="M65.964,150.271c0,0,0,0.828-0.036,1.225c-0.288,11.77-0.576,15.693-1.439,16.918
			c-0.54,0.756-1.188,1.043-2.052,1.115c-0.792,0.107-2.052,0.107-3.348,0.035c-0.036-0.719-0.288-1.727-0.684-2.375
			c1.296,0.107,2.411,0.145,2.951,0.145c0.432,0,0.72-0.072,1.008-0.504c0.54-0.793,0.864-4.285,1.116-14.111h-4.067
			c-0.145,5.58-1.044,11.807-5.111,17.207c-0.396-0.504-1.296-1.152-1.908-1.512c4.104-5.545,4.571-12.096,4.571-17.314v-5.471
			h-3.852v-2.521h13.895v2.521h-7.595v4.643H65.964z M59.989,142.854c-0.359-1.33-1.224-3.383-1.943-4.93l2.268-0.793
			c0.828,1.549,1.692,3.527,2.052,4.859L59.989,142.854z M71.58,144.366c-1.008,2.053-2.231,3.889-3.491,5.328
			c-0.468-0.396-1.512-1.225-2.124-1.619c2.556-2.629,4.499-6.695,5.543-10.943l2.592,0.469c-0.396,1.512-0.899,2.951-1.439,4.318
			h12.418v2.447H71.58z M85.114,153.294c-1.655,1.619-3.815,3.383-5.615,4.643c1.368,4.104,3.348,7.451,6.083,9.359
			c-0.611,0.469-1.439,1.439-1.835,2.16c-4.788-3.6-7.199-10.764-8.424-19.293c-1.079,0.287-2.195,0.539-3.275,0.791v14.686
			l5.399-2.375c0.036,0.721,0.216,1.801,0.396,2.375c-6.588,3.061-7.596,3.529-8.207,4.141c-0.252-0.576-0.972-1.584-1.368-2.016
			c0.504-0.432,1.224-1.297,1.224-2.951v-15.516c4.607-0.971,9.827-2.447,12.743-3.887l2.159,1.871
			c-1.943,0.828-4.319,1.621-6.803,2.305c0.323,2.088,0.684,4.139,1.224,6.082c1.548-1.26,3.239-2.771,4.355-4.031L85.114,153.294z"
			/>
		<path fill="#FFFFFF" d="M92.209,160.493c-0.396,3.096-1.044,6.479-1.8,8.711c-0.432-0.252-1.439-0.576-2.016-0.756
			c0.864-2.195,1.439-5.4,1.728-8.314L92.209,160.493z M98.401,158.765c-0.072-0.611-0.216-1.332-0.396-2.158
			c-6.84,1.33-7.884,1.582-8.459,1.979c-0.145-0.539-0.54-1.691-0.828-2.34c0.756-0.18,1.476-1.043,2.52-2.412
			c0.504-0.611,1.62-2.23,2.88-4.283c-3.6,0.541-4.355,0.721-4.823,0.973c-0.145-0.539-0.54-1.691-0.828-2.375
			c0.611-0.145,1.188-0.865,1.8-1.98c0.684-1.045,2.915-5.184,4.104-9.035l2.411,0.936c-1.331,3.385-3.131,6.912-4.931,9.646
			l3.635-0.359c0.828-1.475,1.692-3.096,2.376-4.68l2.268,1.117c-2.195,4.139-4.823,8.387-7.522,11.662l4.931-0.828
			c-0.216-1.08-0.54-2.16-0.863-3.168l1.907-0.467c0.792,2.303,1.62,5.363,1.872,7.127L98.401,158.765z M95.485,160.097
			c0.469,2.447,0.9,5.543,1.008,7.668l-2.016,0.467c-0.107-2.088-0.504-5.291-0.899-7.738L95.485,160.097z M98.796,159.269
			c0.792,1.908,1.692,4.32,2.052,5.904l-1.907,0.684c-0.396-1.619-1.26-4.104-1.979-6.012L98.796,159.269z M107.94,160.169
			c-1.368,2.627-3.42,5.652-5.075,7.631c-0.469-0.396-1.513-1.188-2.088-1.512c1.691-1.836,3.527-4.535,4.751-6.838L107.94,160.169z
			 M112.583,156.858v13.029h-2.627v-13.029h-8.568v-2.377h19.546v2.377H112.583z M104.52,147.644h-2.412v-5.977h8.243
			c-0.432-1.223-1.008-2.734-1.547-3.924l2.484-0.646c0.719,1.402,1.475,3.238,1.906,4.57h7.561v5.977h-2.52v-3.637H104.52V147.644z
			 M104.917,150.487v-2.34h12.922v2.34H104.917z M116.938,159.378c1.619,2.195,3.564,5.254,4.463,7.09l-2.303,1.08
			c-0.9-1.871-2.771-5.004-4.32-7.307L116.938,159.378z"/>
		<path fill="#FFFFFF" d="M135.661,139.507c-1.008,2.916-2.232,6.48-3.385,9.359c2.449,2.951,3.023,5.543,3.023,7.74
			c0,1.943-0.395,3.49-1.33,4.211c-0.469,0.359-1.117,0.576-1.801,0.684c-0.684,0.072-1.547,0.072-2.268,0.035
			c-0.035-0.684-0.252-1.691-0.684-2.375c0.828,0.072,1.439,0.072,2.016,0.037c0.396,0,0.791-0.109,1.043-0.324
			c0.504-0.396,0.721-1.369,0.721-2.484c0-1.943-0.611-4.428-2.988-7.271c0.973-2.555,1.98-5.688,2.629-8.098h-4.283v28.904h-2.305
			v-31.316h7.559l0.396-0.145L135.661,139.507z M142.14,159.954c-0.287,0.898-0.648,1.834-1.043,2.662
			c1.512,0.936,3.203,2.232,4.031,3.133l-1.404,1.799c-0.756-0.9-2.268-2.088-3.635-3.131c-1.441,2.34-3.313,4.283-5.4,5.723
			c-0.359-0.467-1.26-1.332-1.836-1.764c3.313-1.943,5.725-5.039,6.875-8.926L142.14,159.954z M140.413,145.304
			c-1.225,0.936-2.521,1.764-3.852,2.52c-0.396-0.504-1.225-1.369-1.801-1.764c4.32-2.268,8.207-5.832,10.223-9.18l2.592,0.828
			c-0.252,0.396-0.504,0.791-0.791,1.188c2.699,2.52,7.197,4.967,10.869,6.264c-0.467,0.648-1.008,1.729-1.223,2.412
			c-3.672-1.584-8.027-4.248-10.979-6.912c-1.441,1.656-3.096,3.203-4.932,4.572h10.619v2.16h-10.727V145.304z M136.669,149.983
			h8.063v8.639h-8.063V149.983z M138.72,156.677h3.852v-4.715h-3.852V156.677z M152.147,159.772c-0.217,1.08-0.504,2.16-0.9,3.133
			c2.268,1.439,4.859,3.383,6.191,4.787l-1.584,1.799c-1.225-1.26-3.455-3.096-5.58-4.57c-1.08,2.088-2.555,3.814-4.355,5.111
			c-0.359-0.469-1.223-1.332-1.799-1.764c2.916-1.908,4.822-4.969,5.615-8.855L152.147,159.772z M146.964,149.983h8.207v8.639
			h-8.207V149.983z M149.015,156.677h3.996v-4.715h-3.996V156.677z"/>
	</g>
</g>
</svg>
