<?xml version="1.0" encoding="utf-8"?>
<!-- Generator: Adobe Illustrator 16.0.0, SVG Export Plug-In . SVG Version: 6.00 Build 0)  -->
<!DOCTYPE svg PUBLIC "-//W3C//DTD SVG 1.1//EN" "http://www.w3.org/Graphics/SVG/1.1/DTD/svg11.dtd">
<svg version="1.1" id="section5" xmlns="http://www.w3.org/2000/svg" xmlns:xlink="http://www.w3.org/1999/xlink" x="0px" y="0px"
	 width="345px" height="62px" viewBox="0 0 345 62" enable-background="new 0 0 345 62" xml:space="preserve">
<g>
	<g>
		<path id="SVGID_1_" fill="#FFFFFF" d="M313.824,61.762H31.174c-8.218,0-15.942-3.196-21.75-9.004
			c-5.808-5.815-9.006-13.541-9.006-21.757c0-8.218,3.198-15.942,9.005-21.749c5.804-5.813,13.528-9.014,21.75-9.014h282.651
			c8.223,0,15.945,3.201,21.75,9.014c5.809,5.807,9.008,13.531,9.008,21.749c0,8.215-3.199,15.941-9.008,21.756
			C329.768,58.563,322.043,61.762,313.824,61.762z"/>
	</g>
	<g>
		<defs>
			<path id="SVGID_2_" d="M313.824,61.762H31.174c-8.218,0-15.942-3.196-21.75-9.004c-5.808-5.815-9.006-13.541-9.006-21.757
				c0-8.218,3.198-15.942,9.005-21.749c5.804-5.813,13.528-9.014,21.75-9.014h282.651c8.223,0,15.945,3.201,21.75,9.014
				c5.809,5.807,9.008,13.531,9.008,21.749c0,8.215-3.199,15.941-9.008,21.756C329.768,58.563,322.043,61.762,313.824,61.762z"/>
		</defs>
		<clipPath id="SVGID_4_">
			<use xlink:href="#SVGID_2_"  overflow="visible"/>
		</clipPath>
		<g clip-path="url(#SVGID_4_)">
			<g>
				<path id="SVGID_3_" fill="#8C8C8C" d="M1392.119,1373.719H-367.866v-4671.453h1759.985V1373.719z M-366.866,1372.719h1757.985
					v-4669.453H-366.866V1372.719z"/>
			</g>
		</g>
	</g>
</g>
<line fill="none" stroke="#727272" stroke-miterlimit="10" x1="86.5" y1="0.74" x2="86.5" y2="61.262"/>
<path id="SVGID_5_" fill="#8C8C8C" d="M313.824,61.762H31.174c-8.218,0-15.942-3.196-21.75-9.004
	c-5.808-5.815-9.006-13.541-9.006-21.757c0-8.218,3.198-15.942,9.005-21.749c5.804-5.813,13.528-9.014,21.75-9.014h282.651
	c8.223,0,15.945,3.201,21.75,9.014c5.809,5.807,9.008,13.531,9.008,21.749c0,8.215-3.199,15.941-9.008,21.756
	C329.768,58.563,322.043,61.762,313.824,61.762z M31.174,1.24c-7.955,0-15.428,3.097-21.043,8.72
	c-5.619,5.618-8.713,13.09-8.713,21.041c0,7.95,3.094,15.424,8.713,21.049c5.619,5.617,13.092,8.711,21.043,8.711h282.65
	c7.951,0,15.426-3.094,21.045-8.711c5.619-5.625,8.713-13.1,8.713-21.049c0-7.951-3.094-15.424-8.713-21.042
	c-5.615-5.623-13.09-8.721-21.045-8.721H31.174V1.24z"/>
<g>
	<defs>
		<path id="SVGID_6_" d="M313.824,61.762H31.174c-8.218,0-15.942-3.196-21.75-9.004c-5.808-5.815-9.006-13.541-9.006-21.757
			c0-8.218,3.198-15.942,9.005-21.749c5.804-5.813,13.528-9.014,21.75-9.014h282.651c8.223,0,15.945,3.201,21.75,9.014
			c5.809,5.807,9.008,13.531,9.008,21.749c0,8.215-3.199,15.941-9.008,21.756C329.768,58.563,322.043,61.762,313.824,61.762z
			 M31.174,1.24c-7.955,0-15.428,3.097-21.043,8.72c-5.619,5.618-8.713,13.09-8.713,21.041c0,7.95,3.094,15.424,8.713,21.049
			c5.619,5.617,13.092,8.711,21.043,8.711h282.65c7.951,0,15.426-3.094,21.045-8.711c5.619-5.625,8.713-13.1,8.713-21.049
			c0-7.951-3.094-15.424-8.713-21.042c-5.615-5.623-13.09-8.721-21.045-8.721H31.174V1.24z"/>
	</defs>
	<clipPath id="SVGID_8_">
		<use xlink:href="#SVGID_6_"  overflow="visible"/>
	</clipPath>
	<g clip-path="url(#SVGID_8_)">
		<path id="SVGID_7_" fill="#8C8C8C" d="M1392.119,1373.719H-367.866v-4671.453h1759.985V1373.719z M-366.866,1372.719h1757.985
			v-4669.453H-366.866V1372.719z"/>
	</g>
</g>
<path fill="#333333" d="M289.41,20.675L289.41,20.675c-3.146,0-4.723,3.803-2.496,6.026l3.973,3.975
	c0.326,0.324,0.326,0.854,0,1.181l-3.973,3.974c-2.227,2.226-0.65,6.026,2.496,6.026c0.936,0,1.834-0.371,2.494-1.035l8.969-8.965
	c0.326-0.326,0.326-0.855,0-1.181l-8.969-8.969C291.244,21.046,290.346,20.675,289.41,20.675"/>
<path fill="#333333" d="M306.961,20.675L306.961,20.675c-3.145,0-4.721,3.803-2.496,6.026l3.975,3.975
	c0.326,0.324,0.326,0.854,0,1.181l-3.975,3.974c-2.225,2.226-0.648,6.026,2.496,6.026c0.938,0,1.834-0.371,2.496-1.035l8.967-8.965
	c0.326-0.326,0.326-0.855,0-1.181l-8.967-8.969C308.795,21.046,307.898,20.675,306.961,20.675"/>
<path fill="#FFFFFF" d="M313.824,61.762H31.174c-8.218,0-15.942-3.196-21.75-9.004c-5.808-5.815-9.006-13.541-9.006-21.757
	c0-8.218,3.198-15.942,9.005-21.749c5.804-5.813,13.528-9.014,21.75-9.014h282.651c8.223,0,15.945,3.201,21.75,9.014
	c5.809,5.807,9.008,13.531,9.008,21.749c0,8.215-3.199,15.941-9.008,21.756C329.768,58.563,322.043,61.762,313.824,61.762z"/>
<line fill="none" stroke="#727272" stroke-miterlimit="10" x1="86.5" y1="0.74" x2="86.5" y2="61.262"/>
<path fill="#8C8C8C" d="M313.824,61.762H31.174c-8.218,0-15.942-3.196-21.75-9.004c-5.808-5.815-9.006-13.541-9.006-21.757
	c0-8.218,3.198-15.942,9.005-21.749c5.804-5.813,13.528-9.014,21.75-9.014h282.651c8.223,0,15.945,3.201,21.75,9.014
	c5.809,5.807,9.008,13.531,9.008,21.749c0,8.215-3.199,15.941-9.008,21.756C329.768,58.563,322.043,61.762,313.824,61.762z
	 M31.174,1.24c-7.955,0-15.428,3.097-21.043,8.72c-5.619,5.618-8.713,13.09-8.713,21.041c0,7.95,3.094,15.424,8.713,21.049
	c5.619,5.617,13.092,8.711,21.043,8.711h282.65c7.951,0,15.426-3.094,21.045-8.711c5.619-5.625,8.713-13.1,8.713-21.049
	c0-7.951-3.094-15.424-8.713-21.042c-5.615-5.623-13.09-8.721-21.045-8.721H31.174V1.24z"/>
<path fill="#333333" d="M289.41,20.675L289.41,20.675c-3.146,0-4.723,3.803-2.496,6.026l3.973,3.975
	c0.326,0.324,0.326,0.854,0,1.181l-3.973,3.974c-2.227,2.226-0.65,6.026,2.496,6.026c0.936,0,1.834-0.371,2.494-1.035l8.969-8.965
	c0.326-0.326,0.326-0.855,0-1.181l-8.969-8.969C291.244,21.046,290.346,20.675,289.41,20.675"/>
<path fill="#333333" d="M306.961,20.675L306.961,20.675c-3.145,0-4.721,3.803-2.496,6.026l3.975,3.975
	c0.326,0.324,0.326,0.854,0,1.181l-3.975,3.974c-2.225,2.226-0.648,6.026,2.496,6.026c0.938,0,1.834-0.371,2.496-1.035l8.967-8.965
	c0.326-0.326,0.326-0.855,0-1.181l-8.967-8.969C308.795,21.046,307.898,20.675,306.961,20.675"/>
<path fill="#808080" d="M61.266,26.586c-1.899-4.658-5.813-8.305-10.635-9.912c-1.724-0.566-3.553-0.877-5.473-0.877
	c-1.903,0-3.753,0.311-5.461,0.877c-1.497,0.494-2.887,1.176-4.188,2.043l-1.46-1.496c-0.268-0.248-0.672-0.248-0.933,0l-3.559,3.57
	c-0.262,0.254-0.262,0.654,0,0.918l1.408,1.432c-0.754,1.055-1.408,2.234-1.935,3.445c-0.831,2.064-1.285,4.275-1.285,6.619
	c0,2.363,0.454,4.576,1.285,6.623c2.604,6.334,8.838,10.805,16.127,10.805c7.287,0,13.502-4.471,16.107-10.805
	c0.846-2.047,1.322-4.26,1.322-6.623C62.588,30.861,62.111,28.65,61.266,26.586 M46.759,32.783h5.632
	c0.193,0,0.335,0.164,0.335,0.342v0.08c0,0.195-0.142,0.332-0.335,0.332h-5.648c-0.068,0.287-0.23,0.527-0.422,0.742
	c-0.303,0.301-0.707,0.475-1.162,0.475c-0.442,0-0.864-0.174-1.146-0.475c-0.297-0.293-0.475-0.703-0.475-1.154
	c0-0.447,0.178-0.867,0.475-1.148c0.282-0.301,0.704-0.496,1.146-0.496c0.455,0,0.859,0.195,1.162,0.496
	C46.527,32.18,46.688,32.471,46.759,32.783 M45.666,32.605c-0.12-0.125-0.297-0.205-0.508-0.205c-0.193,0-0.373,0.08-0.514,0.205
	c-0.123,0.141-0.208,0.318-0.208,0.52c0,0.211,0.085,0.381,0.208,0.506c0.141,0.141,0.32,0.211,0.514,0.211
	c0.211,0,0.388-0.07,0.508-0.211c0.142-0.125,0.213-0.295,0.213-0.506C45.879,32.924,45.808,32.746,45.666,32.605 M45.158,21.285
	c6.545,0,11.85,5.301,11.85,11.84c0,6.541-5.305,11.842-11.85,11.842c-6.533,0-11.834-5.301-11.834-11.842
	C33.324,26.586,38.625,21.285,45.158,21.285 M54.031,33.125c0-0.412,0.314-0.725,0.721-0.725h1.302
	c-0.106-1.463-0.474-2.836-1.093-4.088l-1.126,0.652c-0.123,0.055-0.243,0.09-0.37,0.09c-0.246,0-0.492-0.125-0.633-0.35
	c-0.191-0.359-0.068-0.816,0.265-1.004l1.146-0.656c-0.795-1.182-1.814-2.197-2.992-2.992l-0.653,1.121
	c-0.142,0.236-0.387,0.375-0.633,0.375c-0.124,0-0.247-0.035-0.373-0.104c-0.35-0.195-0.474-0.631-0.265-0.984l0.657-1.133
	c-1.254-0.611-2.628-1-4.086-1.094v1.289c0,0.408-0.337,0.74-0.739,0.74c-0.407,0-0.722-0.332-0.722-0.74v-1.289
	c-1.868,0.129-4.596,0.219-3.434,2.227c0.193,0.336,0.07,0.789-0.278,0.984c-0.338,0.211-0.794,0.086-0.988-0.271l-0.654-1.121
	c-1.178,0.795-2.2,1.811-2.992,2.992l1.128,0.656c0.35,0.188,0.475,0.645,0.262,0.982c-0.121,0.246-0.368,0.371-0.632,0.371
	c-0.125,0-0.245-0.035-0.352-0.09l-1.129-0.652c-0.615,1.252-1.002,2.625-1.091,4.088h1.287c0.402,0,0.739,0.313,0.739,0.725
	c0,0.4-0.337,0.734-0.739,0.734h-1.287c0.089,1.461,0.476,2.834,1.091,4.082l1.129-0.654c0.332-0.211,0.789-0.088,0.983,0.271
	c0.213,0.348,0.088,0.789-0.262,0.996l-1.128,0.658c1.04,1.561,2.483,3.865,3.646,1.844c0.194-0.334,0.65-0.453,0.988-0.262
	c0.349,0.209,0.472,0.652,0.278,1.004l-0.651,1.127c1.251,0.617,2.623,0.982,4.085,1.094v-1.305c0-0.408,0.314-0.721,0.722-0.721
	c0.402,0,0.739,0.313,0.739,0.721v1.305c1.458-0.111,2.832-0.477,4.086-1.094l-0.657-1.127c-0.209-0.352-0.085-0.795,0.265-1.004
	c0.354-0.191,0.797-0.072,0.987,0.262l0.672,1.148c1.178-0.793,2.197-1.813,2.992-2.992l-1.146-0.67
	c-0.333-0.195-0.456-0.637-0.265-0.984c0.212-0.359,0.65-0.482,1.003-0.271l1.126,0.654c0.619-1.248,0.986-2.621,1.093-4.082h-1.302
	C54.346,33.859,54.031,33.525,54.031,33.125 M59.116,39.879L59.116,39.879c-2.48,5.213-7.796,8.799-13.958,8.824
	c-6.162-0.025-11.463-3.611-13.978-8.824c-0.951-2.02-1.499-4.281-1.499-6.674c0-2.379,0.548-4.627,1.499-6.648
	c1.724-3.582,4.769-6.414,8.517-7.822c1.69-0.629,3.543-1.006,5.461-1.006c1.934,0,3.766,0.377,5.473,1.006
	c3.734,1.408,6.762,4.24,8.485,7.822c0.986,2.021,1.518,4.27,1.518,6.648C60.634,35.598,60.103,37.859,59.116,39.879 M45.158,18.771
	c-7.961,0-14.438,6.479-14.438,14.434c0,7.977,6.477,14.455,14.438,14.455c7.974,0,14.449-6.479,14.449-14.455
	C59.607,25.25,53.132,18.771,45.158,18.771 M45.158,46.199L45.158,46.199c-7.166,0-12.993-5.83-12.993-12.994
	c0-7.15,5.827-12.992,12.993-12.992c7.164,0,12.992,5.842,12.992,12.992C58.15,40.369,52.322,46.199,45.158,46.199 M50.597,16.008
	v-4.381c0-0.619-0.492-1.131-1.126-1.131h-8.68c-0.613,0-1.127,0.512-1.127,1.131v4.381c1.707-0.559,3.556-0.877,5.457-0.877
	C47.041,15.131,48.871,15.449,50.597,16.008"/>
<g>
	<path fill="#333333" d="M144.72,35.15c1.56,2.43,3.39,5.67,4.199,7.619l-1.77,0.99c-0.33-0.84-0.84-1.949-1.439-3.09
		c-7.62,2.76-8.61,3.18-9.21,3.631c-0.15-0.57-0.51-1.5-0.84-2.012c0.479-0.238,1.229-0.748,1.229-1.889V19.521h11.25v13.95h-9.24
		v7.648l5.97-2.01c-0.569-1.109-1.229-2.219-1.8-3.18L144.72,35.15z M138.899,21.321v4.14h7.26v-4.14H138.899z M146.159,31.67v-4.41
		h-7.26v4.41H146.159z M160.769,36.859c0,1.17-0.27,1.771-1.05,2.102c-0.81,0.33-2.16,0.359-4.38,0.33
		c-0.09-0.512-0.3-1.32-0.6-1.891c1.649,0.061,3.09,0.061,3.479,0.029c0.45,0,0.57-0.15,0.57-0.57V21.561h-5.76V45.26h-1.98V19.701
		h9.72V36.859z"/>
	<path fill="#333333" d="M179.22,26.361c-2.761,5.25-7.35,9.42-12.33,12.088c-0.21-0.389-0.84-1.229-1.26-1.619
		c3.21-1.5,6.21-3.75,8.58-6.419c-5.97,0.359-6.9,0.479-7.41,0.689c-0.09-0.42-0.42-1.38-0.63-1.89c0.54-0.09,1.05-0.57,1.71-1.229
		c0.54-0.57,2.1-2.431,3.39-4.44h-6v-1.859h7.8c-0.33-0.99-0.989-2.34-1.68-3.391l1.8-0.479c0.87,1.17,1.68,2.76,1.98,3.81
		l-0.181,0.061h6.48v1.859h-7.86c-1.319,1.95-2.85,3.87-4.38,5.43l6.39-0.27c0.66-0.93,1.29-1.89,1.801-2.94L179.22,26.361z
		 M181.199,32.15c-1.2,2.07-2.67,3.99-4.319,5.73c1.71,1.469,3.779,3.389,4.829,4.648l-1.439,1.291
		c-1.021-1.23-2.97-3.15-4.65-4.711c-2.67,2.461-5.729,4.531-8.85,6.09c-0.27-0.449-0.899-1.289-1.319-1.68
		c5.76-2.52,10.979-6.779,13.919-12.059L181.199,32.15z M185.639,38h-1.89V21.411h1.89V38z M191.099,18.321v24.24
		c0,1.379-0.359,1.92-1.2,2.25c-0.899,0.33-2.34,0.359-4.89,0.359c-0.09-0.539-0.359-1.35-0.659-1.891
		c1.89,0.061,3.569,0.031,4.05,0c0.51,0,0.72-0.18,0.72-0.719v-24.24H191.099z"/>
	<path fill="#333333" d="M201.12,33.951v8.639c0,1.23-0.301,1.74-1.021,2.041c-0.78,0.359-1.979,0.389-4.02,0.389
		c-0.09-0.51-0.36-1.32-0.601-1.859c1.44,0.061,2.73,0.029,3.09,0.029c0.421,0,0.601-0.15,0.601-0.57V34.58
		c-1.41,0.42-2.76,0.811-3.93,1.17l-0.601-1.949c1.261-0.301,2.82-0.75,4.53-1.23v-6.69H195v-1.859h4.17v-6.09h1.95v6.09h3.81v1.859
		h-3.81v6.151c0.96-0.271,1.92-0.571,2.909-0.871l0.24,1.83L201.12,33.951z M219.929,31.641c-1.229,3.57-3.359,6.42-5.939,8.549
		c2.28,1.531,5.04,2.641,8.13,3.271c-0.48,0.449-1.021,1.26-1.32,1.828c-3.24-0.779-6.12-2.068-8.489-3.84
		c-2.67,1.83-5.76,3.061-8.91,3.871c-0.21-0.541-0.63-1.381-1.02-1.83c2.939-0.631,5.819-1.74,8.34-3.33
		c-2.13-1.949-3.84-4.32-5.04-7.08l0.149-0.061h-1.05V31.13h13.5l0.39-0.09L219.929,31.641z M209.64,22.371
		c0,2.64-0.811,5.82-4.44,7.95c-0.239-0.391-0.96-1.141-1.29-1.44c3.271-1.89,3.84-4.38,3.84-6.569v-3.3h9.271v7.02
		c0,0.84,0.06,1.109,0.569,1.109h2.43c0.45,0,1.08-0.06,1.471-0.119c0.029,0.479,0.09,1.26,0.18,1.71
		c-0.36,0.119-0.99,0.149-1.59,0.149h-2.61c-1.92,0-2.369-0.779-2.369-2.91v-5.069h-5.46V22.371z M207.63,33.02
		c1.079,2.311,2.699,4.352,4.709,6c2.07-1.619,3.75-3.6,4.891-6H207.63z"/>
	<path fill="#333333" d="M233.819,18.591c-0.899,2.189-1.979,4.38-3.18,6.39V45.17h-1.89V27.861c-1.05,1.47-2.19,2.85-3.33,3.989
		c-0.21-0.449-0.78-1.439-1.14-1.919c3.029-2.85,5.939-7.35,7.68-11.909L233.819,18.591z M239.249,36.381
		c-1.47,2.549-3.479,5.459-5.189,7.379c-0.33-0.299-1.11-0.9-1.56-1.17c1.739-1.77,3.659-4.439,4.979-6.779L239.249,36.381z
		 M243.509,34.281V45.26h-2.01V34.281h-8.85V32.42h8.85v-3.719h-6.63v-9.359h15.45v9.359h-6.811v3.719h8.58v1.861H243.509z
		 M236.789,26.901h11.52v-5.76h-11.52V26.901z M246.779,35.811c2.01,2.129,4.29,4.98,5.369,6.779l-1.619,1.02
		c-1.08-1.859-3.3-4.83-5.22-6.959L246.779,35.811z"/>
</g>
</svg>
