<?xml version="1.0" encoding="utf-8"?>
<!-- Generator: Adobe Illustrator 16.0.0, SVG Export Plug-In . SVG Version: 6.00 Build 0)  -->
<!DOCTYPE svg PUBLIC "-//W3C//DTD SVG 1.1//EN" "http://www.w3.org/Graphics/SVG/1.1/DTD/svg11.dtd">
<svg version="1.1" id="圖層_1" xmlns="http://www.w3.org/2000/svg" xmlns:xlink="http://www.w3.org/1999/xlink" x="0px" y="0px"
	 width="215px" height="215px" viewBox="0 0 215 215" enable-background="new 0 0 215 215" xml:space="preserve">
<g>
	<g opacity="0.5">
		<g>
			<defs>
				<rect id="SVGID_1_" x="4.328" y="4.335" width="206.337" height="206.34"/>
			</defs>
			<clipPath id="SVGID_2_">
				<use xlink:href="#SVGID_1_"  overflow="visible"/>
			</clipPath>
			<g clip-path="url(#SVGID_2_)">
				<path fill="#FFFFFF" d="M107.499,210.671c-56.888,0-103.17-46.283-103.17-103.17c0-56.888,46.282-103.169,103.17-103.169
					c56.887,0,103.168,46.281,103.168,103.169C210.667,164.388,164.386,210.671,107.499,210.671z M107.499,11.563
					c-52.901,0-95.939,43.038-95.939,95.938c0,52.9,43.038,95.939,95.939,95.939c52.901,0,95.938-43.039,95.938-95.939
					C203.437,54.6,160.399,11.563,107.499,11.563z"/>
			</g>
		</g>
	</g>
	<g opacity="0.8">
		<g>
			<defs>
				<rect id="SVGID_3_" x="0.985" y="0.985" width="213.03" height="213.029"/>
			</defs>
			<clipPath id="SVGID_4_">
				<use xlink:href="#SVGID_3_"  overflow="visible"/>
			</clipPath>
			<g clip-path="url(#SVGID_4_)">
				<path fill="#FFFFFF" d="M107.499,214.015c-58.731,0-106.514-47.781-106.514-106.514C0.985,48.77,48.767,0.988,107.499,0.988
					c58.731,0,106.512,47.781,106.512,106.513C214.011,166.233,166.229,214.015,107.499,214.015z M107.499,3.947
					C50.398,3.947,3.944,50.401,3.944,107.501c0,57.1,46.454,103.555,103.555,103.555c57.1,0,103.553-46.455,103.553-103.555
					C211.052,50.401,164.599,3.947,107.499,3.947z"/>
			</g>
		</g>
	</g>
	<g>
		<g>
			<path fill="#FFFFFF" d="M141.413,112.485c0,0.453-0.369,0.82-0.82,0.82c-0.455,0-0.822-0.367-0.822-0.82v-2.914
				c0-0.453,0.367-0.82,0.822-0.82c0.451,0,0.82,0.367,0.82,0.82V112.485z"/>
		</g>
		<g>
			<g>
				<path fill="#FFFFFF" d="M76.903,112.435c0,0.559-0.454,1.012-1.013,1.012c-0.561,0-1.014-0.453-1.014-1.012V52.922
					c0-0.56,0.453-1.013,1.014-1.013c0.559,0,1.013,0.453,1.013,1.013V112.435z"/>
			</g>
			<g>
				<path fill="#FFFFFF" d="M70.318,67.862c0,1.632-1.322,2.954-2.954,2.954c-1.631,0-2.955-1.322-2.955-2.954V56.044
					c0-1.631,1.324-2.953,2.955-2.953c1.632,0,2.954,1.322,2.954,2.953V67.862z"/>
			</g>
			<g>
				<path fill="#FFFFFF" d="M87.539,60.772c0,1.632-1.322,2.954-2.955,2.954c-1.631,0-2.955-1.322-2.955-2.954V48.955
					c0-1.632,1.324-2.955,2.955-2.955c1.633,0,2.955,1.322,2.955,2.955V60.772z"/>
			</g>
			<g>
				
					<rect x="75.894" y="42.616" transform="matrix(0.3707 0.9287 -0.9287 0.3707 96.3609 -37.8918)" fill="#FFFFFF" width="0.495" height="19.092"/>
			</g>
			<g>
				<path fill="#FFFFFF" d="M90.666,90.235l-0.176-0.174c2.088-2.088,3.125-5.189,2.641-7.898c-0.304-1.711-1.355-4.066-4.631-5.578
					c-6.599-3.044-4.146-14.708-4.122-14.826l0.242,0.053c-0.024,0.115-2.434,11.587,3.983,14.55
					c3.372,1.555,4.455,3.988,4.771,5.756C93.872,84.907,92.807,88.092,90.666,90.235"/>
			</g>
			<g>
				<path fill="#FFFFFF" d="M106.363,88.561L106.363,88.561c0-2.398-1.944-4.342-4.344-4.342h-4.252
					c-2.399,0-4.345,1.943-4.345,4.342H106.363z"/>
			</g>
			<g>
				<path fill="#FFFFFF" d="M141.069,108.751c0.332,0.139,0.486,0.518,0.35,0.848c-0.137,0.332-0.518,0.488-0.85,0.352
					L95.296,91.067c-0.331-0.141-0.488-0.52-0.35-0.85c0.138-0.332,0.519-0.488,0.85-0.35L141.069,108.751z"/>
			</g>
			<g>
				<path fill="#FFFFFF" d="M150.839,91.067c0.33-0.141,0.488-0.52,0.35-0.852c-0.139-0.33-0.518-0.486-0.85-0.348l-45.273,18.883
					c-0.331,0.137-0.488,0.518-0.35,0.848c0.138,0.332,0.519,0.488,0.85,0.35L150.839,91.067z"/>
			</g>
			<g>
				<path fill="#FFFFFF" d="M155.63,89.643c0,0.672-0.545,1.217-1.217,1.217H91.722c-0.673,0-1.218-0.545-1.218-1.217
					s0.545-1.217,1.218-1.217h62.691C155.085,88.426,155.63,88.971,155.63,89.643"/>
			</g>
			<g>
				<path fill="#FFFFFF" d="M106.363,112.485c0,0.453-0.367,0.82-0.82,0.82s-0.819-0.367-0.819-0.82v-2.914
					c0-0.453,0.366-0.82,0.819-0.82s0.82,0.367,0.82,0.82V112.485z"/>
			</g>
			<g>
				<path fill="#FFFFFF" d="M107.833,113.308c0,1.277-1.038,2.316-2.317,2.316c-1.281,0-2.317-1.039-2.317-2.316
					c0-1.281,1.036-2.318,2.317-2.318C106.795,110.989,107.833,112.026,107.833,113.308"/>
			</g>
			<g>
				<path fill="#FFFFFF" d="M142.935,113.308c0,1.277-1.037,2.316-2.316,2.316c-1.281,0-2.318-1.039-2.318-2.316
					c0-1.281,1.037-2.318,2.318-2.318C141.897,110.989,142.935,112.026,142.935,113.308"/>
			</g>
		</g>
	</g>
	<g>
		<path fill="#FFFFFF" d="M78.373,156.282v1.621h8.566v12.021h-2.52v-1.404H63.758v1.404H61.31v-12.021h8.999v-1.621h-12.67v-1.871
			h32.684v1.871H78.373z M59.727,139.94h-1.116v-1.729h15.802v1.729H61.85v9.756c0,1.295,0.36,1.727,1.656,1.727h7.595
			c0.9,0,2.52-0.035,3.204-0.18c0.071,0.576,0.144,1.297,0.252,1.764c-0.612,0.18-1.98,0.217-3.312,0.217h-7.848
			c-2.808,0-3.671-0.973-3.671-3.564V139.94z M69.013,146.708l-0.036,0.072c1.656,0.9,3.492,2.195,4.5,3.059l-1.152,1.26
			c-0.899-0.828-2.483-1.979-3.959-2.914c-0.72,1.115-2.016,2.268-4.319,3.131c-0.252-0.469-0.792-1.008-1.188-1.367
			c2.664-0.828,3.78-2.053,4.248-3.24h-4.5v-1.549h4.788v-0.252v-1.691h-2.196c-0.432,0.613-0.863,1.152-1.368,1.621
			c-0.323-0.252-1.043-0.686-1.476-0.865c1.152-1.115,2.088-2.482,2.628-3.924l1.691,0.434c-0.144,0.395-0.323,0.791-0.54,1.223
			h7.163v1.512h-4.067v1.729v0.215h4.716v1.549H69.013z M84.419,166.901v-4.068h-0.36h-4.643c-2.556,0-3.204-0.395-3.204-2.268
			v-1.043h-3.852c-0.396,1.764-2.088,3.168-7.199,3.996c-0.252-0.469-0.792-1.225-1.188-1.584c4.176-0.469,5.688-1.404,6.155-2.412
			h-6.371v7.379H84.419z M66.854,164.022h14.974v1.547H66.854V164.022z M76.212,156.282h-3.779v1.621h3.779V156.282z M75.42,145.159
			c-0.288-0.504-1.044-1.367-1.476-1.654c2.699-1.08,3.203-2.305,3.203-3.564v-1.836h8.567v3.348c0,0.684,0.072,0.863,0.504,0.863
			h1.584c0.432,0,1.08-0.035,1.476-0.107c0.036,0.504,0.108,1.297,0.18,1.801c-0.396,0.107-1.008,0.143-1.583,0.143h-1.98
			c-1.943,0-2.34-0.756-2.34-2.734v-1.369h-4.247c0,1.656-0.684,3.492-3.275,4.824h9.791l0.432-0.107l1.332,0.611
			c-0.864,1.943-2.16,3.527-3.708,4.824c1.728,0.791,3.348,1.619,4.5,2.268l-1.044,1.619c-1.26-0.721-3.132-1.729-5.147-2.699
			c-1.979,1.223-4.176,2.123-6.443,2.699c-0.252-0.504-0.756-1.295-1.152-1.729c1.872-0.395,3.744-1.08,5.436-1.943
			c-1.476-0.719-2.987-1.404-4.319-1.943l0.972-1.404c1.584,0.613,3.384,1.404,5.184,2.195c1.044-0.756,2.016-1.654,2.735-2.662
			h-9.034v-1.512L75.42,145.159z M78.373,159.522v1.043c0,0.721,0.18,0.828,1.26,0.828h4.104c0.323,0,0.54,0,0.684-0.035v-1.836
			H78.373z"/>
		<path fill="#FFFFFF" d="M101.198,142.784v9.215c0,5.471-0.72,13.102-5.147,18.07c-0.359-0.541-1.332-1.477-1.836-1.801
			c2.736-3.131,3.816-7.127,4.212-11.014c-1.439,0.936-2.916,1.799-4.319,2.592l-0.9-2.377c1.404-0.646,3.348-1.691,5.436-2.771
			c0.036-0.936,0.036-1.799,0.036-2.699v-11.555h12.635c-0.289-0.9-0.648-1.943-0.938-2.771l2.592-0.576
			c0.432,1.008,0.936,2.305,1.225,3.348h12.238v2.34H101.198z M95.979,151.423c-0.396-1.799-1.404-4.787-2.232-7.09l2.016-0.756
			c0.9,2.268,1.944,5.219,2.34,6.875L95.979,151.423z M125.315,149.624c-0.9,0.936-2.016,1.836-2.988,2.555
			c1.367,1.045,2.916,1.908,4.428,2.447c-0.504,0.469-1.225,1.297-1.584,1.908c-1.008-0.467-2.053-1.008-3.023-1.727v7.162h-6.875
			v5.471c0,1.297-0.252,1.873-1.26,2.268c-0.973,0.361-2.447,0.361-4.787,0.361c-0.145-0.684-0.504-1.584-0.865-2.195
			c1.763,0.07,3.275,0.035,3.708,0c0.504,0,0.611-0.109,0.611-0.504v-5.4h-6.696v-7.092c-0.936,0.648-1.979,1.225-3.06,1.801
			c-0.359-0.611-1.079-1.404-1.655-1.764c1.691-0.793,3.203-1.729,4.499-2.736c-0.827-0.791-1.907-1.619-2.808-2.268l1.44-1.223
			c0.899,0.574,2.052,1.402,2.879,2.158c0.9-0.863,1.728-1.764,2.339-2.699h-6.802v-2.123h8.134
			c0.541-1.008,0.973-2.088,1.225-3.096l2.52,0.359c-0.287,0.9-0.684,1.836-1.08,2.736h12.383v2.123h-7.703
			c0.684,1.045,1.619,2.016,2.627,2.916c0.973-0.828,2.088-1.871,2.736-2.627L125.315,149.624z M109.044,163.481
			c-1.619,1.98-3.85,4.32-5.686,5.795c-0.468-0.395-1.44-1.188-2.052-1.584c1.871-1.33,3.959-3.275,5.399-5.002L109.044,163.481z
			 M119.735,154.052h-11.447v2.195h11.447V154.052z M119.735,157.938h-11.447v2.268h11.447V157.938z M119.052,152.288
			c-1.26-1.262-2.375-2.664-3.24-4.141h-3.383c-0.863,1.439-1.943,2.844-3.313,4.141H119.052z M120.095,162.653
			c1.836,1.691,4.32,4.031,5.58,5.473l-2.016,1.33c-1.188-1.439-3.6-3.922-5.471-5.686L120.095,162.653z"/>
		<path fill="#FFFFFF" d="M140.546,139.509c-1.008,2.916-2.232,6.479-3.385,9.359c2.449,2.951,3.023,5.543,3.023,7.738
			c0,1.943-0.395,3.492-1.33,4.211c-0.469,0.361-1.117,0.576-1.801,0.686c-0.684,0.07-1.547,0.07-2.268,0.035
			c-0.035-0.684-0.252-1.691-0.684-2.375c0.828,0.07,1.439,0.07,2.016,0.035c0.396,0,0.791-0.107,1.043-0.324
			c0.504-0.396,0.721-1.367,0.721-2.484c0-1.943-0.611-4.426-2.988-7.27c0.973-2.557,1.98-5.688,2.629-8.1h-4.283v28.904h-2.305
			v-31.316h7.559l0.396-0.143L140.546,139.509z M147.024,159.954c-0.287,0.9-0.648,1.836-1.043,2.664
			c1.512,0.936,3.203,2.23,4.031,3.131l-1.404,1.801c-0.756-0.9-2.268-2.088-3.635-3.133c-1.441,2.34-3.313,4.283-5.4,5.725
			c-0.359-0.469-1.26-1.332-1.836-1.764c3.313-1.945,5.725-5.041,6.875-8.928L147.024,159.954z M145.296,145.304
			c-1.223,0.936-2.52,1.764-3.85,2.52c-0.396-0.504-1.225-1.367-1.801-1.764c4.32-2.268,8.207-5.83,10.223-9.178l2.592,0.826
			c-0.252,0.396-0.504,0.793-0.791,1.189c2.699,2.52,7.197,4.967,10.869,6.262c-0.467,0.648-1.008,1.729-1.223,2.412
			c-3.672-1.584-8.027-4.246-10.979-6.91c-1.441,1.654-3.096,3.203-4.932,4.57h10.619v2.16h-10.729V145.304z M141.554,149.983h8.063
			v8.639h-8.063V149.983z M143.604,156.679h3.852v-4.715h-3.852V156.679z M157.032,159.774c-0.217,1.08-0.504,2.16-0.9,3.131
			c2.268,1.439,4.859,3.385,6.191,4.787l-1.584,1.801c-1.225-1.26-3.455-3.096-5.58-4.572c-1.08,2.088-2.555,3.816-4.355,5.111
			c-0.359-0.467-1.223-1.332-1.799-1.764c2.916-1.906,4.822-4.967,5.615-8.854L157.032,159.774z M151.849,149.983h8.207v8.639
			h-8.207V149.983z M153.899,156.679h3.996v-4.715h-3.996V156.679z"/>
	</g>
</g>
</svg>
