<?xml version="1.0" encoding="utf-8"?>
<!-- Generator: Adobe Illustrator 16.0.0, SVG Export Plug-In . SVG Version: 6.00 Build 0)  -->
<!DOCTYPE svg PUBLIC "-//W3C//DTD SVG 1.1//EN" "http://www.w3.org/Graphics/SVG/1.1/DTD/svg11.dtd">
<svg version="1.1" id="圖層_1" xmlns="http://www.w3.org/2000/svg" xmlns:xlink="http://www.w3.org/1999/xlink" x="0px" y="0px"
	 width="100px" height="100px" viewBox="0 0 100 100" enable-background="new 0 0 100 100" xml:space="preserve">
<g>
	<g>
		<g>
			<path fill="#FFFFFF" d="M46.346,2.149c-0.766,1.717-1.509,3.414-2.429,5.059c-1.437,2.57,2.455,4.849,3.95,2.308
				c1.048-1.78,2.007-3.635,2.726-5.575C51.497,1.496,47.42-0.26,46.346,2.149z"/>
		</g>
		<g>
			<path fill="#FFFFFF" d="M55.561,2.283c-1.132,1.499-2.238,2.987-3.503,4.382c-1.979,2.182,1.301,5.277,3.329,3.137
				c1.421-1.5,2.773-3.09,3.909-4.819C60.728,2.805,57.15,0.178,55.561,2.283z"/>
		</g>
		<g>
			<path fill="#FFFFFF" d="M66.156,4.749c-1.441,1.207-2.854,2.407-4.4,3.481c-2.42,1.681,0.081,5.435,2.537,3.808
				c1.723-1.142,3.397-2.389,4.895-3.818C71.072,6.42,68.177,3.055,66.156,4.749z"/>
		</g>
		<g>
			<path fill="#FFFFFF" d="M75.924,9.534c-1.676,0.854-3.321,1.705-5.07,2.404c-2.735,1.094-1.145,5.313,1.616,4.28
				c1.936-0.726,3.848-1.563,5.627-2.62C80.338,12.27,78.274,8.34,75.924,9.534z"/>
		</g>
		<g>
			<path fill="#FFFFFF" d="M84.364,16.396c-1.824,0.454-3.62,0.914-5.48,1.202c-2.911,0.45-2.31,4.92,0.612,4.533
				c2.049-0.271,4.101-0.657,6.072-1.286C88.051,20.055,86.924,15.762,84.364,16.396z"/>
		</g>
		<g>
			<path fill="#FFFFFF" d="M91.045,24.98c-1.879,0.032-3.732,0.077-5.61-0.062c-2.938-0.217-3.357,4.273-0.423,4.555
				c2.058,0.196,4.144,0.282,6.205,0.114C93.814,29.374,93.683,24.938,91.045,24.98z"/>
		</g>
		<g>
			<path fill="#FFFFFF" d="M95.625,34.848c-1.838-0.392-3.655-0.765-5.452-1.323c-2.815-0.872-4.233,3.409-1.438,4.345
				c1.96,0.653,3.974,1.206,6.021,1.505C97.335,39.751,98.203,35.398,95.625,34.848z"/>
		</g>
		<g>
			<path fill="#FFFFFF" d="M97.866,45.494c-1.703-0.798-3.388-1.569-5.016-2.52c-2.545-1.48-4.891,2.372-2.376,3.91
				c1.763,1.078,3.6,2.07,5.528,2.821C98.43,50.654,100.256,46.609,97.866,45.494z"/>
		</g>
		<g>
			<path fill="#FFFFFF" d="M97.656,56.368c-1.48-1.159-2.948-2.29-4.321-3.579c-2.147-2.018-5.299,1.208-3.195,3.273
				c1.476,1.447,3.043,2.826,4.752,3.992C97.043,61.525,99.733,57.993,97.656,56.368z"/>
		</g>
		<g>
			<path fill="#FFFFFF" d="M95.005,66.918c-1.181-1.462-2.356-2.895-3.404-4.46c-1.638-2.449-5.436-0.015-3.85,2.471
				c1.111,1.742,2.328,3.439,3.731,4.961C93.249,71.805,96.663,68.969,95.005,66.918z"/>
		</g>
		<g>
			<path fill="#FFFFFF" d="M90.049,76.601c-0.822-1.689-1.646-3.35-2.313-5.111c-1.046-2.755-5.294-1.235-4.307,1.542
				c0.69,1.947,1.494,3.874,2.52,5.672C87.238,80.968,91.203,78.973,90.049,76.601z"/>
		</g>
		<g>
			<path fill="#FFFFFF" d="M83.042,84.921c-0.422-1.832-0.851-3.636-1.105-5.5c-0.399-2.92-4.879-2.396-4.544,0.532
				c0.235,2.051,0.586,4.11,1.18,6.094C79.32,88.544,83.633,87.491,83.042,84.921z"/>
		</g>
		<g>
			<path fill="#FFFFFF" d="M74.342,91.45c0.002-1.881-0.011-3.732,0.16-5.608c0.269-2.933-4.214-3.432-4.545-0.502
				c-0.233,2.054-0.355,4.138-0.224,6.203C69.9,94.144,74.34,94.088,74.342,91.45z"/>
		</g>
		<g>
			<path fill="#FFFFFF" d="M64.396,95.858c0.424-1.831,0.83-3.642,1.417-5.43c0.922-2.798-3.334-4.293-4.315-1.514
				c-0.689,1.949-1.276,3.953-1.611,5.996C59.464,97.481,63.801,98.427,64.396,95.858z"/>
		</g>
		<g>
			<path fill="#FFFFFF" d="M53.714,97.912c0.826-1.688,1.628-3.359,2.604-4.971c1.526-2.519-2.283-4.931-3.866-2.444
				c-1.108,1.744-2.134,3.564-2.918,5.478C48.543,98.386,52.557,100.282,53.714,97.912z"/>
		</g>
		<g>
			<path fill="#FFFFFF" d="M42.845,97.515c1.183-1.46,2.341-2.911,3.653-4.259c2.056-2.112-1.115-5.318-3.217-3.253
				c-1.473,1.449-2.879,2.993-4.076,4.683C37.699,96.812,41.183,99.562,42.845,97.515z"/>
		</g>
		<g>
			<path fill="#FFFFFF" d="M32.343,94.679c1.481-1.157,2.935-2.307,4.518-3.327c2.478-1.596,0.109-5.434-2.402-3.893
				c-1.762,1.081-3.48,2.268-5.025,3.645C27.487,92.837,30.263,96.3,32.343,94.679z"/>
		</g>
		<g>
			<path fill="#FFFFFF" d="M22.747,89.554c1.705-0.793,3.38-1.588,5.152-2.225c2.772-0.997,1.328-5.271-1.467-4.333
				c-1.959,0.656-3.899,1.428-5.715,2.421C18.431,86.667,20.356,90.666,22.747,89.554z"/>
		</g>
		<g>
			<path fill="#FFFFFF" d="M14.55,82.401c1.839-0.389,3.65-0.785,5.52-1.009c2.926-0.348,2.479-4.835-0.453-4.551
				c-2.057,0.198-4.121,0.514-6.113,1.073C10.994,78.618,11.97,82.948,14.55,82.401z"/>
		</g>
		<g>
			<path fill="#FFFFFF" d="M8.173,73.591c1.879,0.034,3.733,0.054,5.604,0.258c2.929,0.318,3.504-4.154,0.583-4.538
				c-2.049-0.269-4.131-0.426-6.198-0.33C5.56,69.104,5.537,73.542,8.173,73.591z"/>
		</g>
		<g>
			<path fill="#FFFFFF" d="M3.942,63.568c1.822,0.456,3.625,0.894,5.403,1.515c2.782,0.968,4.349-3.261,1.587-4.291
				c-1.936-0.723-3.93-1.346-5.965-1.717C2.404,58.609,1.383,62.929,3.942,63.568z"/>
		</g>
		<g>
			<path fill="#FFFFFF" d="M2.072,52.854c1.673,0.854,3.332,1.684,4.925,2.689c2.492,1.57,4.972-2.199,2.511-3.824
				c-1.723-1.14-3.526-2.193-5.426-3.014C1.689,47.676-0.276,51.653,2.072,52.854z"/>
		</g>
		<g>
			<path fill="#FFFFFF" d="M2.662,41.991c1.439,1.211,2.868,2.392,4.193,3.729c2.075,2.091,5.337-1.023,3.308-3.16
				c-1.423-1.498-2.942-2.932-4.61-4.157C3.453,36.86,0.643,40.294,2.662,41.991z"/>
		</g>
		<g>
			<path fill="#FFFFFF" d="M5.68,31.541c1.13,1.501,2.255,2.975,3.247,4.576c1.551,2.504,5.432,0.204,3.935-2.337
				c-1.051-1.778-2.208-3.518-3.557-5.086C7.605,26.718,4.094,29.434,5.68,31.541z"/>
		</g>
		<g>
			<path fill="#FFFFFF" d="M10.97,22.035c0.763,1.719,1.529,3.407,2.136,5.189c0.948,2.79,5.246,1.422,4.357-1.391
				c-0.623-1.969-1.36-3.924-2.32-5.755C13.933,17.772,9.899,19.627,10.97,22.035z"/>
		</g>
		<g>
			<path fill="#FFFFFF" d="M18.265,13.965c0.356,1.847,0.723,3.665,0.913,5.537c0.297,2.932,4.792,2.563,4.559-0.374
				c-0.164-2.06-0.441-4.129-0.966-6.131C22.11,10.477,17.764,11.377,18.265,13.965z"/>
		</g>
		<g>
			<path fill="#FFFFFF" d="M27.187,7.743c-0.066,1.878-0.12,3.731-0.355,5.6c-0.371,2.924,4.092,3.577,4.526,0.661
				c0.305-2.044,0.498-4.122,0.438-6.19C31.718,5.208,27.281,5.106,27.187,7.743z"/>
		</g>
		<g>
			<path fill="#FFFFFF" d="M37.28,3.688c-0.489,1.815-0.957,3.608-1.606,5.375c-1.019,2.766,3.183,4.406,4.261,1.663
				c0.757-1.923,1.414-3.905,1.82-5.935C42.267,2.236,37.965,1.14,37.28,3.688z"/>
		</g>
	</g>
	<g>
		<path fill="#FFFFFF" d="M48.537,30.66v1.252H31.486V30.66h8.076c-0.196-0.586-0.45-1.29-0.685-1.838l1.35-0.352
			c0.273,0.685,0.626,1.545,0.841,2.189H48.537z M47.462,44.799c0,0.763-0.195,1.095-0.763,1.31
			c-0.587,0.176-1.564,0.195-3.227,0.195c-0.078-0.352-0.254-0.802-0.449-1.114c1.212,0.039,2.347,0.02,2.659,0
			c0.313-0.02,0.43-0.098,0.43-0.411V35.94h-3.949v1.271c0,0.431,0.059,0.587,0.371,0.587h1.76c0.294,0,0.803-0.02,1.076-0.078
			c0.02,0.332,0.059,0.724,0.098,1.036c-0.234,0.098-0.704,0.098-1.134,0.098H42.28c-1.192,0-1.427-0.508-1.427-1.662V35.94h-2.21
			c-0.293,2.033-1.212,3.109-3.911,3.715c-0.117-0.313-0.431-0.782-0.704-1.017c2.288-0.41,3.051-1.192,3.324-2.698h-3.363v10.441
			h-1.389V34.728h9.034c0.509-0.782,1.115-1.877,1.428-2.659l1.466,0.332c-0.469,0.782-0.997,1.644-1.505,2.327h4.438V44.799z
			 M36.863,31.971c0.431,0.685,0.979,1.604,1.232,2.17l-1.251,0.509c-0.274-0.566-0.803-1.545-1.213-2.268L36.863,31.971z
			 M37.646,43.918v0.9h-1.271v-5.339h7.138v4.438H37.646z M37.646,40.574v2.269H42.3v-2.269H37.646z"/>
		<path fill="#FFFFFF" d="M51.452,37.915h6.902v8.33h-1.427v-0.88h-4.087v1.057h-1.389V37.915z M52.841,39.323v4.635h4.087v-4.635
			H52.841z M64.925,35.862H54.288V29.39h10.637V35.862z M63.459,30.778h-7.764v3.695h7.764V30.778z M67.761,37.915v8.369h-1.428
			v-0.919h-4.438v1.057h-1.408v-8.507H67.761z M66.333,43.958v-4.635h-4.438v4.635H66.333z"/>
		<path fill="#FFFFFF" d="M41.127,51.827c-0.099,0.176-0.215,0.332-0.313,0.508c1.78,2.405,5.143,4.733,8.429,5.69
			c-0.353,0.294-0.783,0.92-1.037,1.33c-3.108-1.075-6.198-3.324-8.213-5.925c-2.072,2.64-5.162,4.947-8.232,6.159
			c-0.195-0.41-0.547-0.997-0.88-1.368c3.657-1.213,7.333-4.146,9.093-7.177L41.127,51.827z M35.69,58.828h1.486v2.503
			c0,2.6-0.43,5.592-4.341,7.704c-0.235-0.333-0.802-0.821-1.174-1.056c3.638-1.896,4.028-4.459,4.028-6.668V58.828z M42.965,58.809
			h1.485v10.246h-1.485V58.809z"/>
		<path fill="#FFFFFF" d="M56.732,58.476c0.547,1.311,1.114,3.03,1.329,4.067l-1.212,0.391c-0.059-0.313-0.157-0.703-0.274-1.114
			c-4.458,0.646-5.084,0.782-5.475,0.998c-0.078-0.313-0.293-0.998-0.45-1.39c0.411-0.078,0.88-0.586,1.467-1.29
			c0.313-0.332,0.958-1.153,1.682-2.19c-2.112,0.235-2.542,0.333-2.816,0.47c-0.078-0.293-0.293-0.978-0.449-1.33
			c0.313-0.078,0.685-0.488,1.096-1.075c0.43-0.567,1.856-2.815,2.679-4.947l1.329,0.587c-0.88,1.838-1.994,3.715-3.109,5.201
			l2.151-0.195c0.528-0.802,1.036-1.682,1.486-2.542l1.271,0.782c-1.329,2.209-2.913,4.458-4.517,6.218l3.344-0.43
			c-0.195-0.646-0.431-1.291-0.646-1.857L56.732,58.476z M52.704,63.853c-0.196,1.683-0.587,3.54-0.978,4.752
			c-0.274-0.156-0.86-0.352-1.193-0.449c0.449-1.213,0.743-2.934,0.938-4.497L52.704,63.853z M54.816,63.599
			c0.253,1.33,0.488,3.051,0.547,4.185l-1.193,0.255c-0.059-1.154-0.273-2.914-0.488-4.243L54.816,63.599z M56.85,63.09
			c0.43,1.135,0.899,2.582,1.075,3.54l-1.153,0.391c-0.157-0.958-0.606-2.443-1.018-3.578L56.85,63.09z M67.819,52.159
			c0,0,0,0.411-0.02,0.626c-0.216,4.165-0.41,5.769-0.899,6.296c-0.313,0.392-0.646,0.509-1.173,0.568
			c-0.47,0.059-1.311,0.038-2.171,0c-0.039-0.411-0.176-0.979-0.41-1.35c0.859,0.078,1.661,0.098,1.975,0.098
			c0.293,0,0.469-0.039,0.626-0.215c0.293-0.313,0.488-1.564,0.645-4.732h-3.285c-0.352,2.894-1.231,5.358-4.009,6.805
			c-0.195-0.332-0.606-0.821-0.919-1.075c2.465-1.174,3.227-3.324,3.521-5.729h-3.324v-1.291H67.819z M58.863,61.155h8.408v7.782
			h-1.466v-0.802h-5.515v0.88h-1.428V61.155z M60.291,62.465v4.38h5.515v-4.38H60.291z"/>
	</g>
</g>
</svg>
