<?xml version="1.0" encoding="utf-8"?>
<!-- Generator: Adobe Illustrator 16.0.0, SVG Export Plug-In . SVG Version: 6.00 Build 0)  -->
<!DOCTYPE svg PUBLIC "-//W3C//DTD SVG 1.1//EN" "http://www.w3.org/Graphics/SVG/1.1/DTD/svg11.dtd">
<svg version="1.1" id="section3" xmlns="http://www.w3.org/2000/svg" xmlns:xlink="http://www.w3.org/1999/xlink" x="0px" y="0px"
	 width="636px" height="70px" viewBox="0 32.5 636 70" enable-background="new 0 32.5 636 70" xml:space="preserve">
<g>
	<g>
		<rect x="567.738" y="52.988" fill="#FFFFFF" width="68.21" height="3.197"/>
	</g>
	<g>
		<path fill="#FFFFFF" d="M12.104,36.862c-4.356,2.033-6.606,6.1-6.606,8.351c0.29-0.146,0.871-0.363,1.524-0.363
			c3.05,0,5.082,2.323,5.082,5.3c0,2.904-2.105,5.373-5.663,5.373c-3.63,0-6.389-3.412-6.389-7.769
			c0-7.188,4.719-12.271,10.02-14.738L12.104,36.862z M26.914,36.862c-4.429,2.033-6.679,6.1-6.679,8.351
			c0.29-0.146,0.871-0.363,1.597-0.363c2.977,0,5.01,2.323,5.01,5.3c0,2.904-2.033,5.373-5.663,5.373
			c-3.63,0-6.389-3.412-6.389-7.769c0-7.188,4.719-12.271,10.019-14.738L26.914,36.862z"/>
		<path fill="#FFFFFF" d="M58.499,56.176c-0.218,7.478-1.234,16.479-5.01,25.12c3.485,3.267,6.68,6.242,8.785,8.783l-5.663,7.188
			c-1.815-2.323-4.429-5.154-7.405-8.131c-3.049,4.574-6.97,8.856-12.342,12.776c-1.307-1.813-4.139-4.646-6.1-6.024
			c5.445-3.849,9.439-8.132,12.271-12.705c-3.703-3.412-7.551-6.897-10.817-9.802c1.161-4.355,2.396-9.873,3.412-15.827
			l-4.066,0.291l-0.799-8.204c1.889-0.072,3.994-0.146,6.172-0.218c0.727-5.229,1.307-10.455,1.598-15.246l8.566,0.361
			c-0.436,4.574-1.017,9.512-1.814,14.521l5.227-0.29v-4.574h8.059v4.14l3.775-0.219v7.769L58.499,56.176z M43.979,57.118
			c-0.871,4.792-1.742,9.512-2.687,13.649c1.815,1.523,3.703,3.122,5.591,4.719c2.468-6.534,3.34-13.141,3.558-18.804L43.979,57.118
			z M98.72,72.003H84.2v20.399c0,4.429-0.944,6.607-3.993,7.986c-2.904,1.233-7.042,1.451-12.706,1.379
			c-0.436-2.396-1.67-5.953-2.903-8.203c3.63,0.072,7.841,0.072,9.003,0.072c1.234,0,1.597-0.29,1.597-1.379V72.003H59.951v-8.204
			h15.246v-6.971c3.122-2.759,6.316-6.823,8.857-10.6H62.782v-7.841h26.936l2.033-0.437l5.808,4.21
			c-3.412,5.302-8.204,11.398-13.358,16.19v5.445h14.52L98.72,72.003L98.72,72.003z"/>
		<path fill="#FFFFFF" d="M136.549,52.472c-2.251,1.598-4.72,3.122-7.188,4.429c-1.088-1.524-3.557-4.138-5.299-5.663
			c-0.799,2.688-1.452,5.301-2.178,7.551c3.702,5.592,4.428,10.817,4.428,14.956c0,4.792-0.799,7.913-2.904,9.583
			c-1.016,0.871-2.322,1.38-3.848,1.599c-1.161,0.218-2.759,0.218-4.211,0.218c-0.072-2.105-0.652-5.3-1.742-7.479
			c1.09,0.146,1.888,0.146,2.687,0.072c0.581,0,1.233-0.146,1.67-0.581c0.798-0.652,1.089-2.251,1.089-4.429
			c0-3.34-0.581-8.131-4.066-13.141c1.162-4.356,2.469-10.311,3.485-15.103h-5.3v57.064h-7.188V36.79h14.738l1.162-0.29l5.372,3.121
			c-0.944,3.413-2.033,7.262-3.05,11.036c8.277-4.284,15.9-11.036,19.966-17.643l8.276,2.904c-0.436,0.726-0.871,1.523-1.379,2.251
			c5.372,4.354,13.285,8.639,20.4,10.962c-1.234,2.179-2.686,5.881-3.268,8.204c-3.412-1.452-6.896-3.341-10.309-5.372v4.719
			h-21.345v-4.211H136.549z M141.268,80.932c-0.436,1.452-1.017,2.904-1.597,4.283c2.541,1.67,5.372,3.702,6.896,5.228l-4.355,5.735
			c-1.234-1.452-3.485-3.34-5.736-5.011c-2.831,4.43-6.316,8.061-10.382,10.818c-1.161-1.452-3.921-4.284-5.59-5.445
			c6.389-3.774,11.035-9.874,13.214-17.207L141.268,80.932z M128.054,60.313h17.498v18.224h-17.498V60.313z M134.226,72.802h4.864
			v-6.681h-4.864V72.802z M155.135,50.222c-3.122-2.033-6.026-4.284-8.567-6.534c-2.178,2.323-4.501,4.501-6.97,6.534H155.135z
			 M161.523,80.351c-0.436,2.033-0.944,3.993-1.67,5.881c4.065,2.832,8.784,6.244,11.253,8.712l-5.082,5.81
			c-2.033-2.179-5.59-5.155-9.221-7.842c-2.178,3.63-4.863,6.68-8.059,9.002c-1.088-1.451-3.848-4.354-5.518-5.443
			c5.663-3.703,9.148-9.803,10.527-17.207L161.523,80.351z M148.818,60.313h18.005v18.224h-18.005V60.313z M155.062,72.802h5.082
			v-6.681h-5.082V72.802z"/>
		<path fill="#FFFFFF" d="M175.321,52.255c4.428-2.105,6.679-6.1,6.679-8.423c-0.29,0.219-0.871,0.363-1.597,0.363
			c-2.977,0-5.01-2.323-5.01-5.3c0-2.831,2.033-5.372,5.663-5.372c3.63,0,6.389,3.412,6.389,7.841
			c0,7.188-4.72,12.271-10.019,14.665L175.321,52.255z M190.132,52.255c4.355-2.105,6.606-6.1,6.606-8.423
			c-0.29,0.219-0.871,0.363-1.524,0.363c-3.049,0-5.082-2.323-5.082-5.3c0-2.831,2.105-5.372,5.662-5.372
			c3.631,0,6.39,3.412,6.39,7.841c0,7.188-4.72,12.271-10.019,14.665L190.132,52.255z"/>
	</g>
	<g>
		<path fill="#FFFFFF" d="M255.034,51.121c-2.316,5.252-5.196,10.053-8.527,14.287h7.85v3.39h-10.674
			c-1.863,2.032-3.728,3.952-5.76,5.703h13.779v24.113h-3.615v-2.598h-13.271v3.389h-3.501V79.583
			c-1.525,1.073-3.163,2.091-4.801,2.938c-0.451-0.734-1.693-2.315-2.428-3.05c5.533-2.768,10.561-6.381,14.852-10.673h-13.666
			v-3.39h11.464v-7.114h-8.866v-3.332h8.866v-6.213h3.558v6.213h7.229v3.105c1.582-2.485,2.938-5.14,4.18-7.906L255.034,51.121z
			 M248.087,77.606h-13.271v5.873h13.271V77.606z M248.087,92.854v-6.325h-13.271v6.325H248.087z M242.101,65.408
			c1.977-2.202,3.729-4.574,5.252-7.114h-7.059v7.114H242.101z M276.72,53.098c-2.43,5.309-5.535,11.746-8.415,16.998
			c6.155,5.309,7.793,9.713,7.793,13.778c0,3.332-0.79,5.931-2.823,7.173c-1.017,0.733-2.315,1.13-3.783,1.299
			c-1.525,0.17-3.559,0.17-5.309,0.057c-0.057-1.073-0.452-2.654-1.13-3.728c1.864,0.17,3.671,0.227,4.97,0.112
			c1.016-0.057,1.92-0.281,2.711-0.678c1.299-0.734,1.75-2.484,1.693-4.574c0-3.613-1.863-7.905-8.019-12.933
			c2.653-4.913,5.364-11.012,7.284-15.529h-11.125v44.67h-3.727V51.516h16.604l0.621-0.169L276.72,53.098z"/>
		<path fill="#FFFFFF" d="M329.293,95c0,1.809-0.452,2.712-1.977,3.22c-1.639,0.509-4.293,0.452-8.473,0.452
			c-0.226-0.903-0.733-2.033-1.299-2.823c3.502,0.112,6.213,0.112,7.061,0.056c0.791-0.056,1.017-0.282,1.017-0.902v-4.574h-16.49
			v9.262h-3.614v-9.262h-15.417v8.357h-3.614V87.547h19.031v-2.881h-16.49V72.072h16.038c0.509-1.13,1.13-2.541,1.469-3.558
			c-8.641,0.733-17.45,1.581-23.662,2.202l-0.282-2.711c2.993-0.227,6.72-0.509,10.786-0.848v-3.274h-9.318v-2.315h9.318v-2.768
			H282.93V56.43h10.447v-2.824h-8.471v-2.259h8.471v-3.05h3.502v3.05h8.865v2.259h-8.865v2.824h10.56v2.371h-10.56v2.768h9.543
			v2.315h-9.543v2.993c3.444-0.282,7.115-0.565,10.729-0.904l-0.057,2.314l2.711,0.622c-0.678,1.129-1.243,2.202-1.808,3.162h17.789
			v12.594h-17.111v2.881h20.161V95z M292.416,77.154h30.27v-2.71h-30.27V77.154z M292.416,82.295h30.27v-2.769h-30.27V82.295z
			 M332.455,53.437v2.937h-6.325V66.65c0,1.808-0.396,2.599-1.75,3.106c-1.412,0.508-3.614,0.508-7.116,0.508
			c-0.226-0.903-0.79-2.032-1.299-2.823c2.768,0.057,5.083,0.057,5.762,0c0.789,0,0.902-0.226,0.902-0.847V56.373h-14.796v-2.937
			h14.796v-5.083h3.501v5.083H332.455z M316.021,65.747c-1.017-1.977-3.275-4.8-5.365-6.833l2.485-1.411
			c2.146,1.92,4.461,4.688,5.478,6.606L316.021,65.747z"/>
		<path fill="#FFFFFF" d="M354.703,49.258c-1.412,2.823-3.163,5.591-5.083,8.188v22.759h-3.614V61.965
			c-1.863,2.089-3.783,4.064-5.703,5.646c-0.509-0.677-1.751-2.146-2.484-2.823c5.195-4.01,10.277-10.277,13.496-16.658
			L354.703,49.258z M338.552,95.791c2.315-3.332,4.519-8.471,5.816-12.142l3.332,1.411c-1.468,3.614-3.501,8.923-5.647,12.368
			L338.552,95.791z M372.436,95.171c3.105,0,3.614-0.849,3.896-6.664c0.902,0.678,2.429,1.241,3.501,1.468
			c-0.563,7.003-1.808,8.641-7.172,8.641h-13.948c-6.438,0-8.133-1.017-8.133-5.309v-9.995h3.729v9.938
			c0,1.582,0.678,1.922,4.518,1.922H372.436z M361.818,56.994c-1.752,2.993-3.84,5.703-5.986,7.736
			c-0.621-0.621-2.033-1.807-2.823-2.315c3.841-3.443,7.229-8.64,9.148-14.062l3.444,0.848c-0.564,1.524-1.242,3.049-1.92,4.519
			h21.741l0.621-0.17l2.599,0.733c-1.524,3.162-3.22,6.891-4.688,9.205l-3.163-0.678c0.903-1.581,1.978-3.729,2.881-5.816H361.818z
			 M365.546,64.675c-1.751,4.519-4.744,8.979-7.681,11.858c-0.621-0.563-2.033-1.638-2.881-2.089
			c2.994-2.711,5.592-6.721,7.115-10.674L365.546,64.675z M367.07,90.708c-1.469-2.767-4.971-7.059-8.133-10.052l2.938-1.638
			c3.105,2.937,6.721,7.002,8.303,9.77L367.07,90.708z M370.459,80.035V59.254h3.614v20.781H370.459z M380.566,63.602
			c2.938,3.444,5.931,8.188,7.172,11.237l-3.219,1.751c-1.186-3.162-4.179-8.02-6.945-11.577L380.566,63.602z M382.318,82.745
			c2.654,3.953,5.363,9.149,6.324,12.595l-3.615,1.469c-0.846-3.445-3.387-8.754-5.984-12.819L382.318,82.745z"/>
		<path fill="#FFFFFF" d="M403.831,64.845c-2.09-1.355-6.155-3.05-9.263-4.123l1.809-2.599c3.162,0.849,7.172,2.485,9.262,3.729
			L403.831,64.845z M445.564,88.449h-23.438v11.353h-3.84V88.449h-23.041v-3.389h23.041v-4.292h3.84v4.292h23.38L445.564,88.449z
			 M396.15,79.019c2.992-2.769,7.397-7.342,11.013-11.577l1.978,2.541c-3.162,3.896-6.947,8.302-10.392,11.916L396.15,79.019z
			 M407.896,55.864c-2.09-1.411-5.985-3.388-9.092-4.631l1.863-2.598c3.105,1.072,7.115,2.88,9.148,4.292L407.896,55.864z
			 M412.357,60.947c-1.241,1.355-2.483,2.541-3.728,3.614c-0.621-0.678-2.089-1.864-2.991-2.429
			c4.573-3.444,8.81-8.696,11.406-14.176l3.501,1.018c-0.847,1.808-1.92,3.671-3.104,5.422h9.655
			c-0.678-1.469-1.523-3.219-2.259-4.574l3.559-1.017c1.017,1.638,2.202,3.953,2.937,5.591h11.521v2.993h-12.594v4.461h11.013v2.711
			h-11.013v4.349h11.125v2.599h-11.125v4.687h13.609v3.106h-27.897v2.483h-3.613V60.947H412.357z M426.702,57.39h-10.729v4.461
			h10.729V57.39z M426.702,64.562h-10.729v4.349h10.729V64.562z M426.702,71.509h-10.729v4.687h10.729V71.509z"/>
		<path fill="#FFFFFF" d="M465.439,49.258c-1.242,3.896-2.653,7.905-4.349,11.689v38.685h-3.671V68.177
			c-1.469,2.541-3.05,4.97-4.688,7.002c-0.34-0.848-1.412-2.823-2.091-3.728c4.688-5.761,8.812-14.399,11.408-23.211L465.439,49.258
			z M477.581,67.047c-1.016,1.638-2.259,3.219-3.614,4.688h24.905v24.001c0,1.751-0.339,2.598-1.525,3.162
			c-1.129,0.565-2.937,0.565-5.421,0.565c-0.17-0.904-0.678-2.146-1.187-3.051c1.808,0.058,3.389,0.058,3.896,0
			c0.508,0,0.679-0.17,0.679-0.678V91.16h-9.318v7.172h-3.445V91.16h-10.222c-0.621,3.162-1.693,6.27-3.67,8.753
			c-0.565-0.678-2.09-1.92-2.881-2.314c3.274-4.461,3.671-10.392,3.671-15.078V75.97c-1.694,1.354-3.389,2.598-5.195,3.558
			c-0.339-0.733-1.524-2.259-2.202-2.993c4.292-2.202,8.584-5.591,11.464-9.486h-8.471v-3.501h10.165v-5.818h-8.641v-3.445h8.641
			v-5.76h3.614v5.76h9.883v-5.76h3.614v5.76h7.793v3.445h-7.793v5.816h9.205v3.501L477.581,67.047L477.581,67.047z M482.551,88.224
			v-5.252h-9.486c0,1.638-0.058,3.443-0.282,5.252H482.551z M473.063,80.035h9.487v-5.083h-9.487V80.035z M478.824,63.546h9.883
			v-5.817h-9.883V63.546z M495.314,74.952h-9.318v5.083h9.318V74.952z M495.314,88.224v-5.252h-9.318v5.252H495.314z"/>
		<path fill="#FFFFFF" d="M527.783,63.827c-0.17,6.438-1.018,14.231-4.913,21.854c2.88,2.429,5.421,4.856,7.115,6.776l-2.43,3.162
			c-1.581-1.92-3.953-4.234-6.606-6.663c-2.541,3.783-5.985,7.512-10.673,10.898c-0.621-0.847-1.921-1.977-2.711-2.541
			c4.743-3.332,8.188-7.059,10.616-10.899c-3.05-2.598-6.324-5.252-9.262-7.396c1.186-3.784,2.429-8.866,3.558-14.288l-4.688,0.282
			l-0.396-3.67c1.693-0.058,3.614-0.17,5.816-0.228c0.734-4.349,1.412-8.81,1.807-12.706l3.729,0.169
			c-0.452,3.842-1.186,8.134-1.92,12.426l7.396-0.396v-4.235h3.56v4.01l3.274-0.169v3.389L527.783,63.827z M516.093,64.562
			c-0.96,4.743-2.033,9.431-3.05,13.215c2.26,1.693,4.631,3.558,7.003,5.421c3.275-6.606,4.01-13.497,4.179-19.145L516.093,64.562z
			 M558.899,75.801h-12.65v19.313c0,2.315-0.621,3.388-2.315,4.01c-1.692,0.564-4.292,0.679-8.64,0.621
			c-0.227-1.017-0.904-2.542-1.412-3.558c3.389,0.056,6.438,0.056,7.342,0.056c0.903-0.056,1.187-0.339,1.187-1.129V75.801h-13.271
			v-3.56h13.271v-6.663c2.993-2.429,6.269-6.212,8.526-9.544h-19.199V52.59h21.798l0.902-0.227l2.6,1.863
			c-2.711,4.18-6.834,8.923-10.787,12.312v5.703h12.65L558.899,75.801L558.899,75.801z"/>
		<path fill="#FFFFFF" d="M611.529,54.68c-4.971,5.478-12.765,11.294-19.767,15.078v24.903c0,2.711-0.678,3.784-2.768,4.405
			c-2.146,0.621-5.76,0.678-11.521,0.678c-0.226-1.13-0.96-2.711-1.581-3.783c4.856,0.17,9.148,0.112,10.447,0.057
			c1.188-0.057,1.525-0.396,1.525-1.355V67.894c5.534-2.711,11.972-7.342,16.264-11.408h-37.046v-3.67h40.66l0.847-0.227
			L611.529,54.68z"/>
	</g>
</g>
</svg>
