<?xml version="1.0" encoding="utf-8"?>
<!-- Generator: Adobe Illustrator 16.0.0, SVG Export Plug-In . SVG Version: 6.00 Build 0)  -->
<!DOCTYPE svg PUBLIC "-//W3C//DTD SVG 1.1//EN" "http://www.w3.org/Graphics/SVG/1.1/DTD/svg11.dtd">
<svg version="1.1" id="section5" xmlns="http://www.w3.org/2000/svg" xmlns:xlink="http://www.w3.org/1999/xlink" x="0px" y="0px"
	 width="328.819px" height="59.527px" viewBox="8.09 1.236 328.819 59.527" enable-background="new 8.09 1.236 328.819 59.527"
	 xml:space="preserve">
<path fill="#FFFFFF" d="M37.694,2.135c-7.713,0-14.964,3.001-20.416,8.452c-5.451,5.45-8.451,12.703-8.451,20.416
	c0,7.708,3,14.961,8.451,20.41c5.456,5.451,12.703,8.452,20.416,8.452h269.617c7.707,0,14.961-3.001,20.41-8.452
	c5.451-5.449,8.451-12.702,8.451-20.41c0-7.713-3-14.961-8.451-20.416c-5.449-5.451-12.703-8.452-20.41-8.452H37.694z"/>
<g>
	<g>
		<path fill="#333333" d="M162.17,41.985v2.01h-26.519v-2.01h14.52c1.65-3.87,3.57-10.23,4.56-14.64l2.28,0.42
			c-1.32,4.529-3.09,10.35-4.71,14.22H162.17z M161,25.605h-24.089v-1.979H161V25.605z M144.051,40.604
			c-0.45-3.479-1.77-8.789-2.91-12.779l1.98-0.449c1.2,4.05,2.49,9.239,3,12.719L144.051,40.604z M148.34,23.176
			c-0.24-1.29-0.87-3.3-1.47-4.83l1.92-0.54c0.63,1.53,1.26,3.48,1.56,4.771L148.34,23.176z"/>
		<path fill="#333333" d="M175.131,35.175c1.56,2.431,3.391,5.67,4.199,7.62l-1.77,0.99c-0.33-0.84-0.84-1.95-1.439-3.09
			c-7.62,2.76-8.61,3.18-9.21,3.63c-0.15-0.57-0.51-1.5-0.84-2.011c0.48-0.239,1.23-0.749,1.23-1.89V19.546h11.25v13.949h-9.24
			v7.649l5.97-2.01c-0.57-1.109-1.23-2.22-1.801-3.18L175.131,35.175z M169.311,21.346v4.14h7.259v-4.14H169.311z M176.57,31.695
			v-4.41h-7.259v4.41H176.57z M191.18,36.885c0,1.17-0.27,1.771-1.049,2.101c-0.811,0.33-2.16,0.359-4.381,0.33
			c-0.09-0.511-0.299-1.32-0.6-1.891c1.65,0.061,3.09,0.061,3.48,0.03c0.449,0,0.568-0.15,0.568-0.57V21.586h-5.76v23.699h-1.979
			v-25.56h9.719V36.885z"/>
		<path fill="#333333" d="M220.521,21.346c-2.641,2.91-6.781,6-10.5,8.01v13.229c0,1.439-0.361,2.01-1.471,2.34
			c-1.141,0.33-3.061,0.36-6.119,0.36c-0.121-0.601-0.51-1.44-0.84-2.011c2.58,0.091,4.859,0.061,5.549,0.03
			c0.631-0.03,0.811-0.21,0.811-0.72v-14.22c2.939-1.439,6.359-3.899,8.639-6.06h-19.678v-1.95h21.598l0.451-0.12L220.521,21.346z"
			/>
		<path fill="#333333" d="M237.951,43.005c0,1.02-0.24,1.59-0.99,1.89c-0.721,0.3-1.92,0.33-4.049,0.33
			c-0.061-0.479-0.391-1.26-0.631-1.71c1.59,0.03,2.971,0.03,3.391,0c0.42,0,0.568-0.09,0.568-0.51v-5.609h-7.408
			c-0.271,2.789-0.9,5.729-2.311,7.919c-0.27-0.3-1.051-0.75-1.439-0.93c2.039-3.149,2.25-7.59,2.25-10.979v-5.76
			c-0.271,0.36-0.541,0.69-0.811,1.02c-0.27-0.3-1.08-0.93-1.5-1.199c2.131-2.311,3.811-5.85,4.74-9.54l1.83,0.42
			c-0.211,0.75-0.451,1.5-0.691,2.22h3.691l0.27-0.09l1.199,0.78c-0.479,1.38-1.229,2.939-1.949,4.229h3.84V43.005z M230.301,22.186
			c-0.479,1.17-1.02,2.28-1.59,3.3h3.6c0.51-0.96,1.051-2.189,1.471-3.3H230.301z M229.012,33.436c0,0.75-0.031,1.529-0.061,2.37
			h2.939v-3.69h-2.879V33.436z M229.012,30.585h2.879v-3.51h-2.879V30.585z M233.361,30.585h2.879v-3.51h-2.879V30.585z
			 M236.24,35.806v-3.69h-2.879v3.69H236.24z M244.971,21.166c-0.66,3.569-2.129,6.479-5.82,8.189c-0.24-0.42-0.779-1.05-1.139-1.38
			c3.27-1.38,4.529-3.9,5.1-6.81h-4.201v-1.71h12.93c0,0-0.029,0.54-0.059,0.779c-0.24,5.01-0.48,6.9-1.111,7.59
			c-0.42,0.48-0.84,0.66-1.59,0.721c-0.629,0.06-1.889,0.029-3.148-0.03c-0.031-0.54-0.211-1.23-0.451-1.68
			c1.23,0.119,2.371,0.119,2.82,0.119c0.391,0.03,0.66-0.029,0.84-0.27c0.359-0.42,0.631-1.86,0.811-5.52H244.971z M252.65,39.375
			h-5.82v5.729h-1.92v-5.729h-6.42v-1.74h6.42v-3.869h-3.449c-0.48,1.17-1.051,2.189-1.65,3.029c-0.299-0.24-1.109-0.63-1.559-0.81
			c1.35-1.74,2.248-4.23,2.789-6.78l1.709,0.33c-0.18,0.84-0.389,1.681-0.658,2.49h2.818v-3.12h1.92v3.12h5.311v1.74h-5.311v3.869
			h5.82V39.375z"/>
	</g>
</g>
<path fill="#333333" d="M308.521,29.505l-8.635-7.772c-1.029-0.928-2.615-0.845-3.541,0.187c-0.926,1.027-0.844,2.612,0.186,3.539
	l3.779,3.401h-12.016c-1.385,0-2.508,1.123-2.508,2.507c0,1.385,1.123,2.507,2.508,2.507h12.016l-3.779,3.402
	c-1.029,0.927-1.111,2.512-0.186,3.542c0.494,0.549,1.178,0.829,1.865,0.829c0.596,0,1.195-0.213,1.676-0.644l8.635-7.772
	c0.527-0.475,0.828-1.152,0.828-1.862C309.35,30.656,309.049,29.979,308.521,29.505"/>
<path fill="#333333" d="M61.85,21.124c-0.857,0-1.65,0.281-2.292,0.754c-0.628-1.287-1.953-2.177-3.48-2.177
	c-0.859,0-1.653,0.282-2.297,0.758c-0.631-1.283-1.952-2.168-3.474-2.168c-0.692,0-1.34,0.181-1.902,0.5v-6.203
	c0.001-2.135-1.736-3.871-3.87-3.871c-2.136,0-3.872,1.736-3.872,3.871v14.364c-0.438-0.258-0.929-0.429-1.448-0.499
	c-1.026-0.138-2.042,0.133-2.863,0.761c-0.823,0.627-1.351,1.537-1.489,2.563c-0.136,1.023,0.133,2.041,0.761,2.862l6.507,8.523
	c0.758,1.419,1.796,2.694,3.078,3.753v6.512c0,0.545,0.441,0.986,0.985,0.986h13.996c0.544,0,0.986-0.441,0.986-0.986v-6.512
	c2.894-2.391,4.545-5.882,4.545-9.656V24.995C65.72,22.86,63.983,21.124,61.85,21.124 M37.188,31.444
	c-0.307-0.404-0.44-0.903-0.373-1.407c0.068-0.503,0.328-0.949,0.731-1.257c0.403-0.309,0.902-0.442,1.406-0.374
	c0.503,0.067,0.95,0.327,1.259,0.73l0.451,0.592v5.53c0,0.257,0.009,0.512,0.025,0.766L37.188,31.444z M63.75,35.259
	c0,3.32-1.516,6.381-4.158,8.398c-0.244,0.186-0.388,0.476-0.388,0.782v6.003H47.179l-0.001-6.003c0-0.307-0.144-0.597-0.387-0.782
	c-2.643-2.018-4.158-5.078-4.158-8.398V12.588c0-1.048,0.852-1.901,1.901-1.901c1.048,0,1.901,0.854,1.901,1.901v16.517
	c0,0.543,0.44,0.984,0.984,0.984c0.545,0,0.986-0.441,0.986-0.984v-6.943c0-1.049,0.853-1.9,1.901-1.9c1.048,0,1.9,0.852,1.9,1.9
	v7.085c0,0.544,0.441,0.985,0.985,0.985s0.986-0.441,0.986-0.985v-5.674c0-1.049,0.852-1.901,1.9-1.901
	c1.048,0,1.901,0.853,1.901,1.901v1.006c0,0.048,0.004,0.095,0.011,0.14c-0.007,0.092-0.011,0.186-0.011,0.277v4.108
	c0,0.544,0.441,0.985,0.985,0.985c0.545,0,0.985-0.441,0.985-0.985v-4.108c0-1.048,0.853-1.901,1.901-1.901
	c1.048,0,1.901,0.854,1.901,1.901V35.259z"/>
<line fill="none" stroke="#727272" stroke-width="0.9767" stroke-miterlimit="10" x1="86.5" y1="2.135" x2="86.5" y2="59.865"/>
</svg>
