<?xml version="1.0" encoding="utf-8"?>
<!-- Generator: Adobe Illustrator 16.0.0, SVG Export Plug-In . SVG Version: 6.00 Build 0)  -->
<!DOCTYPE svg PUBLIC "-//W3C//DTD SVG 1.1//EN" "http://www.w3.org/Graphics/SVG/1.1/DTD/svg11.dtd">
<svg version="1.1" id="section5" xmlns="http://www.w3.org/2000/svg" xmlns:xlink="http://www.w3.org/1999/xlink" x="0px" y="0px"
	 width="328.819px" height="59.527px" viewBox="8.09 1.236 328.819 59.527" enable-background="new 8.09 1.236 328.819 59.527"
	 xml:space="preserve">
<g>
	<defs>
		<rect id="SVGID_1_" x="-666.008" y="-1500.239" width="1677.885" height="4455.117"/>
	</defs>
	<clipPath id="SVGID_2_">
		<use xlink:href="#SVGID_1_"  overflow="visible"/>
	</clipPath>
</g>
<g>
	<path fill="#FFFFFF" d="M337.176,30.632c0-7.713-3-14.96-8.449-20.417c-5.451-5.45-12.705-8.45-20.41-8.45H38.698
		c-4.43,0-8.704,0.994-12.576,2.869c-3.646,1.432-6.994,3.605-9.846,6.458c-5.452,5.449-8.452,12.703-8.452,20.415
		c0,7.71,3,14.962,8.452,20.411c5.455,5.451,12.702,8.453,20.415,8.453h269.617c4.428,0,8.704-0.996,12.576-2.873
		c3.644-1.432,6.991-3.604,9.842-6.455C334.176,45.594,337.176,38.34,337.176,30.632z"/>
	<line fill="none" stroke="#727272" stroke-width="0.984" stroke-miterlimit="10" x1="86.201" y1="1.629" x2="86.201" y2="60.235"/>
	<g>
		<g>
			<g>
				<path fill="#333333" d="M38.605,48.156h21.761c2.249,0,4.08-1.83,4.08-4.08V33.5h-2.721v10.576c0,0.748-0.609,1.359-1.359,1.359
					H38.605c-0.751,0-1.36-0.611-1.36-1.359V22.314c0-0.751,0.609-1.36,1.36-1.36h21.761c0.75,0,1.359,0.609,1.359,1.36
					l-0.043,3.482h2.72l0.044-3.482c0-2.25-1.831-4.08-4.08-4.08H38.605c-2.25,0-4.08,1.83-4.08,4.08v21.762
					C34.525,46.326,36.355,48.156,38.605,48.156z"/>
			</g>
		</g>
		<polygon fill="#2F2725" stroke="#FFFFFF" stroke-width="1.6361" stroke-miterlimit="10" points="47.447,36.442 42.609,30.782 
			39.119,33.765 46.94,42.918 70.901,22.436 67.918,18.946 		"/>
	</g>
	<path fill="#333333" d="M306.156,29.57l-8.635-7.772c-1.029-0.928-2.613-0.845-3.541,0.186c-0.926,1.028-0.844,2.613,0.186,3.54
		l3.779,3.401H285.93c-1.383,0-2.506,1.123-2.506,2.507c0,1.386,1.123,2.508,2.506,2.508h12.016l-3.779,3.401
		c-1.029,0.928-1.111,2.513-0.186,3.542c0.494,0.549,1.178,0.83,1.865,0.83c0.596,0,1.197-0.213,1.676-0.643l8.635-7.774
		c0.527-0.475,0.83-1.151,0.83-1.862C306.986,30.722,306.684,30.045,306.156,29.57"/>
	<g>
		<path fill="#333333" d="M159.806,42.051v2.01h-26.519v-2.01h14.52c1.649-3.869,3.569-10.229,4.56-14.639l2.279,0.42
			c-1.319,4.53-3.09,10.35-4.709,14.219H159.806z M158.636,25.671h-24.089v-1.98h24.089V25.671z M141.687,40.671
			c-0.45-3.479-1.77-8.79-2.91-12.779l1.98-0.45c1.199,4.05,2.489,9.24,3,12.72L141.687,40.671z M145.977,23.242
			c-0.24-1.29-0.87-3.3-1.471-4.83l1.92-0.54c0.631,1.53,1.261,3.479,1.561,4.77L145.977,23.242z"/>
		<path fill="#333333" d="M172.767,35.241c1.56,2.43,3.39,5.67,4.199,7.62l-1.77,0.989c-0.33-0.84-0.84-1.95-1.439-3.09
			c-7.62,2.761-8.61,3.181-9.21,3.63c-0.15-0.57-0.51-1.5-0.84-2.01c0.479-0.24,1.229-0.75,1.229-1.891V19.612h11.25v13.949h-9.24
			v7.65l5.97-2.01c-0.569-1.11-1.229-2.221-1.8-3.18L172.767,35.241z M166.946,21.412v4.14h7.26v-4.14H166.946z M174.206,31.762
			v-4.41h-7.26v4.41H174.206z M188.815,36.951c0,1.17-0.27,1.77-1.05,2.1c-0.81,0.33-2.16,0.36-4.38,0.33
			c-0.09-0.51-0.3-1.32-0.6-1.89c1.649,0.06,3.09,0.06,3.479,0.03c0.45,0,0.57-0.15,0.57-0.57V21.652h-5.76v23.699h-1.98V19.792
			h9.72V36.951z"/>
		<path fill="#333333" d="M200.757,34.311c-0.391-0.93-1.32-2.76-2.101-4.229v15.209h-1.649v-15.3c-0.87,3.45-2.07,6.81-3.271,8.88
			c-0.18-0.6-0.6-1.471-0.93-1.98c1.561-2.459,3.15-7.139,3.93-11.219h-3.42v-1.89h3.69v-5.79h1.649v5.79h2.82v1.68
			c3.6-1.92,6.779-4.86,8.46-7.649l1.92,0.63c-0.21,0.3-0.42,0.66-0.66,0.99c2.25,2.1,6.119,4.2,9.18,5.31
			c-0.36,0.48-0.75,1.29-0.9,1.77c-3.09-1.35-6.84-3.57-9.27-5.79c-1.979,2.34-4.59,4.47-7.439,6.06c-0.3-0.36-0.87-0.93-1.29-1.26
			v0.15h-2.82v2.07c0.75,1.11,2.641,4.229,3.09,5.04L200.757,34.311z M207.356,36.951c-0.24,0.811-0.51,1.56-0.87,2.279
			c1.26,0.811,2.729,1.92,3.479,2.73l-1.08,1.32c-0.659-0.78-1.949-1.83-3.18-2.641c-1.2,1.92-2.76,3.54-4.529,4.74
			c-0.3-0.301-0.96-0.96-1.41-1.29c2.76-1.649,4.83-4.26,5.79-7.5L207.356,36.951z M202.977,28.701h6.63v7.141h-6.63V28.701z
			 M204.536,34.342h3.45v-4.141h-3.45V34.342z M215.006,26.392h-9v-1.62h9V26.392z M215.786,36.801
			c-0.21,0.961-0.48,1.83-0.811,2.67c1.92,1.23,4.141,2.91,5.28,4.051l-1.2,1.379c-1.05-1.08-3-2.64-4.77-3.93
			c-0.93,1.77-2.19,3.21-3.72,4.35c-0.24-0.33-0.96-1.02-1.38-1.319c2.46-1.591,4.109-4.2,4.739-7.44L215.786,36.801z
			 M218.306,35.842h-6.75v-7.141h6.75V35.842z M216.656,30.201h-3.54v4.141h3.54V30.201z"/>
		<path fill="#333333" d="M223.947,26.332c1.739,0.69,3.899,1.86,4.949,2.79l-1.109,1.62c-1.051-0.93-3.181-2.19-4.95-2.97
			L223.947,26.332z M227.637,34.342l1.59,1.049c-1.11,3.12-2.67,6.811-3.99,9.54l-1.77-1.08
			C224.667,41.57,226.406,37.671,227.637,34.342z M225.297,18.352c1.68,0.78,3.72,2.07,4.739,3.06l-1.199,1.59
			c-0.96-1.02-3-2.4-4.71-3.24L225.297,18.352z M234.177,39.201c-1.051,2.31-2.79,4.68-4.351,6.209
			c-0.359-0.299-1.17-0.869-1.619-1.14c1.649-1.38,3.18-3.479,4.109-5.55L234.177,39.201z M239.606,19.372v18.66h-8.61v-18.66
			H239.606z M232.736,25.012h5.07v-3.87h-5.07V25.012z M232.736,30.621h5.07v-3.93h-5.07V30.621z M232.736,36.262h5.07v-3.961h-5.07
			V36.262z M237.807,38.631c1.26,1.439,2.789,3.42,3.479,4.62l-1.56,1.02c-0.69-1.26-2.19-3.329-3.42-4.8L237.807,38.631z
			 M243.776,21.112v16.979h-1.771V21.112H243.776z M249.056,18.022v24.75c0,1.289-0.3,1.859-1.11,2.189
			c-0.84,0.33-2.22,0.359-4.68,0.359c-0.09-0.479-0.33-1.35-0.6-1.89c1.83,0.06,3.42,0.06,3.87,0.03c0.54-0.03,0.72-0.18,0.72-0.689
			v-24.75H249.056z"/>
	</g>
</g>
</svg>
