<?xml version="1.0" encoding="utf-8"?>
<!-- Generator: Adobe Illustrator 16.0.0, SVG Export Plug-In . SVG Version: 6.00 Build 0)  -->
<!DOCTYPE svg PUBLIC "-//W3C//DTD SVG 1.1//EN" "http://www.w3.org/Graphics/SVG/1.1/DTD/svg11.dtd">
<svg version="1.1" id="圖層_1" xmlns="http://www.w3.org/2000/svg" xmlns:xlink="http://www.w3.org/1999/xlink" x="0px" y="0px"
	 width="100px" height="100px" viewBox="0 0 100 100" enable-background="new 0 0 100 100" xml:space="preserve">
<g>
	<g>
		<g>
			<g>
				<path fill="#FFFFFF" d="M46.346,2.149c-0.767,1.717-1.509,3.416-2.427,5.059c-1.438,2.571,2.453,4.848,3.948,2.308
					c1.048-1.781,2.007-3.635,2.726-5.576C51.497,1.497,47.421-0.259,46.346,2.149z"/>
			</g>
			<g>
				<path fill="#FFFFFF" d="M55.561,2.283c-1.132,1.499-2.237,2.987-3.502,4.382c-1.981,2.182,1.301,5.277,3.328,3.139
					c1.421-1.501,2.772-3.092,3.909-4.821C60.728,2.806,57.149,0.178,55.561,2.283z"/>
			</g>
			<g>
				<path fill="#FFFFFF" d="M66.155,4.749c-1.44,1.207-2.853,2.408-4.4,3.483c-2.418,1.68,0.082,5.434,2.538,3.806
					c1.723-1.142,3.398-2.389,4.895-3.82C71.072,6.42,68.177,3.056,66.155,4.749z"/>
			</g>
			<g>
				<path fill="#FFFFFF" d="M75.924,9.535c-1.677,0.854-3.322,1.706-5.069,2.404c-2.736,1.093-1.146,5.313,1.615,4.279
					c1.936-0.725,3.848-1.563,5.627-2.62C80.338,12.27,78.274,8.34,75.924,9.535z"/>
			</g>
			<g>
				<path fill="#FFFFFF" d="M84.364,16.397c-1.824,0.452-3.62,0.912-5.48,1.201c-2.911,0.449-2.31,4.919,0.611,4.533
					c2.05-0.271,4.102-0.657,6.073-1.286C88.05,20.055,86.924,15.761,84.364,16.397z"/>
			</g>
			<g>
				<path fill="#FFFFFF" d="M91.045,24.979c-1.879,0.033-3.732,0.077-5.61-0.061c-2.938-0.217-3.357,4.273-0.423,4.554
					c2.057,0.197,4.145,0.283,6.205,0.114C93.813,29.375,93.683,24.938,91.045,24.979z"/>
			</g>
			<g>
				<path fill="#FFFFFF" d="M95.624,34.848c-1.838-0.392-3.654-0.764-5.452-1.323c-2.814-0.872-4.232,3.409-1.437,4.344
					c1.96,0.654,3.974,1.206,6.021,1.506C97.335,39.75,98.203,35.399,95.624,34.848z"/>
			</g>
			<g>
				<path fill="#FFFFFF" d="M97.866,45.493c-1.702-0.796-3.388-1.568-5.016-2.517c-2.545-1.482-4.891,2.37-2.376,3.908
					c1.763,1.079,3.599,2.07,5.527,2.822C98.43,50.654,100.256,46.609,97.866,45.493z"/>
			</g>
			<g>
				<path fill="#FFFFFF" d="M97.656,56.368c-1.48-1.159-2.948-2.291-4.32-3.579c-2.148-2.018-5.3,1.208-3.196,3.273
					c1.475,1.447,3.043,2.826,4.752,3.992C97.043,61.524,99.734,57.993,97.656,56.368z"/>
			</g>
			<g>
				<path fill="#FFFFFF" d="M95.005,66.918c-1.181-1.463-2.357-2.895-3.404-4.461c-1.638-2.448-5.436-0.014-3.85,2.472
					c1.111,1.742,2.328,3.438,3.731,4.96C93.249,71.804,96.663,68.967,95.005,66.918z"/>
			</g>
			<g>
				<path fill="#FFFFFF" d="M90.049,76.601c-0.821-1.689-1.646-3.351-2.314-5.112c-1.046-2.753-5.293-1.235-4.307,1.543
					c0.691,1.947,1.495,3.874,2.52,5.672C87.237,80.967,91.203,78.972,90.049,76.601z"/>
			</g>
			<g>
				<path fill="#FFFFFF" d="M83.042,84.92c-0.422-1.831-0.851-3.635-1.105-5.5c-0.399-2.92-4.879-2.396-4.545,0.531
					c0.235,2.053,0.587,4.112,1.181,6.096C79.32,88.543,83.633,87.491,83.042,84.92z"/>
			</g>
			<g>
				<path fill="#FFFFFF" d="M74.342,91.45c0.002-1.88-0.011-3.732,0.161-5.608c0.268-2.935-4.215-3.433-4.546-0.503
					c-0.234,2.055-0.355,4.138-0.223,6.203C69.9,94.143,74.339,94.088,74.342,91.45z"/>
			</g>
			<g>
				<path fill="#FFFFFF" d="M64.396,95.857c0.424-1.832,0.83-3.641,1.418-5.43c0.921-2.798-3.335-4.292-4.316-1.513
					c-0.688,1.949-1.276,3.953-1.611,5.995C59.465,97.48,63.801,98.426,64.396,95.857z"/>
			</g>
			<g>
				<path fill="#FFFFFF" d="M53.714,97.912c0.826-1.688,1.628-3.359,2.604-4.971c1.526-2.52-2.283-4.931-3.866-2.445
					c-1.109,1.744-2.133,3.565-2.918,5.479C48.543,98.386,52.556,100.282,53.714,97.912z"/>
			</g>
			<g>
				<path fill="#FFFFFF" d="M42.844,97.514c1.185-1.46,2.342-2.91,3.655-4.258c2.054-2.112-1.117-5.319-3.218-3.253
					c-1.474,1.449-2.88,2.993-4.075,4.683C37.699,96.811,41.183,99.561,42.844,97.514z"/>
			</g>
			<g>
				<path fill="#FFFFFF" d="M32.343,94.678c1.481-1.156,2.935-2.307,4.518-3.326c2.477-1.596,0.109-5.436-2.403-3.893
					c-1.761,1.081-3.479,2.268-5.024,3.645C27.487,92.837,30.263,96.299,32.343,94.678z"/>
			</g>
			<g>
				<path fill="#FFFFFF" d="M22.747,89.553c1.706-0.792,3.38-1.587,5.152-2.224c2.771-0.998,1.329-5.271-1.467-4.334
					c-1.959,0.656-3.899,1.429-5.715,2.421C18.431,86.667,20.355,90.665,22.747,89.553z"/>
			</g>
			<g>
				<path fill="#FFFFFF" d="M14.551,82.401c1.839-0.389,3.65-0.785,5.52-1.009c2.924-0.348,2.479-4.835-0.454-4.552
					c-2.058,0.199-4.121,0.514-6.114,1.073C10.995,78.617,11.97,82.947,14.551,82.401z"/>
			</g>
			<g>
				<path fill="#FFFFFF" d="M8.174,73.59c1.879,0.035,3.733,0.055,5.604,0.259c2.93,0.317,3.504-4.155,0.583-4.538
					c-2.049-0.269-4.131-0.426-6.199-0.33C5.56,69.104,5.537,73.541,8.174,73.59z"/>
			</g>
			<g>
				<path fill="#FFFFFF" d="M3.942,63.568c1.823,0.456,3.625,0.894,5.402,1.515c2.782,0.968,4.349-3.261,1.588-4.292
					c-1.936-0.722-3.93-1.346-5.964-1.716C2.404,58.609,1.384,62.929,3.942,63.568z"/>
			</g>
			<g>
				<path fill="#FFFFFF" d="M2.072,52.854c1.674,0.854,3.332,1.684,4.926,2.689c2.492,1.57,4.971-2.199,2.511-3.824
					c-1.724-1.139-3.526-2.194-5.426-3.014C1.689,47.675-0.276,51.652,2.072,52.854z"/>
			</g>
			<g>
				<path fill="#FFFFFF" d="M2.663,41.991c1.438,1.21,2.866,2.392,4.192,3.729c2.076,2.091,5.338-1.023,3.308-3.16
					c-1.424-1.499-2.942-2.932-4.61-4.157C3.454,36.86,0.643,40.294,2.663,41.991z"/>
			</g>
			<g>
				<path fill="#FFFFFF" d="M5.68,31.54c1.129,1.502,2.255,2.976,3.247,4.577c1.551,2.505,5.431,0.205,3.934-2.336
					c-1.051-1.778-2.207-3.518-3.556-5.087C7.605,26.717,4.094,29.435,5.68,31.54z"/>
			</g>
			<g>
				<path fill="#FFFFFF" d="M10.97,22.036c0.763,1.718,1.529,3.408,2.135,5.19c0.949,2.789,5.246,1.421,4.358-1.39
					c-0.623-1.97-1.36-3.924-2.32-5.756C13.933,17.772,9.899,19.626,10.97,22.036z"/>
			</g>
			<g>
				<path fill="#FFFFFF" d="M18.264,13.966c0.357,1.845,0.724,3.663,0.913,5.536c0.298,2.931,4.792,2.563,4.559-0.375
					c-0.162-2.06-0.44-4.129-0.966-6.13C22.11,10.477,17.763,11.377,18.264,13.966z"/>
			</g>
			<g>
				<path fill="#FFFFFF" d="M27.187,7.743c-0.066,1.879-0.12,3.732-0.355,5.6c-0.371,2.923,4.092,3.578,4.525,0.662
					c0.305-2.045,0.499-4.123,0.438-6.192C31.718,5.208,27.281,5.107,27.187,7.743z"/>
			</g>
			<g>
				<path fill="#FFFFFF" d="M37.28,3.687c-0.489,1.816-0.957,3.61-1.607,5.376c-1.018,2.765,3.184,4.406,4.263,1.662
					c0.755-1.923,1.413-3.905,1.818-5.934C42.266,2.237,37.966,1.14,37.28,3.687z"/>
			</g>
		</g>
	</g>
	<g>
		<path fill="#FFFFFF" d="M37.365,29.018c-0.566,1.427-1.271,2.855-2.053,4.165v13.18h-1.388V35.295
			c-0.646,0.9-1.35,1.721-2.034,2.425c-0.156-0.313-0.567-1.075-0.821-1.408c1.937-1.858,3.813-4.752,4.928-7.705L37.365,29.018z
			 M40.866,40.672c-0.92,1.643-2.21,3.54-3.305,4.791c-0.254-0.235-0.821-0.646-1.134-0.841c1.114-1.134,2.327-2.855,3.147-4.361
			L40.866,40.672z M43.683,39.304v7.118h-1.447v-7.118h-5.651v-1.33h5.651v-2.327h-4.224v-6.179h10.07v6.179h-4.399v2.327h5.533
			v1.33H43.683z M39.38,34.356h7.255v-3.579H39.38V34.356z M45.892,40.242c1.251,1.388,2.679,3.207,3.383,4.38l-1.173,0.723
			c-0.665-1.192-2.093-3.109-3.324-4.497L45.892,40.242z"/>
		<path fill="#FFFFFF" d="M56.921,29.839c-0.547,1.584-1.212,3.52-1.838,5.084c1.33,1.604,1.643,3.012,1.643,4.204
			c0,1.056-0.215,1.897-0.724,2.288c-0.255,0.196-0.605,0.313-0.978,0.372c-0.371,0.039-0.841,0.039-1.231,0.02
			c-0.021-0.372-0.137-0.919-0.372-1.291c0.45,0.039,0.782,0.039,1.095,0.02c0.216,0,0.431-0.059,0.567-0.176
			c0.273-0.215,0.392-0.743,0.392-1.35c0-1.056-0.333-2.405-1.624-3.95c0.528-1.389,1.076-3.09,1.428-4.4h-2.327v15.702H51.7V29.351
			h4.106l0.215-0.078L56.921,29.839z M60.44,40.946c-0.156,0.489-0.352,0.998-0.566,1.447c0.821,0.509,1.74,1.212,2.19,1.701
			l-0.763,0.978c-0.411-0.489-1.232-1.134-1.976-1.701c-0.782,1.271-1.799,2.327-2.933,3.109c-0.196-0.254-0.685-0.724-0.997-0.958
			c1.798-1.056,3.108-2.737,3.734-4.85L60.44,40.946z M59.503,32.987c-0.666,0.509-1.369,0.958-2.093,1.369
			c-0.216-0.274-0.665-0.743-0.979-0.958c2.347-1.232,4.459-3.168,5.555-4.987l1.407,0.45c-0.137,0.215-0.273,0.431-0.43,0.646
			c1.466,1.369,3.91,2.699,5.905,3.402c-0.255,0.352-0.548,0.939-0.665,1.311c-1.995-0.86-4.361-2.308-5.964-3.754
			c-0.782,0.899-1.682,1.74-2.679,2.483h5.769v1.173h-5.827V32.987z M57.469,35.53h4.38v4.693h-4.38V35.53z M58.584,39.167h2.092
			v-2.561h-2.092V39.167z M65.877,40.849c-0.117,0.586-0.273,1.173-0.488,1.701c1.231,0.782,2.64,1.838,3.363,2.601l-0.86,0.978
			c-0.665-0.685-1.878-1.682-3.031-2.484c-0.587,1.134-1.389,2.073-2.366,2.777c-0.195-0.254-0.665-0.723-0.978-0.958
			c1.584-1.037,2.62-2.699,3.051-4.811L65.877,40.849z M63.062,35.53h4.458v4.693h-4.458V35.53z M64.176,39.167h2.17v-2.561h-2.17
			V39.167z"/>
		<path fill="#FFFFFF" d="M34.53,63.521c-0.469,1.388-1.29,2.913-2.014,3.891c-0.235-0.176-0.724-0.547-1.017-0.703
			c0.763-0.919,1.446-2.249,1.838-3.52L34.53,63.521z M36.936,62.151v6.785h-1.427v-6.785h-3.893v-1.252h3.893v-2.053H31.52v-1.231
			h5.396c0.371-0.9,0.821-2.19,1.056-3.09l1.33,0.274c-0.353,0.938-0.724,1.994-1.096,2.815h2.484v1.231h-3.755v2.053h3.539v1.252
			H36.936z M40.396,54.408h-8.564v-1.212h3.833c-0.255-0.587-0.587-1.252-0.861-1.78l1.408-0.371
			c0.411,0.664,0.841,1.505,1.096,2.151h3.089V54.408z M33.847,57.537c-0.099-0.724-0.411-1.858-0.743-2.719l1.153-0.273
			c0.391,0.841,0.724,1.936,0.802,2.659L33.847,57.537z M38.813,63.07c0.626,0.959,1.311,2.229,1.643,3.07l-1.036,0.586
			c-0.313-0.84-1.017-2.189-1.604-3.128L38.813,63.07z M49.235,59.062h-2.151v9.855h-1.407v-9.855h-2.679v0.685
			c0,2.797-0.255,6.63-2.034,9.171c-0.234-0.273-0.802-0.723-1.114-0.88c1.643-2.346,1.799-5.69,1.799-8.291V53.02
			c2.19-0.352,4.693-0.938,6.081-1.525l1.174,1.076c-1.604,0.605-3.853,1.095-5.905,1.407v3.716h6.237V59.062z"/>
		<path fill="#FFFFFF" d="M56.53,58.339c0,0.195,0,0.43-0.02,0.664h3.676v1.389h-3.755c-0.038,0.43-0.116,0.88-0.194,1.311
			c0.919,0.919,3.284,3.559,3.891,4.243l-0.978,1.231c-0.665-0.958-2.19-2.796-3.246-3.988c-0.626,2.072-1.818,4.185-4.048,5.769
			c-0.195-0.313-0.703-0.861-1.017-1.076c2.973-2.111,3.892-4.928,4.146-7.489h-3.931v-1.389h4.028c0-0.234,0-0.469,0-0.685v-3.206
			h-1.486c-0.469,1.173-0.978,2.229-1.584,3.069c-0.254-0.254-0.859-0.645-1.192-0.841c1.153-1.505,1.955-3.832,2.425-6.198
			l1.408,0.273c-0.156,0.821-0.372,1.604-0.606,2.347h5.572v1.35H56.53V58.339z M67.793,52.844v15.408h-1.447v-1.349h-4.125v1.545
			h-1.408V52.844H67.793z M66.346,65.534V54.212h-4.125v11.322H66.346z"/>
	</g>
</g>
</svg>
