<?xml version="1.0" encoding="UTF-8" standalone="no"?>
<!-- Generator: Adobe Illustrator 16.0.0, SVG Export Plug-In . SVG Version: 6.00 Build 0)  -->
<!DOCTYPE svg  PUBLIC '-//W3C//DTD SVG 1.1//EN'  'http://www.w3.org/Graphics/SVG/1.1/DTD/svg11.dtd'>
<svg id="Layer_1" xmlns="http://www.w3.org/2000/svg" xml:space="preserve" height="36px" viewBox="0 0 36 36" width="36px" version="1.1" y="0px" x="0px" xmlns:xlink="http://www.w3.org/1999/xlink" enable-background="new 0 0 36 36">
<g fill="#fff">
	<path d="m36 23.818h-1.758v-2.851c0-0.53-0.188-0.962-0.564-1.294s-0.852-0.541-1.426-0.63l-19.707-1.923h-0.133c-0.354 0-0.652 0.122-0.896 0.365-0.242 0.243-0.365 0.542-0.365 0.896v3.848h-5.044c-0.84 0-1.26 0.344-1.26 1.029 0 0.23 0.065 0.407 0.16 0.561h-2.124v-18.124h6.618c0.046 0.735 0.65 1.318 1.397 1.318h12.656c0.746 0 1.352-0.583 1.397-1.318h2.382c0.606 0 1.099-0.492 1.099-1.099 0-0.606-0.492-1.099-1.099-1.099h-26.234c-0.607 0.001-1.099 0.493-1.099 1.1 0 0.146 0.031 0.285 0.083 0.412-0.044 0.137-0.083 0.275-0.083 0.423v27.035h1.67v0.035h32.959v-0.035h1.371v-8.649zm-2.883 2.883v4.395h-30.234v-4.395h30.234z"/>
	<path d="m5.512 16.522c-0.487 0.486-0.73 1.073-0.73 1.759s0.243 1.271 0.73 1.758c0.486 0.486 1.072 0.73 1.758 0.73s1.283-0.244 1.791-0.73c0.51-0.486 0.764-1.072 0.764-1.758 0-0.687-0.254-1.272-0.764-1.759-0.508-0.487-1.105-0.73-1.791-0.73s-1.272 0.244-1.758 0.73z"/>
	<path d="m13.393 9.822c-0.178 0-0.356 0.069-0.492 0.205-0.271 0.271-0.271 0.712 0 0.986 2.42 2.422 6.359 2.422 8.779 0 0.271-0.271 0.271-0.712 0-0.986-0.271-0.271-0.713-0.271-0.986 0-1.877 1.877-4.932 1.877-6.809 0-0.137-0.135-0.315-0.205-0.492-0.205z"/>
	<path d="m19.797 9.131c0.271-0.271 0.271-0.712 0-0.987-0.271-0.271-0.712-0.271-0.986 0-0.838 0.84-2.204 0.84-3.041 0-0.136-0.135-0.314-0.205-0.492-0.205s-0.356 0.069-0.492 0.205c-0.271 0.271-0.271 0.713 0 0.984 1.379 1.386 3.628 1.386 5.011 0.003z"/>
	<path d="m11.48 11.737c-0.178 0-0.355 0.069-0.492 0.205-0.271 0.271-0.271 0.712 0 0.986 3.476 3.472 9.128 3.472 12.603 0 0.271-0.271 0.271-0.712 0-0.986-0.271-0.271-0.712-0.271-0.986 0-2.93 2.933-7.699 2.933-10.632 0-0.136-0.136-0.315-0.205-0.493-0.205z"/>
</g>
</svg>
