<?xml version="1.0" encoding="UTF-8" standalone="no"?>
<!-- Generator: Adobe Illustrator 16.0.0, SVG Export Plug-In . SVG Version: 6.00 Build 0)  -->
<!DOCTYPE svg  PUBLIC '-//W3C//DTD SVG 1.1//EN'  'http://www.w3.org/Graphics/SVG/1.1/DTD/svg11.dtd'>
<svg id="圖層_1" xmlns="http://www.w3.org/2000/svg" xml:space="preserve" height="36px" viewBox="0 0 36 36" width="36px" version="1.1" y="0px" x="0px" xmlns:xlink="http://www.w3.org/1999/xlink" enable-background="new 0 0 36 36">
<g fill="#fff" clip-rule="evenodd" fill-rule="evenodd">
	<path d="m11.745 7.484h11.283c1.813 0.265 2.93 1.322 3.584 3.004 0.661 1.701 1.423 3.363 2.123 5.049 0.138 0.332 0.319 0.47 0.687 0.452 0.599-0.029 1.2-0.016 1.801-0.006 0.913 0.015 1.762 0.259 2.537 0.75 1.238 0.785 1.937 1.93 2.241 3.34v5.68c-0.224 0.401-0.575 0.555-1.021 0.548-0.563-0.009-1.125 0.009-1.688-0.008-0.659-0.02-0.973-0.347-0.999-1.007-0.099-2.475-2.695-4.057-4.924-2.982-1.297 0.624-1.909 1.715-2.009 3.124-0.035 0.503-0.276 0.771-0.771 0.846-0.188 0.029-0.382 0.025-0.573 0.025-2.8 0.001-5.6 0.001-8.4 0.001-0.934 0-1.867 0.008-2.8-0.005-0.691-0.01-0.972-0.268-1.024-0.959-0.19-2.51-2.393-3.635-4.072-3.331-1.511 0.273-2.796 1.656-2.856 3.22-0.029 0.754-0.338 1.065-1.093 1.072-0.908 0.009-1.815-0.003-2.723 0.004-0.483 0.002-0.848-0.168-1.048-0.625v-5.373c0.219-1.418 0.871-2.578 2.045-3.423 1.011-0.728 2.156-0.967 3.376-0.894 0.347 0.021 0.526-0.104 0.66-0.429 0.709-1.711 1.479-3.399 2.155-5.123 0.646-1.64 1.755-2.661 3.509-2.95zm6.547 13.642c0 0.997 0.012 1.995-0.006 2.992-0.006 0.358 0.126 0.463 0.473 0.459 1.458-0.014 2.916-0.022 4.373 0.005 0.432 0.008 0.61-0.11 0.73-0.546 0.828-3.017 4.084-4.6 6.967-3.395 1.604 0.67 2.605 1.884 3.053 3.561 0.038 0.142 0.039 0.351 0.24 0.341 0.215-0.011 0.178-0.219 0.178-0.363 0.003-1.138-0.005-2.276 0.003-3.414 0.003-0.332-0.131-0.446-0.46-0.439-0.806 0.017-1.611-0.005-2.417 0.009-0.472 0.008-0.773-0.193-0.939-0.631-0.215-0.561-0.447-1.115-0.66-1.676-0.084-0.223-0.218-0.317-0.459-0.315-1.036 0.008-2.071 0.007-3.107 0.001-0.262-0.001-0.368 0.106-0.364 0.367 0.009 0.486 0.012 0.973-0.003 1.458-0.015 0.475-0.341 0.78-0.811 0.79-0.523 0.011-0.854-0.297-0.896-0.886-0.03-0.42-0.027-0.844-0.011-1.266 0.015-0.349-0.118-0.471-0.469-0.468-1.649 0.013-3.299 0.013-4.949 0-0.348-0.003-0.478 0.106-0.471 0.463 0.017 0.984 0.005 1.969 0.005 2.953zm-13.753 0.708c0.206-0.178 0.356-0.316 0.516-0.442 1.231-0.977 2.635-1.356 4.17-1.059 2.145 0.416 3.511 1.729 4.104 3.826 0.091 0.323 0.229 0.428 0.553 0.419 0.754-0.021 1.509-0.015 2.263-0.003 0.292 0.005 0.414-0.093 0.412-0.397-0.008-2.021-0.008-4.041 0-6.061 0.001-0.299-0.111-0.406-0.407-0.405-1.752 0.008-3.503 0.008-5.255 0-0.31-0.002-0.442 0.099-0.43 0.421 0.018 0.459 0.011 0.92 0.001 1.38-0.011 0.498-0.335 0.813-0.821 0.816-0.509 0.005-0.834-0.311-0.843-0.832-0.008-0.473-0.01-0.946 0-1.419 0.005-0.264-0.107-0.366-0.367-0.364-1.278 0.007-2.557-0.007-3.835 0.013-0.464 0.007-0.904 0.154-1.348 0.455 1.114 0.141 1.286 0.34 1.288 1.416 0 0.727-0.001 1.453-0.001 2.236zm12.877-12.634h-4.947c-1.297 0-2.032 0.492-2.542 1.698-0.623 1.471-1.245 2.942-1.871 4.411-0.311 0.729-0.338 0.648 0.448 0.682 0.414 0.017 0.615-0.129 0.759-0.513 0.449-1.196 0.927-2.381 1.408-3.565 0.508-1.25 1.521-1.925 2.854-1.925 2.569-0.001 5.14 0.032 7.709-0.013 1.403-0.025 2.515 0.843 2.96 2.014 0.409 1.075 0.837 2.142 1.271 3.207 0.375 0.92 0.164 0.761 1.171 0.79 0.338 0.01 0.399-0.081 0.266-0.392-0.7-1.619-1.382-3.245-2.076-4.866-0.44-1.027-1.233-1.528-2.347-1.528-1.688-0.001-3.376 0-5.063 0zm-3.697 6.781c0.805 0 1.609-0.009 2.413 0.005 0.314 0.005 0.429-0.109 0.426-0.425-0.012-1.136-0.014-2.273 0.001-3.409 0.004-0.341-0.133-0.445-0.455-0.44-0.855 0.013-1.711 0.016-2.566 0.001-0.617-0.011-1.026 0.279-1.251 0.825-0.423 1.026-0.818 2.064-1.238 3.092-0.119 0.292-0.019 0.358 0.258 0.355 0.803-0.009 1.608-0.004 2.412-0.004zm7.371 0c0.817 0 1.636-0.004 2.453 0.003 0.252 0.002 0.361-0.049 0.246-0.33-0.425-1.04-0.825-2.09-1.255-3.128-0.22-0.53-0.615-0.823-1.22-0.813-0.855 0.014-1.712 0.011-2.568-0.001-0.318-0.004-0.464 0.092-0.46 0.437 0.014 1.137 0.012 2.274 0 3.411-0.003 0.315 0.111 0.432 0.427 0.426 0.793-0.014 1.585-0.005 2.377-0.005zm-17.095 6.513c-0.679 0.072-1.3 0.038-1.919 0.044-0.258 0.002-0.37 0.111-0.365 0.37 0.008 0.407 0.016 0.815-0.003 1.223-0.015 0.326 0.101 0.481 0.439 0.445 0.101-0.011 0.204-0.002 0.305-0.002 0.698 0 0.704 0.002 0.896-0.66 0.142-0.488 0.396-0.924 0.647-1.42zm-1.831-1.694c0.394 0.027 0.667 0.046 0.659-0.418-0.007-0.374-0.162-0.453-0.49-0.441-0.476 0.019-0.603 0.118-0.609 0.567-0.007 0.413 0.312 0.267 0.44 0.292zm31.143-2.206c-0.551-0.546-1.211-0.836-1.67-0.772 0.145 0.587 0.224 0.752 0.454 0.766 0.378 0.023 0.758 0.006 1.216 0.006z"/>
	<path d="m7.907 28.516c-1.496-0.313-2.422-1.189-2.68-2.72-0.285-1.69 1.18-3.39 2.889-3.463 1.696-0.072 2.851 1.062 3.182 2.246 0.476 1.703-0.552 3.444-2.288 3.871-0.086 0.021-0.172 0.044-0.259 0.065-0.281 0.001-0.563 0.001-0.844 0.001zm0.385-1.718c0.762 0.007 1.394-0.62 1.391-1.381-0.002-0.743-0.62-1.377-1.356-1.392-0.734-0.015-1.387 0.643-1.39 1.398-0.004 0.745 0.611 1.369 1.355 1.375z"/>
	<path d="m28.401 28.516c-1.351-0.304-2.272-1.071-2.589-2.456-0.432-1.888 1.026-3.709 2.956-3.714 1.711-0.004 3.01 1.156 3.179 2.839 0.154 1.551-0.963 2.969-2.593 3.293-0.037 0.007-0.072 0.025-0.108 0.038h-0.845zm1.814-3.068c0.008-0.761-0.616-1.41-1.365-1.421-0.724-0.011-1.36 0.621-1.379 1.367-0.019 0.759 0.605 1.4 1.366 1.404 0.746 0.004 1.371-0.608 1.378-1.35z"/>
</g>
</svg>
