<?xml version="1.0" encoding="UTF-8" standalone="no"?>
<!-- Generator: Adobe Illustrator 16.0.0, SVG Export Plug-In . SVG Version: 6.00 Build 0)  -->
<!DOCTYPE svg  PUBLIC '-//W3C//DTD SVG 1.1//EN'  'http://www.w3.org/Graphics/SVG/1.1/DTD/svg11.dtd'>
<svg id="圖層_1" xmlns="http://www.w3.org/2000/svg" xml:space="preserve" height="36px" viewBox="0 0 36 36" width="36px" version="1.1" y="0px" x="0px" xmlns:xlink="http://www.w3.org/1999/xlink" enable-background="new 0 0 36 36">
<path d="m30.549 13.488l-13.683 13.535c-0.32 0.314-0.705 0.473-1.16 0.473-0.437 0-0.814-0.158-1.134-0.473l-9.122-9.022c-0.302-0.3-0.453-0.674-0.453-1.122 0-0.466 0.151-0.848 0.453-1.147l2.292-2.243c0.32-0.314 0.698-0.473 1.135-0.473 0.438 0 0.815 0.158 1.134 0.473l5.695 5.633 10.282-10.144c0.318-0.315 0.697-0.474 1.133-0.474 0.438 0 0.816 0.158 1.135 0.474l2.293 2.243c0.303 0.299 0.454 0.682 0.454 1.146 0 0.449-0.151 0.822-0.454 1.121z" fill="#fff"/>
</svg>
