<?xml version="1.0" encoding="UTF-8" standalone="no"?>
<!-- Generator: Adobe Illustrator 16.0.0, SVG Export Plug-In . SVG Version: 6.00 Build 0)  -->
<!DOCTYPE svg  PUBLIC '-//W3C//DTD SVG 1.1//EN'  'http://www.w3.org/Graphics/SVG/1.1/DTD/svg11.dtd'>
<svg id="Capa_1" xmlns="http://www.w3.org/2000/svg" xml:space="preserve" height="32px" viewBox="0 0 32 32" width="32px" version="1.1" y="0px" x="0px" xmlns:xlink="http://www.w3.org/1999/xlink" enable-background="new 0 0 32 32">
<path d="m23.594 5.875h-4.219c0-1.861-1.514-3.375-3.375-3.375s-3.375 1.514-3.375 3.375h-4.219c-1.397 0-2.531 1.134-2.531 2.531v18.563c0 1.398 1.134 2.531 2.531 2.531h15.188c1.397 0 2.531-1.133 2.531-2.531v-18.563c0-1.397-1.134-2.531-2.531-2.531zm-12.656 18.984c-0.701 0-1.266-0.564-1.266-1.266s0.564-1.266 1.266-1.266 1.266 0.564 1.266 1.266-0.565 1.266-1.266 1.266zm0-5.062c-0.701 0-1.266-0.564-1.266-1.266s0.564-1.266 1.266-1.266 1.266 0.564 1.266 1.266-0.565 1.266-1.266 1.266zm0-5.063c-0.701 0-1.266-0.564-1.266-1.266s0.564-1.266 1.266-1.266 1.266 0.564 1.266 1.266-0.565 1.266-1.266 1.266zm5.062-10.125c0.701 0 1.266 0.564 1.266 1.266s-0.565 1.266-1.266 1.266-1.266-0.564-1.266-1.266 0.565-1.266 1.266-1.266zm6.75 19.407c0 0.232-0.189 0.422-0.422 0.422h-7.594c-0.232 0-0.422-0.189-0.422-0.422v-0.844c0-0.232 0.19-0.422 0.422-0.422h7.594c0.232 0 0.422 0.189 0.422 0.422v0.844zm0-5.063c0 0.232-0.189 0.422-0.422 0.422h-7.594c-0.232 0-0.422-0.189-0.422-0.422v-0.844c0-0.232 0.19-0.422 0.422-0.422h7.594c0.232 0 0.422 0.189 0.422 0.422v0.844zm0-5.062c0 0.232-0.189 0.422-0.422 0.422h-7.594c-0.232 0-0.422-0.189-0.422-0.422v-0.844c0-0.231 0.19-0.422 0.422-0.422h7.594c0.232 0 0.422 0.19 0.422 0.422v0.844z" fill="#666"/>
</svg>
