<?xml version="1.0" encoding="utf-8"?>
<!-- Generator: Adobe Illustrator 16.0.0, SVG Export Plug-In . SVG Version: 6.00 Build 0)  -->
<!DOCTYPE svg PUBLIC "-//W3C//DTD SVG 1.1//EN" "http://www.w3.org/Graphics/SVG/1.1/DTD/svg11.dtd">
<svg version="1.1" id="Capa_1" xmlns="http://www.w3.org/2000/svg" xmlns:xlink="http://www.w3.org/1999/xlink" x="0px" y="0px"
	 width="24px" height="24px" viewBox="408.945 583.275 24 24" enable-background="new 408.945 583.275 24 24" xml:space="preserve">
<g>
	<path fill="#FFFFFF" d="M423.067,595.275l9.438-9.438c0.586-0.586,0.586-1.537,0-2.123c-0.587-0.586-1.536-0.586-2.123,0
		l-9.437,9.438l-9.438-9.438c-0.586-0.586-1.536-0.586-2.122,0s-0.586,1.537,0,2.123l9.438,9.438l-9.438,9.438
		c-0.586,0.586-0.586,1.536,0,2.122c0.293,0.293,0.677,0.439,1.061,0.439s0.768-0.146,1.061-0.439l9.438-9.438l9.437,9.438
		c0.294,0.293,0.678,0.439,1.062,0.439s0.768-0.146,1.062-0.439c0.586-0.586,0.586-1.537,0-2.123L423.067,595.275z"/>
</g>
</svg>
