<?xml version="1.0" encoding="UTF-8" standalone="no"?>
<!-- Generator: Adobe Illustrator 16.0.0, SVG Export Plug-In . SVG Version: 6.00 Build 0)  -->
<!DOCTYPE svg  PUBLIC '-//W3C//DTD SVG 1.1//EN'  'http://www.w3.org/Graphics/SVG/1.1/DTD/svg11.dtd'>
<svg id="Capa_1" xmlns="http://www.w3.org/2000/svg" xml:space="preserve" height="32px" viewBox="0 0 32 32" width="32px" version="1.1" y="0px" x="0px" xmlns:xlink="http://www.w3.org/1999/xlink" enable-background="new 0 0 32 32">
<path d="m22.667 12.666c0-4.604-4.851-8.333-10.833-8.333-5.985 0-10.834 3.73-10.834 8.333 0 1.787 0.734 3.433 1.979 4.792-0.698 1.573-1.849 2.823-1.864 2.839-0.115 0.12-0.146 0.297-0.078 0.453 0.067 0.156 0.213 0.25 0.38 0.25 1.906 0 3.484-0.641 4.62-1.303 1.676 0.819 3.661 1.303 5.796 1.303 5.983 0 10.834-3.729 10.834-8.334zm6.354 11.459c1.245-1.354 1.979-3.005 1.979-4.792 0-3.484-2.786-6.469-6.734-7.714 0.047 0.344 0.067 0.693 0.067 1.047 0 5.518-5.608 10.001-12.5 10.001-0.563 0-1.109-0.042-1.651-0.101 1.641 2.996 5.495 5.101 9.985 5.101 2.135 0 4.119-0.479 5.797-1.304 1.136 0.662 2.713 1.304 4.619 1.304 0.167 0 0.317-0.101 0.381-0.25 0.067-0.151 0.036-0.328-0.077-0.453-0.017-0.017-1.168-1.261-1.866-2.839z" fill="#00823A"/>
</svg>
