<?xml version="1.0" encoding="utf-8"?>
<!-- Generator: Adobe Illustrator 16.0.0, SVG Export Plug-In . SVG Version: 6.00 Build 0)  -->
<!DOCTYPE svg PUBLIC "-//W3C//DTD SVG 1.1//EN" "http://www.w3.org/Graphics/SVG/1.1/DTD/svg11.dtd">
<svg version="1.1" id="Layer_1" xmlns="http://www.w3.org/2000/svg" xmlns:xlink="http://www.w3.org/1999/xlink" x="0px" y="0px"
	 width="17px" height="13px" viewBox="14 11 17 13" enable-background="new 14 11 17 13" xml:space="preserve">
<g>
	<g>
		<path fill="#FFFFFF" d="M30.576,17.815c-0.097,0-0.192-0.037-0.267-0.11l-6.062-6.063c-0.147-0.147-0.147-0.385,0-0.533
			s0.386-0.147,0.533,0l6.062,6.063c0.148,0.147,0.148,0.385,0,0.533C30.77,17.779,30.673,17.815,30.576,17.815z"/>
	</g>
	<g>
		<path fill="#FFFFFF" d="M24.426,24c-0.096,0-0.192-0.037-0.266-0.111c-0.146-0.146-0.146-0.385,0-0.532l6.063-6.062
			c0.147-0.147,0.385-0.147,0.532,0c0.147,0.148,0.147,0.386,0,0.533l-6.062,6.062C24.619,23.963,24.523,24,24.426,24z"/>
	</g>
	<g>
		<path fill="#FFFFFF" d="M30.576,17.815H14.423c-0.208,0-0.377-0.168-0.377-0.376s0.169-0.377,0.377-0.377h16.153
			c0.209,0,0.377,0.169,0.377,0.377S30.785,17.815,30.576,17.815z"/>
	</g>
</g>
</svg>
