<?xml version="1.0" encoding="UTF-8" standalone="no"?>
<!-- Generator: Adobe Illustrator 16.0.0, SVG Export Plug-In . SVG Version: 6.00 Build 0)  -->
<!DOCTYPE svg  PUBLIC '-//W3C//DTD SVG 1.1//EN'  'http://www.w3.org/Graphics/SVG/1.1/DTD/svg11.dtd'>
<svg id="Layer_1" xmlns="http://www.w3.org/2000/svg" xml:space="preserve" height="36px" viewBox="0 0 36 36" width="36px" version="1.1" y="0px" x="0px" xmlns:xlink="http://www.w3.org/1999/xlink" enable-background="new 0 0 36 36">
	<g fill="#fff">
		<path d="m17.011 17.621c-2.839 0-5.148 2.31-5.148 5.148s2.309 5.148 5.148 5.148 5.147-2.31 5.147-5.148-2.308-5.148-5.147-5.148zm0 9.013c-2.131 0-3.864-1.733-3.864-3.864 0-2.13 1.733-3.863 3.864-3.863s3.864 1.733 3.864 3.863c0 2.13-1.733 3.864-3.864 3.864z"/>
		<path d="m29.525 17.909l-0.441-2.581c-0.075-0.44-0.457-0.763-0.904-0.763h-9.384c-0.575-0.125-1.173-0.191-1.785-0.191-0.743 0-1.464 0.098-2.15 0.28v-1.657h16.483c0.507 0 0.918-0.41 0.918-0.917s-0.411-0.918-0.918-0.918h-16.484v-5.41c0-0.507-0.411-0.917-0.917-0.917h-3.164c-0.506 0-0.917 0.411-0.917 0.917s0.411 0.917 0.917 0.917h2.247v8.712c-2.625 1.422-4.411 4.2-4.411 7.388 0 4.629 3.766 8.396 8.396 8.396 3.616 0 6.707-2.299 7.886-5.513h3.948v0.664c0 0.009 0.001 0.017 0.001 0.025-0.926 0.366-1.584 1.27-1.584 2.324 0 1.378 1.122 2.499 2.5 2.499s2.5-1.121 2.5-2.499c0-1.055-0.658-1.958-1.584-2.324 0-0.009 0.002-0.017 0.002-0.025v-1.658c0-0.136-0.092-0.533-0.092-0.533l0.51 1.021c0.156 0.311 0.474 0.507 0.821 0.507h3.163c0.508 0 0.918-0.41 0.918-0.917s-0.41-0.918-0.918-0.918h-2.596l-2.961-5.909zm-12.514 11.421c-3.617 0-6.561-2.943-6.561-6.561s2.943-6.561 6.561-6.561c3.618 0 6.561 2.943 6.561 6.561s-2.943 6.561-6.561 6.561zm8.33-5.513c0.044-0.343 0.065-0.693 0.065-1.048 0-2.545-1.139-4.828-2.932-6.369h4.932l1.268 7.417h-3.333zm4.421 5.513c-0.366 0-0.664-0.298-0.664-0.664 0-0.367 0.298-0.665 0.664-0.665s0.664 0.298 0.664 0.665c0 0.366-0.298 0.664-0.664 0.664z"/>
	</g>
		<path d="m7.237 5.536c0-0.355-0.288-0.643-0.643-0.643h-5.951c-0.355 0-0.643 0.288-0.643 0.643 0 0.337 0.262 0.612 0.593 0.638v9.291c0 0.078 0.014 0.155 0.042 0.228l1.264 3.338c0.094 0.25 0.334 0.415 0.601 0.415h0.476v9.319c-0.159 0.105-0.273 0.274-0.304 0.475l-0.169 1.124c-0.064 0.423 0.263 0.803 0.69 0.803h0.851c0.427 0 0.754-0.38 0.691-0.803l-0.17-1.124c-0.03-0.2-0.145-0.369-0.303-0.475v-9.319h0.475c0.268 0 0.506-0.165 0.601-0.414l1.264-3.33c0.028-0.073 0.042-0.151 0.042-0.229v-9.3c0.331-0.026 0.593-0.3 0.593-0.637zm-1.88 6.362h-3.478v-5.72h3.479v5.72zm-1.064 6.261h-1.349l-1.065-2.813v-2.676h3.479v2.684l-1.065 2.805z" fill="#fff"/>
</svg>
