<?xml version="1.0" encoding="UTF-8" standalone="no"?>
<!-- Generator: Adobe Illustrator 16.0.0, SVG Export Plug-In . SVG Version: 6.00 Build 0)  -->
<!DOCTYPE svg  PUBLIC '-//W3C//DTD SVG 1.1//EN'  'http://www.w3.org/Graphics/SVG/1.1/DTD/svg11.dtd'>
<svg id="圖層_1" xmlns="http://www.w3.org/2000/svg" xml:space="preserve" height="24px" viewBox="0 0 24 24" width="24px" version="1.1" y="0px" x="0px" xmlns:xlink="http://www.w3.org/1999/xlink" enable-background="new 0 0 24 24">
<path d="m11.46 12c0 0.323-0.326 0.555-0.326 0.555l-8.417 5.731c-0.669 0.443-1.218 0.116-1.218-0.723v-11.127c0-0.839 0.549-1.165 1.218-0.723l8.417 5.733s0.326 0.231 0.326 0.554z" fill="#fff"/>
<path d="m22.961 12c0 0.323-0.326 0.555-0.326 0.555l-8.417 5.731c-0.669 0.443-1.218 0.116-1.218-0.723v-11.127c0-0.839 0.549-1.165 1.218-0.723l8.417 5.733s0.326 0.231 0.326 0.554z" fill="#fff"/>
</svg>
