<?xml version="1.0" encoding="UTF-8" standalone="no"?>
<!-- Generator: Adobe Illustrator 16.0.0, SVG Export Plug-In . SVG Version: 6.00 Build 0)  -->
<!DOCTYPE svg  PUBLIC '-//W3C//DTD SVG 1.1//EN'  'http://www.w3.org/Graphics/SVG/1.1/DTD/svg11.dtd'>
<svg id="Isolation_Mode" xmlns="http://www.w3.org/2000/svg" xml:space="preserve" height="36px" viewBox="0 0 36 36" width="36px" version="1.1" y="0px" x="0px" xmlns:xlink="http://www.w3.org/1999/xlink" enable-background="new 0 0 36 36">
		<path d="m13.926 21.535c0.862-0.874 1.501-2.052 1.88-3.178 0.523-0.211 0.946-0.747 1.106-1.39 0.151-0.595 0.499-1.988-0.268-2.415v-0.999c0.052-1.76-0.201-2.256-1.925-3.526-0.368-0.271-0.446-0.179-0.451-0.25l-0.07-0.776-0.907 0.453c-0.407 0.384-2.064 0.062-3.267 0.182l-0.574 0.088c-3.678 0.578-4.232 1.89-4.232 2.992 0 0.256 0.017 0.527 0.017 0.818l0.027 0.899c-0.551 0.362-0.679 1.225-0.367 2.498 0.155 0.636 0.604 1.171 1.09 1.317 0.235 0.647 0.866 2.157 1.968 3.286-4.583 1.159-7.953 4.892-7.953 9.32v0.411h21.879v-0.411c0-4.428-3.37-8.161-7.953-9.319zm2.642 8.911v-2.136c0-0.228-0.184-0.411-0.408-0.411-0.227 0-0.41 0.184-0.41 0.411v2.136h-9.621v-2.136c0-0.228-0.181-0.411-0.407-0.411-0.228 0-0.408 0.184-0.408 0.411v2.136h-4.484c0.16-3.058 2.096-5.709 4.919-7.198l4.891 5.558c0.08 0.084 0.188 0.136 0.308 0.136s0.232-0.052 0.308-0.144l4.791-5.598c2.87 1.481 4.843 4.156 5.007 7.246h-4.486zm-6.503-7.64l-0.54 0.463 0.884 0.762-0.644 2.539-3.25-3.688c0.699-0.3 1.441-0.531 2.216-0.687 0.401 0.279 0.843 0.491 1.334 0.611zm3.079-0.608c0.746 0.144 1.457 0.367 2.132 0.646l-3.254 3.797-0.663-2.611 0.887-0.762-0.516-0.443c0.511-0.112 0.982-0.332 1.414-0.627zm-6.484-4.588c-0.316 0.068-0.804-0.308-0.947-0.882-0.148-0.586-0.243-1.528 0.076-1.617 0.092-0.028 0.192-0.008 0.287 0.045v-1.626c0-2.555-0.574-2.18 3.414-2.606l-0.036-0.013s3.521-0.522 4.348-1.301c0 0-0.351 0.862-0.016 1.585 1.84 0.738 2.072 0.57 2.02 2.335v1.626c0.096-0.053 0.196-0.076 0.288-0.049 0.319 0.088 0.151 1.071 0.004 1.653-0.144 0.571-0.555 0.906-0.866 0.85-0.407 1.234-1.206 2.8-2.34 3.71-0.159 0.127-0.323 0.247-0.495 0.343-0.271 0.159-0.559 0.271-0.858 0.339-0.195 0.045-0.392 0.072-0.599 0.072-0.208 0-0.407-0.027-0.604-0.072-0.304-0.067-0.595-0.18-0.865-0.335-0.172-0.1-0.339-0.215-0.5-0.343-1.121-0.898-1.908-2.452-2.311-3.714z" fill="#fff"/>
		<path d="m5.852 14.16s4.576 1.305 7.116-1.129c0 0 0.504 0.958 3.316 1.354 0 0 0.735-1.86-0.816-2.829-0.453-0.283-1.757-0.871-1.666-1.946 0 0-0.953 0.331-2.587 0.5-1.633 0.17-4.356 0.433-5.173 1.169s-0.19 2.881-0.19 2.881z" fill="#fff"/>
		<circle cy="16.646" cx="8.3" r=".499" fill="#fff"/>
		<circle cy="16.646" cx="13.563" r=".499" fill="#fff"/>
		<path d="m10.973 18.595c-0.185 0-0.334-0.149-0.334-0.334v-0.945c0-0.185 0.149-0.334 0.334-0.334 0.184 0 0.333 0.149 0.333 0.334v0.945c0 0.184-0.15 0.334-0.333 0.334z" fill="#fff"/>
		<path d="m11.041 20.245c-0.692 0-1.221-0.363-1.254-0.387-0.15-0.105-0.187-0.313-0.081-0.465 0.106-0.15 0.313-0.187 0.464-0.081 0.039 0.026 0.857 0.575 1.64 0.004 0.148-0.109 0.357-0.076 0.466 0.072 0.109 0.149 0.077 0.357-0.072 0.467-0.401 0.293-0.805 0.39-1.163 0.39z" fill="#fff"/>
			<path d="m7.251 8.204v2.564c0 0.515 1.667 1.302 3.721 1.302s3.72-0.787 3.72-1.302v-2.564l-3.72 1.33-3.721-1.33z" fill="#fff"/>
			<path d="m6.957 11.53v-3.97h-0.435v3.97c-0.127 0.074-0.216 0.208-0.216 0.367 0 0.241 0.193 0.434 0.433 0.434 0.241 0 0.434-0.192 0.434-0.434 0-0.159-0.089-0.293-0.216-0.367z" fill="#fff"/>
			<path d="m10.551 6.756c0.061-0.176 0.224-0.305 0.421-0.305 0.25 0 0.453 0.203 0.453 0.453 0 0.249-0.203 0.453-0.453 0.453-0.142 0-0.265-0.072-0.348-0.174l-3.455 0.532 3.803 1.357 6.071-2.168-6.071-2.169-6.072 2.169 1.411 0.504 4.24-0.652z" fill="#fff"/>
	<g fill="#fff">
		<path d="m30.878 22.947c-0.045-0.227-0.268-0.376-0.497-0.328-0.005 0.001-0.011 0.004-0.016 0.005l-0.002 1.744 1.613 6.467c0.047 0.229 0.27 0.379 0.497 0.331 0.229-0.046 0.375-0.27 0.329-0.498l-1.924-7.721z"/>
		<path d="m31.771 22.771c-0.021-0.1-0.118-0.165-0.218-0.145s-0.164 0.119-0.145 0.219l1.924 7.713c0.02 0.099 0.119 0.165 0.219 0.145 0.099-0.021 0.164-0.119 0.143-0.218l-1.923-7.714z"/>
		<path d="m32.736 22.575c-0.021-0.1-0.118-0.166-0.218-0.145-0.1 0.02-0.164 0.118-0.145 0.217l1.924 7.715c0.021 0.099 0.118 0.164 0.217 0.145 0.102-0.02 0.165-0.119 0.145-0.219l-1.923-7.713z"/>
		<path d="m34.066 22.301c-0.046-0.227-0.269-0.376-0.498-0.328-0.228 0.045-0.375 0.269-0.33 0.496l1.926 7.72c0.047 0.229 0.27 0.376 0.497 0.33 0.229-0.046 0.377-0.269 0.33-0.497l-1.925-7.721z"/>
		<path d="m30.365 22.624v-1.8c0.002-0.417-0.336-0.754-0.753-0.754l-1.575-0.003c-0.416 0-0.753 0.337-0.754 0.754l-0.004 9.679c0 0.415 0.337 0.755 0.752 0.755l1.574 0.001c0.417 0 0.755-0.338 0.755-0.753l0.003-6.135-0.313-1.252c-0.043-0.221 0.096-0.439 0.315-0.492zm-0.903 7.517l-1.277-0.001c-0.146 0-0.266-0.119-0.266-0.264 0.001-0.146 0.12-0.266 0.266-0.266l1.277 0.002c0.146 0 0.264 0.119 0.264 0.265 0 0.144-0.118 0.264-0.264 0.264zm0.002-7.578h-1.278c-0.146 0-0.266-0.118-0.266-0.265 0-0.146 0.12-0.264 0.266-0.264l1.278 0.002c0.146 0 0.264 0.119 0.264 0.264-0.002 0.145-0.119 0.263-0.264 0.263z"/>
		<path d="m30.051 23.116l0.313 1.252 0.002-1.744c-0.22 0.053-0.359 0.271-0.315 0.492z"/>
		<path d="m25.791 20.068l-1.574-0.001c-0.416 0-0.754 0.337-0.755 0.754l-0.004 9.679c-0.002 0.415 0.337 0.755 0.753 0.755l1.573 0.001c0.418 0 0.756-0.338 0.756-0.753l0.004-9.679c0.001-0.417-0.337-0.756-0.753-0.756zm-0.148 10.073l-1.279-0.001c-0.145 0-0.264-0.119-0.264-0.264 0-0.146 0.117-0.266 0.264-0.266l1.279 0.002c0.144 0 0.264 0.119 0.264 0.265-0.001 0.144-0.121 0.264-0.264 0.264zm0-7.578h-1.278c-0.146 0-0.264-0.118-0.264-0.265 0-0.146 0.118-0.264 0.264-0.264l1.278 0.002c0.146 0 0.264 0.119 0.264 0.264-0.001 0.145-0.121 0.263-0.264 0.263z"/>
	</g>
</svg>
