<?xml version="1.0" encoding="UTF-8" standalone="no"?>
<!-- Generator: Adobe Illustrator 16.0.0, SVG Export Plug-In . SVG Version: 6.00 Build 0)  -->
<!DOCTYPE svg  PUBLIC '-//W3C//DTD SVG 1.1//EN'  'http://www.w3.org/Graphics/SVG/1.1/DTD/svg11.dtd'>
<svg id="objects" xmlns="http://www.w3.org/2000/svg" xml:space="preserve" height="36px" viewBox="0 0 36 36" width="36px" version="1.1" y="0px" x="0px" xmlns:xlink="http://www.w3.org/1999/xlink" enable-background="new 0 0 36 36">
			<path d="m12.452 3.886l-0.713 0.109c-4.568 0.719-5.225 3.451-5.258 5.126-0.007 0.318 0.021 0.656 0.021 1.017l0.034 1.117c-0.685 0.45-0.844 1.522-0.456 3.104 0.192 0.789 0.749 1.454 1.354 1.637 0.293 0.804 1.076 2.679 2.445 4.081-5.693 1.438-9.879 6.075-9.879 11.575v0.511h27.178v-0.511c0-5.5-4.186-10.138-9.879-11.576 1.07-1.085 1.864-2.548 2.336-3.947 0.649-0.262 1.175-0.928 1.373-1.726 0.188-0.739 0.62-2.47-0.332-3v-1.241c0-1.202-0.186-3.908-2.476-5.261-1.668-0.984-4.115-1.172-5.748-1.015zm7.48 18.259c3.563 1.849 6.016 5.163 6.22 9.002h-5.569v-2.653c0-0.283-0.229-0.512-0.508-0.512-0.281 0-0.51 0.229-0.51 0.512v2.653h-11.952v-2.653c0-0.283-0.225-0.512-0.506-0.512-0.283 0-0.507 0.229-0.507 0.512v2.653h-5.569c0.198-3.799 2.632-7.039 6.11-8.942 1.503-0.822 3.628-1.341 3.628-1.341s2.852 1.97 5.701-0.104c0.001 0 1.636 0.437 3.462 1.385zm-2.955-16.672c2.302 0.874 2.658 3.212 2.658 4.66v2.02c0.118-0.065 0.242-0.094 0.356-0.061 0.397 0.109 0.188 1.33 0.005 2.053-0.178 0.71-0.689 1.126-1.076 1.057-0.506 1.532-1.497 3.477-2.906 4.607-0.198 0.159-0.401 0.308-0.614 0.427-0.338 0.198-0.694 0.337-1.066 0.421-0.243 0.056-0.487 0.09-0.744 0.09-0.258 0-0.505-0.034-0.75-0.09-0.376-0.084-0.737-0.223-1.074-0.416-0.214-0.124-0.422-0.268-0.621-0.426-1.393-1.117-2.37-3.045-2.87-4.613-0.393 0.084-0.998-0.382-1.177-1.096-0.184-0.729-0.302-1.899 0.095-2.009 0.113-0.036 0.238-0.01 0.355 0.055v-2.02c-0.253-3.375 1.812-4.339 3.234-4.797 1.451-0.468 4.462-0.52 6.195 0.138zm-8.704 9.729" fill="#fff"/>
		<circle cy="14.003" cx="10.311" r=".62" fill="#fff"/>
		<circle cy="14.003" cx="16.847" r=".62" fill="#fff"/>
		<path d="m13.63 16.424c-0.229 0-0.415-0.186-0.415-0.415v-1.175c0-0.229 0.186-0.415 0.415-0.415s0.415 0.186 0.415 0.415v1.175c0 0.229-0.187 0.415-0.415 0.415z" fill="#fff"/>
		<path d="m13.715 18.475c-0.859 0-1.517-0.452-1.558-0.48-0.187-0.132-0.231-0.391-0.101-0.578 0.132-0.187 0.39-0.232 0.577-0.102 0.047 0.033 1.065 0.715 2.036 0.005 0.185-0.135 0.443-0.095 0.579 0.09 0.135 0.185 0.095 0.444-0.091 0.579-0.496 0.365-0.996 0.486-1.442 0.486z" fill="#fff"/>
		<path d="m13.568 24.336c-3.467 0-4.729-2.941-4.78-3.066l0.957-0.399c0.042 0.1 1.062 2.43 3.823 2.43 2.775 0 3.758-2.444 3.768-2.469l0.966 0.376c-0.05 0.127-1.257 3.128-4.734 3.128z" fill="#fff"/>
		<path d="m15.003 8.87h-2.982c-0.229 0-0.415-0.186-0.415-0.415s0.186-0.415 0.415-0.415h2.982c0.229 0 0.415 0.186 0.415 0.415s-0.186 0.415-0.415 0.415z" fill="#fff"/>
		<path d="m15.003 10.041h-2.982c-0.229 0-0.415-0.186-0.415-0.415s0.186-0.415 0.415-0.415h2.982c0.229 0 0.415 0.186 0.415 0.415s-0.186 0.415-0.415 0.415z" fill="#fff"/>
		<path d="m15.003 11.21h-2.982c-0.229 0-0.415-0.186-0.415-0.415s0.186-0.415 0.415-0.415h2.982c0.229 0 0.415 0.186 0.415 0.415s-0.186 0.415-0.415 0.415z" fill="#fff"/>
		<path d="m10.368 18.415c-0.099 0-0.198-0.035-0.277-0.106-0.17-0.153-0.184-0.415-0.03-0.585l1.651-1.835c0.153-0.17 0.416-0.184 0.586-0.031s0.184 0.415 0.03 0.585l-1.651 1.835c-0.082 0.091-0.196 0.137-0.309 0.137z" fill="#fff"/>
		<path d="m16.977 18.415c-0.113 0-0.227-0.046-0.309-0.137l-1.652-1.835c-0.152-0.17-0.139-0.433 0.031-0.585 0.17-0.153 0.433-0.14 0.586 0.031l1.651 1.835c0.153 0.17 0.14 0.433-0.03 0.585-0.079 0.071-0.179 0.106-0.277 0.106z" fill="#fff"/>
				<path d="m31.803 22.869l-8.041-2.155c-0.222-0.059-0.353-0.286-0.293-0.508l2.834-10.58c0.06-0.221 0.287-0.353 0.509-0.293l8.041 2.155c0.221 0.059 0.353 0.287 0.293 0.508l-2.835 10.58c-0.059 0.221-0.287 0.352-0.508 0.293zm-7.426-2.848l7.24 1.939 2.62-9.778-7.24-1.94-2.62 9.779z" fill="#fff"/>
					<path d="m27.964 19.248l0.217-0.808c-0.563-0.178-1.075-0.479-1.348-0.753l0.521-0.926c0.305 0.291 0.759 0.604 1.312 0.752 0.484 0.13 0.866 0.032 0.957-0.309 0.087-0.323-0.131-0.6-0.703-0.981-0.827-0.55-1.335-1.141-1.113-1.966 0.2-0.749 0.885-1.194 1.843-1.128l0.217-0.808 0.833 0.223-0.2 0.749c0.563 0.178 0.913 0.4 1.157 0.611l-0.504 0.896c-0.196-0.153-0.535-0.454-1.147-0.618-0.552-0.148-0.794 0.042-0.858 0.28-0.075 0.281 0.175 0.539 0.824 1.005 0.916 0.628 1.199 1.205 0.994 1.971-0.203 0.757-0.912 1.26-1.936 1.167l-0.232 0.868-0.834-0.225z" fill="#fff"/>
				<path d="m34.208 12.138l-7.115-1.907c-0.173-0.046-0.297-0.199-0.307-0.377l-0.135-2.472c-0.007-0.11 0.031-0.217 0.104-0.299s0.177-0.131 0.286-0.137l2.91-0.16c0.109-0.006 0.217 0.032 0.3 0.105 0.081 0.073 0.131 0.176 0.137 0.286l0.002 0.038 2.137 0.572c0.131 0.035 0.23 0.129 0.277 0.246l0.025-0.038c0.128-0.189 0.387-0.238 0.575-0.11l2.412 1.635c0.19 0.128 0.239 0.386 0.111 0.576l-1.271 1.874c-0.096 0.146-0.277 0.214-0.448 0.168zm-6.61-2.63l6.54 1.752 0.872-1.287-1.727-1.169-1.031 1.522c-0.113 0.167-0.332 0.229-0.516 0.145s-0.28-0.289-0.229-0.485l0.404-1.505-2.026-0.543c-0.148-0.04-0.261-0.157-0.296-0.302l-2.087 0.114 0.096 1.758z" fill="#fff"/>
				<path d="m29.18 10.422c-0.222-0.06-0.353-0.287-0.293-0.508l0.703-2.625c0.059-0.221 0.286-0.353 0.508-0.293 0.221 0.06 0.352 0.287 0.293 0.508l-0.703 2.625c-0.06 0.221-0.288 0.352-0.508 0.293z" fill="#fff"/>
				<path d="m31.613 11.074c-0.222-0.059-0.353-0.287-0.293-0.508l0.668-2.494c0.059-0.221 0.286-0.352 0.508-0.293 0.221 0.059 0.352 0.287 0.293 0.508l-0.668 2.493c-0.059 0.222-0.287 0.353-0.508 0.294z" fill="#fff"/>
</svg>
