<?xml version="1.0" encoding="UTF-8" standalone="no"?>
<!-- Generator: Adobe Illustrator 16.0.0, SVG Export Plug-In . SVG Version: 6.00 Build 0)  -->
<!DOCTYPE svg  PUBLIC '-//W3C//DTD SVG 1.1//EN'  'http://www.w3.org/Graphics/SVG/1.1/DTD/svg11.dtd'>
<svg id="Layer_1" xmlns="http://www.w3.org/2000/svg" xml:space="preserve" height="36px" viewBox="0 0 36 36" width="36px" version="1.1" y="0px" x="0px" xmlns:xlink="http://www.w3.org/1999/xlink" enable-background="new 0 0 36 36">
			<path d="m13.777 26.307l-0.034-0.031c-0.021-0.019-0.041-0.038-0.061-0.058l-3.21-3.209c-0.007-0.007-0.015-0.014-0.022-0.021-0.159-0.134-0.345-0.23-0.543-0.285v-0.786c0-0.189-0.154-0.344-0.345-0.344h-1.561c-0.19 0-0.345 0.154-0.345 0.344v0.735h-6.638c-0.562 0-1.018 0.456-1.018 1.018v6.097c0 0.189 0.154 0.344 0.344 0.344h0.899c0.157 0.685 0.771 1.196 1.502 1.196 0.73 0 1.345-0.512 1.501-1.196h5.902c0.157 0.685 0.771 1.196 1.502 1.196s1.346-0.513 1.502-1.198c0.63-0.022 1.137-0.54 1.137-1.176v-1.444c0-0.446-0.186-0.877-0.512-1.182zm-5.431-4.045h0.872v0.391h-0.872v-0.391zm-5.601 8.356c-0.47 0-0.853-0.383-0.853-0.852 0-0.471 0.383-0.853 0.853-0.853s0.852 0.382 0.852 0.853c0 0.469-0.382 0.852-0.852 0.852zm1.772-4.939c0 0.19-0.154 0.345-0.345 0.345h-0.559v0.559c0 0.19-0.154 0.345-0.345 0.345h-0.665c-0.189 0-0.344-0.154-0.344-0.345v-0.559h-0.559c-0.19 0-0.345-0.154-0.345-0.345v-0.666c0-0.189 0.154-0.344 0.345-0.344h0.559v-0.56c0-0.189 0.154-0.344 0.344-0.344h0.666c0.19 0 0.345 0.154 0.345 0.344v0.56h0.559c0.19 0 0.345 0.154 0.345 0.344v0.666zm4.196 0.335c-0.167 0-0.304-0.136-0.304-0.303v-1.626c0-0.093 0.076-0.169 0.17-0.169h1.084c0.107 0 0.208 0.042 0.283 0.117l1.657 1.657c0.081 0.081 0.056 0.171 0.041 0.207-0.015 0.034-0.061 0.116-0.175 0.116h-2.756zm2.937 4.604c-0.47 0-0.853-0.383-0.853-0.852 0-0.471 0.382-0.853 0.853-0.853 0.47 0 0.852 0.382 0.852 0.853 0 0.469-0.382 0.852-0.852 0.852zm-4.379-9.131" fill="#fff"/>
	<g fill="#fff">
		<path d="m35.717 10.662c-0.187-0.188-0.409-0.281-0.666-0.281h-4.739v-4.266c0-0.395-0.138-0.731-0.415-1.008-0.275-0.275-0.612-0.414-1.008-0.414h-6.635c-0.396 0-0.73 0.139-1.007 0.414-0.276 0.277-0.415 0.613-0.415 1.008v4.266h-4.739c-0.257 0-0.479 0.094-0.667 0.281-0.188 0.188-0.281 0.41-0.281 0.666v18.96c0 0.256 0.094 0.478 0.281 0.666 0.188 0.188 0.41 0.281 0.667 0.281h18.959c0.256 0 0.479-0.094 0.666-0.281 0.187-0.188 0.282-0.41 0.282-0.666v-18.96c0-0.256-0.095-0.477-0.283-0.666zm-12.988-3.599c0-0.129 0.047-0.24 0.141-0.334s0.205-0.141 0.334-0.141h0.947c0.128 0 0.239 0.047 0.333 0.141s0.141 0.205 0.141 0.334v1.422h1.896v-1.422c0-0.129 0.048-0.24 0.141-0.334 0.094-0.094 0.205-0.141 0.334-0.141h0.948c0.128 0 0.238 0.047 0.333 0.141 0.094 0.094 0.14 0.205 0.14 0.334v4.739c0 0.129-0.046 0.239-0.14 0.334-0.095 0.093-0.205 0.14-0.333 0.14h-0.948c-0.129 0-0.24-0.047-0.334-0.14-0.093-0.095-0.141-0.205-0.141-0.334v-1.422h-1.896v1.422c0 0.129-0.047 0.239-0.141 0.334-0.094 0.093-0.205 0.14-0.333 0.14h-0.947c-0.129 0-0.24-0.047-0.334-0.14-0.094-0.095-0.141-0.205-0.141-0.334v-4.739zm11.375 22.277h-5.688v-3.317c0-0.129-0.047-0.239-0.141-0.334-0.095-0.094-0.205-0.141-0.333-0.141h-4.74c-0.128 0-0.24 0.047-0.333 0.141-0.094 0.095-0.142 0.205-0.142 0.334v3.317h-5.687v-17.064h3.793v0.475c0 0.395 0.138 0.73 0.414 1.007s0.612 0.415 1.008 0.415h6.636c0.395 0 0.73-0.139 1.006-0.415 0.277-0.276 0.415-0.612 0.415-1.007v-0.475h3.792v17.064z"/>
		<path d="m20.357 23.652h-0.947c-0.128 0-0.239 0.047-0.333 0.141s-0.141 0.205-0.141 0.332v0.949c0 0.128 0.047 0.238 0.141 0.333 0.094 0.094 0.205 0.141 0.333 0.141h0.947c0.129 0 0.24-0.047 0.334-0.141 0.094-0.095 0.141-0.205 0.141-0.333v-0.949c0-0.127-0.047-0.238-0.141-0.332s-0.205-0.141-0.334-0.141z"/>
		<path d="m20.357 19.86h-0.947c-0.128 0-0.239 0.047-0.333 0.141s-0.141 0.205-0.141 0.333v0.948c0 0.129 0.047 0.239 0.141 0.334 0.094 0.093 0.205 0.14 0.333 0.14h0.947c0.129 0 0.24-0.047 0.334-0.14 0.094-0.095 0.141-0.205 0.141-0.334v-0.948c0-0.128-0.047-0.239-0.141-0.333s-0.205-0.141-0.334-0.141z"/>
		<path d="m24.15 19.86h-0.948c-0.128 0-0.239 0.047-0.333 0.141s-0.142 0.205-0.142 0.333v0.948c0 0.129 0.048 0.239 0.142 0.334 0.094 0.093 0.205 0.14 0.333 0.14h0.948c0.128 0 0.239-0.047 0.333-0.14 0.094-0.095 0.141-0.205 0.141-0.334v-0.948c0-0.128-0.047-0.239-0.141-0.333s-0.205-0.141-0.333-0.141z"/>
		<path d="m20.357 16.069h-0.947c-0.128 0-0.239 0.047-0.333 0.14-0.094 0.095-0.141 0.205-0.141 0.334v0.947c0 0.129 0.047 0.239 0.141 0.333 0.094 0.095 0.205 0.141 0.333 0.141h0.947c0.129 0 0.24-0.046 0.334-0.141 0.094-0.094 0.141-0.204 0.141-0.333v-0.947c0-0.129-0.047-0.239-0.141-0.334-0.093-0.093-0.205-0.14-0.334-0.14z"/>
		<path d="m31.733 23.652h-0.948c-0.128 0-0.238 0.047-0.333 0.141-0.094 0.094-0.14 0.205-0.14 0.332v0.949c0 0.128 0.046 0.238 0.14 0.333 0.095 0.094 0.205 0.141 0.333 0.141h0.948c0.129 0 0.239-0.047 0.334-0.141 0.093-0.095 0.14-0.205 0.14-0.333v-0.949c0-0.127-0.047-0.238-0.14-0.332-0.094-0.094-0.205-0.141-0.334-0.141z"/>
		<path d="m27.942 19.86h-0.948c-0.129 0-0.24 0.047-0.334 0.141-0.093 0.094-0.141 0.205-0.141 0.333v0.948c0 0.129 0.048 0.239 0.141 0.334 0.094 0.093 0.205 0.14 0.334 0.14h0.948c0.128 0 0.238-0.047 0.333-0.14 0.094-0.095 0.14-0.205 0.14-0.334v-0.948c0-0.128-0.046-0.239-0.14-0.333s-0.205-0.141-0.333-0.141z"/>
		<path d="m24.15 16.069h-0.948c-0.128 0-0.239 0.047-0.333 0.14-0.094 0.095-0.142 0.205-0.142 0.334v0.947c0 0.129 0.048 0.239 0.142 0.333 0.094 0.095 0.205 0.141 0.333 0.141h0.948c0.128 0 0.239-0.046 0.333-0.141 0.094-0.094 0.141-0.204 0.141-0.333v-0.947c0-0.129-0.047-0.239-0.141-0.334-0.093-0.093-0.205-0.14-0.333-0.14z"/>
		<path d="m31.733 19.86h-0.948c-0.128 0-0.238 0.047-0.333 0.141-0.094 0.094-0.14 0.205-0.14 0.333v0.948c0 0.129 0.046 0.239 0.14 0.334 0.095 0.093 0.205 0.14 0.333 0.14h0.948c0.129 0 0.239-0.047 0.334-0.14 0.093-0.095 0.14-0.205 0.14-0.334v-0.948c0-0.128-0.047-0.239-0.14-0.333-0.094-0.094-0.205-0.141-0.334-0.141z"/>
		<path d="m27.942 16.069h-0.948c-0.129 0-0.24 0.047-0.334 0.14-0.093 0.095-0.141 0.205-0.141 0.334v0.947c0 0.129 0.048 0.239 0.141 0.333 0.094 0.095 0.205 0.141 0.334 0.141h0.948c0.128 0 0.238-0.046 0.333-0.141 0.094-0.094 0.14-0.204 0.14-0.333v-0.947c0-0.129-0.046-0.239-0.14-0.334-0.093-0.093-0.205-0.14-0.333-0.14z"/>
		<path d="m30.312 17.49c0 0.129 0.047 0.239 0.141 0.333 0.094 0.095 0.205 0.141 0.333 0.141h0.948c0.129 0 0.239-0.046 0.334-0.141 0.093-0.094 0.14-0.204 0.14-0.333v-0.947c0-0.129-0.047-0.239-0.14-0.334-0.095-0.093-0.205-0.14-0.334-0.14h-0.948c-0.128 0-0.239 0.047-0.333 0.14-0.094 0.095-0.141 0.205-0.141 0.334v0.947z"/>
	</g>
</svg>
