<?xml version="1.0" encoding="UTF-8" standalone="no"?>
<!-- Generator: Adobe Illustrator 16.0.0, SVG Export Plug-In . SVG Version: 6.00 Build 0)  -->
<!DOCTYPE svg  PUBLIC '-//W3C//DTD SVG 1.1//EN'  'http://www.w3.org/Graphics/SVG/1.1/DTD/svg11.dtd'>
<svg id="Capa_1" xmlns="http://www.w3.org/2000/svg" xml:space="preserve" height="36px" viewBox="402.945 577.275 36 36" width="36px" version="1.1" y="0px" x="0px" xmlns:xlink="http://www.w3.org/1999/xlink" enable-background="new 402.945 577.275 36 36">
			<path d="m438.44 592.92c-0.063-0.82-0.441-1.565-1.065-2.1l-3.028-2.596v-7.375c0-0.566-0.459-1.026-1.026-1.026h-4.102c-0.566 0-1.013 0.459-1.013 1.026v2.101l-5.19-4.424c-1.159-0.994-2.844-0.994-4-0.002l-14.499 12.296c-1.283 1.099-1.449 3.037-0.333 4.34 0.851 0.99 2.213 1.305 3.375 0.896v15.698c0 0.566 0.445 1.026 1.012 1.026h24.75c0.567 0 1.026-0.46 1.026-1.026v-15.71c1.199 0.424 2.532 0.069 3.361-0.897 0.53-0.62 0.79-1.42 0.73-2.23zm-8.2-11.05h2.065v4.592l-2.065-1.758v-2.83zm-5.11 28.85h-8.355v-8.219h8.355v8.22zm7.18 0h-5.142v-9.23c0-0.566-0.46-1.026-1.026-1.026h-10.393c-0.566 0-1.012 0.46-1.012 1.026v9.23h-5.142v-16.147l11.415-9.684 11.299 9.674v16.16h-0.01zm3.84-16.9c-0.363 0.424-1.011 0.486-1.447 0.112l-13.022-11.164c-0.383-0.328-0.947-0.33-1.331-0.003-0.277 0.235-13.109 11.121-13.164 11.167-0.429 0.368-1.079 0.317-1.447-0.111-0.368-0.43-0.319-1.078 0.107-1.443l14.499-12.296c0.387-0.332 0.949-0.332 1.335 0l14.358 12.293c0.43 0.36 0.48 1.01 0.11 1.44z" fill="#fff"/>
			<path d="m424.09 590.07h-6.29c-0.566 0-1.012 0.459-1.012 1.025v6.154c0 0.565 0.445 1.025 1.012 1.025h6.291c0.565 0 1.025-0.46 1.025-1.025v-6.154c0-0.58-0.46-1.04-1.03-1.04zm-1.01 6.16h-4.252v-4.102h4.252v4.1z" fill="#fff"/>
			<circle cy="605.6" cx="422.04" r="1.025" fill="#fff"/>
</svg>
