<?xml version="1.0" encoding="UTF-8" standalone="no"?>
<!-- Generator: Adobe Illustrator 16.0.0, SVG Export Plug-In . SVG Version: 6.00 Build 0)  -->
<!DOCTYPE svg  PUBLIC '-//W3C//DTD SVG 1.1//EN'  'http://www.w3.org/Graphics/SVG/1.1/DTD/svg11.dtd'>
<svg id="Capa_1" xmlns="http://www.w3.org/2000/svg" xml:space="preserve" height="32px" viewBox="0 0 32 32" width="32px" version="1.1" y="0px" x="0px" xmlns:xlink="http://www.w3.org/1999/xlink" enable-background="new 0 0 32 32">
<path d="m25.3 6.7v12.4h-18.6v-12.4h18.6m0.775-3.1h-20.15c-1.283 0-2.325 1.042-2.325 2.325v13.95c0 1.283 1.042 2.325 2.325 2.325h20.15c1.283 0 2.325-1.042 2.325-2.325v-13.95c0-1.283-1.042-2.325-2.325-2.325zm4.844 20.15h-11.553c-0.146 0-0.267 0.102-0.285 0.247-0.116 0.736-0.756 1.303-1.531 1.303h-3.1c-0.775 0-1.415-0.566-1.531-1.303-0.024-0.141-0.146-0.247-0.286-0.247h-11.552c-0.319 0-0.581 0.262-0.581 0.581v1.744c0 1.283 1.042 2.325 2.325 2.325h26.35c1.284 0 2.325-1.042 2.325-2.325v-1.744c0-0.319-0.262-0.581-0.581-0.581z" fill="#00823A"/>
</svg>
