<?xml version="1.0" encoding="utf-8"?>
<!-- Generator: Adobe Illustrator 16.0.0, SVG Export Plug-In . SVG Version: 6.00 Build 0)  -->
<!DOCTYPE svg PUBLIC "-//W3C//DTD SVG 1.1//EN" "http://www.w3.org/Graphics/SVG/1.1/DTD/svg11.dtd">
<svg version="1.1" id="圖層_1" xmlns="http://www.w3.org/2000/svg" xmlns:xlink="http://www.w3.org/1999/xlink" x="0px" y="0px"
	 width="32px" height="32px" viewBox="0 0 32 32" enable-background="new 0 0 32 32" xml:space="preserve">
<g>
	<path fill="#FFFFFF" d="M20.347,20.319c-0.21,0-0.414-0.099-0.544-0.274l-4.234-5.647v5.24c0,0.377-0.305,0.68-0.679,0.68
		s-0.679-0.305-0.679-0.68V12.36c0-0.292,0.187-0.552,0.463-0.644c0.278-0.093,0.583,0.002,0.76,0.237l4.234,5.648V12.36
		c0-0.375,0.305-0.679,0.68-0.679s0.68,0.303,0.68,0.679v7.278c0,0.293-0.188,0.553-0.467,0.645
		C20.492,20.307,20.418,20.319,20.347,20.319z M27.32,20.319h-3.638c-0.376,0-0.679-0.305-0.679-0.68v-7.278
		c0-0.376,0.304-0.68,0.679-0.68h3.638c0.376,0,0.68,0.304,0.68,0.68c0,0.375-0.305,0.679-0.68,0.679h-2.959v2.28h2.959
		c0.375,0,0.68,0.305,0.68,0.679s-0.305,0.678-0.68,0.678h-2.959v2.28h2.959c0.376,0,0.68,0.305,0.68,0.68
		S27.695,20.319,27.32,20.319z M11.35,20.319c-0.375,0-0.679-0.305-0.679-0.68v-7.278c0-0.376,0.305-0.68,0.679-0.68
		s0.679,0.304,0.679,0.68v7.278C12.029,20.015,11.726,20.319,11.35,20.319z M8.42,20.319H4.679C4.304,20.319,4,20.015,4,19.638
		V12.36c0-0.375,0.304-0.679,0.679-0.679s0.679,0.303,0.679,0.679v6.599H8.42c0.375,0,0.678,0.306,0.678,0.679
		C9.098,20.013,8.795,20.319,8.42,20.319z"/>
</g>
</svg>
