<?xml version="1.0" encoding="UTF-8" standalone="no"?>
<!-- Generator: Adobe Illustrator 16.0.0, SVG Export Plug-In . SVG Version: 6.00 Build 0)  -->
<!DOCTYPE svg  PUBLIC '-//W3C//DTD SVG 1.1//EN'  'http://www.w3.org/Graphics/SVG/1.1/DTD/svg11.dtd'>
<svg id="圖層_1" xmlns="http://www.w3.org/2000/svg" xml:space="preserve" height="36px" viewBox="0 0 36 36" width="36px" version="1.1" y="0px" x="0px" xmlns:xlink="http://www.w3.org/1999/xlink" enable-background="new 0 0 36 36">
		<path d="m33.466 12.577l-14.429-12.198c-0.598-0.506-1.474-0.506-2.072 0l-14.431 12.198c-0.677 0.572-0.762 1.585-0.189 2.262 0.417 0.494 1.069 0.669 1.654 0.507v19.05c-0.001 0.886 0.718 1.604 1.604 1.604 0.887 0 1.605-0.719 1.605-1.605v-21.566l10.792-9.122 10.789 9.119v21.569c0 0.887 0.719 1.605 1.604 1.605 0.888 0 1.607-0.718 1.607-1.605v-19.062c0.142 0.04 0.285 0.075 0.431 0.075 0.456 0 0.909-0.193 1.227-0.569 0.571-0.677 0.486-1.69-0.192-2.262z" fill="#fff"/>
	<path d="m22.333 21.986c1.058 0 1.914-0.857 1.914-1.914 0-1.058-0.856-1.914-1.914-1.914-1.057 0-1.914 0.856-1.914 1.914 0 1.056 0.858 1.914 1.914 1.914z" fill="#fff"/>
	<path d="m24.537 22.81c-0.117-0.285-0.392-0.456-0.682-0.456-0.002 0-0.004-0.001-0.006-0.001h-2.928c-0.004 0-0.007 0.001-0.01 0.001-0.291-0.002-0.567 0.17-0.686 0.456l-2.219 3.456-2.218-3.454c-0.076-0.184-0.284-0.459-0.708-0.459h-2.928c-0.002 0-0.005 0.001-0.007 0.001-0.29 0.004-0.565 0.171-0.683 0.456l-2.729 4.696c-0.154 0.376 0.025 0.807 0.4 0.961 0.092 0.037 0.187 0.056 0.28 0.056 0.29 0 0.564-0.172 0.681-0.456l1.202-2.414-1.373 4.289c-0.23 0.721 0.308 1.458 1.065 1.458h0.308v3.403c0 0.547 0.453 0.987 1.003 0.967 0.525-0.018 0.933-0.465 0.933-0.99v-3.38h0.767v3.403c0 0.546 0.453 0.987 1.004 0.967 0.524-0.018 0.933-0.465 0.933-0.99v-3.38h0.308c0.757 0 1.295-0.737 1.064-1.458l-1.373-4.289 1.22 2.416c0.117 0.284 0.391 0.456 0.681 0.456 0.058 0 0.116-0.008 0.174-0.022 0.055 0.014 0.11 0.021 0.165 0.021 0.29 0 0.564-0.172 0.681-0.456l1.207-2.933v9.669c0 0.547 0.452 0.987 1.004 0.967 0.524-0.018 0.933-0.465 0.933-0.99v-5.226c0-0.204 0.154-0.383 0.357-0.396 0.224-0.015 0.409 0.162 0.409 0.382v5.263c0 0.546 0.453 0.987 1.004 0.967 0.524-0.018 0.933-0.465 0.933-0.99v-9.63l1.2 2.917c0.117 0.284 0.392 0.456 0.681 0.456 0.094 0 0.188-0.019 0.279-0.056 0.376-0.154 0.556-0.585 0.4-0.961l-2.726-4.697z" fill="#fff"/>
	<path d="m13.567 21.986c1.057 0 1.914-0.857 1.914-1.914 0-1.058-0.857-1.914-1.914-1.914-1.058 0-1.914 0.856-1.914 1.914 0 1.056 0.857 1.914 1.914 1.914z" fill="#fff"/>
		<path d="m18 18.069c-3.038 0-5.509-2.471-5.509-5.509s2.471-5.51 5.509-5.51c3.039 0 5.51 2.472 5.51 5.51s-2.471 5.509-5.51 5.509zm0-9.981c-2.465 0-4.472 2.006-4.472 4.472s2.006 4.472 4.472 4.472c2.466 0 4.472-2.006 4.472-4.472s-2.006-4.472-4.472-4.472z" fill="#fff"/>
			<path d="m17.496 16.439v-0.903c-0.637-0.028-1.255-0.199-1.616-0.409l0.285-1.111c0.399 0.218 0.96 0.417 1.578 0.417 0.542 0 0.913-0.208 0.913-0.589 0-0.361-0.304-0.59-1.007-0.827-1.017-0.342-1.711-0.817-1.711-1.739 0-0.837 0.59-1.493 1.607-1.692v-0.905h0.931v0.837c0.638 0.028 1.065 0.161 1.379 0.313l-0.275 1.074c-0.247-0.104-0.685-0.323-1.37-0.323-0.618 0-0.817 0.267-0.817 0.532 0 0.313 0.333 0.514 1.141 0.818 1.132 0.398 1.588 0.921 1.588 1.777 0 0.846-0.6 1.568-1.693 1.759v0.97h-0.933z" fill="#fff"/>
</svg>
