<?xml version="1.0" encoding="UTF-8" standalone="no"?>
<!-- Generator: Adobe Illustrator 16.0.0, SVG Export Plug-In . SVG Version: 6.00 Build 0)  -->
<!DOCTYPE svg  PUBLIC '-//W3C//DTD SVG 1.1//EN'  'http://www.w3.org/Graphics/SVG/1.1/DTD/svg11.dtd'>
<svg id="Layer_1" xmlns="http://www.w3.org/2000/svg" xml:space="preserve" height="36px" viewBox="0 0 36 36" width="36px" version="1.1" y="0px" x="0px" xmlns:xlink="http://www.w3.org/1999/xlink" enable-background="new 0 0 36 36">
<g fill="#fff">
	<path d="m35.876 26.789l-2.602-6.131c-0.365-0.734-0.883-1.033-1.845-1.062-0.183-0.005-0.365 0-0.549-0.002 0.834-0.286 1.394-1.363 0.56-2.133-1.567-1.455-2.87-3.065-4.315-4.638-0.153-0.167-0.532-0.574-1.101-0.754-1.069-0.341-2.531 0.363-2.736 1.559-0.373 2.187-0.715 4.384-0.862 6.594-0.059 0.873 0.208 1.544 0.713 1.921-0.352 0.565-0.563 1.226-0.563 1.938 0 2.039 1.659 3.698 3.698 3.698s3.698-1.659 3.698-3.698c0-0.568-0.14-1.101-0.369-1.582 0.808-0.006 1.354-0.013 1.354-0.013l2.238 5.332c0.125 0.321 0.714 1.339 1.912 0.962 0.944-0.298 1.022-1.328 0.769-1.991zm-6.924-2.707c0 1.477-1.202 2.679-2.679 2.679s-2.679-1.202-2.679-2.679c0-0.604 0.209-1.155 0.547-1.604 0.011 0.001 0.02 0.004 0.029 0.004 1.223 0.029 2.885 0.03 4.258 0.025 0.326 0.443 0.524 0.984 0.524 1.575zm-2.002-4.554c0.089-0.861 0.188-1.718 0.308-2.574 0.742 0.817 1.518 1.604 2.332 2.357 0.142 0.131 0.294 0.223 0.449 0.277-1.028-0.007-2.059-0.024-3.089-0.06z"/>
	<circle cy="9.009" cx="26.196" r="2.554"/>
	<path d="m32.475 26.98c-0.244-0.155-0.568-0.081-0.721 0.163-1.152 1.834-3.134 2.929-5.292 2.929-3.445 0-6.25-2.801-6.25-6.248 0-1.667 0.651-3.235 1.832-4.415 0.205-0.202 0.205-0.537 0-0.739-0.145-0.145-0.352-0.187-0.535-0.126l-0.216-3.19c-0.014-0.2-0.139-0.371-0.321-0.449l-0.324-0.136c0.172-0.471 0.059-1.017-0.529-1.311-1.895-0.947-3.787-1.892-5.68-2.84-0.105-0.241-0.257-0.471-0.474-0.682-0.789-0.78-2.391-0.938-3.145 0.015-1.687 2.141-3.18 4.391-4.496 6.779-0.202 0.365-0.382 0.817-0.347 1.507 0.184 3.59-1.715 6.142-5.039 7.466-1.754 0.695-0.873 3.477 1.175 2.698 3.521-1.446 5.799-3.855 6.58-7.408 1.584 2.244 2.629 4.511 3.214 7.262 0.393 1.869 3.379 1.593 2.914-0.529-0.723-3.422-2.222-6.574-4.347-9.304 1.047-1.858 2.188-3.671 3.51-5.346 0.009-0.009 0.017-0.02 0.025-0.03 1.637 0.816 3.274 1.637 4.911 2.457 0.336 0.165 0.654 0.169 0.937 0.069l0.416 0.172 0.263 3.84c-0.887 1.229-1.368 2.695-1.368 4.24 0 4.022 3.274 7.293 7.294 7.293 2.524 0 4.835-1.277 6.182-3.417 0.149-0.243 0.077-0.565-0.169-0.72z"/>
	<circle cy="7.36" cx="15.563" r="2.477"/>
</g>
</svg>
