<?xml version="1.0" encoding="UTF-8" standalone="no"?>
<!-- Generator: Adobe Illustrator 16.0.0, SVG Export Plug-In . SVG Version: 6.00 Build 0)  -->
<!DOCTYPE svg  PUBLIC '-//W3C//DTD SVG 1.1//EN'  'http://www.w3.org/Graphics/SVG/1.1/DTD/svg11.dtd'>
<svg id="Capa_1" xmlns="http://www.w3.org/2000/svg" xml:space="preserve" height="36px" viewBox="0 0 36 36" width="36px" version="1.1" y="0px" x="0px" xmlns:xlink="http://www.w3.org/1999/xlink" enable-background="new 0 0 36 36">
				<path d="m20.506 16.033c-0.038-0.48-0.259-0.917-0.625-1.23l-1.773-1.521v-4.322c0-0.332-0.27-0.601-0.602-0.601h-2.403c-0.331 0-0.594 0.269-0.594 0.601v1.231l-3.04-2.592c-0.679-0.582-1.667-0.582-2.344-0.001l-8.495 7.205c-0.751 0.644-0.849 1.779-0.195 2.542 0.499 0.58 1.297 0.765 1.978 0.524v9.198c0 0.332 0.261 0.602 0.594 0.602h14.5c0.332 0 0.602-0.27 0.602-0.602v-9.197c0.702 0.248 1.483 0.04 1.969-0.525 0.312-0.366 0.463-0.833 0.428-1.312zm-4.803-6.472h1.21v2.69l-1.21-1.03v-1.66zm-2.997 16.906h-4.894v-4.815h4.895v4.815zm4.207 0h-3.013v-5.408c0-0.331-0.27-0.601-0.602-0.601h-6.088c-0.331 0-0.593 0.27-0.593 0.601v5.408h-3.013v-9.46l6.688-5.674 6.62 5.667 0.001 9.467zm2.251-9.905c-0.213 0.248-0.593 0.284-0.848 0.065l-7.63-6.541c-0.224-0.192-0.555-0.193-0.779-0.001-0.162 0.138-7.681 6.516-7.713 6.542-0.251 0.216-0.632 0.186-0.848-0.064-0.215-0.253-0.186-0.633 0.063-0.847l8.495-7.204c0.227-0.194 0.556-0.194 0.782 0l8.412 7.202c0.252 0.216 0.282 0.596 0.066 0.848z" fill="#fff"/>
				<path d="m12.098 14.368h-3.686c-0.331 0-0.593 0.269-0.593 0.6v3.606c0 0.332 0.261 0.602 0.593 0.602h3.687c0.331 0 0.601-0.27 0.601-0.602v-3.606c-0.001-0.331-0.27-0.6-0.602-0.6zm-0.593 3.605h-2.491v-2.403h2.491v2.403z" fill="#fff"/>
				<circle cy="23.462" cx="10.896" r=".601" fill="#fff"/>
	<g fill="#fff" clip-rule="evenodd" fill-rule="evenodd">
		<path d="m19.568 22.791c0.126-0.216 0.318-0.303 0.563-0.345 1.372-0.236 2.743-0.485 4.115-0.73 0.5-0.089 1-0.179 1.5-0.269 0.177-0.032 0.319 0.043 0.456 0.142 0.799 0.586 1.601 1.168 2.396 1.759 0.121 0.09 0.225 0.109 0.373 0.071 1.725-0.451 3.457-0.871 5.174-1.348 0.888-0.246 1.671 0.247 1.854 1.016v0.592c-0.105 0.392-0.324 0.696-0.672 0.914-2.264 1.413-4.525 2.83-6.788 4.245h-0.362c-1.368-0.585-2.737-1.17-4.104-1.756-0.083-0.036-0.166-0.048-0.256-0.032-1.189 0.208-2.379 0.414-3.569 0.621-0.349 0.061-0.491-0.005-0.68-0.312v-4.568zm2.805 1.868c0 0.471 0.002 0.941-0.002 1.412-0.002 0.133 0.036 0.173 0.174 0.146 0.402-0.078 0.809-0.136 1.21-0.217 0.226-0.047 0.426-0.013 0.636 0.078 1.246 0.538 2.496 1.067 3.742 1.604 0.125 0.054 0.216 0.046 0.332-0.027 1.673-1.052 3.35-2.099 5.025-3.147 0.431-0.27 0.864-0.537 1.295-0.811 0.18-0.114 0.237-0.282 0.167-0.449-0.069-0.161-0.239-0.235-0.439-0.186-0.255 0.063-0.509 0.131-0.763 0.196-1.334 0.346-2.668 0.692-4.004 1.031-0.137 0.035-0.157 0.079-0.119 0.211 0.058 0.199 0.073 0.403 0.046 0.615-0.137 1.068-1.344 1.689-2.263 1.125-0.656-0.403-1.275-0.868-1.905-1.314-0.171-0.121-0.229-0.31-0.186-0.512 0.045-0.21 0.181-0.348 0.391-0.402 0.173-0.045 0.322 0.016 0.462 0.113 0.563 0.391 1.124 0.781 1.687 1.172 0.12 0.083 0.249 0.134 0.4 0.093 0.19-0.052 0.324-0.166 0.365-0.36 0.051-0.234-0.044-0.411-0.236-0.551-0.859-0.624-1.716-1.252-2.572-1.881-0.076-0.056-0.149-0.079-0.243-0.062-1.016 0.183-2.032 0.366-3.051 0.542-0.132 0.023-0.152 0.085-0.15 0.199 0.003 0.462 0 0.922 0.001 1.382zm-1.038 0.214c0-0.46 0-0.92-0.001-1.38 0-0.197-0.001-0.198-0.2-0.164-0.119 0.02-0.236 0.05-0.355 0.062-0.142 0.014-0.194 0.076-0.191 0.223 0.008 0.536 0.003 1.073 0.003 1.609 0 0.396 0.003 0.789-0.001 1.184-0.001 0.105 0.024 0.151 0.141 0.125 0.139-0.031 0.28-0.055 0.421-0.07 0.142-0.015 0.19-0.079 0.187-0.224-0.011-0.456-0.004-0.91-0.004-1.365z"/>
		<path d="m28.244 12.471c0.064 0.038 0.138 0.026 0.208 0.038 0.909 0.15 1.698 0.545 2.348 1.194 1.449 1.446 1.601 3.732 0.366 5.359-1.483 1.956-4.325 2.232-6.173 0.6-1.707-1.509-1.866-4.064-0.355-5.775 0.694-0.787 1.57-1.242 2.608-1.388 0.038-0.005 0.073-0.019 0.11-0.028h0.888zm-0.452 7.459c1.773 0.019 3.396-1.378 3.399-3.33 0.003-1.936-1.601-3.333-3.374-3.342-1.802-0.009-3.411 1.411-3.409 3.341 0.004 1.937 1.613 3.34 3.384 3.331z"/>
		<path d="m27.82 13.685c0.393 0.003 0.355-0.044 0.357 0.365 0.001 0.244 0 0.248 0.244 0.279 0.225 0.029 0.44 0.082 0.654 0.155 0.107 0.037 0.146 0.095 0.11 0.209-0.053 0.167-0.099 0.337-0.134 0.508-0.027 0.133-0.082 0.158-0.205 0.104-0.315-0.14-0.648-0.193-0.993-0.172-0.044 0.003-0.089 0.001-0.131 0.011-0.165 0.041-0.318 0.101-0.36 0.291-0.038 0.168 0.036 0.289 0.232 0.41 0.222 0.135 0.468 0.215 0.707 0.308 0.292 0.114 0.574 0.244 0.799 0.473 0.461 0.468 0.418 1.327-0.087 1.752-0.204 0.174-0.436 0.297-0.694 0.358-0.143 0.033-0.187 0.106-0.179 0.242 0.009 0.125 0 0.252 0.002 0.378 0.002 0.1-0.035 0.154-0.144 0.151-0.147-0.004-0.295-0.002-0.443 0-0.096 0.001-0.141-0.043-0.139-0.139 0.001-0.115-0.007-0.23 0-0.345 0.01-0.144-0.04-0.203-0.193-0.211-0.313-0.017-0.615-0.095-0.905-0.219-0.104-0.045-0.14-0.104-0.106-0.216 0.056-0.184 0.104-0.369 0.148-0.556 0.025-0.111 0.077-0.126 0.176-0.081 0.354 0.158 0.722 0.255 1.112 0.249 0.128-0.002 0.251-0.026 0.368-0.073 0.297-0.12 0.359-0.446 0.126-0.664-0.147-0.138-0.335-0.205-0.52-0.272-0.299-0.108-0.595-0.219-0.866-0.391-0.792-0.501-0.647-1.614 0.093-2.01 0.15-0.081 0.304-0.155 0.471-0.191 0.1-0.021 0.135-0.073 0.131-0.171-0.005-0.109 0.007-0.22-0.003-0.328-0.013-0.158 0.049-0.224 0.206-0.206 0.056 0.006 0.112 0.002 0.166 0.002z"/>
	</g>
</svg>
