<?xml version="1.0" encoding="UTF-8" standalone="no"?>
<!-- Generator: Adobe Illustrator 16.0.0, SVG Export Plug-In . SVG Version: 6.00 Build 0)  -->
<!DOCTYPE svg  PUBLIC '-//W3C//DTD SVG 1.1//EN'  'http://www.w3.org/Graphics/SVG/1.1/DTD/svg11.dtd'>
<svg id="圖層_1" xmlns="http://www.w3.org/2000/svg" xml:space="preserve" height="36px" viewBox="0 0 36 36" width="36px" version="1.1" y="0px" x="0px" xmlns:xlink="http://www.w3.org/1999/xlink" enable-background="new 0 0 36 36">
		<g fill="#fff">
			<path d="m34.297 21.082l0.263-0.563c0.222-0.477 0.046-1.035-0.41-1.3-0.995-0.577-2.133-0.882-3.29-0.882-1.021 0-2.004 0.231-2.897 0.672 0.078-1.117-0.114-2.254-0.587-3.315l-1.969-4.421h1.091c0.459 0 0.834-0.375 0.834-0.834v-3.65c0-0.459-0.375-0.834-0.834-0.834h-2.69c-1.466 0-2.658 1.193-2.658 2.659 0 0.203 0.023 0.402 0.067 0.597h-1.953c-0.828 0-1.501 0.673-1.501 1.501s0.673 1.501 1.501 1.501h3.145l1.895 4.781c0.38 0.958 0.247 2.029-0.356 2.865-0.957 1.327-2.505 2.119-4.142 2.119h-1.466c-0.754 0-1.476-0.359-1.931-0.961l-3.148-4.163c0.525-0.167 0.908-0.659 0.908-1.239v-0.545c0-0.716-0.583-1.299-1.299-1.299h-2.804c-0.525 0-1.039-0.096-1.528-0.286-0.73-0.283-1.498-0.426-2.281-0.426h-4.087c-0.811 0-1.47 0.659-1.47 1.469v0.918c0 0.755 0.573 1.378 1.307 1.46l-0.62 3.661c-0.684 0.776-1.167 1.741-1.36 2.821-0.092 0.517 0.047 1.043 0.384 1.444 0.336 0.402 0.83 0.633 1.354 0.633h0.122c0.28 2.572 2.464 4.58 5.109 4.58s4.829-2.008 5.109-4.58h8.924c1.173 0 2.301-0.292 3.296-0.828 0.034 0.187 0.119 0.362 0.25 0.503 0.19 0.207 0.461 0.325 0.742 0.325h0.432c0.28 2.572 2.464 4.58 5.109 4.58 2.834 0 5.141-2.306 5.141-5.141 0.001-1.478-0.614-2.848-1.702-3.822zm-8.867-14.006h0.78v3.076h-0.78v-3.076zm-1.623 0h0.502v2.904c-0.257-0.458-0.747-0.77-1.31-0.77h-0.608c-0.079-0.188-0.121-0.39-0.121-0.597 0-0.847 0.688-1.537 1.537-1.537zm-0.808 4.016h-3.736c-0.21 0-0.381-0.17-0.381-0.38s0.171-0.381 0.381-0.381h3.736c0.21 0 0.381 0.171 0.381 0.381 0 0.209-0.171 0.38-0.381 0.38zm-12.689 3.799h2.56c0.099 0 0.179 0.08 0.179 0.179v0.546c0 0.099-0.08 0.179-0.179 0.179h-3.4l0.84-0.904zm-8.488 0.555v-0.918c0-0.192 0.156-0.349 0.349-0.349h4.086c0.644 0 1.275 0.118 1.876 0.351 0.251 0.098 0.507 0.174 0.768 0.232l-0.959 1.032h-5.772c-0.192 0-0.348-0.156-0.348-0.348zm5.175 13.478c-1.694 0-3.145-1.053-3.736-2.539 0.024 0.026 0.049 0.051 0.075 0.075 0.286 0.264 0.663 0.409 1.05 0.409 0.04 0 0.08-0.002 0.12-0.005 0.598 0.764 1.505 1.21 2.491 1.21 1.557 0 2.854-1.128 3.12-2.609h0.86c-0.273 1.952-1.954 3.459-3.98 3.459zm0.412-3.424l-2.989 0.247c-0.121 0.01-0.236-0.029-0.325-0.111-0.052-0.049-0.09-0.106-0.113-0.171h3.53c-0.031 0.019-0.065 0.032-0.103 0.035zm1.321-0.035h0.238c-0.245 0.858-1.035 1.489-1.971 1.489-0.328 0-0.643-0.077-0.923-0.219l1.427-0.118c0.631-0.053 1.137-0.542 1.229-1.152zm4.271-1.178c-0.017 0.026-0.048 0.057-0.104 0.057h-11.131c-0.192 0-0.372-0.084-0.495-0.23s-0.174-0.34-0.14-0.528c0.401-2.244 2.348-3.873 4.628-3.873h2.407c1.671 0 3.21 0.978 3.92 2.49l0.923 1.967c0.024 0.05 0.009 0.092-0.008 0.117zm8.029 0.057h-6.895c0.021-0.219-0.015-0.443-0.112-0.651l-0.923-1.967c-0.894-1.904-2.831-3.134-4.935-3.134h-2.406c-1.11 0-2.154 0.313-3.045 0.858l0.429-2.535h8.759l3.613 4.779c0.666 0.88 1.722 1.405 2.825 1.405h1.464c1.996 0 3.884-0.966 5.051-2.584 0.828-1.148 1.011-2.619 0.489-3.935l-1.776-4.48c0.296-0.122 0.544-0.336 0.709-0.606l2.074 4.655c0.806 1.81 0.643 3.881-0.437 5.542-1.077 1.662-2.903 2.653-4.884 2.653zm4.41 0c0.019-0.174 0.045-0.349 0.08-0.523 0.51-0.433 0.96-0.941 1.335-1.519 0.374-0.576 0.655-1.193 0.843-1.833 0.926-0.662 2.015-1.012 3.161-1.012 0.926 0 1.836 0.235 2.641 0.682l-0.901 1.937c-0.088 0.189-0.28 0.312-0.489 0.312h-0.375c-1.235 0-2.396 0.659-3.03 1.72-0.088 0.146-0.248 0.237-0.419 0.237h-2.846v-0.001zm7.469 0.56c0 1.13-0.92 2.05-2.05 2.05-0.975 0-1.792-0.685-1.999-1.598 0.332-0.128 0.619-0.362 0.806-0.675 0.433-0.725 1.226-1.174 2.068-1.174h0.375c0.079 0 0.156-0.006 0.232-0.017 0.364 0.38 0.568 0.883 0.568 1.414zm-2.05 4.02c-2.026 0-3.706-1.507-3.98-3.459h0.86c0.266 1.481 1.563 2.609 3.12 2.609 1.748 0 3.17-1.422 3.17-3.17 0-0.72-0.241-1.404-0.676-1.958 0.104-0.117 0.192-0.251 0.262-0.398l0.181-0.39c0.695 0.739 1.083 1.708 1.083 2.746 0 2.217-1.803 4.02-4.02 4.02z"/>
			<path d="m8.652 20.926h-3.31c-0.31 0-0.561 0.251-0.561 0.561s0.251 0.561 0.561 0.561h3.31c0.309 0 0.56-0.251 0.56-0.561s-0.25-0.561-0.56-0.561z"/>
			<path d="m8.652 22.382h-3.31c-0.31 0-0.561 0.251-0.561 0.561s0.251 0.561 0.561 0.561h3.31c0.309 0 0.56-0.251 0.56-0.561s-0.25-0.561-0.56-0.561z"/>
		</g>
</svg>
