<?xml version="1.0" encoding="UTF-8" standalone="no"?>
<!-- Generator: Adobe Illustrator 16.0.0, SVG Export Plug-In . SVG Version: 6.00 Build 0)  -->
<!DOCTYPE svg  PUBLIC '-//W3C//DTD SVG 1.1//EN'  'http://www.w3.org/Graphics/SVG/1.1/DTD/svg11.dtd'>
<svg id="Layer_1" xmlns="http://www.w3.org/2000/svg" xml:space="preserve" height="36px" viewBox="0 0 36 36" width="36px" version="1.1" y="0px" x="0px" xmlns:xlink="http://www.w3.org/1999/xlink" enable-background="new 0 0 36 36">
		<path d="m30.237 20.714h-24.284c-1.681 0-3.048-1.367-3.048-3.047v-12.953c0-1.68 1.368-3.047 3.048-3.047h24.285c1.682 0 3.049 1.367 3.049 3.047v12.953c-0.001 1.68-1.368 3.047-3.05 3.047zm-24.284-16.762c-0.42 0-0.762 0.343-0.762 0.762v12.953c0 0.419 0.341 0.762 0.762 0.762h24.285c0.422 0 0.762-0.343 0.762-0.762v-12.953c0-0.419-0.34-0.762-0.762-0.762h-24.285z" fill="#fff"/>
		<path d="m31.953 34.333h-27.906c-1.679 0-3.047-1.367-3.047-3.047v-0.109l1.907-9.917c0.063-1.624 1.405-2.927 3.045-2.927h24.285c1.645 0 2.988 1.31 3.047 2.938l1.716 9.917v0.099c0 1.679-1.367 3.046-3.047 3.046zm-28.662-2.963c0.042 0.381 0.366 0.678 0.757 0.678h27.906c0.394 0 0.719-0.302 0.758-0.685l-1.712-9.885v-0.098c0-0.42-0.34-0.762-0.762-0.762h-24.285c-0.42 0-0.762 0.342-0.762 0.762v0.109l-1.9 9.881z" fill="#fff"/>
			<path d="m17.785 16.888c-3.233 0-5.864-2.631-5.864-5.863s2.631-5.864 5.864-5.864c3.232 0 5.863 2.632 5.863 5.864s-2.63 5.863-5.863 5.863zm0-10.622c-2.624 0-4.759 2.135-4.759 4.759s2.135 4.759 4.759 4.759 4.759-2.135 4.759-4.759-2.135-4.759-4.759-4.759z" fill="#fff"/>
				<path d="m17.249 15.152v-0.962c-0.678-0.029-1.335-0.212-1.72-0.434l0.304-1.184c0.425 0.232 1.022 0.444 1.679 0.444 0.576 0 0.971-0.222 0.971-0.627 0-0.385-0.323-0.627-1.072-0.881-1.082-0.363-1.822-0.87-1.822-1.852 0-0.89 0.628-1.588 1.71-1.801v-0.959h0.991v0.891c0.679 0.03 1.134 0.172 1.468 0.333l-0.293 1.144c-0.263-0.111-0.729-0.344-1.457-0.344-0.658 0-0.87 0.283-0.87 0.567 0 0.334 0.354 0.546 1.213 0.869 1.205 0.426 1.691 0.981 1.691 1.892 0 0.9-0.638 1.67-1.801 1.873v1.031h-0.992z" fill="#fff"/>
			<path d="m29.571 28.952c0 0.289-0.233 0.523-0.524 0.523h-12.333c-0.289 0-0.523-0.234-0.523-0.523s0.235-0.523 0.523-0.523h12.333c0.291 0 0.524 0.234 0.524 0.523z" fill="#fff"/>
			<path d="m29.571 26.189c0 0.291-0.233 0.525-0.524 0.525h-12.333c-0.289 0-0.523-0.234-0.523-0.525 0-0.288 0.235-0.523 0.523-0.523h12.333c0.291 0 0.524 0.235 0.524 0.523z" fill="#fff"/>
			<path d="m29.571 23.429c0 0.289-0.233 0.524-0.524 0.524h-12.333c-0.289 0-0.523-0.235-0.523-0.524 0-0.29 0.235-0.524 0.523-0.524h12.333c0.291-0.001 0.524 0.234 0.524 0.524z" fill="#fff"/>
			<path d="m12.143 28.952c0 0.289-0.235 0.523-0.524 0.523h-5.19c-0.29 0-0.523-0.234-0.523-0.523s0.233-0.523 0.523-0.523h5.19c0.289 0 0.524 0.234 0.524 0.523z" fill="#fff"/>
			<path d="m12.143 26.189c0 0.291-0.235 0.525-0.524 0.525h-5.19c-0.29 0-0.523-0.234-0.523-0.525 0-0.288 0.233-0.523 0.523-0.523h5.19c0.289 0 0.524 0.235 0.524 0.523z" fill="#fff"/>
			<path d="m12.143 23.429c0 0.289-0.235 0.524-0.524 0.524h-5.19c-0.29 0-0.523-0.235-0.523-0.524 0-0.29 0.233-0.524 0.523-0.524h5.19c0.289-0.001 0.524 0.234 0.524 0.524z" fill="#fff"/>
			<path d="m14.565 29.571c0 0.158-0.168 0.286-0.375 0.286s-0.375-0.128-0.375-0.286v-6.952c0-0.157 0.168-0.286 0.375-0.286 0.208 0 0.375 0.129 0.375 0.286v6.952z" fill="#fff"/>
</svg>
