<?xml version="1.0" encoding="utf-8"?>
<!-- Generator: Adobe Illustrator 16.0.0, SVG Export Plug-In . SVG Version: 6.00 Build 0)  -->
<!DOCTYPE svg PUBLIC "-//W3C//DTD SVG 1.1//EN" "http://www.w3.org/Graphics/SVG/1.1/DTD/svg11.dtd">
<svg version="1.1" id="section1" xmlns="http://www.w3.org/2000/svg" xmlns:xlink="http://www.w3.org/1999/xlink" x="0px" y="0px"
	 width="623px" height="138px" viewBox="0 0 623 138" enable-background="new 0 0 623 138" xml:space="preserve">
<g>
	<path fill="#FFFFFF" d="M52.595,57.991h36.387v2.457h6.903V8.091h-49.9v52.356h6.61V57.991z M52.595,14.351H80.85l-2.749,2.75
		c1.521,0.819,3.276,2.047,4.504,3.101h-6.317c-0.117-1.638-0.176-3.276-0.233-4.973H70.32c0.117,1.696,0.175,3.334,0.292,4.973
		H54.759v4.914h16.263c0.527,5.791,1.288,11.114,2.516,15.327c-0.936,1.053-1.871,2.047-2.925,2.925l-0.117-2.925
		c-6.084,0.818-12.167,1.521-16.438,1.989l0.645,5.089c3.86-0.644,8.423-1.287,13.104-1.989c-0.585,0.41-1.229,0.819-1.872,1.17
		c1.17,0.936,3.042,3.159,3.802,4.211c2.224-1.403,4.213-3.1,6.085-4.972c1.17,1.931,2.632,3.275,4.388,3.861
		c3.86,1.755,6.902-0.468,7.838-7.664c-1.17-0.644-3.275-2.223-4.329-3.276c-0.233,3.393-0.701,5.675-1.345,5.44
		c-1.053-0.233-1.931-1.345-2.691-3.1c2.633-3.861,4.738-8.307,6.143-13.396l-5.323-1.053c-0.702,2.632-1.579,5.031-2.749,7.312
		c-0.469-2.632-0.819-5.674-1.112-8.95h10.472v-4.914h-2.809l2.341-2.457c-1.054-1.112-3.042-2.457-4.914-3.393h7.254V51.79H52.595
		V14.351z"/>
	<path fill="#FFFFFF" d="M69.268,27.63H56.222v11.115h13.046V27.63z M64.587,35.06h-3.92v-3.744h3.92V35.06z"/>
	<path fill="#FFFFFF" d="M155.963,32.603v-5.675h-30.068c0.585-0.994,1.053-1.931,1.58-2.925h23.165V18.68h-21.001
		c0.293-0.936,0.644-1.813,0.936-2.75h22.405v-5.557h-20.942c0.352-1.463,0.644-2.867,0.877-4.271l-7.312-0.644
		c-0.176,1.638-0.469,3.275-0.819,4.914h-18.545v5.557h17.083c-0.234,0.937-0.527,1.814-0.878,2.75h-13.222v5.323h10.706
		c-0.526,0.994-1.111,1.931-1.755,2.925h-15.21v5.675h10.764c-3.159,3.334-7.137,6.435-11.934,8.892
		c1.755,0.878,4.153,3.159,5.206,4.739c6.435-3.744,11.466-8.424,15.327-13.63h14.216c4.036,5.967,9.827,10.705,16.613,13.396
		c0.994-1.755,2.983-4.446,4.563-5.675c-5.148-1.579-9.828-4.329-13.28-7.722H155.963z"/>
	<path fill="#FFFFFF" d="M109.34,57.698c4.854-1.872,10.939-4.211,16.848-6.551v2.632c0,0.644-0.234,0.877-1.054,0.877
		c-0.701,0.059-3.275,0.059-5.557-0.058c0.818,1.58,1.696,3.802,2.047,5.499c3.86,0,6.61-0.059,8.658-0.877
		c2.106-0.937,2.69-2.281,2.69-5.265v-3.919c5.44,2.515,11.115,5.616,14.742,7.897l4.095-5.265
		c-2.749-1.521-6.61-3.509-10.589-5.499c1.404-1.345,2.983-2.924,4.329-4.504l-5.499-3.394c-1.111,1.638-2.808,3.627-4.445,5.382
		c-0.878-0.409-1.755-0.761-2.633-1.17v-9.185h-6.785v10.939c-1.814,0.643-3.627,1.229-5.441,1.872l2.75-2.223
		c-1.287-1.58-3.919-3.744-6.025-5.089l-4.563,3.568c1.755,1.345,3.919,3.159,5.147,4.68c-4.563,1.521-8.716,2.925-11.875,3.861
		L109.34,57.698z"/>
	<path fill="#FFFFFF" d="M191.005,14.818c0.233-3.51,0.351-6.669,0.409-9.126h-8.015c-0.234,9.887,0.877,36.095-22.873,48.789
		c2.34,1.58,4.563,3.802,5.791,5.674c12.168-7.137,18.311-17.725,21.528-28.021c3.393,10.062,9.886,21.469,22.873,27.67
		c0.936-1.989,2.925-4.329,5.09-6.025C195.392,44.771,191.823,22.716,191.005,14.818z"/>
	<path fill="#FFFFFF" d="M266.995,54.774v-4.856h4.738v-4.622h-4.738v-2.398h6.845v-4.914h-54.639v4.914h41.476v2.398h-16.379v4.622
		h4.387l-2.749,2.048c1.872,1.638,4.036,4.036,4.973,5.732l4.563-3.509c-0.818-1.287-2.398-2.867-3.919-4.271h9.125v4.68
		c0,0.585-0.233,0.702-0.818,0.702c-0.526,0-2.398,0-4.036-0.059c0.701,1.463,1.403,3.394,1.696,4.914c3.101,0,5.499,0,7.195-0.702
		C266.586,58.693,266.995,57.465,266.995,54.774z"/>
	<path fill="#FFFFFF" d="M229.438,57.523h13.221V44.771h-19.188v14.566h5.967V57.523z M229.438,49.099h7.079v4.037h-7.079V49.099z"
		/>
	<polygon fill="#FFFFFF" points="224.583,32.603 224.583,36.288 268.107,36.288 268.107,32.603 249.68,32.603 249.68,30.73 
		262.959,30.73 262.959,27.221 229.029,27.221 229.029,30.73 242.835,30.73 242.835,32.603 	"/>
	<path fill="#FFFFFF" d="M265.123,30.321l5.851,0.936c0.818-2.516,1.754-6.493,2.457-9.945l-4.856-0.761l-1.052,0.176h-46.8v4.68
		h45.278C265.708,27.279,265.416,28.976,265.123,30.321z"/>
	<polygon fill="#FFFFFF" points="242.776,14.877 226.046,14.877 226.046,18.972 267.054,18.972 267.054,14.877 249.797,14.877 
		249.797,12.888 272.201,12.888 272.201,8.56 249.797,8.56 249.797,5.634 242.776,5.634 242.776,8.56 221.015,8.56 221.015,12.888 
		242.776,12.888 	"/>
	<path fill="#FFFFFF" d="M55.52,125.733c0.878,0.702,2.106,2.223,2.574,3.159c4.973-4.504,5.908-11.992,6.084-22.522h-3.803
		C60.258,115.613,59.615,122.047,55.52,125.733z"/>
	<polygon fill="#FFFFFF" points="57.45,103.913 76.813,103.913 76.813,100.403 57.509,100.403 	"/>
	<path fill="#FFFFFF" d="M54.116,88.06c-2.517,6.084-6.553,12.344-10.472,16.555c0.76,0.819,1.931,2.867,2.281,3.744
		c1.404-1.521,2.75-3.333,4.153-5.323v26.793h3.861V96.776c1.403-2.398,2.573-4.914,3.627-7.429L54.116,88.06z"/>
	<path fill="#FFFFFF" d="M89.625,115.32c2.749-6.669,4.329-14.625,5.323-24.16h2.749v-3.744H85.764
		c0.878-3.275,1.521-6.786,2.105-10.296l-3.743-0.702c-1.287,8.893-3.51,17.375-7.313,22.873c0.877,0.761,2.164,2.457,2.691,3.218
		c0.818-1.111,1.521-2.457,2.164-3.802c0.995,6.083,2.281,11.583,4.036,16.379c-2.281,4.914-5.44,8.951-9.711,12.051
		c0.819,0.644,2.282,2.165,2.75,2.925c3.686-2.925,6.552-6.436,8.834-10.53c2.047,4.037,4.62,7.429,7.896,9.945
		c0.585-1.054,1.755-2.516,2.633-3.276C94.48,123.686,91.731,119.942,89.625,115.32z M84.126,92.915
		c0.117-0.526,0.351-1.17,0.526-1.755h6.61c-0.702,7.254-1.813,13.63-3.685,19.07C85.997,105.142,84.828,99.233,84.126,92.915z"/>
	<polygon fill="#FFFFFF" points="76.813,81.976 73.537,81.976 73.537,93.149 69.442,93.149 69.442,76.477 66.05,76.477 
		66.05,93.149 61.721,93.149 61.721,81.917 58.503,81.917 58.503,96.542 76.813,96.542 	"/>
	<path fill="#FFFFFF" d="M56.514,77.881l-3.627-1.463c-1.813,3.803-5.323,8.541-8.54,11.583c0.643,0.819,1.638,2.398,2.105,3.276
		C50.079,87.826,54.057,82.561,56.514,77.881z"/>
	<path fill="#FFFFFF" d="M78.744,114.618l-4.621,2.633v-10.998h-3.686v10.706c0,2.34-0.937,3.276-1.697,3.744
		c0.644,0.936,1.463,2.75,1.697,3.802c0.643-0.877,1.872-1.989,9.359-6.727C79.446,117.017,79.036,115.671,78.744,114.618z"/>
	<path fill="#FFFFFF" d="M155.262,83.613c-0.702,0.176-2.048,0.235-2.691,0.235h-3.101c-0.818,0-0.878-0.352-0.878-1.463V77.53
		h-13.688v3.041c0,1.872-0.702,3.335-5.265,4.563c0.585,0.585,1.345,2.048,1.638,2.867c5.616-1.58,6.902-4.505,6.902-7.313v-0.292
		h6.729v1.93c0,2.984,0.585,4.329,3.685,4.329h4.096c0.994,0,2.223-0.058,2.808-0.292C155.378,85.544,155.319,84.491,155.262,83.613
		z"/>
	<path fill="#FFFFFF" d="M130.398,101.69c4.447-0.761,8.775-1.989,12.52-3.861c3.978,1.813,7.722,3.568,10.179,5.031l2.105-2.633
		c-2.281-1.229-5.615-2.75-9.125-4.27c2.632-1.931,4.738-4.271,6.143-7.254l-2.165-0.877l-0.585,0.117h-17.608v2.867h15.327
		c-1.111,1.404-2.691,2.691-4.446,3.744c-2.983-1.228-6.025-2.339-8.717-3.334l-1.871,2.164c2.223,0.877,4.68,1.814,7.137,2.867
		c-3.276,1.345-6.902,2.165-10.589,2.632C129.346,99.643,130.106,100.871,130.398,101.69z"/>
	<path fill="#FFFFFF" d="M102.67,104.205c0.819,0.41,2.341,1.58,2.983,2.165c2.516-2.047,3.861-4.679,4.563-7.312h18.193v-9.126
		h-21.235v4.095C107.175,97.186,106.473,101.046,102.67,104.205z M119.167,92.564h5.616v3.919h-5.616V92.564z M110.802,94.144v-1.58
		h5.265v3.919h-5.382C110.743,95.665,110.802,94.904,110.802,94.144z"/>
	<polygon fill="#FFFFFF" points="104.718,81.976 115.481,81.976 115.481,84.667 106.298,84.667 106.298,87.416 128.937,87.416 
		128.937,84.667 119.459,84.667 119.459,81.976 130.048,81.976 130.048,79.227 119.459,79.227 119.459,76.418 115.481,76.418 
		115.481,79.227 104.718,79.227 	"/>
	<path fill="#FFFFFF" d="M153.916,111.108v-3.159h-22.464v-3.1c6.025-0.351,11.7-0.877,16.146-1.58l-3.218-2.516
		c-7.137,1.112-20.708,1.697-31.94,1.697c0.409,0.819,0.819,2.047,0.878,2.867c4.563,0,9.359-0.059,14.098-0.234v2.866h-22.404
		v3.159h16.672c-5.266,3.042-12.753,5.616-19.071,6.902c0.761,0.82,1.814,2.165,2.399,3.101c2.515-0.644,5.265-1.462,8.014-2.574
		v11.349h4.153v-1.58h25.155v1.404h4.271v-12.46c3.1,1.404,5.908,2.691,7.897,3.802l2.164-2.75
		c-3.92-2.047-10.471-4.797-16.73-7.195H153.916z M127.006,111.108h0.409v4.855h-8.365
		C122.033,114.443,124.842,112.863,127.006,111.108z M142.333,125.733h-25.155v-2.516h25.155V125.733z M142.333,120.936h-25.155
		v-2.398h25.155V120.936z M143.62,115.964h-12.168v-4.797C135.313,112.571,139.584,114.209,143.62,115.964z"/>
	<path fill="#FFFFFF" d="M205.688,112.629l-2.691-1.872l-0.819,0.175h-20.064c1.169-1.112,2.281-2.282,3.275-3.451l-0.994-0.352
		h9.418c3.744,0,4.914-1.17,5.323-5.85c-1.111-0.234-2.632-0.702-3.451-1.287c-0.234,3.451-0.585,3.918-2.398,3.918h-8.541
		c-2.457,0-2.867-0.233-2.867-1.462v-5.558h-4.094v5.616c0,2.75,0.701,3.92,3.158,4.388c-1.813,2.106-4.153,4.037-6.786,5.791
		c-1.404-1.287-2.749-2.69-3.802-4.153l-3.51,1.463c1.228,1.696,2.573,3.275,4.153,4.738c-2.633,1.462-5.441,2.808-8.19,3.861
		c0.877,0.644,2.457,2.106,3.042,2.866c2.691-1.169,5.382-2.632,8.015-4.211c2.632,2.048,5.732,3.92,9.125,5.44
		c-6.376,1.872-13.513,3.042-20.825,3.685c0.819,0.819,1.872,2.633,2.281,3.627c8.307-0.936,16.556-2.515,23.692-5.147
		c6.903,2.457,14.918,4.094,23.517,4.914c0.527-1.229,1.58-2.983,2.457-4.036c-7.371-0.527-14.215-1.58-20.357-3.334
		C198.668,119.942,202.821,116.724,205.688,112.629z M177.081,115.028l1.054-0.761h20.768c-2.633,2.633-6.26,4.797-10.354,6.494
		C184.16,119.181,180.357,117.309,177.081,115.028z"/>
	<path fill="#FFFFFF" d="M163.51,100.111h4.095V93.5h16.614l-1.696,1.813c3.1,1.346,6.786,3.568,8.658,5.148l2.281-2.574
		c-1.697-1.404-4.738-3.101-7.488-4.387h22.172v7.02h4.27V89.99h-10.588c1.696-2.048,3.51-4.622,5.089-7.02l-4.095-1.521
		c-1.287,2.516-3.627,6.143-5.382,8.541h-10.998h-10.647l2.224-0.995c-0.585-1.696-2.105-4.212-3.744-6.025
		c4.096-0.176,8.365-0.41,12.402-0.761l-3.335,1.229c1.404,1.989,2.69,4.738,3.101,6.552l3.744-1.346
		c-0.409-1.872-1.755-4.504-3.218-6.435c8.366-0.644,16.438-1.521,22.464-2.75l-2.866-3.042c-9.419,1.931-26.909,3.101-41.184,3.51
		c0.351,0.877,0.76,2.34,0.878,3.334c2.457-0.059,4.913-0.175,7.429-0.292l-2.983,1.228c1.346,1.755,2.75,4.095,3.393,5.792H163.51
		V100.111z"/>
	<path fill="#FFFFFF" d="M165.557,105.375l3.042,2.399c3.511-2.224,5.441-6.026,6.669-9.652l-3.393-1.405
		C170.822,100.052,168.717,103.503,165.557,105.375z"/>
	<path fill="#FFFFFF" d="M201.827,96.25l-2.984,2.105c3.394,2.691,7.255,6.669,9.01,9.243l3.1-2.34
		C209.197,102.568,205.22,98.824,201.827,96.25z"/>
	<path fill="#FFFFFF" d="M258.396,92.038c4.973,8.365,9.652,19.246,11.057,26.148l4.563-1.93
		c-1.463-7.021-6.377-17.608-11.524-25.798L258.396,92.038z"/>
	<path fill="#FFFFFF" d="M229.146,90.868c-1.404,7.839-4.622,17.901-9.828,24.043c1.17,0.468,3.042,1.521,4.095,2.281
		c5.265-6.494,8.658-16.965,10.53-25.447L229.146,90.868z"/>
	<path fill="#FFFFFF" d="M244.414,123.803c0,1.17-0.468,1.579-1.696,1.579c-1.111,0.059-5.323,0.117-9.594-0.058
		c0.702,1.228,1.521,3.275,1.813,4.504c5.44,0.059,9.067-0.059,11.173-0.76c2.048-0.761,2.926-2.047,2.926-5.265V77.296h-4.622
		V123.803z"/>
	<path fill="#FFFFFF" d="M282.907,85.661h17.666v6.201h3.511v-9.828h-9.77c-0.644-1.638-1.696-3.861-2.516-5.557l-3.393,1.228
		c0.585,1.346,1.229,2.866,1.755,4.329h-10.589v9.828h3.335V85.661z"/>
	<path fill="#FFFFFF" d="M315.315,88.762h-7.722v30.186h21.879V88.762h-10.589c0.527-1.755,1.054-3.803,1.639-5.791h10.822v-3.744
		h-25.447v3.744h10.529C316.135,84.842,315.726,87.007,315.315,88.762z M325.261,115.379h-13.63v-5.499h13.63V115.379z
		 M325.261,106.545h-13.63v-5.499h13.63V106.545z M325.261,92.271v5.44h-13.63v-5.44H325.261z"/>
	<path fill="#FFFFFF" d="M319.762,122.516c3.275,2.106,7.488,5.382,9.535,7.547l2.457-3.101c-2.164-2.165-6.376-5.265-9.594-7.195
		L319.762,122.516z"/>
	<path fill="#FFFFFF" d="M295.134,103.27c2.573-2.925,4.68-6.318,6.2-10.179l-2.222-1.638l-0.645,0.176h-8.541
		c0.585-1.112,0.994-2.223,1.404-3.393l-3.451-0.644c-1.404,3.978-4.271,8.541-8.775,11.699c0.702,0.585,1.813,2.048,2.34,2.925
		c2.75-2.105,4.914-4.563,6.669-7.195h8.308c-1.171,2.281-2.75,4.388-4.505,6.318c-1.638-0.994-3.276-1.93-4.68-2.69l-2.457,2.574
		c1.346,0.819,2.866,1.696,4.388,2.69c-3.394,2.809-7.371,4.973-11.35,6.436c0.761,0.76,1.872,2.574,2.282,3.568
		c0.994-0.351,1.989-0.819,2.983-1.346v17.082h3.744v-1.814h10.471v1.696h3.861v-17.607l0.409,0.292l2.574-3.101
		C301.979,107.54,298.644,105.375,295.134,103.27z M297.298,124.271h-10.471v-8.833h10.471V124.271z M284.428,111.869
		c2.809-1.521,5.616-3.51,8.073-5.85c3.334,2.106,6.493,4.271,8.6,5.85H284.428z"/>
	<path fill="#FFFFFF" d="M302.797,126.961c0.644,0.877,1.521,2.34,1.989,3.218c3.744-1.813,8.717-4.797,12.109-7.546l-2.983-2.75
		C311.279,122.34,306.482,125.265,302.797,126.961z"/>
	<path fill="#FFFFFF" d="M370.012,107.13l-2.632,2.691c4.095,1.755,9.125,4.68,11.816,6.786l2.633-2.983
		C379.138,111.576,374.107,108.827,370.012,107.13z"/>
	<path fill="#FFFFFF" d="M386.567,83.906l-2.633-1.58l-0.76,0.234h-12.929c0.994-1.814,1.813-3.686,2.574-5.441l-4.212-0.702
		c-2.106,5.324-6.025,11.934-11.875,16.848c0.877,0.585,2.281,1.814,2.982,2.75c2.048-1.813,3.861-3.802,5.558-5.85
		c1.697,2.808,3.686,5.499,5.967,8.014c-4.153,3.511-8.892,6.318-13.747,8.249c0.877,0.643,2.223,2.398,2.749,3.334
		c4.798-2.048,9.536-4.973,13.865-8.717c4.036,3.919,8.774,7.079,13.63,9.184c0.644-1.111,1.872-2.749,2.809-3.509
		c-4.798-1.814-9.536-4.739-13.572-8.366C380.951,94.319,384.345,89.464,386.567,83.906z M367.555,86.948l0.41-0.585h12.928
		c-1.696,3.393-4.036,6.435-6.785,9.243C371.533,92.915,369.252,89.99,367.555,86.948z"/>
	<path fill="#FFFFFF" d="M346.086,96.776c-2.106,3.159-3.979,5.616-4.914,6.61c-1.696,2.105-3.042,3.51-4.271,3.803
		c0.468,1.169,1.112,3.217,1.346,4.094c1.053-0.585,2.808-0.994,14.858-2.866c0.351,1.229,0.586,2.398,0.761,3.393l3.568-1.112
		c-0.585-3.1-2.223-8.19-3.803-12.167l-3.275,0.877c0.643,1.754,1.346,3.802,1.872,5.733l-8.834,1.228
		c4.798-5.323,9.419-12.167,13.279-18.895l-3.743-2.223c-1.229,2.632-2.867,5.382-4.389,7.839l-6.2,0.526
		c3.218-4.388,6.493-10.121,9.067-15.678l-3.978-1.696c-2.341,6.376-6.436,13.104-7.664,14.8c-1.229,1.755-2.223,2.983-3.217,3.217
		c0.409,1.053,1.111,3.042,1.345,3.919C338.715,97.771,339.943,97.478,346.086,96.776z"/>
	<path fill="#FFFFFF" d="M345.501,114.267c0.644,3.979,1.346,9.243,1.462,12.636l3.394-0.644c-0.176-3.452-0.878-8.6-1.639-12.636
		L345.501,114.267z"/>
	<path fill="#FFFFFF" d="M336.551,127.254c0.878,0.292,2.69,0.878,3.393,1.287c1.287-3.626,2.34-9.125,2.983-14.098l-3.568-0.643
		C338.773,118.479,337.896,123.686,336.551,127.254z"/>
	<path fill="#FFFFFF" d="M361.062,120.936c7.897,2.165,17.375,6.084,22.522,9.185l2.573-3.393c-5.265-2.866-14.8-6.786-22.521-8.892
		L361.062,120.936z"/>
	<path fill="#FFFFFF" d="M351.409,113.215c1.229,3.393,2.691,7.897,3.218,10.764l3.218-1.111c-0.526-2.867-2.048-7.254-3.394-10.589
		L351.409,113.215z"/>
	<path fill="#FFFFFF" d="M437.93,102.743V82.151h-16.087c0.994-1.521,1.989-3.333,2.866-5.031l-5.147-0.819
		c-0.585,1.638-1.58,3.919-2.574,5.85H405.17v26.852c-2.749,0.234-5.206,0.41-7.429,0.526l0.468,3.978
		c8.015-0.644,18.953-1.521,30.068-2.516c-9.185,6.494-20.416,11.291-32.525,14.391c0.878,0.995,2.281,2.925,2.925,3.92
		c12.87-3.686,24.92-9.185,34.865-16.848v11.115c0,1.228-0.409,1.58-1.638,1.696c-1.287,0-5.732,0.059-10.296-0.117
		c0.702,1.228,1.404,3.275,1.579,4.563c5.968,0,9.771-0.117,11.934-0.877c2.106-0.702,2.809-2.165,2.809-5.207v-14.8
		c3.627-3.276,6.845-6.903,9.652-10.822l-4.095-2.047C441.85,98.355,439.978,100.637,437.93,102.743z M433.542,106.896
		c-8.189,0.644-16.672,1.287-24.043,1.813v-5.499h24.043V106.896z M433.542,99.876h-24.043v-5.089h24.043V99.876z M433.542,91.453
		h-24.043v-5.44h24.043V91.453z"/>
	<polygon fill="#FFFFFF" points="478.178,86.013 460.101,86.013 460.101,88.937 500.816,88.937 500.816,86.013 482.448,86.013 
		482.448,82.912 505.263,82.912 505.263,79.87 482.448,79.87 482.448,76.418 478.178,76.418 478.178,79.87 455.889,79.87 
		455.889,82.912 478.178,82.912 	"/>
	<polygon fill="#FFFFFF" points="458.931,102.977 458.931,105.668 501.929,105.668 501.929,102.977 482.389,102.977 482.389,99.994 
		496.956,99.994 496.956,97.419 463.494,97.419 463.494,99.994 478.235,99.994 478.235,102.977 	"/>
	<path fill="#FFFFFF" d="M500.114,100.111l3.569,0.76c0.877-2.222,1.93-5.674,2.808-8.775l-2.866-0.585l-0.761,0.118h-47.853v3.217
		h46.565C501.051,96.776,500.583,98.707,500.114,100.111z"/>
	<path fill="#FFFFFF" d="M458.521,128.659h3.861v-2.165h13.571v-12.168h-17.433V128.659z M462.383,117.368h9.652v6.084h-9.652
		V117.368z"/>
	<path fill="#FFFFFF" d="M483.267,118.714l-2.866,1.989c2.048,1.755,4.329,4.27,5.323,5.966l2.984-2.281
		C487.654,122.75,485.314,120.351,483.267,118.714z"/>
	<path fill="#FFFFFF" d="M453.783,111.518h41.476v3.51h-17.023v3.159h17.023v7.664c0,0.585-0.175,0.761-0.76,0.761
		c-0.644,0.058-2.574,0.058-4.739,0c0.469,0.936,0.995,2.223,1.171,3.276c3.101,0,5.265,0,6.609-0.526
		c1.463-0.585,1.814-1.462,1.814-3.394v-7.78h5.791v-3.159h-5.791v-3.51h7.838v-3.334h-53.409V111.518z"/>
	<path fill="#FFFFFF" d="M556.859,113.215l-3.92-0.585c-1.286,6.318-4.388,11.29-9.126,14.391c0.937,0.702,2.34,2.105,2.926,2.866
		c2.925-2.105,5.323-4.914,7.078-8.307c3.451,2.398,7.078,5.381,9.067,7.429l2.574-2.925c-2.165-2.281-6.377-5.44-10.063-7.78
		C556.04,116.724,556.508,114.97,556.859,113.215z"/>
	<path fill="#FFFFFF" d="M549.43,77.354l-4.212-1.346c-3.276,5.44-9.594,11.232-16.613,14.918c0.936,0.643,2.281,2.047,2.924,2.866
		c2.165-1.229,4.271-2.574,6.26-4.095v3.393h17.434v-3.51h-17.258c2.983-2.224,5.674-4.739,8.015-7.43
		c4.797,4.329,11.875,8.658,17.842,11.232c0.352-1.111,1.229-2.866,1.989-3.919c-5.967-2.106-13.279-6.084-17.667-10.179
		C548.61,78.642,549.021,77.998,549.43,77.354z"/>
	<path fill="#FFFFFF" d="M544.808,97.302h-13.104v14.041h13.104V97.302z M541.299,108.184h-6.26v-7.664h6.26V108.184z"/>
	<path fill="#FFFFFF" d="M561.772,97.302h-13.337v14.041h13.337V97.302z M558.263,108.184h-6.493v-7.664h6.493V108.184z"/>
	<path fill="#FFFFFF" d="M529.481,108.067c0-3.569-0.936-7.781-4.914-12.578c1.872-4.68,3.861-10.471,5.499-15.21l-2.691-1.696
		l-0.643,0.235h-12.285v50.894h3.744V82.736h6.961c-1.053,3.92-2.691,9.009-4.271,13.163c3.861,4.622,4.855,8.658,4.855,11.817
		c0,1.813-0.351,3.393-1.17,4.037c-0.409,0.351-1.053,0.526-1.696,0.526c-0.937,0.059-1.931,0.059-3.276-0.058
		c0.702,1.111,1.054,2.75,1.112,3.861c1.169,0.058,2.573,0.058,3.685-0.059c1.111-0.176,2.165-0.526,2.926-1.111
		C528.838,113.741,529.481,111.226,529.481,108.067z"/>
	<path fill="#FFFFFF" d="M538.899,117.836c0.645-1.346,1.229-2.866,1.696-4.329l-3.919-0.819
		c-1.871,6.318-5.791,11.35-11.174,14.508c0.937,0.702,2.399,2.106,2.984,2.867c3.393-2.34,6.435-5.499,8.775-9.302
		c2.222,1.697,4.679,3.627,5.908,5.089l2.281-2.925C544.106,121.462,541.356,119.356,538.899,117.836z"/>
	<path fill="#FFFFFF" d="M596.309,93.579c-0.43,0.099-18.822,2.99-18.937,2.994c-3.031,0.099-4.521-0.99-4.967-2.226
		c-0.396,1.984-1.069,3.953-1.966,5.847c11.555,15.425,0.855,17.809,21.14,0.398c3.035-2.605,6.364-5.425,9.685-8.486
		c-0.59,0.284-1.19,0.509-1.804,0.658C598.404,93.022,597.354,93.343,596.309,93.579z"/>
	<path fill="#FFFFFF" d="M622.96,51.267c-0.73-15.761-16.889-27.816-28.243-27.291s-18.908,7.242-23.565,13.138
		c-5.182-5.441-8.537-10.572-19.891-10.046c-11.354,0.525-22.522,12.335-21.793,28.097c0.347,7.489,3.358,12.736,7.754,17.146
		c10.365-1.224,19.822,0.066,25.002,2.318c5.276,2.294,10.34,12.094,9.843,17.61c0.356-0.49,1.56-1.057,2.226-1.175
		c1.101-0.193,1.986-0.252,3.134-0.53c12.976-1.535,18.786-8.221,5.332-13.277c-0.12-0.045-16.818-9.375-18.139-10.037
		c-0.894-0.448-2.251-1.42-2.745-2.293c-3.516-6.2,3.287-4.819,6.85-2.331c0.497,0.346,0.994,0.611,1.479,0.992
		c0.826,0.651,9.798,5.209,9.746,5.258c4.587,1.394,4.197-2.277,0.59-5.824c-4.813-4.736-8.326-7.673-12.916-12.146
		c-0.512-0.498-0.71-0.944-1.128-1.471c-2.705-3.408,1.543-8.867,8.526-0.169c1.992,2.483,12.661,14.36,15.184,12.665
		c2.938-1.819-7.763-15.805-9.771-19.627c-3.914-7.438,2.107-9.41,5.486-2.418c2.689,4.598,7.003,12.698,9.631,16.798
		c0.939,1.465,1.87,1.751,2.883,1.399c4.012-1.388-5.346-12.177-2.163-16.815c1.172-1.911,4.292,0.699,4.606,1.976
		c1.353,5.479,2.055,8.673,5.796,18.532c3.401,6.971,4.872,7.513,7.769,13.396c0.297,0.549,0.449,1.146,0.48,1.754
		C620.011,69.491,623.411,61.019,622.96,51.267z"/>
	<rect y="0.723" fill="#FFFFFF" width="11.052" height="136.555"/>
</g>
</svg>
