<?xml version="1.0" encoding="UTF-8" standalone="no"?>
<!-- Generator: Adobe Illustrator 16.0.0, SVG Export Plug-In . SVG Version: 6.00 Build 0)  -->
<!DOCTYPE svg  PUBLIC '-//W3C//DTD SVG 1.1//EN'  'http://www.w3.org/Graphics/SVG/1.1/DTD/svg11.dtd'>
<svg id="section1" xmlns="http://www.w3.org/2000/svg" xml:space="preserve" height="182px" viewBox="0 0 432 182" width="432px" version="1.1" y="0px" x="0px" xmlns:xlink="http://www.w3.org/1999/xlink" enable-background="new 0 0 432 182">
		<g fill="#fff">
			<path d="m352.95-1496.1v74.278h-9.794v-3.485h-51.621v3.485h-9.379v-74.278h70.79zm-9.8 62v-53.115h-10.291c2.656 1.328 5.478 3.237 6.972 4.813l-3.319 3.486h3.983v6.971h-14.854c0.414 4.647 0.912 8.963 1.575 12.698 1.66-3.236 2.905-6.639 3.901-10.374l7.552 1.494c-1.991 7.22-4.979 13.528-8.714 19.005 1.079 2.49 2.322 4.067 3.816 4.399 0.914 0.332 1.578-2.905 1.91-7.718 1.492 1.494 4.48 3.734 6.142 4.647-1.328 10.208-5.644 13.362-11.121 10.872-2.49-0.83-4.563-2.739-6.226-5.478-2.656 2.656-5.478 5.063-8.631 7.054-1.078-1.494-3.734-4.646-5.395-5.975 0.912-0.498 1.824-1.079 2.654-1.66-6.64 0.996-13.111 1.909-18.59 2.822l-0.912-7.22c6.059-0.664 14.688-1.66 23.319-2.822l0.166 4.149c1.494-1.245 2.822-2.656 4.15-4.149-1.743-5.976-2.822-13.528-3.569-21.744h-23.07v-6.971h22.489c-0.166-2.324-0.249-4.648-0.415-7.055h8.135c0.082 2.407 0.166 4.731 0.332 7.055h8.963c-1.744-1.494-4.232-3.237-6.392-4.399l3.901-3.9h-40.086v53.115h51.62zm-27.96-18.5h-18.51v-15.769h18.508v15.8zm-6.64-10.6h-5.561v5.313h5.561v-5.3z"/>
			<path d="m421.84-1461.3c4.896 4.813 11.536 8.714 18.84 10.955-2.241 1.743-5.063 5.561-6.474 8.05-9.627-3.818-17.844-10.54-23.57-19.005h-20.167c-5.478 7.386-12.614 14.026-21.743 19.337-1.494-2.241-4.896-5.478-7.387-6.723 6.805-3.485 12.448-7.884 16.93-12.615h-15.271v-8.05h21.578c0.913-1.411 1.743-2.739 2.489-4.149h-15.188v-7.553h18.756c0.498-1.328 0.913-2.573 1.245-3.9h-24.233v-7.884h26.309c0.498-2.324 0.913-4.647 1.162-6.971l10.374 0.913c-0.332 1.992-0.747 3.984-1.244 6.059h29.711v7.884h-31.79c-0.415 1.328-0.913 2.573-1.328 3.9h29.795v7.553h-32.865c-0.746 1.411-1.41 2.739-2.24 4.149h42.658v8.05h-16.36zm1.58 14.2c-1.909 2.241-4.148 4.481-6.143 6.39 5.645 2.822 11.121 5.644 15.021 7.801l-5.81 7.47c-5.146-3.237-13.195-7.636-20.915-11.204v5.561c0 4.232-0.829 6.141-3.816 7.469-2.904 1.162-6.806 1.245-12.283 1.245-0.498-2.407-1.742-5.561-2.904-7.801 3.236 0.166 6.89 0.166 7.885 0.083 1.162 0 1.494-0.332 1.494-1.245v-3.735c-8.383 3.32-17.014 6.64-23.901 9.295l-4.481-8.216c4.481-1.328 10.373-3.32 16.848-5.478-1.742-2.158-4.813-4.73-7.303-6.64l6.473-5.063c2.988 1.909 6.723 4.979 8.549 7.22l-3.9 3.154c2.572-0.913 5.146-1.743 7.719-2.656v-15.52h9.627v13.03c1.244 0.581 2.49 1.079 3.734 1.66 2.323-2.49 4.73-5.312 6.308-7.635l7.79 4.6z"/>
			<path d="m488.49-1499.5c-0.083 3.486-0.249 7.967-0.581 12.947 1.162 11.204 6.225 42.492 35.188 55.273-3.07 2.407-5.893 5.727-7.221 8.548-18.424-8.797-27.637-24.98-32.45-39.256-4.563 14.607-13.277 29.628-30.541 39.753-1.743-2.656-4.896-5.809-8.216-8.05 33.694-18.009 32.117-55.19 32.449-69.216l11.37 0.1z"/>
			<path d="m595.72-1446.7v3.402h6.723v6.557h-6.723v6.888c0 3.818-0.581 5.561-3.236 6.64-2.406 0.996-5.811 0.996-10.208 0.996-0.415-2.158-1.41-4.896-2.406-6.971 2.323 0.083 4.979 0.083 5.727 0.083 0.829 0 1.161-0.166 1.161-0.996v-6.639h-12.945c2.156 1.992 4.397 4.232 5.561 6.059l-6.474 4.979c-1.328-2.407-4.398-5.81-7.056-8.133l3.901-2.905h-6.225v-6.557h23.236v-3.402h-58.842v-6.972h77.516v6.972l-9.7-0.1zm-2.65-17.9c0.415-1.909 0.83-4.315 1.245-6.971h-64.236v-6.64h66.395l1.493-0.249 6.889 1.079c-0.995 4.896-2.323 10.54-3.484 14.109l-8.31-1.4zm-31.71-24.7h-30.873v-6.142h30.873v-4.15h9.959v4.15h31.786v6.142h-31.786v2.822h24.482v5.809h-58.178v-5.809h23.735v-2.8zm-0.16 63.3h-18.756v2.573h-8.467v-20.665h27.223v18.1zm0.25-35.3v-2.656h-19.586v-4.979h48.136v4.979h-18.84v2.656h26.14v5.229h-61.746v-5.229h25.9zm-19.01 23.4v5.727h10.042v-5.727h-10.04z"/>
			<path d="m336.6-1360c-2.324 7.387-5.479 13.445-9.711 18.259 9.959 4.232 19.172 8.88 25.479 12.947l-4.647 5.396c-6.142-4.15-15.438-9.046-25.729-13.528-8.382 7.054-20.001 11.121-35.521 13.777-0.582-1.66-2.572-4.565-3.9-6.142 14.273-1.826 24.979-4.979 32.699-10.54-7.72-3.237-15.77-6.142-22.99-8.465 2.406-3.237 5.063-7.303 7.72-11.702h-18.011v-5.892h21.246c2.738-4.979 5.146-9.959 6.89-14.441l6.888 1.245c-1.658 4.232-3.816 8.714-6.225 13.196h20.168c0.581-2.573 1.078-5.312 1.493-8.216l7.221 0.664c-0.415 2.656-0.913 5.229-1.494 7.553h15.188v5.892h-16.78v-0.2zm-46.4-12.9h-6.143v-16.598h30.875c-1.162-2.656-2.656-5.893-4.067-8.465l6.557-1.66c1.743 3.154 3.9 7.221 5.146 10.125h28.55v16.598h-6.391v-10.872h-54.526l-0.01 11zm17.35 12.9c-1.908 3.237-3.734 6.225-5.561 8.88 5.976 1.909 12.283 4.315 18.508 6.723 3.9-4.15 6.805-9.295 8.963-15.604h-21.91z"/>
			<path d="m432.3-1363.6h-49.049l3.403 1.328c-0.416 0.498-0.83 0.996-1.245 1.494 4.314 2.241 9.212 5.146 11.784 7.22l-2.24 3.818c-0.747-0.581-1.659-1.328-2.738-2.075v3.735h-8.051v4.315h12.199v3.984h-12.19v9.046l2.738-0.332c1.246-2.324 2.738-5.727 3.319-7.967l4.149 1.162c-0.995 2.324-2.074 4.481-3.07 6.308l5.479-0.498v4.232c-11.619 1.328-23.653 2.739-32.284 3.818l-0.747-4.647c4.232-0.415 9.627-0.913 15.604-1.577v-9.544h-13.78v-3.984h13.775v-4.315h-8.631v-2.324c-1.66 0.747-3.32 1.494-4.979 2.158-0.664-1.162-1.992-2.739-3.237-3.735 7.47-2.407 15.521-6.639 19.836-11.619h-13.03v-4.399h15.354c-0.581-1.494-1.494-3.236-2.323-4.564l4.646-1.162c1.162 1.66 2.406 3.9 2.822 5.395l-0.996 0.332h8.797v-6.39h-22.573v-4.067h22.573v-4.149h-13.19v-3.071c-5.313 1.909-10.789 3.486-16.102 4.73-0.746-1.328-2.074-3.485-3.318-4.647 13.277-2.656 28.633-7.635 36.932-14.109l4.646 2.573c-0.58 0.415-1.244 0.913-1.825 1.411 9.96 4.813 21.08 7.22 31.04 9.129-1.245 1.162-2.822 3.237-3.486 4.897-4.979-1.162-10.042-2.49-15.354-4.15v3.237h-13.527v4.149h22.407v4.067h-22.407v6.39h7.303c1.245-1.992 2.656-4.397 3.32-6.224l5.313 1.328c-1.08 1.743-2.242 3.403-3.237 4.896h16.184v4.397h0.02zm-59.59 25c1.328 2.075 2.656 4.979 3.07 6.889l-3.899 1.162c-0.498-1.909-1.743-4.896-2.987-7.137l3.82-1zm19.42-13.3c-2.821-1.992-6.558-4.232-9.876-5.892-2.573 2.158-5.479 4.149-8.715 5.892h18.59zm22.9-34.6c-4.73-1.743-9.71-3.817-14.523-6.473-4.148 2.407-8.88 4.564-13.859 6.473h28.38zm17.27 49.1c-1.245 2.573-2.738 5.146-3.983 7.386h8.964v4.481h-38.095v-4.481h6.724c-0.581-1.992-1.908-5.063-3.236-7.386l3.983-1.079c1.494 2.158 2.822 5.146 3.402 7.055l-3.9 1.411h8.715v-9.544h-14.607v-3.984h14.607v-4.564h-9.379v-2.158c-1.493 0.664-3.153 1.245-4.73 1.826-0.664-1.162-1.908-2.739-3.152-3.652 7.801-2.407 16.018-6.639 20.498-11.536l4.315 1.577c-0.498 0.664-1.079 1.245-1.66 1.826 4.979 3.402 10.872 5.726 17.098 7.386-1.162 0.996-2.572 2.656-3.236 3.9-1.826-0.664-3.486-1.245-5.229-1.992v2.822h-9.461v4.564h15.687v3.984h-15.687v9.544h3.817c1.494-2.573 3.319-6.059 4.315-8.548l4.24 1.2zm-4.98-14.5c-3.319-1.66-6.475-3.485-9.545-5.726-2.572 2.158-5.561 4.066-8.797 5.726h18.34z"/>
			<path d="m498.78-1384.1c-1.908 7.719-4.481 14.773-7.552 21.163 5.644 14.939 16.765 28.135 30.789 34.027-1.493 1.162-3.401 3.734-4.397 5.395-13.196-6.225-23.487-18.176-30.127-32.699-9.378 15.603-22.407 26.558-36.601 33.031-0.912-1.577-3.235-4.316-4.729-5.395 20.084-8.548 37.181-25.313 44.567-51.041h-21.661c-5.146 9.793-11.37 18.258-18.343 24.483-1.16-1.162-3.899-3.403-5.478-4.482 11.121-8.963 19.836-23.487 24.981-39.504l6.473 1.494c-1.327 4.066-2.904 8.05-4.647 11.868h21.163l1.162-0.332 4.41 1.9z"/>
			<path d="m581.78-1384.1c-1.908 7.719-4.481 14.773-7.552 21.163 5.644 14.939 16.765 28.135 30.789 34.027-1.493 1.162-3.401 3.734-4.397 5.395-13.196-6.225-23.487-18.176-30.127-32.699-9.378 15.603-22.407 26.558-36.601 33.031-0.911-1.577-3.235-4.316-4.729-5.395 20.084-8.548 37.181-25.313 44.567-51.041h-21.661c-5.146 9.793-11.37 18.258-18.343 24.483-1.16-1.162-3.899-3.403-5.478-4.482 11.121-8.963 19.836-23.487 24.981-39.504l6.473 1.494c-1.327 4.066-2.904 8.05-4.647 11.868h21.163l1.162-0.332 4.41 1.9z"/>
			<path d="m643.2-1376.8c-3.319 26.89-12.697 44.401-25.396 53.53-0.913-1.328-2.903-3.569-4.314-4.399 7.221-4.813 13.194-12.283 17.512-22.408-2.905-2.905-7.221-6.557-11.37-9.627-1.411 2.739-2.987 5.229-4.563 7.469-0.83-1.079-2.988-3.402-4.315-4.398 6.059-8.05 9.959-20.001 12.448-33.031h-10.125v-5.644h31.786v5.644h-15.77c-0.664 4.066-1.66 8.05-2.737 11.868h12.281l0.996-0.249 3.56 1.1zm-18.5 4.6c-0.747 2.407-1.66 4.896-2.656 7.137 3.818 2.656 8.051 5.893 11.204 8.714 1.577-4.73 2.822-10.042 3.651-15.852l-12.19 0.1zm56.43 28.1c-3.319 3.984-7.552 7.387-12.531 10.375 3.568 3.236 7.553 5.063 11.452 4.979 2.49 0 3.154-2.158 3.569-8.548 1.245 1.079 2.987 1.992 4.48 2.324-0.913 9.129-2.904 11.702-8.217 11.702-6.058 0-11.701-2.822-16.266-7.636-6.806 3.32-14.358 5.893-21.578 7.802-0.747-1.245-2.49-3.818-3.735-4.98 7.554-1.66 15.188-3.9 21.744-6.971-2.156-3.237-4.148-6.888-5.644-11.038l-13.859 1.162-0.415-5.229 12.781-0.996c-0.83-3.237-1.411-6.722-1.66-10.374h5.645c0.249 3.486 0.83 6.805 1.658 9.959l27.97-1.992 0.415 5.063-26.642 2.075c1.328 3.32 2.988 6.225 4.896 8.797 4.231-2.49 7.802-5.229 10.374-8.465l5.58 1.8zm-25.31-43.7c-0.996-3.569-1.743-7.303-1.992-11.287h5.561c0.249 3.818 0.913 7.469 1.909 10.789l24.399-1.992 0.415 5.063-22.988 1.909c1.161 2.822 2.572 5.229 4.148 7.386 3.568-2.158 6.558-4.481 8.798-7.22l5.229 1.909c-2.821 3.403-6.557 6.308-10.706 8.963 3.071 2.822 6.475 4.397 9.71 4.314 2.158 0 2.822-1.909 3.154-7.469 1.162 0.996 2.904 1.826 4.397 2.241-0.912 8.299-2.82 10.623-7.802 10.623-5.229 0-10.208-2.656-14.439-6.971-5.894 2.988-12.448 5.229-18.673 6.971-0.664-1.162-2.49-3.402-3.652-4.481 6.64-1.494 13.362-3.569 19.089-6.391-1.826-2.656-3.569-5.892-4.979-9.378l-14.191 1.245-0.498-5.146 13.1-1zm12.28 25c4.398 1.328 10.125 3.486 13.195 5.229l-3.07 4.15c-2.987-1.743-8.715-4.15-13.195-5.645l3.06-3.8zm9.63-26.9c-2.573-1.826-7.471-4.316-11.453-5.893l2.903-3.652c3.901 1.328 8.881 3.569 11.619 5.396l-3.07 4.2z"/>
			<path d="m731.85-1342.6c-0.995 10.955-1.99 15.437-3.816 17.262-1.328 1.328-2.738 1.66-4.813 1.826-1.826 0.083-5.312 0.166-8.797-0.083-0.166-1.494-0.747-3.403-1.494-4.813 3.485 0.415 6.89 0.415 8.216 0.415 1.245 0 1.992-0.083 2.573-0.664 0.996-1.079 1.826-4.316 2.655-11.785h-16.93c1.326-4.066 2.737-9.959 3.733-14.689h14.191v-6.723h-10.457c-2.655 1.494-5.479 2.656-8.216 3.652-0.498-1.079-1.66-2.656-2.656-3.735-0.332 12.2-1.908 27.72-7.469 38.675-0.913-1.162-3.403-2.988-4.648-3.652 5.977-11.951 6.474-28.964 6.474-40.999v-24.73h31.205c-0.995-1.577-2.073-2.988-3.235-4.316l4.979-2.573c1.909 1.992 3.817 4.648 5.146 6.889h31.371v5.146h-63.738v19.586c0 1.743 0 3.652-0.083 5.561 4.397-1.494 8.798-3.485 12.615-6.141-2.324-1.743-5.313-3.818-7.969-5.229l3.486-2.905c2.655 1.411 5.976 3.402 8.216 5.063 2.49-2.075 4.564-4.565 6.143-7.138h-16.26v-4.481h19.171l0.913-0.249 3.32 1.577c-2.573 6.39-6.889 11.619-12.2 15.686h8.88v15.354h-15.1c-0.498 2.075-0.996 4.066-1.494 5.976h16.35l-0.25 1.9zm30.62-3.2c-1.577 4.813-4.066 8.714-7.304 11.868 3.734 2.241 7.221 4.314 9.627 6.141l-3.485 3.901c-2.489-1.909-6.059-4.316-10.042-6.64-4.896 3.569-10.872 5.893-17.429 7.387-0.498-1.245-1.494-3.071-2.573-4.15 5.728-1.079 11.204-3.071 15.687-5.893-3.9-2.158-7.884-4.315-11.535-6.058l3.236-3.154h-4.315v-4.399h24.15l0.913-0.166 3.05 1.2zm5.39-28.7c-2.739 2.158-6.06 4.149-9.13 5.81 3.817 2.324 8.051 4.232 12.78 5.313-1.244 1.079-2.738 3.154-3.484 4.48-4.233-1.245-8.217-2.988-11.702-5.229v8.382c0 1.66 0.083 2.158 1.162 2.158h4.148c0.83 0 2.489-0.083 3.402-0.332 0.083 1.245 0.249 2.905 0.332 4.15-0.747 0.249-2.324 0.332-3.651 0.332h-4.896c-4.565 0-5.479-1.826-5.479-6.39v-5.81h-8.3v1.494c0 4.233-1.162 9.129-6.888 12.615-0.664-1.079-2.573-2.905-3.569-3.569 4.896-2.739 5.562-6.059 5.562-9.212v-5.893h15.271c-5.976-4.565-10.457-10.457-13.361-17.678l4.481-1.162c0.996 2.324 2.324 4.48 3.817 6.639 2.738-1.909 5.81-4.232 7.719-5.809l3.982 2.573c-2.82 2.324-6.225 4.564-9.295 6.224 1.328 1.494 2.821 2.822 4.315 4.067 3.07-1.743 6.557-4.15 8.631-5.727l4.15 2.5zm-28.71 32.1c3.733 1.743 7.884 3.9 11.784 6.141 1.991-1.826 3.568-3.817 4.896-6.141h-16.68z"/>
			<path d="m777.91-1325.6c3.735-4.149 8.051-10.872 10.872-16.93l5.81 1.66c-2.82 6.142-6.972 13.279-10.789 17.926l-5.89-2.7zm9.96-18.5h-5.811v-51.455h23.985v47.223h-18.176l0.01 4.3zm0-45.9v14.44h12.449v-14.44h-12.45zm12.45 36.1v-16.184h-12.449v16.184h12.45zm7.8 13.2c1.078 5.312 1.991 12.117 2.074 16.184l-6.06 0.913c0-4.15-0.664-11.121-1.742-16.516l5.73-0.6zm21.42-49.5c-1.909 10.042-6.392 16.681-19.089 20.499-0.581-1.328-2.157-3.569-3.319-4.646 10.789-2.905 14.689-8.133 16.351-15.853h-13.78v-5.478h40.75s-0.083 1.577-0.166 2.407c-0.747 11.951-1.494 16.848-3.32 18.756-1.244 1.328-2.655 1.826-4.813 1.909-1.908 0.166-5.562 0.166-9.295-0.083-0.166-1.494-0.747-3.568-1.66-5.063 3.651 0.332 7.055 0.415 8.3 0.415 1.244 0 2.074-0.166 2.572-0.747 0.996-1.079 1.66-4.315 2.24-12.117h-14.77zm18.59 44.5h-36.019v-22.823h36.019v22.8zm-6.06-17.8h-24.15v12.615h24.15v-12.6zm-16.27 21.9c2.241 5.229 4.564 12.034 5.396 16.267l-6.06 1.494c-0.829-4.233-2.903-11.37-5.063-16.599l5.72-1.2zm16.6-1.6c3.982 5.395 8.632 12.698 10.788 17.429l-5.893 2.573c-1.908-4.565-6.474-12.2-10.374-17.678l5.47-2.3z"/>
			<path d="m889.88-1380h-29.131v-5.063h29.131v5.1zm-2.57 51.6h-17.93v3.9h-5.312v-27.885h23.236v24zm-0.25-40.9h-22.904v-4.896h22.904v4.9zm-22.91 5.9h22.904v4.896h-22.904v-4.9zm5.23 16.2v13.693h12.531v-13.693h-12.53zm6.56-38.8c-1.078-2.988-3.733-7.635-5.975-11.038l4.646-2.49c2.406 3.403 5.063 7.801 6.309 10.706l-4.98 2.8zm20.08 16.6c-1.411 1.826-2.822 3.652-4.398 5.063-0.664-0.996-2.324-3.403-3.403-4.481 4.564-4.233 8.632-10.706 10.789-17.346l4.813 1.328v-4.316h-13.444v-4.896h13.444v-5.063h5.561v14.524h-5.395c-0.664 1.826-1.411 3.734-2.24 5.561h10.789c-0.581-1.743-1.162-3.818-1.826-5.395l5.313-1.494c0.995 2.158 1.991 4.813 2.654 6.889h15.438v4.149h-16.185v4.149h14.025v3.652h-14.025v4.149h14.025v3.652h-14.025v4.398h18.01v4.067h-34.69v1.66h-5.229v-20.3h0.01zm36.18 23.8c-2.988 5.229-7.553 9.461-12.947 12.864 5.479 2.075 11.868 3.735 18.259 4.564-1.327 1.245-2.821 3.486-3.484 4.897-7.388-1.245-14.358-3.486-20.583-6.474-6.805 3.154-14.606 5.313-22.407 6.557-0.498-1.411-1.66-3.735-2.656-4.98 6.724-0.83 13.528-2.407 19.586-4.73-3.899-2.573-7.22-5.478-9.793-8.88l2.573-0.913h-9.295v-4.564h36.102l0.996-0.249 3.64 1.8zm-19.58-29.2h-11.37v4.149h11.37v-4.1zm0 7.8h-11.37v4.149h11.37v-4.1zm0 7.8h-11.37v4.398h11.37v-4.4zm-8.8 16.5c2.573 2.739 5.893 5.229 9.71 7.303 3.983-1.992 7.47-4.481 10.125-7.303h-19.84zm19.59-41.9h-5.645v-14.524h5.645v5.063h12.531v4.896h-12.531v4.5z"/>
			<path d="m303.98-1249.3c-0.25-1.411-0.582-3.071-1.08-4.813-17.096 2.656-19.586 3.237-21.079 4.067-0.332-1.245-1.245-4.15-1.909-5.811 1.743-0.415 3.652-2.407 6.059-5.395 1.328-1.411 3.983-4.896 6.973-9.378-8.715 0.996-10.457 1.411-11.619 1.992-0.332-1.245-1.328-4.067-1.909-5.561 1.411-0.332 2.822-2.075 4.565-4.565 1.742-2.407 7.552-11.951 10.871-20.997l5.644 2.407c-3.651 7.884-8.299 16.018-12.863 22.242l8.798-0.747c2.157-3.485 4.48-7.386 6.225-11.121l5.313 3.154c-5.479 9.544-12.035 19.254-18.84 26.807l12.531-1.743c-0.747-2.739-1.742-5.644-2.655-8.133l4.647-1.245c2.24 5.644 4.563 12.864 5.395 17.263l-5.06 1.4zm-15.52 3.7c-0.913 7.054-2.406 14.855-4.232 20.001-0.996-0.581-3.568-1.411-4.813-1.826 1.909-5.063 3.153-12.449 3.983-19.088l5.06 0.9zm8.22-1.2c1.078 5.727 2.074 13.03 2.323 17.927l-4.813 0.913c-0.166-4.813-1.162-12.283-2.074-17.926l4.56-0.9zm8.13-1.9c1.908 4.73 4.066 10.955 4.813 15.021l-4.563 1.577c-0.748-4.067-2.822-10.457-4.565-15.271l4.31-1.3zm45.57-40.2c-3.152 7.884-7.967 14.773-13.609 20.499 5.727 5.146 12.447 9.295 19.254 11.868-1.328 1.079-3.07 3.403-3.983 4.979-6.89-2.988-13.611-7.469-19.338-13.03-6.142 5.312-12.863 9.461-19.669 12.366-0.747-1.328-2.655-3.817-3.9-4.73 6.889-2.739 13.609-6.722 19.503-11.702-3.235-3.569-6.059-7.387-8.465-11.37-2.407 2.905-4.979 5.727-7.885 8.299-0.996-1.328-2.987-3.071-4.232-3.901 8.3-6.971 13.859-16.35 16.849-23.902l5.976 0.996c-1.079 2.49-2.241 5.146-3.651 7.718h18.342l1.078-0.332 3.73 2.1zm-32.54 48.1c10.955 2.988 24.483 8.548 31.952 12.615l-3.651 4.813c-7.304-4.398-20.748-9.959-31.951-13.03l3.65-4.4zm9.05-15.2c5.81 2.407 12.946 6.307 16.764 9.212l-3.733 4.233c-3.817-2.988-10.955-7.138-16.765-9.627l3.73-3.8zm-3.49-28.6c2.406 4.315 5.644 8.465 9.295 12.283 3.9-3.984 7.221-8.299 9.628-13.113h-18.343l-0.59 0.8z"/>
			<path d="m436.94-1268.9c-3.983 5.561-8.549 10.706-13.693 15.354v20.997c0 4.315-0.996 6.391-3.982 7.386-3.072 1.079-8.467 1.245-16.932 1.245-0.249-1.826-1.245-4.731-2.241-6.474 6.474 0.249 12.781 0.166 14.607 0.166 1.741-0.166 2.323-0.664 2.323-2.407v-15.769c-14.108 10.872-31.205 18.673-49.465 23.902-0.912-1.411-2.903-4.15-4.148-5.561 17.18-4.398 33.113-11.204 46.145-20.416-15.77 1.411-31.289 2.656-42.658 3.568l-0.664-5.644c3.154-0.166 6.64-0.415 10.541-0.747v-38.094h16.765c1.41-2.739 2.821-5.976 3.651-8.299l7.303 1.162c-1.244 2.407-2.655 4.979-4.066 7.137h22.823v29.213c2.904-2.988 5.562-6.225 7.884-9.627l5.82 2.8zm-54.02-17v7.718h34.109v-7.718h-34.11zm0 19.6h34.109v-7.221h-34.109v7.2zm0 12.6c10.457-0.747 22.49-1.66 34.109-2.573v-5.229h-34.109v7.8z"/>
			<path d="m470.98-1297.6c-2.406 6.059-5.395 12.117-8.715 17.678v55.937h-5.893v-46.974c-2.738 3.818-5.727 7.304-8.631 10.291-0.664-1.328-2.407-4.564-3.485-5.975 8.216-7.884 16.185-20.167 20.914-32.699l5.81 1.8zm14.85 49.5c-3.901 6.971-9.378 15.021-14.026 20.333-1.077-0.996-3.484-2.739-4.813-3.569 4.729-4.813 9.876-12.117 13.362-18.507l5.48 1.8zm11.95-5.8v30.209h-6.143v-30.209h-23.984v-5.644h23.984v-9.876h-17.927v-26.226h42.741v26.226h-18.673v9.876h23.485v5.644h-23.48zm-18.25-21h30.79v-15.188h-30.79v15.2zm27.63 25c5.312 5.893 11.37 13.611 14.356 18.59l-4.979 3.071c-2.821-5.063-8.88-13.196-14.108-19.088l4.73-2.6z"/>
			<path d="m553.98-1294.1c-2.323 6.723-5.146 14.938-7.802 21.578 5.645 6.805 6.973 12.781 6.973 17.843 0 4.482-0.913 8.05-3.071 9.71-1.078 0.83-2.572 1.328-4.149 1.577-1.577 0.166-3.567 0.166-5.229 0.083-0.083-1.577-0.581-3.901-1.577-5.478 1.909 0.166 3.32 0.166 4.646 0.083 0.913 0 1.826-0.249 2.407-0.747 1.162-0.913 1.66-3.154 1.66-5.727 0-4.481-1.411-10.208-6.889-16.764 2.241-5.893 4.563-13.113 6.059-18.673h-9.876v66.643h-5.312v-72.204h17.428l0.913-0.332 3.82 2.4zm14.94 47.2c-0.664 2.075-1.494 4.233-2.407 6.142 3.486 2.158 7.388 5.146 9.295 7.22l-3.235 4.15c-1.743-2.075-5.229-4.813-8.383-7.221-3.319 5.395-7.636 9.876-12.448 13.196-0.83-1.079-2.904-3.07-4.232-4.066 7.635-4.481 13.195-11.619 15.853-20.582l5.57 1.2zm-3.99-33.8c-2.82 2.158-5.809 4.067-8.88 5.81-0.913-1.162-2.82-3.154-4.148-4.067 9.959-5.229 18.922-13.445 23.569-21.163l5.976 1.909c-0.58 0.913-1.161 1.826-1.825 2.739 6.225 5.809 16.599 11.453 25.063 14.44-1.078 1.494-2.323 3.984-2.82 5.561-8.466-3.652-18.508-9.793-25.313-15.935-3.318 3.818-7.137 7.386-11.37 10.54h24.483v4.979h-24.732v-4.7zm-8.63 10.8h18.591v19.918h-18.591v-19.9zm4.73 15.4h8.881v-10.872h-8.881v10.9zm30.96 7.1c-0.497 2.49-1.161 4.979-2.074 7.22 5.229 3.32 11.204 7.801 14.273 11.038l-3.65 4.149c-2.822-2.905-7.968-7.137-12.864-10.54-2.489 4.813-5.893 8.797-10.042 11.785-0.83-1.079-2.821-3.071-4.148-4.067 6.723-4.398 11.12-11.453 12.945-20.416l5.55 0.9zm-11.95-22.5h18.922v19.918h-18.922v-19.9zm4.73 15.4h9.212v-10.872h-9.212v10.9z"/>
		</g>
		<rect y="-1508" x="219.05" height="301.66" width="12.204" fill="#fff"/>
				<path d="m714.33-1291.1c-1.81 0-3.274 1.469-3.274 3.27v34.758h-76.829v-34.758c0-1.8-1.467-3.27-3.273-3.27s-3.274 1.469-3.274 3.27v59.395c0 1.806 1.47 3.271 3.274 3.271 1.808 0 3.273-1.464 3.273-3.271v-18.093h76.829v18.093c0 1.806 1.467 3.271 3.274 3.271 1.806 0 3.271-1.464 3.271-3.271v-59.395c0-1.8-1.46-3.3-3.27-3.3z" fill="#fff"/>
				<path d="m644.75-1262.2c3.647 0 6.602-2.959 6.602-6.605 0-3.637-2.953-6.591-6.602-6.591-3.647 0-6.604 2.954-6.604 6.591 0 3.6 2.96 6.6 6.6 6.6z" fill="#fff"/>
				<path d="m644.98-1254.4c5.245 0 9.494-1.611 9.494-3.603 0-1.994-4.249-3.605-9.494-3.605-5.244 0-9.495 1.612-9.495 3.605 0.01 2 4.26 3.6 9.5 3.6z" fill="#fff"/>
				<rect y="-1273.2" x="656.05" height="17.46" width="51.398" fill="#fff"/>
		<g fill="#fff">
			<path d="m80.511 7.469v44.663h-5.889v-2.096h-31.039v2.096h-5.639v-44.663h42.567zm-5.888 37.277v-31.937h-6.188c1.598 0.799 3.294 1.946 4.192 2.895l-1.996 2.096h2.396v4.192h-8.933c0.25 2.794 0.549 5.39 0.948 7.635 0.998-1.945 1.746-3.992 2.346-6.238l4.54 0.898c-1.197 4.342-2.993 8.135-5.239 11.428 0.649 1.498 1.397 2.445 2.296 2.645 0.549 0.2 0.948-1.746 1.147-4.641 0.897 0.898 2.694 2.245 3.693 2.795-0.799 6.138-3.394 8.034-6.688 6.537-1.497-0.5-2.744-1.646-3.742-3.293-1.598 1.596-3.294 3.044-5.19 4.241-0.648-0.898-2.245-2.795-3.243-3.594 0.549-0.299 1.098-0.647 1.597-0.998-3.992 0.599-7.885 1.148-11.178 1.697l-0.549-4.342c3.643-0.399 8.832-0.998 14.021-1.696l0.1 2.495c0.898-0.748 1.697-1.598 2.496-2.495-1.048-3.593-1.697-8.135-2.146-13.074h-13.873v-4.192h13.522c-0.1-1.396-0.149-2.794-0.249-4.242h4.891c0.05 1.448 0.1 2.846 0.199 4.242h5.39c-1.048-0.898-2.545-1.946-3.843-2.645l2.346-2.346h-24.103v31.938h31.04zm-16.817-11.128h-11.129v-9.481h11.129v9.481zm-3.993-6.337h-3.343v3.192h3.343v-3.192z"/>
			<path d="m121.93 28.378c2.944 2.895 6.937 5.24 11.328 6.588-1.348 1.048-3.044 3.343-3.893 4.84-5.788-2.295-10.729-6.337-14.172-11.428h-12.127c-3.293 4.441-7.585 8.435-13.074 11.627-0.898-1.347-2.944-3.293-4.44-4.042 4.091-2.095 7.484-4.74 10.18-7.585h-9.183v-4.84h12.975c0.549-0.849 1.049-1.647 1.498-2.495h-9.133v-4.542h11.278c0.299-0.798 0.549-1.547 0.748-2.345h-14.582v-4.74h15.818c0.3-1.397 0.55-2.795 0.699-4.192l6.237 0.549c-0.199 1.197-0.449 2.396-0.748 3.644h17.865v4.74h-19.112c-0.25 0.798-0.55 1.547-0.799 2.345h17.915v4.542h-19.762c-0.449 0.848-0.848 1.646-1.348 2.495h25.65v4.84h-9.83zm0.95 8.583c-1.147 1.348-2.495 2.695-3.692 3.843 3.394 1.697 6.687 3.394 9.032 4.69l-3.493 4.492c-3.095-1.946-7.935-4.592-12.575-6.737v3.344c0 2.545-0.5 3.692-2.296 4.491-1.746 0.698-4.092 0.749-7.386 0.749-0.3-1.448-1.048-3.344-1.746-4.691 1.946 0.1 4.142 0.1 4.74 0.05 0.699 0 0.898-0.199 0.898-0.748v-2.246c-5.04 1.996-10.23 3.992-14.371 5.59l-2.695-4.94c2.695-0.799 6.237-1.997 10.13-3.294-1.048-1.297-2.895-2.845-4.391-3.992l3.892-3.044c1.797 1.147 4.042 2.994 5.141 4.342l-2.346 1.896c1.547-0.549 3.094-1.048 4.641-1.597v-9.331h5.789v7.834c0.748 0.35 1.497 0.648 2.245 0.998 1.397-1.497 2.845-3.193 3.793-4.591l4.69 2.892z"/>
			<path d="m162.01 5.423c-0.05 2.097-0.15 4.791-0.35 7.785 0.699 6.736 3.743 25.55 21.159 33.235-1.847 1.447-3.543 3.443-4.342 5.14-11.078-5.29-16.618-15.021-19.512-23.604-2.745 8.782-7.984 17.814-18.364 23.902-1.048-1.597-2.944-3.492-4.939-4.84 20.26-10.829 19.312-33.186 19.511-41.619h6.83z"/>
			<path d="m226.49 37.161v2.046h4.041v3.942h-4.041v4.142c0 2.296-0.35 3.344-1.947 3.992-1.447 0.599-3.492 0.599-6.137 0.599-0.25-1.297-0.848-2.944-1.447-4.191 1.396 0.05 2.994 0.05 3.443 0.05 0.498 0 0.697-0.1 0.697-0.599v-3.992h-7.784c1.297 1.197 2.645 2.545 3.344 3.643l-3.894 2.995c-0.798-1.447-2.645-3.494-4.241-4.891l2.347-1.747h-3.743v-3.942h13.971v-2.046h-35.379v-4.192h46.608v4.191h-5.84zm-1.6-10.729c0.25-1.147 0.5-2.594 0.748-4.191h-38.623v-3.992h39.921l0.898-0.149 4.143 0.648c-0.6 2.944-1.398 6.338-2.098 8.483l-4.99-0.799zm-19.06-14.87h-18.563v-3.694h18.563v-2.495h5.988v2.495h19.113v3.693h-19.113v1.696h14.72v3.493h-34.98v-3.493h14.271v-1.695zm-0.1 38.075h-11.277v1.547h-5.091v-12.426h16.368v10.879zm0.15-21.259v-1.596h-11.776v-2.995h28.943v2.995h-11.328v1.596h15.718v3.145h-37.126v-3.145h15.58zm-11.43 14.072v3.443h6.038v-3.443h-6.04z"/>
			<path d="m70.68 89.314c-1.397 4.441-3.293 8.084-5.839 10.979 5.989 2.545 11.528 5.339 15.32 7.784l-2.794 3.244c-3.693-2.495-9.282-5.439-15.471-8.134-5.04 4.241-12.026 6.687-21.357 8.284-0.35-0.998-1.547-2.745-2.346-3.693 8.583-1.098 15.021-2.994 19.662-6.337-4.642-1.947-9.481-3.694-13.823-5.091 1.446-1.946 3.044-4.392 4.641-7.036h-10.828v-3.543h12.775c1.646-2.994 3.094-5.988 4.143-8.684l4.141 0.749c-0.997 2.545-2.295 5.239-3.742 7.935h12.127c0.349-1.547 0.647-3.193 0.897-4.94l4.342 0.398c-0.25 1.598-0.549 3.145-0.898 4.542h9.132v3.543h-10.082zm-27.895-7.785h-3.692v-9.979h18.563c-0.698-1.598-1.597-3.544-2.445-5.09l3.942-0.999c1.048 1.896 2.345 4.342 3.094 6.089h17.167v9.979h-3.843v-6.537h-32.786v6.537zm10.429 7.785c-1.147 1.945-2.245 3.742-3.344 5.34 3.594 1.147 7.386 2.594 11.129 4.042 2.346-2.495 4.092-5.59 5.39-9.382h-13.175z"/>
			<path d="m128.22 87.119h-29.49l2.046 0.798c-0.25 0.299-0.499 0.599-0.749 0.898 2.595 1.348 5.539 3.094 7.087 4.342l-1.348 2.296c-0.449-0.351-0.998-0.799-1.646-1.249v2.246h-4.841v2.595h7.336v2.396h-7.336v5.438l1.646-0.199c0.749-1.397 1.646-3.443 1.996-4.791l2.495 0.698c-0.599 1.397-1.247 2.695-1.846 3.793l3.293-0.3v2.545c-6.986 0.799-14.223 1.647-19.412 2.296l-0.449-2.794c2.545-0.25 5.789-0.55 9.382-0.949v-5.737h-8.283v-2.396h8.283v-2.594h-5.189v-1.396c-0.998 0.448-1.997 0.897-2.994 1.297-0.399-0.699-1.198-1.647-1.946-2.246 4.491-1.446 9.331-3.991 11.927-6.985h-7.835v-2.646h9.231c-0.349-0.898-0.898-1.946-1.396-2.745l2.794-0.698c0.699 0.998 1.447 2.346 1.697 3.244l-0.6 0.199h5.29v-3.842h-13.57v-2.446h13.573v-2.494h-7.935v-1.847c-3.193 1.147-6.487 2.096-9.681 2.845-0.449-0.799-1.247-2.096-1.996-2.795 7.984-1.597 17.217-4.591 22.206-8.483l2.795 1.547c-0.35 0.25-0.749 0.549-1.099 0.849 5.989 2.895 12.676 4.342 18.664 5.489-0.748 0.698-1.696 1.945-2.096 2.944-2.994-0.699-6.038-1.497-9.232-2.495v1.946h-8.134v2.494h13.474v2.446h-13.474v3.842h4.392c0.748-1.197 1.597-2.645 1.996-3.742l3.193 0.798c-0.648 1.049-1.348 2.046-1.946 2.944h9.731v2.645zm-35.828 15.071c0.799 1.247 1.597 2.994 1.847 4.142l-2.346 0.699c-0.299-1.148-1.048-2.944-1.797-4.292l2.296-0.55zm11.678-8.035c-1.697-1.198-3.942-2.545-5.938-3.543-1.548 1.297-3.294 2.494-5.24 3.543h11.178zm13.77-20.809c-2.845-1.048-5.839-2.296-8.733-3.893-2.494 1.447-5.339 2.744-8.333 3.893h17.06zm10.38 29.544c-0.749 1.547-1.646 3.094-2.396 4.441h5.39v2.694h-22.905v-2.694h4.042c-0.35-1.197-1.147-3.044-1.946-4.441l2.396-0.648c0.898 1.297 1.697 3.094 2.046 4.241l-2.346 0.849h5.24v-5.739h-8.783v-2.395h8.783v-2.745h-5.64v-1.297c-0.897 0.399-1.896 0.748-2.844 1.098-0.399-0.698-1.147-1.647-1.896-2.195 4.69-1.448 9.631-3.993 12.326-6.937l2.595 0.948c-0.3 0.399-0.649 0.748-0.998 1.098 2.994 2.046 6.537 3.442 10.279 4.441-0.698 0.598-1.546 1.596-1.945 2.345-1.099-0.398-2.097-0.749-3.145-1.197v1.696h-5.688v2.745h9.432v2.395h-9.432v5.739h2.296c0.898-1.547 1.995-3.643 2.595-5.14l2.54 0.7zm-2.99-8.735c-1.996-0.998-3.893-2.097-5.739-3.443-1.547 1.298-3.343 2.445-5.289 3.443h11.03z"/>
			<path d="m168.2 74.843c-1.147 4.641-2.694 8.883-4.541 12.726 3.394 8.981 10.081 16.917 18.514 20.46-0.898 0.698-2.046 2.245-2.645 3.243-7.935-3.742-14.122-10.929-18.114-19.661-5.64 9.381-13.474 15.968-22.007 19.861-0.549-0.949-1.946-2.596-2.845-3.244 12.076-5.14 22.356-15.221 26.798-30.69h-13.024c-3.095 5.889-6.837 10.979-11.029 14.722-0.698-0.699-2.345-2.046-3.293-2.695 6.687-5.389 11.927-14.122 15.021-23.753l3.892 0.898c-0.798 2.444-1.746 4.841-2.794 7.136h12.725l0.699-0.199 2.64 1.194z"/>
			<path d="m218.1 74.843c-1.148 4.641-2.696 8.883-4.542 12.726 3.394 8.981 10.082 16.917 18.515 20.46-0.898 0.698-2.047 2.245-2.645 3.243-7.936-3.742-14.125-10.929-18.116-19.661-5.639 9.381-13.474 15.968-22.007 19.861-0.549-0.949-1.946-2.596-2.845-3.244 12.076-5.14 22.355-15.221 26.798-30.69h-13.02c-3.094 5.889-6.837 10.979-11.028 14.722-0.698-0.699-2.346-2.046-3.294-2.695 6.688-5.389 11.927-14.122 15.021-23.753l3.892 0.898c-0.798 2.444-1.746 4.841-2.795 7.136h12.726l0.698-0.199 2.63 1.194z"/>
			<path d="m262.07 91.76c3.443 8.384 9.98 13.923 20.111 16.169-0.85 0.798-1.896 2.345-2.496 3.393-10.33-2.695-16.865-8.733-20.709-18.015-2.295 7.136-7.785 13.673-20.51 18.064-0.35-0.897-1.496-2.445-2.295-3.194 12.027-4.042 17.117-9.979 19.211-16.417h-18.611v-3.692h19.461c0.398-2.296 0.5-4.592 0.5-6.887v-2.995h-11.18c-1.496 2.995-3.145 5.689-4.891 7.835-0.799-0.598-2.594-1.547-3.592-1.945 3.842-4.242 6.936-10.829 8.732-17.566l3.893 0.849c-0.699 2.445-1.496 4.84-2.494 7.136h9.531v-8.683h3.791v8.683h16.27v3.692h-16.27v2.995c0 2.295-0.1 4.591-0.398 6.887h20.908v3.692h-18.95z"/>
			<path d="m306.79 107.33c0 1.896-0.398 2.745-1.746 3.293-1.248 0.55-3.443 0.6-6.537 0.6-0.201-0.948-0.697-2.196-1.197-3.094 2.395 0.1 4.439 0.049 5.09 0.049 0.699 0 0.848-0.199 0.848-0.848v-7.685c-3.293 1.945-6.688 3.892-9.48 5.488l-1.299-2.994c-0.498 3.294-1.496 6.737-3.592 9.333-0.498-0.799-1.797-2.097-2.545-2.596 2.844-3.792 3.143-9.032 3.143-13.274v-12.17h17.316v23.904zm-3.19-37.927c2.445 3.394 5.289 8.084 6.537 11.028l-3.193 1.447c-0.398-0.998-0.949-2.146-1.598-3.394-13.521 1.098-15.27 1.298-16.418 1.847-0.199-0.749-0.748-2.595-1.197-3.493 0.799-0.149 1.646-0.898 2.645-1.946 0.949-1.048 4.242-5.09 6.338-9.132l3.693 1.247c-2.098 3.244-4.492 6.587-6.936 9.183l10.229-0.698c-0.998-1.697-2.047-3.395-3.094-4.941l2.99-1.148zm-10.68 26.248c0 1.896-0.1 4.093-0.398 6.289 2.795-1.249 6.736-3.244 10.729-5.24v-10.08h-10.33v9.031zm2.34-6.187c2.646 1.548 6.139 3.793 7.936 5.19l-1.996 2.046c-1.746-1.447-5.189-3.743-7.885-5.39l1.94-1.846zm21.66-2.195c-4.391 0-5.59-1.547-5.59-5.739v-15.719h3.645v6.886h13.422v3.295h-13.422v5.638c0 1.797 0.398 2.396 1.996 2.396h9.182c1.197 0 3.193-0.05 4.141-0.299 0.1 0.998 0.25 2.395 0.4 3.243-0.848 0.2-2.645 0.3-4.441 0.3h-9.34zm9.03 20.361c2.098 0 2.445-0.948 2.695-6.288 0.848 0.6 2.295 1.147 3.293 1.397-0.447 6.487-1.547 8.184-5.688 8.184h-8.834c-4.84 0-6.088-1.147-6.088-5.239v-16.765h3.645v5.938h13.973v3.344h-13.973v7.485c0 1.646 0.447 1.946 2.793 1.946h8.2z"/>
			<path d="m336.04 109.97c2.246-2.495 4.84-6.537 6.537-10.18l3.492 0.998c-1.695 3.693-4.191 7.984-6.486 10.778l-3.54-1.6zm5.98-11.124h-3.494v-30.94h14.422v28.395h-10.928v2.545zm0-27.596v8.683h7.484v-8.683h-7.48zm7.49 21.707v-9.73h-7.484v9.73h7.48zm4.69 7.933c0.648 3.194 1.197 7.285 1.248 9.73l-3.643 0.55c0-2.495-0.4-6.687-1.049-9.931l3.44-0.35zm12.88-29.74c-1.148 6.038-3.842 10.03-11.479 12.325-0.348-0.798-1.297-2.146-1.994-2.794 6.486-1.747 8.832-4.891 9.83-9.531h-8.285v-3.294h24.504s-0.051 0.948-0.1 1.447c-0.451 7.186-0.898 10.131-1.998 11.277-0.748 0.799-1.596 1.099-2.895 1.147-1.146 0.101-3.344 0.101-5.588-0.049-0.1-0.898-0.449-2.146-0.998-3.044 2.195 0.199 4.24 0.249 4.99 0.249 0.748 0 1.248-0.1 1.547-0.449 0.6-0.648 0.998-2.595 1.348-7.285h-8.88zm11.17 26.747h-21.658v-13.722h21.658v13.722zm-3.64-10.678h-14.52v7.585h14.521v-7.585zm-9.78 13.171c1.348 3.144 2.744 7.236 3.244 9.781l-3.645 0.898c-0.498-2.546-1.746-6.838-3.043-9.981l3.45-0.7zm9.98-0.995c2.395 3.244 5.189 7.636 6.488 10.479l-3.543 1.547c-1.148-2.744-3.895-7.335-6.238-10.629l3.29-1.395z"/>
			<path d="m403.36 77.288h-17.516v-3.044h17.516v3.044zm-1.55 31.042h-10.779v2.346h-3.193v-16.775h13.973v14.425zm-0.15-24.604h-13.771v-2.944h13.771v2.944zm-13.77 3.543h13.771v2.944h-13.771v-2.944zm3.14 9.73v8.234h7.535v-8.234h-7.53zm3.95-23.304c-0.648-1.797-2.244-4.591-3.592-6.638l2.795-1.496c1.447 2.045 3.045 4.69 3.793 6.437l-2.99 1.697zm12.07 9.981c-0.85 1.097-1.697 2.195-2.645 3.044-0.4-0.6-1.398-2.047-2.047-2.695 2.744-2.545 5.189-6.437 6.486-10.43l2.895 0.799v-2.596h-8.084v-2.943h8.084v-3.044h3.344v8.732h-3.242c-0.4 1.098-0.85 2.246-1.348 3.344h6.486c-0.35-1.048-0.697-2.295-1.098-3.243l3.193-0.898c0.6 1.297 1.197 2.894 1.598 4.142h9.281v2.495h-9.73v2.495h8.434v2.195h-8.434v2.496h8.434v2.195h-8.434v2.645h10.828v2.445h-20.857v0.998h-3.145v-12.176zm21.76 14.271c-1.797 3.144-4.541 5.688-7.785 7.735 3.295 1.247 7.137 2.246 10.98 2.744-0.799 0.749-1.697 2.096-2.098 2.944-4.441-0.749-8.633-2.096-12.375-3.893-4.092 1.896-8.783 3.194-13.473 3.942-0.301-0.848-0.998-2.245-1.598-2.994 4.041-0.498 8.135-1.447 11.777-2.845-2.346-1.547-4.342-3.293-5.889-5.339l1.547-0.549h-5.588v-2.745h21.707l0.598-0.149 2.2 1.15zm-11.78-17.565h-6.836v2.495h6.836v-2.495zm0 4.69h-6.836v2.496h6.836v-2.496zm0 4.692h-6.836v2.645h6.836v-2.645zm-5.29 9.93c1.547 1.646 3.543 3.144 5.838 4.392 2.396-1.198 4.492-2.695 6.088-4.392h-11.93zm11.78-25.151h-3.393v-8.732h3.393v3.044h7.535v2.943h-7.535v2.745z"/>
			<path d="m51.069 155.84c-0.149-0.849-0.35-1.847-0.648-2.896-10.28 1.598-11.777 1.947-12.676 2.446-0.199-0.749-0.748-2.495-1.147-3.493 1.048-0.25 2.196-1.447 3.643-3.244 0.799-0.849 2.396-2.944 4.192-5.639-5.24 0.599-6.288 0.849-6.986 1.197-0.2-0.748-0.799-2.445-1.148-3.344 0.849-0.199 1.697-1.247 2.745-2.744 1.048-1.447 4.541-7.186 6.537-12.625l3.393 1.447c-2.195 4.74-4.989 9.631-7.734 13.374l5.29-0.45c1.298-2.095 2.694-4.44 3.742-6.687l3.194 1.896c-3.294 5.739-7.236 11.577-11.328 16.118l7.535-1.047c-0.449-1.647-1.048-3.395-1.597-4.892l2.795-0.748c1.347 3.394 2.744 7.734 3.243 10.38l-3.045 0.93zm-9.332 2.24c-0.549 4.242-1.447 8.933-2.545 12.026-0.599-0.35-2.146-0.849-2.895-1.098 1.148-3.044 1.896-7.485 2.396-11.478l3.044 0.55zm4.94-0.69c0.648 3.442 1.248 7.834 1.397 10.778l-2.895 0.55c-0.1-2.896-0.698-7.386-1.247-10.779l2.745-0.55zm4.891-1.15c1.147 2.844 2.445 6.587 2.895 9.032l-2.745 0.947c-0.449-2.445-1.696-6.287-2.745-9.182l2.595-0.8zm27.396-24.2c-1.896 4.741-4.791 8.883-8.184 12.325 3.443 3.095 7.484 5.59 11.576 7.137-0.798 0.648-1.846 2.046-2.395 2.994-4.143-1.796-8.185-4.491-11.628-7.835-3.692 3.194-7.734 5.688-11.826 7.436-0.449-0.798-1.597-2.295-2.346-2.845 4.142-1.646 8.184-4.041 11.727-7.036-1.945-2.146-3.643-4.441-5.089-6.836-1.448 1.746-2.994 3.443-4.741 4.99-0.6-0.799-1.797-1.847-2.545-2.346 4.989-4.191 8.333-9.831 10.13-14.372l3.593 0.599c-0.648 1.498-1.348 3.095-2.195 4.642h11.029l0.648-0.199 2.246 1.35zm-19.562 28.94c6.588 1.796 14.722 5.14 19.213 7.585l-2.195 2.895c-4.392-2.645-12.476-5.988-19.213-7.835l2.195-2.64zm5.439-9.13c3.493 1.447 7.785 3.792 10.08 5.539l-2.245 2.545c-2.295-1.797-6.587-4.292-10.08-5.789l2.245-2.3zm-2.095-17.22c1.447 2.594 3.394 5.09 5.589 7.385 2.346-2.396 4.342-4.99 5.789-7.885h-11.029l-0.349 0.49z"/>
			<path d="m131.02 144.06c-2.395 3.344-5.14 6.438-8.233 9.232v12.624c0 2.596-0.599 3.843-2.396 4.442-1.847 0.648-5.09 0.748-10.18 0.748-0.149-1.098-0.749-2.845-1.348-3.893 3.893 0.15 7.685 0.101 8.783 0.101 1.048-0.101 1.396-0.399 1.396-1.447v-9.482c-8.482 6.538-18.763 11.229-29.741 14.372-0.549-0.848-1.747-2.495-2.495-3.343 10.33-2.645 19.911-6.737 27.745-12.276-9.481 0.849-18.813 1.598-25.649 2.146l-0.398-3.393c1.896-0.1 3.991-0.25 6.337-0.449v-22.905h10.08c0.849-1.646 1.697-3.593 2.196-4.99l4.391 0.698c-0.748 1.447-1.597 2.994-2.445 4.292h13.724v17.565c1.746-1.796 3.344-3.743 4.74-5.788l3.5 1.75zm-32.489-10.23v4.641h20.509v-4.641h-20.509zm0 11.83h20.509v-4.342h-20.509v4.34zm0 7.54c6.287-0.45 13.522-0.999 20.509-1.548v-3.144h-20.509v4.69z"/>
			<path d="m151.48 126.85c-1.447 3.643-3.243 7.285-5.24 10.629v33.634h-3.543v-28.244c-1.646 2.295-3.443 4.391-5.189 6.188-0.399-0.799-1.447-2.744-2.096-3.593 4.94-4.74 9.731-12.126 12.575-19.662l3.5 1.04zm8.93 29.74c-2.346 4.191-5.639 9.032-8.434 12.227-0.648-0.6-2.096-1.647-2.895-2.146 2.845-2.895 5.938-7.285 8.034-11.128l3.3 1.05zm7.19-3.49v18.164h-3.692v-18.164h-14.422v-3.394h14.422v-5.938h-10.779v-15.77h25.7v15.77h-11.229v5.938h14.122v3.394h-14.12zm-10.98-12.63h18.514v-9.133h-18.514v9.13zm16.62 15.02c3.193 3.544 6.836 8.185 8.633 11.179l-2.994 1.847c-1.696-3.044-5.34-7.935-8.483-11.478l2.84-1.55z"/>
			<path d="m201.39 128.94c-1.398 4.042-3.095 8.982-4.691 12.975 3.394 4.092 4.191 7.685 4.191 10.729 0 2.695-0.549 4.841-1.847 5.839-0.647 0.499-1.546 0.799-2.494 0.947-0.948 0.101-2.146 0.101-3.145 0.051-0.05-0.948-0.349-2.346-0.948-3.294 1.148 0.1 1.997 0.1 2.795 0.051 0.549 0 1.098-0.15 1.447-0.45 0.698-0.549 0.998-1.896 0.998-3.443 0-2.694-0.849-6.138-4.142-10.08 1.348-3.543 2.744-7.885 3.643-11.228h-5.938v40.071h-3.193v-43.415h10.479l0.55-0.199 2.3 1.44zm8.98 28.35c-0.398 1.248-0.898 2.545-1.447 3.693 2.096 1.297 4.441 3.094 5.589 4.341l-1.946 2.496c-1.048-1.248-3.144-2.895-5.039-4.342-1.997 3.243-4.592 5.938-7.485 7.934-0.499-0.648-1.747-1.846-2.545-2.444 4.59-2.694 7.934-6.987 9.531-12.376l3.34 0.7zm-2.4-20.31c-1.696 1.297-3.492 2.445-5.339 3.493-0.55-0.699-1.696-1.896-2.495-2.445 5.988-3.145 11.377-8.085 14.172-12.726l3.592 1.148c-0.348 0.548-0.697 1.098-1.098 1.646 3.742 3.493 9.98 6.887 15.07 8.684-0.648 0.898-1.396 2.395-1.695 3.343-5.09-2.195-11.129-5.888-15.221-9.581-1.996 2.296-4.291 4.441-6.837 6.338h14.722v2.993h-14.872v-2.88zm-5.19 6.48h11.178v11.977h-11.178v-11.98zm2.85 9.28h5.34v-6.537h-5.34v6.54zm18.61 4.3c-0.299 1.497-0.697 2.994-1.248 4.342 3.145 1.995 6.738 4.69 8.584 6.637l-2.195 2.495c-1.697-1.747-4.791-4.292-7.734-6.338-1.498 2.895-3.543 5.29-6.04 7.086-0.499-0.648-1.695-1.846-2.494-2.444 4.042-2.645 6.686-6.887 7.784-12.276l3.34 0.49zm-7.18-13.58h11.377v11.977h-11.377v-11.98zm2.84 9.28h5.539v-6.537h-5.54v6.54z"/>
		</g>
		<rect y=".31" width="7.338" height="181.38" fill="#fff"/>
				<path d="m297.8 130.73c-1.088 0-1.971 0.883-1.971 1.966v20.898h-46.195v-20.898c0-1.083-0.881-1.966-1.969-1.966-1.086 0-1.969 0.883-1.969 1.966v35.713c0 1.085 0.883 1.966 1.969 1.966 1.088 0 1.969-0.881 1.969-1.966v-10.879h46.195v10.879c0 1.085 0.883 1.966 1.971 1.966 1.084 0 1.967-0.881 1.967-1.966v-35.713c-0.01-1.09-0.89-1.97-1.98-1.97z" fill="#fff"/>
				<path d="m255.97 148.1c2.193 0 3.971-1.778 3.971-3.972 0-2.187-1.777-3.963-3.971-3.963-2.191 0-3.971 1.776-3.971 3.963 0 2.19 1.78 3.97 3.97 3.97z" fill="#fff"/>
				<ellipse cy="150.64" cx="256.11" rx="5.709" ry="2.167" fill="#fff"/>
				<rect y="141.52" x="262.76" height="10.498" width="30.904" fill="#fff"/>
</svg>
