<?xml version="1.0" encoding="utf-8"?>
<!-- Generator: Adobe Illustrator 16.0.0, SVG Export Plug-In . SVG Version: 6.00 Build 0)  -->
<!DOCTYPE svg PUBLIC "-//W3C//DTD SVG 1.1//EN" "http://www.w3.org/Graphics/SVG/1.1/DTD/svg11.dtd">
<svg version="1.1" id="section1" xmlns="http://www.w3.org/2000/svg" xmlns:xlink="http://www.w3.org/1999/xlink" x="0px" y="0px"
	 width="504px" height="182px" viewBox="0 0 504 182" enable-background="new 0 0 504 182" xml:space="preserve">
<g>
	<path fill="#FFFFFF" d="M472.464,39.918v-5.252c0-0.392-0.875-1.68-1.831-1.68c-1.911,0-2.55,1.288-2.55,1.68v5.252
		c-11.518,0.699-21.717,8.388-27.264,19.169c3.021,1.011,4.195,4.328,3.529,7.141c1.124-0.326,2.346-0.508,3.666-0.508
		c4.619,0,7.486,2.561,9.955,6.621c0.479,0.393,0.638,0.637,1.115,0.637c0,0,0.877-0.244,0.877-0.637
		c1.273-3.196,4.298-5.022,7.804-6.621V96.79c0,1.908-2.229,4.126-4.619,4.126s-4.062-2.218-4.062-4.126
		c0-1.925-1.115-2.789-3.584-2.789c-0.636,0-2.707,0.864-2.707,2.789c0,5.48,5.176,9.949,10.353,9.949
		c5.575,0,10.034-4.469,10.034-9.949V65.72c3.185,1.599,6.529,3.425,7.406,6.621c0,0.393,0.637,0.637,1.035,0.637
		c0.558,0,0.796-0.244,0.875-0.637c1.912-4.061,5.813-6.621,10.434-6.621c4.697,0,8.6,2.561,10.193,6.621l0.318,0.393
		c0.558,0,0.558-0.393,0.558-0.393C501.691,55.054,488.311,40.88,472.464,39.918z"/>
	<path fill="#FFFFFF" d="M424.984,32.595c-1.332,1.312-2.169,3.759-2.387,4.415l-0.005-0.008c-0.642-0.201-3.139-0.966-4.992-0.648
		c-3.122,0.534-5.954,3.289-3.902,8.102c0,0,3.333,7.428,16.528,8.812c0.235,0.025,0.472,0.05,0.713,0.07l0.001,0.002
		c0.002-0.002,0.001-0.002,0.003-0.003c0,0,0.001,0,0.002,0l-0.002-0.003v-0.001l0.006,0.011c0.005,0,0.009,0.002,0.015,0.002
		l0.001,0.003c0.001,0,0.001-0.002,0.001-0.002c0.002-0.001,0.003,0,0.004,0l-0.001-0.002c0.124-0.208,0.243-0.414,0.36-0.618
		c6.588-11.518,2.51-18.563,2.51-18.563C431.134,29.686,427.241,30.374,424.984,32.595z M415.786,40.503
		c0.387-1.258,1.443-1.033,1.443-1.033c1.034,0.178,0.601,1.017,0.413,1.38c-0.829,1.603,1.352,5.285,1.352,5.285
		C414.749,43.598,415.786,40.503,415.786,40.503z"/>
	<path fill="#FFFFFF" d="M445.953,32.16l-0.001,0.002c0.002,0,0.002-0.001,0.004,0c0,0,0,0.001,0.001,0.001l0.001-0.002V32.16
		l-0.003,0.011c0.003,0.003,0.005,0.006,0.008,0.01l-0.001,0.003l0.001-0.001c0.001,0.001,0.001,0.002,0.002,0.003l0.001-0.002
		c0.208-0.045,0.412-0.092,0.612-0.138c11.342-2.641,13.437-9.471,13.437-9.471c1.265-4.414-1.502-6.506-4.278-6.631
		c-1.639-0.074-3.713,0.851-4.265,1.102l0.002-0.008c-0.254-0.532-1.254-2.595-2.564-3.597c-2.207-1.69-5.67-1.866-7.539,2.327
		c0,0-2.786,6.579,4.202,15.892C445.696,31.826,445.822,31.992,445.953,32.16z M443.452,20.177
		c-0.903-4.245,1.706-5.426,1.706-5.426c1.04-0.502,1.526,0.311,1.526,0.311c0.503,0.771-0.295,0.993-0.641,1.09
		C444.519,16.576,443.452,20.177,443.452,20.177z"/>
	<path fill="#FFFFFF" d="M57.85,24.085H46.713v9.489H57.85V24.085z M53.855,30.428h-3.346v-3.196h3.346V30.428z"/>
	<path fill="#FFFFFF" d="M43.617,50.004H74.68v2.098h5.893V7.406H37.974v44.696h5.644V50.004z M43.617,12.749h24.122l-2.348,2.348
		c1.299,0.699,2.797,1.748,3.846,2.646h-5.394c-0.1-1.398-0.149-2.797-0.2-4.245h-4.894c0.1,1.448,0.149,2.847,0.249,4.245H45.465
		v4.195h13.884c0.449,4.944,1.099,9.488,2.147,13.084c-0.799,0.899-1.598,1.748-2.498,2.497l-0.1-2.497
		c-5.194,0.699-10.387,1.299-14.033,1.698l0.55,4.345c3.295-0.55,7.19-1.099,11.186-1.697c-0.499,0.35-1.049,0.699-1.598,0.999
		c0.999,0.798,2.597,2.696,3.246,3.595c1.898-1.198,3.595-2.646,5.194-4.244c0.999,1.647,2.247,2.796,3.745,3.296
		c3.297,1.498,5.893-0.399,6.692-6.542c-0.999-0.55-2.797-1.898-3.695-2.797c-0.2,2.896-0.599,4.844-1.149,4.644
		c-0.899-0.199-1.647-1.147-2.296-2.646c2.247-3.296,4.045-7.092,5.243-11.436l-4.544-0.899c-0.599,2.247-1.349,4.295-2.348,6.242
		c-0.399-2.247-0.698-4.845-0.948-7.641h8.939v-4.195h-2.396l1.997-2.098c-0.899-0.948-2.596-2.097-4.195-2.896h6.193V44.71H43.617
		V12.749z"/>
	<path fill="#FFFFFF" d="M131.866,28.331v-4.845h-25.67c0.5-0.849,0.899-1.648,1.35-2.496h19.776v-4.545h-17.929
		c0.25-0.8,0.549-1.549,0.799-2.348h19.127V9.353H111.44c0.3-1.248,0.549-2.447,0.749-3.646l-6.242-0.55
		c-0.15,1.398-0.399,2.797-0.699,4.195H89.417v4.744H104c-0.2,0.799-0.45,1.548-0.75,2.348H91.964v4.545h9.139
		c-0.449,0.848-0.948,1.647-1.498,2.496H86.62v4.845h9.189c-2.697,2.846-6.092,5.493-10.187,7.591
		c1.497,0.749,3.544,2.696,4.443,4.045c5.494-3.196,9.789-7.191,13.085-11.636h12.136c3.446,5.094,8.391,9.139,14.184,11.437
		c0.849-1.499,2.547-3.796,3.895-4.845c-4.395-1.348-8.39-3.695-11.337-6.592H131.866z"/>
	<path fill="#FFFFFF" d="M92.063,49.755c4.146-1.599,9.339-3.596,14.383-5.594v2.247c0,0.549-0.2,0.749-0.899,0.749
		c-0.6,0.05-2.797,0.05-4.745-0.05c0.699,1.349,1.448,3.246,1.748,4.694c3.297,0,5.644-0.05,7.391-0.749
		c1.798-0.8,2.298-1.947,2.298-4.494v-3.347c4.645,2.147,9.488,4.794,12.585,6.742l3.496-4.495c-2.347-1.298-5.643-2.996-9.04-4.694
		c1.199-1.148,2.547-2.497,3.696-3.845l-4.695-2.896c-0.948,1.397-2.396,3.096-3.795,4.594c-0.749-0.35-1.499-0.649-2.247-0.999
		v-7.84h-5.793v9.339c-1.548,0.549-3.097,1.049-4.645,1.598l2.347-1.897c-1.099-1.349-3.346-3.196-5.144-4.345l-3.895,3.046
		c1.499,1.148,3.346,2.697,4.395,3.995c-3.895,1.299-7.441,2.497-10.138,3.297L92.063,49.755z"/>
	<path fill="#FFFFFF" d="M161.785,13.148c0.2-2.996,0.3-5.692,0.349-7.791h-6.841c-0.2,8.44,0.749,30.814-19.526,41.65
		c1.997,1.349,3.895,3.246,4.943,4.845c10.389-6.093,15.631-15.132,18.378-23.922c2.897,8.591,8.44,18.329,19.527,23.622
		c0.799-1.697,2.496-3.695,4.345-5.144C165.53,38.718,162.484,19.89,161.785,13.148z"/>
	<polygon fill="#FFFFFF" points="205.986,13.199 191.704,13.199 191.704,16.694 226.713,16.694 226.713,13.199 211.979,13.199 
		211.979,11.5 231.106,11.5 231.106,7.805 211.979,7.805 211.979,5.307 205.986,5.307 205.986,7.805 187.409,7.805 187.409,11.5 
		205.986,11.5 	"/>
	<path fill="#FFFFFF" d="M221.269,39.167h-13.983v3.945h3.745l-2.347,1.748c1.599,1.398,3.446,3.445,4.245,4.895l3.895-2.997
		c-0.699-1.099-2.047-2.447-3.346-3.646h7.791v3.995c0,0.499-0.199,0.6-0.699,0.6c-0.449,0-2.047,0-3.446-0.051
		c0.6,1.249,1.199,2.896,1.448,4.195c2.646,0,4.695,0,6.144-0.6c1.599-0.648,1.947-1.697,1.947-3.995v-4.145h4.045v-3.945h-4.045
		V37.12h5.844v-4.194H185.86v4.194h35.408V39.167z"/>
	<path fill="#FFFFFF" d="M225.063,26.382l4.995,0.8c0.698-2.148,1.497-5.544,2.097-8.49l-4.146-0.649l-0.897,0.149h-39.953v3.995
		h38.654C225.563,23.786,225.313,25.234,225.063,26.382z"/>
	<path fill="#FFFFFF" d="M205.887,38.718h-16.38v12.435h5.094v-1.548h11.286V38.718z M200.644,45.86h-6.043v-3.446h6.043V45.86z"/>
	<polygon fill="#FFFFFF" points="190.455,28.331 190.455,31.476 227.61,31.476 227.61,28.331 211.879,28.331 211.879,26.732 
		223.216,26.732 223.216,23.736 194.251,23.736 194.251,26.732 206.037,26.732 206.037,28.331 	"/>
	<path fill="#FFFFFF" d="M66.24,102.747l-2.298,2.397c5.544,1.848,11.187,4.245,14.583,6.143l2.996-2.597
		C77.875,106.892,71.783,104.495,66.24,102.747z"/>
	<path fill="#FFFFFF" d="M39.872,111.387c4.944-1.398,11.137-3.896,15.083-6.393l-3.246-2.098c-3.146,2.098-9.39,4.545-14.383,5.893
		C38.124,109.489,39.272,110.638,39.872,111.387z"/>
	<path fill="#FFFFFF" d="M81.321,98.752H74.33V76.329H59.948c0.2-0.949,0.4-1.998,0.6-3.146h19.526v-3.195H61.096l0.648-3.846
		l-3.944-0.45c-0.1,1.248-0.25,2.797-0.45,4.296H38.723v3.195h18.178c-0.1,1.148-0.3,2.197-0.5,3.146H44.417v22.424h-7.092v3.146
		h43.997V98.752z M70.635,98.752H48.012v-3.496h22.623V98.752z M70.635,92.859H48.012v-2.997h22.623V92.859z M70.635,87.465H48.012
		v-2.847h22.623V87.465z M70.635,82.221H48.012v-3.346h22.623V82.221z"/>
	<path fill="#FFFFFF" d="M122.178,83.37c2.796,5.843,5.494,13.685,6.493,18.828l3.646-1.448c-1.05-5.145-3.796-12.785-6.692-18.728
		L122.178,83.37z"/>
	<path fill="#FFFFFF" d="M99.104,104.145c0,4.944,1.499,6.293,6.892,6.293h10.038c5.544,0,6.692-2.747,7.242-12.186
		c-1.049-0.3-2.597-0.949-3.497-1.648c-0.399,8.59-0.849,10.338-3.945,10.338h-9.539c-2.847,0-3.446-0.449-3.446-2.746V79.575
		h-3.746V104.145z"/>
	<path fill="#FFFFFF" d="M90.365,103.596c2.047-5.294,3.597-13.734,4.396-19.577l-3.596-0.699
		c-0.699,5.844-2.347,13.634-4.494,18.728L90.365,103.596z"/>
	<path fill="#FFFFFF" d="M114.687,81.273l2.647-2.747c-2.847-3.146-8.79-7.841-13.434-11.037l-2.447,2.447
		C106.147,73.282,111.94,78.176,114.687,81.273z"/>
	<path fill="#FFFFFF" d="M151.397,99.201V70.335h-13.234v32.711h3.346v-3.846H151.397z M141.509,73.881h6.492v21.724h-6.492V73.881z
		"/>
	<path fill="#FFFFFF" d="M169.477,97.553V78.975h-13.984v21.824h3.196v-3.246H169.477z M158.688,82.272h7.542v11.985h-7.542V82.272z
		"/>
	<path fill="#FFFFFF" d="M153.095,72.883h21.324v33.51c0,0.898-0.298,1.148-1.248,1.198c-1.048,0.05-4.444,0.05-8.09-0.05
		c0.599,1.048,1.149,2.746,1.398,3.745c4.545,0.051,7.591-0.05,9.289-0.648c1.697-0.6,2.348-1.749,2.348-4.245v-33.51h4.045v-3.646
		h-29.066V72.883z"/>
	<path fill="#FFFFFF" d="M229.359,97.953l-2.198-1.148l-0.599,0.149h-21.725v2.747h5.594l-1.548,0.549
		c1.548,2.048,3.546,3.796,5.893,5.344c-3.646,1.398-7.74,2.348-11.786,2.847c0.6,0.749,1.299,2.147,1.599,2.997
		c4.694-0.749,9.389-2.048,13.483-3.945c3.745,1.798,7.941,3.146,12.386,3.896c0.398-0.85,1.298-2.198,2.097-2.947
		c-3.846-0.499-7.69-1.498-10.986-2.747C224.814,103.646,227.562,101.099,229.359,97.953z M212.279,99.701h11.936
		c-1.599,1.698-3.694,3.196-6.093,4.395C215.825,102.847,213.828,101.349,212.279,99.701z"/>
	<path fill="#FFFFFF" d="M210.731,95.855v-0.998h20.875v-2.448H220.77v-2.646h8.439v-2.197h-8.439v-2.497h8.439v-2.197h-8.439
		v-2.497h9.738v-2.497h-9.29c-0.398-1.249-0.997-2.847-1.597-4.146l-3.197,0.899c0.399,0.949,0.75,2.197,1.1,3.246h-6.493
		c0.5-1.099,0.949-2.247,1.349-3.346h3.246v-8.739h-3.346v3.046h-8.09v2.946h8.09v2.597l-2.896-0.799
		c-1.299,3.995-3.745,7.891-6.492,10.438c0.648,0.649,1.647,2.098,2.048,2.697c0.948-0.849,1.798-1.948,2.646-3.047v12.186H210.731z
		 M210.731,80.374h6.842v2.497h-6.842V80.374z M210.731,85.068h6.842v2.497h-6.842V85.068z M210.731,89.762h6.842v2.646h-6.842
		V89.762z"/>
	<path fill="#FFFFFF" d="M195.499,73.681l2.997-1.697c-0.75-1.748-2.348-4.396-3.796-6.442l-2.796,1.498
		C193.252,69.087,194.851,71.884,195.499,73.681z"/>
	<rect x="188.407" y="87.265" fill="#FFFFFF" width="13.784" height="2.946"/>
	<path fill="#FFFFFF" d="M188.358,110.688h3.195v-2.348h10.787V93.908h-13.982V110.688z M191.554,97.003h7.541v8.24h-7.541V97.003z"
		/>
	<polygon fill="#FFFFFF" points="231.606,68.837 224.065,68.837 224.065,65.792 220.669,65.792 220.669,74.531 224.065,74.531 
		224.065,71.784 231.606,71.784 	"/>
	<rect x="186.36" y="74.231" fill="#FFFFFF" width="17.529" height="3.046"/>
	<rect x="188.407" y="80.773" fill="#FFFFFF" width="13.784" height="2.946"/>
	<path fill="#FFFFFF" d="M260.727,102.447h17.479v-2.996h-17.479v-3.446h15.631V80.624h-15.631v-2.997h20.325v-3.046h-20.325v-3.846
		c5.843-0.449,11.286-0.998,15.531-1.798l-1.998-2.896c-7.84,1.448-21.823,2.348-33.36,2.647c0.351,0.799,0.75,2.047,0.799,2.946
		c4.895-0.1,10.188-0.3,15.383-0.649v3.596h-19.928v3.046h19.928v2.997h-14.934v15.381h14.934v3.446H240.65v2.996h16.431v4.296
		h-20.177v3.046h44.447v-3.046h-20.625V102.447z M260.727,83.32h11.886v3.746h-11.886V83.32z M260.727,89.562h11.886v3.796h-11.886
		V89.562z M257.081,93.358h-11.288v-3.796h11.288V93.358z M257.081,87.066h-11.288V83.32h11.288V87.066z"/>
	<path fill="#FFFFFF" d="M312.119,83.82h18.827v-3.796h-20.625c0.699-5.243,0.75-10.188,0.799-14.183h-3.994
		c-0.051,3.945,0,8.939-0.75,14.183h-19.027v3.796h18.428c-2.047,9.438-7.041,19.027-19.426,24.421
		c1.048,0.749,2.247,2.047,2.796,3.046c12.136-5.543,17.529-15.132,19.927-24.721c3.945,11.337,10.287,20.177,19.876,24.721
		c0.649-1.099,1.897-2.646,2.796-3.495C322.106,103.846,315.614,94.806,312.119,83.82z"/>
	<path fill="#FFFFFF" d="M348.58,93.558h8.34c-2.347,3.196-5.742,6.093-9.188,8.141c0.649,0.499,1.897,1.697,2.348,2.247
		c1.947-1.299,3.945-2.896,5.793-4.745h4.894c-2.447,3.846-6.042,7.192-9.838,9.439c0.699,0.499,1.897,1.647,2.347,2.147
		c4.146-2.747,8.34-6.892,11.037-11.587h5.145c-1.898,4.295-4.944,7.941-8.54,10.438c0.698,0.499,1.947,1.498,2.496,2.047
		c3.797-2.996,7.292-7.391,9.39-12.485h4.194c-0.699,5.645-1.448,8.141-2.247,8.94c-0.35,0.349-0.799,0.398-1.498,0.398
		s-2.298,0-4.095-0.199c0.448,0.799,0.799,2.048,0.799,2.946c1.897,0.101,3.695,0.101,4.644,0c1.199-0.05,1.998-0.299,2.747-1.049
		c1.349-1.349,2.248-4.444,3.046-12.285c0.1-0.499,0.15-1.448,0.15-1.448h-22.174c0.799-0.948,1.549-1.947,2.197-2.946h21.476
		v-2.896H348.58V93.558z"/>
	<path fill="#FFFFFF" d="M347.332,65.941c-2.847,7.591-7.441,15.032-12.336,19.826c0.699,0.799,1.698,2.747,2.098,3.596
		c1.748-1.798,3.446-3.845,5.044-6.143v28.017h3.496v-33.46c1.998-3.446,3.746-7.092,5.145-10.787L347.332,65.941z"/>
	<path fill="#FFFFFF" d="M351.327,80.574c1.198-1.299,2.397-2.896,3.546-4.645v12.335h22.423V75.53h-22.123
		c0.499-0.85,1.048-1.698,1.548-2.597h24.07v-2.897h-22.522c0.55-1.099,1.049-2.247,1.498-3.396l-3.346-0.898
		c-1.797,4.693-4.694,9.488-7.94,12.685C349.329,78.925,350.678,79.974,351.327,80.574z M358.269,77.876h15.433v2.896h-15.433
		V77.876z M358.269,82.92h15.433v2.997h-15.433V82.92z"/>
	<path fill="#FFFFFF" d="M399.824,82.372h13.434v5.094h-12.335v23.922h3.396V90.711h8.839c-0.349,3.896-1.897,8.539-8.14,11.486
		c0.699,0.649,1.747,1.848,2.247,2.547c4.295-2.298,6.692-5.294,7.94-8.29c2.847,2.646,5.793,5.793,7.392,7.891l2.446-2.098
		c-1.947-2.397-5.742-6.093-8.839-8.84c0.199-0.898,0.35-1.797,0.399-2.696h9.639v16.381c0,0.649-0.2,0.849-0.948,0.849
		c-0.65,0.05-2.997,0.1-5.645,0c0.5,0.898,1.049,2.297,1.199,3.296c3.495,0,5.743,0,7.191-0.599c1.348-0.6,1.748-1.599,1.748-3.496
		V87.465h-13.085v-5.094h14.483v-3.246h-31.362V82.372z"/>
	<path fill="#FFFFFF" d="M393.332,84.569c-0.5-2.447-2.247-6.293-3.996-9.089l-2.747,1.298c1.649,2.946,3.297,6.842,3.796,9.289
		L393.332,84.569z"/>
	<path fill="#FFFFFF" d="M413.907,65.641l-3.896,0.8c0.599,1.497,1.198,3.396,1.698,4.993h-17.529v14.732
		c0,1.448-0.05,2.947-0.149,4.545c-3.098,1.599-5.993,3.196-8.241,4.095l1.299,3.396c2.047-1.148,4.345-2.447,6.592-3.796
		c-0.749,5.094-2.447,10.338-6.492,14.482c0.75,0.5,2.147,1.799,2.697,2.498c6.792-6.842,7.84-17.43,7.84-25.171V74.781h33.96
		v-3.347h-15.682C415.505,69.737,414.656,67.489,413.907,65.641z"/>
	<path fill="#FFFFFF" d="M61.146,166.177v-9.988h14.782v-3.496H61.146v-8.141h12.734v-3.545H44.965v3.545h12.385v20.626
		c-4.045-1.549-7.241-4.445-9.139-9.738c0.45-1.998,0.849-4.146,1.148-6.442l-3.695-0.399c-1.099,8.988-3.795,16.08-9.339,20.325
		c0.899,0.55,2.397,1.848,2.996,2.547c3.297-2.847,5.744-6.642,7.442-11.286c4.544,8.49,11.985,10.287,22.373,10.287h11.537
		c0.2-1.098,0.799-2.796,1.398-3.745c-2.397,0.1-10.937,0.1-12.735,0.1C66.39,166.826,63.643,166.676,61.146,166.177z"/>
	<path fill="#FFFFFF" d="M79.974,142.156v-10.837H62.195c-0.599-1.648-1.847-4.096-2.946-5.943l-3.596,1.049
		c0.799,1.448,1.698,3.346,2.297,4.895H38.573v10.837h3.646v-7.292h34.009v7.292H79.974z"/>
	<path fill="#FFFFFF" d="M109.742,155.889h-3.646v-20.276h3.646v-3.346h-3.646v-6.043h-3.446v6.043h-9.039v-6.043h-3.396v6.043
		h-4.195v3.346h4.195v20.276h-4.844v3.346h24.371V155.889z M102.65,155.889h-9.039v-4.994h9.039V155.889z M102.65,147.898h-9.039
		v-4.894h9.039V147.898z M102.65,140.008h-9.039v-4.396h9.039V140.008z"/>
	<path fill="#FFFFFF" d="M85.421,169.173c0.899,0.5,2.298,1.548,2.997,2.147c2.747-2.447,5.593-6.243,7.391-10.088l-3.545-0.949
		C90.765,163.58,88.167,166.925,85.421,169.173z"/>
	<path fill="#FFFFFF" d="M99.355,161.832c1.997,2.348,4.245,5.594,5.143,7.592l2.997-1.748c-0.948-2.048-3.246-5.144-5.244-7.392
		L99.355,161.832z"/>
	<path fill="#FFFFFF" d="M112.189,146.201c0,7.142-0.4,16.58-4.545,23.173c0.85,0.35,2.348,1.498,2.946,2.197
		c2.997-4.795,4.245-11.138,4.745-17.08h10.538v11.986c0,0.798-0.3,1.048-1.048,1.048c-0.699,0.05-3.197,0.05-5.843,0
		c0.499,0.949,0.999,2.547,1.148,3.596c3.696,0,5.994-0.1,7.442-0.699c1.348-0.599,1.898-1.697,1.898-3.895v-38.354h-17.28V146.201z
		 M115.686,131.568h10.188v7.94h-10.188V131.568z M115.686,146.201v-3.346h10.188v8.289h-10.287
		C115.635,149.447,115.686,147.749,115.686,146.201z"/>
	<path fill="#FFFFFF" d="M180.862,149.747h-14.133v-5.943h11.235v-15.78h-25.719v15.78h10.787v5.943h-14.433v3.396h14.433v18.179
		h3.696v-18.179h14.133V149.747z M155.742,140.507v-9.139h18.528v9.139H155.742z"/>
	<path fill="#FFFFFF" d="M169.525,157.088c3.146,3.545,6.792,8.439,8.49,11.485l2.996-1.848c-1.797-2.997-5.442-7.641-8.64-11.187
		L169.525,157.088z"/>
	<path fill="#FFFFFF" d="M148.201,166.726c0.799,0.499,2.247,1.548,2.896,2.147c2.798-3.196,6.093-8.041,8.441-12.235l-3.297-1.049
		C154.144,159.435,151.048,163.83,148.201,166.726z"/>
	<path fill="#FFFFFF" d="M147.103,125.825c-2.847,7.541-7.641,14.933-12.585,19.677c0.648,0.849,1.698,2.797,2.098,3.596
		c1.747-1.798,3.546-3.896,5.193-6.192v28.266h3.546v-33.659c1.998-3.346,3.795-6.992,5.244-10.638L147.103,125.825z"/>
	<path fill="#FFFFFF" d="M208.084,161.033c0.549-1.148,1.049-2.447,1.448-3.695l-3.346-0.699c-1.599,5.394-4.944,9.688-9.539,12.386
		c0.799,0.599,2.048,1.797,2.547,2.446c2.897-1.997,5.493-4.694,7.491-7.94c1.898,1.448,3.995,3.097,5.045,4.345l1.947-2.497
		C212.529,164.129,210.183,162.332,208.084,161.033z"/>
	<path fill="#FFFFFF" d="M217.073,126.474l-3.596-1.148c-2.797,4.645-8.19,9.588-14.184,12.734c0.8,0.55,1.948,1.748,2.498,2.447
		c1.848-1.049,3.646-2.197,5.343-3.496v2.896h14.883v-2.996h-14.732c2.547-1.897,4.845-4.045,6.841-6.342
		c4.097,3.695,10.139,7.391,15.233,9.588c0.299-0.949,1.048-2.446,1.697-3.346c-5.094-1.798-11.336-5.194-15.081-8.689
		C216.375,127.573,216.724,127.024,217.073,126.474z"/>
	<path fill="#FFFFFF" d="M200.044,152.693c0-3.046-0.799-6.642-4.195-10.737c1.598-3.995,3.297-8.939,4.695-12.984l-2.298-1.448
		l-0.55,0.2h-10.487v43.447h3.196v-40.102h5.942c-0.898,3.346-2.296,7.69-3.646,11.236c3.297,3.945,4.146,7.392,4.146,10.088
		c0,1.548-0.3,2.896-0.999,3.446c-0.35,0.3-0.899,0.449-1.448,0.449c-0.799,0.05-1.647,0.05-2.797-0.05
		c0.599,0.948,0.898,2.347,0.949,3.296c0.999,0.05,2.196,0.05,3.146-0.05c0.948-0.149,1.848-0.449,2.496-0.949
		C199.494,157.537,200.044,155.389,200.044,152.693z"/>
	<path fill="#FFFFFF" d="M227.61,143.504h-11.386v11.985h11.386V143.504z M224.614,152.792h-5.543v-6.542h5.543V152.792z"/>
	<path fill="#FFFFFF" d="M213.129,143.504h-11.188v11.985h11.188V143.504z M210.132,152.792h-5.344v-6.542h5.344V152.792z"/>
	<path fill="#FFFFFF" d="M222.168,161.432c0.549-1.348,0.948-2.847,1.248-4.344l-3.347-0.5c-1.099,5.394-3.745,9.639-7.79,12.285
		c0.799,0.6,1.997,1.798,2.497,2.447c2.496-1.798,4.545-4.195,6.042-7.092c2.946,2.048,6.044,4.595,7.742,6.343l2.196-2.497
		C228.909,166.127,225.313,163.43,222.168,161.432z"/>
	<rect y="0.24" fill="#FFFFFF" width="7.344" height="181.521"/>
</g>
</svg>
