<svg id="section1" xmlns="http://www.w3.org/2000/svg" viewBox="0 0 545.3 127.6" width="545.307px" height="127.559px"><defs><style>.cls-1{fill:#fff;}</style></defs><title>product-05_heading</title><rect class="cls-1" width="9.7" height="127.5"/><path class="cls-1" d="M46.4,55.2H78.5v2.2h6.1V11.3h-44V57.4h5.8V55.2Zm0-38.4H71.3l-2.4,2.4a28,28,0,0,1,4,2.7H67.3c-.1-1.4-.2-2.9-.2-4.4H62l.3,4.4h-14v4.3H62.6a76.1,76.1,0,0,0,2.2,13.5,21.3,21.3,0,0,1-2.6,2.6V39.7L47.6,41.5l.6,4.5,11.5-1.8-1.6,1a29.2,29.2,0,0,1,3.4,3.7,28.1,28.1,0,0,0,5.4-4.4,7.1,7.1,0,0,0,3.9,3.4c3.4,1.5,6.1-.4,6.9-6.8a25.5,25.5,0,0,1-3.8-2.9c-.2,3-.6,5-1.2,4.8s-1.7-1.2-2.4-2.7a38.7,38.7,0,0,0,5.4-11.8L71,27.7a32.5,32.5,0,0,1-2.4,6.4c-.4-2.3-.7-5-1-7.9h9.2V21.9H74.3l2.1-2.2a16.3,16.3,0,0,0-4.3-3h6.4v33H46.4Z"/><path class="cls-1" d="M61.1,28.5H49.6v9.8H61.1ZM56.9,35H53.4V31.7h3.5Z"/><path class="cls-1" d="M137.5,32.9v-5H111l1.4-2.6h20.4V20.6H114.3a22.5,22.5,0,0,0,.8-2.4h19.7V13.3H116.3c.3-1.3.6-2.5.8-3.8l-6.4-.6c-.2,1.4-.4,2.9-.7,4.3H93.6v4.9h15.1a22.5,22.5,0,0,1-.8,2.4H96.3v4.7h9.4l-1.5,2.6H90.8v5h9.5a38.8,38.8,0,0,1-10.5,7.8,15.4,15.4,0,0,1,4.6,4.2,43.9,43.9,0,0,0,13.5-12h12.5A32.4,32.4,0,0,0,135,44.6a21.5,21.5,0,0,1,4-5,28.9,28.9,0,0,1-11.7-6.8C127.3,32.9,137.5,32.9,137.5,32.9Z"/><path class="cls-1" d="M96.4,55l14.9-5.8v2.3c0,.6-.2.8-.9.8a28.2,28.2,0,0,1-4.9-.1,23.4,23.4,0,0,1,1.8,4.8c3.4,0,5.8-.1,7.6-.8s2.4-2,2.4-4.6V48.1a107.9,107.9,0,0,1,13,7l3.6-4.6c-2.4-1.3-5.8-3.1-9.3-4.8,1.2-1.2,2.6-2.6,3.8-4l-4.8-3a50.9,50.9,0,0,1-3.9,4.7l-2.3-1V34.3h-6V44l-4.8,1.7,2.4-2a26.7,26.7,0,0,0-5.3-4.5l-4,3.1a30.1,30.1,0,0,1,4.5,4.1c-4,1.3-7.7,2.6-10.5,3.4Z"/><path class="cls-1" d="M168.4,17.2c.2-3.1.3-5.9.4-8h-7.1c-.2,8.7.8,31.8-20.2,43a20.3,20.3,0,0,1,5.1,5c10.7-6.3,16.1-15.6,19-24.7,3,8.9,8.7,18.9,20.2,24.4a15.8,15.8,0,0,1,4.5-5.3C172.2,43.6,169.1,24.2,168.4,17.2Z"/><path class="cls-1" d="M233.7,30.9l5.2.8c.7-2.2,1.5-5.7,2.2-8.8l-4.3-.7-.9.2H194.7v4.1h39.9C234.2,28.2,234,29.7,233.7,30.9Z"/><polygon class="cls-1" points="198 32.9 198 36.1 236.3 36.1 236.3 32.9 220.1 32.9 220.1 31.2 231.8 31.2 231.8 28.1 201.9 28.1 201.9 31.2 214.1 31.2 214.1 32.9 198 32.9"/><polygon class="cls-1" points="214 17.2 199.3 17.2 199.3 20.9 235.4 20.9 235.4 17.2 220.2 17.2 220.2 15.5 239.9 15.5 239.9 11.7 220.2 11.7 220.2 9.1 214 9.1 214 11.7 194.8 11.7 194.8 15.5 214 15.5 214 17.2"/><path class="cls-1" d="M213.9,54.8V43.6H197V56.4h5.3V54.8Zm-11.7-7.4h6.2V51h-6.2Z"/><path class="cls-1" d="M193.2,41.9h36.6V44H215.4v4.1h3.9l-2.4,1.8a22.6,22.6,0,0,1,4.4,5.1l4-3.1a23.3,23.3,0,0,0-3.5-3.8h8v4.1c0,.5-.2.6-.7.6h-3.6A24.5,24.5,0,0,1,227,57c2.7,0,4.8,0,6.3-.6s2-1.8,2-4.1V48h4.2V43.9h-4.2V41.8h6V37.5H193.1v4.4Z"/><path class="cls-1" d="M540.2,91.8c3-6.4-1.7-13.9-5.1-18a10.2,10.2,0,0,1-1.8-2.3h-9.8c-.6.9-1.4,1.7-2.2,2.8-3.4,4.2-7.6,11.3-4.7,17.4a94,94,0,0,0,5.1,8.7h0c-5.2,6.8-10.3,13.1-10.3,13.1l6.9,9.9s4.8-6.1,10-13.4h0c5.2,7.2,10,13.4,10,13.4l6.9-9.9-10.3-13.1A61.4,61.4,0,0,0,540.2,91.8Zm-9-4.2-2.8,4h0c-1.1-1.5-2-2.9-2.8-4.1a12.6,12.6,0,0,1-2.1-4.7h9.8A13,13,0,0,1,531.2,87.6Z"/><path class="cls-1" d="M59.1,100.7,57,103.6l-1.2-.9v1.9h-4v2h6.5v2.9H51.8v4.7a50,50,0,0,0,6.4-.7l.5,2.9c-6.4.7-12.5,1.2-18.5,1.5l-.6-3,8.5-.3v-5.1H40.8v-2.9h7.3v-2H43.5v-1.1l-2.1,1.1-2.1-3.1a39.8,39.8,0,0,0,9.8-5.9l3.8.8a1.8,1.8,0,0,1-.5.7A29.2,29.2,0,0,1,59.1,100.7ZM80.4,81.5l-1.6,3.2a61.5,61.5,0,0,1-8.6-1.3v1.2H62v1.9H76.9v2.7H62v3.1h4.7l1.5-2.5,4.2.6c-.5.8-.8,1.5-1.1,1.9H78v3H41.9v-3h6.9l-1.3-1.8,4.2-.8,1.7,2.6H58V89.2H43V86.5H58V84.6H49.8V83.1l-8.6,1.7-1.7-3.3c7.7-.7,14.1-2.4,19.3-5.2l4.9.7a.8.8,0,0,1-.4.4C67.5,79.7,73.2,81.1,80.4,81.5ZM46.7,113.1l-3,.9-2.1-3.3,3.2-1A16.8,16.8,0,0,1,46.7,113.1Zm7.5-11.4a32.8,32.8,0,0,0-4.6-2.3l-3.2,2.3Zm3.5,9.1a9.5,9.5,0,0,1-2,2.6l-3.1-1.1a11.6,11.6,0,0,0,2-2.5ZM65.3,82c-.8-.3-2.6-1.1-5.4-2.5A30.6,30.6,0,0,1,53.6,82Zm15.5,19.1-2.1,3-2.2-.8v1.2H71.6v2.1h8v2.8h-8v4.7h8.6V117H59.6v-3h8.3v-4.6H60.6v-2.8h7.3v-2.1H63.6v-1.1l-2,.9-2.5-2.7a35.7,35.7,0,0,0,9.7-5.9l3.8.9-.3.4A26.8,26.8,0,0,0,80.8,101.1ZM66.6,112.7l-3.2.8a31.5,31.5,0,0,0-2.2-2.9l3.3-.7A10.3,10.3,0,0,1,66.6,112.7Zm6.6-11-3.4-2.5-3.3,2.5Zm5.4,9a17.3,17.3,0,0,1-1.9,2.8l-3.5-.9a30.7,30.7,0,0,0,2-2.8Z"/><path class="cls-1" d="M127.6,114.4l-1.9,3.7a79,79,0,0,1-19.1-4,93.5,93.5,0,0,1-18.7,4l-1.8-3.8a76.5,76.5,0,0,0,15.3-2.7,47.3,47.3,0,0,1-5.6-3.5c-2,1.1-4.1,2.1-6.4,3.1L86.9,108a28.1,28.1,0,0,0,5.4-2.5l-1.4-1.2,2.8-2.4a9.8,9.8,0,0,0,2.1,1.6,37.2,37.2,0,0,0,4.7-3.4A3,3,0,0,1,98.2,97V91.9h4v3.8c0,.8.4,1.2,1.3,1.2h3.2a27.2,27.2,0,0,0,4.3-.2c.4-.1.6-.4.8-.9a6.2,6.2,0,0,0,.2-2.1l4,1.2a8.9,8.9,0,0,1-.8,3.4,2.9,2.9,0,0,1-1.9,1.5,51.4,51.4,0,0,1-7.6.3l-2.4,2.5H120v3.3a56.4,56.4,0,0,1-8.2,5.7A71.3,71.3,0,0,0,127.6,114.4Zm-1.7-19.8h-4.1V90.5H91.6v4H87.4V87.1h38.5ZM96.8,94a36.5,36.5,0,0,1-6.2,8.3l-3.1-2.2a37.1,37.1,0,0,0,6.2-7.9Zm27.5-14.1a265.1,265.1,0,0,1-34.9,2.2L88,78.6h7.7c10.9,0,19.7-.6,26.4-1.9ZM99.2,85.3l-4.4,1.2a28.1,28.1,0,0,0-4-2.7l4.3-1.4A19.1,19.1,0,0,1,99.2,85.3Zm14.5,20.8H99.6a36.2,36.2,0,0,0,7,3.9A31.9,31.9,0,0,0,113.7,106.1Zm-3.1-20.9-4.3,1.3-4.4-2.9,4.2-1.5A17,17,0,0,1,110.6,85.2Zm.4,9.3-3.5,1.8a20.9,20.9,0,0,0-3.3-3.5l3.4-1.9A37.5,37.5,0,0,1,111,94.5Zm11.8-11.6a22.1,22.1,0,0,1-4.9,3.6L113.3,85a46.3,46.3,0,0,0,5.4-3.7Zm1.8,16.9-3.2,2a53.4,53.4,0,0,0-5.6-8.4l3.2-1.9A63.6,63.6,0,0,1,124.6,99.8Z"/><path class="cls-1" d="M173.3,98.4h-9.7v14.8a4.3,4.3,0,0,1-1,3.1,4.6,4.6,0,0,1-3,1.2h-8.4l-1.1-4H158c.9,0,1.4-.4,1.4-1.3V98.4H132.8v-4h26.6V87.7h4.2v6.7h9.7v4Zm-1.7-7h-4.2V85.6H138.7v5.9h-4.2V81.7h16.2a15.1,15.1,0,0,0-1.7-4l4.7-1.1a28.9,28.9,0,0,1,1.8,5.1h16.1v9.7Zm-19.3,17-3.4,2.7a58.7,58.7,0,0,0-8.7-8.4l3.1-2.7A52,52,0,0,1,152.3,108.4Z"/><path class="cls-1" d="M192.6,84.7H179.4V81.2h5.3a26.3,26.3,0,0,0-1.5-3.5l4-1.1a24.2,24.2,0,0,1,1.6,4.6h3.7v3.5Zm-1,32h-3.9v-2h-3.8v2.8H180V101.6h11.5v15.1Zm0-24.9H180.1V88.1h11.5Zm0,6.7H180.1V94.8h11.5Zm-3.9,12.7v-5.9h-3.8v5.9ZM220,82.3h-7.1v1.9h-3.3a7.9,7.9,0,0,1,.9,2.3h8.6v2.8h-8.7v1.8h8.1v2.7h-8.1v1.8h8.1v2.6h-8.1V100h9.3v2.8H195.4V94.3a18.4,18.4,0,0,1-1.4,1.4l-2-3.3a32.7,32.7,0,0,0,6.4-8.9l3.2,1.6a9.1,9.1,0,0,1-.7,1.4h5.5a7.6,7.6,0,0,0-.9-1.8l3.5-1.1V77h3.9v1.9H220Zm.3,32.3-1.5,3.5a50.9,50.9,0,0,1-12.1-3.3,61.2,61.2,0,0,1-12.1,3.1l-1.6-3.5a50.5,50.5,0,0,0,9.7-1.8,17.6,17.6,0,0,1-5.3-4.9h-2v-3.1h23.2v3.1a29,29,0,0,1-6.9,5.1A60.7,60.7,0,0,0,220.3,114.6ZM205.1,84.1h-4V82.3H194V78.8h7.1V77h4Zm1.2,7V89.3h-7v1.8Zm0,4.4V93.7h-7v1.8Zm0,4.4V98.1h-7v1.8Zm6.7,7.8H202a18.4,18.4,0,0,0,5.1,3.3A32.1,32.1,0,0,0,213,107.7Z"/><path class="cls-1" d="M237.7,91.5q4.5,5.1,4.5,10.2c0,4.2-2.2,6.3-6.5,6.3l-2.4-.2-1.2-4h3c1.5,0,2.4-.1,2.7-.4a2.6,2.6,0,0,0,.5-1.8c0-3.3-1.7-6.4-5.2-9.5A81.6,81.6,0,0,0,237,81.8h-5.8v35.7H227V77.9h14v4A68.7,68.7,0,0,1,237.7,91.5Zm28.6-4.3H252l-.2,6h12.6c.1,3.8,0,8.2-.3,13.1s-.7,7.8-1.2,8.6a5,5,0,0,1-1.9,1.9c-.7.5-2.5.7-5.3.7H253l-1.7-4.2h4.2a8.3,8.3,0,0,0,3.1-.3,1.9,1.9,0,0,0,.7-.8,25.2,25.2,0,0,0,.6-5.2c.2-3.1.3-6.4.4-10h-8.6a28.8,28.8,0,0,1-10.6,20.8l-3-2.8a33.5,33.5,0,0,0,5.8-6.6,22.3,22.3,0,0,0,3.3-8.3,59.9,59.9,0,0,0,.6-13h-6V83.3h10a23.5,23.5,0,0,0-2.8-5l4.1-1.5a39.8,39.8,0,0,1,3.3,6.5h10v3.9Z"/><path class="cls-1" d="M312.9,83.8H282.4V99.1c0,8.2-2.3,14.4-6.9,18.8l-2.9-3.2c3.8-3.2,5.7-8.2,5.7-14.9a30.1,30.1,0,0,1-4.5,3.9l-1.6-3.8a43.2,43.2,0,0,0,6.3-5.4V80.3H293a18.5,18.5,0,0,0-1.6-2.6l4.2-1,2,3.6H313v3.5Zm-35.6,7.3-3.2,1.3a46,46,0,0,0-1.9-8.7l3-1.3A39.4,39.4,0,0,1,277.3,91.1Zm34.4,26.7h-4v-1.5H284v-8.7h4.1v5.1h7.8v-6.1h4v6.1h7.9v-5.1h4v10.2Zm-15.3-12.5H284.2V96h12.2Zm12.9-11.1H286.6V85.5h22.7Zm-16.7,7.9v-3h-4.7v3Zm12.6-11V88.8H290.6v2.3Zm6.6,14.2H299.5V96h12.3Zm-3.6-3.2v-3h-4.8v3Z"/><path class="cls-1" d="M360,113.1l-1.2,4h-5.3a118,118,0,0,1-13.3-.5,19.5,19.5,0,0,1-6.4-2.2,17.9,17.9,0,0,1-5.7-5.4,47.5,47.5,0,0,1-6.2,8.9l-3.3-2.7c4.7-4.6,7.6-10.6,8.6-18l4.2.5a38.2,38.2,0,0,1-1.5,6.7c2.1,3.9,4.8,6.4,7.9,7.4V94.2H325.3V90.3h27v3.9H342v6h14.3v3.9H342v8.6c3.7.3,7.6.5,11.7.5Zm-1.7-21h-4.2v-7H324.2v7h-4.4V81.2h17.1a21.6,21.6,0,0,0-2-3.6l4.1-1a21.5,21.5,0,0,1,2.6,4.6h16.6V92.1Z"/><path class="cls-1" d="M375.7,109.2a41.3,41.3,0,0,1-7.5,8.8l-3.2-2.7a35,35,0,0,0,7.2-8Zm11.9-3H365.1v-3.7H369v-17h-3.1V81.8H369V77h4v4.8h7V77h4.1v4.8h3.2v3.7h-3.2v17h3.5Zm-7.5-17.5V85.4h-7v3.3Zm0,6.8V92.3h-7v3.2Zm0,7V99.1h-7v3.4Zm5.2,10.5-3.1,2.4a35.2,35.2,0,0,0-4.5-5.9l3.1-2.3A33.5,33.5,0,0,1,385.3,113Zm19.1-.7c0,3.6-1.7,5.4-5,5.4h-3.3l-1.4-4h2.6c1.4,0,2.3-.1,2.6-.4a1.7,1.7,0,0,0,.5-1.2v-8.2H393a28.1,28.1,0,0,1-4.8,14.4l-3.6-2.3c3.2-4.1,4.7-10.2,4.7-18.3V77.8h15v34.5Zm-4-23.9V81.8h-7v6.6Zm0,11.4V92.5h-7v7.3Z"/><path class="cls-1" d="M423.3,77.8c-.6,2-1.3,3.9-1.9,5.6l-1,2.4v31.9h-4.2V94.2a48.5,48.5,0,0,1-3,4.1L411,94a57.2,57.2,0,0,0,8.3-17.2Zm9.8,27.7a45.2,45.2,0,0,1-7.8,11l-3.5-2.5a46.6,46.6,0,0,0,7.6-10.3Zm19-3.8H439.5v16h-4.2v-16H422.6v-4h12.7V93.3H425v-15h24.4v15h-10v4.4H452v4Zm-6.9-12.4v-7H429.3v7Zm7.3,25.3-3.8,2.1a67.8,67.8,0,0,0-7-11.1l3.6-2A71.7,71.7,0,0,1,452.5,114.6Z"/><path class="cls-1" d="M470.7,82c0,.2-.3,1.4-.8,3.5a61.7,61.7,0,0,1-1.9,6.1,21.3,21.3,0,0,1,3.1,10.1c0,2.5-.5,4.3-1.5,5.2a5.6,5.6,0,0,1-3.9,1.4h-.9l-.9-4.2,1.6.2q1.8,0,1.8-2.4c0-3.2-1.2-6.5-3.5-10.1a53.6,53.6,0,0,0,3.1-9.8h-3.7v35.9h-4V77.8h11.4V82Zm13.6,30.8-2.6,2.8a46.2,46.2,0,0,0-4.1-3.8,41.7,41.7,0,0,1-5.3,6.2l-3.3-2.5a27.4,27.4,0,0,0,7.9-10.5l3.7,1.1-1.2,2.6C481.2,110.1,482.8,111.4,484.3,112.8Zm15.2-25.7-2.2,3.5a47.6,47.6,0,0,1-4.9-2.8v2.7H477.6V87.6a49.4,49.4,0,0,1-4.9,2.8l-2.3-3.3c6.1-3,10.7-6.4,13.8-10.3l4.1,1.2a3.7,3.7,0,0,1-.6.8C490.1,81.8,494.1,84.5,499.5,87.1Zm-15.7,17.4H473.2v-12h10.6Zm-3.8-3.8V96.1h-2.9v4.6Zm10.7-14.1a50.6,50.6,0,0,1-5.7-4.9,43.1,43.1,0,0,1-6,4.9Zm8.5,28.7-2.8,2.7a52.8,52.8,0,0,0-5.8-5.3,59.5,59.5,0,0,1-4.3,5.4l-3.2-2.4a32.7,32.7,0,0,0,7.1-10.4l3.7,1.1-1.5,3.2A40.1,40.1,0,0,1,499.2,115.3ZM497,104.5H486.2v-12H497Zm-3.9-3.8V96.1h-3v4.6Z"/></svg>