<?xml version="1.0" encoding="utf-8"?>
<!-- Generator: Adobe Illustrator 16.0.0, SVG Export Plug-In . SVG Version: 6.00 Build 0)  -->
<!DOCTYPE svg PUBLIC "-//W3C//DTD SVG 1.1//EN" "http://www.w3.org/Graphics/SVG/1.1/DTD/svg11.dtd">
<svg version="1.1" id="section1" xmlns="http://www.w3.org/2000/svg" xmlns:xlink="http://www.w3.org/1999/xlink" x="0px" y="0px"
	 width="462.047px" height="134px" viewBox="16.477 0 462.047 134" enable-background="new 16.477 0 462.047 134"
	 xml:space="preserve">
<g>
	<g>
		<g>
			<path fill="#FFFFFF" d="M110.035,7.569v51.087h-6.735v-2.397H67.795v2.397h-6.45V7.569H110.035z M103.299,50.208V13.676h-7.078
				c1.827,0.914,3.767,2.226,4.795,3.311l-2.284,2.397h2.74v4.794H91.255c0.286,3.197,0.628,6.165,1.085,8.733
				c1.142-2.226,1.998-4.566,2.683-7.135l5.194,1.027c-1.371,4.966-3.425,9.304-5.994,13.072c0.742,1.712,1.599,2.797,2.626,3.025
				c0.628,0.229,1.084-1.998,1.313-5.308c1.028,1.027,3.083,2.568,4.224,3.196c-0.913,7.021-3.881,9.19-7.648,7.478
				c-1.712-0.571-3.14-1.883-4.281-3.768c-1.827,1.827-3.767,3.482-5.937,4.852c-0.742-1.027-2.568-3.196-3.71-4.11
				c0.628-0.342,1.256-0.742,1.827-1.142c-4.567,0.685-9.019,1.313-12.786,1.941l-0.628-4.966c4.167-0.457,10.103-1.142,16.04-1.941
				l0.114,2.854c1.027-0.856,1.941-1.827,2.854-2.854c-1.198-4.11-1.94-9.304-2.455-14.955H69.907v-4.794h15.469
				c-0.114-1.598-0.171-3.197-0.286-4.852h5.594c0.057,1.655,0.114,3.254,0.229,4.852h6.165c-1.199-1.028-2.911-2.226-4.396-3.025
				l2.683-2.683h-27.57v36.532H103.299z M84.063,37.479H71.334V26.634h12.729V37.479z M79.497,30.23h-3.824v3.653h3.824V30.23z"/>
			<path fill="#FFFFFF" d="M157.412,31.486c3.368,3.31,7.934,5.993,12.957,7.534c-1.541,1.199-3.482,3.825-4.453,5.537
				c-6.622-2.626-12.272-7.25-16.21-13.071h-13.871c-3.768,5.08-8.676,9.646-14.955,13.299c-1.027-1.541-3.368-3.767-5.08-4.624
				c4.681-2.397,8.562-5.422,11.645-8.676h-10.503v-5.537h14.841c0.628-0.97,1.199-1.884,1.712-2.854h-10.446V17.9h12.9
				c0.342-0.913,0.628-1.77,0.856-2.683h-16.668V9.795h18.094c0.343-1.598,0.628-3.196,0.8-4.794l7.135,0.628
				c-0.228,1.37-0.513,2.74-0.856,4.167h20.435v5.423h-21.862c-0.286,0.913-0.627,1.77-0.913,2.683h20.492v5.194h-22.604
				c-0.514,0.97-0.97,1.884-1.541,2.854h29.339v5.537H157.412z M158.496,41.303c-1.313,1.542-2.854,3.083-4.224,4.395
				c3.882,1.941,7.649,3.882,10.332,5.366l-3.996,5.137c-3.539-2.226-9.076-5.251-14.385-7.706v3.824
				c0,2.911-0.57,4.224-2.625,5.137c-1.998,0.799-4.681,0.856-8.448,0.856c-0.342-1.656-1.198-3.825-1.998-5.366
				c2.226,0.114,4.738,0.114,5.422,0.057c0.799,0,1.028-0.228,1.028-0.856V49.58c-5.765,2.283-11.702,4.566-16.439,6.393
				l-3.083-5.651c3.083-0.914,7.135-2.284,11.587-3.768c-1.198-1.484-3.31-3.254-5.023-4.566l4.452-3.482
				c2.055,1.313,4.624,3.425,5.879,4.966l-2.683,2.169c1.77-0.628,3.539-1.199,5.309-1.827V33.141h6.621v8.961
				c0.856,0.4,1.713,0.743,2.569,1.142c1.599-1.712,3.254-3.653,4.338-5.251L158.496,41.303z"/>
			<path fill="#FFFFFF" d="M226.593,51.635v5.48h-41.954v-5.48h17.295v-3.311h-12.101v-4.11c-1.027,1.313-2.169,2.455-3.253,3.482
				c-0.4-1.199-1.712-4.053-2.683-5.651c-0.685,5.937-2.341,12.5-6.108,17.124c-1.028-1.256-3.825-3.653-5.251-4.395
				c4.624-5.708,5.08-13.813,5.08-19.693v-10.16h7.706c-0.913-0.97-2.055-1.998-2.854-2.626c4.11-0.628,8.619-1.427,13.014-2.454
				c-3.596-0.914-7.306-1.712-10.674-2.34l3.196-2.455h-9.818V9.738h19.864c-0.685-1.084-1.484-2.112-2.169-2.968l4.567-2.226
				c1.313,1.484,2.854,3.482,3.824,5.194h19.75v5.309h-8.276l2.739,1.712c-2.055,0.97-4.452,1.941-7.021,2.854
				c3.368,0.914,6.45,1.827,9.019,2.683l-3.196,2.626h8.391v5.423h-41.44v4.794c0,1.827-0.057,3.824-0.286,5.993
				c2.74-2.683,5.08-6.336,6.507-10.274l5.765,1.712c-0.286,0.742-0.571,1.484-0.914,2.284h6.622v-3.482h6.679v3.482h14.098v5.308
				h-14.098v2.968h12.443v5.194h-12.443v3.311H226.593z M201.934,43.13v-2.968h-9.304c-0.628,1.028-1.256,1.998-1.941,2.968H201.934
				z M213.578,24.921c-2.797-0.97-6.221-1.94-9.818-2.911c-4.11,1.084-8.276,2.055-12.271,2.911H213.578z M193.03,15.046
				c3.596,0.799,7.363,1.655,11.13,2.569c2.74-0.742,5.366-1.655,7.478-2.569H193.03z"/>
			<path fill="#FFFFFF" d="M256.274,19.727c-1.77,1.256-3.71,2.455-5.651,3.482c-0.855-1.199-2.797-3.253-4.166-4.452
				c-0.628,2.112-1.142,4.167-1.712,5.936c2.911,4.396,3.482,8.505,3.482,11.759c0,3.767-0.628,6.222-2.284,7.535
				c-0.799,0.685-1.827,1.084-3.025,1.255c-0.914,0.171-2.169,0.171-3.311,0.171c-0.057-1.655-0.514-4.167-1.37-5.879
				c0.856,0.114,1.484,0.114,2.112,0.057c0.457,0,0.97-0.114,1.313-0.457c0.627-0.514,0.856-1.77,0.856-3.482
				c0-2.625-0.457-6.393-3.197-10.332c0.914-3.425,1.941-8.105,2.74-11.873h-4.167v44.865h-5.651V7.397h11.587l0.914-0.228
				l4.224,2.455c-0.742,2.683-1.599,5.708-2.398,8.676c6.507-3.368,12.5-8.676,15.697-13.87l6.508,2.283
				c-0.343,0.571-0.686,1.199-1.085,1.77c4.224,3.424,10.446,6.792,16.04,8.619c-0.971,1.713-2.113,4.624-2.568,6.451
				c-2.684-1.142-5.424-2.626-8.106-4.224v3.71h-16.781V19.727z M259.984,42.102c-0.342,1.142-0.799,2.284-1.256,3.368
				c1.998,1.313,4.225,2.911,5.424,4.11l-3.426,4.509c-0.971-1.142-2.739-2.626-4.51-3.938c-2.226,3.481-4.965,6.336-8.162,8.505
				c-0.913-1.142-3.082-3.368-4.395-4.281c5.023-2.968,8.676-7.763,10.389-13.528L259.984,42.102z M249.596,25.892h13.756v14.327
				h-13.756V25.892z M254.448,35.709h3.824v-5.251h-3.824V35.709z M270.887,17.958c-2.454-1.598-4.738-3.368-6.734-5.137
				c-1.713,1.827-3.539,3.539-5.48,5.137H270.887z M275.91,41.646c-0.343,1.598-0.742,3.139-1.313,4.623
				c3.196,2.227,6.906,4.909,8.847,6.85l-3.995,4.566c-1.599-1.712-4.396-4.053-7.25-6.165c-1.711,2.854-3.823,5.251-6.335,7.078
				c-0.856-1.142-3.025-3.425-4.339-4.281c4.453-2.911,7.192-7.706,8.277-13.528L275.91,41.646z M265.921,25.892h14.155v14.327
				h-14.155V25.892z M270.83,35.709h3.996v-5.251h-3.996V35.709z"/>
			<path fill="#FFFFFF" d="M80.696,95.072c0,0,0,1.313-0.058,1.941c-0.457,18.665-0.913,24.887-2.283,26.828
				c-0.856,1.198-1.883,1.654-3.254,1.77c-1.255,0.17-3.253,0.17-5.308,0.057c-0.057-1.143-0.457-2.74-1.084-3.768
				c2.055,0.172,3.825,0.229,4.681,0.229c0.685,0,1.141-0.114,1.598-0.799c0.856-1.256,1.371-6.793,1.77-22.376h-6.45
				c-0.229,8.848-1.656,18.723-8.106,27.284c-0.627-0.799-2.055-1.826-3.025-2.396c6.507-8.791,7.249-19.18,7.249-27.456v-8.677
				h-6.107v-3.995h22.033v3.995H70.307v7.363H80.696z M71.22,83.314c-0.571-2.111-1.941-5.365-3.083-7.82l3.596-1.256
				c1.313,2.455,2.683,5.594,3.254,7.706L71.22,83.314z M89.6,85.712c-1.598,3.253-3.539,6.165-5.536,8.448
				c-0.742-0.629-2.397-1.941-3.368-2.569c4.052-4.167,7.135-10.616,8.79-17.353l4.11,0.742c-0.628,2.397-1.427,4.681-2.283,6.85
				h19.692v3.882H89.6z M111.062,99.867c-2.625,2.569-6.05,5.365-8.904,7.363c2.168,6.508,5.308,11.816,9.646,14.842
				c-0.971,0.742-2.284,2.283-2.911,3.424c-7.592-5.707-11.416-17.066-13.357-30.594c-1.712,0.455-3.481,0.855-5.194,1.255v23.289
				l8.562-3.768c0.058,1.142,0.343,2.854,0.628,3.768c-10.446,4.852-12.044,5.594-13.015,6.563
				c-0.399-0.912-1.541-2.511-2.169-3.195c0.799-0.686,1.941-2.056,1.941-4.682V93.531c7.306-1.541,15.583-3.881,20.206-6.164
				l3.425,2.969c-3.083,1.313-6.85,2.568-10.789,3.652c0.514,3.311,1.085,6.564,1.941,9.646c2.454-1.998,5.137-4.395,6.906-6.393
				L111.062,99.867z"/>
			<path fill="#FFFFFF" d="M129.157,101.466c-0.856,5.022-2.397,10.788-4.224,15.126c1.084,0.57,2.397,1.656,4.509,2.912
				c4.11,2.396,9.418,2.797,16.268,2.797c7.591,0,16.896-0.515,23.403-1.143c-0.457,1.027-1.085,3.025-1.142,4.167
				c-4.338,0.286-15.469,0.685-22.433,0.685c-7.535,0-12.615-0.57-17.01-3.139c-2.283-1.37-4.452-3.311-5.765-3.311
				c-1.027,0-2.625,3.596-3.881,7.135l-2.854-3.653c1.941-3.14,3.825-5.708,5.48-6.679c1.427-3.253,2.683-7.762,3.482-11.758h-6.394
				c1.313-3.367,2.968-8.22,4.224-12.729h-5.708v-3.825h10.503c-1.256,4.11-2.74,8.905-4.11,12.843h3.254l0.628-0.171
				L129.157,101.466z M122.707,85.027c-0.628-2.455-1.884-6.394-2.797-9.361l3.368-0.914c0.971,2.969,2.226,6.679,2.854,9.076
				L122.707,85.027z M138.86,95.188c-0.114,7.191-1.256,15.925-6.964,22.375c-0.627-0.742-1.826-1.884-2.682-2.455
				c5.422-6.221,6.05-14.727,6.05-21.232v-8.277h-5.422v-3.596h9.019c-0.685-1.941-1.655-4.396-2.455-6.393l3.71-0.743
				c1.142,2.284,2.34,5.138,2.968,7.136h6.165v3.139c1.884-3.196,3.368-7.135,4.281-11.073l3.71,0.913
				c-0.514,1.826-1.084,3.711-1.713,5.479h12.786v3.653H153.93c-1.085,2.34-2.283,4.396-3.597,6.165
				c-0.627-0.628-2.168-1.827-3.025-2.341c0.571-0.685,1.142-1.484,1.655-2.34H138.86v6.051h9.133c0,0-0.057,1.256-0.057,1.77
				c-0.4,16.211-0.799,21.689-1.998,23.402c-0.856,1.027-1.712,1.484-2.968,1.598c-1.142,0.115-2.912,0.115-4.681,0.058
				c-0.058-1.085-0.457-2.568-0.97-3.538c1.769,0.17,3.253,0.17,3.995,0.17c0.628,0,1.028-0.057,1.371-0.685
				c0.799-1.085,1.198-5.821,1.541-19.235H138.86z M161.007,114.252c0,1.884-0.342,2.968-1.827,3.539
				c-1.313,0.627-3.424,0.685-6.622,0.685c-0.17-1.027-0.741-2.511-1.312-3.538c2.397,0.057,4.509,0.057,5.194,0
				c0.685,0,0.856-0.172,0.856-0.742v-9.533h-7.82v-3.539h7.82v-4.852c1.484-1.027,3.083-2.455,4.452-3.881h-10.331V89.08h13.356
				l0.686-0.229l2.397,1.77c-1.884,2.396-4.453,4.795-6.85,6.678v3.824h7.591v3.539h-7.591V114.252z"/>
			<path fill="#FFFFFF" d="M179.388,111.283c-0.628,4.909-1.656,10.275-2.854,13.814c-0.685-0.4-2.283-0.914-3.196-1.199
				c1.37-3.482,2.284-8.563,2.74-13.186L179.388,111.283z M189.205,108.544c-0.114-0.97-0.343-2.112-0.628-3.425
				c-10.845,2.111-12.5,2.512-13.414,3.139c-0.229-0.855-0.856-2.682-1.313-3.709c1.199-0.286,2.34-1.656,3.996-3.825
				c0.799-0.97,2.568-3.539,4.566-6.792c-5.708,0.855-6.907,1.141-7.648,1.541c-0.229-0.856-0.856-2.684-1.313-3.768
				c0.97-0.229,1.884-1.369,2.854-3.14c1.084-1.655,4.624-8.22,6.507-14.327l3.824,1.484c-2.112,5.365-4.966,10.959-7.819,15.297
				l5.765-0.57c1.312-2.34,2.683-4.908,3.767-7.42l3.596,1.77c-3.482,6.563-7.648,13.299-11.93,18.494l7.82-1.313
				c-0.343-1.712-0.856-3.425-1.371-5.022l3.026-0.742c1.256,3.652,2.569,8.504,2.968,11.301L189.205,108.544z M184.582,110.656
				c0.741,3.881,1.427,8.79,1.598,12.158l-3.196,0.741c-0.171-3.311-0.799-8.391-1.427-12.272L184.582,110.656z M189.833,109.343
				c1.255,3.025,2.683,6.85,3.253,9.361l-3.025,1.085c-0.628-2.569-1.998-6.508-3.14-9.533L189.833,109.343z M204.331,110.77
				c-2.168,4.168-5.422,8.962-8.048,12.102c-0.742-0.628-2.396-1.884-3.31-2.397c2.683-2.911,5.593-7.192,7.534-10.845
				L204.331,110.77z M211.695,105.519v20.663h-4.167v-20.663h-13.584v-3.768h30.995v3.768H211.695z M198.909,90.906h-3.824v-9.476
				h13.071c-0.685-1.94-1.599-4.339-2.455-6.222l3.938-1.027c1.142,2.227,2.341,5.137,3.025,7.249h11.987v9.476h-3.996v-5.766
				h-21.748V90.906z M199.537,95.416v-3.711h20.492v3.711H199.537z M218.602,109.514c2.568,3.482,5.65,8.334,7.078,11.245
				l-3.653,1.712c-1.427-2.967-4.395-7.934-6.849-11.587L218.602,109.514z"/>
			<path fill="#FFFFFF" d="M261.583,75.951c-0.571,0.913-1.199,1.712-1.827,2.568c6.679,7.078,14.613,11.759,23.688,15.583
				c-1.085,0.913-2.282,2.512-2.911,3.824c-3.254-1.599-6.336-3.196-9.246-5.08v3.882h-28.598v-2.912
				c-2.854,1.713-5.765,3.311-8.732,4.625c-0.742-1.143-1.884-2.74-3.083-3.711c10.788-4.281,21.233-11.815,26.999-20.605
				L261.583,75.951z M239.722,103.578h35.161v22.489h-4.395V123.1h-26.486v3.196h-4.28V103.578z M244.002,107.346v11.814h26.486
				v-11.814H244.002z M271.172,92.789c-5.023-3.082-9.589-6.678-13.87-11.244c-3.71,4.281-8.22,8.048-13.071,11.244H271.172z"/>
			<path fill="#FFFFFF" d="M305.363,75.609c-1.655,4.166-3.71,8.333-5.993,12.157v38.472h-4.053V93.932
				c-1.884,2.625-3.938,5.022-5.937,7.078c-0.456-0.914-1.655-3.141-2.397-4.11c5.651-5.423,11.131-13.87,14.385-22.489
				L305.363,75.609z M315.581,109.629c-2.683,4.794-6.45,10.33-9.646,13.984c-0.742-0.686-2.397-1.885-3.312-2.455
				c3.254-3.311,6.793-8.334,9.191-12.729L315.581,109.629z M323.801,105.633v20.777h-4.225v-20.777H303.08v-3.882h16.496v-6.792
				h-12.329V76.922h29.396v18.037h-12.843v6.792h16.153v3.882H323.801z M311.243,91.191h21.177V80.746h-21.177V91.191z
				 M330.251,108.373c3.653,4.053,7.819,9.361,9.874,12.785l-3.424,2.112c-1.941-3.481-6.108-9.075-9.704-13.128L330.251,108.373z"
				/>
			<path fill="#FFFFFF" d="M362.443,78.006c-1.599,4.623-3.539,10.274-5.365,14.841c3.881,4.681,4.795,8.79,4.795,12.272
				c0,3.082-0.629,5.537-2.112,6.678c-0.742,0.571-1.77,0.914-2.854,1.085c-1.084,0.114-2.455,0.114-3.596,0.058
				c-0.058-1.085-0.4-2.684-1.085-3.768c1.313,0.113,2.283,0.113,3.197,0.057c0.627,0,1.256-0.172,1.655-0.514
				c0.799-0.628,1.142-2.169,1.142-3.938c0-3.083-0.971-7.021-4.738-11.53c1.541-4.053,3.14-9.019,4.167-12.843h-6.793v45.835
				h-3.652V76.579h11.986l0.628-0.229L362.443,78.006z M372.718,110.428c-0.457,1.427-1.027,2.91-1.655,4.224
				c2.397,1.484,5.08,3.538,6.393,4.966l-2.226,2.854c-1.199-1.426-3.597-3.311-5.766-4.965c-2.283,3.709-5.251,6.792-8.562,9.075
				c-0.571-0.741-1.998-2.112-2.911-2.797c5.251-3.082,9.075-7.991,10.902-14.155L372.718,110.428z M369.978,87.195
				c-1.94,1.484-3.996,2.797-6.107,3.996c-0.628-0.799-1.94-2.169-2.854-2.797c6.85-3.596,13.014-9.247,16.21-14.555l4.11,1.313
				c-0.399,0.627-0.799,1.256-1.256,1.883c4.281,3.996,11.416,7.877,17.238,9.932c-0.742,1.027-1.599,2.74-1.941,3.824
				c-5.821-2.511-12.729-6.734-17.409-10.959c-2.283,2.626-4.908,5.08-7.819,7.25h16.838v3.425h-17.01V87.195z M364.041,94.616
				h12.786v13.699h-12.786V94.616z M367.295,105.232h6.108v-7.477h-6.108V105.232z M388.586,110.143
				c-0.343,1.712-0.799,3.424-1.427,4.965c3.596,2.283,7.706,5.366,9.817,7.592l-2.511,2.854c-1.941-1.998-5.48-4.909-8.848-7.249
				c-1.713,3.311-4.053,6.051-6.907,8.105c-0.57-0.742-1.94-2.112-2.854-2.797c4.623-3.025,7.648-7.877,8.904-14.042
				L388.586,110.143z M380.366,94.616h13.015v13.699h-13.015V94.616z M383.62,105.232h6.336v-7.477h-6.336V105.232z"/>
		</g>
	</g>
	<g>
		<g>
			<g>
				<path fill="#FFFFFF" d="M459.264,92.895c0-3.303-1.062-6.182-5.423-6.182c0,0-0.698,0-0.818,0v-0.65h-0.242v-0.531h-4.939v0.531
					h-0.82v0.65c-0.711,0-1.53,0-2.591,0v-3.712c0-1.169-0.819-2.229-1.88-2.229h-5.651h-7.183c-1.288,0-1.999,1.061-1.999,2.229
					v3.712c-0.94,0-1.531,0-1.531,0v-0.35h-0.577v-0.301h-5.062v0.301l0,0v0.35c-6.242,0-7.532,2.879-7.532,6.182H459.264z
					 M430.669,83.303h6.229l4.712,0.12c0,0.759,0,2.64,0,3.29c-1.531,0-3.531,0-4.712,0c-2.47,0-4.229,0-6.229,0
					C430.669,86.063,430.669,84.182,430.669,83.303z"/>
			</g>
			<g>
				<rect x="412.305" y="95.895" fill="#FFFFFF" width="46.959" height="12.881"/>
			</g>
			<g>
				<path fill="#FFFFFF" d="M412.305,111.836v1.471v0.241c0,3.29,0.819,6.472,7.411,6.881l0,0c0,1.999,1.771,3.698,3.53,3.698
					c1.771,0,3.53-1.699,3.53-3.698l0,0h10.122h9.772c0,1.999,1.29,3.229,3.41,3.229c1.651,0,3.062-1.23,3.062-3.229
					c5.53-0.53,6.121-3.591,6.121-6.881l0,0v-1.712H412.305z"/>
			</g>
		</g>
		<path fill="#FFFFFF" d="M468.791,67.067c-3.848,0-7.188,3.126-7.188,7.114c0,4.037,7.188,13.367,7.188,13.367
			s7.428-9.33,7.428-13.367C476.219,70.193,472.9,67.067,468.791,67.067z M468.936,77.258l-3.077,1.685l0.6-3.604l-2.355-2.407
			l3.39-0.575l1.443-3.078l1.562,3.078l3.606,0.575l-2.597,2.407l0.673,3.604L468.936,77.258z"/>
	</g>
	<rect x="16.477" y="0.379" fill="#FFFFFF" width="10.784" height="133.242"/>
</g>
</svg>
