<?xml version="1.0" encoding="utf-8"?>
<!-- Generator: Adobe Illustrator 16.0.0, SVG Export Plug-In . SVG Version: 6.00 Build 0)  -->
<!DOCTYPE svg PUBLIC "-//W3C//DTD SVG 1.1//EN" "http://www.w3.org/Graphics/SVG/1.1/DTD/svg11.dtd">
<svg version="1.1" id="section1" xmlns="http://www.w3.org/2000/svg" xmlns:xlink="http://www.w3.org/1999/xlink" x="0px" y="0px"
	 width="445px" height="212px" viewBox="0 0 445 212" enable-background="new 0 0 445 212" xml:space="preserve">
<g>
	<g>
		<g>
			<path fill="#FFFFFF" d="M93.913,8.565v52.097h-6.869v-2.445H50.838v2.445H44.26V8.565H93.913z M87.043,52.047V14.794h-7.218
				c1.863,0.931,3.842,2.27,4.89,3.376l-2.328,2.445h2.794v4.889H74.762c0.291,3.26,0.64,6.287,1.105,8.906
				c1.165-2.27,2.038-4.656,2.736-7.276l5.297,1.048c-1.396,5.064-3.493,9.488-6.112,13.33c0.757,1.747,1.629,2.853,2.677,3.085
				c0.641,0.232,1.106-2.038,1.339-5.414c1.047,1.047,3.143,2.619,4.308,3.26c-0.932,7.16-3.958,9.372-7.8,7.625
				c-1.747-0.583-3.201-1.921-4.366-3.842c-1.863,1.862-3.842,3.55-6.053,4.947c-0.757-1.047-2.62-3.26-3.784-4.19
				c0.64-0.35,1.28-0.757,1.862-1.165c-4.657,0.699-9.197,1.338-13.039,1.979l-0.64-5.064c4.249-0.466,10.303-1.165,16.356-1.979
				l0.117,2.91c1.048-0.873,1.979-1.863,2.911-2.91c-1.223-4.191-1.979-9.488-2.503-15.251H52.992v-4.889h15.774
				c-0.117-1.63-0.175-3.26-0.292-4.948h5.705c0.058,1.688,0.116,3.318,0.233,4.948h6.286c-1.222-1.048-2.968-2.271-4.482-3.085
				l2.736-2.735H50.838v37.253H87.043z M67.428,39.066H54.447v-11.06h12.981V39.066z M62.771,31.674h-3.9v3.725h3.9V31.674z"/>
			<path fill="#FFFFFF" d="M142.23,32.955c3.435,3.376,8.091,6.112,13.214,7.684c-1.572,1.222-3.551,3.9-4.54,5.646
				c-6.753-2.678-12.516-7.393-16.532-13.33h-14.145c-3.842,5.181-8.848,9.837-15.25,13.563c-1.049-1.572-3.435-3.842-5.181-4.715
				c4.772-2.444,8.73-5.53,11.874-8.848h-10.71v-5.646h15.134c0.641-0.989,1.223-1.921,1.747-2.91h-10.652v-5.298h13.155
				c0.349-0.931,0.64-1.804,0.873-2.735H104.22v-5.53h18.452c0.35-1.63,0.641-3.26,0.815-4.889l7.276,0.64
				c-0.233,1.397-0.524,2.794-0.873,4.25h20.839v5.53h-22.294c-0.291,0.931-0.641,1.805-0.932,2.735h20.897v5.298h-23.051
				c-0.524,0.989-0.99,1.921-1.572,2.91h29.92v5.646H142.23z M143.337,42.967c-1.339,1.571-2.91,3.143-4.308,4.482
				c3.958,1.979,7.8,3.958,10.535,5.471l-4.074,5.239c-3.609-2.27-9.255-5.355-14.669-7.858v3.9c0,2.968-0.582,4.307-2.677,5.238
				c-2.037,0.815-4.773,0.873-8.615,0.873c-0.35-1.688-1.222-3.9-2.037-5.472c2.27,0.117,4.831,0.117,5.529,0.059
				c0.815,0,1.048-0.233,1.048-0.873v-2.62c-5.879,2.329-11.933,4.657-16.764,6.52l-3.144-5.763
				c3.144-0.931,7.276-2.329,11.816-3.842c-1.222-1.513-3.376-3.318-5.122-4.657l4.54-3.551c2.096,1.339,4.715,3.493,5.996,5.064
				l-2.736,2.212c1.805-0.641,3.609-1.223,5.413-1.863V34.643h6.752v9.139c0.874,0.408,1.747,0.757,2.62,1.165
				c1.63-1.746,3.318-3.725,4.424-5.355L143.337,42.967z"/>
			<path fill="#FFFFFF" d="M188.978,6.179c-0.059,2.445-0.175,5.588-0.408,9.081c0.815,7.858,4.366,29.803,24.682,38.767
				c-2.154,1.688-4.133,4.017-5.064,5.996c-12.922-6.17-19.384-17.521-22.76-27.533c-3.201,10.245-9.313,20.781-21.421,27.882
				c-1.223-1.863-3.435-4.075-5.763-5.646c23.633-12.631,22.526-38.708,22.76-48.546H188.978z"/>
			<path fill="#FFFFFF" d="M264.188,43.2v2.386h4.715v4.599h-4.715v4.831c0,2.678-0.407,3.9-2.271,4.657
				c-1.688,0.698-4.075,0.698-7.159,0.698c-0.292-1.514-0.989-3.435-1.688-4.89c1.63,0.058,3.493,0.058,4.017,0.058
				c0.582,0,0.814-0.116,0.814-0.699v-4.656h-9.08c1.513,1.397,3.085,2.969,3.9,4.249l-4.541,3.493
				c-0.932-1.688-3.085-4.075-4.947-5.705l2.736-2.037h-4.366v-4.599h16.298V43.2h-41.27v-4.89h54.367v4.89H264.188z
				 M262.325,30.685c0.291-1.339,0.582-3.027,0.874-4.89h-45.054v-4.657h46.567l1.047-0.174l4.831,0.757
				c-0.698,3.434-1.63,7.392-2.444,9.896L262.325,30.685z M240.09,13.338h-21.653V9.031h21.653V6.12h6.985v2.911h22.293v4.307
				h-22.293v1.979h17.172v4.075h-40.805v-4.075h16.647V13.338z M239.974,57.752h-13.155v1.804h-5.938V45.063h19.093V57.752z
				 M240.148,32.955v-1.863h-13.737V27.6h33.761v3.492h-13.214v1.863h18.336v3.667h-43.307v-3.667H240.148z M226.818,49.37v4.016
				h7.043V49.37H226.818z"/>
			<path fill="#FFFFFF" d="M51.828,113.405c-1.397,4.133-3.842,8.673-5.996,11.583c-0.698-0.524-2.153-1.629-3.027-2.095
				c2.271-2.736,4.308-6.694,5.472-10.478L51.828,113.405z M58.987,109.331v20.198h-4.25v-20.198H43.154v-3.726h11.583v-6.112
				H42.863v-3.667h16.065c1.106-2.678,2.445-6.52,3.144-9.197l3.958,0.815c-1.048,2.794-2.153,5.938-3.26,8.382h7.393v3.667H58.987
				v6.112h10.536v3.726H58.987z M69.29,86.28H43.795v-3.609h11.409c-0.757-1.747-1.747-3.726-2.561-5.297l4.19-1.106
				c1.223,1.979,2.503,4.482,3.26,6.403h9.197V86.28z M49.79,95.594c-0.291-2.154-1.222-5.53-2.212-8.091l3.435-0.815
				c1.164,2.503,2.153,5.763,2.386,7.917L49.79,95.594z M64.575,112.066c1.863,2.853,3.9,6.636,4.89,9.139l-3.085,1.747
				c-0.932-2.503-3.027-6.519-4.773-9.313L64.575,112.066z M95.601,100.134h-6.403v29.337h-4.191v-29.337h-7.975v2.037
				c0,8.324-0.757,19.733-6.053,27.3c-0.699-0.815-2.387-2.154-3.318-2.62c4.889-6.985,5.354-16.938,5.354-24.681V82.147
				c6.52-1.048,13.97-2.794,18.103-4.54l3.492,3.201c-4.772,1.805-11.467,3.26-17.579,4.191v11.06h18.569V100.134z"/>
			<path fill="#FFFFFF" d="M152.999,118.703h-51.281v-3.667h8.266V88.9h13.97c0.233-1.106,0.466-2.329,0.582-3.667h-21.188v-3.725
				h21.712c0.232-1.747,0.407-3.551,0.523-5.006l4.599,0.524l-0.757,4.482h22.119v3.725h-22.76
				c-0.232,1.339-0.465,2.561-0.698,3.667h16.764v26.135h8.149V118.703z M122.266,122.312c-4.599,2.91-11.816,5.82-17.58,7.451
				c-0.698-0.874-2.036-2.212-2.968-3.027c5.821-1.572,13.097-4.424,16.764-6.869L122.266,122.312z M114.175,91.868v3.9h26.368v-3.9
				H114.175z M140.543,98.562h-26.368v3.318h26.368V98.562z M114.175,104.674v3.493h26.368v-3.493H114.175z M114.175,115.035h26.368
				v-4.074h-26.368V115.035z M135.42,119.692c6.461,2.038,13.563,4.831,17.813,6.927l-3.493,3.027
				c-3.958-2.212-10.535-5.006-16.996-7.159L135.42,119.692z"/>
			<path fill="#FFFFFF" d="M203.18,112.591c-2.852,4.074-6.984,7.276-11.874,9.721c6.112,1.746,12.922,2.794,20.257,3.318
				c-0.873,1.047-1.921,2.793-2.444,4.016c-8.558-0.815-16.532-2.444-23.4-4.89c-7.102,2.62-15.309,4.191-23.575,5.123
				c-0.406-0.99-1.454-2.794-2.27-3.609c7.276-0.64,14.378-1.805,20.723-3.667c-3.377-1.513-6.462-3.376-9.081-5.413
				c-2.619,1.572-5.297,3.027-7.975,4.191c-0.582-0.757-2.153-2.212-3.026-2.852c2.735-1.048,5.529-2.387,8.149-3.842
				c-1.572-1.456-2.91-3.027-4.133-4.715l3.492-1.456c1.048,1.456,2.387,2.853,3.783,4.133c2.619-1.747,4.948-3.667,6.752-5.763
				c-2.444-0.466-3.143-1.63-3.143-4.366v-5.588h4.074v5.53c0,1.223,0.408,1.455,2.853,1.455h8.499c1.804,0,2.153-0.465,2.386-3.899
				c0.815,0.582,2.329,1.048,3.435,1.28c-0.408,4.657-1.571,5.821-5.297,5.821h-9.372l0.99,0.349
				c-0.99,1.164-2.097,2.328-3.26,3.434h19.965l0.815-0.174L203.18,112.591z M165.287,100.134h-4.075v-10.07h10.536
				c-0.641-1.688-2.038-4.016-3.376-5.763l2.968-1.222c-2.502,0.116-4.947,0.232-7.392,0.291c-0.117-0.99-0.524-2.445-0.874-3.318
				c14.203-0.408,31.608-1.571,40.979-3.492l2.852,3.027c-5.995,1.222-14.028,2.095-22.352,2.736c1.455,1.92,2.794,4.54,3.201,6.403
				l-3.725,1.338c-0.408-1.804-1.688-4.54-3.086-6.52l3.318-1.222c-4.017,0.349-8.266,0.582-12.34,0.757
				c1.629,1.804,3.143,4.307,3.725,5.995l-2.212,0.989h21.538c1.745-2.386,4.074-5.995,5.354-8.499l4.074,1.514
				c-1.571,2.386-3.376,4.947-5.064,6.984h10.537v10.478h-4.25v-6.985h-22.061c2.735,1.281,5.762,2.969,7.45,4.366l-2.271,2.561
				c-1.862-1.572-5.529-3.784-8.614-5.122l1.688-1.805h-16.53V100.134z M163.249,105.373c3.144-1.863,5.239-5.297,6.286-8.615
				l3.377,1.397c-1.223,3.609-3.144,7.393-6.636,9.604L163.249,105.373z M174.716,114.977c3.26,2.27,7.044,4.133,11.409,5.704
				c4.075-1.688,7.684-3.841,10.303-6.461h-20.663L174.716,114.977z M199.338,96.292c3.377,2.561,7.335,6.287,9.081,8.964
				l-3.085,2.329c-1.746-2.562-5.588-6.52-8.964-9.197L199.338,96.292z"/>
			<path fill="#FFFFFF" d="M269.252,103.335h-14.785v20.489c0,2.794-0.756,4.133-2.793,4.773c-2.037,0.699-5.53,0.757-11.06,0.757
				c-0.175-1.223-0.874-3.143-1.515-4.308c4.191,0.175,8.267,0.117,9.489,0.059c1.048,0,1.454-0.291,1.454-1.339v-20.431h-31.781
				v-4.25h31.781v-8.149h4.424v8.149h14.785V103.335z M223.967,95.128h-4.308V83.603h23.108c-0.757-1.979-1.862-4.307-2.969-6.17
				l4.133-1.048c1.455,2.212,2.91,5.123,3.608,7.218h20.141v11.525h-4.481v-7.393h-39.232V95.128z M228.681,106.304
				c3.784,3.609,7.917,8.615,9.663,12.05l-3.608,2.444c-1.688-3.435-5.705-8.615-9.372-12.34L228.681,106.304z"/>
			<path fill="#FFFFFF" d="M295.859,90.005h-20.432v-3.55h20.432V90.005z M294.055,126.211h-12.573v2.736h-3.725v-19.558h16.298
				V126.211z M293.88,97.515h-16.065V94.08h16.065V97.515z M277.814,101.647h16.065v3.434h-16.065V101.647z M281.481,112.998v9.604
				h8.789v-9.604H281.481z M286.08,85.814c-0.757-2.096-2.62-5.355-4.19-7.742l3.259-1.747c1.688,2.387,3.551,5.472,4.425,7.509
				L286.08,85.814z M300.167,97.456c-0.99,1.281-1.979,2.562-3.085,3.551c-0.466-0.698-1.631-2.387-2.388-3.143
				c3.202-2.969,6.055-7.509,7.567-12.166l3.376,0.931v-3.027h-9.43v-3.435h9.43v-3.55h3.9v10.187h-3.783
				c-0.466,1.28-0.99,2.619-1.571,3.9h7.566c-0.407-1.223-0.814-2.678-1.28-3.783l3.725-1.048c0.699,1.513,1.397,3.376,1.863,4.832
				h10.827v2.91h-11.351v2.911h9.837v2.561h-9.837v2.91h9.837v2.562h-9.837v3.085h12.631v2.853h-24.331v1.164h-3.667V97.456z
				 M325.546,114.104c-2.097,3.667-5.298,6.635-9.081,9.022c3.842,1.455,8.324,2.62,12.806,3.202
				c-0.932,0.874-1.979,2.445-2.444,3.435c-5.181-0.874-10.07-2.445-14.437-4.541c-4.772,2.212-10.244,3.726-15.716,4.599
				c-0.349-0.99-1.164-2.619-1.862-3.493c4.715-0.582,9.488-1.688,13.736-3.318c-2.735-1.805-5.063-3.842-6.868-6.228l1.805-0.641
				h-6.519v-3.201h25.32l0.698-0.175L325.546,114.104z M311.809,93.614h-7.975v2.911h7.975V93.614z M311.809,99.086h-7.975v2.91
				h7.975V99.086z M311.809,104.558h-7.975v3.085h7.975V104.558z M305.638,116.141c1.805,1.921,4.133,3.667,6.811,5.123
				c2.795-1.397,5.239-3.144,7.102-5.123H305.638z M319.376,86.804h-3.959V76.618h3.959v3.55h8.789v3.435h-8.789V86.804z"/>
			<path fill="#FFFFFF" d="M353.898,80.634c-1.805,4.89-4.133,11.001-6.17,15.717c4.481,4.947,5.529,9.197,5.529,12.864
				c0,3.143-0.698,5.705-2.386,6.811c-0.874,0.64-1.979,0.989-3.144,1.164c-1.281,0.116-2.911,0.116-4.249,0.058
				c-0.059-1.164-0.408-2.794-1.106-3.958c1.455,0.116,2.619,0.116,3.667,0.116c0.757-0.058,1.455-0.233,1.979-0.582
				c0.932-0.64,1.223-2.27,1.223-4.016c0-3.26-1.105-7.276-5.529-11.933c1.746-4.307,3.667-9.837,4.947-13.912h-8.556v46.8h-4.075
				v-50.7h14.319l0.641-0.175L353.898,80.634z M366.239,90.413c-0.059,3.027-0.233,5.938-0.466,8.79h17.055v1.979
				c-0.699,17.928-1.281,24.39-3.085,26.427c-1.048,1.397-2.153,1.805-3.958,1.979c-1.688,0.233-4.832,0.117-7.917,0
				c-0.116-1.339-0.523-3.085-1.28-4.307c3.144,0.291,6.17,0.349,7.334,0.349c1.048,0,1.571-0.117,2.154-0.757
				c1.223-1.281,1.862-6.869,2.444-21.712h-13.097c-1.339,11.292-4.89,20.781-14.901,26.427c-0.582-0.99-1.922-2.445-2.91-3.202
				c12.863-6.927,14.028-20.489,14.377-35.973h-9.197v-4.075h33.47v4.075H366.239z M369.964,76.676
				c0.989,2.678,2.328,6.287,2.853,8.382l-4.133,1.28c-0.524-2.212-1.63-5.937-2.678-8.731L369.964,76.676z"/>
			<path fill="#FFFFFF" d="M445,82.206v3.725h-40.804v14.785c0,8.906-1.165,21.188-8.324,29.104
				c-0.524-0.815-2.153-2.27-2.969-2.794c4.424-5.006,6.17-11.467,6.868-17.637c-2.386,1.513-4.773,2.91-6.984,4.191l-1.514-3.842
				c2.328-1.106,5.472-2.736,8.789-4.54c0.117-1.572,0.117-3.027,0.117-4.482v-18.51h21.536c-0.756-1.572-1.804-3.376-2.793-4.773
				l3.783-1.281c1.397,1.804,2.852,4.191,3.609,6.054H445z M395.813,99.843c-0.407-2.969-1.921-7.742-3.667-11.351l3.26-1.281
				c1.862,3.551,3.434,8.208,3.842,11.06L395.813,99.843z M406.757,102.055h16.124v11.176h-16.124V102.055z M438.364,116.258h4.074
				v13.446h-4.074v-2.038h-31.025v-11.409h4.017v7.8h11.351v-9.954h4.133v9.954h11.525V116.258z M410.074,110.204h9.372v-5.181
				h-9.372V110.204z M437.142,99.203h-24.331V88.667h24.331V99.203z M433.3,91.693h-16.764v4.482H433.3V91.693z M426.723,102.055
				h16.822v11.176h-16.822V102.055z M430.04,110.204h9.954v-5.181h-9.954V110.204z"/>
			<path fill="#FFFFFF" d="M71.27,193.623c2.91,0.583,6.111,0.757,9.546,0.757c2.095,0,12.049,0,14.843-0.116
				c-0.699,1.106-1.397,3.085-1.629,4.365H80.583c-12.108,0-20.78-2.095-26.078-11.99c-1.979,5.413-4.832,9.837-8.673,13.154
				c-0.698-0.814-2.444-2.328-3.492-2.968c6.461-4.948,9.604-13.213,10.885-23.691l4.308,0.466
				c-0.349,2.678-0.814,5.181-1.338,7.509c2.212,6.17,5.937,9.546,10.652,11.351v-24.04H52.41v-4.133h33.703v4.133H71.27v9.488
				h17.229v4.075H71.27V193.623z M49.208,165.625h-4.25v-12.631h22.585c-0.698-1.804-1.747-4.016-2.678-5.705l4.191-1.223
				c1.281,2.154,2.736,5.006,3.434,6.927h20.723v12.631h-4.366v-8.499h-39.64V165.625z"/>
			<path fill="#FFFFFF" d="M129.076,185.532H100.67v-3.9h5.646V158h-4.89v-3.9h4.89v-7.043h3.958v7.043h10.535v-7.043h4.017v7.043
				h4.25v3.9h-4.25v23.633h4.25V185.532z M112.835,187.86c-2.095,4.482-5.413,8.906-8.615,11.759
				c-0.813-0.699-2.444-1.921-3.492-2.503c3.201-2.62,6.229-6.52,7.975-10.361L112.835,187.86z M110.274,158v5.123h10.535V158
				H110.274z M110.274,172.319h10.535v-5.705h-10.535V172.319z M110.274,181.632h10.535v-5.821h-10.535V181.632z M120.345,186.755
				c2.327,2.619,5.006,6.228,6.111,8.615l-3.492,2.037c-1.048-2.328-3.668-6.112-5.996-8.847L120.345,186.755z M152.068,194.031
				c0,2.561-0.641,3.842-2.212,4.54c-1.688,0.699-4.366,0.815-8.674,0.815c-0.174-1.222-0.756-3.085-1.338-4.191
				c3.084,0.058,5.995,0.058,6.81,0c0.874,0,1.223-0.291,1.223-1.222v-13.97h-12.282c-0.582,6.927-2.037,14.319-5.53,19.907
				c-0.697-0.815-2.444-2.153-3.434-2.561c4.831-7.684,5.297-18.685,5.297-27.009v-21.013h20.141V194.031z M147.877,176.103v-9.663
				h-11.874v3.9c0,1.804-0.059,3.783-0.117,5.763H147.877z M136.003,153.285v9.255h11.874v-9.255H136.003z"/>
			<path fill="#FFFFFF" d="M176.695,147.813c-1.688,4.25-3.783,8.499-6.112,12.398v39.233h-4.133v-32.946
				c-1.92,2.678-4.016,5.123-6.053,7.218c-0.466-0.931-1.688-3.201-2.445-4.191c5.763-5.53,11.352-14.145,14.669-22.934
				L176.695,147.813z M187.115,182.505c-2.736,4.89-6.578,10.536-9.838,14.261c-0.756-0.699-2.444-1.921-3.376-2.503
				c3.317-3.376,6.927-8.499,9.372-12.981L187.115,182.505z M195.497,178.431v21.188h-4.308v-21.188h-16.822v-3.958h16.822v-6.927
				h-12.573v-18.394h29.978v18.394h-13.097v6.927h16.473v3.958H195.497z M182.691,163.704h21.595v-10.652h-21.595V163.704z
				 M202.074,181.225c3.726,4.133,7.976,9.546,10.07,13.039l-3.492,2.153c-1.979-3.551-6.229-9.255-9.896-13.388L202.074,181.225z"
				/>
			<path fill="#FFFFFF" d="M234.909,150.258c-1.63,4.715-3.608,10.478-5.472,15.134c3.958,4.773,4.89,8.964,4.89,12.515
				c0,3.144-0.641,5.646-2.154,6.811c-0.756,0.582-1.804,0.931-2.91,1.105c-1.105,0.116-2.502,0.116-3.667,0.058
				c-0.058-1.105-0.407-2.736-1.106-3.841c1.34,0.116,2.329,0.116,3.26,0.058c0.641,0,1.281-0.174,1.688-0.523
				c0.815-0.64,1.165-2.212,1.165-4.017c0-3.143-0.99-7.16-4.832-11.758c1.572-4.133,3.201-9.197,4.249-13.097h-6.927v46.742h-3.725
				v-50.642h12.223l0.641-0.233L234.909,150.258z M245.387,183.32c-0.466,1.456-1.048,2.969-1.688,4.308
				c2.445,1.513,5.182,3.609,6.52,5.064l-2.27,2.911c-1.223-1.455-3.667-3.376-5.879-5.064c-2.329,3.784-5.355,6.927-8.731,9.255
				c-0.582-0.756-2.037-2.153-2.969-2.852c5.354-3.144,9.255-8.149,11.118-14.436L245.387,183.32z M242.593,159.629
				c-1.979,1.513-4.074,2.853-6.229,4.075c-0.641-0.815-1.979-2.212-2.91-2.853c6.985-3.667,13.271-9.43,16.531-14.843l4.19,1.339
				c-0.406,0.64-0.814,1.28-1.28,1.921c4.366,4.074,11.643,8.032,17.579,10.128c-0.757,1.048-1.63,2.794-1.979,3.9
				c-5.938-2.561-12.98-6.869-17.754-11.176c-2.328,2.678-5.006,5.18-7.975,7.392h17.172v3.493h-17.347V159.629z M236.539,167.196
				h13.039v13.97h-13.039V167.196z M239.856,178.023h6.229v-7.625h-6.229V178.023z M261.568,183.029
				c-0.349,1.747-0.814,3.493-1.454,5.064c3.667,2.328,7.857,5.471,10.012,7.742l-2.562,2.91c-1.979-2.038-5.588-5.006-9.022-7.393
				c-1.746,3.376-4.133,6.17-7.043,8.266c-0.582-0.757-1.979-2.154-2.91-2.853c4.715-3.085,7.8-8.033,9.08-14.319L261.568,183.029z
				 M253.188,167.196h13.271v13.97h-13.271V167.196z M256.505,178.023h6.461v-7.625h-6.461V178.023z"/>
		</g>
		<g>
			<rect y="0.214" fill="#FFFFFF" width="8.559" height="211.572"/>
		</g>
	</g>
	<g>
		<path fill="#FFFFFF" d="M321.696,162.714c-5.32-4.895-10.828-3.694-14.227-2.091c1.103-4.303,5.172-9.831,5.172-9.831
			l-3.317-1.608c-1.315,1.015-2.573,3.152-3.634,5.431c-0.45-1.568-2.253-3.984-8.604-5.932v0.501c0,0,1.364,8.704,7.027,9.232
			c-0.529,1.421-0.936,2.662-1.177,3.425c-0.502-0.333-1.146-0.722-1.911-1.098c-3.375-1.66-9.024-3.046-14.478,1.971
			c-8.546,7.861,2.925,30.186,9.684,31.558c7.292,1.481,7.89-1.824,7.89-1.824s0.598,3.305,7.89,1.824
			C318.771,192.899,330.241,170.575,321.696,162.714z M300.728,170.976l-6.304,7.477l-6.303-7.477
			c-2.497-3.791,0.57-5.711,0.57-5.711c3.063-1.392,5.732,1.474,5.732,1.474s2.672-2.866,5.734-1.474
			C300.158,165.265,303.225,167.185,300.728,170.976z"/>
	</g>
</g>
</svg>
