<?xml version="1.0" encoding="utf-8"?>
<!-- Generator: Adobe Illustrator 16.0.0, SVG Export Plug-In . SVG Version: 6.00 Build 0)  -->
<!DOCTYPE svg PUBLIC "-//W3C//DTD SVG 1.1//EN" "http://www.w3.org/Graphics/SVG/1.1/DTD/svg11.dtd">
<svg version="1.1" id="section1" xmlns="http://www.w3.org/2000/svg" xmlns:xlink="http://www.w3.org/1999/xlink" x="0px" y="0px"
	 width="495px" height="134px" viewBox="0 0 495 134" enable-background="new 0 0 495 134" xml:space="preserve">
<g>
	<g>
		<path fill="#FFFFFF" d="M95.552,114.766c-0.113,4.453-0.399,7.764-1.198,7.764c-2.854,0-3.196-10.846-3.253-24.941H62.275v3.824
			h24.772c0.229,15.066,0.971,25.059,6.963,25.113c3.14-0.058,3.882-2.566,4.225-9.305C97.378,116.648,96.294,115.68,95.552,114.766
			z"/>
		<path fill="#FFFFFF" d="M60.962,81.375c-2.111-1.827-6.393-4.338-9.646-5.936l-2.397,3.082c3.254,1.711,7.479,4.395,9.533,6.276
			L60.962,81.375z"/>
		<path fill="#FFFFFF" d="M47.265,122.414l3.71,2.797c2.968-5.081,6.393-11.814,9.019-17.466l-3.197-2.74
			C53.829,111.113,49.947,118.248,47.265,122.414z"/>
		<rect x="67.47" y="89.252" fill="#FFFFFF" width="25.285" height="3.596"/>
		<path fill="#FFFFFF" d="M62.962,93.361c2.226-2.34,4.395-5.309,6.277-8.619h28.482v-3.768H71.237c0.799-1.826,1.6-3.77,2.282-5.65
			l-3.995-1.027c-2.111,6.335-5.766,12.443-9.988,16.438C60.505,91.307,62.218,92.62,62.962,93.361z"/>
		<path fill="#FFFFFF" d="M57.767,96.158c-2.227-1.598-6.678-3.881-9.989-5.252l-2.226,3.14c3.311,1.599,7.705,3.996,9.875,5.595
			L57.767,96.158z"/>
		<path fill="#FFFFFF" d="M125.292,75.152c-1.427,4.281-3.994,8.677-4.795,9.818c-0.742,1.196-1.427,1.938-2.111,2.109
			c0.343,0.799,0.856,2.454,0.971,3.141c0.57-0.285,1.656-0.57,6.107-1.199c-1.599,2.455-3.082,4.453-3.652,5.138
			c-1.143,1.427-2.112,2.397-2.911,2.567c0.399,0.854,0.854,2.512,0.97,3.195c0.799-0.457,2.112-0.688,10.274-1.939
			c0.229,0.914,0.456,1.713,0.628,2.396l2.797-0.97c-0.456-2.112-1.712-5.708-2.911-8.448l-2.683,0.742
			c0.457,1.144,0.914,2.34,1.313,3.596l-5.535,0.742c3.023-3.539,6.049-8.048,8.562-12.612l-3.082-1.199
			c-0.571,1.313-1.256,2.567-1.94,3.826l-4.51,0.453c2.057-2.854,4.109-6.619,5.708-10.328L125.292,75.152z"/>
		<path fill="#FFFFFF" d="M144.699,75.039c-1.143,3.824-3.481,7.99-4.11,8.961c-0.685,1.084-1.313,1.827-1.998,1.883
			c0.4,0.914,0.914,2.455,1.086,3.197c0.57-0.286,1.541-0.571,5.765-1.143c-1.483,2.455-2.797,4.338-3.424,5.08
			c-1.085,1.371-1.94,2.34-2.854,2.512c0.399,0.854,0.914,2.625,1.143,3.311c0.686-0.398,2.055-0.686,10.33-1.998
			c0.344,0.971,0.57,1.885,0.742,2.569l2.74-0.972c-0.57-2.111-1.941-5.767-3.197-8.446l-2.567,0.741
			c0.457,1.084,0.913,2.283,1.37,3.426l-5.708,0.799c2.911-3.598,5.879-8.105,8.333-12.786l-3.253-1.198
			c-0.57,1.313-1.257,2.685-1.998,3.938l-4.166,0.457c1.771-2.625,3.538-5.993,4.966-9.361L144.699,75.039z"/>
		<path fill="#FFFFFF" d="M152.29,116.021c-0.455,4.106-1.197,6.276-2.396,6.164c-2.283-0.229-4.28-1.6-5.936-4.109
			c2.91-2.684,5.25-5.708,7.021-9.133l-3.653-1.313c-1.197,2.567-2.968,5.022-5.08,7.19c-0.971-2.168-1.713-4.795-2.453-7.818
			h13.756v-3.425h-4.737l1.483-1.541c-1.313-1.199-3.938-2.97-5.937-4.108l-2.169,1.996c1.654,1.027,3.71,2.454,5.079,3.653h-8.161
			c-1.428-7.82-2.227-17.751-2.512-28.884h-3.653c0.343,10.902,1.085,20.777,2.454,28.884h-16.667v3.425h4.339v0.801
			c0,4.793-1.428,11.188-8.105,16.096c0.799,0.457,2.228,1.771,2.797,2.566c5.022-3.822,7.42-8.732,8.392-13.299
			c2.226,1.883,4.451,3.995,5.765,5.365l2.625-2.568c-1.711-1.77-5.137-4.68-7.875-6.792c0.057-0.456,0.057-0.913,0.057-1.313
			v-0.854h9.305c0.913,3.995,1.997,7.534,3.311,10.442c-3.025,2.398-6.679,4.396-10.617,5.938c0.8,0.687,1.826,1.94,2.283,2.685
			c3.652-1.483,7.021-3.367,9.989-5.537c2.341,3.539,5.308,5.595,9.019,5.822c2.283,0.17,4.053-1.939,5.137-8.162
			C154.402,117.791,152.976,116.82,152.29,116.021z"/>
		<path fill="#FFFFFF" d="M118.101,101.581c-0.742-1.37-3.824-6.679-5.08-8.677v-3.709h4.509v-3.996h-4.509V74.24h-3.71v10.959
			h-6.052v3.996h5.709c-1.37,7.477-4.11,16.209-6.85,20.832c0.514,1.027,1.483,2.912,1.825,4.109
			c1.998-3.48,3.938-9.074,5.366-14.955v27.17h3.71V98.1c1.198,2.396,2.454,5.08,3.024,6.621L118.101,101.581z"/>
		<path fill="#FFFFFF" d="M187.909,109.572h17.579v-22.09h-17.579v-4.168h21.632v-3.881h-21.632v-5.139h-4.281v5.139h-21.347v3.881
			h21.347v4.168h-17.123v22.088h17.123v4.681h-23.06v3.824h23.06v8.448h4.281v-8.448h23.573v-3.824h-23.573V109.572z
			 M187.909,91.021h13.355v5.818h-13.355V91.021z M187.909,100.211h13.355v5.879h-13.355V100.211z M183.628,106.09h-13.07v-5.879
			h13.07V106.09L183.628,106.09z M183.628,96.844h-13.07v-5.822h13.07V96.844L183.628,96.844z"/>
		<path fill="#FFFFFF" d="M235.913,108.316h12.786V94.617h-12.786V108.316z M239.167,97.756h6.107v7.477h-6.107V97.756z"/>
		<path fill="#FFFFFF" d="M260.457,110.143l-3.823-0.57c-1.257,6.164-4.28,11.018-8.904,14.041c0.913,0.688,2.284,2.058,2.854,2.799
			c2.854-2.057,5.195-4.794,6.907-8.104c3.368,2.34,6.905,5.252,8.848,7.25l2.513-2.854c-2.11-2.226-6.223-5.308-9.816-7.591
			C259.658,113.566,260.114,111.855,260.457,110.143z"/>
		<path fill="#FFFFFF" d="M252.238,108.316h13.015V94.617h-13.015V108.316L252.238,108.316z M255.491,97.756h6.336v7.477h-6.336
			V97.756z"/>
		<path fill="#FFFFFF" d="M249.84,79.834c4.682,4.225,11.587,8.447,17.408,10.959c0.344-1.084,1.199-2.797,1.941-3.824
			c-5.822-2.055-12.957-5.937-17.237-9.932c0.456-0.628,0.854-1.256,1.255-1.885l-4.107-1.313
			c-3.197,5.31-9.362,10.959-16.209,14.556c0.912,0.629,2.226,1.998,2.854,2.797c2.111-1.196,4.166-2.51,6.107-3.996v3.313h17.008
			v-3.425h-16.836C244.932,84.914,247.558,82.459,249.84,79.834z"/>
		<path fill="#FFFFFF" d="M242.934,114.65c0.628-1.313,1.199-2.795,1.655-4.223l-3.824-0.802
			c-1.826,6.165-5.65,11.073-10.901,14.153c0.913,0.687,2.34,2.057,2.91,2.799c3.312-2.283,6.279-5.365,8.563-9.076
			c2.169,1.656,4.565,3.539,5.765,4.969l2.227-2.854C248.014,118.189,245.331,116.137,242.934,114.65z"/>
		<path fill="#FFFFFF" d="M233.744,105.12c0-3.481-0.913-7.591-4.795-12.272c1.827-4.566,3.769-10.217,5.366-14.84l-2.626-1.654
			l-0.627,0.229h-11.987v49.659h3.653V80.404h6.792c-1.027,3.824-2.626,8.791-4.166,12.843c3.767,4.509,4.737,8.448,4.737,11.53
			c0,1.769-0.344,3.31-1.144,3.938c-0.398,0.342-1.027,0.514-1.654,0.514c-0.912,0.06-1.884,0.06-3.196-0.058
			c0.686,1.085,1.026,2.683,1.085,3.769c1.142,0.059,2.512,0.059,3.596-0.058c1.085-0.171,2.112-0.514,2.854-1.084
			C233.117,110.656,233.744,108.202,233.744,105.12z"/>
	</g>
	<rect y="0.379" fill="#FFFFFF" width="10.784" height="133.243"/>
	<g>
		<path fill="#FFFFFF" d="M391.917,129.75c0.771-0.773,1.252-1.84,1.252-3.016v-7.715c3.407-1.845,5.206-3.67,5.206-7.898V98.633
			c0-2.458-0.95-4.708-2.504-6.396c-1.146-1.248-2.624-2.188-4.287-2.684l0.006-0.036h-0.254l-4.509-21.776
			c-0.121-0.586-0.521-1.084-1.159-1.084h-56.654c-0.64,0-1.013,0.504-1.158,1.084l-5.539,21.776
			c-1.611,0.144-3.608,1.554-4.684,2.718c-1.553,1.689-2.505,3.938-2.505,6.397v12.487c0,1.974,0.617,3.815,1.669,5.346
			c0.854,1.241,2.19,1.836,3.526,2.557l-0.048,7.586c0,1.174,0.479,2.242,1.254,3.015c0.771,0.772,1.838,1.252,3.014,1.252
			l7.923-0.048c1.177,0,2.242-0.479,3.015-1.252c0.773-0.771,1.254-1.838,1.254-3.014l0.048-6.139h40.794v6.313
			c0,1.174,0.479,2.24,1.251,3.015c0.771,0.772,1.84,1.251,3.017,1.251h7.063C390.077,131.001,391.145,130.521,391.917,129.75z
			 M330.826,70.125h52.953l3.953,19.099h-3.266c-0.203-2.776-1.416-5.272-3.27-7.125c-2.04-2.041-4.857-3.302-7.971-3.302
			s-5.93,1.261-7.969,3.302c-1.854,1.853-3.066,4.351-3.271,7.125h-36.021L330.826,70.125z M380.986,89.224h-15.512
			c0.193-1.817,1.016-3.448,2.236-4.674c1.412-1.412,3.362-2.285,5.52-2.285c2.152,0,4.104,0.873,5.517,2.285
			C379.975,85.775,380.792,87.406,380.986,89.224z M337.604,108.518c-0.939,0.944-2.242,1.532-3.674,1.532h-6.938
			c-1.434,0-2.734-0.587-3.678-1.532c-0.941-0.945-1.526-2.251-1.526-3.689c0-1.438,0.585-2.742,1.526-3.688
			c0.94-0.945,2.244-1.533,3.678-1.533h6.938c1.432,0,2.731,0.588,3.674,1.533c0.943,0.946,1.527,2.25,1.527,3.688
			C339.131,106.267,338.546,107.572,337.604,108.518z M372.359,110.015h-31.217v-3.473h31.217V110.015z M372.359,103.082h-31.217
			v-3.473h31.217V103.082z M379.298,110.05c-1.433,0-2.733-0.587-3.677-1.532c-0.939-0.945-1.525-2.251-1.525-3.689
			c0-1.438,0.586-2.742,1.525-3.688c0.943-0.945,2.244-1.533,3.677-1.533h6.938c1.432,0,2.73,0.588,3.677,1.533
			c0.942,0.945,1.526,2.25,1.526,3.688c0,1.438-0.584,2.744-1.526,3.689c-0.942,0.944-2.245,1.532-3.677,1.532H379.298z"/>
		<path fill="#FFFFFF" d="M467.215,105.662l1.43,4.289c-2.98,1.837-4.984,5.103-4.984,8.859c0,5.76,4.672,10.43,10.43,10.43
			c5.76,0,10.432-4.67,10.432-10.43c0-5.648-4.498-10.222-10.104-10.397l-1.463-4.39c0.38-0.029,0.747-0.113,1.137-0.113h7.451
			v-5.961h-7.451c-1.049,0-2.071,0.103-3.079,0.254l-7.538-22.605H450.4v5.96h8.778l6.117,18.353
			c-5.359,2.5-9.481,7.191-11.195,12.94h-2.052c-4.646-4.651-7.542-10.384-8.688-16.391h5.394v-5.959h-26.822
			c-4.938,0-8.938,4.004-8.938,8.94v19.369h7.45c0,5.76,4.673,10.43,10.432,10.43s10.431-4.67,10.431-10.43h17.884
			C459.188,113.078,462.463,108.152,467.215,105.662z"/>
	</g>
	<g>
		<path fill="#FFFFFF" d="M68.208,27.157H55.13v11.142h13.078V27.157z M63.517,34.605h-3.929v-3.753h3.929V34.605z"/>
		<path fill="#FFFFFF" d="M51.494,57.592h36.477v2.465h6.92V7.57H44.868v52.487h6.626V57.592z M51.494,13.845h28.325l-2.756,2.756
			c1.525,0.821,3.285,2.052,4.516,3.108h-6.333c-0.117-1.642-0.176-3.284-0.234-4.984h-5.748c0.118,1.701,0.176,3.343,0.293,4.984
			H53.664v4.926h16.303c0.528,5.806,1.291,11.143,2.521,15.365c-0.938,1.055-1.876,2.052-2.932,2.932L69.439,40
			c-6.099,0.82-12.198,1.523-16.479,1.994l0.646,5.102c3.87-0.645,8.444-1.289,13.136-1.994c-0.586,0.411-1.232,0.822-1.876,1.174
			c1.173,0.938,3.049,3.167,3.811,4.221c2.229-1.406,4.223-3.108,6.099-4.985c1.173,1.936,2.639,3.286,4.399,3.872
			c3.871,1.76,6.919-0.469,7.858-7.684c-1.173-0.646-3.284-2.229-4.34-3.283c-0.234,3.4-0.704,5.688-1.349,5.454
			c-1.056-0.235-1.935-1.349-2.698-3.108c2.639-3.871,4.75-8.328,6.158-13.43l-5.336-1.055c-0.704,2.639-1.583,5.043-2.756,7.331
			c-0.469-2.639-0.821-5.688-1.115-8.973h10.498V19.71H83.28l2.346-2.463c-1.056-1.114-3.05-2.463-4.926-3.401h7.272v37.533H51.494
			V13.845z"/>
		<path fill="#FFFFFF" d="M155.119,32.142v-5.688h-30.143c0.587-0.997,1.055-1.935,1.583-2.932h23.224v-5.336h-21.054
			c0.294-0.938,0.645-1.818,0.938-2.756h22.462V9.858h-20.996c0.353-1.465,0.646-2.873,0.88-4.28l-7.329-0.645
			c-0.177,1.642-0.471,3.284-0.822,4.925h-18.59v5.572h17.125c-0.236,0.938-0.529,1.818-0.88,2.756h-13.255v5.336h10.732
			c-0.527,0.997-1.114,1.935-1.76,2.932h-15.247v5.688h10.791c-3.167,3.342-7.154,6.451-11.964,8.915
			c1.76,0.879,4.164,3.166,5.22,4.75c6.45-3.754,11.494-8.445,15.364-13.665h14.251c4.047,5.982,9.852,10.732,16.655,13.43
			c0.996-1.76,2.991-4.457,4.573-5.689c-5.16-1.583-9.853-4.339-13.312-7.741H155.119z"/>
		<path fill="#FFFFFF" d="M108.379,57.299c4.867-1.875,10.966-4.221,16.89-6.566v2.639c0,0.646-0.235,0.879-1.057,0.879
			c-0.702,0.059-3.283,0.059-5.569-0.059c0.82,1.584,1.7,3.813,2.051,5.514c3.871,0,6.627-0.059,8.68-0.881
			c2.111-0.938,2.698-2.287,2.698-5.277V49.62c5.453,2.521,11.142,5.629,14.778,7.916l4.105-5.277
			c-2.757-1.523-6.627-3.518-10.616-5.512c1.408-1.35,2.992-2.934,4.34-4.516l-5.513-3.401c-1.113,1.642-2.814,3.636-4.456,5.396
			c-0.88-0.412-1.76-0.763-2.639-1.174v-9.207h-6.803V44.81c-1.818,0.646-3.637,1.232-5.455,1.877l2.758-2.229
			c-1.291-1.583-3.929-3.753-6.041-5.102l-4.574,3.576c1.76,1.35,3.93,3.168,5.16,4.692c-4.573,1.525-8.737,2.933-11.904,3.871
			L108.379,57.299z"/>
		<path fill="#FFFFFF" d="M196.168,49.442h12.785v-5.336h-12.785v-3.049h14.485v-5.455h-14.485v-3.577h-6.86v3.577h-6.804
			c0.353-0.82,0.646-1.582,0.938-2.346l-5.923-1.759c-1.466,4.046-3.871,7.799-6.686,10.555c0.233-2.228,0.293-4.28,0.293-6.157
			v-4.926H213.7v-5.571h-8.619l3.283-2.698c-2.64-0.879-5.806-1.818-9.266-2.756c2.639-0.938,5.102-1.935,7.213-2.932l-2.814-1.76
			h8.504V9.798H191.71c-0.998-1.759-2.582-3.812-3.931-5.336l-4.69,2.287c0.703,0.879,1.525,1.936,2.229,3.049H164.91v5.454h10.086
			l-3.283,2.522c3.461,0.645,7.272,1.465,10.967,2.404c-4.516,1.056-9.146,1.876-13.371,2.521c0.82,0.646,1.994,1.701,2.934,2.698
			h-7.918v10.438c0,6.041-0.469,14.369-5.22,20.232c1.466,0.762,4.34,3.227,5.396,4.516c3.869-4.75,5.571-11.494,6.274-17.592
			c0.997,1.643,2.347,4.574,2.757,5.805c1.114-1.055,2.287-2.229,3.342-3.578v4.224h12.434v3.4h-17.77v5.631h43.104v-5.631h-18.473
			L196.168,49.442L196.168,49.442z M180.161,15.252h19.116c-2.169,0.939-4.866,1.877-7.682,2.64
			C187.724,16.953,183.855,16.073,180.161,15.252z M191.184,22.406c3.695,0.998,7.213,1.995,10.087,2.991h-22.694
			C182.681,24.518,186.961,23.521,191.184,22.406z M189.308,44.105h-11.554c0.703-0.998,1.35-1.994,1.994-3.051h9.56V44.105
			L189.308,44.105z"/>
		<path fill="#FFFFFF" d="M232.177,55.659c1.349,0.938,3.577,3.225,4.516,4.398c3.284-2.229,6.098-5.16,8.385-8.738
			c1.818,1.35,3.637,2.873,4.633,4.047l3.521-4.633c-1.232-1.232-3.521-2.874-5.572-4.223c0.469-1.115,0.939-2.287,1.289-3.461
			l-6.098-1.29C241.09,47.682,237.338,52.608,232.177,55.659z"/>
		<path fill="#FFFFFF" d="M252.408,26.395h-14.132v14.72h14.132V26.395z M247.191,36.482h-3.932v-5.396h3.932V36.482z"/>
		<path fill="#FFFFFF" d="M257.98,6.69l-6.688-2.345c-3.28,5.336-9.44,10.79-16.126,14.25c0.821-3.049,1.701-6.157,2.465-8.914
			l-4.34-2.522l-0.938,0.234h-11.905v52.311h5.807V13.61h4.281c-0.82,3.871-1.877,8.679-2.814,12.198
			c2.814,4.046,3.283,7.917,3.283,10.614c0,1.76-0.234,3.049-0.879,3.578c-0.353,0.352-0.879,0.469-1.351,0.469
			c-0.644,0.059-1.289,0.059-2.169-0.058c0.88,1.759,1.35,4.339,1.407,6.04c1.173,0,2.463,0,3.401-0.176
			c1.23-0.176,2.287-0.586,3.106-1.291c1.702-1.35,2.347-3.871,2.347-7.74c0-3.344-0.587-7.565-3.576-12.082
			c0.586-1.817,1.113-3.928,1.76-6.098c1.406,1.231,3.4,3.342,4.279,4.574c1.994-1.056,3.988-2.287,5.808-3.577v3.401h17.238V19.65
			c2.756,1.642,5.572,3.167,8.328,4.339c0.469-1.876,1.644-4.868,2.642-6.627c-5.748-1.877-12.142-5.337-16.479-8.855
			C257.277,7.922,257.627,7.276,257.98,6.69z M260.15,18.243H247.6c1.994-1.642,3.871-3.401,5.63-5.277
			C255.281,14.783,257.627,16.601,260.15,18.243z"/>
		<path fill="#FFFFFF" d="M265.311,42.581l-6.273-0.88c-1.113,5.98-3.93,10.909-8.502,13.899c1.348,0.879,3.576,3.225,4.457,4.398
			c2.578-1.877,4.75-4.34,6.51-7.271c2.934,2.17,5.809,4.572,7.447,6.334l4.104-4.693c-1.994-1.994-5.809-4.75-9.092-7.037
			C264.547,45.807,264.959,44.222,265.311,42.581z"/>
		<path fill="#FFFFFF" d="M269.592,26.395h-14.545v14.72h14.545V26.395z M264.197,36.482h-4.105v-5.396h4.105V36.482z"/>
	</g>
</g>
</svg>
