<?xml version="1.0" encoding="utf-8"?>
<!-- Generator: Adobe Illustrator 23.0.1, SVG Export Plug-In . SVG Version: 6.00 Build 0)  -->
<svg version="1.1" id="section1" xmlns="http://www.w3.org/2000/svg" xmlns:xlink="http://www.w3.org/1999/xlink" x="0px" y="0px"
	 viewBox="0 0 558 156" style="enable-background:new 0 0 558 156;" xml:space="preserve">
<style type="text/css">
	.st0{fill:#FFFFFF;}
</style>
<g>
	<path class="st0" d="M69.3,46H56.3v11.1h13.1L69.3,46L69.3,46z M64.6,53.4h-3.9v-3.7h3.9V53.4z"/>
	<path class="st0" d="M52.6,76.4H89v2.5H96V26.4H46v52.4h6.6C52.6,78.8,52.6,76.4,52.6,76.4z M52.6,32.7h28.3l-2.8,2.8
		c1.5,0.8,3.3,2,4.5,3.1h-6.3c-0.1-1.6-0.2-3.3-0.2-5h-5.7c0.1,1.7,0.2,3.3,0.3,5H54.8v4.9h16.3c0.5,5.8,1.3,11.1,2.5,15.3
		c-0.9,1.1-1.9,2-2.9,2.9l-0.1-2.9c-6.1,0.8-12.2,1.5-16.5,2l0.6,5.1c3.9-0.6,8.4-1.3,13.1-2c-0.6,0.4-1.2,0.8-1.9,1.2
		c1.2,0.9,3,3.2,3.8,4.2c2.2-1.4,4.2-3.1,6.1-5c1.2,1.9,2.6,3.3,4.4,3.9c3.9,1.8,6.9-0.5,7.8-7.7c-1.2-0.6-3.3-2.2-4.3-3.3
		c-0.2,3.4-0.7,5.7-1.3,5.4c-1.1-0.2-1.9-1.3-2.7-3.1c2.6-3.9,4.7-8.3,6.1-13.4l-5.3-1.1c-0.7,2.6-1.6,5-2.8,7.3
		c-0.5-2.6-0.8-5.7-1.1-9h10.5v-4.9h-2.8l2.3-2.5c-1.1-1.1-3-2.5-4.9-3.4H89v37.5H52.6V32.7z"/>
	<path class="st0" d="M109.4,76.1c4.9-1.9,10.9-4.2,16.9-6.6v2.6c0,0.6-0.2,0.9-1.1,0.9c-0.7,0.1-3.3,0.1-5.6-0.1
		c0.8,1.6,1.7,3.8,2,5.5c3.9,0,6.6-0.1,8.7-0.9c2.1-0.9,2.7-2.3,2.7-5.3v-3.9c5.4,2.5,11.1,5.6,14.8,7.9l4.1-5.3
		c-2.8-1.5-6.6-3.5-10.6-5.5c1.4-1.3,3-2.9,4.3-4.5l-5.5-3.4c-1.1,1.6-2.8,3.6-4.4,5.4c-0.9-0.4-1.8-0.8-2.6-1.2v-9.2h-6.8v10.9
		c-1.8,0.6-3.6,1.2-5.4,1.9l2.8-2.2c-1.3-1.6-3.9-3.7-6-5.1l-4.6,3.6c1.8,1.3,3.9,3.2,5.2,4.7c-4.6,1.5-8.7,2.9-11.9,3.9L109.4,76.1
		z"/>
	<path class="st0" d="M156.1,51v-5.7H126c0.6-1,1.1-1.9,1.6-2.9h23.2V37h-21c0.3-0.9,0.6-1.8,0.9-2.8h22.4v-5.6h-21
		c0.4-1.5,0.6-2.9,0.9-4.3l-7.3-0.6c-0.2,1.6-0.5,3.3-0.8,4.9h-18.6v5.6h17.1c-0.2,0.9-0.5,1.8-0.9,2.8h-13.2v5.3H120
		c-0.5,1-1.1,1.9-1.8,2.9H103V51h10.8c-3.2,3.3-7.1,6.4-11.9,8.9c1.8,0.9,4.2,3.2,5.2,4.7c6.4-3.7,11.5-8.4,15.3-13.6h14.2
		c4,6,9.8,10.7,16.6,13.4c1-1.8,3-4.5,4.6-5.7c-5.2-1.6-9.8-4.3-13.3-7.7L156.1,51L156.1,51z"/>
	<path class="st0" d="M191.1,33.2c0.2-3.5,0.4-6.7,0.4-9.1h-8c-0.2,9.9,0.9,36.1-22.9,48.8c2.3,1.6,4.6,3.8,5.8,5.7
		c12.2-7.1,18.3-17.7,21.5-28c3.4,10.1,9.9,21.5,22.9,27.7c0.9-2,2.9-4.3,5.1-6C195.5,63.1,192,41.1,191.1,33.2z"/>
	<path class="st0" d="M219.4,61.3h41.5v2.4h-16.4v4.6h4.4l-2.8,2c1.9,1.6,4,4,5,5.7l4.6-3.5c-0.8-1.3-2.4-2.9-3.9-4.3h9.1V73
		c0,0.6-0.2,0.7-0.8,0.7c-0.5,0-2.4,0-4-0.1c0.7,1.5,1.4,3.4,1.7,4.9c3.1,0,5.5,0,7.2-0.7c1.9-0.8,2.3-2,2.3-4.7v-4.9h4.7v-4.6h-4.7
		v-2.4h6.9v-4.9h-54.7V61.3z"/>
	<polygon class="st0" points="243,33.2 226.2,33.2 226.2,37.3 267.3,37.3 267.3,33.2 250,33.2 250,31.2 272.4,31.2 272.4,26.9 
		250,26.9 250,24 243,24 243,26.9 221.2,26.9 221.2,31.2 243,31.2 	"/>
	<polygon class="st0" points="224.7,51 224.7,54.7 268.3,54.7 268.3,51 249.9,51 249.9,49.1 263.2,49.1 263.2,45.6 229.2,45.6 
		229.2,49.1 243,49.1 243,51 	"/>
	<path class="st0" d="M242.8,75.9V63.1h-19.2v14.6h6v-1.8H242.8z M229.6,67.5h7.1v4h-7.1V67.5z"/>
	<path class="st0" d="M265.3,48.7l5.9,0.9c0.8-2.5,1.8-6.5,2.5-10l-4.9-0.8l-1.1,0.2h-46.8v4.7h45.3
		C265.9,45.6,265.6,47.3,265.3,48.7z"/>
	<rect y="19.1" class="st0" width="11.1" height="136.7"/>
	<path class="st0" d="M546.6,57.2c-6.1-2.8-14.8-4.6-24.5-4.6h0c-9.7,0-18.4,1.8-24.5,4.6c-6.2,2.8-9.2,6.4-9,9.2
		c-0.1,2.8,2.8,6.4,9,9.2c6.1,2.8,14.8,4.6,24.5,4.6c9.7,0,18.4-1.8,24.5-4.6c6.2-2.8,9.1-6.5,9-9.2C555.8,63.6,552.8,60,546.6,57.2
		z"/>
	<path class="st0" d="M552.3,78.7c-1.1,0.6-2.2,1.3-3.4,1.8c-7,3.2-16.4,5.1-26.7,5.1c-10.4,0-19.7-1.9-26.7-5.1
		c-1.2-0.5-2.4-1.2-3.4-1.8c-2.3,2-3.4,4-3.4,5.7c-0.1,1.2,0.6,2.7,1.7,4.1c4.8,4.9,6.6,4.3,10.2,5.9c3,1.4,3.2,1.9,9.8,2.8
		c3.7,0.6,7.6,0.9,11.8,0.9c9.7,0,18.4-1.8,24.5-4.6c0.1-0.1,0.3-0.1,0.4-0.2h0c5.9-2.8,8.8-6.3,8.6-9
		C555.7,82.8,554.6,80.7,552.3,78.7z"/>
	<path class="st0" d="M552.3,114.8c-1.1,0.6-2.2,1.3-3.4,1.8c-7,3.2-16.4,5.1-26.7,5.1c-2.7,0-5.8-0.1-8.3-0.4c0.3,1,0,2.1,0,3.2
		c-0.1,3.5-0.8,5.9,0,8.9c3.6,0.6,4.2,0.9,8.3,0.9c9.7,0,18.4-1.8,24.5-4.6c6.2-2.8,9.1-6.4,9-9.2
		C555.7,118.9,554.6,116.8,552.3,114.8z"/>
	<path class="st0" d="M552.3,96.8c-1.1,0.7-2.2,1.3-3.5,1.8c-7,3.2-16.4,5.1-26.7,5.1c-2.7,0-5.8-0.1-8.3-0.4c0.3,1,0,2.1,0,3.2
		c0,0.2,0,0.4,0,0.6c0,0,0,0,0,0c-0.2,3.2,1,6.3,0,8.3v0c3.6,0.6,4.2,0.9,8.3,0.9c9.7,0,18.4-1.8,24.5-4.6c0.1-0.1,0.3-0.1,0.4-0.2
		c5.9-2.8,8.7-6.3,8.6-9C555.7,100.8,554.6,98.7,552.3,96.8z"/>
	<path class="st0" d="M541.1,34.2c9.3,0,16.9-7.6,16.9-16.9c0-9.3-7.6-16.9-16.9-16.9c-9.3,0-16.9,7.6-16.9,16.9
		C524.1,26.6,531.7,34.2,541.1,34.2z M541.1,5.4c6.5,0,11.8,5.3,11.8,11.8c0,6.5-5.3,11.8-11.8,11.8c-6.5,0-11.8-5.3-11.8-11.8
		C529.2,10.7,534.5,5.4,541.1,5.4z"/>
	<path class="st0" d="M538.4,24.6c0.5,0.2,1,0.4,1.6,0.4V27h3.4v-1.9c0.5-0.1,1-0.3,1.4-0.5c0.9-0.4,1.6-1,2-1.7
		c0.5-0.7,0.7-1.5,0.7-2.3c0-0.8-0.2-1.6-0.7-2.2c-0.4-0.6-1.1-1.2-2-1.6c-0.6-0.3-1.7-0.6-3.3-0.9c-1.9-0.4-2.5-0.8-2.8-1
		c-0.3-0.3-0.5-0.6-0.5-1.1c0-0.5,0.2-0.9,0.7-1.3c0.5-0.4,1.3-0.6,2.4-0.6c1,0,1.8,0.2,2.3,0.6c0.5,0.4,0.8,1,0.9,1.9l0,0.3
		l2.4-0.2v-0.3c0-0.9-0.3-1.7-0.8-2.4c-0.5-0.7-1.2-1.3-2-1.6c-0.3-0.1-0.6-0.2-0.9-0.3V7.9H540v1.8c-0.5,0.1-1,0.2-1.5,0.4
		c-0.9,0.4-1.5,0.9-2,1.6c-0.4,0.7-0.7,1.4-0.7,2.2c0,0.7,0.2,1.4,0.6,2c0.4,0.6,0.9,1.1,1.7,1.5c0.6,0.3,1.5,0.6,2.9,0.9
		c1.3,0.3,2.2,0.5,2.6,0.7c0.6,0.2,1,0.5,1.2,0.8c0.2,0.3,0.3,0.6,0.3,1c0,0.4-0.1,0.7-0.4,1.1c-0.2,0.3-0.6,0.6-1.1,0.8
		c-0.5,0.2-1.1,0.3-1.8,0.3c-0.8,0-1.5-0.1-2.1-0.4c-0.6-0.3-1.1-0.6-1.3-1c-0.3-0.4-0.5-1-0.5-1.7l0-0.3l-2.4,0.2V20
		c0,1,0.3,2,0.9,2.8C536.8,23.6,537.5,24.2,538.4,24.6z"/>
	<path class="st0" d="M492.2,43.6c7.5,0,13.6-6.1,13.6-13.6c0-7.5-6.1-13.6-13.6-13.6c-7.5,0-13.7,6.1-13.7,13.6
		C478.5,37.5,484.6,43.6,492.2,43.6z M492.2,20.4c5.3,0,9.5,4.3,9.5,9.5c0,5.3-4.3,9.5-9.5,9.5s-9.5-4.3-9.5-9.5
		C482.6,24.7,486.9,20.4,492.2,20.4z"/>
	<path class="st0" d="M490,35.9c0.4,0.2,0.8,0.3,1.3,0.4v1.6h2.7v-1.6c0.4-0.1,0.8-0.2,1.1-0.4c0.7-0.3,1.3-0.8,1.6-1.4
		c0.4-0.6,0.6-1.2,0.6-1.9c0-0.7-0.2-1.3-0.5-1.8c-0.4-0.5-0.9-1-1.6-1.3c-0.5-0.2-1.4-0.5-2.6-0.8c-1.5-0.3-2-0.6-2.2-0.8
		c-0.3-0.2-0.4-0.5-0.4-0.9c0-0.4,0.2-0.8,0.6-1.1c0.4-0.3,1-0.5,1.9-0.5c0.8,0,1.5,0.2,1.9,0.5c0.4,0.3,0.7,0.8,0.7,1.5l0,0.2
		l1.9-0.1v-0.2c0-0.7-0.2-1.4-0.6-2c-0.4-0.6-0.9-1-1.6-1.3c-0.2-0.1-0.5-0.2-0.8-0.3v-1.5h-2.7v1.4c-0.4,0.1-0.8,0.2-1.2,0.3
		c-0.7,0.3-1.2,0.7-1.6,1.3c-0.4,0.5-0.5,1.1-0.5,1.8c0,0.6,0.1,1.1,0.4,1.6c0.3,0.5,0.7,0.9,1.3,1.2c0.4,0.2,1.2,0.5,2.3,0.8
		c1.1,0.3,1.8,0.4,2.1,0.6c0.4,0.2,0.8,0.4,1,0.6c0.2,0.2,0.3,0.5,0.3,0.8c0,0.3-0.1,0.6-0.3,0.9c-0.2,0.3-0.5,0.5-0.9,0.6
		c-0.4,0.2-0.9,0.2-1.5,0.2c-0.6,0-1.2-0.1-1.7-0.3c-0.5-0.2-0.9-0.5-1.1-0.8c-0.2-0.3-0.4-0.8-0.4-1.3l0-0.2l-1.9,0.2v0.2
		c0,0.8,0.3,1.6,0.7,2.2C488.7,35.1,489.3,35.6,490,35.9z"/>
	<g>
		<path class="st0" d="M91,103.1H48.4v8.6h-4.2V99.3h23.6c-0.2-1.3-0.6-2.7-1-4.2l4.2-0.4c0.4,1.6,0.8,3,1.1,4.5h23.3v12.4H91V103.1
			z M47.3,128.2h45V149h-4.2v-2.2H51.5v2.2h-4.2V128.2z M51.5,136h16.4v-4.6H51.5V136z M67.9,139.1H51.5v4.3h16.4V139.1z
			 M87.7,113.7v10.9H51.6v-10.9H87.7z M52.6,106.3h34.1v3.6H52.6V106.3z M83.5,117.1H55.9v4.2h27.5V117.1z M72.1,136h15.9v-4.6H72.1
			V136z M88.1,139.1H72.1v4.3h15.9V139.1z"/>
		<path class="st0" d="M118.8,116.7V149h-4.2v-27.1c-3.4,8.1-7.6,14.3-12.5,18.6l-2.1-4c5.6-5,9.9-11.6,13-19.7h-11.7v-4h13.3v-10.1
			c-3.9,0.5-7.8,1-11.7,1.3l-1.3-4c9-0.6,17.5-1.9,25.7-3.7l2.1,3.7c-3.5,0.8-7,1.5-10.5,2.1v10.8h10.4v4H118.8z M122.3,122.7
			c3.1,3.1,5.9,6.3,8.1,9.4l-3.2,3.3c-1.9-3.2-4.4-6.6-7.4-10L122.3,122.7z M134.3,136.2V100h4.2v36.1H134.3z M152,94.7v49.3
			c0,3.2-1.6,4.8-4.8,4.8H137l-0.9-4.2h9.7c1.3,0,2-0.6,2-2V94.7H152z"/>
		<path class="st0" d="M161.7,131.9c12-3,22.1-8,30.1-15.1h5.2c-1.9,1.8-3.9,3.6-5.9,5.3h20.7v3.7c-12.3,12.7-29,20.4-50.1,23.3
			l-1.6-4.2c8.7-1.1,16.7-3.1,24-5.9c-1.9-2.5-4.4-5.2-7.4-8c-3.9,1.8-8.1,3.2-12.5,4.4L161.7,131.9z M205.8,98.9v3.7
			c-10.8,11.6-25.4,18.7-43.9,21.3l-1.6-4c7.1-1,13.6-2.6,19.7-4.9c-2.1-2.4-4.6-5-7.7-7.9c-2.5,1.5-5.3,2.7-8.1,3.8l-2.8-3.4
			c8.6-3,15.5-7.3,20.9-12.9h4.7c-1.2,1.5-2.5,2.9-3.8,4.2H205.8z M178.8,102.6c-1.1,0.8-2.1,1.6-3.2,2.3c3.1,2.8,5.9,5.6,8.3,8.4
			c6-2.9,11.5-6.4,16.3-10.8H178.8z M185.9,126c-1.8,1.2-3.7,2.3-5.5,3.3c2.9,2.8,5.4,5.5,7.7,8.3c6.6-3.1,12.7-6.9,18-11.5H185.9z"
			/>
		<path class="st0" d="M220.3,131.9c12-3,22.1-8,30.1-15.1h5.2c-1.9,1.8-3.9,3.6-5.9,5.3h20.7v3.7c-12.3,12.7-29,20.4-50.1,23.3
			l-1.6-4.2c8.7-1.1,16.7-3.1,24-5.9c-1.9-2.5-4.4-5.2-7.4-8c-3.9,1.8-8.1,3.2-12.5,4.4L220.3,131.9z M264.3,98.9v3.7
			c-10.8,11.6-25.4,18.7-43.9,21.3l-1.6-4c7.1-1,13.6-2.6,19.7-4.9c-2.1-2.4-4.6-5-7.7-7.9c-2.5,1.5-5.3,2.7-8.1,3.8l-2.8-3.4
			c8.6-3,15.5-7.3,20.9-12.9h4.7c-1.2,1.5-2.5,2.9-3.8,4.2H264.3z M237.4,102.6c-1.1,0.8-2.1,1.6-3.2,2.3c3.1,2.8,5.9,5.6,8.3,8.4
			c6-2.9,11.5-6.4,16.3-10.8H237.4z M244.5,126c-1.8,1.2-3.7,2.3-5.5,3.3c2.9,2.8,5.4,5.5,7.7,8.3c6.6-3.1,12.7-6.9,18-11.5H244.5z"
			/>
		<path class="st0" d="M276.2,147.3c1.3-3.7,2.2-8.3,2.7-13.7l3.7,0.4c-0.4,5.7-1.3,10.5-2.5,14.6L276.2,147.3z M299.5,102.5
			c-4.5,7.9-9.7,15.7-15.5,23.6c3-0.5,6.3-1,9.9-1.4c-0.6-1.8-1.2-3.7-2-5.7l3.3-1.2c1.9,4.6,3.3,8.8,4.3,12.8l-3.8,1.4
			c-0.2-1.1-0.5-2.2-0.8-3.5c-6.1,0.8-11.6,1.8-16.6,2.8l-1.6-3.9c1.5-0.5,2.8-1.5,3.8-2.8c2.2-3,4.5-6.3,6.7-9.6
			c-3.5,0.4-6.6,0.8-9.5,1.3l-1.4-4c0.1-0.1,0.2-0.1,0.2-0.1c0.1,0,0.1,0,0.2,0c1.2-0.4,2.2-1.1,2.9-2.2c2.8-4.5,5.3-9.6,7.7-15.3
			l4,1.2c-2.3,5.2-5.1,10.4-8.3,15.6c2.1-0.2,4.3-0.4,6.7-0.6c1.9-3.2,3.9-6.6,5.9-10L299.5,102.5z M287.4,146.9
			c0.1-4.5-0.3-8.8-1.1-13l3.6-0.4c0.9,4.4,1.3,8.8,1.5,13.3L287.4,146.9z M297.1,145.1c-0.6-4-1.5-7.9-2.6-11.5l3.5-0.9
			c1.3,3.8,2.4,7.7,3.1,11.7L297.1,145.1z M298.1,112.1c4.7-5.7,8-11.5,9.7-17.5l3.9,1.1c-0.4,1.4-0.9,2.8-1.5,4.3h17.2v4
			c-1.8,5.2-5,9.8-9.4,13.9c3.5,2.5,7.8,4.6,12.9,6.3l-2.2,3.9c-5.7-1.9-10.4-4.4-14.1-7.4c-3.7,2.8-8.2,5.2-13.4,7.3l-2-3.8
			c4.7-1.9,8.8-4.1,12.2-6.4c-2.5-2.6-4.5-5.7-5.9-9c-1.2,1.9-2.6,3.7-4.1,5.7L298.1,112.1z M302.9,138.4c9.5,1.6,18,3.7,25.4,6.3
			l-1.9,4c-6.3-2.4-14.8-4.6-25.4-6.5L302.9,138.4z M308,127.5c6.2,1.3,11.7,2.8,16.6,4.6l-2.1,4c-4-1.8-9.5-3.5-16.3-5L308,127.5z
			 M308.5,103.9c-0.2,0.2-0.3,0.5-0.4,0.8c1.3,4,3.6,7.5,6.9,10.5c3.9-3.4,6.7-7.1,8.4-11.3H308.5z"/>
		<path class="st0" d="M375.7,131.7c-12.2,7.3-25.4,12.5-39.4,15.6l-1.7-3.9c12.7-2.8,24.5-7.1,35.4-13.1c-10.7,1.2-22.1,2-34.2,2.3
			l-0.2-4.5c2.5-0.1,4.9-0.1,7.3-0.2V99.7h12.9l2.5-5.2l4.2,0.5l-2.3,4.7h19.7v24.5c2.4-1.6,4.7-3.3,7-5.2l2.6,3.1
			c-3.2,2.4-6.4,4.7-9.6,6.9v14c0,3.7-1.9,5.6-5.6,5.6h-9.6l-0.9-4.2h9.9c1.3,0,2-0.6,2-2V131.7z M375.7,103.7h-28.5v5.3h28.5V103.7
			z M347.2,118h28.5v-5.4h-28.5V118z M375.7,121.5h-28.5v6.3c10-0.4,19.5-1,28.5-1.8V121.5z"/>
		<path class="st0" d="M405.1,149h-4.3v-31.9c-1.7,3.3-3.5,6.6-5.4,9.8l-2.6-4.1c5.2-7.6,9.3-16.9,12.3-27.7l4.2,0.9
			c-1.3,3.9-2.6,7.8-4.1,11.6V149z M443.5,98.3v18.2h-12.8v7.2h17.5v4h-15c3.9,5.9,9,10.5,15.5,13.9l-2.3,4
			c-6.5-3.9-11.7-9.1-15.6-15.7v19h-4.2v-19.6c-4.5,6.9-10.1,12.5-16.8,17l-2.5-3.7c6.4-3.9,11.8-8.9,16.1-15h-14.9v-4h18.1v-7.2
			H413V98.3H443.5z M439.3,102.3h-22.1v10.2h22.1V102.3z"/>
		<path class="st0" d="M454.4,149V97.6h15.5v4l-4,14.6c2.8,4.4,4.3,8.8,4.6,13.4c0,3.8-0.6,6.2-1.9,7.2c-1.3,1.1-3.5,1.5-6.4,1.2
			l-1.7-4.1c3,0,4.7-0.4,5.3-1c0.5-0.6,0.8-1.8,0.8-3.3c-0.3-4.3-1.9-8.6-4.8-13.1l4.2-14.9h-7.3V149H454.4z M487.5,141.5l-2.5,3.6
			c-1.7-1.8-3.5-3.4-5.4-4.9c-1.7,3.3-4.1,6.3-7.3,9.1l-3.2-2.9c5.1-4,8.3-8.9,9.4-14.6l3.5,0.9c-0.2,1.3-0.6,2.7-1,4
			C483.3,138.1,485.4,139.7,487.5,141.5z M499.5,111.5h-20.4v-3.7c-2.2,1.3-4.3,2.5-6.6,3.6l-2.5-3.5c7.3-3.2,13.5-7.8,18.5-13.8
			l4.2,1.6c-0.5,0.6-1.1,1.2-1.6,1.8c5,4.2,10.5,7.4,16.6,10l-2.1,3.9c-2.2-1-4.2-2.1-6.2-3.2V111.5z M486.9,116.2v15.2h-13.4v-15.2
			H486.9z M477,120v7.7h6.3V120H477z M498.7,107.8c-3.7-2.2-7.1-4.7-10.2-7.6c-2.9,2.8-6,5.3-9.4,7.6H498.7z M507.4,145.1l-2.6,3.6
			c-2.7-2.8-5.6-5.3-8.7-7.6c-1.8,3-4.2,5.7-7.3,8.3l-3.2-3c5.3-3.9,8.7-8.7,10.1-14.4l3.4,1.1c-0.4,1.6-0.8,3.1-1.4,4.6
			C501.2,139.8,504.4,142.3,507.4,145.1z M504.5,116.2v15.2h-13.8v-15.2H504.5z M494.2,120v7.7h6.7V120H494.2z"/>
	</g>
</g>
</svg>
