<?xml version="1.0" encoding="utf-8"?>
<!-- Generator: Adobe Illustrator 16.0.0, SVG Export Plug-In . SVG Version: 6.00 Build 0)  -->
<!DOCTYPE svg PUBLIC "-//W3C//DTD SVG 1.1//EN" "http://www.w3.org/Graphics/SVG/1.1/DTD/svg11.dtd">
<svg version="1.1" id="section1" xmlns="http://www.w3.org/2000/svg" xmlns:xlink="http://www.w3.org/1999/xlink" x="0px" y="0px"
	 width="526px" height="212px" viewBox="0 0 526 212" enable-background="new 0 0 526 212" xml:space="preserve">
<g>
	<path fill="#FFFFFF" d="M50.925,58.135h36.268v2.449h6.881V8.397H44.336v52.187h6.588V58.135z M50.925,14.637h28.164l-2.741,2.74
		c1.516,0.816,3.265,2.041,4.49,3.091H74.54c-0.116-1.633-0.175-3.266-0.233-4.957h-5.715c0.117,1.691,0.175,3.324,0.292,4.957
		H53.083v4.897h16.209c0.525,5.772,1.283,11.079,2.508,15.277c-0.933,1.049-1.866,2.041-2.916,2.915l-0.116-2.915
		c-6.064,0.815-12.128,1.516-16.385,1.982l0.642,5.072c3.849-0.642,8.396-1.282,13.061-1.982c-0.583,0.408-1.225,0.816-1.866,1.167
		c1.166,0.933,3.032,3.148,3.79,4.197c2.216-1.399,4.198-3.09,6.064-4.956c1.167,1.925,2.624,3.266,4.373,3.849
		c3.849,1.749,6.88-0.467,7.813-7.639c-1.167-0.642-3.266-2.216-4.315-3.265c-0.233,3.382-0.7,5.655-1.341,5.423
		c-1.05-0.233-1.924-1.342-2.682-3.091c2.624-3.849,4.724-8.28,6.122-13.353l-5.306-1.05c-0.7,2.624-1.574,5.015-2.741,7.288
		c-0.466-2.623-0.816-5.655-1.107-8.921h10.437v-4.897h-2.798l2.332-2.449c-1.05-1.107-3.032-2.449-4.898-3.382h7.23v37.317H50.925
		V14.637z"/>
	<path fill="#FFFFFF" d="M67.543,27.873H54.54v11.078h13.003V27.873z M62.878,35.278h-3.907v-3.732h3.907V35.278z"/>
	<path fill="#FFFFFF" d="M99.968,41.691c1.749,0.875,4.139,3.149,5.189,4.724c6.414-3.731,11.429-8.396,15.277-13.586h14.169
		c4.023,5.947,9.796,10.67,16.56,13.353c0.991-1.749,2.974-4.432,4.548-5.656c-5.131-1.574-9.796-4.314-13.236-7.696h11.487v-5.656
		h-29.971c0.583-0.991,1.05-1.924,1.575-2.915h23.09v-5.307h-20.933c0.292-0.933,0.642-1.808,0.933-2.74h22.333v-5.539h-20.875
		c0.349-1.458,0.641-2.857,0.874-4.257l-7.289-0.641c-0.175,1.632-0.466,3.265-0.816,4.897h-18.484v5.539h17.027
		c-0.233,0.933-0.525,1.808-0.875,2.74h-13.178v5.307h10.671c-0.525,0.991-1.108,1.924-1.75,2.915h-15.16v5.656h10.729
		C108.714,36.152,104.749,39.243,99.968,41.691z"/>
	<path fill="#FFFFFF" d="M149.821,52.829c-2.74-1.517-6.589-3.499-10.554-5.481c1.399-1.341,2.974-2.915,4.315-4.489l-5.481-3.382
		c-1.107,1.633-2.799,3.615-4.431,5.364c-0.875-0.408-1.75-0.759-2.625-1.167V34.52h-6.764v10.904
		c-1.807,0.642-3.615,1.225-5.422,1.865l2.74-2.216c-1.283-1.574-3.907-3.731-6.006-5.072l-4.547,3.557
		c1.749,1.342,3.907,3.148,5.131,4.665c-4.548,1.516-8.688,2.915-11.837,3.849l3.149,5.772c4.839-1.866,10.903-4.198,16.792-6.531
		v2.624c0,0.642-0.233,0.875-1.049,0.875c-0.699,0.058-3.265,0.058-5.539-0.059c0.816,1.574,1.69,3.79,2.041,5.48
		c3.848,0,6.589-0.058,8.63-0.874c2.099-0.933,2.682-2.274,2.682-5.248v-3.906c5.423,2.507,11.079,5.598,14.694,7.872
		L149.821,52.829z"/>
	<path fill="#FFFFFF" d="M164.287,60.292c12.129-7.113,18.251-17.667,21.458-27.93c3.382,10.029,9.854,21.399,22.799,27.58
		c0.933-1.982,2.915-4.314,5.072-6.006c-20.35-8.979-23.906-30.962-24.723-38.833c0.233-3.499,0.35-6.647,0.408-9.097h-7.988
		c-0.233,9.854,0.875,35.977-22.798,48.629C160.848,56.211,163.063,58.427,164.287,60.292z"/>
	<path fill="#FFFFFF" d="M262.775,30.555l5.831,0.934c0.816-2.508,1.749-6.473,2.449-9.913l-4.84-0.758l-1.049,0.175H218.52v4.665
		h45.131C263.358,27.522,263.067,29.214,262.775,30.555z"/>
	<polygon fill="#FFFFFF" points="222.368,32.829 222.368,36.502 265.749,36.502 265.749,32.829 247.382,32.829 247.382,30.963 
		260.618,30.963 260.618,27.465 226.8,27.465 226.8,30.963 240.561,30.963 240.561,32.829 	"/>
	<path fill="#FFFFFF" d="M217.003,43.092h41.341v2.39h-16.325v4.606h4.373l-2.741,2.041c1.866,1.633,4.023,4.023,4.956,5.715
		l4.549-3.499c-0.816-1.283-2.392-2.857-3.907-4.257h9.096v4.665c0,0.583-0.233,0.7-0.815,0.7c-0.525,0-2.391,0-4.023-0.059
		c0.7,1.457,1.399,3.382,1.69,4.897c3.091,0,5.481,0,7.172-0.699c1.866-0.758,2.274-1.982,2.274-4.665v-4.84h4.723v-4.606h-4.723
		v-2.39h6.822v-4.898h-54.461V43.092z"/>
	<path fill="#FFFFFF" d="M221.26,59.476h5.948v-1.807h13.177V44.957H221.26V59.476z M227.208,49.271h7.055v4.023h-7.055V49.271z"/>
	<polygon fill="#FFFFFF" points="240.502,15.162 223.826,15.162 223.826,19.243 264.7,19.243 264.7,15.162 247.499,15.162 
		247.499,13.179 269.831,13.179 269.831,8.864 247.499,8.864 247.499,5.948 240.502,5.948 240.502,8.864 218.812,8.864 
		218.812,13.179 240.502,13.179 	"/>
	<rect x="45.444" y="93.651" fill="#FFFFFF" width="5.306" height="31.661"/>
	<path fill="#FFFFFF" d="M51.8,83.681c0-2.158-1.575-3.44-3.673-3.44c-2.1,0-3.673,1.282-3.673,3.44
		c0,1.982,1.574,3.439,3.673,3.439C50.225,87.12,51.8,85.663,51.8,83.681z"/>
	<path fill="#FFFFFF" d="M82.938,105.43c-0.991,2.974-1.924,5.947-2.915,8.921H79.73c-1.05-2.974-2.041-5.947-3.032-8.921
		l-8.221-22.857h-6.531v42.74h4.898V101.64c0-3.674-0.408-8.863-0.642-12.595h0.233l3.382,9.737l8.105,22.216h3.615l8.105-22.216
		l3.382-9.737h0.233c-0.292,3.731-0.7,8.921-0.7,12.595v23.673h5.073v-42.74h-6.531L82.938,105.43z"/>
	<path fill="#FFFFFF" d="M121.133,92.835c-7.755,0-14.694,6.122-14.694,16.676c0,10.496,6.938,16.56,14.694,16.56
		c7.755,0,14.694-6.063,14.694-16.56C135.827,98.957,128.888,92.835,121.133,92.835z M121.133,121.64
		c-5.481,0-9.154-4.84-9.154-12.129c0-7.288,3.673-12.244,9.154-12.244c5.481,0,9.213,4.956,9.213,12.244
		C130.346,116.8,126.615,121.64,121.133,121.64z"/>
	<path fill="#FFFFFF" d="M164.168,105.954v19.358h5.307v-20.058c0-8.105-3.032-12.42-9.68-12.42c-4.314,0-7.58,2.391-10.612,5.364
		h-0.175l-0.467-4.548h-4.372v31.661h5.306v-22.974c3.207-3.207,5.423-4.84,8.688-4.84
		C162.36,97.499,164.168,100.007,164.168,105.954z"/>
	<path fill="#FFFFFF" d="M204.287,107.703c0-9.037-4.549-14.868-12.595-14.868c-7.348,0-14.286,6.414-14.286,16.676
		c0,10.438,6.764,16.56,15.16,16.56c4.315,0,7.697-1.457,10.496-3.265l-1.924-3.499c-2.333,1.574-4.84,2.508-7.931,2.508
		c-6.005,0-10.146-4.315-10.495-11.079h21.341C204.17,109.978,204.287,108.87,204.287,107.703z M182.654,106.945
		c0.642-6.239,4.606-9.854,9.096-9.854c4.957,0,7.872,3.44,7.872,9.854H182.654z"/>
	<path fill="#FFFFFF" d="M224.696,127.937l11.953-34.285h-5.189l-5.656,17.609c-0.875,2.799-1.808,6.005-2.682,8.862h-0.292
		c-0.991-2.857-2.1-6.122-3.031-8.862l-6.474-17.609h-5.538l12.711,31.72l-0.699,2.391c-1.283,3.906-3.558,6.822-7.172,6.822
		c-0.817,0-1.75-0.292-2.392-0.525l-1.05,4.257c0.991,0.408,2.216,0.642,3.731,0.642
		C219.215,138.957,222.48,134.176,224.696,127.937z"/>
	<path fill="#FFFFFF" d="M239.567,117.674c0.758,1.108,1.866,2.916,2.391,4.082c3.907-3.965,7.988-10.438,11.021-17.084v25.014
		h4.315v-25.189c3.031,3.266,6.938,7.522,8.688,9.738l2.565-3.557c-1.749-1.75-8.454-8.455-11.253-11.079v-1.574h11.952v-4.023
		h-11.952V83.272c3.906-0.934,7.58-1.982,10.437-3.091l-3.207-3.323c-5.48,2.391-15.51,4.373-24.081,5.656
		c0.524,0.933,1.166,2.391,1.341,3.439c3.615-0.524,7.405-1.107,11.195-1.865v9.912h-12.245v4.023h11.37
		C249.306,105.313,244.232,113.301,239.567,117.674z"/>
	<rect x="273.795" y="83.447" fill="#FFFFFF" width="4.256" height="31.953"/>
	<path fill="#FFFFFF" d="M290.413,123.738v-46.53h-4.257v46.53c0,1.166-0.467,1.458-1.517,1.516c-1.107,0-4.78,0.059-8.804-0.058
		c0.642,1.166,1.282,3.207,1.573,4.373c5.307,0,8.514-0.117,10.379-0.875C289.597,127.995,290.413,126.712,290.413,123.738z"/>
	<path fill="#FFFFFF" d="M325.345,76.101l-4.198,1.107c0.875,1.341,1.925,3.091,2.682,4.548h-23.73v3.965h21.224
		c-1.749,2.8-3.731,5.189-4.49,5.948c-0.874,1.049-1.69,1.749-2.565,1.865c0.467,0.934,1.05,2.857,1.226,3.674
		c0.874-0.35,2.156-0.642,8.862-1.166c-2.799,2.856-5.306,5.131-6.414,6.063c-2.04,1.575-3.498,2.683-4.84,2.857
		c0.467,1.05,1.05,2.974,1.283,3.79c1.166-0.583,3.207-0.875,18.367-2.332c0.699,1.107,1.283,2.157,1.574,3.09l3.44-1.516
		c-1.166-2.74-4.082-6.822-6.705-9.796l-3.208,1.341c0.934,1.108,1.925,2.449,2.857,3.732l-10.204,0.815
		c5.015-4.022,10.088-9.154,14.693-14.519l-3.557-2.041c-1.166,1.691-2.565,3.324-3.906,4.84l-7.405,0.467
		c1.866-2.041,3.79-4.548,5.539-7.114h24.548v-3.965h-21.632C328.026,80.123,326.628,77.791,325.345,76.101z"/>
	<path fill="#FFFFFF" d="M312.691,94.7c-1.924-1.982-5.772-4.723-8.862-6.588l-2.915,2.391c3.148,1.924,6.938,4.839,8.745,6.821
		L312.691,94.7z"/>
	<path fill="#FFFFFF" d="M301.38,109.161c3.848-1.924,8.571-4.432,13.003-6.822l-0.875-3.207c-5.247,2.508-10.67,5.073-14.285,6.531
		L301.38,109.161z"/>
	<polygon fill="#FFFFFF" points="327.152,129.803 327.152,117.499 350.884,117.499 350.884,113.476 327.152,113.476 
		327.152,108.694 322.604,108.694 322.604,113.476 298.931,113.476 298.931,117.499 322.604,117.499 322.604,129.803 	"/>
	<path fill="#FFFFFF" d="M347.502,90.152l-3.615-2.216c-1.982,2.391-5.598,5.598-8.222,7.464l3.148,2.041
		C341.496,95.634,344.878,92.835,347.502,90.152z"/>
	<path fill="#FFFFFF" d="M346.511,109.744l3.207-2.565c-2.565-2.391-7.639-5.714-11.545-7.93l-3.091,2.332
		C339.163,103.972,344.12,107.471,346.511,109.744z"/>
	<path fill="#FFFFFF" d="M393.047,89.919c0.641-0.291,1.748-0.524,6.413-0.933c-1.633,1.982-3.09,3.557-3.79,4.198
		c-1.341,1.283-2.448,2.216-3.498,2.391c0.408,0.816,0.875,2.391,1.05,3.091c0.874-0.467,2.391-0.816,12.769-2.216
		c0.292,0.933,0.467,1.865,0.584,2.565l2.798-0.816c-0.35-2.216-1.632-5.831-2.915-8.513l-2.74,0.641
		c0.524,1.108,1.049,2.391,1.457,3.615l-6.997,0.816c3.324-3.266,6.706-7.405,9.797-11.72l-3.091-1.342
		c-0.933,1.517-2.041,3.149-3.207,4.549l-4.781,0.233c2.099-2.391,4.256-5.598,5.947-8.863l-3.207-1.166
		c-1.633,3.731-4.489,7.58-5.306,8.571c-0.816,0.933-1.574,1.574-2.332,1.749C392.347,87.587,392.871,89.161,393.047,89.919z"/>
	<rect x="375.32" y="86.829" fill="#FFFFFF" width="15.568" height="2.565"/>
	<path fill="#FFFFFF" d="M392.113,81.522h-6.53c-0.525-1.516-1.517-3.673-2.566-5.131l-3.265,1.05
		c0.758,1.283,1.458,2.74,1.982,4.081h-7.639v2.683h18.018V81.522z"/>
	<path fill="#FFFFFF" d="M406.457,108.286l2.74-0.758c-0.408-2.216-1.282-5.714-2.273-8.396l-2.565,0.7
		C405.174,102.514,406.107,106.013,406.457,108.286z"/>
	<path fill="#FFFFFF" d="M407.74,129.919c0.466-1.107,1.457-2.624,2.216-3.557c-7.172-0.642-14.52-1.749-20.933-3.557
		c4.313-2.041,8.104-4.606,10.903-7.813h7.755v-3.382h-33.177c0.641-0.875,1.34-1.75,1.924-2.683l-3.791-1.166
		c-3.148,4.84-9.271,8.746-15.335,11.195c0.759,0.699,2.1,2.449,2.565,3.207c3.033-1.342,6.123-3.091,8.922-5.306
		c2.799,2.332,6.238,4.314,10.028,5.947c-6.764,1.924-14.577,3.032-22.332,3.673c0.7,0.934,1.633,2.683,2.041,3.674
		c8.805-1.05,17.784-2.565,25.423-5.248C391.238,127.412,399.519,129.044,407.74,129.919z M371.764,114.992h22.856
		c-2.799,2.565-6.472,4.548-10.787,6.239C378.993,119.481,374.854,117.441,371.764,114.992z"/>
	<path fill="#FFFFFF" d="M394.679,109.628c0.758-2.332,1.517-5.947,1.982-8.979l-2.974-0.758c-0.351,2.798-0.816,5.83-1.633,8.221
		C392.755,108.462,394.096,109.22,394.679,109.628z"/>
	<rect x="375.32" y="92.019" fill="#FFFFFF" width="15.51" height="2.682"/>
	<path fill="#FFFFFF" d="M390.539,108.054V97.616h-14.928v10.438H390.539z M378.469,100.24h9.097v5.189h-9.097V100.24z"/>
	<path fill="#FFFFFF" d="M399.927,108.694l2.857-0.583c-0.059-2.157-0.525-5.598-1.226-8.163l-2.682,0.467
		C399.519,103.039,399.927,106.479,399.927,108.694z"/>
	<path fill="#FFFFFF" d="M361.618,100.765l-2.916-0.583c-0.35,3.091-0.816,6.355-1.749,8.805c0.7,0.35,1.925,1.166,2.508,1.516
		C360.394,107.937,361.151,104.146,361.618,100.765z"/>
	<path fill="#FFFFFF" d="M370.889,107.703l2.741-0.816c-0.292-1.924-1.167-4.956-1.983-7.229l-2.565,0.699
		C369.84,102.688,370.598,105.721,370.889,107.703z"/>
	<path fill="#FFFFFF" d="M364.708,89.22c-1.69,1.982-3.148,3.557-3.849,4.198c-1.341,1.341-2.507,2.274-3.498,2.391
		c0.35,0.874,0.875,2.507,1.05,3.148c0.875-0.408,2.391-0.7,12.536-2.216c0.233,0.875,0.466,1.691,0.583,2.333l2.741-0.817
		c-0.408-2.04-1.634-5.539-2.916-8.221l-2.624,0.7c0.525,1.049,1.05,2.332,1.458,3.557l-6.938,0.815
		c3.44-3.265,6.997-7.463,10.087-11.895l-3.148-1.399c-0.875,1.516-2.041,3.091-3.148,4.49l-4.665,0.232
		c1.982-2.448,4.082-5.655,5.83-8.921l-3.265-1.166c-1.574,3.79-4.432,7.696-5.248,8.688c-0.815,0.933-1.574,1.574-2.391,1.749
		c0.408,0.815,0.934,2.448,1.108,3.148C359.053,89.803,360.16,89.569,364.708,89.22z"/>
	<path fill="#FFFFFF" d="M364.708,108.928l2.915-0.642c-0.116-2.157-0.641-5.539-1.282-8.163l-2.683,0.583
		C364.184,103.33,364.708,106.712,364.708,108.928z"/>
	<path fill="#FFFFFF" d="M454.626,77.267h-4.082c0,4.431,0,8.688-0.117,12.77h-6.938v4.081h6.822
		c-0.524,10.963-2.041,20.351-7.113,27.23v-0.292c-3.907,0.467-7.872,0.875-11.662,1.225v-4.606h11.429v-3.323h-11.429v-3.557
		h11.312V93.477h-11.312v-3.674h12.361v-3.382h-12.361v-4.257c4.257-0.467,8.222-0.991,11.37-1.69l-2.158-3.324
		c-6.005,1.342-16.5,2.392-25.131,2.857c0.467,0.875,0.875,2.274,1.05,3.207c3.44-0.116,7.23-0.35,10.962-0.642v3.849h-12.595v3.382
		h12.595v3.674h-10.903v17.317h10.903v3.557h-11.02v3.323h11.02v5.015c-4.781,0.467-9.154,0.875-12.652,1.167l0.641,3.79
		c6.531-0.7,15.569-1.691,24.432-2.741c-0.816,0.7-1.633,1.399-2.565,2.041c1.05,0.7,2.565,2.157,3.207,3.09
		c10.263-7.696,12.944-20.407,13.645-35.918h8.338c-0.583,21.166-1.282,28.863-2.624,30.554c-0.583,0.759-1.107,0.934-2.099,0.934
		c-1.108,0-3.674-0.059-6.473-0.292c0.642,1.107,1.107,2.915,1.225,4.082c2.682,0.175,5.423,0.233,7.055,0
		c1.75-0.175,2.916-0.642,3.907-2.157c1.982-2.449,2.508-10.554,3.148-34.985c0-0.583,0.059-2.216,0.059-2.216h-12.361
		C454.626,85.954,454.626,81.64,454.626,77.267z M431.535,96.45h7.639v4.198h-7.639V96.45z M431.535,103.505h7.639v4.257h-7.639
		V103.505z M427.628,107.762h-7.347v-4.257h7.347V107.762z M427.628,100.648h-7.347V96.45h7.347V100.648z"/>
	<rect x="507.633" y="79.832" fill="#FFFFFF" width="4.023" height="19.417"/>
	<path fill="#FFFFFF" d="M474.28,105.488c0.816,0.641,2.273,2.215,2.857,3.031c5.889-3.731,8.047-8.921,8.746-13.936h7.464v12.479
		h4.081V94.584h6.589v-3.848h-6.589v-7.989h5.423v-3.848h-26.122v3.848h5.423v7.522v0.467h-7.347v3.848h7.055
		C481.161,98.49,479.354,102.397,474.28,105.488z M486.176,90.386v-7.639h7.172v7.989h-7.172V90.386z"/>
	<path fill="#FFFFFF" d="M511.656,107.762c4.14,0,6.938-0.059,8.688-0.699c1.748-0.7,2.215-1.808,2.215-4.198V76.917h-4.14v25.83
		c0,0.816-0.233,1.05-1.107,1.05c-0.875,0.116-3.79,0.116-7.114,0C510.84,104.963,511.481,106.596,511.656,107.762z"/>
	<polygon fill="#FFFFFF" points="502.327,123.738 502.327,116.392 519.937,116.392 519.937,112.427 502.327,112.427 
		502.327,105.896 497.954,105.896 497.954,112.427 479.646,112.427 479.646,116.392 497.954,116.392 497.954,123.738 
		473.639,123.738 473.639,127.82 526,127.82 526,123.738 	"/>
	<path fill="#FFFFFF" d="M74.365,170.683h17.084v-4.081H74.365v-8.863h18.426v-4.198H58.039c0.933-1.982,1.866-4.081,2.682-6.122
		l-4.373-1.05c-2.741,7.813-7.639,15.335-13.12,20.116c1.108,0.584,2.915,2.041,3.731,2.741c3.148-3.032,6.239-6.997,8.863-11.487
		h14.169v8.863H52.616v15.627h-9.563v4.198h26.939v13.353h4.373v-13.353h21.107v-4.198H74.365V170.683z M69.992,182.229H56.931
		v-11.546h13.062V182.229z"/>
	<path fill="#FFFFFF" d="M113.612,181.063l-3.557,1.457c2.215,3.266,4.548,7.872,5.364,10.554l3.79-1.574
		C118.277,188.7,115.886,184.327,113.612,181.063z"/>
	<path fill="#FFFFFF" d="M138.218,193.19c2.1-2.74,4.781-6.881,6.881-10.554l-4.081-1.574c-1.4,3.265-4.023,7.871-6.064,10.729
		L138.218,193.19z"/>
	<path fill="#FFFFFF" d="M129.997,149.925c0.524-0.699,1.049-1.457,1.457-2.099l-3.965-1.866
		c-5.539,8.63-16.268,15.452-27.114,19.009c1.108,0.991,2.275,2.74,2.916,3.965c3.149-1.166,6.297-2.623,9.271-4.257v3.208h12.595
		v7.93h-20v3.965h20v14.228h-22.624v4.023h50.086v-4.023h-22.973v-14.228h20.349v-3.965h-20.349v-7.93h12.828v-3.615
		c3.148,1.808,6.355,3.323,9.388,4.489c0.642-1.166,1.982-2.915,3.032-3.79C146.031,162.17,135.77,156.105,129.997,149.925z
		 M113.962,163.861c5.131-3.032,9.796-6.765,13.644-10.962c3.79,3.965,8.921,7.871,14.168,10.962H113.962z"/>
	<path fill="#FFFFFF" d="M174.199,194.414c0.934,0.584,2.625,1.808,3.382,2.508c3.267-3.731,7.114-9.388,9.855-14.285l-3.849-1.225
		C181.139,185.901,177.523,191.032,174.199,194.414z"/>
	<path fill="#FFFFFF" d="M172.917,146.66c-3.323,8.805-8.921,17.435-14.693,22.974c0.758,0.991,1.982,3.265,2.449,4.197
		c2.04-2.099,4.14-4.548,6.063-7.229v33.003h4.14v-39.3c2.333-3.907,4.432-8.164,6.123-12.421L172.917,146.66z"/>
	<path fill="#FFFFFF" d="M199.098,183.161c3.674,4.14,7.931,9.854,9.912,13.411l3.499-2.158c-2.099-3.498-6.355-8.921-10.088-13.061
		L199.098,183.161z"/>
	<path fill="#FFFFFF" d="M212.334,174.59h-16.501v-6.938h13.119v-18.426h-30.029v18.426h12.595v6.938h-16.852v3.965h16.852v21.225
		h4.315v-21.225h16.501V174.59z M183.005,163.803v-10.671h21.632v10.671H183.005z"/>
	<path fill="#FFFFFF" d="M250.007,167.301h-13.062v13.994h13.062V167.301z M246.508,178.146h-6.239v-7.639h6.239V178.146z"/>
	<path fill="#FFFFFF" d="M244.117,187.768c0.642-1.341,1.225-2.857,1.691-4.315l-3.907-0.815
		c-1.866,6.297-5.772,11.312-11.137,14.46c0.933,0.7,2.391,2.1,2.974,2.857c3.382-2.332,6.413-5.481,8.746-9.271
		c2.216,1.691,4.664,3.615,5.89,5.073l2.273-2.916C249.307,191.383,246.566,189.283,244.117,187.768z"/>
	<path fill="#FFFFFF" d="M260.561,188.234c0.642-1.574,1.107-3.324,1.457-5.073l-3.907-0.583
		c-1.282,6.297-4.372,11.254-9.096,14.344c0.934,0.7,2.332,2.1,2.916,2.857c2.915-2.1,5.306-4.898,7.055-8.28
		c3.44,2.391,7.056,5.364,9.038,7.405l2.565-2.915C268.432,193.715,264.233,190.566,260.561,188.234z"/>
	<path fill="#FFFFFF" d="M266.916,167.301h-13.294v13.994h13.294V167.301z M263.417,178.146h-6.472v-7.639h6.472V178.146z"/>
	<path fill="#FFFFFF" d="M254.612,147.418l-4.197-1.341c-3.267,5.422-9.563,11.194-16.561,14.868
		c0.934,0.642,2.274,2.041,2.916,2.857c2.157-1.225,4.256-2.565,6.238-4.082v3.382h17.377v-3.498h-17.202
		c2.975-2.216,5.656-4.723,7.988-7.405c4.782,4.314,11.837,8.63,17.785,11.195c0.349-1.107,1.224-2.857,1.981-3.907
		c-5.946-2.099-13.235-6.063-17.608-10.146C253.797,148.701,254.205,148.06,254.612,147.418z"/>
	<path fill="#FFFFFF" d="M234.729,178.03c0-3.558-0.933-7.756-4.898-12.537c1.866-4.664,3.849-10.437,5.481-15.16l-2.683-1.69
		l-0.642,0.233h-12.244v50.729h3.731v-46.822h6.939c-1.05,3.907-2.683,8.979-4.257,13.119c3.849,4.606,4.84,8.63,4.84,11.778
		c0,1.808-0.351,3.383-1.167,4.023c-0.408,0.35-1.05,0.525-1.691,0.525c-0.932,0.058-1.924,0.058-3.265-0.059
		c0.7,1.107,1.05,2.74,1.108,3.849c1.166,0.058,2.565,0.058,3.673-0.059c1.108-0.175,2.158-0.525,2.915-1.107
		C234.088,183.686,234.729,181.179,234.729,178.03z"/>
	<path fill="#FFFFFF" d="M298.406,145.377c-6.997,7.114-11.604,16.385-11.604,27.755s4.606,20.642,11.604,27.755l3.498-1.808
		c-6.705-6.938-10.845-15.568-10.845-25.947s4.14-19.009,10.845-25.947L298.406,145.377z"/>
	<path fill="#FFFFFF" d="M310.014,184.853h4.606v-3.149h14.752v18.076h4.724v-18.076h14.577v2.974h4.78v-34.519h-43.439V184.853z
		 M334.096,154.415h14.577v9.446h-14.577V154.415z M334.096,168.117h14.577v9.271h-14.577V168.117z M314.62,154.415h14.752v9.446
		H314.62V154.415z M314.62,168.117h14.752v9.271H314.62V168.117z"/>
	<polygon fill="#FFFFFF" points="392.468,186.368 410.076,186.368 410.076,182.403 392.468,182.403 392.468,175.872 
		388.094,175.872 388.094,182.403 369.785,182.403 369.785,186.368 388.094,186.368 388.094,193.715 363.779,193.715 
		363.779,197.797 416.141,197.797 416.141,193.715 392.468,193.715 	"/>
	<rect x="397.773" y="149.809" fill="#FFFFFF" width="4.022" height="19.417"/>
	<path fill="#FFFFFF" d="M410.484,177.039c1.749-0.7,2.216-1.808,2.216-4.198v-25.947h-4.141v25.83c0,0.816-0.232,1.05-1.106,1.05
		c-0.875,0.116-3.79,0.116-7.114,0c0.641,1.166,1.282,2.799,1.457,3.965C405.937,177.738,408.735,177.68,410.484,177.039z"/>
	<path fill="#FFFFFF" d="M387.569,177.039v-12.479h6.589v-3.848h-6.589v-7.989h5.422v-3.848h-26.122v3.848h5.423v7.522v0.467h-7.347
		v3.848h7.056c-0.7,3.906-2.507,7.813-7.58,10.904c0.816,0.641,2.273,2.215,2.856,3.031c5.89-3.731,8.047-8.921,8.747-13.936h7.463
		v12.479H387.569z M376.315,160.713v-0.351v-7.639h7.172v7.989H376.315z"/>
	<path fill="#FFFFFF" d="M419.702,147.185c6.706,6.938,10.846,15.568,10.846,25.947s-4.14,19.009-10.846,25.947l3.499,1.808
		c6.997-7.113,11.604-16.385,11.604-27.755s-4.606-20.641-11.604-27.755L419.702,147.185z"/>
	<rect y="0.032" fill="#FFFFFF" width="8.574" height="211.936"/>
	<path fill="#FFFFFF" d="M308.975,19.561c0,5.02,3.981,9.287,9.519,9.287c4.961,0,9.402-4.268,9.402-9.287
		c0-5.71-4.441-9.864-9.402-9.864C312.956,9.696,308.975,13.851,308.975,19.561z M318.493,10.619c4.846,0,8.422,3.865,8.422,8.941
		c0,5.02-3.576,8.768-8.422,8.768c-5.422,0-9.114-3.748-9.114-8.768C309.379,14.484,313.071,10.619,318.493,10.619z"/>
	<path fill="#FFFFFF" d="M319.878,16.676c0-0.519-0.52-0.807-0.864-0.807v1.384C319.358,17.253,319.878,17.253,319.878,16.676z"/>
	<path fill="#FFFFFF" d="M316.59,21.233c0,0.923,0.461,1.327,1.327,1.327v-2.077C317.051,20.714,316.59,20.714,316.59,21.233z"/>
	<path fill="#FFFFFF" d="M288.959,44.596c0.346,0.288,0.346,0.865,1.154,1.154c5.364,5.421,12.517,6.863,14.247,7.439
		c0.576,1.271,0.576,3,0,4.039c0,0.346,0,0.808,0,0.98h6.461c0.75-0.173,0.75-0.403,0.808-0.98c0.577-0.807,1.327-1.729,1.442-2.479
		c4.846,0.519,9.922,0.058,13.844-0.866c0,0.924-1.211,3.923-1.211,4.326h6.749c0.288-0.403,0.981-0.98,1.038-1.499
		c1.153-2.25,2.999-5.481,3.115-8.999c2.827-2.25,3.173-6.923,1.961-10.615c1.097-0.691,1.673-1.21,2.192-1.787
		c1.096,1.441,3.346,0.347,4.269-1.212c0-0.519-0.462-0.864-0.576-0.519c-0.578,1.499-2.308,2.077-3.577,1.038h-0.058
		c0.058-0.115,0.058-0.115,0.058-0.52c0.865-0.864,0.98-1.845,0.865-2.941c0-0.23-0.865-0.865-1.5-0.577
		c-0.576,0.347-0.576,1.558-0.576,2.077c0,0.577,0.115,1.441,0.576,1.961c0,0.461-0.461,0.461-0.461,0.461
		c-0.115,0.231-0.924,0.809-1.442,1.154c0-0.576-0.116-1.154-0.346-1.73c-0.23-0.404-0.23-0.923-0.692-0.981
		c-0.519-0.864-0.809-1.846-1.615-2.364c-0.404-0.23-0.692-0.23-1.039-0.23c0-0.347,0-0.347,0-0.347
		c-2.191-2.019-5.306-3.633-8.363-4.384c-1.212,1.558-2.942,2.653-4.73,3.288c1.442,0.288,2.941,0.288,4.153,1.096
		c0.173,0,0.577,0.347,0.173,0.577c0,0.346-0.173,0.346-0.347,0.346c-4.268-1.73-8.94-1.73-13.324,0
		c-0.231,0-0.577-0.346-0.577-0.576h-0.058c0,0,0.058-0.347,0.403-0.635c0.981-0.52,1.904-0.52,3-0.808
		c-1.442-0.635-3-1.385-4.384-2.827c-2.597,0.866-4.729,1.904-6.23,3.635c-1.73-1.962-3.979-4.037-6.808-3.635
		c0.866,0.866,1.213,3.115,1.385,4.846c-3.46,1.501-5.537,3.808-7.209,6.979c-0.577,0.231-1.039,0.231-2.424,0
		c-0.346,0-0.864,0-1.326,0C287.804,41.654,287.804,43.961,288.959,44.596z M340.24,32.136c0-0.462,0-0.98,0.52-0.98
		c0.058,0,0.058,0,0.058,0.346c0.058,0.635,0,1.501-0.058,2.077c-0.52-0.059-0.52-0.346-0.52-0.576
		C340.24,32.481,340.24,32.136,340.24,32.136z M298.304,36.231c0.462,0,1.096,0.519,1.096,1.211c0,0.52-0.634,1.038-1.096,1.038
		c-0.751,0-1.327-0.519-1.327-1.038C296.977,36.75,297.553,36.231,298.304,36.231z"/>
	<path fill="#FFFFFF" d="M318.493,27.521c4.5,0,8.018-3.923,8.018-7.961c0-4.615-3.518-8.479-8.018-8.479
		c-4.614,0-8.422,3.864-8.422,8.479C310.071,23.599,313.879,27.521,318.493,27.521z M316.59,16.965h-2.711
		c0-2.02,1.845-3.114,4.038-3.23v-0.75h1.097v0.75c1.96,0.116,3.518,1.211,3.518,3.23c0,2.135-1.558,2.596-3.518,3.058v2.538
		c0.634-0.404,0.864-0.635,0.864-1.847h3.115c0,2.596-2.02,3.866-3.979,3.866v1.038h-1.097V24.58c-2.193,0-4.038-1.097-4.038-3.636
		c0-1.384,1.787-2.479,4.038-3.402v-1.673C317.051,15.869,316.59,16.33,316.59,16.965z"/>
	<path fill="#FFFFFF" d="M310.071,10.273c0,0,0.52-2.654,1.5-3.346c0.058-0.692,2.941-0.923,2.941-0.923s-2.941-0.404-3.691-0.923
		c-0.288-0.692-0.75-3.462-0.75-3.462s-0.692,2.77-1.097,3.462c-0.634,0.519-3.402,0.923-3.402,0.923s2.826,0.519,3.692,0.923
		C309.726,7.619,310.071,10.273,310.071,10.273z"/>
	<path fill="#FFFFFF" d="M304.015,15.233c0.346,0.059,0.922,2.02,0.922,2.02s0.116-1.961,0.636-2.02
		c0.289-0.749,2.02-0.749,2.02-0.749s-2.02-0.634-2.02-0.924c-0.636-0.172-0.636-2.019-0.636-2.019s-0.576,1.847-1.269,2.192
		c-0.114,0.116-2.019,0.75-2.019,0.75S303.554,14.484,304.015,15.233z"/>
</g>
</svg>
