<?xml version="1.0" encoding="UTF-8" standalone="no"?>
<!-- Generator: Adobe Illustrator 16.0.0, SVG Export Plug-In . SVG Version: 6.00 Build 0)  -->
<!DOCTYPE svg  PUBLIC '-//W3C//DTD SVG 1.1//EN'  'http://www.w3.org/Graphics/SVG/1.1/DTD/svg11.dtd'>
<svg id="圖層_1" xmlns="http://www.w3.org/2000/svg" xml:space="preserve" height="36px" viewBox="0 0 36 36" width="36px" version="1.1" y="0px" x="0px" xmlns:xlink="http://www.w3.org/1999/xlink" enable-background="new 0 0 36 36">
				<path d="m28.404 13.569h-0.673c-0.423 0-0.766 0.343-0.766 0.766v0.945h-0.939v-6.646c0-2.442-1.987-4.429-4.43-4.429h-14.041c-2.445 0-4.429 1.983-4.429 4.429v6.646h-0.921v-0.945c0-0.423-0.343-0.766-0.765-0.766h-0.674c-0.422 0-0.766 0.343-0.766 0.765v3.152c0 0.423 0.344 0.766 0.766 0.766h0.674c0.422 0 0.765-0.343 0.765-0.766v-0.113h0.925v8.966c0 0.423 0.343 0.766 0.766 0.766h0.676v3.611c0 0.423 0.343 0.766 0.766 0.766h2.69c0.423 0 0.766-0.343 0.766-0.766v-3.611h11.566v3.611c0 0.423 0.343 0.766 0.765 0.766h2.691c0.422 0 0.765-0.343 0.765-0.766l0.006-3.615h0.677c0.423 0 0.766-0.342 0.766-0.765v-8.966h0.939v0.113c0 0.423 0.343 0.766 0.766 0.766h0.673c0.423 0 0.766-0.343 0.766-0.766v-3.152c-0.005-0.419-0.347-0.762-0.77-0.762zm-6.636-7.337c0.765 0 1.374 0.611 1.374 1.368 0 0.759-0.612 1.374-1.374 1.374-0.76 0-1.368-0.615-1.368-1.374 0-0.76 0.608-1.368 1.368-1.368zm-11.262 0.982c0-0.423 0.343-0.766 0.766-0.766h6.611c0.422 0 0.766 0.343 0.766 0.766v0.765c0 0.423-0.344 0.766-0.766 0.766h-6.611c-0.423 0-0.766-0.343-0.766-0.766v-0.765zm-3.125-0.982c0.759 0 1.374 0.611 1.374 1.368 0 0.759-0.615 1.374-1.374 1.374-0.76 0-1.375-0.615-1.375-1.374 0-0.76 0.619-1.368 1.375-1.368zm0 15.834c-0.76 0-1.375-0.615-1.375-1.368 0-0.765 0.615-1.374 1.375-1.374 0.759 0 1.374 0.612 1.374 1.374 0 0.75-0.615 1.368-1.374 1.368zm11.809 1.999c0 0.423-0.343 0.766-0.765 0.766h-7.702c-0.422 0-0.765-0.343-0.765-0.766l0.003-3.119c0-0.422 0.343-0.765 0.766-0.765h7.698c0.422 0 0.765 0.343 0.765 0.765v3.119zm2.578-1.999c-0.76 0-1.368-0.615-1.368-1.368 0-0.765 0.612-1.374 1.368-1.374 0.765 0 1.374 0.612 1.374 1.374 0 0.75-0.612 1.368-1.374 1.368zm2.038-5.206c0 0.422-0.343 0.765-0.765 0.765h-16.936c-0.423 0-0.766-0.343-0.766-0.765v-5.746c0-0.423 0.343-0.766 0.766-0.766h16.937c0.422 0 0.765 0.343 0.765 0.766v5.746z" fill="#fff"/>
		<circle cy="16.874" cx="33.169" r="2.831" fill="#fff"/>
		<path d="m33.418 31.126c0 0.137-0.111 0.248-0.249 0.248s-0.249-0.111-0.249-0.248v-12.55c0-0.137 0.111-0.248 0.249-0.248s0.249 0.111 0.249 0.248v12.55z" fill="#fff"/>
		<path d="m34.863 31.795h-33.212c-0.211 0-0.383-0.171-0.383-0.383 0-0.211 0.172-0.382 0.383-0.382h33.212c0.211 0 0.383 0.171 0.383 0.382 0 0.213-0.172 0.383-0.383 0.383z" fill="#fff"/>
</svg>
