<?xml version="1.0" encoding="UTF-8" standalone="no"?>
<!-- Generator: Adobe Illustrator 16.0.0, SVG Export Plug-In . SVG Version: 6.00 Build 0)  -->
<!DOCTYPE svg  PUBLIC '-//W3C//DTD SVG 1.1//EN'  'http://www.w3.org/Graphics/SVG/1.1/DTD/svg11.dtd'>
<svg id="Layer_1" xmlns="http://www.w3.org/2000/svg" xml:space="preserve" height="36px" viewBox="0 0 36 36" width="36px" version="1.1" y="0px" x="0px" xmlns:xlink="http://www.w3.org/1999/xlink" enable-background="new 0 0 36 36">
		<path d="m6.413 17.855c-1.472 0-2.669 1.197-2.669 2.669v3.304c0 1.472 1.197 2.67 2.669 2.67h0.711c0.546 1.242 1.331 2.38 2.308 3.347l-0.321 0.321c-1.218 1.218-1.218 3.2 0 4.419 0.591 0.591 1.375 0.915 2.209 0.915s1.619-0.324 2.209-0.914l1.633-1.634c1.797 0.416 3.772 0.467 5.623 0.135l1.499 1.498c0.589 0.591 1.374 0.915 2.209 0.915s1.62-0.324 2.209-0.915c1.196-1.196 1.219-3.129 0.065-4.352 2.316-2.065 3.625-4.95 3.625-8.057 0-1.563-0.316-3.033-0.896-4.36 1.82-0.445 2.589-1.812 2.742-2.599 0.095-0.482-0.221-0.95-0.702-1.043-0.479-0.093-0.941 0.214-1.042 0.69-0.031 0.136-0.329 1.166-1.903 1.304-2.094-3.123-5.835-5.12-10.285-5.12-0.645 0-1.306 0.047-1.968 0.141l-5.508-2.104c-0.315-0.122-0.672-0.052-0.921 0.176-0.247 0.229-0.344 0.579-0.249 0.904l0.968 3.315c-1.553 1.155-2.751 2.649-3.507 4.375h-0.708zm-0.89 2.67c0-0.491 0.399-0.89 0.89-0.89h1.308c0.372 0 0.706-0.231 0.834-0.581 0.672-1.816 1.916-3.362 3.595-4.469 0.327-0.215 0.475-0.617 0.365-0.992l-0.645-2.207 4.052 1.547c0.145 0.056 0.303 0.072 0.456 0.048 0.65-0.102 1.298-0.154 1.928-0.154 5.876 0 10.307 4.019 10.307 9.348 0 2.877-1.348 5.527-3.699 7.274-0.208 0.153-0.339 0.392-0.357 0.648-0.019 0.258 0.075 0.512 0.259 0.694l0.629 0.63c0.525 0.524 0.525 1.378 0 1.902-0.254 0.254-0.591 0.394-0.951 0.394-0.358 0-0.698-0.14-0.951-0.394l-1.834-1.835c-0.215-0.214-0.522-0.306-0.819-0.24-0.835 0.182-1.704 0.273-2.582 0.273-1.1 0-2.169-0.141-3.179-0.419-0.078-0.021-0.158-0.031-0.236-0.031-0.233 0-0.459 0.091-0.629 0.26l-1.991 1.992c-0.254 0.253-0.592 0.394-0.951 0.394s-0.697-0.141-0.951-0.394c-0.524-0.524-0.524-1.378 0-1.902l0.981-0.98c0.177-0.178 0.271-0.421 0.26-0.67-0.011-0.251-0.128-0.485-0.32-0.645-1.241-1.029-2.185-2.354-2.732-3.832-0.129-0.348-0.462-0.58-0.834-0.58h-1.313c-0.49 0-0.89-0.398-0.89-0.889v-3.3zm0 3.303" fill="#fff"/>
	<path d="m11.528 19.63c0-0.683 0.553-1.236 1.235-1.236s1.237 0.553 1.237 1.236-0.554 1.236-1.236 1.236-1.236-0.553-1.236-1.236z" fill="#fff"/>
	<path d="m22.091 15.265c0 0.323-0.262 0.585-0.585 0.585h-3.729c-0.323 0-0.585-0.262-0.585-0.585s0.262-0.585 0.585-0.585h3.729c0.323 0 0.585 0.262 0.585 0.585z" fill="#fff"/>
		<path d="m19.331 8.422c-2.185 0-3.962-1.776-3.962-3.961 0-2.184 1.777-3.961 3.962-3.961 2.184 0 3.961 1.777 3.961 3.961 0 2.185-1.777 3.961-3.961 3.961zm0-7.176c-1.773 0-3.216 1.442-3.216 3.215s1.443 3.215 3.216 3.215c1.772 0 3.215-1.442 3.215-3.215s-1.442-3.215-3.215-3.215z" fill="#fff"/>
			<path d="m18.969 7.25v-0.65c-0.458-0.02-0.902-0.144-1.163-0.293l0.206-0.799c0.287 0.157 0.69 0.3 1.134 0.3 0.391 0 0.656-0.15 0.656-0.423 0-0.26-0.218-0.423-0.724-0.594-0.731-0.246-1.231-0.588-1.231-1.251 0-0.601 0.425-1.073 1.156-1.216v-0.652h0.67v0.601c0.458 0.021 0.766 0.117 0.99 0.226l-0.197 0.773c-0.178-0.076-0.493-0.233-0.984-0.233-0.444 0-0.588 0.191-0.588 0.383 0 0.226 0.239 0.369 0.82 0.588 0.813 0.287 1.141 0.663 1.141 1.278 0 0.608-0.43 1.128-1.216 1.265v0.697h-0.67z" fill="#fff"/>
	<path d="m22.382 7.597c-0.426 0.955-1.632 1.645-3.051 1.645-1.42 0-2.625-0.69-3.051-1.645h-0.779c0.449 1.267 1.995 2.203 3.83 2.203 1.833 0 3.38-0.936 3.829-2.203h-0.778z" fill="#fff"/>
</svg>
