<?xml version="1.0" encoding="UTF-8" standalone="no"?>
<!-- Generator: Adobe Illustrator 16.0.0, SVG Export Plug-In . SVG Version: 6.00 Build 0)  -->
<!DOCTYPE svg  PUBLIC '-//W3C//DTD SVG 1.1//EN'  'http://www.w3.org/Graphics/SVG/1.1/DTD/svg11.dtd'>
<svg id="Layer_1" xmlns="http://www.w3.org/2000/svg" xml:space="preserve" height="36px" viewBox="0 0 36 36" width="36px" version="1.1" y="0px" x="0px" xmlns:xlink="http://www.w3.org/1999/xlink" enable-background="new 0 0 36 36">
<g fill="#fff">
	<path d="m33.903 8.427c-0.301-0.187-2.574-1.57-2.574-1.57s1.641-4.699 1.5-5.351c-0.145-0.649-0.84-0.903-0.84-0.903l-2.77 5.11-2.844-1.235-0.015-1.867-0.871-0.773s-0.254 2.128-0.617 2.644c-0.359 0.516-1.781 1.484-1.781 1.484l0.75 0.758 1.941-1.047 2.391 1.661-2.893 4.838c-0.107-0.173-0.216-0.346-0.329-0.508l1.011-1.625-0.502-0.241c-1.767-0.85-3.661-1.28-5.704-1.28-3.848 0.024-7.472 1.738-9.944 4.705-0.22 0.265-0.432 0.538-0.624 0.815-1.571 2.213-2.401 4.814-2.401 7.523 0 2.706 0.83 5.307 2.398 7.518 0.195 0.279 0.407 0.553 0.627 0.818 2.469 2.965 6.093 4.68 9.99 4.703h0.027c3.878 0 7.53-1.714 10.021-4.704 0.219-0.264 0.426-0.535 0.624-0.814 1.568-2.215 2.397-4.817 2.397-7.524 0-2.705-0.829-5.305-2.397-7.518-0.197-0.281-0.405-0.553-0.625-0.818-0.413-0.494-0.886-0.968-1.443-1.452l-0.357-0.31-1.414 1.461 0.397 0.346c0.311 0.271 0.584 0.53 0.827 0.782-0.411 0.236-0.861 0.455-1.345 0.655-0.282-0.756-0.612-1.453-0.977-2.094 0.229 0.157 0.541 0.284 0.854 0.112 0.586-0.32 3.473-4.027 3.473-4.027s2.801 1.566 3.098 1.633c0.297 0.07 1.035 0.461 1.406-0.43s-0.164-1.291-0.465-1.475zm-15.087 2.289v5.189c-1.334-0.067-2.615-0.262-3.819-0.58 0.91-2.443 2.293-4.106 3.819-4.609zm-5.721 17.725c0.378 1.01 0.835 1.925 1.358 2.723-0.979-0.552-1.875-1.255-2.654-2.086 0.405-0.232 0.838-0.445 1.296-0.637zm0.9-5.455h4.821v2.206c-1.528 0.07-3.003 0.299-4.396 0.681-0.213-0.925-0.356-1.892-0.425-2.887zm4.818-2.031h-4.861c0.04-1.28 0.198-2.521 0.472-3.703 1.391 0.382 2.863 0.61 4.389 0.682v3.021zm-7.015-6.907c0.777-0.832 1.674-1.536 2.658-2.09-0.524 0.8-0.982 1.718-1.357 2.727-0.464-0.193-0.899-0.406-1.301-0.637zm-2.96 6.911c0.105-1.897 0.696-3.721 1.728-5.327 0.586 0.358 1.235 0.684 1.938 0.971-0.345 1.394-0.54 2.855-0.58 4.356h-3.086zm3.666 5.563c-0.697 0.286-1.346 0.611-1.938 0.972-0.877-1.368-1.442-2.909-1.653-4.508h3.049c0.079 1.213 0.261 2.399 0.542 3.536zm6.312 0.699v5.188c-1.527-0.503-2.911-2.165-3.819-4.608 1.199-0.319 2.48-0.513 3.819-0.58zm2.029-11.315v-5.171c1.505 0.527 2.866 2.187 3.762 4.604-1.19 0.312-2.451 0.502-3.762 0.567zm6.832 5.049c-0.04-1.49-0.233-2.942-0.576-4.329 0.721-0.293 1.389-0.626 1.992-0.995 1.033 1.607 1.626 3.43 1.731 5.324h-3.147zm3.07 2.031c-0.209 1.599-0.772 3.14-1.65 4.507-0.609-0.371-1.277-0.705-1.996-0.995 0.278-1.124 0.459-2.301 0.538-3.512h3.108zm-9.902 9.405v-5.167c1.319 0.064 2.582 0.253 3.766 0.563-0.896 2.416-2.258 4.076-3.766 4.604zm0-7.199v-2.206h4.764c-0.069 0.989-0.212 1.951-0.425 2.872-1.373-0.372-2.829-0.595-4.339-0.666zm7.018 3.886c-0.806 0.86-1.734 1.582-2.753 2.143 0.542-0.816 1.016-1.759 1.404-2.801 0.48 0.198 0.931 0.418 1.349 0.658zm-7.018-8.119v-3.025c1.51-0.071 2.963-0.294 4.334-0.664 0.274 1.188 0.433 2.425 0.47 3.689h-4.804z"/>
	<path d="m3.556 21.26c0-9.171 7.461-16.632 16.636-16.632 0.949 0 1.875 0.093 2.777 0.246l1.055-0.649 0.348-1.152c-1.191-0.238-2.922-0.496-4.18-0.496-10.304 0-18.687 8.383-18.687 18.683 0 1.086 0.055 2.102 0.176 3.066 0.515 4.047 5.664 11.07 9.754 11.07-4.426-3.167-7.879-8.175-7.879-14.136z"/>
</g>
</svg>
