<?xml version="1.0" encoding="utf-8"?>
<!-- Generator: Adobe Illustrator 16.0.0, SVG Export Plug-In . SVG Version: 6.00 Build 0)  -->
<!DOCTYPE svg PUBLIC "-//W3C//DTD SVG 1.1//EN" "http://www.w3.org/Graphics/SVG/1.1/DTD/svg11.dtd">
<svg version="1.1" id="Layer_1" xmlns="http://www.w3.org/2000/svg" xmlns:xlink="http://www.w3.org/1999/xlink" x="0px" y="0px"
	 width="400px" height="58px" viewBox="0 0 400 58" enable-background="new 0 0 400 58" xml:space="preserve">
<g>
	<g>
		<g>
			<path d="M297.914,38.254h2.037c0.039,0,0.074-0.023,0.074-0.064l-0.301-5.705c0-0.227-0.188-0.41-0.415-0.41h-2.251
				c-0.131,0-0.233,0.104-0.233,0.232v0.002l0.854,5.711C297.686,38.148,297.786,38.254,297.914,38.254z M308.547,32.08
				l-2.258-0.006c-0.223,0-0.411,0.184-0.411,0.41l-0.301,5.709c0,0.037,0.024,0.066,0.064,0.066h2.041
				c0.128,0,0.232-0.105,0.232-0.234l0.858-5.711v-0.002C308.773,32.182,308.67,32.08,308.547,32.08z M305.409,14.816h-5.173
				c-0.512-0.026-0.848,0.283-0.969,0.765c-0.059,0.156-0.107,0.313-0.167,0.471c-1.044,2.79-2.453,4.677-3.762,6.022v1.632
				c0,0.183,0.146,0.333,0.33,0.333c0.038,0,0.072-0.009,0.099-0.02c0.043-0.024,0.096-0.053,0.136-0.076
				c3.345-1.974,5.507-4.256,6.899-6.911c1.268,2.41,3.179,4.476,6.015,6.348c0.042,0.025,0.082,0.05,0.12,0.077
				c0.04,0.011,0.075,0.021,0.119,0.021c0.14,0,0.26-0.093,0.311-0.222v-1.961c-1.019-1.088-2.027-3.115-2.825-5.244
				C306.327,15.457,306.213,14.777,305.409,14.816z M309.124,38.867h-0.01c-1.523,0.451-3.158,0.83-4.768,1.148l0.003-9.539h4.369
				c0.217,0,0.396-0.178,0.396-0.404l0.004-1.322c0-0.218-0.181-0.398-0.399-0.398h-4.369v-2.923h3.347
				c0.219,0,0.396-0.177,0.396-0.397v-1.325c0-0.22-0.178-0.399-0.396-0.399h-9.785c-0.226,0-0.403,0.171-0.403,0.399v1.318
				c0,0.222,0.178,0.401,0.399,0.401h3.353l-0.003,2.924h-4.368c-0.221,0-0.402,0.182-0.402,0.4v1.322c0,0.223,0.182,0.4,0.402,0.4
				h4.368l-0.005,10.08c-2.264,0.344-4.255,0.539-5.5,0.572h-0.02c-0.219,0-0.398,0.176-0.398,0.396v2.025
				c0,0.223,0.18,0.4,0.398,0.4h0.021h0.014c2.958-0.121,9.318-1.295,13.227-3.067c0,0,0.243-0.103,0.243-0.37v-1.564
				C309.237,38.885,309.192,38.84,309.124,38.867z M323.21,37.176c0.976-1.896,1.647-3.955,2.127-5.961
				c0.126-0.632-0.411-0.553-0.411-0.553h-2.334c-0.18,1.486-0.55,2.941-0.99,4.219c-1.028-1.728-1.785-3.623-2.062-5.563h3.972
				c0.012,0,0.012,0,0.027,0h1.58c0.218,0,0.399-0.176,0.399-0.397V16.339c0-1.032-0.866-1.526-1.636-1.526h-12.775
				c-0.219,0-0.398,0.18-0.398,0.398l-0.014,28.311c0,0.232,0.193,0.426,0.412,0.426c0.016,0,0.016,0,0.016,0
				c1.812-0.109,5.163-0.797,8.005-1.842c0-0.014,0.016-0.014,0.016-0.014c0.15-0.055,0.262-0.203,0.262-0.383v-1.844
				c0,0,0-0.094-0.124-0.066c-1.949,0.441-3.875,0.729-5.496,0.908v-11.39h2.104c1.786,6.472,5.837,11.716,11.004,14.603h0.011
				c0.043,0.027,0.097,0.041,0.15,0.041c0.221,0,0.388-0.18,0.4-0.385c0-0.014,0-0.014,0-0.014v-2.389
				C325.983,40.17,324.487,38.78,323.21,37.176z M313.801,17.244h8.625v3.614h-8.625V17.244z M313.801,26.886v-3.609h8.625v3.609
				H313.801z"/>
			<path d="M249.13,22.918h-4.313v-6.043c0-0.962-0.781-1.746-1.742-1.746l-1.857-0.016c-0.204,0-0.367,0.167-0.383,0.374
				c0,0.015-0.027,0.027-0.027,0.042l0.014,7.39h-6.523v-7.39c0-0.235-0.164-0.416-0.386-0.416h-1.84
				c-0.975,0-1.757,0.786-1.757,1.762v6.043h-5.673v-6.606c0-0.222-0.178-0.4-0.399-0.4h-1.841c-0.963,0-1.749,0.768-1.749,1.745
				v5.261h-2.966c-0.164,0-0.313,0.15-0.313,0.327v1.746c0,0.178,0.148,0.315,0.313,0.315h2.955v16.868
				c0,0.965,0.783,1.758,1.76,1.758h25.26c0.222,0,0.397-0.178,0.397-0.396v-1.594c0-0.219-0.176-0.412-0.397-0.412h-23.02V25.306
				h5.673v8.915c0,0.961,0.782,1.76,1.74,1.76h11.003c0.963,0,1.759-0.783,1.759-1.76v-8.915h4.313c0.18,0,0.332-0.137,0.332-0.315
				v-1.746C249.462,23.068,249.31,22.918,249.13,22.918z M240.821,33.551h-6.523v-8.245h6.523V33.551z"/>
			<path d="M345.157,21.813h-3.314c-1.106,1.441-3.38,4.626-7.341,5.972h-0.007c-0.023,0-0.135,0.087-0.14,0.136c0,0,0,0,0,0.011
				v1.613c0,0-0.094,0.726,0.615,0.483c1.149-0.387,2.162-0.804,3.068-1.25v13.406c0,0.969,0.784,1.756,1.75,1.756h1.834
				c0.22,0,0.4-0.18,0.4-0.402l0.006-17.334c1.681-1.454,2.646-2.888,3.368-3.958C345.652,21.757,345.157,21.813,345.157,21.813z
				 M345.166,14.816h-3.313c-1.108,1.436-3.383,4.624-7.343,5.969v-0.003c-0.026,0-0.139,0.09-0.139,0.138
				c0,0-0.007,0.005-0.007,0.008v1.62c0,0-0.09,0.724,0.612,0.481c6.754-2.257,9.032-5.715,10.43-7.775
				C345.66,14.759,345.166,14.816,345.166,14.816z M348.711,18.272h15.839c0.175,0,0.316-0.145,0.316-0.317v-1.753
				c0-0.181-0.142-0.322-0.316-0.322h-15.839c-0.175,0-0.317,0.141-0.317,0.322v1.753C348.394,18.127,348.536,18.272,348.711,18.272
				z M365.973,23.94h-19.155c-0.179,0-0.32,0.142-0.32,0.314v1.758c0,0.172,0.142,0.317,0.32,0.317h10.99V40.5
				c-0.021,0.861-0.248,1.332-1.671,1.332h-1.438c-0.097,0-0.11,0.063-0.116,0.096v1.697c0,0.174,0.144,0.316,0.322,0.316h0.174
				h0.001h2.168c0.25,0,0.48-0.002,0.7-0.004c2.891-0.076,3.855-0.682,3.855-3.457V26.33h4.17c0.184,0,0.324-0.145,0.324-0.317
				v-1.758C366.297,24.082,366.156,23.94,365.973,23.94z"/>
			<path d="M156.565,34.355v1.475c0,0.219-0.206,0.301-0.206,0.301c-1.606,0.715-3.694,1.346-5.7,1.813
				c-2.008,0.469-3.929,0.77-5.141,0.811h-0.023c-0.182,0-0.317-0.137-0.317-0.314v-2.363c0-0.176,0.136-0.33,0.33-0.33h0.01
				c2.147-0.055,6.857-0.439,10.812-1.578C156.33,34.168,156.565,34.096,156.565,34.355z M156.565,26.036v4.917
				c0,0.947-0.768,1.715-1.717,1.715h-7.953c-0.946,0-1.716-0.768-1.716-1.715v-4.917c0-0.948,0.771-1.718,1.716-1.718h7.953
				C155.797,24.318,156.565,25.088,156.565,26.036z M152.772,26.116h-3.787l-0.017,4.753h3.804V26.116z M156.565,26.036v4.917
				c0,0.947-0.768,1.715-1.717,1.715h-7.953c-0.946,0-1.716-0.768-1.716-1.715v-4.917c0-0.948,0.771-1.718,1.716-1.718h7.953
				C155.797,24.318,156.565,25.088,156.565,26.036z M152.772,26.116h-3.787l-0.017,4.753h3.804V26.116z M156.565,35.83v-1.475
				c0-0.26-0.235-0.188-0.235-0.188c-3.955,1.139-8.664,1.523-10.812,1.578h-0.01c-0.194,0-0.33,0.154-0.33,0.33v2.363
				c0,0.178,0.136,0.314,0.317,0.314h0.023c1.212-0.041,3.133-0.342,5.141-0.811c2.006-0.467,4.093-1.098,5.7-1.813
				C156.359,36.131,156.565,36.049,156.565,35.83z M171.207,17.133l-0.013,25.097c0,0.947-0.769,1.717-1.717,1.717h-27.98
				c-0.947,0-1.716-0.783-1.716-1.732V17.118c0-0.945,0.785-1.714,1.729-1.714h27.982C170.439,15.404,171.207,16.173,171.207,17.133
				z M160.26,20.361h2.843c-0.178-1.234-0.358-2.223-0.477-2.854h-2.406C160.203,18.041,160.192,19.043,160.26,20.361z
				 M143.694,20.361h13.656c-0.139-1.317-0.178-2.32-0.193-2.854h-13.451L143.694,20.361z M167.297,17.507h-1.846
				c0.164,0.891,0.453,2.483,0.744,4.079c0.04,0.891-0.687,0.891-0.687,0.891h-5.083c0.246,2.404,0.741,5.371,1.721,8.379
				c0.543-1.019,1.04-2.046,1.465-3.048c0.083-0.247,0.302-0.149,0.302-0.149l2.021,0.82c0,0,0.234,0.083,0.095,0.344
				c-0.793,1.622-1.717,3.298-2.8,4.864c0.878,2.004,2.018,3.969,3.475,5.699c0.153,0.137,0.025,0.234,0.025,0.234l-0.96,1.125
				c0,0-0.153,0.15-0.316-0.039c-1.539-1.402-2.788-3.092-3.8-4.932c-1.53,1.826-3.299,3.434-5.361,4.598
				c-0.205,0.154-0.301-0.092-0.301-0.092l-0.63-1.209c0,0-0.126-0.191,0.052-0.292c1.978-1.358,3.669-3.226,5.111-5.302
				c-1.663-3.789-2.514-7.871-2.938-11.001h-13.89v19.369h23.603V17.507z M156.565,26.036v4.917c0,0.947-0.768,1.715-1.717,1.715
				h-7.953c-0.946,0-1.716-0.768-1.716-1.715v-4.917c0-0.948,0.771-1.718,1.716-1.718h7.953
				C155.797,24.318,156.565,25.088,156.565,26.036z M152.772,26.116h-3.787l-0.017,4.753h3.804V26.116z M156.33,34.168
				c-3.955,1.139-8.664,1.523-10.812,1.578h-0.01c-0.194,0-0.33,0.154-0.33,0.33v2.363c0,0.178,0.136,0.314,0.317,0.314h0.023
				c1.212-0.041,3.133-0.342,5.141-0.811c2.006-0.467,4.093-1.098,5.7-1.813c0,0,0.206-0.082,0.206-0.301v-1.475
				C156.565,34.096,156.33,34.168,156.33,34.168z"/>
			<path d="M194.887,30.778h-1.801c-0.214,0-0.393,0.177-0.393,0.393v9.325c-0.022,0.861-0.169,1.332-1.58,1.336h-0.815
				c-0.131,0-0.117,0.113-0.117,0.113v1.511c0,0.272,0.219,0.485,0.487,0.485h1.485c3.375,0.002,4.445-0.453,4.449-3.389
				l0.002-8.059C196.604,31.553,195.834,30.778,194.887,30.778z M210.146,26.83h-19.905c0.704-0.904,1.354-1.822,1.941-2.722h14.204
				c0.18,0,0.321-0.141,0.321-0.321v-1.716c0-0.177-0.142-0.321-0.321-0.321h-12.773c0.554-0.974,1.027-1.894,1.419-2.716h13.979
				c0.173,0,0.317-0.144,0.317-0.321v-1.721c0-0.178-0.145-0.319-0.317-0.319h-12.931c0.137-0.343,0.249-0.638,0.322-0.857
				c0.106-0.317,0.092-0.555-0.267-0.643c-0.758-0.162-2.306-0.479-2.759-0.596c-0.605-0.15-0.707,0.458-0.707,0.458l-0.256,0.809
				c-0.078,0.252-0.178,0.529-0.286,0.829h-11.532c-0.178,0-0.321,0.142-0.321,0.319v1.721c0,0.178,0.143,0.321,0.321,0.321h10.569
				c-0.379,0.855-0.827,1.768-1.33,2.716h-6.671c-0.179,0-0.322,0.145-0.322,0.321v1.716c0,0.18,0.143,0.321,0.322,0.321h5.305
				c-0.572,0.917-1.2,1.831-1.878,2.722h-7.24c-0.177,0-0.317,0.14-0.317,0.317v1.722c0,0.173,0.14,0.32,0.317,0.32h5.223
				c-1.549,1.612-3.296,3.01-5.242,3.932c-0.51,0.17-0.267,0.623-0.267,0.623l0.374,0.915c0,0,0.131,0.38,0.583,0.208
				c1.232-0.443,2.388-1.029,3.482-1.719c2.545,0.631,5.589,2.004,6.347,2.324c0.24,0.121,0.337-0.068,0.337-0.068l0.925-1.938
				c0,0,0.154-0.246-0.104-0.363c-1.061-0.457-3.445-1.143-5.304-1.557c0.893-0.727,1.734-1.525,2.522-2.357h12.47
				c0.75,0.781,1.598,1.526,2.512,2.225c-1.483,0.693-3.887,1.225-5.222,1.381c-0.172,0.02-0.246,0.133-0.194,0.33
				c0.257,0.77,0.335,1.377,0.589,2.145c0.088,0.252,0.207,0.246,0.38,0.203c0.89-0.127,4.733-1.568,6.412-2.703
				c1.378,0.857,2.833,1.58,4.274,2.107c0.451,0.168,0.586-0.207,0.586-0.207l0.376-0.92c0,0,0.244-0.453-0.264-0.621
				c-1.952-0.924-4.177-2.32-5.824-3.939h5.824c0.176,0,0.321-0.146,0.321-0.32v-1.722C210.468,26.97,210.322,26.83,210.146,26.83z
				 M191.451,38.414c-0.094-0.688-0.119-0.598-0.258-1.298c-0.007-0.108-0.135-0.241-0.313-0.169
				c-3.178,1.652-6.336,2.471-9.785,3.426c-0.205,0.076-0.267,0.219-0.18,0.404c0.281,0.598,0.757,1.646,0.958,2.092
				c0.073,0.15,0.29,0.275,0.532,0.18c2.805-0.945,6.333-2.732,8.897-4.211C191.473,38.717,191.478,38.6,191.451,38.414z
				 M207.912,40.51c-2.865-1.346-6.205-2.518-9.192-3.199c-0.283-0.092-0.332,0.125-0.332,0.125l-0.582,1.254
				c0,0-0.132,0.268,0.126,0.361c2.874,1.252,5.396,2.256,8.09,3.867c0.279,0.119,0.609,0.109,0.8-0.145
				c0.5-0.736,0.707-1.078,1.209-1.816C208.136,40.793,208.082,40.605,207.912,40.51z"/>
			<path d="M288.106,16.686h-7.205c-0.095-0.877-0.83-1.569-1.733-1.569h-1.597c-0.221,0-0.404,0.184-0.404,0.4v1.168h-9.558v-1.168
				c0-0.216-0.182-0.4-0.406-0.4h-1.594c-0.903,0-1.637,0.692-1.734,1.569h-7.202c-0.175,0-0.321,0.138-0.321,0.318v1.648
				c0,0.177,0.146,0.318,0.321,0.318h7.185v1.283c0,0.225,0.182,0.402,0.402,0.402h2.95c0.221-0.002,0.399-0.183,0.399-0.402V18.97
				h9.558v1.283c0,0.219,0.18,0.4,0.401,0.402h2.946c0.225,0,0.405-0.177,0.405-0.402V18.97h7.187c0.176,0,0.32-0.142,0.32-0.318
				v-1.648C288.427,16.824,288.282,16.686,288.106,16.686z M288.102,29.538c0.179,0,0.329-0.151,0.329-0.317v-1.66
				c0-0.167-0.15-0.316-0.329-0.316h-5.234v-2.997h2.872c0.179,0,0.328-0.136,0.328-0.314v-1.65c0-0.178-0.149-0.314-0.328-0.314
				h-26.705c-0.176,0-0.317,0.136-0.317,0.314v1.65c0,0.178,0.142,0.314,0.317,0.314h2.872v2.997h-5.233
				c-0.179,0-0.315,0.149-0.315,0.316v1.66c0,0.166,0.137,0.317,0.315,0.317h5.233v2.994h-2.872c-0.176,0-0.317,0.137-0.317,0.318
				v1.646c0,0.178,0.142,0.316,0.317,0.316h11.483v2.994h-13.845c-0.179,0-0.315,0.154-0.315,0.316v1.648
				c0,0.178,0.137,0.314,0.315,0.314h13.845v2.104c0,0.961,0.785,1.758,1.759,1.758h1.595c0.219,0,0.397-0.178,0.397-0.4v-3.461
				h13.833c0.179,0,0.329-0.137,0.329-0.314v-1.648c0-0.162-0.15-0.316-0.329-0.316h-13.833v-2.994h11.471
				c0.179,0,0.328-0.139,0.328-0.316V32.85c0-0.182-0.149-0.318-0.328-0.318h-2.872v-2.994H288.102z M270.518,32.531h-4.862v-2.994
				h4.862V32.531z M270.518,27.245h-4.862v-2.997h4.862V27.245z M279.118,32.531h-4.85v-2.994h4.85V32.531z M279.118,27.245h-4.85
				v-2.997h4.85V27.245z"/>
		</g>
		<g>
			<linearGradient id="SVGID_1_" gradientUnits="userSpaceOnUse" x1="89.248" y1="-0.7461" x2="53.1674" y2="43.8098">
				<stop  offset="0" style="stop-color:#6CB645"/>
				<stop  offset="0.3455" style="stop-color:#42A747"/>
				<stop  offset="0.7821" style="stop-color:#12964A"/>
				<stop  offset="1" style="stop-color:#00904B"/>
			</linearGradient>
			<path fill="url(#SVGID_1_)" d="M64.996,18.528c14.046-6.302,28.304-8.125,39.253-5.871c-1.225-0.555-2.461-1.511-3.213-2.867
				c-2.016-3.643-5.975-5.81-10.503-5.305c-1.863,0.203-3.705-0.264-4.916-1.093c-1.702-1.157-3.626-1.879-5.948-1.879
				c-2.325,0-4.249,0.722-5.953,1.879c-1.212,0.829-3.053,1.295-4.918,1.093c-4.525-0.504-8.485,1.663-10.504,5.305
				c-0.896,1.621-2.478,2.659-3.929,3.15c-3.599,1.225-6.575,4.513-6.964,8.797c-0.194,2.015-1.378,3.607-2.267,4.495
				c-2.423,2.423-3.431,5.253-3.431,8.146c0,0.049,0,0.098,0,0.146C47.62,28.366,55.587,22.748,64.996,18.528z"/>
			<linearGradient id="SVGID_2_" gradientUnits="userSpaceOnUse" x1="100.5591" y1="-2.1177" x2="57.5348" y2="51.0128">
				<stop  offset="0" style="stop-color:#46AE49"/>
				<stop  offset="0.2309" style="stop-color:#2DA34A"/>
				<stop  offset="0.5193" style="stop-color:#14994A"/>
				<stop  offset="0.7838" style="stop-color:#05924B"/>
				<stop  offset="1" style="stop-color:#00904B"/>
			</linearGradient>
			<path fill="url(#SVGID_2_)" d="M77.397,26.786c12.004-5.386,24.165-7.502,34.279-6.595c-0.871-3.509-3.499-6.129-6.711-7.251l0,0
				c-0.235-0.077-0.475-0.174-0.716-0.283c-10.949-2.254-25.207-0.431-39.253,5.871c-9.409,4.22-17.376,9.838-23.293,15.998
				c0.066,5.689,4.314,10.373,9.816,11.129C57.605,38.384,66.548,31.65,77.397,26.786z"/>
			<g>
				<path fill="#00904B" d="M114.199,26.232c-0.889-0.887-2.075-2.479-2.26-4.495c-0.051-0.535-0.14-1.047-0.263-1.546
					c-10.114-0.907-22.274,1.208-34.279,6.595C66.548,31.65,57.605,38.384,51.52,45.654c0.509,0.072,1.031,0.107,1.562,0.107h16.34
					c1.551,0,2.808,1.285,2.808,2.838v0.658c0,2.613-2.58,2.965-2.58,2.965l-13.287,2.281c-0.467,0.076-0.875,0.402-0.875,0.869V57
					h48.357v-1.627c0-0.467-0.401-0.793-0.875-0.869l-13.284-2.281c0,0-2.582-0.352-2.582-2.965V48.6
					c0-1.553,1.256-2.838,2.807-2.838h16.342c6.285,0,11.376-5.096,11.376-11.383C117.629,31.485,116.622,28.656,114.199,26.232z"/>
			</g>
		</g>
	</g>
</g>
</svg>
