<?xml version="1.0" encoding="utf-8"?>
<!-- Generator: Adobe Illustrator 16.0.0, SVG Export Plug-In . SVG Version: 6.00 Build 0)  -->
<!DOCTYPE svg PUBLIC "-//W3C//DTD SVG 1.1//EN" "http://www.w3.org/Graphics/SVG/1.1/DTD/svg11.dtd">
<svg version="1.1" id="Layer_1" xmlns="http://www.w3.org/2000/svg" xmlns:xlink="http://www.w3.org/1999/xlink" x="0px" y="0px"
	 width="1500px" height="210px" viewBox="0 0 1500 210" enable-background="new 0 0 1500 210" xml:space="preserve">
<g>
	<path fill="#231F20" d="M1157.829,149.86h10.085c0.188,0,0.347-0.119,0.347-0.317l-1.486-28.232c0-1.115-0.929-2.018-2.044-2.018
		h-11.136c-0.639,0-1.155,0.504-1.155,1.141v0.015l4.235,28.258C1156.7,149.342,1157.191,149.86,1157.829,149.86 M1210.415,119.319
		l-11.148-0.026c-1.115,0-2.032,0.902-2.032,2.018l-1.499,28.244c0,0.187,0.135,0.332,0.319,0.332h10.101
		c0.637,0,1.154-0.519,1.154-1.153l4.249-28.26v-0.013C1211.559,119.812,1211.039,119.319,1210.415,119.319 M1194.899,33.912h-25.59
		c-2.535-0.137-4.193,1.393-4.792,3.779c-0.277,0.767-0.531,1.543-0.822,2.323c-5.163,13.804-12.146,23.131-18.623,29.802v8.066
		c0,0.916,0.73,1.643,1.647,1.643c0.17,0,0.345-0.047,0.478-0.09c0.226-0.12,0.479-0.249,0.676-0.385
		c16.553-9.752,27.235-21.041,34.139-34.178c6.266,11.922,15.716,22.143,29.759,31.404c0.198,0.117,0.397,0.252,0.596,0.388
		c0.2,0.047,0.371,0.104,0.586,0.104c0.688,0,1.286-0.479,1.525-1.102v-9.706c-5.045-5.389-10.008-15.407-13.963-25.945
		C1199.426,37.063,1198.883,33.709,1194.899,33.912 M1213.282,152.898h-0.038c-7.555,2.218-15.638,4.102-23.6,5.668l0.012-47.197
		h21.636c1.061,0,1.952-0.876,1.952-1.991l0.012-6.531c0-1.088-0.89-1.977-1.964-1.977h-21.623V86.402h16.554
		c1.087,0,1.964-0.875,1.964-1.964v-6.557c0-1.089-0.877-1.964-1.964-1.964h-48.422c-1.101,0-1.99,0.849-1.99,1.964v6.53
		c0,1.085,0.89,1.978,1.978,1.978h16.591l-0.012,14.467h-21.621c-1.09,0-1.98,0.903-1.98,1.991v6.531
		c0,1.102,0.891,1.978,1.98,1.978h21.621l-0.026,49.866c-11.19,1.713-21.053,2.668-27.209,2.826h-0.095
		c-1.088,0-1.979,0.879-1.979,1.979v10.022c0,1.087,0.891,1.976,1.979,1.976h0.106h0.054c14.641-0.595,46.109-6.411,65.448-15.183
		c0,0,1.194-0.505,1.194-1.819v-7.739C1213.84,152.979,1213.628,152.768,1213.282,152.898 M1282.979,144.518
		c4.817-9.378,8.149-19.57,10.525-29.492c0.61-3.125-2.03-2.715-2.03-2.715h-11.561c-0.877,7.334-2.722,14.535-4.885,20.858
		c-5.098-8.561-8.841-17.938-10.194-27.521h19.63h0.146h7.806c1.088,0,1.977-0.889,1.977-1.971v-62.25
		c0-5.097-4.287-7.536-8.084-7.536h-63.203c-1.09,0-1.978,0.876-1.978,1.965l-0.066,140.06c0,1.154,0.954,2.108,2.044,2.108h0.066
		c8.972-0.543,25.55-3.941,39.618-9.11c0-0.066,0.067-0.066,0.067-0.066c0.743-0.273,1.287-1.017,1.287-1.906v-9.104
		c0,0,0-0.463-0.61-0.338c-9.648,2.171-19.167,3.604-27.185,4.487v-56.338h10.407c8.827,32.008,28.883,57.963,54.432,72.238h0.066
		c0.199,0.138,0.478,0.204,0.743,0.204c1.09,0,1.913-0.889,1.979-1.904v-0.071v-11.82
		C1296.702,159.336,1289.296,152.468,1282.979,144.518 M1236.417,45.914h42.687v17.873h-42.687V45.914z M1236.417,75.745h42.687
		v17.874h-42.687V75.745z"/>
	<path fill="#231F20" d="M916.475,73.979h-21.329V44.085c0-4.765-3.878-8.637-8.628-8.637l-9.187-0.07
		c-1.008,0-1.832,0.816-1.898,1.835c0,0.077-0.132,0.136-0.132,0.206l0.066,36.56h-32.278v-36.56c0-1.154-0.823-2.041-1.898-2.041
		h-9.118c-4.819,0-8.695,3.876-8.695,8.707v29.894h-28.058V41.291c0-1.088-0.89-1.971-1.979-1.971h-9.104
		c-4.752,0-8.628,3.806-8.628,8.63v26.028H760.93c-0.824,0-1.567,0.747-1.567,1.629v8.631c0,0.886,0.743,1.563,1.567,1.563h14.612
		v83.462c0,4.745,3.862,8.688,8.694,8.688h124.979c1.087,0,1.964-0.883,1.964-1.971v-7.872c0-1.102-0.877-2.051-1.964-2.051H795.319
		V85.802h28.058v44.11c0,4.751,3.876,8.692,8.629,8.692h54.432c4.764,0,8.708-3.875,8.708-8.692v-44.11h21.329
		c0.89,0,1.632-0.677,1.632-1.563v-8.631C918.106,74.726,917.364,73.979,916.475,73.979 M875.367,126.58h-32.278V85.802h32.278
		V126.58z"/>
	<path fill="#231F20" d="M1391.55,68.523h-16.392c-5.467,7.116-16.723,22.879-36.315,29.545c0,0,0-0.012-0.024-0.012
		c-0.133,0-0.678,0.438-0.704,0.677v0.054v7.989c0,0-0.452,3.596,3.039,2.39c5.694-1.911,10.697-3.982,15.185-6.173v66.312
		c0,4.805,3.875,8.694,8.668,8.694h9.065c1.087,0,1.977-0.889,1.977-1.991l0.027-85.759c8.335-7.19,13.101-14.292,16.671-19.571
		C1394.006,68.245,1391.55,68.523,1391.55,68.523 M1391.604,33.905h-16.393c-5.482,7.101-16.738,22.876-36.327,29.522v-0.013
		c-0.133,0-0.69,0.441-0.69,0.69c0,0-0.026,0.029-0.026,0.042v8.01c0,0-0.453,3.577,3.039,2.379
		c33.394-11.166,44.664-28.284,51.592-38.479C1394.046,33.626,1391.604,33.905,1391.604,33.905 M1409.151,51.003h78.336
		c0.875,0,1.581-0.714,1.581-1.576v-8.67c0-0.893-0.706-1.593-1.581-1.593h-78.336c-0.877,0-1.581,0.7-1.581,1.593v8.67
		C1407.57,50.29,1408.274,51.003,1409.151,51.003 M1494.549,79.036h-94.782c-0.876,0-1.579,0.707-1.579,1.563v8.697
		c0,0.849,0.703,1.563,1.579,1.563h54.38v70.112c-0.106,4.26-1.233,6.583-8.269,6.583h-7.115c-0.478,0-0.558,0.318-0.569,0.479v8.4
		c0,0.864,0.702,1.566,1.576,1.566h0.865h0.015h10.724c1.234,0,2.375-0.012,3.464-0.026c14.294-0.371,19.058-3.356,19.058-17.108
		V90.859h20.654c0.89,0,1.592-0.714,1.592-1.563v-8.697C1496.141,79.743,1495.438,79.036,1494.549,79.036"/>
	<path fill="#231F20" d="M458.519,130.588v7.273c0,1.089-1.018,1.5-1.018,1.5c-7.951,3.523-18.281,6.658-28.209,8.966
		c-9.915,2.31-19.431,3.804-25.419,4.008h-0.134c-0.877,0-1.564-0.683-1.564-1.571v-11.681c0-0.884,0.687-1.634,1.634-1.634h0.065
		c10.602-0.277,33.914-2.17,53.491-7.811C457.364,129.639,458.519,129.293,458.519,130.588 M458.519,89.408v24.33
		c0,4.692-3.812,8.494-8.493,8.494h-39.356c-4.687,0-8.495-3.802-8.495-8.494v-24.33c0-4.688,3.808-8.494,8.495-8.494h39.356
		C454.707,80.915,458.519,84.72,458.519,89.408 M439.764,89.816h-18.757l-0.074,23.517h18.831V89.816z M458.519,89.408v24.33
		c0,4.692-3.812,8.494-8.493,8.494h-39.356c-4.687,0-8.495-3.802-8.495-8.494v-24.33c0-4.688,3.808-8.494,8.495-8.494h39.356
		C454.707,80.915,458.519,84.72,458.519,89.408 M439.764,89.816h-18.757l-0.074,23.517h18.831V89.816z M458.519,137.861v-7.273
		c0-1.295-1.154-0.949-1.154-0.949c-19.577,5.641-42.889,7.533-53.491,7.811h-0.065c-0.947,0-1.634,0.75-1.634,1.634v11.681
		c0,0.889,0.687,1.571,1.564,1.571h0.134c5.988-0.204,15.504-1.698,25.419-4.008c9.928-2.308,20.258-5.442,28.209-8.966
		C457.501,139.361,458.519,138.95,458.519,137.861 M530.962,45.373l-0.07,124.157c0,4.688-3.805,8.495-8.494,8.495H383.962
		c-4.682,0-8.495-3.875-8.495-8.573V45.303c0-4.695,3.883-8.494,8.565-8.494h138.437C527.157,36.809,530.962,40.607,530.962,45.373
		 M476.793,61.336h14.075c-0.893-6.112-1.77-11.003-2.38-14.129h-11.891C476.527,49.855,476.454,54.81,476.793,61.336
		 M394.835,61.336h67.557c-0.684-6.527-0.891-11.481-0.949-14.129h-66.538L394.835,61.336z M511.594,47.207h-9.112
		c0.819,4.417,2.24,12.302,3.676,20.182c0.196,4.41-3.397,4.41-3.397,4.41h-25.145c1.224,11.893,3.67,26.576,8.495,41.462
		c2.71-5.024,5.162-10.121,7.263-15.085c0.409-1.235,1.503-0.75,1.503-0.75l9.989,4.068c0,0,1.158,0.419,0.47,1.699
		c-3.936,8.03-8.495,16.319-13.856,24.063c4.35,9.916,9.986,19.646,17.184,28.205c0.757,0.677,0.143,1.155,0.143,1.155l-4.76,5.573
		c0,0-0.744,0.745-1.563-0.203c-7.605-6.935-13.798-15.292-18.824-24.396c-7.541,9.038-16.313,16.988-26.506,22.768
		c-1.012,0.746-1.486-0.482-1.486-0.482l-3.133-5.979c0,0-0.613-0.941,0.278-1.432c9.786-6.718,18.145-15.963,25.272-26.223
		c-8.215-18.762-12.436-38.939-14.533-54.442h-68.714v95.827h116.758V47.207z M458.519,89.408v24.33
		c0,4.692-3.812,8.494-8.493,8.494h-39.356c-4.687,0-8.495-3.802-8.495-8.494v-24.33c0-4.688,3.808-8.494,8.495-8.494h39.356
		C454.707,80.915,458.519,84.72,458.519,89.408 M439.764,89.816h-18.757l-0.074,23.517h18.831V89.816z M457.364,129.639
		c-19.577,5.641-42.889,7.533-53.491,7.811h-0.065c-0.947,0-1.634,0.75-1.634,1.634v11.681c0,0.889,0.687,1.571,1.564,1.571h0.134
		c5.988-0.204,15.504-1.698,25.419-4.008c9.928-2.308,20.258-5.442,28.209-8.966c0,0,1.018-0.411,1.018-1.5v-7.273
		C458.519,129.293,457.364,129.639,457.364,129.639"/>
	<path fill="#231F20" d="M648.113,112.868h-8.91c-1.075,0-1.952,0.877-1.952,1.938v46.137c-0.109,4.274-0.836,6.597-7.814,6.61
		h-4.038c-0.649,0-0.583,0.57-0.583,0.57v7.458c0,1.355,1.087,2.417,2.411,2.417h7.353c16.685,0.015,22.001-2.258,22.013-16.777
		l0.013-39.845C656.606,116.704,652.794,112.868,648.113,112.868 M723.605,93.331h-98.485c3.488-4.459,6.702-8.999,9.611-13.454
		h70.281c0.877,0,1.577-0.694,1.577-1.584v-8.494c0-0.876-0.699-1.593-1.577-1.593h-63.195c2.722-4.818,5.07-9.37,7.021-13.449
		h69.139c0.863,0,1.575-0.7,1.575-1.589v-8.508c0-0.876-0.712-1.576-1.575-1.576h-63.959c0.672-1.7,1.215-3.146,1.59-4.241
		c0.532-1.576,0.448-2.745-1.313-3.179c-3.758-0.797-11.416-2.366-13.66-2.95c-2.982-0.744-3.506,2.27-3.506,2.27l-1.245,3.995
		c-0.399,1.25-0.877,2.632-1.42,4.105h-57.063c-0.877,0-1.577,0.7-1.577,1.576v8.508c0,0.889,0.7,1.589,1.577,1.589h52.302
		c-1.893,4.234-4.092,8.747-6.588,13.449h-33.013c-0.87,0-1.575,0.717-1.575,1.593v8.494c0,0.89,0.706,1.584,1.575,1.584h26.261
		c-2.844,4.539-5.932,9.064-9.291,13.454h-35.826c-0.875,0-1.577,0.704-1.577,1.581v8.521c0,0.862,0.702,1.58,1.577,1.58h25.841
		c-7.659,7.977-16.314,14.879-25.951,19.444c-2.522,0.85-1.311,3.079-1.311,3.079l1.854,4.54c0,0,0.655,1.871,2.879,1.035
		c6.097-2.204,11.834-5.097,17.229-8.522c12.599,3.146,27.651,9.93,31.397,11.509c1.187,0.598,1.686-0.332,1.686-0.332l4.566-9.597
		c0,0,0.766-1.221-0.511-1.792c-5.253-2.27-17.049-5.653-26.237-7.699c4.417-3.609,8.579-7.551,12.463-11.665h61.705
		c3.691,3.861,7.899,7.552,12.425,11.003c-7.34,3.438-19.234,6.066-25.846,6.836c-0.849,0.092-1.202,0.663-0.952,1.632
		c1.257,3.81,1.66,6.81,2.917,10.606c0.426,1.246,1.024,1.221,1.874,1.008c4.391-0.638,23.426-7.765,31.722-13.365
		c6.822,4.233,14.012,7.817,21.158,10.419c2.227,0.836,2.893-1.022,2.893-1.022l1.855-4.554c0,0,1.211-2.243-1.298-3.078
		c-9.663-4.565-20.667-11.481-28.813-19.484h28.813c0.875,0,1.589-0.717,1.589-1.58v-8.521
		C725.195,94.034,724.48,93.331,723.605,93.331 M631.11,150.656c-0.485-3.411-0.585-2.972-1.277-6.424
		c-0.042-0.545-0.667-1.194-1.549-0.836c-15.732,8.177-31.358,12.223-48.393,16.95c-1.026,0.37-1.332,1.074-0.903,1.99
		c1.391,2.96,3.735,8.15,4.734,10.353c0.375,0.744,1.419,1.353,2.631,0.902c13.884-4.686,31.334-13.526,44.024-20.852
		C631.21,152.144,631.239,151.573,631.11,150.656 M712.55,161.022c-14.189-6.65-30.703-12.463-45.483-15.822
		c-1.394-0.464-1.64,0.599-1.64,0.599l-2.873,6.225c0,0-0.654,1.314,0.629,1.779c14.206,6.186,26.682,11.162,40.022,19.125
		c1.381,0.599,2.997,0.544,3.955-0.717c2.466-3.637,3.493-5.32,5.986-8.984C713.652,162.43,713.386,161.501,712.55,161.022"/>
	<path fill="#231F20" d="M1109.29,43.146h-35.639c-0.466-4.341-4.101-7.755-8.574-7.755h-7.896c-1.088,0-2.005,0.906-2.005,1.978
		v5.777h-47.293v-5.777c0-1.072-0.889-1.978-1.989-1.978h-7.896c-4.461,0-8.097,3.415-8.575,7.755h-35.638
		c-0.862,0-1.593,0.687-1.593,1.576v8.157c0,0.869,0.73,1.576,1.593,1.576h35.544v6.361c0,1.102,0.903,1.977,1.991,1.977h14.601
		c1.089-0.012,1.963-0.903,1.963-1.977v-6.361h47.293v6.361c0,1.074,0.889,1.965,1.979,1.977h14.598
		c1.091,0,2.006-0.875,2.006-1.977v-6.361h35.532c0.875,0,1.592-0.707,1.592-1.576v-8.157
		C1110.882,43.833,1110.165,43.146,1109.29,43.146 M1109.276,106.736c0.876,0,1.633-0.749,1.633-1.566v-8.223
		c0-0.816-0.757-1.559-1.633-1.559h-25.896v-14.82h14.203c0.888,0,1.632-0.676,1.632-1.563v-8.152c0-0.884-0.744-1.557-1.632-1.557
		H965.477c-0.889,0-1.565,0.673-1.565,1.557v8.152c0,0.887,0.677,1.563,1.565,1.563h14.202v14.82h-25.895
		c-0.875,0-1.553,0.743-1.553,1.559v8.223c0,0.818,0.678,1.566,1.553,1.566h25.895v14.813h-14.202c-0.889,0-1.565,0.691-1.565,1.567
		v8.148c0,0.89,0.677,1.567,1.565,1.567h56.809v14.812h-68.501c-0.875,0-1.553,0.75-1.553,1.565v8.165
		c0,0.875,0.678,1.552,1.553,1.552h68.501v10.393c0,4.765,3.876,8.706,8.708,8.706h7.884c1.088,0,1.965-0.889,1.965-1.963v-17.136
		h68.435c0.876,0,1.633-0.677,1.633-1.552v-8.165c0-0.815-0.757-1.565-1.633-1.565h-68.435v-14.812h56.742
		c0.888,0,1.632-0.678,1.632-1.567v-8.148c0-0.876-0.744-1.567-1.632-1.567h-14.203v-14.813H1109.276z M1022.285,121.549h-24.051
		v-14.813h24.051V121.549z M1022.285,95.389h-24.051V80.563h24.051V95.389z M1064.825,121.549h-23.983v-14.813h23.983V121.549z
		 M1064.825,95.389h-23.983V80.563h23.983V95.389z"/>
	<g>
		<defs>
			<path id="SVGID_1_" d="M128.036,8.481c-4.552,3.105-11.454,4.854-18.436,4.071c-16.976-1.875-31.808,6.252-39.381,19.906
				c-3.371,6.083-9.304,9.968-14.732,11.817C41.978,48.87,30.839,61.204,29.35,77.254c-0.701,7.555-5.144,13.532-8.495,16.86
				C11.795,103.192,8,113.798,8,124.655v0.544c22.206-23.095,52.06-44.159,87.336-59.98
				c52.667-23.629,106.123-30.458,147.177-22.003c-4.594-2.088-9.236-5.674-12.049-10.758c-7.565-13.654-22.391-21.78-39.367-19.906
				c-7.001,0.783-13.897-0.965-18.443-4.071c-6.39-4.341-13.598-7.051-22.305-7.051C141.628,1.43,134.427,4.14,128.036,8.481"/>
		</defs>
		<clipPath id="SVGID_2_">
			<use xlink:href="#SVGID_1_"  overflow="visible"/>
		</clipPath>
		
			<linearGradient id="SVGID_3_" gradientUnits="userSpaceOnUse" x1="337.1558" y1="397.4492" x2="343.9512" y2="397.4492" gradientTransform="matrix(-19.907 24.583 24.583 19.907 -2874.8867 -16209.3438)">
			<stop  offset="0" style="stop-color:#72BE44"/>
			<stop  offset="0.3754" style="stop-color:#42AE48"/>
			<stop  offset="0.7921" style="stop-color:#129E4C"/>
			<stop  offset="1" style="stop-color:#00984E"/>
		</linearGradient>
		<polygon clip-path="url(#SVGID_2_)" fill="url(#SVGID_3_)" points="303.047,50.446 149.635,239.892 -52.534,76.18 
			100.877,-113.269 		"/>
	</g>
	<g>
		<defs>
			<path id="SVGID_4_" d="M95.335,65.219C60.06,81.04,30.206,102.104,8,125.199c0.256,21.345,16.194,38.903,36.819,41.729
				c22.813-27.263,56.327-52.508,97.015-70.743c45.015-20.203,90.608-28.126,128.529-24.728
				c-3.27-13.151-13.118-22.975-25.166-27.183c-0.89-0.292-1.782-0.65-2.684-1.059c-11.2-2.313-23.323-3.48-36.1-3.48
				C172.352,39.735,133.631,48.04,95.335,65.219"/>
		</defs>
		<clipPath id="SVGID_5_">
			<use xlink:href="#SVGID_4_"  overflow="visible"/>
		</clipPath>
		
			<linearGradient id="SVGID_6_" gradientUnits="userSpaceOnUse" x1="335.4692" y1="399.1738" x2="342.265" y2="399.1738" gradientTransform="matrix(-23.7374 29.3132 29.3132 23.7374 -3506.7695 -19319.1875)">
			<stop  offset="0" style="stop-color:#50B748"/>
			<stop  offset="0.0052" style="stop-color:#4FB748"/>
			<stop  offset="0.2879" style="stop-color:#2DA94B"/>
			<stop  offset="0.5556" style="stop-color:#14A04C"/>
			<stop  offset="0.8001" style="stop-color:#059A4E"/>
			<stop  offset="1" style="stop-color:#00984E"/>
		</linearGradient>
		<polygon clip-path="url(#SVGID_5_)" fill="url(#SVGID_6_)" points="332.569,90.112 166.456,295.246 -54.21,116.559 
			111.907,-88.578 		"/>
	</g>
	<path fill="#00984E" d="M279.825,94.114c-3.331-3.332-7.788-9.305-8.48-16.854c-0.183-2.004-0.519-3.936-0.986-5.803
		c-37.921-3.398-83.514,4.525-128.536,24.728c-40.678,18.235-74.194,43.48-97.008,70.743c1.908,0.266,3.858,0.399,5.85,0.399h61.258
		c5.811,0,10.526,4.816,10.526,10.645v2.468c0,9.795-9.677,11.11-9.677,11.11l-49.799,8.56c-1.766,0.28-3.294,1.503-3.294,3.253
		v6.104h181.323v-6.104c0-1.75-1.516-2.973-3.29-3.253l-49.811-8.56c0,0-9.666-1.315-9.666-11.11v-2.468
		c0-5.828,4.712-10.645,10.528-10.645h61.262c23.561,0,42.666-19.101,42.666-42.673C292.691,113.798,288.904,103.192,279.825,94.114
		"/>
</g>
</svg>
