<svg id="圖層_1" data-name="圖層 1" xmlns="http://www.w3.org/2000/svg" viewBox="0 0 110 20"><defs><style>.cls-1{fill:#008f43}.cls-2{fill:url(#linear-gradient)}.cls-3{fill:url(#linear-gradient-2)}</style><linearGradient id="linear-gradient" x1="16.18" y1="-.76" x2="3.97" y2="14.3" gradientUnits="userSpaceOnUse"><stop offset="0" stop-color="#6fb92c"/><stop offset=".36" stop-color="#42a835"/><stop offset=".79" stop-color="#12963f"/><stop offset="1" stop-color="#008f43"/></linearGradient><linearGradient id="linear-gradient-2" x1="20" y1="-1.23" x2="5.45" y2="16.74" gradientUnits="userSpaceOnUse"><stop offset="0" stop-color="#44af35"/><stop offset=".22" stop-color="#2da43a"/><stop offset=".51" stop-color="#14983f"/><stop offset=".78" stop-color="#059142"/><stop offset="1" stop-color="#008f43"/></linearGradient></defs><title>logo-cathaybk</title><path d="M35.24 18.26c-.88 0-1.28-.55-1.28-1.43s.36-1.57 1.27-1.57a2.34 2.34 0 0 1 .82.15l.1-.58a3.46 3.46 0 0 0-.94-.14c-1.53 0-1.93 1-1.93 2.12a1.76 1.76 0 0 0 1.94 2 3.4 3.4 0 0 0 1-.14l-.07-.58a3 3 0 0 1-.91.17zm3.76-.41v-1.17c0-.69-.26-1-1.05-1a2.8 2.8 0 0 0-1.1.24l.14.52a2 2 0 0 1 .9-.24c.48 0 .53.2.53.51v.2c-1.42.06-1.81.28-1.81 1a.89.89 0 0 0 1 .94 1 1 0 0 0 .91-.51 1.14 1.14 0 0 0 .19.5l.53-.1a1.42 1.42 0 0 1-.24-.89zm-.59-.08a.72.72 0 0 1-.71.55c-.21 0-.51-.08-.51-.45s.29-.47 1.23-.53zM40.58 15l-.61.16v.68h-.47v.49h.5v1.8c0 .55.33.74.85.71h.28v-.54h-.18c-.26 0-.34-.11-.34-.46v-1.56h.63v-.49h-.63zm2.71.75a1.35 1.35 0 0 0-.93.37v-1.56l-.63.09v4.11h.63v-2.22a1 1 0 0 1 .74-.33c.42 0 .55.28.55.67v1.89h.62v-2c0-.59-.2-1.07-.98-1.07zm4 2.16v-1.23c0-.69-.26-1-1.05-1a2.82 2.82 0 0 0-1.1.24l.13.52a2 2 0 0 1 .9-.24c.48 0 .54.2.54.51v.2c-1.42.06-1.81.28-1.81 1a.89.89 0 0 0 1 .94 1 1 0 0 0 .91-.51 1.21 1.21 0 0 0 .19.5l.53-.1a1.42 1.42 0 0 1-.27-.89zm-.58-.08a.73.73 0 0 1-.72.55c-.21 0-.51-.08-.51-.45s.29-.47 1.23-.53zm2.45.12l-.79-2.14h-.69l1.17 2.8a3.53 3.53 0 0 1-.74 1.17l.61.27a4.65 4.65 0 0 0 .73-1.34c.31-.77.78-2.15 1-2.9h-.68c-.17.55-.43 1.45-.64 2.08zm5.84-.7c0 .6-.21 1-.94 1s-.94-.45-.94-1v-2.46h-.64v2.69A1.39 1.39 0 0 0 54 18.85c.91 0 1.59-.47 1.59-1.38v-2.68H55zm3-1.56a1.38 1.38 0 0 0-1 .4 1.83 1.83 0 0 0-.1-.39l-.57.08a2.4 2.4 0 0 1 .07.62v2.36h.62v-2.23a1 1 0 0 1 .75-.32c.42 0 .55.28.55.67v1.89H59v-2c0-.59-.22-1.07-1-1.07zm1.78 3.07h.63v-3h-.63zm0-3.46h.65v-.57h-.65zM62 15l-.61.16v.68h-.48v.49h.48v1.8c0 .55.33.74.85.71h.28v-.54h-.18c-.26 0-.34-.11-.34-.46v-1.56h.63v-.49H62zm3.56 2c0-.78-.34-1.35-1.17-1.35S63 16.37 63 17.3a1.39 1.39 0 0 0 1.52 1.55 2.52 2.52 0 0 0 1-.2l-.12-.5a2.33 2.33 0 0 1-.88.17.84.84 0 0 1-.94-1h2zm-2-.08a.79.79 0 0 1 .73-.8c.48 0 .66.31.66.8zm5.21.81v-3.18l-.61.1V16a1.22 1.22 0 0 0-.83-.33c-.94 0-1.27.76-1.27 1.65s.4 1.52 1.18 1.52a1.16 1.16 0 0 0 1-.48 1.13 1.13 0 0 0 .14.44l.53-.1a2.68 2.68 0 0 1-.11-.96zm-.58-.32a2 2 0 0 1 0 .41.85.85 0 0 1-.77.5c-.5 0-.68-.44-.68-1s.18-1.11.75-1.11a.87.87 0 0 1 .71.36 2.22 2.22 0 0 1 0 .47zm4.91-.77a.86.86 0 0 0 .61-.88c0-.8-.66-1-1.33-1h-1.14v4h1.23c.81 0 1.4-.29 1.4-1.12a.91.91 0 0 0-.77-1zm-1.24-1.34h.45c.51 0 .79.16.79.56a.55.55 0 0 1-.53.59h-.71zm.56 2.93h-.56v-1.29h.55c.53 0 .82.2.82.64s-.39.65-.82.65zm4.38-.38v-1.17c0-.69-.26-1-1.05-1a2.79 2.79 0 0 0-1.1.24l.13.52a2 2 0 0 1 .89-.24c.48 0 .54.2.54.51v.2c-1.42.06-1.81.28-1.81 1a.89.89 0 0 0 1 .94 1 1 0 0 0 .91-.51 1.07 1.07 0 0 0 .19.5l.53-.1a1.42 1.42 0 0 1-.23-.89zm-.59-.08a.72.72 0 0 1-.71.55c-.21 0-.51-.08-.51-.45s.28-.47 1.23-.53zm3-2.08a1.37 1.37 0 0 0-1 .4 1.83 1.83 0 0 0-.1-.39l-.57.08a2.4 2.4 0 0 1 .07.62v2.36h.62v-2.23a1 1 0 0 1 .75-.32c.42 0 .55.28.55.67v1.89h.62v-2c.01-.59-.15-1.07-.98-1.07zm3 1.51l1.22-1.46h-.72l-1.14 1.47v-2.65l-.63.09v4.11h.63v-1.47l1.16 1.48h.75zm4.56-8.47h.69l-.1-1.93a.14.14 0 0 0-.14-.14h-.76a.08.08 0 0 0-.08.08l.29 1.93a.08.08 0 0 0 .1.06zm3.6-2.09h-.77a.14.14 0 0 0-.14.14l-.1 1.93h.69a.08.08 0 0 0 .08-.08l.29-1.93a.08.08 0 0 0-.05-.06zM89.31.8h-1.75a.31.31 0 0 0-.33.26l-.06.16a5.73 5.73 0 0 1-1.27 2v.55a.11.11 0 0 0 .11.11 5.84 5.84 0 0 0 2.33-2.34 5.8 5.8 0 0 0 2 2.15.11.11 0 0 0 .1-.08V3a5.81 5.81 0 0 1-1-1.77c.18-.23.14-.44-.13-.43zm1.26 8.14c-.52.15-1.07.28-1.61.39V6.1h1.48a.14.14 0 0 0 .12-.1v-.48a.14.14 0 0 0-.14-.14h-1.47v-1h1.13a.13.13 0 0 0 .13-.14v-.43a.13.13 0 0 0-.13-.13h-3.31a.13.13 0 0 0-.14.13v.45a.14.14 0 0 0 .14.14h1.13v1h-1.48a.14.14 0 0 0-.14.14V6a.13.13 0 0 0 .14.14h1.48v3.37a16.43 16.43 0 0 1-1.9.19.14.14 0 0 0-.14.14v.68a.14.14 0 0 0 .14.14 14.89 14.89 0 0 0 4.48-1 .14.14 0 0 0 .08-.12v-.6zm4.76-.57a9.24 9.24 0 0 0 .72-2c0-.21-.14-.18-.14-.18h-.79a7.26 7.26 0 0 1-.33 1.42 5.12 5.12 0 0 1-.7-1.88H96a.14.14 0 0 0 .14-.13V1.32a.52.52 0 0 0-.56-.52h-4.35a.14.14 0 0 0-.13.14v9.58a.14.14 0 0 0 .14.14 11.17 11.17 0 0 0 2.71-.66.14.14 0 0 0 .05-.1v-.62c-.66.14-1.31.24-1.86.31V5.71h.71a8.05 8.05 0 0 0 3.73 4.94.13.13 0 0 0 .13-.13v-.8a6.68 6.68 0 0 1-1.38-1.35zm-3.18-6.74h2.92v1.22h-2.92zm0 3.26V3.67h2.92v1.22zM70.27 3.55h-1.46v-2a.59.59 0 0 0-.59-.6h-.63a.14.14 0 0 0-.13.12v2.5h-2.21V1a.13.13 0 0 0-.13-.14h-.62a.6.6 0 0 0-.6.6v2H62V1.31a.14.14 0 0 0-.13-.13h-.62a.59.59 0 0 0-.59.59v1.78h-1a.11.11 0 0 0-.11.11v.59a.11.11 0 0 0 .11.11h1v5.71a.6.6 0 0 0 .6.59h8.54a.14.14 0 0 0 .13-.13V10a.14.14 0 0 0-.13-.14H62V4.35h1.92v3a.6.6 0 0 0 .6.6h3.71a.6.6 0 0 0 .59-.6v-3h1.47a.11.11 0 0 0 .1-.11v-.58a.11.11 0 0 0-.12-.11zm-2.81 3.6h-2.21v-2.8h2.21zm35.29-3.98h-1.12a5.35 5.35 0 0 1-2.48 2v.55s0 .25.21.16a8.45 8.45 0 0 0 1-.42v4.53a.59.59 0 0 0 .59.59h.62a.14.14 0 0 0 .14-.14V4.66a6.2 6.2 0 0 0 1.14-1.34c.07-.17-.1-.15-.1-.15zm0-2.37h-1.12a5.37 5.37 0 0 1-2.48 2v.55s0 .24.21.16A6.09 6.09 0 0 0 102.84 1c.08-.21-.08-.2-.08-.2zM104 2h5.36a.11.11 0 0 0 .11-.11v-.62a.11.11 0 0 0-.11-.11H104a.11.11 0 0 0-.11.11v.59A.11.11 0 0 0 104 2zm5.84 1.92h-6.48a.11.11 0 0 0-.11.11v.6a.11.11 0 0 0 .11.11H107v4.75c0 .29-.08.45-.57.45H106v.57a.11.11 0 0 0 .11.11h1c1 0 1.3-.23 1.3-1.17V4.7h1.41a.11.11 0 0 0 .11-.11V4a.11.11 0 0 0-.13-.11zM39 7.41v.5a.11.11 0 0 1-.07.1 12 12 0 0 1-1.93.62 11.09 11.09 0 0 1-1.73.28.11.11 0 0 1-.11-.11V8a.11.11 0 0 1 .11-.11 16.28 16.28 0 0 0 3.65-.53.06.06 0 0 1 .08.05zm0-2.81v1.66a.58.58 0 0 1-.58.58h-2.73a.58.58 0 0 1-.58-.58V4.6a.58.58 0 0 1 .58-.6h2.69a.58.58 0 0 1 .62.6zm-1.28 0h-1.33v1.63h1.29zm1.28 0v1.66a.58.58 0 0 1-.58.58h-2.73a.58.58 0 0 1-.58-.58V4.6a.58.58 0 0 1 .58-.6h2.69a.58.58 0 0 1 .62.6zm-1.28 0h-1.33v1.63h1.29zM39 7.92v-.5a.06.06 0 0 0-.08-.06 16.28 16.28 0 0 1-3.65.53.11.11 0 0 0-.11.11v.8a.11.11 0 0 0 .11.11A11.09 11.09 0 0 0 37 8.63 12 12 0 0 0 38.89 8a.11.11 0 0 0 .11-.08zm5-6.33v8.49a.58.58 0 0 1-.58.58h-9.56a.59.59 0 0 1-.58-.58v-8.5a.59.59 0 0 1 .59-.58h9.46a.58.58 0 0 1 .58.58zm-3.7 1.1h1c-.06-.42-.12-.75-.16-1h-.82c-.13.21-.13.54-.11.99zm-5.6 0h4.62c0-.45-.06-.78-.06-1H34.6zm8-1H42l.25 1.38c0 .3-.23.3-.23.3h-1.76a14 14 0 0 0 .58 2.84 10.07 10.07 0 0 0 .5-1 .08.08 0 0 1 .1 0l.68.28s.08 0 0 .12a12.74 12.74 0 0 1-1 1.64 8 8 0 0 0 1.18 1.93v.08l-.32.38a.07.07 0 0 1-.1 0 6.5 6.5 0 0 1-1.29-1.67 6.59 6.59 0 0 1-1.81 1.56c-.07.06-.1 0-.1 0L38.55 9v-.1a7 7 0 0 0 1.73-1.79 14.27 14.27 0 0 1-1-3.73H34.6v6.56h8zM39 4.6v1.66a.58.58 0 0 1-.58.58h-2.73a.58.58 0 0 1-.58-.58V4.6a.58.58 0 0 1 .58-.6h2.69a.58.58 0 0 1 .62.6zm-1.28 0h-1.33v1.63h1.29zm1.2 2.73a16.28 16.28 0 0 1-3.65.53.11.11 0 0 0-.11.11v.8a.11.11 0 0 0 .11.11A11.09 11.09 0 0 0 37 8.63 12 12 0 0 0 38.89 8a.11.11 0 0 0 .07-.1v-.5a.06.06 0 0 0-.08-.05zm13-1.13h-.61a.13.13 0 0 0-.13.13v3.16c0 .29-.06.45-.54.45h-.28v.51a.16.16 0 0 0 .17.17H51c1.14 0 1.5-.15 1.5-1.15V6.79a.58.58 0 0 0-.58-.59zm5.16-1.34h-6.73c.24-.31.46-.62.66-.92h4.81a.11.11 0 0 0 .11-.11v-.57a.11.11 0 0 0-.11-.11h-4.33c.19-.33.35-.64.48-.92h4.73a.11.11 0 0 0 .11-.11v-.58a.11.11 0 0 0-.11-.11h-4.38l.11-.29c0-.11 0-.19-.09-.22l-.93-.2a.19.19 0 0 0-.24.15l-.09.27-.1.28h-3.9a.11.11 0 0 0-.11.11v.58a.11.11 0 0 0 .11.11h3.57c-.13.29-.28.6-.45.92H48a.11.11 0 0 0-.11.11v.58a.11.11 0 0 0 .11.11h1.79c-.19.31-.41.62-.64.92h-2.48a.11.11 0 0 0-.11.11v.58a.11.11 0 0 0 .11.11h1.77A6.15 6.15 0 0 1 46.66 7a.14.14 0 0 0-.09.21l.13.31a.14.14 0 0 0 .2.07A6 6 0 0 0 48.07 7a15.69 15.69 0 0 1 2.15.79h.11l.31-.66a.08.08 0 0 0 0-.12 12.77 12.77 0 0 0-1.79-.53 9.11 9.11 0 0 0 .85-.8h4.22a7.4 7.4 0 0 0 .85.75 6.8 6.8 0 0 1-1.77.46c-.06 0-.08 0-.07.11.09.26.11.47.2.72 0 .09.07.09.13.07a8.78 8.78 0 0 0 2.17-.91 7.94 7.94 0 0 0 1.45.71.14.14 0 0 0 .2-.07l.13-.31a.14.14 0 0 0-.13-.21 7.5 7.5 0 0 1-2-1.33h2a.11.11 0 0 0 .11-.11V5a.11.11 0 0 0-.11-.13zm-6.32 3.93c0-.23 0-.2-.09-.44a.07.07 0 0 0-.11-.06 16.31 16.31 0 0 1-3.31 1.16.09.09 0 0 0-.06.14l.32.71a.14.14 0 0 0 .18.06 18.79 18.79 0 0 0 3-1.43.12.12 0 0 0 .07-.14zm5.57.71a16.12 16.12 0 0 0-3.11-1.08h-.11l-.2.43v.12a22.57 22.57 0 0 1 2.74 1.31.22.22 0 0 0 .27 0l.41-.61a.1.1 0 0 0 0-.17zm27.12-8.06H81a.59.59 0 0 0-.59-.53h-.54a.14.14 0 0 0-.14.13v.4h-3.21V1a.14.14 0 0 0-.14-.13h-.54a.59.59 0 0 0-.59.53h-2.43a.11.11 0 0 0-.11.11v.59a.11.11 0 0 0 .11.11h2.43v.43a.14.14 0 0 0 .14.14h1a.14.14 0 0 0 .14-.14v-.43h3.23v.43a.14.14 0 0 0 .14.14h1a.14.14 0 0 0 .1-.14v-.43h2.43a.11.11 0 0 0 .11-.11v-.56a.11.11 0 0 0-.09-.1zm0 4.35a.11.11 0 0 0 .11-.11v-.56a.11.11 0 0 0-.11-.12h-1.77V4h1a.11.11 0 0 0 .1-.11v-.56a.11.11 0 0 0-.1-.11h-9a.11.11 0 0 0-.11.11v.56a.11.11 0 0 0 .11.11h1v1h-1.86a.11.11 0 0 0-.1.11v.55a.11.11 0 0 0 .1.11h1.77v1h-1a.11.11 0 0 0-.11.11v.56a.11.11 0 0 0 .11.1h3.91v1h-4.68a.11.11 0 0 0-.1.1v.56a.11.11 0 0 0 .1.11h4.68v.71a.59.59 0 0 0 .59.59h.54a.14.14 0 0 0 .13-.13V9.36h4.68a.11.11 0 0 0 .11-.11v-.56a.11.11 0 0 0-.11-.1h-4.67v-1h3.89a.11.11 0 0 0 .1-.1V6.9a.11.11 0 0 0-.1-.11h-1v-1zm-6 1h-1.59v-1h1.64zM77.5 5h-1.64V4h1.64zm2.91 1.78h-1.64v-1h1.64zm0-1.78h-1.64V4h1.64z"/><path class="cls-1" d="M24.61 8.36a2.57 2.57 0 0 1-.77-1.52 3.47 3.47 0 0 0-2.36-3l-.24-.1a2.36 2.36 0 0 1-1.09-1A3.54 3.54 0 0 0 16.61 1a2.55 2.55 0 0 1-1.66-.36 3.5 3.5 0 0 0-4 0A2.55 2.55 0 0 1 9.26 1a3.54 3.54 0 0 0-3.55 1.8 2.4 2.4 0 0 1-1.33 1.06A3.5 3.5 0 0 0 2 6.84a2.57 2.57 0 0 1-.77 1.52A3.79 3.79 0 0 0 .1 11.12 3.84 3.84 0 0 0 3.94 15h5.53a1 1 0 0 1 1 1v.22a1 1 0 0 1-.87 1l-4.49.77a.32.32 0 0 0-.3.29v.55h16.3v-.55a.32.32 0 0 0-.3-.29l-4.49-.77a1 1 0 0 1-.87-1V16a1 1 0 0 1 .95-1h5.53a3.85 3.85 0 0 0 3.85-3.85 3.79 3.79 0 0 0-1.17-2.79z"/><path class="cls-2" d="M8 5.75c4.75-2.13 9.57-2.75 13.28-2a2.36 2.36 0 0 1-1.09-1A3.54 3.54 0 0 0 16.61 1a2.55 2.55 0 0 1-1.66-.36 3.5 3.5 0 0 0-4 0A2.55 2.55 0 0 1 9.26 1a3.54 3.54 0 0 0-3.55 1.8 2.4 2.4 0 0 1-1.33 1.06A3.5 3.5 0 0 0 2 6.84a2.57 2.57 0 0 1-.77 1.52A3.79 3.79 0 0 0 .1 11.12 25.36 25.36 0 0 1 8 5.75z"/><path class="cls-3" d="M12.17 8.55a23.87 23.87 0 0 1 11.59-2.23 3.51 3.51 0 0 0-2.27-2.45l-.24-.1C17.55 3 12.72 3.62 8 5.75a25.36 25.36 0 0 0-7.9 5.41 3.85 3.85 0 0 0 3.32 3.76 24.56 24.56 0 0 1 8.75-6.37z"/><path class="cls-1" d="M24.61 8.36a2.57 2.57 0 0 1-.77-1.52 3.5 3.5 0 0 0-.09-.52 23.87 23.87 0 0 0-11.58 2.23 24.56 24.56 0 0 0-8.75 6.38 3.83 3.83 0 0 0 .53 0h5.52a1 1 0 0 1 1 1v.22a1 1 0 0 1-.87 1l-4.49.77a.32.32 0 0 0-.3.29v.55h16.3v-.55a.32.32 0 0 0-.3-.29l-4.49-.77a1 1 0 0 1-.87-1v-.22a1 1 0 0 1 .95-1h5.53a3.85 3.85 0 0 0 3.85-3.85 3.79 3.79 0 0 0-1.17-2.72z"/></svg>