<svg id="圖層_1" data-name="圖層 1" xmlns="http://www.w3.org/2000/svg" xmlns:xlink="http://www.w3.org/1999/xlink" viewBox="0 0 74 20"><defs><style>.cls-1{fill:url(#linear-gradient)}.cls-2{fill:url(#linear-gradient-2)}.cls-3{fill:url(#linear-gradient-3)}.cls-4{fill:url(#linear-gradient-4)}.cls-5{fill:url(#linear-gradient-5)}.cls-6{fill:url(#linear-gradient-6)}.cls-7{fill:url(#linear-gradient-7)}.cls-8{fill:url(#linear-gradient-8)}.cls-9{fill:url(#linear-gradient-9)}.cls-10{fill:url(#linear-gradient-10)}.cls-11{fill:url(#linear-gradient-11)}.cls-12{fill:url(#linear-gradient-12)}.cls-13{fill:url(#linear-gradient-13)}.cls-14{fill:url(#linear-gradient-14)}.cls-15{fill:url(#linear-gradient-15)}.cls-16{fill:url(#linear-gradient-16)}.cls-17{fill:url(#linear-gradient-17)}.cls-18{fill:url(#linear-gradient-18)}.cls-19{fill:url(#linear-gradient-19)}.cls-20{fill:url(#linear-gradient-20)}.cls-21{fill:url(#linear-gradient-21)}.cls-22{fill:url(#linear-gradient-22)}.cls-23{fill:url(#linear-gradient-23)}.cls-24{fill:url(#linear-gradient-24)}.cls-25{fill:url(#linear-gradient-25)}.cls-26{fill:url(#linear-gradient-26)}.cls-27{fill:url(#linear-gradient-27)}.cls-28{fill:url(#linear-gradient-28)}.cls-29{fill:url(#linear-gradient-29)}.cls-30{fill:url(#linear-gradient-30)}.cls-31{fill:url(#linear-gradient-31)}.cls-32{fill:url(#linear-gradient-32)}.cls-33{fill:url(#linear-gradient-33)}.cls-34{fill:url(#linear-gradient-34)}.cls-35{fill:url(#linear-gradient-35)}.cls-36{fill:url(#linear-gradient-36)}.cls-37{fill:url(#linear-gradient-37)}.cls-38{fill:url(#linear-gradient-38)}.cls-39{fill:url(#linear-gradient-39)}.cls-40{fill:url(#linear-gradient-40)}.cls-41{fill:url(#linear-gradient-41)}.cls-42{fill:url(#linear-gradient-42)}.cls-43{fill:url(#linear-gradient-43)}.cls-44{fill:url(#linear-gradient-44)}.cls-45{fill:url(#linear-gradient-45)}.cls-46{fill:url(#linear-gradient-46)}.cls-47{fill:url(#linear-gradient-47)}.cls-48{fill:url(#linear-gradient-48)}.cls-49{fill:url(#linear-gradient-49)}.cls-50{fill:url(#linear-gradient-50)}.cls-51{fill:url(#linear-gradient-51)}.cls-52{fill:url(#linear-gradient-52)}.cls-53{fill:url(#linear-gradient-53)}.cls-54{fill:url(#linear-gradient-54)}.cls-55{fill:url(#linear-gradient-55)}.cls-56{fill:url(#linear-gradient-56)}.cls-57{fill:url(#linear-gradient-57)}.cls-58{fill:url(#linear-gradient-58)}.cls-59{fill:url(#linear-gradient-59)}.cls-60{fill:url(#linear-gradient-60)}.cls-61{fill:url(#linear-gradient-61)}.cls-62{fill:url(#linear-gradient-62)}.cls-63{fill:url(#linear-gradient-63)}.cls-64{fill:url(#linear-gradient-64)}.cls-65{fill:url(#linear-gradient-65)}.cls-66{fill:url(#linear-gradient-66)}.cls-67{fill:url(#linear-gradient-67)}.cls-68{fill:url(#linear-gradient-68)}.cls-69{fill:url(#linear-gradient-69)}.cls-70{fill:url(#linear-gradient-70)}.cls-71{fill:url(#linear-gradient-71)}.cls-72{fill:url(#linear-gradient-72)}.cls-73{fill:url(#linear-gradient-73)}.cls-74{fill:url(#linear-gradient-74)}</style><linearGradient id="linear-gradient" x1="18.53" y1="13.63" x2="18.53" y2="19.72" gradientUnits="userSpaceOnUse"><stop offset="0" stop-color="#121a49"/><stop offset="1" stop-color="#184372"/></linearGradient><linearGradient id="linear-gradient-2" x1="16.07" y1="13.63" x2="16.07" y2="19.72" xlink:href="#linear-gradient"/><linearGradient id="linear-gradient-3" x1="28.83" y1="13.63" x2="28.83" y2="19.72" xlink:href="#linear-gradient"/><linearGradient id="linear-gradient-4" x1="26.37" y1="13.63" x2="26.37" y2="19.72" xlink:href="#linear-gradient"/><linearGradient id="linear-gradient-5" x1="39.47" y1="13.63" x2="39.47" y2="19.72" xlink:href="#linear-gradient"/><linearGradient id="linear-gradient-6" x1="35.04" y1="13.63" x2="35.04" y2="19.72" xlink:href="#linear-gradient"/><linearGradient id="linear-gradient-7" x1="44.93" y1="13.63" x2="44.93" y2="19.72" xlink:href="#linear-gradient"/><linearGradient id="linear-gradient-8" x1="47.21" y1="13.63" x2="47.21" y2="19.72" xlink:href="#linear-gradient"/><linearGradient id="linear-gradient-9" x1="48.81" y1="13.63" x2="48.81" y2="19.72" xlink:href="#linear-gradient"/><linearGradient id="linear-gradient-10" x1="50" y1="13.63" x2="50" y2="19.72" xlink:href="#linear-gradient"/><linearGradient id="linear-gradient-11" x1="60.27" y1="13.63" x2="60.27" y2="19.72" xlink:href="#linear-gradient"/><linearGradient id="linear-gradient-12" x1="57.06" y1="13.63" x2="57.06" y2="19.72" xlink:href="#linear-gradient"/><linearGradient id="linear-gradient-13" x1="55.67" y1="13.63" x2="55.67" y2="19.72" xlink:href="#linear-gradient"/><linearGradient id="linear-gradient-14" x1="2.36" y1="2.77" x2="2.36" y2="8.8" xlink:href="#linear-gradient"/><linearGradient id="linear-gradient-15" x1="1.74" y1="2.77" x2="1.74" y2="8.8" xlink:href="#linear-gradient"/><linearGradient id="linear-gradient-16" x1="2.88" y1="2.77" x2="2.88" y2="8.8" xlink:href="#linear-gradient"/><linearGradient id="linear-gradient-17" x1="18.6" y1="2.77" x2="18.6" y2="8.8" xlink:href="#linear-gradient"/><linearGradient id="linear-gradient-18" x1="16.79" y1="2.77" x2="16.79" y2="8.8" xlink:href="#linear-gradient"/><linearGradient id="linear-gradient-19" x1="13.89" y1="2.77" x2="13.89" y2="8.8" xlink:href="#linear-gradient"/><linearGradient id="linear-gradient-20" x1="15.8" y1="2.77" x2="15.8" y2="8.8" xlink:href="#linear-gradient"/><linearGradient id="linear-gradient-21" x1="27.02" y1="2.77" x2="27.02" y2="8.8" xlink:href="#linear-gradient"/><linearGradient id="linear-gradient-22" x1="25.96" y1="2.77" x2="25.96" y2="8.8" xlink:href="#linear-gradient"/><linearGradient id="linear-gradient-23" x1="24.1" y1="2.77" x2="24.1" y2="8.8" xlink:href="#linear-gradient"/><linearGradient id="linear-gradient-24" x1="25.91" y1="2.77" x2="25.91" y2="8.8" xlink:href="#linear-gradient"/><linearGradient id="linear-gradient-25" x1="30.26" y1="2.77" x2="30.26" y2="8.8" xlink:href="#linear-gradient"/><linearGradient id="linear-gradient-26" x1="27.9" y1="2.77" x2="27.9" y2="8.8" xlink:href="#linear-gradient"/><linearGradient id="linear-gradient-27" x1="29.36" y1="2.77" x2="29.36" y2="8.8" xlink:href="#linear-gradient"/><linearGradient id="linear-gradient-28" x1="35.58" y1="2.77" x2="35.58" y2="8.8" xlink:href="#linear-gradient"/><linearGradient id="linear-gradient-29" x1="37.19" y1="2.77" x2="37.19" y2="8.8" xlink:href="#linear-gradient"/><linearGradient id="linear-gradient-30" x1="47.74" y1="2.77" x2="47.74" y2="8.8" xlink:href="#linear-gradient"/><linearGradient id="linear-gradient-31" x1="46.82" y1="2.77" x2="46.82" y2="8.8" xlink:href="#linear-gradient"/><linearGradient id="linear-gradient-32" x1="43.98" y1="2.77" x2="43.98" y2="8.8" xlink:href="#linear-gradient"/><linearGradient id="linear-gradient-33" x1="50" y1="2.77" x2="50" y2="8.8" xlink:href="#linear-gradient"/><linearGradient id="linear-gradient-34" x1="58.11" y1="2.77" x2="58.11" y2="8.8" xlink:href="#linear-gradient"/><linearGradient id="linear-gradient-35" x1="68.43" y1="2.77" x2="68.43" y2="8.8" xlink:href="#linear-gradient"/><linearGradient id="linear-gradient-36" x1="69.09" y1="2.77" x2="69.09" y2="8.8" xlink:href="#linear-gradient"/><linearGradient id="linear-gradient-37" x1="7.07" y1="2.77" x2="7.07" y2="8.8" xlink:href="#linear-gradient"/><linearGradient id="linear-gradient-38" x1="59.64" y1="2.77" x2="59.64" y2="8.8" xlink:href="#linear-gradient"/><linearGradient id="linear-gradient-39" x1="67.56" y1="2.77" x2="67.56" y2="8.8" xlink:href="#linear-gradient"/><linearGradient id="linear-gradient-40" x1="18.02" y1="14.64" x2="18.02" y2="10.68" xlink:href="#linear-gradient"/><linearGradient id="linear-gradient-41" x1="16.07" y1="14.64" x2="16.07" y2="10.68" xlink:href="#linear-gradient"/><linearGradient id="linear-gradient-42" x1="27.46" y1="14.64" x2="27.46" y2="10.68" xlink:href="#linear-gradient"/><linearGradient id="linear-gradient-43" x1="26.37" y1="14.64" x2="26.37" y2="10.68" xlink:href="#linear-gradient"/><linearGradient id="linear-gradient-44" x1="39.88" y1="14.64" x2="39.88" y2="10.68" xlink:href="#linear-gradient"/><linearGradient id="linear-gradient-45" x1="35.25" y1="14.64" x2="35.25" y2="10.68" xlink:href="#linear-gradient"/><linearGradient id="linear-gradient-46" x1="45.38" y1="14.64" x2="45.38" y2="10.68" xlink:href="#linear-gradient"/><linearGradient id="linear-gradient-47" x1="47.21" y1="14.64" x2="47.21" y2="10.68" xlink:href="#linear-gradient"/><linearGradient id="linear-gradient-48" x1="49.15" y1="14.64" x2="49.15" y2="10.68" xlink:href="#linear-gradient"/><linearGradient id="linear-gradient-49" x1="51.17" y1="14.64" x2="51.17" y2="10.68" xlink:href="#linear-gradient"/><linearGradient id="linear-gradient-50" x1="60.27" y1="14.64" x2="60.27" y2="10.68" xlink:href="#linear-gradient"/><linearGradient id="linear-gradient-51" x1="57.69" y1="14.64" x2="57.69" y2="10.68" xlink:href="#linear-gradient"/><linearGradient id="linear-gradient-52" x1="55.67" y1="14.64" x2="55.67" y2="10.68" xlink:href="#linear-gradient"/><linearGradient id="linear-gradient-53" x1="13.85" y1="5.64" x2="13.85" y2=".51" xlink:href="#linear-gradient"/><linearGradient id="linear-gradient-54" x1="2.36" y1="5.64" x2="2.36" y2=".51" xlink:href="#linear-gradient"/><linearGradient id="linear-gradient-55" x1="2.06" y1="5.64" x2="2.06" y2=".51" xlink:href="#linear-gradient"/><linearGradient id="linear-gradient-56" x1="2.88" y1="5.64" x2="2.88" y2=".51" xlink:href="#linear-gradient"/><linearGradient id="linear-gradient-57" x1="18.6" y1="5.64" x2="18.6" y2=".51" xlink:href="#linear-gradient"/><linearGradient id="linear-gradient-58" x1="16.79" y1="5.64" x2="16.79" y2=".51" xlink:href="#linear-gradient"/><linearGradient id="linear-gradient-59" x1="13.89" y1="5.64" x2="13.89" y2=".51" xlink:href="#linear-gradient"/><linearGradient id="linear-gradient-60" x1="15.9" y1="5.64" x2="15.9" y2=".51" xlink:href="#linear-gradient"/><linearGradient id="linear-gradient-61" x1="27.02" y1="5.64" x2="27.02" y2=".51" xlink:href="#linear-gradient"/><linearGradient id="linear-gradient-62" x1="23.42" y1="5.64" x2="23.42" y2=".51" xlink:href="#linear-gradient"/><linearGradient id="linear-gradient-63" x1="24.1" y1="5.64" x2="24.1" y2=".51" xlink:href="#linear-gradient"/><linearGradient id="linear-gradient-64" x1="30.26" y1="5.64" x2="30.26" y2=".51" xlink:href="#linear-gradient"/><linearGradient id="linear-gradient-65" x1="27.9" y1="5.64" x2="27.9" y2=".51" xlink:href="#linear-gradient"/><linearGradient id="linear-gradient-66" x1="37.5" y1="5.64" x2="37.5" y2=".51" xlink:href="#linear-gradient"/><linearGradient id="linear-gradient-67" x1="36.04" y1="5.64" x2="36.04" y2=".51" xlink:href="#linear-gradient"/><linearGradient id="linear-gradient-68" x1="47.89" y1="5.64" x2="47.89" y2=".51" xlink:href="#linear-gradient"/><linearGradient id="linear-gradient-69" x1="58.36" y1="5.64" x2="58.36" y2=".51" xlink:href="#linear-gradient"/><linearGradient id="linear-gradient-70" x1="68.77" y1="5.64" x2="68.77" y2=".51" xlink:href="#linear-gradient"/><linearGradient id="linear-gradient-71" x1="69.09" y1="5.64" x2="69.09" y2=".51" xlink:href="#linear-gradient"/><linearGradient id="linear-gradient-72" x1="7.28" y1="5.64" x2="7.28" y2=".51" xlink:href="#linear-gradient"/><linearGradient id="linear-gradient-73" x1="7.27" y1="5.64" x2="7.27" y2=".51" xlink:href="#linear-gradient"/><linearGradient id="linear-gradient-74" x1="3.96" y1="5.64" x2="3.96" y2=".51" xlink:href="#linear-gradient"/></defs><title>logo-slogan</title><path class="cls-1" d="M18.92 16.29a.1.1 0 0 0-.09-.05H17a.1.1 0 0 0-.08 0 .1.1 0 0 0 0 .09l1.23 2.42a.1.1 0 0 0 .09.05h1.85a.1.1 0 0 0 .09-.14z"/><path class="cls-2" d="M20.62 15.23l.12-.66a.1.1 0 0 0-.1-.12h-3.85l.28-1.62h3.35a.1.1 0 0 0 .1-.08l.11-.64a.1.1 0 0 0-.1-.12h-3.31l.2-1.13a.1.1 0 0 0-.1-.12h-1.67a.1.1 0 0 0-.1.08l-.64 3.62h-3.3a.1.1 0 0 0-.1.08l-.12.66a.1.1 0 0 0 .1.12h3.27L14 19.84a.1.1 0 0 0 .1.12h1.67a.1.1 0 0 0 .1-.08l.81-4.57h3.89a.1.1 0 0 0 .05-.08z"/><path class="cls-3" d="M29.22 16.29a.1.1 0 0 0-.09-.05h-1.84a.1.1 0 0 0-.08 0 .1.1 0 0 0 0 .09l1.24 2.42a.1.1 0 0 0 .09.05h1.85a.1.1 0 0 0 .09-.14z"/><path class="cls-4" d="M26.94 15.31h3.89a.1.1 0 0 0 .1-.08l.12-.66a.1.1 0 0 0-.1-.12h-3.86l.28-1.62h3.35a.1.1 0 0 0 .1-.08l.11-.64a.1.1 0 0 0-.1-.12h-3.31l.2-1.13a.1.1 0 0 0-.1-.12H26a.1.1 0 0 0-.1.08l-.64 3.62h-3.35a.1.1 0 0 0-.1.08l-.12.66a.1.1 0 0 0 .1.12h3.27l-.8 4.53a.1.1 0 0 0 .1.12H26a.1.1 0 0 0 .1-.08l.7-4z"/><path class="cls-5" d="M41.85 10.83h-3.18a.1.1 0 0 0-.1.08l-1.58 9a.1.1 0 0 0 .1.12h1.3a.1.1 0 0 0 .1-.08l.15-.88h1.79a.1.1 0 0 0 .1-.08l.6-3.42a.1.1 0 0 0 0-.09l-.47-.64.7-.62a.12.12 0 0 0 0-.06l.56-3.16a.1.1 0 0 0-.1-.12zm-1.9.78h.63l-.45 2.58a.28.28 0 0 1-.25.2h-.41zm-.54 6.62h-.63l.54-3H40L39.45 18a.28.28 0 0 1-.26.21z"/><path class="cls-6" d="M38.16 11.33H37a.1.1 0 0 0-.09.06l-.21.45h-1l.17-1a.1.1 0 0 0-.1-.12h-1.43a.1.1 0 0 0-.1.08l-.18 1h-1a.1.1 0 0 0-.1.08l-.1.57a.1.1 0 0 0 .1.12h.94L33.7 14h-1.27a.1.1 0 0 0-.1.08l-.1.56a.1.1 0 0 0 .1.12h.74l-1.21 2.11a.1.1 0 0 0 .08.15h.39l-.51 2.88a.1.1 0 0 0 .1.12h4.26a.1.1 0 0 0 .1-.08l.72-4.17a.1.1 0 0 0-.1-.12h-2.81l.53-.93h2.71a.1.1 0 0 0 .1-.08l.1-.56a.1.1 0 0 0-.1-.12h-.32l1.14-2.5a.1.1 0 0 0-.09-.14zm-3.5 7.89h-1.2l.19-1.07h1.42l-.15.85a.28.28 0 0 1-.26.22zm.72-2.84l-.15.84a.28.28 0 0 1-.25.22h-1.21l.23-1.06zm.34-2.38h-.44l.24-1.36h.81z"/><path class="cls-7" d="M48 12.92l-2.35.24-.07-2.29a.1.1 0 0 0-.1-.09H44a.1.1 0 0 0-.07 0 .12.12 0 0 0 0 .07l.07 2.47-1.1.1a.1.1 0 0 0-.09.08l-.12.66a.1.1 0 0 0 0 .08.11.11 0 0 0 .08 0l1.23-.09.1 2.84-2.3 2.53a.1.1 0 0 0 .07.16h1.25a.1.1 0 0 0 .07 0l1-1.06v1.31a.1.1 0 0 0 .1.09h2.13a.1.1 0 0 0 .08 0l.43-.62a.1.1 0 0 0-.08-.15h-1l-.06-2.36 2-2.21a.1.1 0 0 0-.07-.16H46.4l-.72.73V14l2.21-.22a.1.1 0 0 0 .09-.08l.11-.64a.1.1 0 0 0 0-.08.11.11 0 0 0-.09-.06z"/><path class="cls-8" d="M46.45 11.09l.08 1.17a.1.1 0 0 0 .1.09h1.25a.1.1 0 0 0 .07 0 .12.12 0 0 0 0-.07l-.08-1.17a.1.1 0 0 0-.1-.09h-1.22a.1.1 0 0 0-.07 0 .12.12 0 0 0-.03.07z"/><path class="cls-9" d="M48.82 18l1.1-6.24a.1.1 0 0 0-.1-.12h-.91a.1.1 0 0 0-.1.08l-1.1 6.24a.1.1 0 0 0 .1.12h.91a.1.1 0 0 0 .1-.08z"/><path class="cls-10" d="M52.25 10.8a.1.1 0 0 0-.08 0h-1.43a.1.1 0 0 0-.1.08L49.21 19a.28.28 0 0 1-.26.21h-1.12a.1.1 0 0 0-.09.13l.2.62A.1.1 0 0 0 48 20h2.55a.1.1 0 0 0 .1-.08l1.59-9a.1.1 0 0 0 .01-.12z"/><path class="cls-11" d="M62.58 11.25a.1.1 0 0 0-.08 0h-2.26l.17-.34a.1.1 0 0 0-.09-.14H59a.1.1 0 0 0-.09.05l-1 1.91a.1.1 0 0 0 .09.14h1.33a.1.1 0 0 0 .09-.05l.41-.81h.45l.09.77a.1.1 0 0 0 .1.09h1.35a.1.1 0 0 0 .1-.1l-.05-.77h.53a.1.1 0 0 0 .1-.08l.1-.56a.1.1 0 0 0-.02-.11z"/><path class="cls-12" d="M61.29 18h-1.55l.12-.66H61a.1.1 0 0 0 .1-.08l.67-3.8a.1.1 0 0 0 0-.08.1.1 0 0 0-.07 0h-7.85a.1.1 0 0 0-.1.08l-.67 3.8a.1.1 0 0 0 .1.12h1.12l-.12.66h-1.6a.1.1 0 0 0-.1.08l-.1.54a.1.1 0 0 0 .1.12h1.63l-1.52 1.08a.1.1 0 0 0 .06.18h1.58l1.43-1a.12.12 0 0 0 0-.06v-.18h2.18l-.2 1.14a.1.1 0 0 0 .1.12h1.56a.1.1 0 0 0 .1-.08l.21-1.18h1.59a.1.1 0 0 0 .1-.08l.1-.54a.1.1 0 0 0-.1-.12zm-5.95-4H60l-.07.36a.28.28 0 0 1-.25.21h-4.44zm2.75 3.79a.28.28 0 0 1-.25.22h-2l.12-.66h2.18zm1.45-1.34a.28.28 0 0 1-.25.21h-4.41L55 16h4.63zm-.07-.85h-4.4l.1-.57h4.63l-.06.36a.28.28 0 0 1-.26.18z"/><path class="cls-13" d="M54.81 12.84a.1.1 0 0 0 .09-.05l.42-.81h.44l.08.77a.1.1 0 0 0 .1.09h1.31a.1.1 0 0 0 .1-.11l-.09-.73h.52a.1.1 0 0 0 .1-.08l.1-.55a.1.1 0 0 0-.1-.12h-2.15l.18-.35a.1.1 0 0 0-.09-.14h-1.34a.1.1 0 0 0-.09.05l-1 1.91a.1.1 0 0 0 .09.14z"/><path class="cls-14" d="M3.08 2.82A.1.1 0 0 0 3 2.73H1.53a.1.1 0 0 0-.1.11l.19 1.89a.1.1 0 0 0 .1.09h1.47a.1.1 0 0 0 .1-.11z"/><path class="cls-15" d="M3 5.42H1.56a.1.1 0 0 0-.09.07L.38 9.13a.1.1 0 0 0 0 .09.1.1 0 0 0 .08 0h1.47A.1.1 0 0 0 2 9.18l1.1-3.63a.1.1 0 0 0-.1-.13z"/><path class="cls-16" d="M3.65.14a.1.1 0 0 0-.1-.09H2a.1.1 0 0 0-.1.11l.21 1.9a.1.1 0 0 0 .1.09h1.54a.1.1 0 0 0 .07 0 .1.1 0 0 0 0-.08z"/><path class="cls-17" d="M20.81 3h-1.35l.11-.64h1.25a.1.1 0 0 0 .1-.08v-.14a.1.1 0 0 0-.1-.11h-3.08l.15-.29a.1.1 0 0 0-.09-.14h-.86a.1.1 0 0 0-.09.05l-.41.78a.1.1 0 0 0 .09.14h.86a.1.1 0 0 0 .09-.05l.07-.15h.5l-.1.63H16.4a.1.1 0 0 0-.1.08v.25a.1.1 0 0 0 .1.11h1.51l-.12.7H17l.06-.33a.1.1 0 0 0-.1-.11h-.49a.1.1 0 0 0-.1.08l-.11.63a.1.1 0 0 0 .1.11h4.14a.1.1 0 0 0 .1-.08l.11-.63a.1.1 0 0 0-.1-.11h-.53a.1.1 0 0 0-.1.08v.15a.28.28 0 0 1-.25.22h-.44l.12-.7h1.38a.1.1 0 0 0 .1-.08v-.25a.1.1 0 0 0-.1-.11z"/><path class="cls-18" d="M21.32.55a.1.1 0 0 0-.07 0h-3.39l-.07-.4a.1.1 0 0 0-.1-.08h-1.74a.1.1 0 0 0-.1.11l.06.37h-3.43a.1.1 0 0 0-.1.08l-.14.82a.1.1 0 0 0 .1.11h1.58a.1.1 0 0 0 .1-.08l.06-.36h5.4l-.06.33a.1.1 0 0 0 .1.11h1.58a.1.1 0 0 0 .1-.08l.14-.82a.1.1 0 0 0-.02-.11z"/><path class="cls-19" d="M15.78 4.35v-.26a.1.1 0 0 0 0-.08.11.11 0 0 0-.08 0L14.67 4l.1-.56h.87a.1.1 0 0 0 .1-.08V3.1a.1.1 0 0 0-.1-.11h-.84l.1-.59h1a.1.1 0 0 0 .1-.08v-.26A.1.1 0 0 0 16 2h-3.69a.1.1 0 0 0-.1.08v.26a.1.1 0 0 0 .1.11h1.08l-.1.59h-1a.1.1 0 0 0-.1.08v.26a.1.1 0 0 0 .1.11h1l-.29.59h-1.19a.1.1 0 0 0-.09.08v.25a.1.1 0 0 0 .1.11l3.87-.13a.1.1 0 0 0 .09-.04z"/><path class="cls-20" d="M20.18 5a.1.1 0 0 0-.07 0h-8a.1.1 0 0 0-.1.08l-.59 3.37a.1.1 0 0 0 .1.11h.94l-1 .55a.1.1 0 0 0 0 .18h1.87l1.37-.72h1.52l1 .71h2.05a.1.1 0 0 0 0-.18l-.82-.55h1a.1.1 0 0 0 .1-.08l.59-3.37a.1.1 0 0 0 .04-.1zm-2.1 2.73a.28.28 0 0 1-.26.21h-4.7l.1-.53h4.92zm.17-.95A.28.28 0 0 1 18 7h-4.7l.09-.51h4.92zm.17-.94a.28.28 0 0 1-.25.21h-4.7l.08-.51h4.92z"/><path class="cls-21" d="M25.48 3.5h2.4a.1.1 0 0 0 .08 0l.25-.4a.1.1 0 0 0-.08-.15h-1.4l.14-.81h1.37a.1.1 0 0 0 .1-.08l.32-1.8a.1.1 0 0 0-.1-.11H26a.1.1 0 0 0-.1.08l-.57 3.21a.1.1 0 0 0 .1.11zM27.11.69h.74l-.11.65a.28.28 0 0 1-.24.22H27z"/><path class="cls-22" d="M30.46 8.5h-5.4l-.63-.35-.43-.26.46-2.62a.1.1 0 0 0-.1-.11h-.72l1.16-1.74.15-.86a.1.1 0 0 0-.1-.11h-2.27a.1.1 0 0 0-.1.08l-.11.62a.1.1 0 0 0 .1.11h.87L22 5.12l-.12.68A.1.1 0 0 0 22 6h.8l-.3 1.56-1.13 1.54a.1.1 0 0 0 .08.15h1.46a.1.1 0 0 0 .08 0l.48-.67 1.22.69h5.39a.1.1 0 0 0 .08 0l.38-.56a.1.1 0 0 0-.08-.15z"/><path class="cls-23" d="M23.36 1.71a.1.1 0 0 0 .1.08h1.64a.1.1 0 0 0 .1-.12L24.85.08a.1.1 0 0 0-.1-.08h-1.64a.1.1 0 0 0-.1.12z"/><path class="cls-24" d="M27.12 6.83h-1.49l-1 1a.1.1 0 0 0 .07.17h1.51l1-1a.1.1 0 0 0-.07-.17z"/><path class="cls-25" d="M28.74 3.5h2.43a.1.1 0 0 0 .08 0l.24-.4a.1.1 0 0 0-.08-.15H30l.14-.79h1.35a.1.1 0 0 0 .1-.08l.28-1.87a.1.1 0 0 0-.1-.11h-2.46a.1.1 0 0 0-.1.08l-.57 3.21a.1.1 0 0 0 .1.11zM30.36.69h.74l-.1.66a.28.28 0 0 1-.24.21h-.56z"/><path class="cls-26" d="M24.82 6.54h5.93a.1.1 0 0 0 .1-.08l.09-.5a.1.1 0 0 0-.1-.11h-.77l.13-.76h.69A.1.1 0 0 0 31 5l.09-.49a.1.1 0 0 0-.1-.11h-.66l.05-.3a.1.1 0 0 0-.1-.11h-1.39a.1.1 0 0 0-.1.08l-.06.34h-1.16l.05-.3a.1.1 0 0 0-.1-.11h-1.38a.1.1 0 0 0-.1.08l-.04.33h-.63a.1.1 0 0 0-.1.08l-.09.51a.1.1 0 0 0 .1.11h.59l-.13.76h-.82a.1.1 0 0 0-.1.08l-.09.5a.1.1 0 0 0 .1.11zm2.63-1.45h1.17l-.1.56a.28.28 0 0 1-.23.2h-1z"/><path class="cls-27" d="M29.72 6.83h-1.38a.1.1 0 0 0-.07.16L29 8h1.35a.1.1 0 0 0 .08-.16l-.66-1a.1.1 0 0 0-.05-.01z"/><path class="cls-28" d="M36.84 7a.1.1 0 0 0-.08 0l-2.26.14a.1.1 0 0 0-.09.08l-.11.61a.1.1 0 0 0 .1.12l2.26-.14a.1.1 0 0 0 .09-.08l.11-.61a.1.1 0 0 0-.02-.12z"/><path class="cls-29" d="M40.78 9.16L42.35.23a.1.1 0 0 0-.1-.12H33.7a.1.1 0 0 0-.1.08L32 9.13a.1.1 0 0 0 .1.11h8.56a.1.1 0 0 0 .12-.08zm-1.36-.87a.28.28 0 0 1-.26.21h-5.48L35 .91h5.7l-.48 2.71a.1.1 0 0 0-.09-.06h-.75L39 4V2.82h.86a.1.1 0 0 0 .1-.08l.09-.53A.1.1 0 0 0 40 2.1h-.09v-.54a.1.1 0 0 0 0-.07.1.1 0 0 0-.07 0h-.4a.1.1 0 0 0-.1.09v.55h-.24v-.65a.1.1 0 0 0 0-.07H38a.1.1 0 0 0-.1.09v.66h-2.58a.1.1 0 0 0-.1.08l-.09.53a.1.1 0 0 0 .1.11h2.55l-.1 2.43-.85.84.44-2.47a.1.1 0 0 0-.1-.11h-1.94a.1.1 0 0 0-.1.08l-.46 2.61a.1.1 0 0 0 .1.11h1.83l-.36.37a.1.1 0 0 0 .07.17h.76l.53-.54-.07 1.57a.1.1 0 0 0 0 .07h1.33a.1.1 0 0 0 .08 0l.34-.5a.1.1 0 0 0-.08-.15h-.45L38.89 5l1.32-1.32zm-3-4l-.2 1.14a.28.28 0 0 1-.25.2h-.44l.24-1.34z"/><path class="cls-30" d="M43.28 4.34h.9L43 5.93a.1.1 0 0 0 .08.16h.8l.09.54a.1.1 0 0 0 .1.08h1.67a.1.1 0 0 0 .1-.1l-.34-1.42.59-.85h3l.43.94-.71 1.28a.1.1 0 0 0 .09.15h1.6a.1.1 0 0 0 .09 0l.32-.57h.88a.1.1 0 0 0 .09-.1l-.81-1.6h1a.1.1 0 0 0 .1-.08l.1-.56a.1.1 0 0 0-.1-.12h-5.55l.57-.72h4.44a.1.1 0 0 0 .1-.08l.1-.55a.1.1 0 0 0-.1-.12h-4l.53-.74h4.11a.1.1 0 0 0 .1-.08l.1-.55a.1.1 0 0 0-.1-.12h-3.71l.31-.43A.1.1 0 0 0 49 .05h-1.6a.1.1 0 0 0-.08 0l-.39.54h-2.76a.1.1 0 0 0-.1.08l-.1.55a.1.1 0 0 0 .1.12h2.29l-.55.74h-1.45a.1.1 0 0 0-.1.08l-.1.55a.1.1 0 0 0 .1.12h1l-.55.72h-1.33a.1.1 0 0 0-.1.08l-.1.56a.1.1 0 0 0 .1.12z"/><path class="cls-31" d="M48.33 4.9h-1.54a.1.1 0 0 0-.1.08l-.58 3.3a.28.28 0 0 1-.24.21h-.57a.1.1 0 0 0-.1.12l.12.55a.1.1 0 0 0 .1.08h2.18a.1.1 0 0 0 .1-.08L48.42 5a.1.1 0 0 0-.1-.12z"/><path class="cls-32" d="M45.4 7.28h-1.55a.1.1 0 0 0-.08 0L42.47 9a.1.1 0 0 0 .08.16h1.55a.1.1 0 0 0 .08 0l1.31-1.65a.1.1 0 0 0 0-.1.1.1 0 0 0-.09-.13z"/><path class="cls-33" d="M50.55 7.34a.1.1 0 0 0-.09-.06h-1.64a.1.1 0 0 0-.09.14l.7 1.65a.1.1 0 0 0 .09.06h1.66a.1.1 0 0 0 .09-.13z"/><path class="cls-34" d="M53.82 3.16h.48l-1.05 6a.1.1 0 0 0 .1.12h8.19a.1.1 0 0 0 .09-.06l.29-.61a.1.1 0 0 0-.09-.14h-6.75L56 3.16h1.17l-.71 4a.1.1 0 0 0 .1.12h4.65a.1.1 0 0 0 .1-.08l.71-4h.73a.1.1 0 0 0 .1-.08l.15-.66a.1.1 0 0 0-.1-.12h-.7l.36-2.21a.1.1 0 0 0-.1-.12H61a.1.1 0 0 0-.1.08l-.4 2.25H59l.4-2.21a.1.1 0 0 0-.1-.12h-1.49a.1.1 0 0 0-.1.08l-.4 2.25h-1.16l.33-1.85a.1.1 0 0 0-.1-.12h-1.51a.1.1 0 0 0-.1.08l-.33 1.89h-.51a.1.1 0 0 0-.1.08l-.11.58a.1.1 0 0 0 .1.12zm6.49 0l-.58 3.29h-1.44l.58-3.29z"/><path class="cls-35" d="M71.84 8.24l.1-.55a.1.1 0 0 0-.1-.12h-3.06l.16-.89h3.31a.1.1 0 0 0 .1-.08l.1-.55a.1.1 0 0 0-.1-.12h-.61l.18-1h.88a.1.1 0 0 0 .1-.08l.1-.54a.1.1 0 0 0-.1-.12H72l.18-1h.64a.1.1 0 0 0 .1-.08l.1-.54a.1.1 0 0 0-.1-.12h-8.24a.1.1 0 0 0-.1.08l-.1.54a.1.1 0 0 0 .1.12h.6l-.18 1h-.87a.1.1 0 0 0-.1.08l-.1.54a.1.1 0 0 0 0 .08.1.1 0 0 0 .08 0h.84l-.18 1h-.64A.1.1 0 0 0 64 6l-.1.55a.1.1 0 0 0 .1.12h3.25l-.16.89H64a.1.1 0 0 0-.1.08l-.1.55a.1.1 0 0 0 .1.12h3l-.15.84a.1.1 0 0 0 .1.12h1.55a.1.1 0 0 0 .1-.08l.15-.88h3.1a.1.1 0 0 0 .09-.07zm-4.5-2.3v-.22a.28.28 0 0 1-.25.22h-.84l.18-1h1.05l-.18 1zm-.74-1.77l.18-1h1.05l-.18 1zm4-1l-.13.83a.28.28 0 0 1-.25.19h-.85l.18-1zm-1.35 1.74h1.06l-.15.84a.28.28 0 0 1-.25.19h-.84z"/><path class="cls-36" d="M64.65 1.31h1.62l-.08.45a.1.1 0 0 0 0 .08.1.1 0 0 0 .08 0h1.46a.1.1 0 0 0 .1-.08l.09-.49h2.18l-.1.49a.1.1 0 0 0 0 .08.1.1 0 0 0 .08 0h1.47a.1.1 0 0 0 .1-.08l.09-.49h1.63a.1.1 0 0 0 .1-.08l.1-.56a.1.1 0 0 0-.1-.12h-1.6L72 .17a.1.1 0 0 0-.1-.12h-1.48a.1.1 0 0 0-.1.08l-.07.41h-2.18l.07-.4A.1.1 0 0 0 68 0h-1.42a.1.1 0 0 0-.1.08l-.08.44h-1.65a.1.1 0 0 0-.1.08l-.1.56a.1.1 0 0 0 .1.12z"/><path class="cls-37" d="M10.8.73H6.58l.3-.53A.1.1 0 0 0 6.8.05H5.43a.1.1 0 0 0-.08 0L4 2.46a.1.1 0 0 0 .08.15h.7l-.69 1.11a.1.1 0 0 0 .08.15h.93a.1.1 0 0 0 .08 0l.24-.42h.06l-.21 1.17H3.85a.1.1 0 0 0-.1.08l-.1.54a.1.1 0 0 0 .1.11h1.39l-.45 2.59h-.53l.3-1.72a.1.1 0 0 0-.1-.11h-.6a.1.1 0 0 0-.1.08l-.42 2.4a.1.1 0 0 0 .1.11h3.58l.08.48a.1.1 0 0 0 .1.07h2.2a.1.1 0 0 0 .1-.08L10.89.85a.1.1 0 0 0-.1-.11zM7.95 8.5v-.22a.28.28 0 0 1-.24.22h-.35l.4-2.28a.1.1 0 0 0-.1-.11h-.55a.1.1 0 0 0-.1.08L6.7 7.94v-.22a.28.28 0 0 1-.22.22h-.32l.45-2.58h1.34A.1.1 0 0 0 8 5.28l.1-.54a.1.1 0 0 0-.1-.12H6.74L7 3.39h1.2a.1.1 0 0 0 .1-.08l.1-.59a.1.1 0 0 0-.1-.11H5.88l.18-.31A.1.1 0 0 0 6 2.15h-.26l.38-.64h3.06z"/><path class="cls-38" d="M59.77 6.22a.28.28 0 0 1-.26.22h.22z"/><path class="cls-39" d="M67.43 4.17h.22v-.22a.28.28 0 0 1-.22.22z"/><path class="cls-40" d="M18.83 16.24H17a.1.1 0 0 0-.08 0 .1.1 0 0 0 0 .09l.2.4 2-.05-.22-.44a.1.1 0 0 0-.07 0z"/><path class="cls-41" d="M20.53 15.31a.1.1 0 0 0 .1-.08l.12-.66a.1.1 0 0 0-.1-.12h-3.86l.28-1.62h3.35a.1.1 0 0 0 .1-.08l.11-.64a.1.1 0 0 0-.1-.12h-3.31l.2-1.13a.1.1 0 0 0-.1-.12h-1.67a.1.1 0 0 0-.1.08l-.64 3.62h-3.3a.1.1 0 0 0-.1.08l-.12.66a.1.1 0 0 0 .1.12h3.27l-.26 1.5h1.87l.26-1.49z"/><path class="cls-42" d="M27.21 16.28h.49-.41a.1.1 0 0 0-.08 0z"/><path class="cls-43" d="M26.84 15.9l.1-.59h3.89a.1.1 0 0 0 .1-.08l.12-.66a.1.1 0 0 0-.1-.12h-3.86l.28-1.62h3.35a.1.1 0 0 0 .1-.08l.11-.64a.1.1 0 0 0-.1-.12h-3.31l.2-1.13a.1.1 0 0 0-.1-.12H26a.1.1 0 0 0-.1.08l-.64 3.62h-3.35a.1.1 0 0 0-.1.08l-.12.66a.1.1 0 0 0 .1.12h3.27l-.2 1.13 1.9-.13.07-.41z"/><path class="cls-44" d="M41.35 14.17a.12.12 0 0 0 0-.06l.56-3.16a.1.1 0 0 0-.1-.12h-3.14a.1.1 0 0 0-.1.08l-.76 4.31 2.88-.36v-.07zm-1.22 0a.28.28 0 0 1-.25.2h-.41l.53-2.76h.63z"/><path class="cls-45" d="M37.33 14.72a.1.1 0 0 0 .1-.08l.1-.56a.1.1 0 0 0-.1-.12h-.32l1.14-2.5a.1.1 0 0 0-.09-.14H37a.1.1 0 0 0-.09.06l-.21.45h-1l.17-1a.1.1 0 0 0-.1-.12h-1.43a.1.1 0 0 0-.1.08l-.18 1h-1a.1.1 0 0 0-.1.08l-.1.57a.1.1 0 0 0 .1.12h.94L33.7 14h-1.27a.1.1 0 0 0-.1.08l-.1.56a.1.1 0 0 0 .1.12h.74l-.63 1.1 1.66-.17.53-.93zm-1.82-2.12h.81l-.6 1.4h-.44z"/><path class="cls-46" d="M47.89 13.75a.1.1 0 0 0 .09-.08l.11-.64a.1.1 0 0 0 0-.08.11.11 0 0 0-.08 0l-2.35.24-.07-2.29a.1.1 0 0 0-.1-.09H44a.1.1 0 0 0-.07 0 .12.12 0 0 0 0 .07l.07 2.44-1.1.1a.1.1 0 0 0-.09.08l-.12.66a.1.1 0 0 0 0 .08.11.11 0 0 0 .08 0l1.23-.09v.35l1.65-.14V14z"/><path class="cls-47" d="M47.8 11h-1.25a.1.1 0 0 0-.07 0 .12.12 0 0 0 0 .07l.08 1.17a.1.1 0 0 0 .1.09h1.25a.1.1 0 0 0 .07 0 .12.12 0 0 0 0-.07l-.08-1.17a.1.1 0 0 0-.1-.09z"/><path class="cls-48" d="M49.9 11.65a.1.1 0 0 0-.08 0h-.91a.1.1 0 0 0-.1.08l-.44 2.48 1.12-.06.42-2.39a.1.1 0 0 0-.01-.11z"/><path class="cls-49" d="M52.25 10.8a.1.1 0 0 0-.08 0h-1.43a.1.1 0 0 0-.1.08l-.57 3.24 1.64-.12.56-3.15a.1.1 0 0 0-.02-.05z"/><path class="cls-50" d="M62.5 11.9l.1-.56a.1.1 0 0 0-.1-.12h-2.26l.17-.34a.1.1 0 0 0-.09-.14H59a.1.1 0 0 0-.09.05l-1 1.91a.1.1 0 0 0 .09.14h1.33a.1.1 0 0 0 .09-.05l.41-.81h.45l.09.77a.1.1 0 0 0 .1.09h1.35a.1.1 0 0 0 .1-.1l-.05-.74h.53a.1.1 0 0 0 .1-.1z"/><path class="cls-51" d="M55.34 14H60v.15l1.64.11.14-.79a.1.1 0 0 0 0-.08.1.1 0 0 0-.07 0h-7.86a.1.1 0 0 0-.1.08l-.11.6z"/><path class="cls-52" d="M57.89 11.9l.1-.55a.1.1 0 0 0-.1-.12h-2.16l.18-.35a.1.1 0 0 0-.09-.14h-1.34a.1.1 0 0 0-.09.05l-1 1.91a.1.1 0 0 0 .09.14h1.35a.1.1 0 0 0 .09-.05l.42-.81h.44l.08.77a.1.1 0 0 0 .1.09h1.31a.1.1 0 0 0 .1-.11l-.11-.73h.52a.1.1 0 0 0 .11-.1z"/><path class="cls-53" d="M13.22 7.49h1.26-1.25z"/><path class="cls-54" d="M1.72 4.81h1.47a.1.1 0 0 0 .1-.11l-.21-1.88A.1.1 0 0 0 3 2.73H1.53a.1.1 0 0 0-.1.11l.19 1.89a.1.1 0 0 0 .1.08z"/><path class="cls-55" d="M3.1 5.55a.1.1 0 0 0-.1-.13H1.56a.1.1 0 0 0-.09.07L1 7q.72.1 1.6.19z"/><path class="cls-56" d="M2.23 2.15h1.52a.1.1 0 0 0 .07 0 .1.1 0 0 0 0-.08L3.65.14a.1.1 0 0 0-.1-.09H2a.1.1 0 0 0-.1.11l.21 1.9a.1.1 0 0 0 .12.09z"/><path class="cls-57" d="M20.83 2.33a.1.1 0 0 0 .1-.08v-.14a.1.1 0 0 0-.1-.11h-3.09l.15-.29a.1.1 0 0 0-.09-.14h-.86a.1.1 0 0 0-.09.05l-.41.78a.1.1 0 0 0 .09.14h.86a.1.1 0 0 0 .09-.05l.07-.15h.5l-.1.66H16.4a.1.1 0 0 0-.1.08v.25a.1.1 0 0 0 .1.11h1.51l-.12.7H17l.06-.33a.1.1 0 0 0-.1-.11h-.49a.1.1 0 0 0-.1.08l-.11.63a.1.1 0 0 0 .1.11h4.14a.1.1 0 0 0 .1-.08l.11-.63a.1.1 0 0 0-.1-.11h-.53a.1.1 0 0 0-.1.08v.15a.28.28 0 0 1-.25.22h-.44l.12-.7h1.38a.1.1 0 0 0 .1-.08v-.25a.1.1 0 0 0-.1-.11h-1.33l.11-.64z"/><path class="cls-58" d="M12.33 1.53h1.58a.1.1 0 0 0 .1-.08l.06-.36h5.4l-.06.33a.1.1 0 0 0 .1.11h1.59a.1.1 0 0 0 .1-.08l.14-.82a.1.1 0 0 0-.1-.11h-3.38l-.07-.4a.1.1 0 0 0-.1-.08h-1.74a.1.1 0 0 0-.1.11l.06.37h-3.43a.1.1 0 0 0-.1.08l-.14.82a.1.1 0 0 0 .1.11z"/><path class="cls-59" d="M11.82 4.57l3.87-.13a.1.1 0 0 0 .09-.08V4.1a.1.1 0 0 0 0-.08.11.11 0 0 0-.08 0L14.67 4l.1-.56h.87a.1.1 0 0 0 .1-.08V3.1a.1.1 0 0 0-.1-.11h-.84l.1-.59h1a.1.1 0 0 0 .1-.08v-.26A.1.1 0 0 0 16 2h-3.69a.1.1 0 0 0-.1.08v.26a.1.1 0 0 0 .1.11h1.08l-.1.59h-1a.1.1 0 0 0-.1.08v.26a.1.1 0 0 0 .1.11h1l-.29.59h-1.19a.1.1 0 0 0-.09.08v.25a.1.1 0 0 0 .1.11z"/><path class="cls-60" d="M13.23 7.44h1.25c1.65-.07 3.44-.18 5.38-.33l.35-2a.1.1 0 0 0-.1-.11h-8a.1.1 0 0 0-.1.08l-.43 2.46h1.64zm.33-1.87h4.92v.3a.28.28 0 0 1-.25.21h-4.7zm-.17.94h4.92l-.05.3A.28.28 0 0 1 18 7h-4.7z"/><path class="cls-61" d="M25.48 3.5h2.4a.1.1 0 0 0 .08 0l.25-.4a.1.1 0 0 0-.08-.15h-1.4l.14-.81h1.37a.1.1 0 0 0 .1-.08l.32-1.8a.1.1 0 0 0-.1-.11H26a.1.1 0 0 0-.1.08l-.57 3.21a.1.1 0 0 0 .1.11zM27.11.69h.74l-.11.65a.28.28 0 0 1-.24.22H27z"/><path class="cls-62" d="M24.44 5.28a.1.1 0 0 0-.1-.11h-.72l1.16-1.74.15-.86a.1.1 0 0 0-.1-.11h-2.25a.1.1 0 0 0-.1.08l-.11.62a.1.1 0 0 0 .1.11h.87L22 5.12l-.12.68A.1.1 0 0 0 22 6h.8l-.17.91 1.57-.16z"/><path class="cls-63" d="M23.46 1.79h1.64a.1.1 0 0 0 .1-.12L24.85.08a.1.1 0 0 0-.1-.08h-1.64a.1.1 0 0 0-.1.12l.35 1.59a.1.1 0 0 0 .1.08z"/><path class="cls-64" d="M28.67 3.47a.1.1 0 0 0 .07 0h2.43a.1.1 0 0 0 .08 0l.24-.4a.1.1 0 0 0-.08-.15H30l.14-.79h1.35a.1.1 0 0 0 .1-.08l.28-1.84a.1.1 0 0 0-.1-.11h-2.46a.1.1 0 0 0-.1.08l-.57 3.21a.1.1 0 0 0 .03.08zM30.36.69h.74l-.1.66a.28.28 0 0 1-.24.21h-.56z"/><path class="cls-65" d="M30.92 5.88a.1.1 0 0 0-.07 0h-.77l.13-.76h.69A.1.1 0 0 0 31 5l.09-.49a.1.1 0 0 0-.1-.11h-.66l.05-.3a.1.1 0 0 0-.1-.11h-1.39a.1.1 0 0 0-.1.08l-.06.34h-1.16l.05-.3a.1.1 0 0 0-.1-.11h-1.38a.1.1 0 0 0-.1.08l-.04.33h-.63a.1.1 0 0 0-.1.08l-.09.51a.1.1 0 0 0 .1.11h.59l-.13.76h-.82a.1.1 0 0 0-.1.08l-.09.5a.1.1 0 0 0 .1.11h.84q2.49-.28 5.26-.66zm-2.4-.24a.28.28 0 0 1-.23.2h-1l.13-.76h1.17z"/><path class="cls-66" d="M35 .91h5.7l-.48 2.71a.1.1 0 0 0-.09-.06h-.75L39 4V2.82h.86a.1.1 0 0 0 .1-.08l.09-.53A.1.1 0 0 0 40 2.1h-.09v-.54a.1.1 0 0 0 0-.07.1.1 0 0 0-.07 0h-.4a.1.1 0 0 0-.1.09v.55h-.24v-.65a.1.1 0 0 0 0-.07H38a.1.1 0 0 0-.1.09v.66h-2.58a.1.1 0 0 0-.1.08l-.09.53a.1.1 0 0 0 .1.11h2.55l-.08 2 1.64-.27.88-.87-.13.76.84-.14.72-.12.7-4a.1.1 0 0 0-.1-.12H33.7a.1.1 0 0 0-.1.08l-1 5.44 1.59-.23z"/><path class="cls-67" d="M35.75 4.24h.66l-.15.85L37 5l.24-1.35a.1.1 0 0 0-.1-.11h-1.91a.1.1 0 0 0-.1.08l-.31 1.73.76-.12z"/><path class="cls-68" d="M47.19 2.87h4.44a.1.1 0 0 0 .1-.08l.1-.55a.1.1 0 0 0-.1-.12h-4l.53-.74h4.11a.1.1 0 0 0 .1-.08l.1-.55a.1.1 0 0 0-.1-.12h-3.71l.31-.43A.1.1 0 0 0 49 .05h-1.6a.1.1 0 0 0-.08 0l-.39.54h-2.76a.1.1 0 0 0-.1.08l-.1.55a.1.1 0 0 0 .1.12h2.29l-.55.74h-1.45a.1.1 0 0 0-.1.08l-.1.55a.1.1 0 0 0 .1.12h1l-.55.72h-1.33a.1.1 0 0 0-.1.08l-.05.3c.92-.13 2.09-.29 3.43-.44z"/><path class="cls-69" d="M62.89 2.87l.11-.41a.1.1 0 0 0-.1-.12h-.7l.36-2.21a.1.1 0 0 0-.1-.12H61a.1.1 0 0 0-.1.08l-.4 2.25H59l.4-2.21a.1.1 0 0 0-.1-.12h-1.49a.1.1 0 0 0-.1.08l-.4 2.25h-1.16l.33-1.85a.1.1 0 0 0-.1-.12h-1.51a.1.1 0 0 0-.1.08l-.33 1.89h-.51a.1.1 0 0 0-.1.08l-.09.5a87.33 87.33 0 0 1 9.15-.05z"/><path class="cls-70" d="M66.79 3.15h1.05v.19q.85.12 1.68.27l.08-.47h1.06l-.12.67c.85.18 1.66.39 2.45.64v-.17a.1.1 0 0 0-.1-.12H72l.18-1h.64a.1.1 0 0 0 .1-.08l.1-.54a.1.1 0 0 0-.1-.12h-8.24a.1.1 0 0 0-.1.08l-.08.5c.77.06 1.53.13 2.28.22z"/><path class="cls-71" d="M64.65 1.31h1.62l-.08.45a.1.1 0 0 0 0 .08.1.1 0 0 0 .08 0h1.46a.1.1 0 0 0 .1-.08l.09-.49h2.18l-.1.49a.1.1 0 0 0 0 .08.1.1 0 0 0 .08 0h1.47a.1.1 0 0 0 .1-.08l.09-.49h1.63a.1.1 0 0 0 .1-.08l.1-.56a.1.1 0 0 0-.1-.12h-1.6L72 .17a.1.1 0 0 0-.1-.12h-1.48a.1.1 0 0 0-.1.08l-.07.41h-2.18l.07-.4A.1.1 0 0 0 68 0h-1.42a.1.1 0 0 0-.1.08l-.08.44h-1.65a.1.1 0 0 0-.1.08l-.1.56a.1.1 0 0 0 .1.12z"/><path class="cls-72" d="M6.61 5.36h1.34A.1.1 0 0 0 8 5.28l.1-.54a.1.1 0 0 0-.1-.12H6.74L7 3.39h1.2a.1.1 0 0 0 .1-.08l.1-.59a.1.1 0 0 0-.1-.11H5.88l.18-.31A.1.1 0 0 0 6 2.15h-.26l.38-.64h3.06l-1.06 6h1.59L10.89.85a.1.1 0 0 0-.1-.11H6.58l.3-.54A.1.1 0 0 0 6.8.05H5.43a.1.1 0 0 0-.08 0L4 2.46a.1.1 0 0 0 .08.15h.7l-.69 1.11a.1.1 0 0 0 .08.15h.93a.1.1 0 0 0 .08 0l.24-.42h.06l-.21 1.17H3.85a.1.1 0 0 0-.1.08l-.1.54a.1.1 0 0 0 .1.11h1.39l-.36 2 1.46.07z"/><path class="cls-73" d="M7.74 6.13a.1.1 0 0 0-.07 0h-.56a.1.1 0 0 0-.1.08L6.78 7.5h.76l.23-1.31a.1.1 0 0 0-.03-.06z"/><path class="cls-74" d="M4.46 6.21a.1.1 0 0 0-.1-.11h-.6a.1.1 0 0 0-.1.08l-.2 1.13.79.06z"/></svg>