<svg xmlns="http://www.w3.org/2000/svg" xmlns:xlink="http://www.w3.org/1999/xlink" width="36" height="36" viewBox="0 0 36 36">
    <defs>
        <path id="a" d="M21.042 0v19.777H0V0z"/>
    </defs>
    <g fill="none" fill-rule="evenodd">
        <path fill="#FAFAFA" d="M-1186-724H254V754h-1440z"/>
        <g transform="translate(.53 .353)">
            <circle cx="17.647" cy="17.647" r="16.471" fill="#71BF4D"/>
            <g transform="translate(7.059 8.235)">
                <mask id="b" fill="#fff">
                    <use xlink:href="#a"/>
                </mask>
                <path fill="#FFF" d="M16.98 8.034c.304 0 .552.244.552.545 0 .3-.248.544-.552.544H15.44v.973h1.539c.304 0 .552.244.552.544 0 .3-.248.545-.552.545h-2.09a.549.549 0 0 1-.552-.545V6.516c0-.3.247-.544.551-.544h2.09c.305 0 .553.244.553.544 0 .3-.248.544-.552.544H15.44v.974h1.539zm-3.383 2.606a.543.543 0 0 1-.377.516.557.557 0 0 1-.616-.19L10.461 8.09v2.551c0 .3-.247.545-.55.545a.549.549 0 0 1-.553-.545V6.516a.545.545 0 0 1 .553-.544c.171 0 .337.081.44.218l2.143 2.878V6.516c0-.3.248-.544.552-.544.304 0 .551.244.551.544v4.124zm-5.032 0c0 .3-.247.545-.552.545a.548.548 0 0 1-.55-.545V6.516c0-.3.247-.544.55-.544.305 0 .552.244.552.544v4.124zm-2.162.545h-2.09a.549.549 0 0 1-.552-.545V6.516c0-.3.247-.544.552-.544.304 0 .551.244.551.544v3.58h1.539c.304 0 .552.244.552.544 0 .3-.248.545-.552.545zm14.639-2.763c0-4.644-4.72-8.422-10.52-8.422C4.72 0 0 3.778 0 8.422c0 4.163 3.744 7.65 8.8 8.31.342.072.808.222.926.511.106.262.07.673.034.938l-.15.889c-.046.262-.211 1.026.911.56 1.123-.467 6.06-3.52 8.266-6.026 1.525-1.65 2.255-3.324 2.255-5.182z" mask="url(#b)"/>
            </g>
        </g>
    </g>
</svg>
