<?xml version="1.0" standalone="no"?>
<!DOCTYPE svg PUBLIC "-//W3C//DTD SVG 1.1//EN" "http://www.w3.org/Graphics/SVG/1.1/DTD/svg11.dtd" >
<svg xmlns="http://www.w3.org/2000/svg">
<metadata>Generated by IcoMoon</metadata>
<defs>
<font id="richart-webfont" horiz-adv-x="1024">
<font-face units-per-em="1024" ascent="877.7142857142858" descent="-146.28571428571428" />
<missing-glyph horiz-adv-x="1024" />
<glyph unicode="&#x20;" horiz-adv-x="256" d="" />
<glyph unicode="&#xe900;" glyph-name="arrow-top" d="M492.089 599.467l-455.111-456.533c-11.378-11.378-11.378-28.444 0-38.4 11.378-11.378 28.444-11.378 38.4 0l436.622 436.622 436.622-436.622c11.378-11.378 28.444-11.378 38.4 0 5.689 5.689 8.533 12.8 8.533 19.911s-2.844 14.222-8.533 19.911l-455.111 455.111c-11.378 9.956-28.444 9.956-39.822 0v0z" />
<glyph unicode="&#xe901;" glyph-name="bill" d="M868.978 627.911l-201.956 201.956c-4.267 4.267-8.533 5.689-14.222 5.689h-422.4c-44.089 0-81.067-35.556-81.067-81.067v-806.4c0-44.089 35.556-81.067 81.067-81.067h564.622c44.089 0 81.067 35.556 81.067 81.067v665.6c-1.422 5.689-2.844 11.378-7.111 14.222zM672.711 767.289l132.267-132.267h-92.444c-22.756 0-39.822 18.489-39.822 39.822v92.444zM834.844-50.489c0-22.756-18.489-39.822-39.822-39.822h-564.622c-22.756 0-39.822 18.489-39.822 39.822v804.978c0 22.756 18.489 39.822 39.822 39.822h402.489v-120.889c0-44.089 35.556-81.067 81.067-81.067h120.889v-642.844zM733.867 270.933h-443.733c-11.378 0-19.911-8.533-19.911-19.911s8.533-19.911 19.911-19.911h443.733c11.378 0 19.911 8.533 19.911 19.911s-8.533 19.911-19.911 19.911zM733.867 391.822h-443.733c-11.378 0-19.911-8.533-19.911-19.911s8.533-19.911 19.911-19.911h443.733c11.378 0 19.911 8.533 19.911 19.911s-8.533 19.911-19.911 19.911zM733.867 150.044h-443.733c-11.378 0-19.911-8.533-19.911-19.911s8.533-19.911 19.911-19.911h443.733c11.378 0 19.911 8.533 19.911 19.911s-8.533 19.911-19.911 19.911zM531.911 29.156h-241.778c-11.378 0-19.911-8.533-19.911-19.911s8.533-19.911 19.911-19.911h241.778c11.378 0 19.911 8.533 19.911 19.911s-8.533 19.911-19.911 19.911zM472.178 492.8c0-11.378 8.533-19.911 19.911-19.911h241.778c11.378 0 19.911 8.533 19.911 19.911s-8.533 19.911-19.911 19.911h-241.778c-11.378 0-19.911-8.533-19.911-19.911zM331.378 512.711h-39.822c-11.378 0-19.911-8.533-19.911-19.911s8.533-19.911 19.911-19.911h19.911c0-11.378 8.533-19.911 19.911-19.911s19.911 8.533 19.911 19.911v4.267c22.756 8.533 39.822 29.867 39.822 56.889 0 32.711-27.022 61.156-61.156 61.156-11.378 0-19.911 8.533-19.911 19.911s8.533 19.911 19.911 19.911h39.822c11.378 0 19.911 8.533 19.911 19.911s-8.533 19.911-19.911 19.911h-19.911c0 11.378-8.533 19.911-19.911 19.911s-19.911-8.533-19.911-19.911v-4.267c-22.756-8.533-39.822-29.867-39.822-56.889 0-32.711 27.022-61.156 61.156-61.156 11.378 0 19.911-8.533 19.911-19.911 0-9.956-9.956-19.911-19.911-19.911z" />
<glyph unicode="&#xe902;" glyph-name="bullhorn" d="M900.267 825.6c-51.2 0-92.444-39.822-93.867-89.6-98.133-34.133-261.689-99.556-514.844-99.556h-42.667c-42.667 0-78.222-27.022-89.6-65.422-73.956-12.8-130.844-78.222-130.844-156.444s56.889-142.222 130.844-155.022c9.956-32.711 38.4-56.889 72.533-64l39.822-237.511c7.111-45.511 46.933-78.222 93.867-78.222 58.311 0 100.978 51.2 92.444 108.089l-32.711 200.533c177.778-17.067 274.489-55.467 382.578-92.444 2.844-49.778 44.089-89.6 93.867-89.6 52.622 0 95.289 42.667 95.289 95.289v628.622c-1.422 52.622-44.089 95.289-96.711 95.289zM91.022 414.578c0 41.244 27.022 76.8 62.578 89.6v-177.778c-35.556 12.8-62.578 46.933-62.578 88.178zM217.6 289.422v251.733c0 17.067 14.222 31.289 31.289 31.289h42.667c35.556 0 72.533 1.422 109.511 4.267v-324.267c-36.978 2.844-73.956 4.267-109.511 4.267h-42.667c-17.067 0-31.289 14.222-31.289 32.711zM395.378-23.467c2.844-18.489-11.378-35.556-29.867-35.556-15.644 0-28.444 11.378-31.289 25.6l-38.4 226.133c21.333 0 42.667 0 62.578-1.422l36.978-214.756zM463.644 246.756v337.067c163.556 19.911 256 55.467 342.756 85.333v-506.311c-83.911 28.444-177.778 64-342.756 83.911zM932.978 100.267c0-17.067-14.222-31.289-31.289-31.289s-31.289 14.222-31.289 31.289c0 8.533 0 621.511 0 630.044 0 17.067 14.222 31.289 31.289 31.289s31.289-14.222 31.289-31.289v-630.044z" />
<glyph unicode="&#xe903;" glyph-name="check" d="M964.267 681.956c-41.244 44.089-108.089 44.089-149.333 0l-399.644-422.4-206.222 217.6c-41.244 44.089-108.089 44.089-149.333 0s-41.244-113.778 0-157.867l281.6-297.244c41.244-44.089 108.089-44.089 149.333 0l475.022 502.044c39.822 42.667 39.822 113.778-1.422 157.867z" />
<glyph unicode="&#xe904;" glyph-name="check-o" d="M854.756 694.756c-91.022 91.022-213.333 140.8-342.756 140.8s-251.733-49.778-342.756-140.8c-91.022-91.022-140.8-213.333-140.8-342.756s49.778-251.733 140.8-342.756 213.333-140.8 342.756-140.8 251.733 49.778 342.756 140.8c91.022 91.022 140.8 213.333 140.8 342.756s-49.778 251.733-140.8 342.756zM512-23.467c-100.978 0-194.844 38.4-265.956 109.511s-109.511 164.978-109.511 265.956c0 100.978 38.4 194.844 109.511 265.956s164.978 109.511 265.956 109.511 194.844-38.4 265.956-109.511c71.111-71.111 109.511-164.978 109.511-265.956s-38.4-194.844-109.511-265.956c-71.111-71.111-164.978-109.511-265.956-109.511zM723.911 519.822c-9.956 7.111-21.333 11.378-34.133 11.378-15.644 0-28.444-5.689-39.822-17.067v0 0l-177.778-207.644-100.978 100.978c-9.956 9.956-24.178 15.644-38.4 15.644s-27.022-5.689-38.4-15.644c-21.333-21.333-21.333-54.044 0-75.378l136.533-136.533c1.422-2.844 4.267-4.267 7.111-7.111 0 0 0 0 1.422-1.422 9.956-8.533 22.756-14.222 35.556-14.222 14.222 0 27.022 5.689 38.4 15.644 5.689 5.689 8.533 11.378 11.378 17.067l203.378 237.511c9.956 9.956 14.222 24.178 14.222 38.4 0 15.644-7.111 29.867-18.489 38.4z" />
<glyph unicode="&#xe905;" glyph-name="coin" d="M523.378 266.667c157.867 0 284.444 126.578 284.444 284.444s-128 284.444-284.444 284.444-284.444-126.578-284.444-284.444 128-284.444 284.444-284.444zM523.378 805.689c140.8 0 254.578-113.778 254.578-254.578s-113.778-254.578-254.578-254.578c-140.8 0-254.578 113.778-254.578 254.578 1.422 140.8 113.778 254.578 254.578 254.578zM523.378 461.511c-19.911 0-36.978 17.067-36.978 35.556h-29.867c0-31.289 22.756-56.889 51.2-65.422v-21.333h29.867v21.333c29.867 7.111 51.2 32.711 51.2 65.422 0 36.978-29.867 66.844-66.844 66.844-19.911 0-36.978 17.067-36.978 35.556 0 19.911 17.067 35.556 36.978 35.556s36.978-17.067 36.978-35.556h29.867c0 31.289-22.756 56.889-51.2 65.422v24.178h-29.867v-24.178c-29.867-7.111-51.2-32.711-51.2-65.422 0-35.556 29.867-66.844 66.844-66.844 19.911 0 36.978-17.067 36.978-36.978 0-18.489-17.067-34.133-36.978-34.133zM110.933 215.467h29.867v-29.867h-29.867v29.867zM110.933 130.133h29.867v-29.867h-29.867v29.867zM110.933 44.8h29.867v-29.867h-29.867v29.867zM649.956 568.178h29.867v-32.711h-29.867v32.711zM368.356 568.178h29.867v-32.711h-29.867v32.711zM978.489 144.356c-15.644 31.289-51.2 46.933-83.911 34.133l-206.222-69.689c1.422 4.267 1.422 9.956 1.422 17.067 0 39.822-31.289 71.111-71.111 71.111h-152.178c-4.267 0-9.956 1.422-15.644 2.844l-98.133 51.2-1.422 1.422c-8.533 2.844-18.489 4.267-27.022 4.267h-110.933v41.244h-173.511v-361.244h173.511v31.289h38.4l281.6-93.867c9.956-2.844 21.333-5.689 32.711-5.689 17.067 0 32.711 4.267 48.356 12.8l334.222 176.356c31.289 15.644 44.089 52.622 29.867 86.756zM183.467-34.844v0-1.422h-113.778v302.933h113.778v-301.511zM934.4 81.778l-334.222-174.933c-18.489-8.533-39.822-9.956-58.311-4.267l-287.289 93.867h-42.667v228.978h110.933c5.689 0 9.956-1.422 17.067-2.844l98.133-51.2 1.422-1.422c7.111-2.844 17.067-4.267 25.6-4.267h152.178c22.756 0 41.244-18.489 41.244-41.244 0-11.378-5.689-22.756-14.222-29.867l-28.444-9.956h-123.733c-31.289 0-56.889-25.6-56.889-56.889h29.867c0 15.644 11.378 27.022 27.022 27.022h125.156c15.644 0 28.444 4.267 41.244 14.222l243.2 83.911c18.489 5.689 38.4-1.422 45.511-19.911 11.378-19.911 5.689-42.667-12.8-51.2z" />
<glyph unicode="&#xe906;" glyph-name="combo" d="M170.667 289.422c-2.844-1.422-5.689-1.422-8.533-2.844s-7.111-1.422-9.956-1.422c-2.844 0-7.111-1.422-9.956-1.422-14.222-1.422-27.022 0-38.4 4.267-8.533 2.844-15.644 7.111-21.333 11.378-5.689 5.689-9.956 12.8-12.8 21.333s-4.267 18.489-4.267 31.289c0 11.378 1.422 22.756 5.689 31.289 2.844 8.533 8.533 15.644 14.222 21.333s12.8 9.956 21.333 12.8c14.222 4.267 29.867 5.689 45.511 2.844 5.689-1.422 12.8-2.844 17.067-4.267 2.844 0 4.267 0 7.111 1.422 1.422 1.422 2.844 4.267 2.844 5.689v19.911c0 2.844-1.422 5.689-4.267 7.111s-5.689 1.422-8.533 2.844c-2.844 1.422-7.111 1.422-9.956 2.844-4.267 0-7.111 1.422-11.378 1.422-19.911 1.422-38.4-1.422-55.467-7.111-12.8-5.689-24.178-12.8-32.711-22.756s-15.644-21.333-21.333-34.133c-4.267-12.8-7.111-27.022-7.111-42.667s2.844-29.867 7.111-42.667c4.267-12.8 11.378-24.178 19.911-32.711s19.911-15.644 32.711-19.911c12.8-4.267 27.022-7.111 44.089-7.111 8.533 0 15.644 0 22.756 1.422s14.222 2.844 19.911 5.689c2.844 1.422 4.267 4.267 4.267 7.111v19.911c0 2.844-1.422 4.267-2.844 5.689s-2.844 1.422-5.689 1.422zM359.822 425.956c-8.533 9.956-18.489 17.067-29.867 21.333-22.756 9.956-55.467 9.956-78.222 0-11.378-5.689-21.333-12.8-29.867-21.333s-14.222-19.911-18.489-32.711c-4.267-12.8-7.111-27.022-7.111-41.244s1.422-28.444 5.689-41.244c4.267-12.8 9.956-24.178 18.489-32.711 8.533-9.956 18.489-17.067 29.867-21.333 11.378-5.689 25.6-7.111 39.822-7.111s27.022 2.844 38.4 8.533c11.378 5.689 21.333 12.8 29.867 21.333s14.222 19.911 18.489 32.711c5.689 11.378 7.111 25.6 7.111 39.822s-1.422 28.444-5.689 41.244c-4.267 12.8-11.378 24.178-18.489 32.711zM347.022 352c0-11.378-1.422-21.333-4.267-31.289-2.844-8.533-7.111-15.644-11.378-21.333-5.689-5.689-11.378-9.956-17.067-12.8-14.222-5.689-31.289-5.689-44.089 0-7.111 2.844-12.8 7.111-17.067 12.8-5.689 5.689-8.533 12.8-12.8 21.333-2.844 8.533-4.267 18.489-4.267 31.289 0 11.378 1.422 21.333 4.267 31.289 2.844 8.533 7.111 15.644 11.378 21.333 5.689 5.689 11.378 9.956 17.067 12.8 7.111 2.844 14.222 4.267 22.756 4.267s15.644-1.422 22.756-4.267c7.111-2.844 12.8-7.111 17.067-12.8 5.689-5.689 8.533-12.8 11.378-21.333 2.844-9.956 4.267-19.911 4.267-31.289zM605.867 452.978h-32.711c-2.844 0-5.689-1.422-7.111-4.267l-44.089-105.244c-2.844-7.111-5.689-15.644-9.956-25.6-2.844 9.956-7.111 18.489-9.956 25.6l-44.089 105.244c-1.422 2.844-4.267 4.267-7.111 4.267h-32.711c-4.267 0-7.111-2.844-7.111-7.111v-186.311c0-4.267 2.844-7.111 7.111-7.111h22.756c4.267 0 7.111 2.844 7.111 7.111v89.6c0 9.956 0 19.911 0 29.867 1.422-4.267 2.844-7.111 4.267-11.378l46.933-110.933c1.422-2.844 4.267-4.267 7.111-4.267h9.956c2.844 0 5.689 1.422 7.111 4.267l46.933 110.933c1.422 4.267 2.844 7.111 4.267 11.378 0-9.956 0-19.911 0-29.867v-89.6c0-4.267 2.844-7.111 7.111-7.111h22.756c4.267 0 7.111 2.844 7.111 7.111v184.889c1.422 4.267-1.422 8.533-5.689 8.533zM776.533 347.733c-4.267 4.267-8.533 7.111-14.222 9.956 4.267 2.844 7.111 7.111 9.956 11.378s4.267 8.533 5.689 14.222c1.422 4.267 1.422 9.956 1.422 14.222 0 7.111-1.422 12.8-2.844 18.489s-5.689 11.378-8.533 15.644c-4.267 4.267-8.533 8.533-14.222 11.378s-11.378 5.689-17.067 7.111c-2.844 0-4.267 1.422-7.111 1.422s-5.689 1.422-8.533 1.422c-2.844 0-5.689 0-9.956 0-2.844 0-7.111 0-11.378 0h-45.511c-4.267 0-7.111-2.844-7.111-7.111v-186.311c0-4.267 2.844-7.111 7.111-7.111h46.933c9.956 0 18.489 0 25.6 1.422s14.222 2.844 19.911 4.267c8.533 2.844 14.222 5.689 19.911 9.956s9.956 8.533 12.8 14.222c2.844 5.689 5.689 9.956 7.111 15.644s2.844 9.956 2.844 15.644c0 7.111-1.422 12.8-2.844 18.489-2.844 5.689-7.111 11.378-9.956 15.644zM739.556 381.867c-2.844-2.844-5.689-5.689-11.378-8.533-2.844 0-4.267-1.422-7.111-1.422s-7.111 0-9.956 0h-28.444v45.511h18.489c5.689 0 11.378 0 15.644 0s7.111-1.422 11.378-1.422c5.689-1.422 9.956-4.267 11.378-7.111 2.844-2.844 2.844-7.111 2.844-12.8s0-9.956-2.844-14.222zM682.667 336.356h28.444c5.689 0 9.956 0 12.8 0s5.689 0 8.533-1.422c4.267-1.422 7.111-1.422 9.956-2.844s4.267-2.844 5.689-4.267c1.422-1.422 2.844-2.844 2.844-5.689s1.422-5.689 1.422-8.533c0-2.844 0-4.267-1.422-7.111 0-1.422-1.422-4.267-2.844-5.689s-2.844-4.267-5.689-5.689c-2.844-1.422-5.689-2.844-8.533-4.267s-7.111-1.422-12.8-2.844c-5.689 0-11.378-1.422-17.067-1.422h-21.333v49.778zM989.867 393.244c-4.267 12.8-9.956 24.178-18.489 32.711-8.533 9.956-18.489 17.067-29.867 21.333-22.756 9.956-55.467 9.956-78.222 0-11.378-5.689-21.333-12.8-29.867-21.333-8.533-9.956-14.222-19.911-18.489-32.711-5.689-12.8-7.111-27.022-7.111-41.244s2.844-28.444 5.689-41.244c4.267-12.8 9.956-24.178 18.489-32.711 8.533-9.956 18.489-17.067 29.867-21.333 11.378-5.689 25.6-7.111 39.822-7.111s27.022 2.844 38.4 8.533c11.378 5.689 21.333 12.8 29.867 21.333s14.222 19.911 18.489 32.711c4.267 11.378 7.111 25.6 7.111 39.822s-2.844 28.444-5.689 41.244zM958.578 352c0-11.378-1.422-21.333-4.267-31.289-2.844-8.533-7.111-15.644-11.378-21.333-5.689-5.689-11.378-9.956-17.067-12.8-14.222-5.689-31.289-5.689-44.089 0-7.111 2.844-12.8 7.111-17.067 12.8-5.689 5.689-8.533 12.8-12.8 21.333-2.844 8.533-4.267 18.489-4.267 31.289 0 11.378 1.422 21.333 4.267 31.289 2.844 8.533 7.111 15.644 11.378 21.333s11.378 9.956 17.067 12.8c7.111 2.844 14.222 4.267 22.756 4.267s15.644-1.422 22.756-4.267 12.8-7.111 17.067-12.8c5.689-5.689 8.533-12.8 11.378-21.333 2.844-9.956 4.267-19.911 4.267-31.289z" />
<glyph unicode="&#xe907;" glyph-name="customer-service" d="M365.511 302.222c54.044 0 180.622 65.422 180.622 220.444 0 122.311-17.067 220.444-180.622 220.444s-180.622-99.556-180.622-220.444c-1.422-155.022 126.578-220.444 180.622-220.444v0zM210.489 559.644c12.8 24.178 39.822 52.622 99.556 51.2 0 0 35.556-85.333 209.067-46.933 0-14.222 1.422-27.022 1.422-41.244 0-76.8-34.133-123.733-62.578-149.333-35.556-32.711-75.378-45.511-92.444-45.511-18.489 0-56.889 11.378-92.444 45.511-28.444 25.6-62.578 73.956-62.578 149.333 0 12.8 0 25.6 0 36.978v0zM701.156 74.667c-9.956 56.889-28.444 132.267-66.844 157.867-25.6 18.489-116.622 66.844-156.444 86.756v0c-4.267 2.844-9.956 1.422-14.222-1.422-19.911-15.644-42.667-27.022-66.844-32.711-4.267-1.422-7.111-4.267-8.533-8.533l-24.178-64-22.756 66.844c-1.422 4.267-4.267 7.111-8.533 8.533-24.178 5.689-45.511 15.644-66.844 32.711-4.267 2.844-9.956 4.267-14.222 1.422-38.4-19.911-130.844-69.689-156.444-88.178-44.089-29.867-62.578-137.956-66.844-159.289 0-1.422 0-4.267 0-5.689 1.422-4.267 41.244-109.511 335.644-109.511s334.222 103.822 335.644 109.511c2.844 1.422 2.844 4.267 1.422 5.689v0zM566.044 110.222l-56.889-18.489-56.889 18.489v31.289h115.2v-31.289zM696.889 505.6c5.689-5.689 8.533-12.8 8.533-21.333s-2.844-15.644-8.533-22.756c-5.689-5.689-14.222-8.533-21.333-8.533-8.533 0-15.644 2.844-21.333 8.533-5.689 7.111-8.533 14.222-8.533 22.756s2.844 15.644 8.533 21.333 12.8 8.533 21.333 8.533c7.111 1.422 15.644-2.844 21.333-8.533zM841.956 505.6c5.689-5.689 8.533-12.8 8.533-21.333s-2.844-15.644-8.533-22.756c-5.689-5.689-14.222-8.533-21.333-8.533-8.533 0-15.644 2.844-21.333 8.533-5.689 7.111-8.533 14.222-8.533 22.756s2.844 15.644 8.533 21.333c5.689 5.689 12.8 8.533 21.333 8.533 7.111 1.422 14.222-2.844 21.333-8.533zM987.022 505.6c5.689-5.689 8.533-12.8 8.533-21.333s-2.844-15.644-8.533-22.756c-5.689-5.689-14.222-8.533-21.333-8.533-8.533 0-15.644 2.844-21.333 8.533-5.689 7.111-8.533 14.222-8.533 22.756s2.844 15.644 8.533 21.333 12.8 8.533 21.333 8.533c7.111 1.422 14.222-2.844 21.333-8.533z" />
<glyph unicode="&#xe908;" glyph-name="debit-card" d="M971.378 714.667c-15.644 15.644-34.133 24.178-56.889 24.178h-804.978c-22.756 0-41.244-8.533-56.889-24.178s-24.178-34.133-24.178-56.889v-612.978c0-22.756 8.533-41.244 24.178-56.889s34.133-24.178 56.889-24.178h806.4c22.756 0 41.244 8.533 56.889 24.178s24.178 34.133 24.178 56.889v612.978c-1.422 22.756-9.956 41.244-25.6 56.889zM931.556 46.222c0-4.267-1.422-8.533-4.267-11.378s-7.111-4.267-11.378-4.267h-806.4c-4.267 0-8.533 1.422-11.378 4.267s-4.267 7.111-4.267 11.378v305.778h837.689v-305.778zM931.556 545.422h-839.111v112.356c0 4.267 1.422 8.533 4.267 11.378s7.111 4.267 11.378 4.267h806.4c4.267 0 8.533-1.422 11.378-4.267s4.267-7.111 4.267-11.378l1.422-112.356zM157.867 158.578h129.422v-64h-129.422v64zM351.289 158.578h193.422v-64h-193.422v64z" />
<glyph unicode="&#xe909;" glyph-name="discount" d="M817.778 610.844c0 17.067-14.222 31.289-31.289 31.289h-146.489v65.422c0 71.111-56.889 128-128 128s-128-56.889-128-128v-65.422h-146.489c-17.067 0-31.289-14.222-31.289-31.289l-15.644-711.111c0-8.533 2.844-17.067 8.533-22.756s14.222-9.956 22.756-9.956h580.267c8.533 0 17.067 2.844 22.756 9.956 5.689 5.689 8.533 14.222 8.533 22.756l-15.644 711.111zM625.778 546.844c9.956 0 17.067-7.111 17.067-17.067s-7.111-17.067-17.067-17.067c-9.956 0-17.067 7.111-17.067 17.067-1.422 9.956 7.111 17.067 17.067 17.067zM399.644 546.844c9.956 0 17.067-7.111 17.067-17.067s-7.111-17.067-17.067-17.067-17.067 7.111-17.067 17.067c-1.422 9.956 7.111 17.067 17.067 17.067zM803.556-100.267c-1.422-1.422-1.422-1.422 0 0h-581.689c0 0 0 0-1.422 0 0 0 0 0 0 1.422l15.644 711.111c0 0 0 1.422 1.422 1.422h146.489v-36.978c-18.489-5.689-32.711-24.178-32.711-45.511 0-25.6 21.333-46.933 46.933-46.933s46.933 21.333 46.933 46.933c0 21.333-14.222 38.4-32.711 45.511v36.978h146.489c8.533 0 15.644 7.111 15.644 15.644s-7.111 15.644-15.644 15.644h-145.067v62.578c0 54.044 44.089 98.133 98.133 98.133s98.133-44.089 98.133-98.133v-132.267c-18.489-5.689-32.711-24.178-32.711-45.511 0-25.6 21.333-46.933 46.933-46.933s46.933 21.333 46.933 46.933c0 21.333-14.222 38.4-32.711 45.511v36.978h146.489c0 0 1.422 0 1.422-1.422l17.067-711.111c0 0 0 0 0 0zM753.778-36.267h-32.711c-8.533 0-15.644-7.111-15.644-15.644s7.111-15.644 15.644-15.644h32.711c8.533 0 15.644 7.111 15.644 15.644s-7.111 15.644-15.644 15.644zM657.067-36.267h-386.844c-8.533 0-15.644-7.111-15.644-15.644s7.111-15.644 15.644-15.644h388.267c8.533 0 15.644 7.111 15.644 15.644-1.422 8.533-8.533 15.644-17.067 15.644zM668.444 379.022c-5.689 5.689-15.644 5.689-21.333 0l-291.556-291.556c-5.689-5.689-5.689-15.644 0-21.333 2.844-2.844 7.111-4.267 11.378-4.267s7.111 1.422 11.378 4.267l290.133 291.556c5.689 5.689 5.689 15.644 0 21.333zM415.289 398.933c-44.089 0-79.644-35.556-79.644-79.644s35.556-79.644 79.644-79.644 79.644 35.556 79.644 79.644-35.556 79.644-79.644 79.644zM415.289 270.933c-27.022 0-49.778 22.756-49.778 49.778s22.756 49.778 49.778 49.778 49.778-22.756 49.778-49.778-22.756-49.778-49.778-49.778zM608.711 205.511c-44.089 0-79.644-35.556-79.644-79.644s35.556-79.644 79.644-79.644c44.089 0 79.644 35.556 79.644 79.644s-35.556 79.644-79.644 79.644zM608.711 76.089c-27.022 0-49.778 22.756-49.778 49.778s22.756 49.778 49.778 49.778c27.022 0 49.778-22.756 49.778-49.778s-22.756-49.778-49.778-49.778z" />
<glyph unicode="&#xe90a;" glyph-name="facebook-circle" d="M512 835.556c-267.378 0-483.556-216.178-483.556-483.556s216.178-483.556 483.556-483.556c267.378 0 483.556 216.178 483.556 483.556s-216.178 483.556-483.556 483.556zM630.044 521.244h-62.578c-31.289 0-38.4-21.333-38.4-42.667v-42.667h96.711l-14.222-83.911h-83.911v-253.156h-82.489v253.156h-51.2v83.911h51.2v51.2c0 68.267 19.911 118.044 95.289 118.044h89.6v-83.911z" />
<glyph unicode="&#xe90b;" glyph-name="google-store" horiz-adv-x="4039" d="M3195.733 152.889c-18.489 0-35.556 2.844-51.2 9.956s-28.444 17.067-39.822 32.711h-2.844c1.422-17.067 2.844-32.711 2.844-48.356v-119.467h-44.089v420.978h35.556l5.689-39.822h1.422c11.378 15.644 24.178 27.022 39.822 34.133s32.711 9.956 51.2 9.956c38.4 0 68.267-12.8 89.6-39.822s31.289-64 31.289-110.933c0-48.356-9.956-85.333-31.289-110.933-19.911-25.6-49.778-38.4-88.178-38.4zM3190.044 417.422c-29.867 0-51.2-8.533-64-24.178-12.8-17.067-19.911-42.667-19.911-78.222v-9.956c0-41.244 7.111-69.689 19.911-88.178 14.222-17.067 35.556-27.022 65.422-27.022 25.6 0 45.511 9.956 59.733 29.867s21.333 48.356 21.333 83.911c0 36.978-7.111 64-21.333 83.911-15.644 19.911-35.556 29.867-61.156 29.867zM3419.022 158.578h-44.089v412.444h44.089v-412.444zM3672.178 158.578l-8.533 41.244h-1.422c-14.222-18.489-28.444-31.289-44.089-36.978-14.222-7.111-32.711-9.956-54.044-9.956-28.444 0-51.2 7.111-68.267 22.756-17.067 14.222-24.178 35.556-24.178 64 0 58.311 46.933 89.6 140.8 92.444l49.778 1.422v18.489c0 22.756-4.267 39.822-14.222 51.2s-25.6 15.644-46.933 15.644c-24.178 0-51.2-7.111-82.489-22.756l-14.222 34.133c14.222 7.111 29.867 14.222 46.933 18.489s34.133 7.111 51.2 7.111c34.133 0 59.733-7.111 76.8-22.756s25.6-39.822 25.6-73.956v-199.111h-32.711zM3572.622 189.867c27.022 0 48.356 7.111 64 22.756s24.178 35.556 24.178 62.578v25.6l-44.089-1.422c-35.556-1.422-59.733-7.111-75.378-15.644-15.644-9.956-22.756-24.178-22.756-45.511 0-15.644 4.267-28.444 14.222-36.978 8.533-7.111 22.756-11.378 39.822-11.378zM3730.489 448.711h46.933l64-166.4c14.222-38.4 22.756-65.422 25.6-82.489h1.422c2.844 8.533 7.111 24.178 14.222 46.933 7.111 21.333 31.289 89.6 72.533 201.956h46.933l-125.156-331.378c-12.8-32.711-27.022-55.467-44.089-69.689s-36.978-19.911-61.156-19.911c-12.8 0-27.022 1.422-39.822 4.267v35.556c9.956-1.422 21.333-2.844 32.711-2.844 29.867 0 51.2 17.067 65.422 51.2l15.644 41.244-115.2 291.556zM2379.378 421.689c14.222-11.378 42.667-35.556 42.667-82.489 0-45.511-25.6-66.844-51.2-86.756-8.533-8.533-17.067-17.067-17.067-29.867s8.533-21.333 15.644-25.6l21.333-17.067c27.022-22.756 51.2-42.667 51.2-85.333 0-56.889-55.467-115.2-160.711-115.2-88.178 0-130.844 42.667-130.844 86.756 0 21.333 11.378 52.622 46.933 73.956 38.4 22.756 88.178 25.6 116.622 28.444-8.533 11.378-18.489 22.756-18.489 41.244 0 9.956 2.844 17.067 5.689 24.178-7.111 0-12.8-1.422-19.911-1.422-64 0-100.978 48.356-100.978 95.289 0 28.444 12.8 59.733 38.4 81.067 34.133 28.444 75.378 34.133 109.511 34.133h125.156l-38.4-21.333h-35.556zM2336.711 151.467c-4.267 0-8.533 0-14.222 0s-38.4-1.422-64-9.956c-12.8-4.267-52.622-19.911-52.622-62.578s42.667-73.956 106.667-73.956c58.311 0 89.6 28.444 89.6 65.422 0 32.711-19.911 48.356-65.422 81.067zM2353.778 268.089c14.222 14.222 15.644 34.133 15.644 44.089 0 44.089-25.6 112.356-76.8 112.356-15.644 0-32.711-8.533-42.667-19.911-9.956-12.8-12.8-29.867-12.8-45.511 0-41.244 24.178-108.089 76.8-108.089 14.222 0 29.867 7.111 39.822 17.067zM1996.8 161.422c-96.711 0-147.911 75.378-147.911 143.644 0 79.644 65.422 147.911 157.867 147.911 89.6 0 145.067-69.689 145.067-143.644-1.422-71.111-56.889-147.911-155.022-147.911zM2072.178 211.2c14.222 19.911 18.489 44.089 18.489 66.844 0 54.044-25.6 155.022-100.978 155.022-19.911 0-39.822-8.533-54.044-21.333-24.178-21.333-28.444-48.356-28.444-73.956 0-59.733 29.867-159.289 103.822-159.289 22.756 1.422 46.933 12.8 61.156 32.711zM1666.844 161.422c-96.711 0-147.911 75.378-147.911 143.644 0 79.644 65.422 147.911 157.867 147.911 89.6 0 145.067-69.689 145.067-143.644 0-71.111-55.467-147.911-155.022-147.911zM1743.644 211.2c14.222 19.911 18.489 44.089 18.489 66.844 0 54.044-25.6 155.022-100.978 155.022-19.911 0-39.822-8.533-54.044-21.333-24.178-21.333-28.444-48.356-28.444-73.956 0-59.733 29.867-159.289 103.822-159.289 22.756 1.422 46.933 12.8 61.156 32.711zM1472 171.378l-86.756-19.911c-35.556-5.689-66.844-9.956-100.978-9.956-169.244 0-233.244 123.733-233.244 220.444 0 118.044 91.022 228.978 247.467 228.978 32.711 0 65.422-4.267 93.867-12.8 45.511-12.8 66.844-28.444 81.067-38.4l-51.2-48.356-21.333-4.267 15.644 24.178c-21.333 19.911-58.311 56.889-130.844 56.889-96.711 0-169.244-73.956-169.244-180.622 0-115.2 82.489-223.289 216.178-223.289 39.822 0 59.733 8.533 78.222 15.644v98.133l-92.444-4.267 48.356 25.6h129.422l-15.644-15.644c-4.267-4.267-4.267-4.267-5.689-9.956 0-5.689-1.422-22.756-1.422-29.867v-72.533zM2572.8 188.444c-19.911 1.422-24.178 5.689-24.178 29.867v345.6c0 1.422 0 2.844 0 4.267 2.844 21.333 8.533 25.6 27.022 35.556h-86.756l-45.511-21.333h46.933v-376.889c0-12.8-2.844-14.222-17.067-32.711h108.089l22.756 12.8c-9.956 1.422-21.333 1.422-31.289 2.844zM2821.689 182.756c-7.111-4.267-12.8-8.533-19.911-11.378-19.911-8.533-41.244-11.378-58.311-11.378-19.911 0-49.778 1.422-81.067 24.178-42.667 29.867-61.156 82.489-61.156 128 0 93.867 76.8 140.8 139.378 140.8 21.333 0 44.089-5.689 62.578-17.067 29.867-19.911 38.4-45.511 42.667-59.733l-142.222-58.311-46.933-4.267c15.644-76.8 66.844-122.311 125.156-122.311 31.289 0 54.044 11.378 73.956 21.333l-34.133-29.867zM2764.8 363.378c11.378 4.267 17.067 8.533 17.067 17.067 0 24.178-27.022 52.622-59.733 52.622-24.178 0-69.689-18.489-69.689-83.911 0-9.956 1.422-21.333 1.422-32.711l110.933 46.933zM2880 448.711v-39.822h-4.267v39.822h-12.8v4.267h31.289v-4.267h-14.222zM2934.044 408.889v39.822l-12.8-39.822h-4.267l-12.8 39.822v-39.822h-2.844v44.089h7.111l11.378-35.556 11.378 35.556h7.111v-44.089h-4.267zM1173.333 708.978h-29.867c0 4.267-2.844 15.644-8.533 35.556h-44.089c-5.689-18.489-8.533-31.289-8.533-35.556h-28.444c0 2.844 7.111 22.756 22.756 61.156 14.222 38.4 22.756 58.311 22.756 62.578h35.556c0-4.267 7.111-24.178 19.911-62.578 11.378-36.978 18.489-56.889 18.489-61.156zM1129.244 763.022c-11.378 32.711-15.644 49.778-15.644 52.622h-1.422c0-2.844-5.689-19.911-17.067-52.622h34.133zM1295.644 708.978h-22.756c0 2.844-8.533 15.644-25.6 41.244-18.489 25.6-28.444 44.089-31.289 54.044h-1.422c1.422-14.222 2.844-27.022 2.844-36.978 0-15.644 0-34.133 1.422-56.889h-22.756c-1.422 18.489-1.422 39.822-1.422 64 0 22.756 0 42.667-1.422 58.311h28.444c0-2.844 7.111-17.067 22.756-39.822 17.067-24.178 25.6-41.244 28.444-51.2h1.422c-1.422 14.222-2.844 27.022-2.844 38.4 0 17.067 0 34.133-1.422 52.622h24.178c0-15.644 0-35.556 0-58.311 0-24.178 0-45.511 1.422-65.422zM1432.178 775.822c0-18.489-5.689-34.133-17.067-46.933s-27.022-19.911-48.356-19.911c-9.956 0-22.756 0-38.4 1.422 1.422 18.489 1.422 41.244 1.422 64s0 42.667-1.422 58.311h17.067c2.844 0 7.111 0 12.8 0s8.533 0 9.956 0c22.756 0 39.822-5.689 49.778-17.067s14.222-24.178 14.222-39.822zM1406.578 771.556c0 12.8-2.844 22.756-9.956 31.289s-18.489 12.8-32.711 12.8c-2.844 0-7.111 0-11.378-1.422 0-12.8 1.422-25.6 1.422-39.822 0-15.644 0-29.867 1.422-45.511 4.267-1.422 8.533-1.422 12.8-1.422 14.222 0 24.178 4.267 29.867 12.8s8.533 18.489 8.533 31.289zM1560.178 708.978h-28.444c-7.111 22.756-12.8 35.556-17.067 41.244s-9.956 8.533-18.489 8.533c-4.267 0-7.111 0-9.956 0 0-15.644 0-32.711 1.422-49.778h-27.022c1.422 18.489 1.422 41.244 1.422 64s0 42.667-1.422 58.311h17.067c1.422 0 5.689 0 11.378 0s11.378 0 17.067 0c28.444 0 44.089-9.956 44.089-29.867 0-15.644-8.533-27.022-24.178-32.711v-1.422c5.689-1.422 11.378-7.111 17.067-15.644 1.422-5.689 8.533-19.911 17.067-42.667zM1524.622 797.156c0 12.8-8.533 18.489-24.178 18.489-5.689 0-11.378 0-15.644-1.422 0-9.956 1.422-22.756 1.422-38.4 2.844 0 7.111 0 8.533 0 18.489 0 29.867 7.111 29.867 21.333zM1695.289 772.978c0-19.911-5.689-35.556-18.489-48.356-11.378-12.8-27.022-18.489-44.089-18.489s-31.289 5.689-41.244 17.067c-11.378 11.378-17.067 27.022-17.067 44.089 0 19.911 5.689 35.556 18.489 48.356 11.378 12.8 27.022 18.489 44.089 18.489s31.289-5.689 41.244-17.067c11.378-11.378 17.067-25.6 17.067-44.089zM1669.689 770.133c0 12.8-2.844 24.178-9.956 32.711s-15.644 12.8-25.6 12.8c-8.533 0-17.067-4.267-24.178-12.8s-9.956-18.489-9.956-31.289c0-12.8 2.844-24.178 9.956-32.711s15.644-12.8 25.6-12.8c8.533 0 17.067 4.267 24.178 12.8 5.689 8.533 9.956 18.489 9.956 31.289zM1749.333 708.978h-27.022c1.422 19.911 1.422 41.244 1.422 64s0 42.667-1.422 58.311h27.022c-1.422-15.644-1.422-35.556-1.422-58.311s0-44.089 1.422-64zM1887.289 775.822c0-18.489-5.689-34.133-17.067-46.933s-27.022-19.911-48.356-19.911c-9.956 0-22.756 0-38.4 1.422 1.422 18.489 1.422 41.244 1.422 64s0 42.667-1.422 58.311h17.067c2.844 0 7.111 0 12.8 0s8.533 0 9.956 0c22.756 0 39.822-5.689 49.778-17.067 8.533-11.378 14.222-24.178 14.222-39.822zM1860.267 771.556c0 12.8-2.844 22.756-9.956 31.289s-18.489 12.8-32.711 12.8c-2.844 0-7.111 0-11.378-1.422 0-12.8 1.422-25.6 1.422-39.822 0-15.644 0-29.867 1.422-45.511 4.267-1.422 8.533-1.422 12.8-1.422 14.222 0 24.178 4.267 29.867 12.8s8.533 18.489 8.533 31.289zM2069.333 708.978h-29.867c0 4.267-2.844 15.644-8.533 35.556h-44.089c-5.689-18.489-8.533-31.289-8.533-35.556h-28.444c0 2.844 7.111 22.756 22.756 61.156 14.222 38.4 22.756 58.311 22.756 62.578h35.556c0-4.267 7.111-24.178 19.911-62.578 11.378-36.978 18.489-56.889 18.489-61.156zM2025.244 763.022c-11.378 32.711-15.644 49.778-15.644 52.622h-1.422c0-2.844-5.689-19.911-17.067-52.622h34.133zM2180.267 800c0-15.644-5.689-25.6-17.067-34.133-11.378-7.111-25.6-11.378-41.244-11.378-2.844 0-5.689 0-5.689 0 0-11.378 0-27.022 1.422-46.933h-27.022c1.422 18.489 1.422 39.822 1.422 64 0 22.756 0 42.667-1.422 58.311h17.067c2.844 0 7.111 0 12.8 0 7.111 0 12.8 0 17.067 0 11.378 0 22.756-2.844 29.867-8.533 8.533-1.422 12.8-9.956 12.8-21.333zM2154.667 795.733c0 14.222-8.533 19.911-27.022 19.911-4.267 0-8.533 0-14.222-1.422 0-11.378 1.422-25.6 1.422-41.244 1.422 0 2.844 0 5.689 0 22.756 0 34.133 7.111 34.133 22.756zM2294.044 800c0-15.644-5.689-25.6-17.067-34.133-11.378-7.111-25.6-11.378-41.244-11.378-2.844 0-5.689 0-5.689 0 0-11.378 0-27.022 1.422-46.933h-27.022c1.422 18.489 1.422 39.822 1.422 64 0 22.756 0 42.667-1.422 58.311h17.067c2.844 0 7.111 0 12.8 0 7.111 0 12.8 0 17.067 0 11.378 0 22.756-2.844 29.867-8.533 8.533-1.422 12.8-9.956 12.8-21.333zM2268.444 795.733c0 14.222-8.533 19.911-27.022 19.911-4.267 0-8.533 0-14.222-1.422 0-11.378 1.422-25.6 1.422-41.244 1.422 0 2.844 0 5.689 0 22.756 0 34.133 7.111 34.133 22.756zM2478.933 772.978c0-19.911-5.689-35.556-18.489-48.356-11.378-12.8-27.022-18.489-44.089-18.489s-31.289 5.689-41.244 17.067c-11.378 11.378-17.067 27.022-17.067 44.089 0 19.911 5.689 35.556 18.489 48.356 11.378 12.8 27.022 18.489 44.089 18.489s31.289-5.689 41.244-17.067c11.378-11.378 17.067-25.6 17.067-44.089zM2453.333 770.133c0 12.8-2.844 24.178-9.956 32.711s-15.644 12.8-25.6 12.8c-8.533 0-17.067-4.267-24.178-12.8s-9.956-18.489-9.956-31.289c0-12.8 2.844-24.178 9.956-32.711s15.644-12.8 25.6-12.8c8.533 0 17.067 4.267 24.178 12.8s9.956 18.489 9.956 31.289zM2608.356 708.978h-22.756c0 2.844-8.533 15.644-25.6 41.244-18.489 25.6-28.444 44.089-31.289 54.044h-1.422c1.422-14.222 2.844-27.022 2.844-36.978 0-15.644 0-34.133 1.422-56.889h-22.756c1.422 19.911 1.422 41.244 1.422 64s0 42.667-1.422 58.311h28.444c0-2.844 7.111-17.067 22.756-39.822 17.067-24.178 25.6-41.244 28.444-51.2h1.422c-1.422 14.222-2.844 27.022-2.844 38.4 0 17.067 0 34.133-1.422 52.622h24.178c-1.422-15.644-1.422-35.556-1.422-58.311-1.422-24.178-1.422-45.511 0-65.422zM35.556 828.444v-960l484.978 480.711zM587.378 416l66.844 65.422-581.689 335.644 459.378-456.533zM72.533-120.178l581.689 335.644-68.267 68.267-54.044 52.622zM669.867 471.467l-68.267-66.844-56.889-55.467 54.044-54.044 71.111-69.689 214.756 123.733z" />
<glyph unicode="&#xe90c;" glyph-name="kkbox" horiz-adv-x="1934" d="M254.578 293.689l157.867 156.444c9.956 12.8-8.533 11.378-8.533 11.378h-66.844c-34.133 1.422-51.2-17.067-51.2-17.067l-123.733-120.889v132.267c0 0 1.422 7.111-7.111 7.111h-78.222c-7.111 0-7.111-7.111-7.111-7.111v-322.844c0 0-1.422-7.111 7.111-7.111h79.644c7.111 0 7.111 7.111 7.111 7.111v132.267l123.733-120.889c0 0 17.067-19.911 51.2-17.067h66.844c0 0 18.489 0 8.533 11.378l-159.289 155.022zM621.511 293.689l157.867 156.444c9.956 12.8-8.533 11.378-8.533 11.378h-66.844c-34.133 1.422-51.2-17.067-51.2-17.067l-123.733-120.889v132.267c0 0 1.422 7.111-7.111 7.111h-79.644c-7.111 0-7.111-7.111-7.111-7.111v-322.844c0 0-1.422-7.111 7.111-7.111h79.644c7.111 0 7.111 7.111 7.111 7.111v132.267l123.733-120.889c0 0 17.067-19.911 51.2-17.067h66.844c0 0 18.489 0 8.533 11.378l-157.867 155.022zM809.244 549.689l76.8 28.444c0 0 9.956 4.267 9.956-7.111v-147.911c0 0 34.133 38.4 93.867 38.4 0 0 162.133 5.689 160.711-163.556 0 0 7.111-164.978-173.511-173.511h-42.667v91.022c0 0 18.489-7.111 35.556-4.267 0 0 85.333 0 93.867 103.822 0 0 0 66.844-64 66.844 0 0-89.6-1.422-105.244-110.933v-133.689c0 0 0-12.8-9.956-12.8h-69.689c0 0-12.8-1.422-12.8 14.222v399.644c0 0 0 8.533 7.111 11.378zM1351.111 465.778c-93.867 0-170.667-76.8-170.667-170.667s76.8-170.667 170.667-170.667c93.867 0 170.667 76.8 170.667 170.667-1.422 93.867-76.8 170.667-170.667 170.667zM1351.111 212.622c-45.511 0-82.489 36.978-82.489 82.489s36.978 82.489 82.489 82.489c45.511 0 82.489-36.978 82.489-82.489-1.422-45.511-38.4-82.489-82.489-82.489zM1742.222 292.267l116.622 150.756c0 0 14.222 15.644-2.844 17.067h-64c0 0-25.6 0-44.089-21.333l-59.733-76.8-61.156 79.644c-14.222 19.911-32.711 19.911-32.711 19.911h-78.222c-9.956 0-4.267-8.533-4.267-8.533l122.311-159.289-122.311-159.289c0 0-5.689-8.533 4.267-8.533h78.222c0 0 18.489 0 32.711 19.911l61.156 79.644 59.733-76.8c18.489-24.178 44.089-24.178 44.089-24.178h64c17.067 1.422 2.844 17.067 2.844 17.067l-116.622 150.756z" />
<glyph unicode="&#xe90d;" glyph-name="minus" d="M28.444 352c0 38.4 31.289 68.267 68.267 68.267h830.578c38.4 0 68.267-31.289 68.267-68.267s-31.289-68.267-68.267-68.267h-830.578c-36.978 0-68.267 29.867-68.267 68.267z" />
<glyph unicode="&#xe90e;" glyph-name="movie" d="M773.689 370.489h-523.378c-9.956 0-18.489-8.533-18.489-18.489s8.533-18.489 18.489-18.489h523.378c9.956 0 18.489 8.533 18.489 18.489s-8.533 18.489-18.489 18.489zM773.689 370.489h-523.378c-9.956 0-18.489-8.533-18.489-18.489s8.533-18.489 18.489-18.489h523.378c9.956 0 18.489 8.533 18.489 18.489s-8.533 18.489-18.489 18.489zM908.8 488.533h-635.733l607.289 187.733c9.956 2.844 15.644 12.8 11.378 22.756l-38.4 123.733c-1.422 4.267-4.267 8.533-8.533 11.378s-8.533 2.844-14.222 1.422l-721.067-224.711c-9.956-2.844-15.644-12.8-12.8-22.756l36.978-120.889v-580.267c0-9.956 8.533-18.489 18.489-18.489h756.622c9.956 0 18.489 8.533 18.489 18.489v583.111c0 9.956-8.533 18.489-18.489 18.489zM807.822 451.556l-93.867-93.867h-116.622l93.867 93.867h116.622zM638.578 451.556l-93.867-93.867h-116.622l93.867 93.867h116.622zM469.333 451.556l-93.867-93.867h-116.622l93.867 93.867h116.622zM301.511 451.556l-93.867-93.867h-36.978v93.867h130.844zM824.889 794.311l27.022-89.6-35.556-11.378-116.622 61.156 125.156 39.822zM651.378 741.689l116.622-62.578-112.356-34.133-115.2 61.156 110.933 35.556zM490.667 691.911l116.622-61.156-112.356-34.133-116.622 61.156 112.356 34.133zM329.956 640.711l116.622-61.156-112.356-34.133-116.622 61.156 112.356 34.133zM137.956 582.4l31.289 9.956 116.622-61.156-120.889-36.978-27.022 88.178zM891.733-94.578h-721.067v416.711h719.644v-416.711zM891.733 359.111h-126.578l93.867 93.867h32.711v-93.867z" />
<glyph unicode="&#xe90f;" glyph-name="offer" d="M305.778 113.067c-7.111 0-15.644 2.844-21.333 8.533-11.378 11.378-11.378 31.289 0 42.667l416.711 416.711c11.378 11.378 31.289 11.378 42.667 0s11.378-31.289 0-42.667l-416.711-416.711c-7.111-5.689-14.222-8.533-21.333-8.533zM362.667 383.289c-65.422 0-119.467 54.044-119.467 119.467s54.044 119.467 119.467 119.467c65.422 0 119.467-54.044 119.467-119.467s-54.044-119.467-119.467-119.467zM362.667 562.489c-32.711 0-59.733-27.022-59.733-59.733s27.022-59.733 59.733-59.733c32.711 0 59.733 27.022 59.733 59.733s-27.022 59.733-59.733 59.733zM635.733-111.644c-25.6 0-49.778 9.956-72.533 19.911-18.489 8.533-36.978 17.067-51.2 17.067s-32.711-8.533-51.2-15.644c-22.756-9.956-46.933-19.911-72.533-19.911-8.533 0-17.067 1.422-25.6 4.267-35.556 11.378-54.044 44.089-71.111 72.533-9.956 17.067-19.911 34.133-29.867 41.244s-29.867 11.378-49.778 15.644c-32.711 7.111-69.689 15.644-91.022 45.511s-17.067 66.844-14.222 99.556c1.422 19.911 4.267 39.822 0 52.622-4.267 11.378-17.067 27.022-29.867 41.244-22.756 24.178-48.356 52.622-48.356 89.6s25.6 65.422 48.356 91.022c12.8 14.222 25.6 28.444 29.867 41.244s2.844 32.711 0 52.622c-2.844 32.711-7.111 69.689 14.222 99.556s58.311 36.978 91.022 45.511c18.489 4.267 38.4 8.533 49.778 15.644 9.956 7.111 19.911 24.178 29.867 41.244 17.067 28.444 35.556 61.156 71.111 72.533 8.533 2.844 15.644 4.267 25.6 4.267 25.6 0 49.778-9.956 72.533-21.333 18.489-7.111 36.978-15.644 51.2-15.644s32.711 8.533 51.2 15.644c22.756 9.956 46.933 21.333 72.533 21.333 8.533 0 17.067-1.422 25.6-4.267 35.556-11.378 54.044-44.089 71.111-72.533 9.956-17.067 19.911-34.133 29.867-41.244 11.378-7.111 29.867-12.8 49.778-17.067 32.711-7.111 69.689-15.644 91.022-45.511s17.067-66.844 14.222-99.556c-1.422-19.911-4.267-39.822 0-52.622 4.267-11.378 17.067-27.022 29.867-41.244 22.756-25.6 48.356-54.044 48.356-91.022s-25.6-65.422-48.356-91.022c-12.8-14.222-25.6-28.444-29.867-41.244s-2.844-32.711 0-52.622c2.844-32.711 7.111-69.689-14.222-99.556s-58.311-36.978-91.022-44.089c-18.489-4.267-38.4-8.533-49.778-17.067-9.956-7.111-19.911-24.178-29.867-41.244-17.067-28.444-35.556-61.156-71.111-72.533-7.111-1.422-15.644-2.844-25.6-2.844zM512-14.933c27.022 0 51.2-11.378 75.378-21.333 21.333-8.533 44.089-18.489 55.467-14.222 12.8 4.267 25.6 25.6 38.4 45.511 12.8 22.756 25.6 45.511 46.933 59.733 21.333 15.644 46.933 21.333 72.533 27.022 22.756 5.689 46.933 9.956 55.467 21.333s5.689 35.556 2.844 58.311c-2.844 25.6-5.689 52.622 2.844 76.8 7.111 24.178 25.6 44.089 41.244 62.578s32.711 36.978 32.711 51.2-17.067 32.711-32.711 51.2c-17.067 18.489-34.133 38.4-41.244 62.578-8.533 24.178-5.689 51.2-2.844 76.8 2.844 22.756 4.267 46.933-2.844 58.311-8.533 11.378-31.289 15.644-55.467 21.333-25.6 5.689-51.2 11.378-72.533 27.022-19.911 15.644-34.133 38.4-46.933 59.733-12.8 19.911-25.6 41.244-38.4 45.511-11.378 4.267-34.133-5.689-55.467-14.222-24.178-9.956-48.356-21.333-75.378-21.333s-51.2 11.378-75.378 21.333c-21.333 8.533-44.089 18.489-55.467 14.222-12.8-4.267-25.6-25.6-38.4-45.511-12.8-21.333-25.6-44.089-46.933-59.733s-46.933-21.333-72.533-27.022c-22.756-5.689-46.933-9.956-55.467-21.333s-5.689-35.556-2.844-58.311c2.844-25.6 5.689-52.622-2.844-76.8-7.111-24.178-25.6-42.667-41.244-62.578-15.644-18.489-31.289-36.978-31.289-51.2s17.067-32.711 32.711-51.2c17.067-18.489 34.133-38.4 41.244-62.578 8.533-24.178 5.689-51.2 2.844-76.8-2.844-22.756-4.267-46.933 2.844-58.311 8.533-11.378 31.289-15.644 55.467-21.333 25.6-5.689 51.2-11.378 72.533-27.022 19.911-15.644 34.133-38.4 46.933-59.733 11.378-19.911 24.178-41.244 38.4-45.511 11.378-4.267 34.133 5.689 55.467 14.222 22.756 11.378 46.933 21.333 73.956 21.333zM664.178 81.778c-65.422 0-119.467 54.044-119.467 119.467s54.044 119.467 119.467 119.467 119.467-54.044 119.467-119.467-52.622-119.467-119.467-119.467zM664.178 259.556c-32.711 0-59.733-27.022-59.733-59.733s27.022-59.733 59.733-59.733c32.711 0 59.733 27.022 59.733 59.733 0 34.133-27.022 59.733-59.733 59.733z" />
<glyph unicode="&#xe910;" glyph-name="open-point" horiz-adv-x="1934" d="M244.622 562.489v36.978c0 0 5.689 51.2-51.2 51.2h-82.489c-56.889 0-51.2-51.2-51.2-51.2v-65.422c0 0-5.689-51.2 51.2-51.2h82.489c56.889 0 51.2 51.2 51.2 51.2v28.444zM184.889 532.622h-65.422v68.267h65.422v-68.267zM402.489 650.667h-129.422v-167.822h56.889v62.578h75.378c0 0 34.133 0 34.133 34.133v38.4c-1.422-1.422 1.422 32.711-36.978 32.711zM379.733 583.822h-51.2v21.333h51.2v-21.333zM625.778 650.667v-45.511h-105.244v-21.333h98.133v-38.4h-98.133v-15.644h105.244v-46.933h-112.356c0 0-49.778-4.267-49.778 48.356v79.644c0 0-4.267 39.822 39.822 39.822h122.311zM657.067 635.022v-152.178h54.044v73.956l56.889-64c0 0 7.111-9.956 18.489-9.956h28.444c0 0 14.222-1.422 14.222 15.644v152.178h-54.044v-75.378l-56.889 65.422c0 0-4.267 8.533-19.911 8.533h-22.756c0 1.422-18.489 2.844-18.489-14.222zM332.8 401.778h-268.8v-348.444h116.622v129.422h156.444c0 0 69.689 0 69.689 69.689v79.644c0 0 5.689 69.689-73.956 69.689zM287.289 262.4h-105.244v44.089h105.244v-44.089zM833.422 218.311v78.222c0 0 11.378 106.667-106.667 106.667h-167.822c-116.622 0-106.667-106.667-106.667-106.667v-136.533c0 0-11.378-106.667 106.667-106.667h167.822c116.622 0 106.667 106.667 106.667 106.667v58.311zM712.533 155.733h-136.533v143.644h136.533v-143.644zM910.222 401.778v-348.444l113.778 51.2v238.933zM1032.533 501.333c0-36.132-29.291-65.422-65.422-65.422s-65.422 29.291-65.422 65.422c0 36.132 29.291 65.422 65.422 65.422s65.422-29.291 65.422-65.422zM1105.067 369.067v-315.733h110.933v153.6l116.622-132.267c0 0 15.644-19.911 36.978-19.911h59.733c0 0 29.867-4.267 29.867 31.289v315.733h-110.933v-155.022l-119.467 136.533c0 0-9.956 18.489-39.822 18.489h-45.511c0 0-38.4 4.267-38.4-32.711zM1521.778 401.778v-108.089h113.778v-240.356h122.311v241.778h116.622v106.667z" />
<glyph unicode="&#xe911;" glyph-name="plus" d="M927.289 420.267h-347.022v347.022c0 36.978-29.867 68.267-68.267 68.267s-68.267-31.289-68.267-68.267v-347.022h-347.022c-36.978 0-68.267-29.867-68.267-68.267s31.289-68.267 68.267-68.267h347.022v-347.022c0-38.4 31.289-68.267 68.267-68.267s68.267 31.289 68.267 68.267v347.022h347.022c38.4 0 68.267 31.289 68.267 68.267 0 38.4-31.289 68.267-68.267 68.267z" />
<glyph unicode="&#xe912;" glyph-name="qiestion" d="M807.822 64.711c42.667-31.289 89.6-55.467 139.378-72.533l-64-123.733c-27.022 8.533-52.622 18.489-76.8 32.711-5.689 2.844-44.089 28.444-116.622 76.8-56.889-24.178-119.467-36.978-187.733-36.978-133.689 0-237.511 39.822-312.889 118.044-75.378 76.8-113.778 187.733-113.778 328.533s38.4 251.733 113.778 329.956c75.378 78.222 177.778 118.044 307.2 118.044 128 0 230.4-39.822 305.778-118.044s112.356-189.156 112.356-329.956c0-75.378-9.956-140.8-31.289-197.689-15.644-42.667-39.822-83.911-75.378-125.156zM667.022 164.267c22.756 27.022 39.822 58.311 49.778 95.289 11.378 36.978 17.067 79.644 17.067 128 0 99.556-21.333 174.933-65.422 224.711s-102.4 73.956-173.511 73.956-129.422-24.178-173.511-73.956c-44.089-49.778-66.844-123.733-66.844-223.289 0-100.978 22.756-176.356 66.844-227.556 44.089-49.778 100.978-75.378 167.822-75.378 25.6 0 48.356 4.267 71.111 12.8-35.556 22.756-71.111 41.244-108.089 54.044l48.356 99.556c59.733-19.911 115.2-49.778 166.4-88.178z" />
<glyph unicode="&#xe913;" glyph-name="receipt" d="M985.6 824.178c-9.956 5.689-21.333 5.689-31.289 0l-59.733-41.244-58.311 38.4c-9.956 5.689-24.178 5.689-34.133 0l-59.733-38.4-58.311 38.4c-9.956 5.689-24.178 5.689-34.133 0l-59.733-38.4-56.889 38.4c-9.956 5.689-24.178 5.689-34.133 0l-59.733-38.4-58.311 38.4c-9.956 5.689-24.178 5.689-34.133 0l-59.733-38.4-58.311 38.4c-9.956 5.689-24.178 5.689-34.133 0l-59.733-38.4-58.311 38.4c-8.533 5.689-21.333 5.689-29.867 0-11.378-2.844-18.489-12.8-18.489-25.6v-888.889c0-11.378 5.689-21.333 15.644-27.022 4.267-2.844 9.956-4.267 15.644-4.267s11.378 1.422 15.644 4.267l59.733 41.244 58.311-38.4c9.956-5.689 24.178-5.689 34.133 0l58.311 38.4 55.467-38.4c9.956-5.689 24.178-5.689 34.133 0l58.311 38.4 58.311-38.4c9.956-5.689 24.178-5.689 34.133 0l58.311 38.4 55.467-38.4c9.956-5.689 24.178-5.689 34.133 0l58.311 38.4 58.311-38.4c9.956-5.689 24.178-5.689 34.133 0l58.311 38.4 55.467-38.4c5.689-2.844 11.378-5.689 17.067-5.689s8.533 0 15.644 2.844v0c9.956 7.111 15.644 15.644 15.644 27.022v887.467c5.689 4.267 8.533 9.956 8.533 14.222 0 5.689-4.267 11.378-9.956 15.644zM935.822 740.267v-772.267l-24.178 17.067c-9.956 5.689-24.178 5.689-34.133 0l-59.733-41.244-58.311 38.4c-5.689 2.844-11.378 5.689-17.067 5.689s-11.378-2.844-17.067-5.689l-58.311-38.4-58.311 38.4c-9.956 5.689-24.178 5.689-34.133 0l-59.733-38.4-58.311 38.4c-9.956 5.689-24.178 5.689-34.133 0l-59.733-38.4-58.311 38.4c-4.267 2.844-11.378 4.267-17.067 4.267s-12.8-1.422-17.067-4.267l-59.733-38.4-58.311 38.4c-9.956 5.689-24.178 5.689-34.133 0l-27.022-18.489v773.689l27.022-19.911c9.956-5.689 24.178-5.689 34.133 0l58.311 41.244 56.889-38.4c9.956-5.689 24.178-5.689 34.133 0l59.733 38.4 58.311-38.4c9.956-5.689 24.178-5.689 34.133 0l59.733 38.4 58.311-38.4c9.956-5.689 24.178-5.689 34.133 0l59.733 38.4 58.311-38.4c9.956-5.689 24.178-5.689 34.133 0l59.733 38.4 58.311-38.4c9.956-5.689 24.178-5.689 34.133 0l25.6 19.911zM241.778 504.178c0-17.28-14.009-31.289-31.289-31.289s-31.289 14.009-31.289 31.289c0 17.28 14.009 31.289 31.289 31.289s31.289-14.009 31.289-31.289zM768 383.289h-51.2c-12.8 0-19.911 7.111-19.911 19.911s7.111 19.911 19.911 19.911h75.378c18.489 0 31.289 12.8 31.289 31.289s-12.8 31.289-31.289 31.289h-19.911v19.911c0 18.489-12.8 31.289-31.289 31.289s-31.289-12.8-31.289-31.289v-19.911c-44.089-2.844-75.378-36.978-75.378-81.067 0-46.933 35.556-81.067 81.067-81.067h52.622c12.8 0 19.911-7.111 19.911-19.911s-7.111-19.911-19.911-19.911h-75.378c-18.489 0-31.289-12.8-31.289-31.289s12.8-31.289 31.289-31.289h18.489v-19.911c0-18.489 12.8-31.289 31.289-31.289s31.289 12.8 31.289 31.289v19.911c44.089 2.844 75.378 36.978 75.378 81.067 0 45.511-35.556 81.067-81.067 81.067zM311.467 472.889h126.578c18.489 0 31.289 12.8 31.289 31.289s-12.8 31.289-31.289 31.289h-126.578c-18.489 0-31.289-12.8-31.289-31.289 1.422-18.489 14.222-31.289 31.289-31.289zM241.778 403.2c0-17.28-14.009-31.289-31.289-31.289s-31.289 14.009-31.289 31.289c0 17.28 14.009 31.289 31.289 31.289s31.289-14.009 31.289-31.289zM311.467 371.911h152.178c18.489 0 31.289 12.8 31.289 31.289s-12.8 31.289-31.289 31.289h-152.178c-18.489 0-31.289-12.8-31.289-31.289 1.422-18.489 14.222-31.289 31.289-31.289zM241.778 300.8c0-17.28-14.009-31.289-31.289-31.289s-31.289 14.009-31.289 31.289c0 17.28 14.009 31.289 31.289 31.289s31.289-14.009 31.289-31.289zM311.467 332.089c-18.489 0-31.289-12.8-31.289-31.289s12.8-31.289 31.289-31.289h100.978c18.489 0 31.289 12.8 31.289 31.289s-12.8 31.289-31.289 31.289h-100.978zM241.778 199.822c0-17.28-14.009-31.289-31.289-31.289s-31.289 14.009-31.289 31.289c0 17.28 14.009 31.289 31.289 31.289s31.289-14.009 31.289-31.289zM514.844 231.111h-203.378c-18.489 0-31.289-12.8-31.289-31.289s12.8-31.289 31.289-31.289h201.956c18.489 0 31.289 12.8 31.289 31.289s-12.8 31.289-29.867 31.289z" />
<glyph unicode="&#xe914;" glyph-name="reply" d="M755.2 494.222c-1.422 0-658.489 0-658.489 0l137.956 155.022c8.533 9.956 8.533 25.6-1.422 34.133s-25.6 8.533-34.133-1.422l-156.444-174.933c-18.489-21.333-18.489-54.044 0-75.378l156.444-174.933c4.267-5.689 11.378-8.533 18.489-8.533 5.689 0 11.378 1.422 15.644 5.689 9.956 8.533 11.378 24.178 1.422 34.133l-137.956 157.867c0 0 657.067 0 658.489 0 105.244 0 192-85.333 192-192s-85.333-192-192-192h-116.622c-12.8 0-24.178-11.378-24.178-24.178s11.378-24.178 24.178-24.178h116.622c132.267 0 240.356 108.089 240.356 240.356s-108.089 240.356-240.356 240.356z" />
<glyph unicode="&#xe915;" glyph-name="stack-account-bd" d="M809.244 322.133h-594.489c-102.4 0-186.311-83.911-186.311-186.311s83.911-186.311 186.311-186.311h594.489c102.4 0 186.311 83.911 186.311 186.311s-83.911 186.311-186.311 186.311zM809.244 9.244h-594.489c-69.689 0-126.578 56.889-126.578 126.578s56.889 126.578 126.578 126.578h594.489c69.689 0 126.578-56.889 126.578-126.578s-56.889-126.578-126.578-126.578z" />
<glyph unicode="&#xe916;" glyph-name="stack-account-hd" d="M386.844 390.4h234.667c14.222 0 25.6 11.378 25.6 25.6v187.733c0 14.222-11.378 25.6-25.6 25.6h-21.333v28.444c0 52.622-42.667 96.711-96.711 96.711s-96.711-42.667-96.711-96.711v-28.444h-21.333c-14.222 0-25.6-11.378-25.6-25.6v-187.733c1.422-14.222 12.8-25.6 27.022-25.6zM459.378 659.2c0 24.178 19.911 44.089 44.089 44.089s44.089-19.911 44.089-44.089v-28.444h-89.6v28.444zM412.444 578.133h183.467v-136.533h-183.467v136.533zM310.044 174.222l-36.978-18.489v48.356c0 8.533-7.111 14.222-14.222 14.222-8.533 0-14.222-7.111-14.222-14.222v-48.356l-36.978 18.489c-7.111 4.267-15.644 0-19.911-7.111-2.844-7.111 0-15.644 7.111-19.911l42.667-21.333-32.711-44.089c-4.267-5.689-2.844-15.644 2.844-19.911 2.844-1.422 5.689-2.844 8.533-2.844 4.267 0 8.533 1.422 11.378 5.689l31.289 42.667 31.289-42.667c2.844-4.267 7.111-5.689 11.378-5.689 2.844 0 5.689 1.422 8.533 2.844 5.689 4.267 7.111 14.222 2.844 19.911l-32.711 44.089 42.667 21.333c7.111 2.844 9.956 12.8 7.111 19.911-4.267 7.111-12.8 9.956-19.911 7.111zM483.556 174.222l-36.978-18.489v48.356c0 8.533-7.111 14.222-14.222 14.222s-14.222-7.111-14.222-14.222v-48.356l-36.978 18.489c-7.111 4.267-15.644 0-19.911-7.111-2.844-7.111 0-15.644 7.111-19.911l42.667-21.333-32.711-44.089c-4.267-5.689-2.844-15.644 2.844-19.911 2.844-1.422 5.689-2.844 8.533-2.844 4.267 0 8.533 1.422 11.378 5.689l31.289 42.667 31.289-42.667c2.844-4.267 7.111-5.689 11.378-5.689 2.844 0 5.689 1.422 8.533 2.844 5.689 4.267 7.111 14.222 2.844 19.911l-32.711 44.089 42.667 21.333c7.111 2.844 9.956 12.8 7.111 19.911-4.267 7.111-12.8 9.956-19.911 7.111zM655.644 174.222l-36.978-18.489v48.356c0 8.533-7.111 14.222-14.222 14.222-8.533 0-14.222-7.111-14.222-14.222v-48.356l-36.978 18.489c-7.111 4.267-15.644 0-19.911-7.111-2.844-7.111 0-15.644 7.111-19.911l42.667-21.333-32.711-44.089c-4.267-5.689-2.844-15.644 2.844-19.911 2.844-1.422 5.689-2.844 8.533-2.844 4.267 0 8.533 1.422 11.378 5.689l31.289 42.667 31.289-42.667c2.844-4.267 7.111-5.689 11.378-5.689 2.844 0 5.689 1.422 8.533 2.844 5.689 4.267 7.111 14.222 2.844 19.911l-32.711 45.511 42.667 21.333c7.111 2.844 9.956 12.8 7.111 19.911-4.267 5.689-12.8 8.533-19.911 5.689zM827.733 174.222l-36.978-18.489v48.356c0 8.533-7.111 14.222-14.222 14.222-8.533 0-14.222-7.111-14.222-14.222v-48.356l-36.978 18.489c-7.111 4.267-15.644 0-19.911-7.111-2.844-7.111 0-15.644 7.111-19.911l42.667-21.333-32.711-44.089c-4.267-5.689-2.844-15.644 2.844-19.911 2.844-1.422 5.689-2.844 8.533-2.844 4.267 0 8.533 1.422 11.378 5.689l31.289 42.667 31.289-42.667c2.844-4.267 7.111-5.689 11.378-5.689 2.844 0 5.689 1.422 8.533 2.844 5.689 4.267 7.111 14.222 2.844 19.911l-32.711 44.089 42.667 21.333c7.111 2.844 9.956 12.8 7.111 19.911-4.267 7.111-12.8 9.956-19.911 7.111z" />
<glyph unicode="&#xe917;" glyph-name="stack-card-bd" d="M558.933 57.6v0 0l-11.378-4.267-1.422 4.267h-22.756c-22.756 0-21.333 21.333-21.333 21.333v102.4l-156.444 429.511 19.911 7.111c0 0 0 0 0 0l136.533 49.778v35.556c0 25.6 22.756 22.756 22.756 22.756h24.178l-34.133 39.822c-2.844 4.267-8.533 5.689-12.8 7.111-5.689 0-9.956-1.422-14.222-4.267l-139.378-116.622-11.378-4.267-51.2 29.867c-8.533 5.689-19.911 1.422-25.6-7.111l-103.822-180.622-18.489-15.644c-4.267-2.844-5.689-8.533-7.111-12.8 0-4.267 0-7.111 2.844-11.378l-102.4-174.933c-5.689-8.533-1.422-19.911 7.111-25.6l547.556-315.733c2.844-1.422 5.689-2.844 9.956-2.844 1.422 0 2.844 0 4.267 0 4.267 1.422 8.533 4.267 11.378 8.533l66.844 116.622c0 0 0 0 0 1.422h-119.467zM497.778 727.467l7.111-8.533c-2.844-2.844-4.267-7.111-4.267-11.378l-48.356-17.067 45.511 36.978zM283.022 636.444l18.489-11.378c0-2.844 0-5.689 1.422-9.956v-1.422l-62.578-52.622 42.667 75.378zM72.533 272.356l85.333 147.911 321.422-382.578-406.756 234.667zM176.356 458.667l140.8 118.044 183.467-504.889-324.267 386.844zM548.978 13.511l35.556 12.8-27.022-22.756-8.533 9.956zM587.378-24.889l-2.844 1.422 7.111 5.689-4.267-7.111z" />
<glyph unicode="&#xe918;" glyph-name="stack-card-hd" d="M768 118.756c5.689 0 9.956 4.267 9.956 9.956v95.289c0 5.689-4.267 9.956-9.956 9.956s-9.956-4.267-9.956-9.956v-95.289c0-5.689 4.267-9.956 9.956-9.956zM768 255.289c5.689 0 9.956 4.267 9.956 9.956v95.289c0 5.689-4.267 9.956-9.956 9.956s-9.956-4.267-9.956-9.956v-93.867c0-7.111 4.267-11.378 9.956-11.378zM820.622 118.756c5.689 0 9.956 4.267 9.956 9.956v9.956c0 5.689-4.267 9.956-9.956 9.956s-9.956-4.267-9.956-9.956v-9.956c0-5.689 4.267-9.956 9.956-9.956zM820.622 171.378c5.689 0 9.956 4.267 9.956 9.956v21.333c0 5.689-4.267 9.956-9.956 9.956s-9.956-4.267-9.956-9.956v-21.333c0-5.689 4.267-9.956 9.956-9.956zM820.622 233.956c5.689 0 9.956 4.267 9.956 9.956v9.956c0 5.689-4.267 9.956-9.956 9.956s-9.956-4.267-9.956-9.956v-9.956c0-4.267 4.267-9.956 9.956-9.956zM820.622 286.578c5.689 0 9.956 4.267 9.956 9.956v21.333c0 5.689-4.267 9.956-9.956 9.956s-9.956-4.267-9.956-9.956v-21.333c0-4.267 4.267-9.956 9.956-9.956zM820.622 350.578c2.844 0 5.689 1.422 7.111 2.844s2.844 4.267 2.844 7.111c0 2.844-1.422 5.689-2.844 7.111s-4.267 2.844-7.111 2.844c-2.844 0-5.689-1.422-7.111-2.844-4.267-4.267-4.267-11.378 0-15.644 1.422 0 4.267-1.422 7.111-1.422zM873.244 467.2c31.289 0 58.311 25.6 58.311 58.311 0 9.956-2.844 19.911-7.111 28.444 4.267 8.533 7.111 18.489 7.111 28.444 0 31.289-25.6 58.311-58.311 58.311-31.289 0-58.311-25.6-58.311-58.311 0-9.956 2.844-19.911 7.111-28.444-4.267-8.533-7.111-18.489-7.111-28.444 0-31.289 25.6-58.311 58.311-58.311zM873.244 623.644c22.756 0 41.244-18.489 41.244-41.244 0-5.689-1.422-9.956-2.844-14.222-9.956 8.533-24.178 14.222-38.4 14.222s-28.444-5.689-38.4-14.222c-1.422 4.267-2.844 9.956-2.844 14.222 0 22.756 18.489 41.244 41.244 41.244zM901.689 553.956c-7.111-7.111-18.489-12.8-29.867-12.8s-21.333 4.267-29.867 12.8c7.111 7.111 18.489 12.8 29.867 12.8 12.8 0 22.756-4.267 29.867-12.8zM834.844 539.733c9.956-8.533 24.178-14.222 38.4-14.222s28.444 5.689 38.4 14.222c1.422-4.267 2.844-9.956 2.844-14.222 0-22.756-18.489-41.244-41.244-41.244s-41.244 18.489-41.244 41.244c0 5.689 1.422 9.956 2.844 14.222zM651.378 324.978c0-6.284-5.094-11.378-11.378-11.378s-11.378 5.094-11.378 11.378c0 6.284 5.094 11.378 11.378 11.378s11.378-5.094 11.378-11.378zM651.378 391.822c0-6.284-5.094-11.378-11.378-11.378s-11.378 5.094-11.378 11.378c0 6.284 5.094 11.378 11.378 11.378s11.378-5.094 11.378-11.378zM651.378 258.133c0-6.284-5.094-11.378-11.378-11.378s-11.378 5.094-11.378 11.378c0 6.284 5.094 11.378 11.378 11.378s11.378-5.094 11.378-11.378zM651.378 125.867c0-6.284-5.094-11.378-11.378-11.378s-11.378 5.094-11.378 11.378c0 6.284 5.094 11.378 11.378 11.378s11.378-5.094 11.378-11.378zM651.378 191.289c0-6.284-5.094-11.378-11.378-11.378s-11.378 5.094-11.378 11.378c0 6.284 5.094 11.378 11.378 11.378s11.378-5.094 11.378-11.378zM651.378 657.778c0-6.284-5.094-11.378-11.378-11.378s-11.378 5.094-11.378 11.378c0 6.284 5.094 11.378 11.378 11.378s11.378-5.094 11.378-11.378zM651.378 590.933c0-6.284-5.094-11.378-11.378-11.378s-11.378 5.094-11.378 11.378c0 6.284 5.094 11.378 11.378 11.378s11.378-5.094 11.378-11.378zM651.378 458.667c0-6.284-5.094-11.378-11.378-11.378s-11.378 5.094-11.378 11.378c0 6.284 5.094 11.378 11.378 11.378s11.378-5.094 11.378-11.378zM651.378 525.511c0-6.284-5.094-11.378-11.378-11.378s-11.378 5.094-11.378 11.378c0 6.284 5.094 11.378 11.378 11.378s11.378-5.094 11.378-11.378zM519.111 371.911c9.956 0 18.489 8.533 18.489 18.489v1.422c0 9.956-8.533 18.489-18.489 18.489s-18.489-8.533-18.489-18.489v-1.422c0-9.956 8.533-18.489 18.489-18.489zM977.067 726.044h-457.956c-9.956 0-18.489-8.533-18.489-18.489v-254.578c0-9.956 8.533-18.489 18.489-18.489s18.489 8.533 18.489 18.489v236.089h46.933v-594.489h-46.933v234.667c0 9.956-8.533 18.489-18.489 18.489s-18.489-8.533-18.489-18.489v-253.156c0-9.956 8.533-18.489 18.489-18.489h457.956c9.956 0 18.489 8.533 18.489 18.489v631.467c0 9.956-8.533 18.489-18.489 18.489zM605.867 103.111v44.089c5.689 0 11.378 4.267 11.378 11.378 0 5.689-4.267 11.378-11.378 11.378v44.089c5.689 0 11.378 4.267 11.378 11.378 0 5.689-4.267 11.378-11.378 11.378v44.089c5.689 0 11.378 4.267 11.378 11.378 0 5.689-4.267 11.378-11.378 11.378v44.089c5.689 0 11.378 4.267 11.378 11.378 0 5.689-4.267 11.378-11.378 11.378v44.089c5.689 0 11.378 4.267 11.378 11.378 0 5.689-4.267 11.378-11.378 11.378v42.667c5.689 0 11.378 4.267 11.378 11.378 0 5.689-4.267 11.378-11.378 11.378v44.089c5.689 0 11.378 4.267 11.378 11.378s-4.267 11.378-11.378 11.378v44.089c5.689 0 11.378 4.267 11.378 11.378 0 5.689-4.267 11.378-11.378 11.378v44.089c5.689 0 9.956 4.267 11.378 8.533h44.089c1.422-5.689 5.689-8.533 11.378-8.533v-44.089c-5.689 0-11.378-4.267-11.378-11.378 0-5.689 4.267-11.378 11.378-11.378v-44.089c-5.689 0-11.378-4.267-11.378-11.378s4.267-11.378 11.378-11.378v-44.089c-5.689 0-11.378-4.267-11.378-11.378 0-5.689 4.267-11.378 11.378-11.378v-44.089c-5.689 0-11.378-4.267-11.378-11.378 0-5.689 4.267-11.378 11.378-11.378v-44.089c-5.689 0-11.378-4.267-11.378-11.378 0-5.689 4.267-11.378 11.378-11.378v-44.089c-5.689 0-11.378-4.267-11.378-11.378 0-5.689 4.267-11.378 11.378-11.378v-44.089c-5.689 0-11.378-4.267-11.378-11.378 0-5.689 4.267-11.378 11.378-11.378v-44.089c-5.689 0-11.378-4.267-11.378-11.378 0-5.689 4.267-11.378 11.378-11.378v-44.089c-5.689 0-9.956-4.267-11.378-8.533h-45.511c0 5.689-4.267 9.956-9.956 9.956zM958.578 94.578h-264.533v594.489h263.111v-594.489z" />
<glyph unicode="&#xe919;" glyph-name="stack-chart-color" d="M886.044 656.356v0c-5.689 7.111-17.067 8.533-24.178 1.422l-149.333-149.333c-5.689-5.689-5.689-14.222-1.422-19.911v0c27.022-39.822 41.244-86.756 41.244-136.533 0-48.356-14.222-95.289-41.244-136.533v0c-4.267-5.689-4.267-15.644 1.422-19.911l149.333-149.333c7.111-7.111 18.489-5.689 24.178 1.422v0c69.689 85.333 108.089 193.422 108.089 304.356s-38.4 219.022-108.089 304.356zM647.111 151.467c-41.244-27.022-88.178-41.244-136.533-41.244-116.622 0-216.178 82.489-237.511 196.267v0c-1.422 7.111-8.533 12.8-15.644 12.8h-211.911c-9.956 0-17.067-8.533-15.644-17.067v0c25.6-247.467 231.822-433.778 480.711-433.778 110.933 0 219.022 38.4 304.356 108.089v0c7.111 5.689 8.533 17.067 1.422 24.178l-149.333 149.333c-5.689 5.689-14.222 5.689-19.911 1.422v0z" />
<glyph unicode="&#xe91a;" glyph-name="stack-chart-line" d="M510.578 771.556c71.111 0 140.8-18.489 201.956-51.2 9.956-5.689 11.378-18.489 2.844-25.6l-59.733-59.733c-4.267-4.267-11.378-5.689-18.489-2.844-39.822 18.489-82.489 27.022-126.578 27.022-129.422 0-243.2-81.067-287.289-199.111-2.844-5.689-8.533-9.956-15.644-9.956h-85.333c-9.956 0-18.489 9.956-15.644 19.911 52.622 174.933 213.333 301.511 403.911 301.511zM510.578 835.556c-248.889 0-455.111-186.311-480.711-433.778v0c-1.422-9.956 7.111-17.067 15.644-17.067h211.911c7.111 0 14.222 5.689 15.644 12.8v0c21.333 113.778 120.889 196.267 237.511 196.267 48.356 0 95.289-14.222 136.533-41.244v0c5.689-4.267 15.644-4.267 19.911 1.422l149.333 149.333c7.111 7.111 5.689 18.489-1.422 24.178v0c-85.333 69.689-193.422 108.089-304.356 108.089v0z" />
<glyph unicode="&#xe91b;" glyph-name="stack-checked-hd" d="M795.022 691.911c-7.111 0-12.8 4.267-17.067 9.956-38.4 51.2-99.556 83.911-164.978 83.911-4.267 0-8.533 0-11.378 0-5.689 0-11.378 1.422-15.644 4.267-42.667 29.867-91.022 45.511-140.8 45.511-91.022 0-170.667-52.622-207.644-130.844-4.267-7.111-9.956-12.8-18.489-14.222-99.556-14.222-176.356-99.556-176.356-203.378 0-83.911 49.778-155.022 120.889-187.733 0 2.844 0 5.689 0 8.533 0 32.711 2.844 59.733 7.111 81.067-28.444 22.756-46.933 58.311-46.933 96.711 0 68.267 55.467 125.156 125.156 125.156 2.844 0 7.111 0 9.956 0 19.911-1.422 38.4 11.378 42.667 29.867 17.067 66.844 76.8 113.778 145.067 113.778 39.822 0 76.8-15.644 105.244-42.667 9.956-9.956 22.756-12.8 36.978-9.956 8.533 1.422 17.067 2.844 25.6 2.844 48.356 0 91.022-27.022 112.356-71.111 7.111-15.644 24.178-24.178 39.822-22.756 4.267 0 8.533 0 12.8 0 68.267 0 125.156-55.467 125.156-125.156 0-39.822-18.489-73.956-46.933-96.711 4.267-21.333 7.111-48.356 7.111-81.067 0-2.844 0-5.689 0-8.533 71.111 32.711 120.889 103.822 120.889 187.733-2.844 106.667-86.756 194.844-190.578 204.8z" />
<glyph unicode="&#xe91c;" glyph-name="stack-checked-shield" d="M512 536.889c-203.378-187.733-308.622 7.111-308.622-227.556 0-329.956 237.511-428.089 308.622-440.889 71.111 12.8 308.622 110.933 308.622 439.467 0 236.089-105.244 41.244-308.622 228.978zM682.667 235.378l-177.778-177.778c-9.956-9.956-21.333-14.222-34.133-14.222s-24.178 4.267-34.133 14.222l-95.289 93.867c-18.489 18.489-18.489 49.778 0 68.267s49.778 18.489 68.267 0l61.156-61.156 143.644 143.644c18.489 18.489 49.778 18.489 68.267 0s18.489-48.356 0-66.844z" />
<glyph unicode="&#xe91d;" glyph-name="stack-file-bd" d="M790.756 305.067c-15.644 0-28.444-12.8-28.444-28.444v-351.289h-647.111v661.333h135.111c31.289 0 55.467 25.6 55.467 55.467v136.533h456.533v-71.111c0-15.644 12.8-28.444 28.444-28.444s28.444 12.8 28.444 28.444v72.533c0 31.289-25.6 55.467-55.467 55.467h-486.4c-7.111 0-14.222-2.844-19.911-8.533l-190.578-190.578c-5.689-5.689-8.533-12.8-8.533-19.911v-691.2c0-31.289 24.178-56.889 55.467-56.889h648.533c31.289 0 55.467 25.6 55.467 55.467v352.711c0 7.111-2.844 14.222-8.533 19.911-4.267 5.689-11.378 8.533-18.489 8.533zM155.022 644.978l92.444 93.867v-93.867h-92.444zM429.511 275.2v0h-186.311c-15.644 0-28.444-12.8-28.444-28.444s12.8-28.444 28.444-28.444h132.267c0 0 0 0 0 0s0 0 0 0l56.889 58.311h-2.844zM243.2 403.2h312.889l56.889 56.889h-369.778c-15.644 0-28.444-12.8-28.444-28.444s12.8-28.444 28.444-28.444z" />
<glyph unicode="&#xe91e;" glyph-name="stack-file-hd" d="M941.511 617.956l-27.022 27.022c-15.644 15.644-36.978 24.178-58.311 24.178-22.756 0-42.667-8.533-58.311-24.178l-452.267-456.533c0 0 0 0 0 0 0-1.422-1.422-2.844-1.422-2.844l-45.511-157.867c-4.267-15.644 9.956-29.867 25.6-25.6 29.867 8.533 81.067 21.333 160.711 44.089 4.267 1.422 8.533 4.267 12.8 7.111l445.156 446.578c31.289 32.711 31.289 85.333-1.422 118.044zM420.978 87.467l-48.356-12.8c0 0 0 0 0 0l12.8 48.356c0 0 0 0 0 0l35.556-35.556c0 0 0 0 0 0zM836.267 474.311l-359.822-361.244c0 0 0 0 0 0l-64 64c0 0 0 0 0 0l359.822 361.244c0 0 0 0 0 0l64-64c0 0 0 0 0 0zM901.689 539.733l-24.178-25.6c0 0 0 0 0 0l-65.422 65.422c0 0 0 0 0 0l24.178 24.178c4.267 5.689 11.378 8.533 18.489 8.533s14.222-2.844 18.489-7.111l27.022-27.022c11.378-11.378 11.378-28.444 1.422-38.4z" />
<glyph unicode="&#xe91f;" glyph-name="stack-file-success-bd" d="M891.733 780.089c0 29.867-24.178 55.467-55.467 55.467h-486.4c-7.111 0-14.222-2.844-19.911-8.533l-190.578-190.578c-5.689-5.689-8.533-12.8-8.533-19.911v-691.2c0-31.289 25.6-55.467 55.467-55.467h648.533c31.289 0 55.467 25.6 55.467 55.467v267.378c0 0 0 0 0 0v587.378zM321.422 737.422v-93.867h-92.444l92.444 93.867zM189.156-74.667v661.333h135.111c31.289 0 55.467 25.6 55.467 55.467v136.533h456.533v-584.533c0 0 0 0 0 0v-268.8h-647.111zM702.578 514.133h-385.422c-15.644 0-28.444-12.8-28.444-28.444s12.8-28.444 28.444-28.444h385.422c15.644 0 28.444 12.8 28.444 28.444s-12.8 28.444-28.444 28.444zM448 107.378c-4.267 17.067-7.111 34.133-7.111 52.622 0 1.422 0 2.844 0 5.689h-123.733c-15.644 0-28.444-12.8-28.444-28.444s12.8-28.444 28.444-28.444h130.844zM486.4 282.311c2.844 2.844 4.267 5.689 7.111 7.111 27.022 27.022 59.733 44.089 95.289 49.778h-271.644c-15.644 0-28.444-12.8-28.444-28.444s12.8-28.444 28.444-28.444h169.244z" />
<glyph unicode="&#xe920;" glyph-name="stack-file-success-hd" d="M749.511 288c-34.133 34.133-79.644 52.622-128 52.622s-93.867-18.489-128-52.622c-34.133-34.133-52.622-79.644-52.622-128s18.489-93.867 52.622-128c34.133-34.133 79.644-52.622 128-52.622s93.867 18.489 128 52.622c34.133 34.133 52.622 79.644 52.622 128 1.422 48.356-18.489 93.867-52.622 128zM752.356 160c0-35.556-14.222-68.267-38.4-92.444s-56.889-38.4-92.444-38.4-68.267 14.222-92.444 38.4c-24.178 24.178-38.4 56.889-38.4 92.444s14.222 68.267 38.4 92.444c24.178 24.178 56.889 38.4 92.444 38.4s68.267-14.222 92.444-38.4c25.6-24.178 38.4-58.311 38.4-92.444zM702.578 231.111c-4.267 2.844-9.956 5.689-15.644 5.689-7.111 0-12.8-2.844-18.489-7.111v0c0 0 0 0 0 0v0l-61.156-71.111-32.711 32.711c-4.267 4.267-11.378 7.111-17.067 7.111s-12.8-2.844-17.067-7.111c-9.956-9.956-9.956-25.6 0-35.556l49.778-49.778c1.422-1.422 1.422-2.844 2.844-2.844 0 0 0 0 0 0 4.267-4.267 9.956-7.111 17.067-7.111s12.8 2.844 17.067 7.111c1.422 1.422 4.267 4.267 5.689 7.111l73.956 85.333c4.267 4.267 7.111 11.378 7.111 18.489-2.844 7.111-7.111 14.222-11.378 17.067z" />
<glyph unicode="&#xe921;" glyph-name="stack-flag-bd" d="M960 132.978l-108.089 189.156 109.511 190.578c5.689 11.378 5.689 25.6 0 35.556-7.111 11.378-18.489 18.489-31.289 18.489h-352.711v52.622c0 19.911-15.644 35.556-35.556 35.556h-241.778c-19.911-42.667-64-73.956-115.2-73.956-12.8 0-25.6 1.422-36.978 5.689 0 0 0-1.422 0-2.844v-681.244c0-19.911 15.644-35.556 35.556-35.556s35.556 15.644 35.556 35.556v264.533h285.867v-52.622c0-19.911 15.644-35.556 35.556-35.556h386.844c0 0 0 0 0 0 19.911 0 35.556 15.644 35.556 35.556 2.844 5.689 0 12.8-2.844 18.489zM506.311 238.222h-285.867v345.6h285.867v-345.6zM577.422 150.044v344.178h290.133l-88.178-155.022c-5.689-11.378-5.689-24.178 0-35.556l88.178-153.6h-290.133z" />
<glyph unicode="&#xe922;" glyph-name="stack-flag-hd" d="M184.889 760.178c28.444 0 51.2-22.756 51.2-51.2s-22.756-51.2-51.2-51.2-51.2 22.756-51.2 51.2 22.756 51.2 51.2 51.2zM184.889 835.556c-69.689 0-126.578-56.889-126.578-126.578s56.889-126.578 126.578-126.578 126.578 56.889 126.578 126.578-56.889 126.578-126.578 126.578v0z" />
<glyph unicode="&#xe923;" glyph-name="stack-gear-bd" d="M816.356 182.756c-5.689 5.689-12.8 8.533-19.911 8.533s-14.222-2.844-19.911-8.533c-5.689-5.689-8.533-12.8-8.533-19.911s2.844-14.222 8.533-19.911l36.978-36.978c7.111-7.111 11.378-17.067 11.378-27.022s-4.267-19.911-11.378-27.022l-1.422-1.422c-7.111-7.111-17.067-11.378-27.022-11.378s-19.911 4.267-27.022 11.378l-36.978 36.978c-5.689 5.689-12.8 8.533-19.911 8.533-5.689 0-11.378-1.422-15.644-4.267-34.133-22.756-71.111-38.4-112.356-46.933-12.8-2.844-22.756-14.222-22.756-27.022v-52.622c0-21.333-17.067-39.822-39.822-39.822h1.422c-21.333 0-39.822 17.067-39.822 39.822v52.622c0 12.8-9.956 24.178-22.756 27.022-39.822 8.533-78.222 24.178-112.356 46.933-4.267 2.844-9.956 4.267-15.644 4.267-7.111 0-14.222-2.844-19.911-8.533l-36.978-36.978c-7.111-7.111-17.067-11.378-27.022-11.378s-19.911 4.267-27.022 11.378l-1.422 1.422c-7.111 7.111-11.378 17.067-11.378 27.022s4.267 19.911 11.378 27.022l36.978 36.978c9.956 9.956 11.378 24.178 2.844 35.556-22.756 34.133-38.4 71.111-46.933 112.356-2.844 12.8-14.222 22.756-27.022 22.756h-51.2c-21.333 0-39.822 17.067-39.822 39.822v-1.422c0 21.333 17.067 39.822 39.822 39.822h52.622c12.8 0 24.178 9.956 27.022 22.756 8.533 39.822 24.178 78.222 46.933 112.356 7.111 11.378 5.689 25.6-2.844 35.556l-36.978 36.978c-7.111 7.111-11.378 17.067-11.378 27.022s4.267 19.911 11.378 27.022l1.422 1.422c7.111 7.111 17.067 11.378 27.022 11.378s19.911-4.267 27.022-11.378l36.978-36.978c5.689-5.689 12.8-8.533 19.911-8.533s14.222 2.844 19.911 8.533c5.689 5.689 8.533 12.8 8.533 19.911s-2.844 14.222-8.533 19.911l-36.978 36.978c-18.489 18.489-41.244 28.444-66.844 28.444s-49.778-9.956-66.844-28.444l-2.844-1.422c-18.489-18.489-28.444-41.244-28.444-66.844s9.956-49.778 28.444-66.844l21.333-21.333c-17.067-28.444-28.444-58.311-36.978-89.6h-29.867c-52.622-1.422-95.289-44.089-95.289-96.711v0c0-52.622 42.667-95.289 95.289-95.289h31.289c8.533-31.289 21.333-61.156 36.978-89.6l-21.333-21.333c-18.489-18.489-28.444-41.244-28.444-66.844s9.956-49.778 28.444-66.844l1.422-1.422c18.489-18.489 41.244-28.444 66.844-28.444s49.778 9.956 66.844 28.444l21.333 21.333c28.444-17.067 58.311-28.444 89.6-36.978v-31.289c0-52.622 42.667-95.289 95.289-95.289v0c52.622 0 95.289 42.667 95.289 95.289v31.289c31.289 8.533 61.156 21.333 89.6 36.978l21.333-21.333c18.489-18.489 41.244-28.444 66.844-28.444s49.778 9.956 66.844 28.444l1.422 1.422c18.489 18.489 28.444 41.244 28.444 66.844s-9.956 49.778-28.444 66.844l-36.978 36.978zM322.844 617.956v0c-1.422 0-1.422 0-2.844 0 0 0 1.422 0 2.844 0zM123.733 400.356v0c-5.689 0-11.378-1.422-17.067-2.844 5.689 1.422 11.378 2.844 17.067 2.844zM52.622 302.222c12.8-17.067 31.289-29.867 52.622-35.556-22.756 5.689-41.244 18.489-52.622 35.556zM162.133 259.556c5.689-19.911 12.8-39.822 21.333-58.311-8.533 18.489-15.644 38.4-21.333 58.311zM237.511-9.244c8.533 0 17.067 1.422 24.178 4.267-7.111-2.844-15.644-4.267-24.178-4.267zM322.844 86.044c0 0 0 0 0 0s0 0 0 0 0 0 0 0zM576 34.844c5.689 1.422 11.378 2.844 17.067 4.267-5.689-1.422-11.378-2.844-17.067-4.267 0 0-1.422 0-1.422 0s1.422 0 1.422 0zM512-84.622v0c-4.267 0-8.533 0-12.8 1.422 2.844 0 7.111-1.422 12.8-1.422zM699.733 86.044c1.422 0 1.422 0 0 0 1.422 0 1.422 0 0 0 1.422 0 1.422 0 0 0zM849.067 138.667v0c2.844-2.844 5.689-5.689 7.111-8.533-2.844 2.844-4.267 5.689-7.111 8.533zM900.267 447.289h-31.289c-8.533 31.289-21.333 61.156-36.978 89.6l21.333 21.333c18.489 18.489 27.022 41.244 27.022 66.844s-9.956 49.778-27.022 66.844v2.844c-18.489 18.489-41.244 28.444-66.844 28.444s-49.778-9.956-66.844-28.444l-22.756-22.756c-28.444 17.067-58.311 28.444-89.6 36.978v31.289c0 52.622-42.667 95.289-95.289 95.289v0c-52.622 0-95.289-42.667-95.289-95.289v-52.622c0-15.644 12.8-28.444 28.444-28.444s28.444 12.8 28.444 28.444v52.622c0 21.333 17.067 39.822 39.822 39.822h-1.422c21.333 0 39.822-17.067 39.822-39.822v-52.622c0-12.8 9.956-24.178 22.756-27.022 39.822-8.533 78.222-24.178 112.356-46.933 4.267-2.844 9.956-4.267 15.644-4.267 7.111 0 14.222 2.844 19.911 8.533l36.978 36.978c7.111 7.111 17.067 11.378 27.022 11.378s19.911-4.267 27.022-11.378l1.422-1.422c7.111-7.111 11.378-17.067 11.378-27.022s-4.267-19.911-11.378-27.022l-36.978-36.978c-9.956-11.378-11.378-25.6-4.267-36.978 22.756-34.133 38.4-71.111 46.933-112.356 2.844-12.8 14.222-22.756 27.022-22.756h52.622c21.333 0 39.822-17.067 39.822-39.822v1.422c0-21.333-17.067-39.822-39.822-39.822h-52.622c-15.644 0-28.444-12.8-28.444-28.444s12.8-28.444 28.444-28.444h52.622c52.622 0 95.289 42.667 95.289 95.289v1.422c0 52.622-42.667 95.289-95.289 95.289zM701.156 617.956c0 0 0 0 0 0s0 0 0 0 0 0 0 0z" />
<glyph unicode="&#xe924;" glyph-name="stack-gear-hd" d="M512 288c-14.222 0-28.444 4.267-39.822 14.222-4.267 4.267-11.378 5.689-17.067 5.689-8.533 0-15.644-4.267-21.333-9.956-9.956-11.378-7.111-29.867 4.267-38.4 21.333-17.067 48.356-27.022 75.378-27.022 66.844 0 119.467 54.044 119.467 119.467 0 66.844-54.044 119.467-119.467 119.467s-119.467-54.044-119.467-119.467c0-15.644 12.8-28.444 28.444-28.444s28.444 12.8 28.444 28.444c0 35.556 28.444 64 64 64s64-28.444 64-64c-2.844-35.556-31.289-64-66.844-64z" />
<glyph unicode="&#xe925;" glyph-name="stack-id-bd" d="M972.8 660.622h-921.6c-12.8 0-22.756-9.956-22.756-22.756v-570.311c0-12.8 9.956-22.756 22.756-22.756h920.178c12.8 0 22.756 9.956 22.756 22.756v570.311c1.422 12.8-8.533 22.756-21.333 22.756zM948.622 613.689v-523.378h-873.244v523.378h873.244zM576 460.089h194.844c14.222 0 27.022 11.378 27.022 27.022s-11.378 27.022-27.022 27.022h-194.844c-14.222 0-27.022-11.378-27.022-27.022s11.378-27.022 27.022-27.022zM576 270.933h264.533c14.222 0 27.022 11.378 27.022 27.022 0 14.222-11.378 27.022-27.022 27.022h-264.533c-14.222 0-27.022-11.378-27.022-27.022s11.378-27.022 27.022-27.022zM576 191.289h264.533c14.222 0 27.022 11.378 27.022 27.022 0 14.222-11.378 27.022-27.022 27.022h-264.533c-14.222 0-27.022-11.378-27.022-27.022s11.378-27.022 27.022-27.022zM576 379.022h100.978c14.222 0 27.022 11.378 27.022 27.022 0 14.222-11.378 27.022-27.022 27.022h-100.978c-14.222 0-27.022-11.378-27.022-27.022 0-14.222 11.378-27.022 27.022-27.022z" />
<glyph unicode="&#xe926;" glyph-name="stack-id-hd" d="M179.2 161.422h265.956c21.333 0 39.822 18.489 39.822 39.822v92.444c0 48.356-34.133 88.178-78.222 96.711 4.267 12.8 5.689 25.6 5.689 39.822 0 61.156-42.667 110.933-96.711 110.933-52.622 0-96.711-49.778-96.711-110.933 0-12.8 1.422-25.6 5.689-38.4-48.356-7.111-85.333-48.356-85.333-98.133v-92.444c0-21.333 17.067-39.822 39.822-39.822zM186.311 293.689c0 28.444 24.178 52.622 52.622 52.622h24.178c8.533 0 17.067 5.689 21.333 12.8 4.267 8.533 2.844 17.067-2.844 24.178-9.956 12.8-15.644 28.444-15.644 45.511 0 35.556 22.756 64 49.778 64s49.778-29.867 49.778-64c0-17.067-5.689-34.133-15.644-45.511-5.689-7.111-7.111-17.067-2.844-24.178 4.267-8.533 12.8-12.8 21.333-12.8h17.067c28.444 0 52.622-24.178 52.622-52.622v-85.333h-251.733v85.333z" />
<glyph unicode="&#xe927;" glyph-name="stack-lock-frame" d="M814.933 467.2h-35.556v99.556c0 147.911-119.467 268.8-267.378 268.8s-267.378-120.889-267.378-267.378v-99.556h-35.556c-35.556 0-64-28.444-64-64v-473.6c0-35.556 28.444-64 64-64h605.867c35.556 0 64 28.444 64 64v473.6c0 34.133-28.444 62.578-64 62.578v0zM324.267 568.178c0 103.822 83.911 187.733 187.733 187.733s187.733-83.911 187.733-187.733v-99.556h-375.467v99.556zM797.867-50.489h-571.733v438.044h571.733v-438.044z" />
<glyph unicode="&#xe928;" glyph-name="stack-lock-keyhole" d="M512 9.244c22.756 0 39.822 18.489 39.822 39.822v103.822c0 22.756-18.489 39.822-39.822 39.822s-39.822-18.489-39.822-39.822v-103.822c0-21.333 17.067-39.822 39.822-39.822z" />
<glyph unicode="&#xe929;" glyph-name="stack-login-arrow" d="M785.067 377.6l-210.489 209.067c-14.222 14.222-36.978 14.222-49.778 0-14.222-14.222-14.222-36.978 0-49.778l149.333-149.333h-386.844c-19.911 0-35.556-15.644-35.556-35.556s15.644-35.556 35.556-35.556h386.844l-149.333-149.333c-14.222-14.222-14.222-36.978 0-49.778 7.111-7.111 15.644-9.956 25.6-9.956s18.489 2.844 25.6 9.956l210.489 210.489c12.8 12.8 12.8 35.556-1.422 49.778zM145.067 387.556h-81.067c-19.911 0-35.556-15.644-35.556-35.556s15.644-35.556 35.556-35.556h81.067c19.911 0 35.556 15.644 35.556 35.556s-15.644 35.556-35.556 35.556z" />
<glyph unicode="&#xe92a;" glyph-name="stack-login-door" d="M960 768.711h-234.667c-19.911 0-35.556-15.644-35.556-35.556s15.644-35.556 35.556-35.556h199.111v-691.2h-199.111c-19.911 0-35.556-15.644-35.556-35.556s15.644-35.556 35.556-35.556h234.667c19.911 0 35.556 15.644 35.556 35.556v762.311c0 19.911-15.644 35.556-35.556 35.556z" />
<glyph unicode="&#xe92b;" glyph-name="stack-logo-by" horiz-adv-x="1963" d="M925.867-110.222v69.689l9.956 1.422v-25.6c2.844 2.844 7.111 7.111 15.644 7.111 12.8 0 19.911-9.956 19.911-25.6 0-14.222-5.689-27.022-21.333-27.022-5.689 0-11.378 2.844-14.222 5.689l-1.422-4.267h-8.533v-1.422zM935.822-88.889c0-2.844 0-5.689 0-7.111 1.422-2.844 5.689-5.689 11.378-5.689 9.956 0 12.8 7.111 12.8 18.489 0 9.956-2.844 17.067-11.378 17.067-7.111 0-11.378-4.267-12.8-8.533 0-1.422 0-4.267 0-7.111v-7.111zM1014.044-60.444h11.378c-4.267-12.8-11.378-35.556-17.067-48.356-4.267-11.378-8.533-18.489-12.8-22.756l-9.956 4.267c4.267 4.267 8.533 9.956 12.8 19.911l-19.911 46.933h11.378l12.8-35.556c4.267 9.956 8.533 25.6 11.378 35.556zM1056.711-78.933c0 18.489 7.111 35.556 32.711 35.556 5.689 0 11.378-1.422 15.644-2.844l-1.422-9.956c-4.267 1.422-8.533 2.844-14.222 2.844-15.644 0-21.333-11.378-21.333-25.6s7.111-24.178 21.333-24.178c4.267 0 11.378 1.422 14.222 2.844l1.422-9.956c-4.267-1.422-9.956-2.844-15.644-2.844-25.6 1.422-32.711 17.067-32.711 34.133v0 0 0zM1157.689-110.222l-8.533-1.422c-1.422 2.844-2.844 5.689-2.844 8.533-2.844-5.689-8.533-8.533-15.644-8.533s-15.644 4.267-15.644 15.644c0 12.8 7.111 15.644 29.867 17.067v2.844c0 5.689-1.422 8.533-8.533 8.533-5.689 0-9.956-1.422-15.644-4.267l-2.844 8.533c4.267 2.844 11.378 4.267 18.489 4.267 12.8 0 17.067-5.689 17.067-17.067v-19.911c0-5.689 1.422-11.378 4.267-14.222zM1123.556-96c0-5.689 5.689-7.111 8.533-7.111 5.689 0 11.378 4.267 11.378 9.956v7.111c-15.644-1.422-19.911-2.844-19.911-9.956zM1190.4-103.111v-8.533h-4.267c-8.533 0-14.222 2.844-14.222 11.378v29.867h-8.533v9.956h8.533v11.378l9.956 2.844v-14.222h9.956v-8.533h-9.956v-25.6c0-5.689 1.422-7.111 5.689-7.111h2.844zM1228.8-59.022c12.8 0 17.067-8.533 17.067-17.067v-34.133h-9.956v31.289c0 7.111-2.844 11.378-8.533 11.378-4.267 0-9.956-2.844-12.8-5.689v-36.978h-9.956v69.689l9.956 1.422v-25.6c2.844 2.844 8.533 5.689 14.222 5.689zM1301.333-110.222l-8.533-1.422c-1.422 2.844-2.844 5.689-2.844 8.533-2.844-5.689-8.533-8.533-15.644-8.533s-15.644 4.267-15.644 15.644c0 12.8 7.111 15.644 29.867 17.067v2.844c0 5.689-1.422 8.533-8.533 8.533-5.689 0-9.956-1.422-15.644-4.267l-2.844 8.533c4.267 2.844 11.378 4.267 18.489 4.267 12.8 0 17.067-5.689 17.067-17.067v-19.911c1.422-5.689 1.422-11.378 4.267-14.222zM1267.2-96c0-5.689 5.689-7.111 8.533-7.111 5.689 0 11.378 4.267 11.378 9.956v7.111c-14.222-1.422-19.911-2.844-19.911-9.956zM1342.578-60.444h11.378c-4.267-12.8-11.378-35.556-17.067-48.356-4.267-11.378-8.533-18.489-12.8-22.756l-9.956 4.267c4.267 4.267 8.533 9.956 12.8 19.911l-19.911 46.933h11.378l12.8-35.556c4.267 9.956 9.956 25.6 11.378 35.556zM1413.689-111.644c-14.222 0-27.022 8.533-27.022 22.756v45.511h11.378v-41.244c0-9.956 2.844-17.067 15.644-17.067s15.644 7.111 15.644 17.067v41.244h11.378v-45.511c0-15.644-11.378-22.756-27.022-22.756v0zM1466.311-59.022c0-1.422 1.422-4.267 1.422-7.111 2.844 4.267 9.956 7.111 15.644 7.111 12.8 0 17.067-8.533 17.067-17.067v-34.133h-9.956v31.289c0 7.111-2.844 11.378-8.533 11.378-4.267 0-9.956-2.844-12.8-5.689v-36.978h-9.956v39.822c0 4.267 0 7.111-1.422 9.956l8.533 1.422zM1527.467-53.333h-11.378v9.956h11.378v-9.956zM1527.467-110.222h-9.956v49.778h9.956v-49.778zM1564.444-103.111v-8.533h-4.267c-8.533 0-14.222 2.844-14.222 11.378v29.867h-8.533v9.956h8.533v11.378l9.956 2.844v-14.222h9.956v-8.533h-9.956v-25.6c0-5.689 1.422-7.111 5.689-7.111h2.844zM1600-103.111c5.689 0 11.378 1.422 14.222 2.844l1.422-8.533c-2.844-1.422-9.956-2.844-17.067-2.844-18.489 0-25.6 11.378-25.6 25.6 0 15.644 8.533 27.022 24.178 27.022 14.222 0 19.911-9.956 19.911-22.756v-5.689h-32.711c0-11.378 5.689-15.644 15.644-15.644v0 0zM1597.156-66.133c-7.111 0-11.378-7.111-12.8-12.8h22.756c1.422 7.111-1.422 12.8-9.956 12.8v0zM1648.356-111.644c-12.8 0-19.911 9.956-19.911 25.6 0 14.222 5.689 27.022 21.333 27.022 5.689 0 11.378-2.844 14.222-5.689v22.756l9.956 1.422v-52.622c0-5.689 0-11.378 1.422-15.644l-8.533-1.422c-1.422 1.422-1.422 5.689-2.844 7.111-1.422-4.267-7.111-8.533-15.644-8.533v0zM1664-81.778c0 2.844 0 5.689 0 7.111-1.422 2.844-5.689 5.689-11.378 5.689-9.956 0-12.8-8.533-12.8-18.489s2.844-17.067 11.378-17.067c7.111 0 11.378 4.267 12.8 8.533 0 1.422 0 4.267 0 7.111v7.111zM1759.289-91.733c0-14.222-9.956-18.489-22.756-18.489h-19.911v66.844h19.911c11.378 0 22.756-2.844 22.756-17.067 0-7.111-4.267-12.8-9.956-14.222 1.422-1.422 9.956-5.689 9.956-17.067v0 0zM1746.489-61.867c0 7.111-4.267 9.956-12.8 9.956h-7.111v-19.911h11.378c4.267 0 8.533 2.844 8.533 9.956v0 0zM1725.156-101.689h9.956c7.111 0 14.222 1.422 14.222 11.378 0 7.111-4.267 11.378-14.222 11.378h-8.533v-22.756zM1813.333-110.222l-8.533-1.422c-1.422 2.844-2.844 5.689-2.844 8.533-2.844-5.689-8.533-8.533-15.644-8.533s-15.644 4.267-15.644 15.644c0 12.8 7.111 15.644 29.867 17.067v2.844c0 5.689-1.422 8.533-8.533 8.533-5.689 0-9.956-1.422-15.644-4.267l-2.844 8.533c4.267 2.844 11.378 4.267 18.489 4.267 12.8 0 17.067-5.689 17.067-17.067v-19.911c0-5.689 1.422-11.378 4.267-14.222zM1779.2-96c0-5.689 5.689-7.111 8.533-7.111 5.689 0 11.378 4.267 11.378 9.956v7.111c-15.644-1.422-19.911-2.844-19.911-9.956zM1833.244-59.022c0-1.422 1.422-4.267 1.422-7.111 2.844 4.267 9.956 7.111 15.644 7.111 12.8 0 17.067-8.533 17.067-17.067v-34.133h-9.956v31.289c0 7.111-2.844 11.378-8.533 11.378-4.267 0-9.956-2.844-12.8-5.689v-36.978h-9.956v39.822c0 4.267 0 7.111-1.422 9.956l8.533 1.422zM1925.689-110.222h-12.8l-19.911 24.178v-24.178h-9.956v69.689l9.956 1.422v-44.089l18.489 24.178h11.378l-19.911-24.178 22.756-27.022z" />
<glyph unicode="&#xe92c;" glyph-name="stack-logo-crimson" horiz-adv-x="1963" d="M837.689 701.867c-54.044-65.422-86.756-147.911-86.756-238.933 0-135.111 71.111-253.156 179.2-318.578 34.133 65.422 52.622 139.378 52.622 217.6 0 133.689-55.467 254.578-145.067 339.911z" />
<glyph unicode="&#xe92d;" glyph-name="stack-logo-green" horiz-adv-x="1963" d="M1123.556 835.556c-115.2 0-217.6-51.2-285.867-133.689 89.6-85.333 145.067-206.222 145.067-339.911 0-78.222-18.489-152.178-52.622-217.6 56.889-34.133 122.311-54.044 193.422-54.044 206.222 0 372.622 166.4 372.622 372.622s-166.4 372.622-372.622 372.622zM146.489 416c-4.267 24.178-18.489 34.133-42.667 31.289-24.178-4.267-34.133-18.489-31.289-42.667l35.556-220.444c4.267-24.178 18.489-34.133 42.667-29.867s34.133 18.489 31.289 42.667l-35.556 219.022zM365.511 225.422c-1.422 12.8-14.222 24.178-25.6 32.711s-78.222 61.156-79.644 62.578c1.422 1.422 46.933 72.533 55.467 83.911 8.533 12.8 15.644 27.022 12.8 39.822-2.844 22.756-22.756 34.133-42.667 31.289-12.8-1.422-22.756-7.111-31.289-22.756-5.689-9.956-62.578-103.822-68.267-113.778-9.956-17.067-5.689-45.511 9.956-58.311 8.533-7.111 92.444-79.644 100.978-86.756 14.222-12.8 25.6-14.222 36.978-11.378 21.333 2.844 35.556 21.333 31.289 42.667zM658.489 360.533c-1.422-82.489-68.267-147.911-150.756-146.489s-147.911 68.267-146.489 150.756 68.267 147.911 150.756 146.489c81.067-1.422 147.911-69.689 146.489-150.756z" />
<glyph unicode="&#xe92e;" glyph-name="stack-logo-pink" horiz-adv-x="1963" d="M750.933 462.933c0 91.022 32.711 174.933 86.756 238.933-85.333 82.489-200.533 133.689-328.533 133.689-261.689 0-472.178-211.911-472.178-473.6s211.911-473.6 473.6-473.6c183.467 0 341.333 103.822 419.556 256-108.089 65.422-179.2 183.467-179.2 318.578z" />
<glyph unicode="&#xe92f;" glyph-name="stack-logo-white" horiz-adv-x="1963" d="M1272.889 462.933c0-82.475-66.859-149.333-149.333-149.333s-149.333 66.859-149.333 149.333c0 82.475 66.859 149.333 149.333 149.333s149.333-66.859 149.333-149.333zM760.889 515.556l35.556-219.022c4.267-24.178-7.111-38.4-31.289-42.667s-38.4 5.689-42.667 29.867l-35.556 220.444c-4.267 24.178 5.689 38.4 31.289 42.667 24.178 4.267 38.4-5.689 42.667-31.289zM874.667 421.689c0 0 66.844-54.044 79.644-62.578 11.378-8.533 22.756-19.911 25.6-32.711 4.267-22.756-9.956-39.822-31.289-42.667-12.8-1.422-24.178 0-36.978 11.378-8.533 7.111-92.444 79.644-100.978 86.756-15.644 12.8-19.911 41.244-9.956 58.311 5.689 9.956 62.578 105.244 68.267 113.778 8.533 15.644 19.911 21.333 31.289 22.756 19.911 2.844 39.822-8.533 42.667-31.289 1.422-12.8-5.689-27.022-12.8-39.822-8.533-11.378-55.467-83.911-55.467-83.911z" />
<glyph unicode="&#xe930;" glyph-name="stack-message-dialog" d="M278.756 327.822h-38.4v167.822c0 1.422 0 1.422-1.422 2.844-1.422 0-1.422 1.422-2.844 0l-72.533-18.489c-1.422 0-2.844-1.422-2.844-2.844v-25.6c0-1.422 0-1.422 1.422-2.844 1.422 0 1.422-1.422 2.844 0l38.4 9.956v-130.844h-38.4c-1.422 0-2.844-1.422-2.844-2.844v-24.178c0-1.422 1.422-2.844 2.844-2.844h113.778c1.422 0 2.844 1.422 2.844 2.844v24.178c1.422 1.422 0 2.844-2.844 2.844zM452.267 406.044c7.111 12.8 9.956 24.178 9.956 36.978 0 17.067-5.689 31.289-17.067 41.244s-25.6 15.644-44.089 15.644c-21.333 0-39.822-5.689-55.467-18.489-1.422 0-1.422-1.422-1.422-2.844v-28.444c0-1.422 1.422-2.844 1.422-2.844s2.844 0 4.267 0c14.222 12.8 29.867 19.911 46.933 19.911 21.333 0 29.867-8.533 29.867-28.444 0-9.956-2.844-18.489-8.533-27.022s-14.222-18.489-27.022-31.289l-55.467-55.467c0 0-1.422-1.422-1.422-2.844v-24.178c0-1.422 1.422-2.844 2.844-2.844h119.467c1.422 0 2.844 1.422 2.844 2.844v25.6c0 1.422-1.422 2.844-2.844 2.844h-76.8l36.978 35.556c17.067 18.489 28.444 32.711 35.556 44.089zM630.044 387.556c-5.689 5.689-14.222 11.378-22.756 12.8 19.911 8.533 29.867 24.178 29.867 46.933 0 15.644-5.689 27.022-17.067 36.978-11.378 8.533-25.6 12.8-42.667 12.8-18.489 0-34.133-4.267-46.933-11.378-1.422 0-1.422-1.422-1.422-2.844v-25.6c0-1.422 1.422-2.844 1.422-2.844 1.422 0 2.844 0 4.267 0 11.378 8.533 24.178 12.8 35.556 12.8 19.911 0 29.867-8.533 29.867-25.6 0-18.489-12.8-28.444-41.244-28.444h-15.644c-1.422 0-2.844-1.422-2.844-2.844v-22.756c0-1.422 1.422-2.844 2.844-2.844h17.067c31.289 0 45.511-9.956 45.511-29.867 0-9.956-2.844-15.644-9.956-21.333-5.689-7.111-15.644-9.956-27.022-9.956-15.644 0-29.867 4.267-42.667 14.222-1.422 1.422-2.844 1.422-4.267 0-1.422 0-1.422-1.422-1.422-2.844v-28.444c0-1.422 0-2.844 1.422-2.844 11.378-7.111 27.022-9.956 46.933-9.956 21.333 0 39.822 5.689 52.622 15.644 14.222 11.378 21.333 25.6 21.333 45.511 0 12.8-4.267 24.178-12.8 32.711zM859.022-2.133c-5.689 0-9.956 1.422-14.222 4.267l-155.022 112.356h-548.978c-62.578 0-112.356 49.778-112.356 112.356v368.356c0 62.578 49.778 112.356 112.356 112.356h742.4c62.578 0 112.356-49.778 112.356-112.356v-368.356c0-62.578-49.778-112.356-112.356-112.356v0-91.022c0-8.533-4.267-17.067-11.378-21.333-4.267-4.267-8.533-4.267-12.8-4.267zM76.8 249.6c0-48.356 39.822-88.178 88.178-88.178h533.333c5.689 0 9.956-1.422 14.222-4.267l122.311-88.178v68.267c0 12.8 11.378 24.178 24.178 24.178v0c48.356 0 88.178 39.822 88.178 88.178v321.422c0 48.356-39.822 88.178-88.178 88.178h-694.044c-48.356 0-88.178-39.822-88.178-88.178v-321.422z" />
<glyph unicode="&#xe931;" glyph-name="stack-message-line" d="M860.444 296.533h-136.533c-12.8 0-24.178 9.956-24.178 24.178 0 12.8 9.956 24.178 24.178 24.178h136.533c12.8 0 24.178-9.956 24.178-24.178 0-12.8-11.378-24.178-24.178-24.178z" />
<glyph unicode="&#xe932;" glyph-name="stack-mobile-bd" d="M718.222 835.556h-412.444c-39.822 0-71.111-32.711-71.111-71.111v-824.889c0-39.822 32.711-71.111 71.111-71.111h412.444c39.822 0 71.111 32.711 71.111 71.111v824.889c0 38.4-31.289 71.111-71.111 71.111zM281.6-4.978h170.667c-7.111-11.378-11.378-25.6-11.378-39.822s4.267-28.444 11.378-39.822h-146.489c-12.8 0-24.178 9.956-24.178 24.178v55.467zM305.778 787.2h412.444c12.8 0 24.178-9.956 24.178-24.178v-24.178h-460.8v25.6c0 12.8 11.378 22.756 24.178 22.756zM281.6 43.378v649.956h459.378v-649.956h-459.378zM512-67.556c-12.8 0-24.178 9.956-24.178 24.178s9.956 24.178 24.178 24.178 24.178-9.956 24.178-24.178-11.378-24.178-24.178-24.178zM583.111-44.8c0 14.222-4.267 28.444-11.378 39.822h170.667v-55.467c0-12.8-9.956-24.178-24.178-24.178h-146.489c7.111 12.8 11.378 25.6 11.378 39.822zM496.356 748.8h79.644c9.956 0 15.644 5.689 15.644 15.644s-5.689 15.644-15.644 15.644h-79.644c-9.956 0-15.644-5.689-15.644-15.644s5.689-15.644 15.644-15.644zM432.356 748.8h15.644c9.956 0 15.644 5.689 15.644 15.644s-5.689 15.644-15.644 15.644h-15.644c-9.956 0-15.644-5.689-15.644-15.644s7.111-15.644 15.644-15.644z" />
<glyph unicode="&#xe933;" glyph-name="stack-mobile-hd" d="M664.178 504.178c-39.822 39.822-93.867 62.578-152.178 62.578s-110.933-22.756-152.178-62.578c-39.822-39.822-62.578-93.867-62.578-152.178s22.756-110.933 62.578-152.178c39.822-39.822 93.867-62.578 152.178-62.578s110.933 22.756 152.178 62.578c39.822 39.822 62.578 93.867 62.578 152.178s-22.756 110.933-62.578 152.178zM512 185.6c-44.089 0-86.756 17.067-118.044 48.356s-48.356 72.533-48.356 118.044c0 44.089 17.067 86.756 48.356 118.044s72.533 48.356 118.044 48.356 86.756-17.067 118.044-48.356c31.289-31.289 48.356-72.533 48.356-118.044 0-44.089-17.067-86.756-48.356-118.044s-73.956-48.356-118.044-48.356zM605.867 434.489c-4.267 2.844-9.956 5.689-15.644 5.689-7.111 0-12.8-2.844-17.067-7.111v0 0l-78.222-91.022-44.089 44.089c-4.267 4.267-9.956 7.111-17.067 7.111-5.689 0-12.8-2.844-17.067-7.111-9.956-9.956-9.956-24.178 0-34.133l61.156-61.156c1.422-1.422 1.422-2.844 2.844-2.844 0 0 0 0 0 0 4.267-4.267 9.956-5.689 15.644-5.689s12.8 2.844 17.067 7.111c2.844 2.844 4.267 4.267 5.689 7.111l89.6 105.244c4.267 4.267 7.111 11.378 5.689 17.067 0 5.689-4.267 11.378-8.533 15.644z" />
<glyph unicode="&#xe934;" glyph-name="stack-morefile-bd" d="M829.156 367.644c-14.222 0-25.6-11.378-25.6-25.6v-310.044h-570.311v583.111h118.044c27.022 0 49.778 22.756 49.778 49.778v120.889h402.489v-64c0-14.222 11.378-25.6 25.6-25.6s25.6 11.378 25.6 25.6v64c-1.422 27.022-22.756 49.778-49.778 49.778h-428.089c-7.111 0-12.8-2.844-17.067-7.111l-169.244-169.244c-4.267-4.267-7.111-11.378-7.111-18.489v-608.711c0-27.022 22.756-49.778 49.778-49.778h571.733c27.022 0 49.778 22.756 49.778 49.778v311.467c0 7.111-2.844 12.8-7.111 18.489-5.689 4.267-12.8 5.689-18.489 5.689zM268.8 667.733l82.489 82.489v-82.489h-82.489zM510.578 342.044v0h-163.556c-14.222 0-25.6-11.378-25.6-25.6s11.378-25.6 25.6-25.6h116.622c0 0 0 0 0 0s0 0 0 0l49.778 51.2h-2.844zM347.022 454.4h275.911l49.778 51.2h-325.689c-14.222 0-25.6-11.378-25.6-25.6s11.378-25.6 25.6-25.6zM705.422-131.556h-664.178v887.467h126.578c12.8 0 22.756-9.956 22.756-22.756s-9.956-22.756-22.756-22.756h-81.067v-793.6h571.733v36.978c0 12.8 9.956 22.756 22.756 22.756s22.756-9.956 22.756-22.756v-85.333z" />
<glyph unicode="&#xe935;" glyph-name="stack-morefile-hd" d="M961.422 643.556l-22.756 24.178c-14.222 14.222-32.711 21.333-51.2 21.333-19.911 0-38.4-7.111-51.2-21.333l-398.222-402.489c0 0 0 0 0 0 0-1.422-1.422-1.422-1.422-2.844l-39.822-139.378c-4.267-14.222 8.533-27.022 22.756-22.756 27.022 7.111 71.111 18.489 140.8 38.4 4.267 1.422 8.533 2.844 11.378 7.111l392.533 393.956c25.6 28.444 25.6 75.378-2.844 103.822zM503.467 175.644l-42.667-11.378c0 0 0 0 0 0l11.378 42.667c0 0 0 0 0 0l31.289-31.289c0 0 0 0 0 0zM868.978 516.978l-317.156-317.156c0 0 0 0 0 0l-56.889 56.889c0 0 0 0 0 0l317.156 318.578c0 0 0 0 0 0l56.889-58.311c0 0 0 0 0 0zM925.867 575.289l-21.333-21.333c0 0 0 0 0 0l-56.889 56.889c0 0 0 0 0 0l21.333 21.333c4.267 4.267 9.956 7.111 17.067 7.111 5.689 0 12.8-2.844 17.067-7.111l24.178-24.178c8.533-8.533 8.533-24.178-1.422-32.711z" />
<glyph unicode="&#xe936;" glyph-name="stack-swipe-card" d="M566.044 563.911v44.089c0 1.422 0 2.844 0 2.844v128c0 52.622-44.089 96.711-96.711 96.711h-344.178c-52.622 0-96.711-44.089-96.711-96.711v-601.6c0-54.044 44.089-96.711 96.711-96.711h344.178c9.956 0 19.911 1.422 29.867 5.689 4.267 1.422 7.111 4.267 7.111 8.533 1.422 4.267 0 8.533-4.267 9.956-9.956 8.533-22.756 25.6-29.867 35.556-1.422 2.844-5.689 4.267-8.533 4.267 0 0 0 0 0 0-1.422 0-1.422 0-2.844 0 0 0 0 0-1.422 0h-193.422v665.6h203.378c17.067 0 31.289-14.222 31.289-31.289v-251.733c-1.422-2.844-1.422-7.111 0-9.956 0 0 31.289-56.889 44.089-85.333 1.422-4.267 7.111-7.111 12.8-7.111 5.689 1.422 8.533 5.689 8.533 11.378v27.022c0 1.422 0 2.844 0 2.844v46.933c0 1.422 0 2.844 0 2.844v82.489c0 2.844 0 4.267 0 5.689zM200.533 770.133v-665.6h-21.333v665.6h21.333zM113.778 768.711v-661.333c-12.8 4.267-21.333 15.644-21.333 29.867v601.6c1.422 12.8 9.956 25.6 21.333 29.867z" />
<glyph unicode="&#xe937;" glyph-name="stack-swipe-hand" d="M988.444 93.156c0 0 0 0 0 0 0 1.422-61.156 79.644-81.067 139.378-4.267 14.222-9.956 34.133-17.067 58.311v1.422c-34.133 122.311-62.578 219.022-98.133 253.156-36.978 36.978-163.556 59.733-236.089 71.111-5.689 1.422-11.378-2.844-12.8-9.956 0-1.422 0-2.844 0-5.689v-39.822c0-5.689 4.267-9.956 9.956-11.378 95.289-14.222 177.778-36.978 193.422-51.2 25.6-25.6 61.156-155.022 81.067-224.711v0c7.111-25.6 12.8-46.933 18.489-62.578 17.067-54.044 58.311-115.2 79.644-143.644-19.911-36.978-79.644-126.578-201.956-135.111-44.089 68.267-95.289 99.556-136.533 125.156-28.444 17.067-52.622 31.289-69.689 55.467-15.644 21.333-24.178 38.4-29.867 52.622 0 1.422-1.422 4.267-1.422 5.689-2.844 11.378-4.267 22.756-4.267 34.133 0 7.111 0 12.8-1.422 19.911-4.267 45.511-31.289 110.933-69.689 166.4-32.711 45.511-51.2 105.244-27.022 130.844 0 0 0 0 0 0s1.422 0 2.844 0c27.022-5.689 79.644-62.578 93.867-96.711 4.267-11.378 12.8-29.867 22.756-48.356 0 0 0 0 0-1.422 0 0 0-1.422 0-1.422 32.711-62.578 66.844-102.4 102.4-116.622 0 0 0 0 0 0 4.267-1.422 8.533-2.844 12.8-2.844 5.689 0 12.8 1.422 18.489 5.689 24.178 15.644 35.556 41.244 42.667 58.311 1.422 4.267 2.844 7.111 4.267 9.956 11.378 9.956 14.222 25.6 7.111 38.4-5.689 11.378-14.222 41.244-18.489 58.311-2.844 9.956-9.956 18.489-19.911 21.333l-93.867 36.978c0 0 0 0 0 0v0c-5.689 2.844-12.8 0-14.222-5.689-1.422-2.844-1.422-5.689 0-7.111v-27.022c-2.844 4.267-4.267 8.533-7.111 14.222 0 0 0 0 0 0s0 0 0 1.422c-5.689 11.378-11.378 21.333-14.222 25.6 0 1.422-1.422 1.422-1.422 2.844-27.022 39.822-75.378 89.6-119.467 98.133-24.178 5.689-45.511-1.422-62.578-17.067-56.889-56.889-25.6-150.756 17.067-213.333 31.289-46.933 55.467-100.978 58.311-135.111 0-5.689 1.422-9.956 1.422-15.644v-1.422c1.422-28.444 2.844-59.733 36.978-110.933l2.844-4.267c2.844-4.267 19.911-28.444 32.711-39.822 0 0 0 0 0 0 18.489-17.067 39.822-29.867 62.578-44.089 42.667-25.6 86.756-52.622 125.156-118.044 5.689-9.956 17.067-15.644 28.444-15.644 211.911 0 287.289 190.578 288.711 192 2.844 8.533 1.422 19.911-5.689 29.867zM614.4 391.822c2.844-11.378 7.111-24.178 11.378-35.556-1.422-4.267-2.844-7.111-5.689-11.378-1.422-4.267-4.267-9.956-7.111-14.222-15.644 14.222-31.289 38.4-48.356 69.689 0 0 0 0 0 0-1.422 4.267-4.267 8.533-5.689 12.8l55.467-21.333z" />
<glyph unicode="&#xe938;" glyph-name="stack-vaildate-hand" d="M994.133 182.756l-100.978 211.911c0 0 0 0 0 1.422-7.111 14.222-21.333 24.178-36.978 27.022-4.267 0-8.533 0-12.8 0-11.378 0-22.756-2.844-32.711-9.956-1.422-1.422-2.844-1.422-2.844-2.844-9.956 8.533-22.756 14.222-36.978 14.222-9.956 0-19.911-2.844-28.444-7.111-7.111-4.267-11.378-8.533-17.067-14.222-5.689 1.422-11.378 2.844-17.067 2.844-9.956 0-19.911-2.844-28.444-7.111-1.422-1.422-4.267-2.844-5.689-4.267l-9.956 18.489c-7.111 14.222-21.333 24.178-36.978 27.022-4.267 1.422-8.533 1.422-12.8 1.422-11.378 0-22.756-2.844-32.711-9.956-24.178-17.067-31.289-48.356-15.644-73.956l58.311-102.4c-11.378-7.111-19.911-17.067-24.178-29.867-5.689-15.644-4.267-32.711 1.422-46.933 7.111-14.222 19.911-25.6 34.133-31.289l65.422-24.178 58.311-72.533c2.844-2.844 5.689-4.267 9.956-4.267 1.422 0 4.267 0 5.689 1.422l211.911 120.889c8.533 1.422 9.956 8.533 7.111 14.222zM648.533 206.933c1.422 4.267 5.689 7.111 11.378 7.111 0 0 1.422 0 1.422 0l24.178-2.844c0 0 1.422 0 1.422 0 4.267 0 8.533 1.422 9.956 5.689 2.844 4.267 2.844 8.533 0 12.8l-85.333 150.756c-1.422 2.844-1.422 7.111 1.422 9.956 1.422 1.422 2.844 1.422 4.267 1.422 0 0 1.422 0 1.422 0 1.422 0 2.844-1.422 4.267-2.844l76.8-133.689c2.844-4.267 7.111-5.689 11.378-5.689 1.422 0 4.267 0 5.689 1.422l21.333 12.8c5.689 2.844 8.533 11.378 4.267 17.067l-38.4 66.844c-1.422 1.422-1.422 2.844 0 5.689 0 1.422 1.422 2.844 2.844 4.267 1.422 0 1.422 1.422 2.844 1.422 2.844 0 4.267-1.422 5.689-2.844l7.111-12.8 31.289-54.044c1.422-2.844 4.267-5.689 7.111-5.689 1.422 0 2.844 0 2.844 0 2.844 0 4.267 0 5.689 1.422l21.333 12.8c5.689 2.844 8.533 11.378 4.267 17.067l-31.289 54.044c-1.422 2.844 0 7.111 2.844 8.533 1.422 0 1.422 1.422 2.844 1.422s4.267-1.422 5.689-2.844l18.489-32.711 12.8-21.333c1.422-2.844 4.267-5.689 7.111-5.689 1.422 0 2.844 0 2.844 0 2.844 0 4.267 0 5.689 1.422l21.333 12.8c5.689 2.844 8.533 11.378 4.267 17.067l-12.8 21.333c-1.422 2.844-1.422 7.111 1.422 9.956 1.422 1.422 2.844 1.422 4.267 1.422 0 0 1.422 0 1.422 0 1.422 0 2.844-1.422 4.267-2.844l85.333-179.2-155.022-88.178-45.511 56.889c-1.422 1.422-4.267 2.844-5.689 4.267v-5.689c0 0-1.422 0-1.422 0l-68.267 25.6c-2.844 1.422-5.689 2.844-7.111 5.689-1.422 4.267-1.422 7.111 0 9.956z" />
<glyph unicode="&#xe939;" glyph-name="stack-vaildate-input" d="M374.044 475.733c0-18.066-14.645-32.711-32.711-32.711s-32.711 14.645-32.711 32.711c0 18.066 14.645 32.711 32.711 32.711s32.711-14.645 32.711-32.711zM475.022 475.733c0-18.066-14.645-32.711-32.711-32.711s-32.711 14.645-32.711 32.711c0 18.066 14.645 32.711 32.711 32.711s32.711-14.645 32.711-32.711zM578.844 475.733c0-18.066-14.645-32.711-32.711-32.711s-32.711 14.645-32.711 32.711c0 18.066 14.645 32.711 32.711 32.711s32.711-14.645 32.711-32.711zM581.689 334.933h-368.356c-76.8 0-140.8 62.578-140.8 140.8v0c0 76.8 62.578 140.8 140.8 140.8h462.222c76.8 0 140.8-62.578 140.8-140.8v0c0-24.178-5.689-46.933-17.067-65.422l11.378-14.222 41.244 24.178c5.689 18.489 8.533 36.978 8.533 56.889 0 24.178-4.267 48.356-14.222 71.111-9.956 21.333-22.756 41.244-39.822 58.311s-36.978 29.867-58.311 39.822c-22.756 9.956-46.933 14.222-71.111 14.222h-463.644c-24.178 0-48.356-4.267-71.111-14.222s-42.667-22.756-59.733-39.822c-17.067-17.067-29.867-36.978-39.822-58.311-9.956-22.756-14.222-46.933-14.222-71.111s4.267-48.356 14.222-71.111c9.956-21.333 22.756-41.244 39.822-58.311s36.978-29.867 58.311-39.822c22.756-9.956 46.933-14.222 71.111-14.222h393.956l-24.178 41.244z" />
<glyph unicode="&#xe93a;" glyph-name="transfer" d="M258.844 330.667c9.956 9.956 11.378 27.022 1.422 36.978s-27.022 11.378-36.978 1.422l-49.778-46.933c-18.489 142.222 49.778 281.6 174.933 352.711 169.244 96.711 385.422 36.978 480.711-132.267 7.111-12.8 24.178-17.067 35.556-9.956 12.8 7.111 17.067 24.178 9.956 35.556-54.044 93.867-140.8 162.133-244.622 190.578s-213.333 15.644-308.622-38.4c-75.378-42.667-135.111-108.089-170.667-187.733-28.444-65.422-39.822-136.533-32.711-206.222l-44.089 45.511c-9.956 9.956-27.022 11.378-36.978 1.422s-11.378-27.022-1.422-36.978l89.6-95.289c5.689-5.689 12.8-8.533 19.911-8.533s12.8 2.844 18.489 7.111l95.289 91.022zM988.444 367.644l-89.6 95.289c-9.956 9.956-27.022 11.378-36.978 1.422l-95.289-89.6c-9.956-9.956-11.378-27.022-1.422-36.978s27.022-11.378 36.978-1.422l49.778 46.933c18.489-142.222-49.778-281.6-174.933-352.711-169.244-96.711-385.422-36.978-480.711 132.267-7.111 12.8-24.178 17.067-35.556 9.956-12.8-7.111-17.067-24.178-9.956-35.556 54.044-93.867 140.8-162.133 244.622-190.578 35.556-9.956 72.533-14.222 108.089-14.222 69.689 0 137.956 18.489 200.533 52.622 75.378 42.667 135.111 108.089 170.667 187.733 28.444 65.422 39.822 136.533 32.711 206.222l44.089-45.511c5.689-5.689 12.8-8.533 19.911-8.533s12.8 2.844 18.489 7.111c8.533 8.533 8.533 24.178-1.422 35.556zM516.267 140.089c14.222 0 25.6 11.378 25.6 25.6v39.822h4.267c0 0 0 0 0 0 46.933 0 85.333 41.244 85.333 91.022 0 51.2-38.4 91.022-86.756 91.022h-56.889c-19.911 0-36.978 18.489-36.978 41.244s17.067 41.244 36.978 41.244h99.556c14.222 0 25.6 11.378 25.6 25.6s-11.378 25.6-25.6 25.6h-45.511v38.4c0 14.222-11.378 25.6-25.6 25.6s-25.6-11.378-25.6-25.6v-38.4h-2.844c-48.356 0-86.756-41.244-86.756-91.022s38.4-91.022 86.756-91.022h56.889c19.911 0 36.978-18.489 36.978-41.244s-17.067-41.244-36.978-41.244h-100.978c-14.222 0-25.6-11.378-25.6-25.6s11.378-25.6 25.6-25.6h48.356v-38.4c-1.422-15.644 9.956-27.022 24.178-27.022z" />
<glyph unicode="&#xe93b;" glyph-name="trend" d="M947.2-84.622h-36.978v590.222c0 29.867-24.178 55.467-55.467 55.467h-91.022c-29.867 0-55.467-24.178-55.467-55.467v-591.644h-95.289v322.844c0 29.867-24.178 55.467-55.467 55.467h-91.022c-29.867 0-55.467-24.178-55.467-55.467v-321.422h-95.289v163.556c0 29.867-24.178 55.467-55.467 55.467h-89.6c-29.867 0-55.467-24.178-55.467-55.467v-163.556h-38.4c-12.8 0-22.756-9.956-22.756-22.756s9.956-22.756 22.756-22.756h868.978c12.8 0 22.756 9.956 22.756 22.756 1.422 12.8-8.533 22.756-21.333 22.756zM863.289 505.6v-591.644h-108.089v591.644c0 4.267 4.267 8.533 8.533 8.533h91.022c5.689 0 8.533-2.844 8.533-8.533zM567.467 236.8v-321.422h-108.089v321.422c0 4.267 4.267 8.533 8.533 8.533h91.022c4.267-1.422 8.533-4.267 8.533-8.533zM270.222 78.933v-163.556h-108.089v163.556c0 4.267 4.267 8.533 8.533 8.533h91.022c5.689 0 8.533-4.267 8.533-8.533zM237.511 305.067c5.689 0 12.8 2.844 17.067 7.111l320 320 65.422-66.844c8.533-8.533 24.178-8.533 32.711 0l190.578 190.578v-52.622c0-12.8 9.956-22.756 22.756-22.756s22.756 9.956 22.756 22.756v106.667c0 0 0 0 0 1.422v0c0 7.111-2.844 12.8-7.111 17.067-2.844 4.267-8.533 7.111-15.644 7.111v0c0 0 0 0-1.422 0h-113.778c-12.8 0-22.756-9.956-22.756-22.756s9.956-22.756 22.756-22.756h58.311l-172.089-174.933-66.844 66.844c-4.267 4.267-9.956 7.111-17.067 7.111-5.689 0-12.8-2.844-17.067-7.111l-335.644-337.067c-8.533-8.533-8.533-24.178 0-32.711 5.689-4.267 11.378-7.111 17.067-7.111zM197.689 263.822c0-12.568-10.188-22.756-22.756-22.756s-22.756 10.188-22.756 22.756c0 12.568 10.188 22.756 22.756 22.756s22.756-10.188 22.756-22.756z" />
<glyph unicode="&#xe93c;" glyph-name="youtube-circle" d="M512 835.556c-267.378 0-483.556-216.178-483.556-483.556s216.178-483.556 483.556-483.556c267.378 0 483.556 216.178 483.556 483.556s-216.178 483.556-483.556 483.556zM748.089 236.8c-5.689-25.6-27.022-45.511-52.622-48.356-61.156-7.111-122.311-7.111-183.467-7.111s-122.311 0-183.467 7.111c-25.6 2.844-46.933 21.333-52.622 48.356-8.533 36.978-8.533 76.8-8.533 115.2s0 78.222 8.533 115.2c5.689 25.6 27.022 45.511 52.622 48.356 61.156 7.111 122.311 7.111 183.467 7.111s122.311 0 183.467-7.111c25.6-2.844 46.933-21.333 52.622-48.356 8.533-36.978 8.533-76.8 8.533-115.2s0-78.222-8.533-115.2zM449.422 276.622v160.711c51.2-27.022 102.4-54.044 155.022-81.067-52.622-27.022-103.822-52.622-155.022-79.644v0z" />
<glyph unicode="&#xe93d;" glyph-name="account" d="M890.311 708.978c-149.333 0-251.733 48.356-361.244 120.889-9.956 7.111-24.178 7.111-35.556 0-109.511-72.533-211.911-120.889-361.244-120.889-17.067 0-31.289-14.222-31.289-31.289v-331.378c0-115.2 41.244-226.133 115.2-312.889s177.778-145.067 290.133-164.978c1.422 0 2.844 0 5.689 0 1.422 0 2.844 0 5.689 0 112.356 18.489 216.178 76.8 290.133 164.978 73.956 86.756 115.2 199.111 115.2 312.889v331.378c-1.422 17.067-15.644 31.289-32.711 31.289zM859.022 346.311c0-204.8-145.067-378.311-347.022-413.867-201.956 35.556-347.022 209.067-347.022 413.867v300.089c140.8 5.689 241.778 51.2 347.022 119.467 92.444-59.733 199.111-112.356 347.022-119.467v-300.089zM512 646.4c-156.444 0-284.444-128-284.444-284.444 0-76.8 31.289-147.911 81.067-199.111 0-1.422 1.422-1.422 1.422-2.844 54.044-54.044 125.156-82.489 200.533-82.489 72.533 0 145.067 28.444 200.533 82.489 0 0 1.422 1.422 1.422 2.844 49.778 51.2 81.067 120.889 81.067 199.111 2.844 156.444-125.156 284.444-281.6 284.444zM512 141.511c-45.511 0-91.022 14.222-129.422 42.667 36.978 27.022 82.489 42.667 129.422 42.667s92.444-14.222 129.422-42.667c-36.978-27.022-82.489-42.667-129.422-42.667zM686.933 228.267c-49.778 39.822-110.933 61.156-174.933 61.156s-125.156-21.333-174.933-61.156c-28.444 36.978-45.511 83.911-45.511 133.689 0 122.311 99.556 220.444 220.444 220.444s220.444-99.556 220.444-220.444c0-49.778-17.067-96.711-45.511-133.689zM512 519.822c-64 0-115.2-51.2-115.2-115.2s51.2-115.2 115.2-115.2 115.2 51.2 115.2 115.2c0 64-51.2 115.2-115.2 115.2zM512 352c-28.444 0-52.622 24.178-52.622 52.622s24.178 52.622 52.622 52.622 52.622-24.178 52.622-52.622-24.178-52.622-52.622-52.622z" />
</font>
</defs>
</svg>
